<?xml version="1.0" encoding="utf-8"?>
<!-- Generator: Adobe Illustrator 15.0.2, SVG Export Plug-In . SVG Version: 6.00 Build 0)  -->
<!DOCTYPE svg PUBLIC "-//W3C//DTD SVG 1.1//EN" "http://www.w3.org/Graphics/SVG/1.1/DTD/svg11.dtd">
<svg version="1.1" id="Layer_1" xmlns="http://www.w3.org/2000/svg" xmlns:xlink="http://www.w3.org/1999/xlink" x="0px" y="0px"
	 width="210px" height="76px" viewBox="0 0 210 76" enable-background="new 0 0 210 76" xml:space="preserve">
<path fill="#E35027" d="M6.131,48.516L1.807,0h47.566l-4.324,48.516L25.538,54"/>
<path fill="#EC662B" d="M25.643,49.781l15.715-4.324l3.691-41.555H25.643"/>
<path fill="#EBEBEB" d="M25.643,21.938h-7.91l-0.527-6.117h8.438V9.914h-0.105H10.667l0.105,1.582l1.477,16.453h13.395V21.938z
	 M25.643,37.441h-0.105l-6.645-1.793l-0.422-4.746h-3.164h-2.742l0.738,9.387l12.234,3.375h0.105V37.441z"/>
<path fill="#FFFFFF" d="M25.538,21.938v6.012h7.383l-0.738,7.699l-6.645,1.793v6.223l12.234-3.375l0.105-1.055l1.371-15.715
	l0.211-1.582h-1.688H25.538z M25.538,9.914v3.691v2.215l0,0h14.449l0,0l0,0l0.105-1.266l0.316-3.059l0.105-1.582H25.538z"/>
<g>
	<path fill="#FFFFFF" d="M61.94,17.141v3.197h0.944v2.336h-4.539l0.033-2.336h0.944v-8.664h-0.944V9.305h4.506v2.369H61.94v3.015
		h2.369v-3.015h-0.978V9.305h4.522v2.369h-0.928v5.444v3.22h0.928v2.336h-4.522v-2.336h0.978v-3.197H61.94z"/>
	<path fill="#FFFFFF" d="M75.109,22.673h-4.456v-2.336h0.878v-8.664h-0.845v1.607h-2.153V9.354h8.647v3.926h-2.154v-1.607h-0.845
		v8.664h0.928V22.673z"/>
	<path fill="#FFFFFF" d="M86.336,9.305h4.643v2.402h-0.795v8.614h0.795v2.353h-4.208v-2.353h0.696v-4.92l-2.071,7.272h-1.756
		l-2.038-7.272v4.92h0.845v2.353h-4.539v-2.353h0.961v-8.614h-0.961V9.305h4.875l1.851,9.028L86.336,9.305z"/>
	<path fill="#FFFFFF" d="M95.336,20.337h2.501v-1.772h2.535v4.108h-8.631v-2.336h0.977v-8.664h-0.977V9.305h4.522v2.369h-0.928
		V20.337z"/>
	<path fill="#FFFFFF" d="M102.343,17.306l-1.342-1.653V9.305h8.067v3.595h-2.717v-1.126h-2.766v2.883h4.141l1.392,1.358v5.5
		l-1.192,1.16h-5.533l-1.392-1.392v-2.369h2.468v1.358h3.065v-2.965H102.343z"/>
	<path fill="#FFFFFF" d="M122.868,22.673h-7.72v-2.336h0.961l0.017-8.697h-1.011V9.239h7.753l1.342,1.191v4.12l-0.961,1.142
		l0.961,0.993v4.533L122.868,22.673z M121.427,11.707h-2.684v2.949h2.684V11.707z M121.427,17.058h-2.684v3.28h2.684V17.058z"/>
	<path fill="#FFFFFF" d="M128.533,20.337h2.501v-1.772h2.535v4.108h-8.631v-2.336h0.978v-8.664h-0.978V9.305h4.522v2.369h-0.928
		V20.337z"/>
	<path fill="#FFFFFF" d="M137.71,22.673h-3.479v-2.303h0.48l2.004-8.697h-0.579l-0.017-2.369h3.976v2.369h-0.447l2.203,8.697h0.48
		v2.303h-3.562v-2.303h0.613l-0.183-0.762h-1.872l-0.199,0.762h0.58V22.673z M138.754,17.82l-0.514-2.071l-0.53,2.071H138.754z"/>
	<path fill="#FFFFFF" d="M147.335,22.673h-4.39v-2.402h0.994v-8.631h-0.994V9.305h3.854l1.927,5.715v-3.429h-0.944V9.305h4.572
		v2.336h-0.944v8.631h0.944v2.402h-3.611l-2.22-6.842v4.44h0.812V22.673z"/>
	<path fill="#FFFFFF" d="M157.904,11.674V9.305h4.29v2.369h-0.695l-2.866,3.801l2.8,4.863h0.762v2.336h-4.29v-2.336h0.729
		l-1.458-2.833l-0.646,0.911v1.921h0.944v2.336h-4.506l-0.017-2.336h0.961v-8.664h-0.961V9.305h4.522v2.369h-0.944v2.684l2.07-2.684
		H157.904z"/>
	<path fill="#FFFFFF" d="M63.364,42.553h-2.369l-1.623-10.967h-0.812v-2.402h4.091v2.402h-0.663l0.623,6.276l1.344-5.267l1.733,0
		l1.474,5.171l0.707-6.18h-0.861v-2.402h3.959v2.402h-0.779l-1.574,10.967h-2.369l-1.441-6.03L63.364,42.553z"/>
	<path fill="#FFFFFF" d="M72.906,42.553l-1.077-1.075V30.474l1.275-1.291h5.5l1.259,1.241v10.887l-1.226,1.241H72.906z
		 M77.247,31.586h-2.8v8.647h2.8V31.586z"/>
	<path fill="#FFFFFF" d="M85.181,42.553h-4.522v-2.336h0.944v-8.631h-0.944v-2.402h7.32l1.261,1.491v4.97l-1.408,1.358h-0.828
		l1.806,3.214h0.497v2.336h-3.744v-2.336h0.547l-1.657-3.115h-0.116v3.115h0.845V42.553z M86.473,31.586h-2.137v3.015h2.137V31.586z
		"/>
	<path fill="#FFFFFF" d="M97.34,42.553h-7.372l-0.017-2.319h0.994v-8.647h-0.994v-2.402h7.421l1.475,1.289v10.741L97.34,42.553z
		 M96.048,31.586h-2.485v8.647h2.485V31.586z"/>
	<path fill="#FFFFFF" d="M104.563,42.553h-4.605V40.2h0.928v-8.614h-0.928v-2.402h6.88l1.287,1.306v5.025l-1.358,1.388h-3.165
		l0.017,3.297h0.961L104.563,42.553z M105.325,31.586h-1.756v2.916h1.756V31.586z"/>
	<path fill="#FFFFFF" d="M113.276,42.553h-4.522v-2.336h0.944v-8.631h-0.944v-2.402h7.319l1.262,1.491v4.97l-1.408,1.358h-0.828
		l1.806,3.214h0.497v2.336h-3.744v-2.336h0.547l-1.657-3.115h-0.115v3.115h0.845V42.553z M114.568,31.586h-2.137v3.015h2.137V31.586
		z"/>
	<path fill="#FFFFFF" d="M126.612,42.553h-8.714v-2.336h0.944v-8.664h-1.011v-2.369h8.78v3.827h-2.535v-1.458h-2.617v3.098h2.005
		v2.353h-2.005v3.214h2.617v-1.773h2.535V42.553z"/>
	<path fill="#FFFFFF" d="M127.241,38.609h2.617v1.624h3.016v-3.23h-4.378l-1.255-1.229v-5.412l1.226-1.179h5.699l1.375,1.364v2.579
		h-2.667v-1.541h-3.016v3.015h4.406l1.227,1.226v5.467l-1.275,1.259h-5.533l-1.441-1.425V38.609z"/>
	<path fill="#FFFFFF" d="M136.104,38.609h2.617v1.624h3.016v-3.23h-4.378l-1.255-1.229v-5.412l1.226-1.179h5.699l1.375,1.364v2.579
		h-2.667v-1.541h-3.016v3.015h4.406l1.227,1.226v5.467l-1.275,1.259h-5.533l-1.441-1.425V38.609z"/>
	<path fill="#FFFFFF" d="M156.76,42.553h-4.456v-2.336h0.878v-8.664h-0.845v1.607h-2.153v-3.926h8.647v3.926h-2.153v-1.607h-0.846
		v8.664h0.928V42.553z"/>
	<path fill="#FFFFFF" d="M163.271,37.02v3.197h0.944v2.336h-4.539l0.033-2.336h0.944v-8.664h-0.944v-2.369h4.506v2.369h-0.944v3.015
		h2.369v-3.015h-0.978v-2.369h4.522v2.369h-0.928v5.444v3.22h0.928v2.336h-4.522v-2.336h0.978V37.02H163.271z"/>
	<path fill="#FFFFFF" d="M178.578,42.553h-8.714v-2.336h0.944v-8.664h-1.011v-2.369h8.78v3.827h-2.535v-1.458h-2.617v3.098h2.005
		v2.353h-2.005v3.214h2.617v-1.773h2.535V42.553z"/>
	<path fill="#FFFFFF" d="M187.634,29.184h4.644v2.402h-0.795V40.2h0.795v2.353h-4.208V40.2h0.696v-4.92l-2.071,7.273h-1.756
		l-2.037-7.273v4.92h0.845v2.353h-4.539V40.2h0.961v-8.614h-0.961v-2.402h4.874l1.852,9.028L187.634,29.184z"/>
	<path fill="#FFFFFF" d="M201.703,42.553h-8.714v-2.336h0.944v-8.664h-1.011v-2.369h8.78v3.827h-2.535v-1.458h-2.617v3.098h2.005
		v2.353h-2.005v3.214h2.617v-1.773h2.535V42.553z"/>
</g>
<g>
	<path fill="#FFFFFF" d="M14.058,58.968c0.176-0.017,0.33-0.03,0.462-0.042c0.132-0.012,0.26-0.024,0.384-0.036
		s0.254-0.02,0.39-0.024c0.136-0.004,0.295-0.006,0.48-0.006c0.384,0,0.762,0.04,1.134,0.12s0.706,0.218,1.002,0.414
		s0.534,0.46,0.714,0.792c0.18,0.332,0.27,0.75,0.27,1.254c0,0.312-0.056,0.597-0.168,0.853s-0.258,0.485-0.438,0.689
		c-0.18,0.204-0.388,0.38-0.624,0.528s-0.478,0.27-0.726,0.366l-0.096,0.035l2.748,3.721c-0.08,0.016-0.16,0.023-0.24,0.023
		s-0.16,0-0.24,0c-0.08,0-0.158,0-0.234,0c-0.076,0-0.154-0.008-0.234-0.023l-3.024-3.996v-0.048l0.264-0.072
		c0.272-0.072,0.536-0.166,0.792-0.282c0.256-0.115,0.482-0.256,0.678-0.42c0.196-0.164,0.354-0.357,0.474-0.582
		c0.12-0.224,0.18-0.487,0.18-0.792c0-0.624-0.192-1.092-0.576-1.404c-0.384-0.312-0.904-0.468-1.56-0.468
		c-0.168,0-0.324,0.004-0.468,0.013c-0.144,0.008-0.316,0.023-0.516,0.048v8.004c-0.056,0.008-0.124,0.014-0.204,0.018
		s-0.152,0.006-0.216,0.006c-0.072,0-0.144-0.002-0.216-0.006c-0.072-0.004-0.136-0.01-0.192-0.018V58.968z"/>
	<path fill="#FFFFFF" d="M23.718,63.588c0-0.528-0.125-0.914-0.372-1.158c-0.248-0.244-0.616-0.366-1.104-0.366
		c-0.32,0-0.612,0.022-0.876,0.066c-0.264,0.044-0.5,0.098-0.708,0.162c-0.041-0.072-0.074-0.177-0.102-0.312
		c-0.028-0.136-0.042-0.264-0.042-0.384c0.208-0.064,0.464-0.118,0.768-0.162c0.304-0.044,0.616-0.066,0.936-0.066
		c0.776,0,1.352,0.171,1.728,0.511s0.564,0.874,0.564,1.602v4.044c-0.28,0.057-0.62,0.112-1.02,0.168
		c-0.4,0.056-0.78,0.084-1.14,0.084c-0.744,0-1.33-0.147-1.758-0.443c-0.428-0.296-0.642-0.776-0.642-1.44
		c0-0.32,0.062-0.606,0.186-0.858c0.124-0.252,0.296-0.464,0.516-0.636c0.22-0.172,0.484-0.302,0.792-0.39s0.646-0.132,1.014-0.132
		c0.288,0,0.536,0.01,0.744,0.029c0.208,0.021,0.38,0.038,0.516,0.055V63.588z M23.718,64.655c-0.136-0.016-0.306-0.033-0.51-0.054
		c-0.204-0.02-0.398-0.03-0.582-0.03c-0.6,0-1.064,0.112-1.392,0.336c-0.328,0.225-0.492,0.545-0.492,0.96
		c0,0.265,0.05,0.477,0.15,0.637s0.23,0.281,0.39,0.365c0.16,0.084,0.336,0.141,0.528,0.168c0.192,0.028,0.384,0.043,0.576,0.043
		c0.248,0,0.48-0.013,0.696-0.036c0.216-0.024,0.428-0.057,0.636-0.097V64.655z"/>
	<path fill="#FFFFFF" d="M25.902,61.512c0.048-0.008,0.108-0.014,0.18-0.019c0.072-0.004,0.132-0.006,0.18-0.006
		s0.108,0.002,0.18,0.006c0.072,0.005,0.132,0.011,0.18,0.019l0.072,0.84c0.168-0.256,0.41-0.484,0.726-0.684
		c0.316-0.2,0.726-0.301,1.23-0.301c0.376,0,0.72,0.059,1.032,0.175c0.312,0.115,0.578,0.298,0.798,0.546
		c0.22,0.248,0.392,0.56,0.516,0.936s0.186,0.828,0.186,1.356c0,0.527-0.072,1.002-0.216,1.422s-0.354,0.776-0.63,1.067
		c-0.276,0.293-0.616,0.517-1.02,0.673c-0.404,0.155-0.866,0.233-1.386,0.233c-0.192,0-0.4-0.016-0.624-0.048
		s-0.428-0.08-0.612-0.144v2.88c-0.048,0.008-0.116,0.014-0.204,0.018c-0.088,0.004-0.152,0.006-0.192,0.006
		c-0.048,0-0.114-0.002-0.198-0.006s-0.15-0.01-0.198-0.018V61.512z M26.694,66.852c0.184,0.072,0.374,0.126,0.57,0.162
		c0.196,0.036,0.458,0.054,0.786,0.054c0.312,0,0.608-0.05,0.888-0.149c0.28-0.101,0.524-0.259,0.732-0.475
		c0.208-0.216,0.372-0.489,0.492-0.821s0.18-0.73,0.18-1.194c0-0.736-0.138-1.312-0.414-1.729c-0.276-0.415-0.722-0.624-1.338-0.624
		c-0.192,0-0.4,0.032-0.624,0.097c-0.224,0.063-0.43,0.174-0.618,0.33c-0.188,0.155-0.344,0.359-0.468,0.611
		c-0.125,0.252-0.186,0.57-0.186,0.954V66.852z"/>
	<path fill="#FFFFFF" d="M32.742,62.184h-0.768c-0.008-0.04-0.014-0.088-0.018-0.144c-0.004-0.057-0.006-0.116-0.006-0.181
		c0-0.063,0.001-0.128,0.006-0.191c0.004-0.064,0.01-0.116,0.018-0.156h1.56v6.12c-0.048,0.008-0.114,0.014-0.198,0.018
		s-0.15,0.006-0.198,0.006c-0.041,0-0.104-0.002-0.192-0.006s-0.156-0.01-0.204-0.018V62.184z M32.346,60.012
		c-0.008-0.072-0.014-0.16-0.018-0.264c-0.004-0.104-0.006-0.192-0.006-0.265c0-0.063,0.002-0.144,0.006-0.24
		c0.004-0.096,0.01-0.176,0.018-0.239c0.072-0.008,0.16-0.015,0.264-0.019s0.192-0.006,0.264-0.006c0.064,0,0.144,0.002,0.24,0.006
		c0.096,0.004,0.176,0.011,0.24,0.019c0.008,0.063,0.014,0.144,0.018,0.239c0.004,0.097,0.006,0.177,0.006,0.24
		c0,0.072-0.002,0.16-0.006,0.265c-0.004,0.104-0.01,0.191-0.018,0.264c-0.064,0.008-0.144,0.014-0.24,0.018
		c-0.096,0.005-0.176,0.006-0.24,0.006c-0.072,0-0.16-0.001-0.264-0.006C32.506,60.025,32.418,60.02,32.346,60.012z"/>
	<path fill="#FFFFFF" d="M39.162,58.812c0.048-0.008,0.116-0.014,0.204-0.018s0.152-0.007,0.192-0.007
		c0.048,0,0.114,0.003,0.198,0.007s0.15,0.01,0.198,0.018v8.676c-0.248,0.08-0.556,0.148-0.924,0.204
		c-0.368,0.056-0.752,0.084-1.152,0.084c-0.44,0-0.852-0.052-1.236-0.156c-0.384-0.104-0.716-0.275-0.996-0.516
		c-0.28-0.24-0.502-0.556-0.666-0.948c-0.164-0.392-0.246-0.876-0.246-1.452c0-0.527,0.072-0.997,0.216-1.409
		s0.348-0.761,0.612-1.044c0.264-0.284,0.582-0.502,0.954-0.654s0.782-0.229,1.23-0.229c0.264,0,0.526,0.022,0.786,0.066
		c0.26,0.044,0.47,0.094,0.63,0.15V58.812z M39.162,62.327c-0.16-0.063-0.364-0.121-0.612-0.174
		c-0.248-0.052-0.504-0.078-0.768-0.078c-0.376,0-0.702,0.064-0.978,0.192s-0.506,0.306-0.69,0.534
		c-0.184,0.228-0.322,0.502-0.414,0.822c-0.092,0.319-0.138,0.672-0.138,1.056c0,0.832,0.198,1.438,0.594,1.818
		s0.958,0.569,1.686,0.569c0.264,0,0.516-0.014,0.756-0.042c0.24-0.027,0.428-0.062,0.564-0.102V62.327z"/>
	<path fill="#FFFFFF" d="M47.981,58.812c0.048-0.008,0.116-0.014,0.204-0.018s0.152-0.007,0.192-0.007
		c0.048,0,0.114,0.003,0.198,0.007s0.15,0.01,0.198,0.018v8.676c-0.248,0.08-0.556,0.148-0.924,0.204
		c-0.368,0.056-0.752,0.084-1.152,0.084c-0.44,0-0.852-0.052-1.236-0.156c-0.384-0.104-0.716-0.275-0.996-0.516
		c-0.28-0.24-0.502-0.556-0.666-0.948c-0.164-0.392-0.246-0.876-0.246-1.452c0-0.527,0.072-0.997,0.216-1.409
		s0.348-0.761,0.612-1.044c0.264-0.284,0.582-0.502,0.954-0.654s0.782-0.229,1.23-0.229c0.264,0,0.526,0.022,0.786,0.066
		c0.26,0.044,0.47,0.094,0.63,0.15V58.812z M47.981,62.327c-0.16-0.063-0.364-0.121-0.612-0.174
		c-0.248-0.052-0.504-0.078-0.768-0.078c-0.376,0-0.702,0.064-0.978,0.192s-0.506,0.306-0.69,0.534
		c-0.184,0.228-0.322,0.502-0.414,0.822c-0.092,0.319-0.138,0.672-0.138,1.056c0,0.832,0.198,1.438,0.594,1.818
		s0.958,0.569,1.686,0.569c0.264,0,0.516-0.014,0.756-0.042c0.24-0.027,0.428-0.062,0.564-0.102V62.327z"/>
	<path fill="#FFFFFF" d="M50.79,64.691c0,0.816,0.188,1.416,0.564,1.8c0.376,0.385,0.94,0.576,1.692,0.576
		c0.304,0,0.586-0.025,0.846-0.078c0.26-0.052,0.514-0.121,0.762-0.21c0.04,0.089,0.072,0.196,0.096,0.324s0.04,0.244,0.048,0.348
		c-0.232,0.104-0.504,0.185-0.816,0.24s-0.652,0.084-1.02,0.084c-0.528,0-0.982-0.078-1.362-0.233
		c-0.38-0.156-0.692-0.374-0.936-0.654c-0.244-0.28-0.424-0.614-0.54-1.002c-0.116-0.388-0.174-0.814-0.174-1.278
		c0-0.448,0.054-0.868,0.162-1.26c0.108-0.392,0.272-0.736,0.492-1.032c0.22-0.296,0.502-0.528,0.846-0.696
		c0.344-0.168,0.756-0.252,1.236-0.252c0.4,0,0.756,0.068,1.068,0.204c0.312,0.137,0.574,0.326,0.786,0.57s0.372,0.536,0.48,0.876
		s0.162,0.71,0.162,1.11c0,0.071-0.002,0.164-0.006,0.275c-0.004,0.112-0.01,0.208-0.018,0.288H50.79z M54.39,64.031
		c0-0.247-0.032-0.491-0.096-0.731s-0.164-0.45-0.3-0.63c-0.136-0.181-0.312-0.326-0.528-0.438c-0.216-0.111-0.476-0.168-0.78-0.168
		c-0.56,0-0.996,0.172-1.308,0.517c-0.312,0.344-0.5,0.827-0.564,1.451H54.39z"/>
	<path fill="#FFFFFF" d="M56.322,61.512c0.048-0.008,0.108-0.014,0.18-0.019c0.072-0.004,0.132-0.006,0.18-0.006
		s0.108,0.002,0.18,0.006c0.072,0.005,0.132,0.011,0.18,0.019l0.072,0.84c0.168-0.256,0.41-0.484,0.726-0.684
		c0.316-0.2,0.726-0.301,1.23-0.301c0.376,0,0.72,0.059,1.032,0.175c0.312,0.115,0.578,0.298,0.798,0.546
		c0.22,0.248,0.392,0.56,0.516,0.936s0.186,0.828,0.186,1.356c0,0.527-0.072,1.002-0.216,1.422s-0.354,0.776-0.63,1.067
		c-0.276,0.293-0.616,0.517-1.02,0.673c-0.404,0.155-0.866,0.233-1.386,0.233c-0.192,0-0.4-0.016-0.624-0.048
		s-0.428-0.08-0.612-0.144v2.88c-0.048,0.008-0.116,0.014-0.204,0.018c-0.088,0.004-0.152,0.006-0.192,0.006
		c-0.048,0-0.114-0.002-0.198-0.006s-0.15-0.01-0.198-0.018V61.512z M57.114,66.852c0.184,0.072,0.374,0.126,0.57,0.162
		c0.196,0.036,0.458,0.054,0.786,0.054c0.312,0,0.608-0.05,0.888-0.149c0.28-0.101,0.524-0.259,0.732-0.475
		c0.208-0.216,0.372-0.489,0.492-0.821s0.18-0.73,0.18-1.194c0-0.736-0.138-1.312-0.414-1.729c-0.276-0.415-0.722-0.624-1.338-0.624
		c-0.192,0-0.4,0.032-0.624,0.097c-0.224,0.063-0.43,0.174-0.618,0.33c-0.188,0.155-0.344,0.359-0.468,0.611
		c-0.125,0.252-0.186,0.57-0.186,0.954V66.852z"/>
	<path fill="#FFFFFF" d="M62.79,58.812c0.048-0.008,0.114-0.014,0.198-0.018s0.15-0.007,0.198-0.007c0.04,0,0.104,0.003,0.192,0.007
		c0.088,0.004,0.156,0.01,0.204,0.018v7.404c0,0.208,0.024,0.37,0.072,0.485c0.048,0.116,0.108,0.2,0.18,0.252
		c0.072,0.053,0.152,0.084,0.24,0.097c0.088,0.012,0.168,0.018,0.24,0.018c0.088,0,0.18-0.006,0.276-0.018
		c0.096-0.013,0.176-0.026,0.24-0.042c0.04,0.096,0.068,0.2,0.084,0.312c0.016,0.112,0.028,0.216,0.036,0.312
		c-0.112,0.04-0.238,0.067-0.378,0.084c-0.14,0.016-0.27,0.023-0.39,0.023c-0.168,0-0.336-0.018-0.504-0.054
		s-0.318-0.104-0.45-0.204c-0.132-0.1-0.238-0.235-0.318-0.408c-0.08-0.172-0.12-0.397-0.12-0.678V58.812z"/>
	<path fill="#FFFFFF" d="M67.926,67.775c-0.457,0-0.856-0.082-1.2-0.246c-0.344-0.164-0.63-0.39-0.858-0.678
		c-0.228-0.288-0.398-0.628-0.51-1.02c-0.112-0.393-0.168-0.812-0.168-1.261c0-0.447,0.056-0.867,0.168-1.26
		c0.112-0.392,0.282-0.731,0.51-1.02c0.228-0.288,0.514-0.515,0.858-0.679c0.344-0.163,0.744-0.246,1.2-0.246
		c0.455,0,0.854,0.083,1.193,0.246c0.34,0.164,0.624,0.391,0.853,0.679c0.228,0.288,0.399,0.628,0.516,1.02
		c0.116,0.393,0.174,0.812,0.174,1.26c0,0.448-0.058,0.868-0.174,1.261c-0.116,0.392-0.288,0.731-0.516,1.02
		c-0.229,0.288-0.513,0.514-0.853,0.678S68.381,67.775,67.926,67.775z M67.926,67.08c0.64,0,1.117-0.225,1.434-0.673
		c0.316-0.447,0.474-1.06,0.474-1.836c0-0.775-0.157-1.388-0.474-1.836c-0.316-0.447-0.794-0.672-1.434-0.672
		c-0.641,0-1.118,0.225-1.435,0.672c-0.316,0.448-0.474,1.061-0.474,1.836c0,0.776,0.158,1.389,0.474,1.836
		C66.808,66.855,67.285,67.08,67.926,67.08z"/>
	<path fill="#FFFFFF" d="M73.733,67.655h-0.228c-0.072,0-0.154-0.002-0.246-0.006c-0.093-0.004-0.162-0.01-0.21-0.018l-2.208-6.12
		c0.048-0.008,0.115-0.014,0.204-0.019c0.088-0.004,0.172-0.006,0.252-0.006c0.063,0,0.144,0.002,0.239,0.006
		c0.097,0.005,0.168,0.011,0.216,0.019l2.028,5.952l1.992-5.952c0.048-0.008,0.112-0.014,0.192-0.019
		c0.079-0.004,0.151-0.006,0.216-0.006c0.063,0,0.136,0.002,0.216,0.006c0.08,0.005,0.144,0.011,0.192,0.019l-2.688,7.932
		c-0.144,0.44-0.348,0.748-0.612,0.924c-0.264,0.177-0.575,0.265-0.936,0.265c-0.168,0-0.338-0.017-0.51-0.048
		c-0.173-0.032-0.314-0.064-0.427-0.097c0-0.248,0.061-0.472,0.181-0.672c0.063,0.024,0.16,0.05,0.288,0.078
		s0.271,0.042,0.432,0.042c0.232,0,0.418-0.056,0.558-0.168c0.141-0.112,0.263-0.32,0.366-0.624L73.733,67.655z"/>
	<path fill="#FFFFFF" d="M77.285,61.512c0.064-0.008,0.126-0.014,0.187-0.019c0.06-0.004,0.118-0.006,0.174-0.006
		c0.063,0,0.124,0.002,0.18,0.006c0.057,0.005,0.116,0.011,0.181,0.019c0.016,0.144,0.027,0.316,0.035,0.516
		c0.009,0.2,0.013,0.38,0.013,0.54c0.072-0.151,0.164-0.3,0.275-0.443c0.112-0.145,0.244-0.272,0.396-0.385
		c0.151-0.111,0.326-0.201,0.521-0.27c0.196-0.068,0.418-0.103,0.666-0.103c0.232,0,0.433,0.028,0.601,0.084
		c0.168,0.057,0.313,0.135,0.438,0.234c0.124,0.101,0.229,0.218,0.312,0.354c0.084,0.136,0.162,0.287,0.233,0.455
		c0.088-0.127,0.188-0.26,0.301-0.396c0.111-0.136,0.239-0.258,0.384-0.366c0.144-0.107,0.31-0.195,0.498-0.264
		c0.188-0.068,0.397-0.103,0.63-0.103c0.712,0,1.226,0.204,1.542,0.612c0.315,0.408,0.474,0.992,0.474,1.752v3.9
		c-0.048,0.008-0.113,0.014-0.197,0.018s-0.15,0.006-0.198,0.006c-0.04,0-0.104-0.002-0.192-0.006s-0.156-0.01-0.204-0.018v-3.624
		c0-0.648-0.105-1.128-0.317-1.44c-0.212-0.312-0.53-0.468-0.954-0.468c-0.257,0-0.48,0.052-0.672,0.156
		c-0.192,0.104-0.353,0.244-0.48,0.42s-0.226,0.382-0.294,0.618c-0.068,0.235-0.102,0.485-0.102,0.75v3.588
		c-0.049,0.008-0.114,0.014-0.198,0.018s-0.15,0.006-0.198,0.006c-0.04,0-0.104-0.002-0.191-0.006
		c-0.089-0.004-0.156-0.01-0.204-0.018v-3.78c0-0.616-0.099-1.072-0.294-1.368c-0.196-0.296-0.479-0.443-0.847-0.443
		c-0.248,0-0.476,0.062-0.684,0.186s-0.389,0.298-0.54,0.522c-0.152,0.224-0.271,0.489-0.354,0.798
		c-0.084,0.308-0.126,0.646-0.126,1.014v3.072c-0.048,0.008-0.113,0.014-0.197,0.018s-0.15,0.006-0.198,0.006
		c-0.04,0-0.104-0.002-0.192-0.006s-0.156-0.01-0.204-0.018V61.512z"/>
	<path fill="#FFFFFF" d="M87.221,64.691c0,0.816,0.188,1.416,0.564,1.8c0.376,0.385,0.939,0.576,1.692,0.576
		c0.304,0,0.586-0.025,0.846-0.078c0.26-0.052,0.514-0.121,0.762-0.21c0.04,0.089,0.072,0.196,0.096,0.324
		c0.024,0.128,0.04,0.244,0.049,0.348c-0.232,0.104-0.504,0.185-0.816,0.24c-0.312,0.056-0.652,0.084-1.02,0.084
		c-0.528,0-0.982-0.078-1.362-0.233c-0.38-0.156-0.692-0.374-0.937-0.654s-0.424-0.614-0.54-1.002
		c-0.115-0.388-0.174-0.814-0.174-1.278c0-0.448,0.055-0.868,0.162-1.26c0.108-0.392,0.272-0.736,0.492-1.032
		s0.502-0.528,0.846-0.696s0.756-0.252,1.236-0.252c0.399,0,0.756,0.068,1.068,0.204c0.312,0.137,0.573,0.326,0.785,0.57
		s0.372,0.536,0.48,0.876s0.162,0.71,0.162,1.11c0,0.071-0.002,0.164-0.006,0.275c-0.005,0.112-0.011,0.208-0.019,0.288H87.221z
		 M90.821,64.031c0-0.247-0.032-0.491-0.096-0.731c-0.064-0.24-0.164-0.45-0.301-0.63c-0.136-0.181-0.312-0.326-0.527-0.438
		c-0.217-0.111-0.477-0.168-0.78-0.168c-0.561,0-0.996,0.172-1.308,0.517c-0.312,0.344-0.501,0.827-0.564,1.451H90.821z"/>
	<path fill="#FFFFFF" d="M92.753,61.512c0.064-0.008,0.126-0.014,0.187-0.019c0.06-0.004,0.118-0.006,0.174-0.006
		c0.063,0,0.124,0.002,0.18,0.006c0.057,0.005,0.116,0.011,0.181,0.019c0.016,0.144,0.027,0.324,0.035,0.54
		c0.009,0.216,0.013,0.404,0.013,0.563c0.08-0.144,0.184-0.289,0.312-0.438s0.278-0.282,0.45-0.402s0.37-0.218,0.594-0.294
		c0.225-0.076,0.469-0.114,0.732-0.114c0.704,0,1.216,0.21,1.536,0.631c0.319,0.42,0.479,1.01,0.479,1.77v3.864
		c-0.048,0.008-0.113,0.014-0.197,0.018s-0.15,0.006-0.198,0.006c-0.04,0-0.104-0.002-0.192-0.006s-0.156-0.01-0.204-0.018v-3.624
		c0-0.68-0.105-1.168-0.317-1.464c-0.213-0.296-0.53-0.444-0.954-0.444c-0.28,0-0.544,0.056-0.792,0.168s-0.462,0.274-0.643,0.486
		c-0.18,0.212-0.322,0.474-0.426,0.786c-0.104,0.312-0.156,0.668-0.156,1.067v3.024c-0.048,0.008-0.113,0.014-0.197,0.018
		s-0.15,0.006-0.198,0.006c-0.04,0-0.104-0.002-0.192-0.006s-0.156-0.01-0.204-0.018V61.512z"/>
	<path fill="#FFFFFF" d="M99.293,62.184h-1.044c-0.008-0.04-0.014-0.092-0.019-0.156c-0.004-0.063-0.006-0.128-0.006-0.191
		c0-0.064,0.002-0.124,0.006-0.181c0.005-0.056,0.011-0.104,0.019-0.144h1.044v-1.152l0.744-0.731h0.048v1.884h1.656
		c0.008,0.04,0.014,0.088,0.018,0.144c0.004,0.057,0.006,0.116,0.006,0.181c0,0.063-0.002,0.128-0.006,0.191
		c-0.004,0.064-0.01,0.116-0.018,0.156h-1.656v3.984c0,0.199,0.025,0.357,0.078,0.474c0.052,0.116,0.12,0.206,0.204,0.27
		c0.084,0.064,0.18,0.106,0.288,0.126c0.107,0.021,0.218,0.03,0.33,0.03c0.279,0,0.523-0.036,0.731-0.107
		c0.056,0.208,0.096,0.432,0.12,0.672c-0.288,0.088-0.624,0.132-1.008,0.132c-0.456,0-0.826-0.122-1.11-0.366
		s-0.426-0.642-0.426-1.194V62.184z"/>
	<path fill="#FFFFFF" d="M102.437,66.611c0.064-0.008,0.132-0.014,0.204-0.018s0.14-0.006,0.204-0.006
		c0.063,0,0.132,0.002,0.204,0.006s0.144,0.01,0.216,0.018l-0.647,2.376c-0.08,0.017-0.154,0.024-0.223,0.024s-0.134,0-0.198,0
		c-0.071,0-0.142,0-0.21,0c-0.067,0-0.134-0.008-0.197-0.024L102.437,66.611z"/>
	<path fill="#FFFFFF" d="M106.744,61.512c0.064-0.008,0.126-0.014,0.187-0.019c0.06-0.004,0.118-0.006,0.174-0.006
		c0.063,0,0.124,0.002,0.18,0.006c0.057,0.005,0.116,0.011,0.181,0.019c0.016,0.144,0.027,0.313,0.035,0.51
		c0.009,0.196,0.013,0.374,0.013,0.534c0.16-0.296,0.384-0.546,0.672-0.75s0.668-0.306,1.14-0.306c0.04,0,0.082,0,0.126,0
		s0.094,0.004,0.15,0.012c0.023,0.136,0.036,0.264,0.036,0.384c0,0.128-0.013,0.252-0.036,0.372
		c-0.064-0.008-0.114-0.012-0.15-0.012s-0.074,0-0.113,0c-0.545,0-0.98,0.172-1.309,0.516s-0.492,0.916-0.492,1.716v3.145
		c-0.048,0.008-0.113,0.014-0.197,0.018s-0.15,0.006-0.198,0.006c-0.04,0-0.104-0.002-0.192-0.006s-0.156-0.01-0.204-0.018V61.512z"
		/>
	<path fill="#FFFFFF" d="M113.597,63.588c0-0.528-0.124-0.914-0.372-1.158s-0.616-0.366-1.104-0.366
		c-0.32,0-0.612,0.022-0.876,0.066c-0.265,0.044-0.5,0.098-0.708,0.162c-0.04-0.072-0.074-0.177-0.103-0.312
		c-0.027-0.136-0.042-0.264-0.042-0.384c0.208-0.064,0.464-0.118,0.769-0.162c0.304-0.044,0.616-0.066,0.936-0.066
		c0.776,0,1.353,0.171,1.729,0.511s0.563,0.874,0.563,1.602v4.044c-0.28,0.057-0.62,0.112-1.02,0.168
		c-0.4,0.056-0.78,0.084-1.141,0.084c-0.743,0-1.33-0.147-1.758-0.443s-0.642-0.776-0.642-1.44c0-0.32,0.062-0.606,0.186-0.858
		s0.296-0.464,0.517-0.636c0.22-0.172,0.483-0.302,0.792-0.39c0.308-0.088,0.646-0.132,1.014-0.132c0.288,0,0.536,0.01,0.744,0.029
		c0.208,0.021,0.38,0.038,0.516,0.055V63.588z M113.597,64.655c-0.136-0.016-0.306-0.033-0.51-0.054
		c-0.204-0.02-0.398-0.03-0.582-0.03c-0.6,0-1.064,0.112-1.392,0.336c-0.328,0.225-0.492,0.545-0.492,0.96
		c0,0.265,0.05,0.477,0.149,0.637c0.101,0.16,0.23,0.281,0.391,0.365s0.336,0.141,0.527,0.168c0.192,0.028,0.385,0.043,0.576,0.043
		c0.248,0,0.48-0.013,0.696-0.036c0.216-0.024,0.428-0.057,0.636-0.097V64.655z"/>
	<path fill="#FFFFFF" d="M115.78,61.512c0.048-0.008,0.108-0.014,0.181-0.019c0.071-0.004,0.132-0.006,0.18-0.006
		s0.108,0.002,0.18,0.006c0.072,0.005,0.132,0.011,0.181,0.019l0.071,0.84c0.168-0.256,0.41-0.484,0.727-0.684
		c0.315-0.2,0.726-0.301,1.229-0.301c0.376,0,0.721,0.059,1.032,0.175c0.312,0.115,0.578,0.298,0.798,0.546s0.392,0.56,0.517,0.936
		c0.124,0.376,0.186,0.828,0.186,1.356c0,0.527-0.072,1.002-0.216,1.422c-0.145,0.42-0.354,0.776-0.63,1.067
		c-0.276,0.293-0.616,0.517-1.021,0.673c-0.403,0.155-0.866,0.233-1.386,0.233c-0.192,0-0.4-0.016-0.624-0.048
		s-0.428-0.08-0.612-0.144v2.88c-0.048,0.008-0.115,0.014-0.204,0.018c-0.088,0.004-0.151,0.006-0.191,0.006
		c-0.048,0-0.114-0.002-0.198-0.006s-0.15-0.01-0.198-0.018V61.512z M116.572,66.852c0.185,0.072,0.374,0.126,0.57,0.162
		s0.458,0.054,0.786,0.054c0.312,0,0.607-0.05,0.888-0.149c0.28-0.101,0.524-0.259,0.732-0.475s0.372-0.489,0.492-0.821
		c0.119-0.332,0.18-0.73,0.18-1.194c0-0.736-0.138-1.312-0.414-1.729c-0.276-0.415-0.722-0.624-1.338-0.624
		c-0.192,0-0.4,0.032-0.624,0.097c-0.225,0.063-0.431,0.174-0.618,0.33c-0.188,0.155-0.344,0.359-0.468,0.611
		s-0.187,0.57-0.187,0.954V66.852z"/>
	<path fill="#FFFFFF" d="M122.62,62.184h-0.768c-0.008-0.04-0.015-0.088-0.019-0.144c-0.004-0.057-0.006-0.116-0.006-0.181
		c0-0.063,0.002-0.128,0.006-0.191c0.004-0.064,0.011-0.116,0.019-0.156h1.56v6.12c-0.048,0.008-0.113,0.014-0.197,0.018
		s-0.15,0.006-0.198,0.006c-0.04,0-0.104-0.002-0.192-0.006s-0.156-0.01-0.204-0.018V62.184z M122.225,60.012
		c-0.008-0.072-0.015-0.16-0.019-0.264c-0.004-0.104-0.006-0.192-0.006-0.265c0-0.063,0.002-0.144,0.006-0.24
		c0.004-0.096,0.011-0.176,0.019-0.239c0.071-0.008,0.16-0.015,0.264-0.019s0.192-0.006,0.264-0.006c0.064,0,0.145,0.002,0.24,0.006
		c0.097,0.004,0.176,0.011,0.24,0.019c0.008,0.063,0.014,0.144,0.018,0.239c0.004,0.097,0.007,0.177,0.007,0.24
		c0,0.072-0.003,0.16-0.007,0.265c-0.004,0.104-0.01,0.191-0.018,0.264c-0.064,0.008-0.144,0.014-0.24,0.018
		c-0.096,0.005-0.176,0.006-0.24,0.006c-0.071,0-0.16-0.001-0.264-0.006C122.385,60.025,122.296,60.02,122.225,60.012z"/>
	<path fill="#FFFFFF" d="M129.04,58.812c0.048-0.008,0.116-0.014,0.204-0.018s0.152-0.007,0.192-0.007
		c0.048,0,0.113,0.003,0.197,0.007s0.15,0.01,0.198,0.018v8.676c-0.248,0.08-0.556,0.148-0.924,0.204s-0.752,0.084-1.152,0.084
		c-0.439,0-0.852-0.052-1.235-0.156c-0.385-0.104-0.717-0.275-0.996-0.516c-0.28-0.24-0.502-0.556-0.666-0.948
		c-0.164-0.392-0.246-0.876-0.246-1.452c0-0.527,0.072-0.997,0.216-1.409s0.348-0.761,0.612-1.044
		c0.264-0.284,0.582-0.502,0.954-0.654s0.781-0.229,1.229-0.229c0.264,0,0.526,0.022,0.786,0.066s0.47,0.094,0.63,0.15V58.812z
		 M129.04,62.327c-0.16-0.063-0.364-0.121-0.612-0.174c-0.248-0.052-0.504-0.078-0.768-0.078c-0.376,0-0.702,0.064-0.978,0.192
		c-0.276,0.128-0.507,0.306-0.69,0.534c-0.185,0.228-0.322,0.502-0.414,0.822c-0.092,0.319-0.138,0.672-0.138,1.056
		c0,0.832,0.197,1.438,0.594,1.818c0.396,0.38,0.958,0.569,1.686,0.569c0.265,0,0.517-0.014,0.757-0.042
		c0.239-0.027,0.428-0.062,0.563-0.102V62.327z"/>
	<path fill="#FFFFFF" d="M137.86,58.812c0.048-0.008,0.116-0.014,0.204-0.018s0.152-0.007,0.192-0.007
		c0.048,0,0.113,0.003,0.197,0.007s0.15,0.01,0.198,0.018v8.676c-0.248,0.08-0.556,0.148-0.924,0.204s-0.752,0.084-1.152,0.084
		c-0.439,0-0.852-0.052-1.235-0.156c-0.385-0.104-0.717-0.275-0.996-0.516c-0.28-0.24-0.502-0.556-0.666-0.948
		c-0.164-0.392-0.246-0.876-0.246-1.452c0-0.527,0.072-0.997,0.216-1.409s0.348-0.761,0.612-1.044
		c0.264-0.284,0.582-0.502,0.954-0.654s0.781-0.229,1.229-0.229c0.264,0,0.526,0.022,0.786,0.066s0.47,0.094,0.63,0.15V58.812z
		 M137.86,62.327c-0.16-0.063-0.364-0.121-0.612-0.174c-0.248-0.052-0.504-0.078-0.768-0.078c-0.376,0-0.702,0.064-0.978,0.192
		c-0.276,0.128-0.507,0.306-0.69,0.534c-0.185,0.228-0.322,0.502-0.414,0.822c-0.092,0.319-0.138,0.672-0.138,1.056
		c0,0.832,0.197,1.438,0.594,1.818c0.396,0.38,0.958,0.569,1.686,0.569c0.265,0,0.517-0.014,0.757-0.042
		c0.239-0.027,0.428-0.062,0.563-0.102V62.327z"/>
	<path fill="#FFFFFF" d="M140.668,64.691c0,0.816,0.188,1.416,0.564,1.8c0.376,0.385,0.939,0.576,1.692,0.576
		c0.304,0,0.586-0.025,0.846-0.078c0.26-0.052,0.514-0.121,0.762-0.21c0.04,0.089,0.072,0.196,0.096,0.324
		c0.024,0.128,0.04,0.244,0.049,0.348c-0.232,0.104-0.504,0.185-0.816,0.24c-0.312,0.056-0.652,0.084-1.02,0.084
		c-0.528,0-0.982-0.078-1.362-0.233c-0.38-0.156-0.692-0.374-0.937-0.654s-0.424-0.614-0.54-1.002
		c-0.115-0.388-0.174-0.814-0.174-1.278c0-0.448,0.055-0.868,0.162-1.26c0.108-0.392,0.272-0.736,0.492-1.032
		s0.502-0.528,0.846-0.696s0.756-0.252,1.236-0.252c0.399,0,0.756,0.068,1.068,0.204c0.312,0.137,0.573,0.326,0.785,0.57
		s0.372,0.536,0.48,0.876s0.162,0.71,0.162,1.11c0,0.071-0.002,0.164-0.006,0.275c-0.005,0.112-0.011,0.208-0.019,0.288H140.668z
		 M144.269,64.031c0-0.247-0.032-0.491-0.096-0.731c-0.064-0.24-0.164-0.45-0.301-0.63c-0.136-0.181-0.312-0.326-0.527-0.438
		c-0.217-0.111-0.477-0.168-0.78-0.168c-0.561,0-0.996,0.172-1.308,0.517c-0.312,0.344-0.501,0.827-0.564,1.451H144.269z"/>
	<path fill="#FFFFFF" d="M145.216,61.512c0.049-0.008,0.116-0.014,0.204-0.019c0.088-0.004,0.172-0.006,0.252-0.006
		c0.064,0,0.145,0.002,0.24,0.006c0.096,0.005,0.168,0.011,0.216,0.019l1.933,5.292l1.968-5.292
		c0.048-0.008,0.112-0.014,0.192-0.019c0.079-0.004,0.151-0.006,0.216-0.006c0.063,0,0.136,0.002,0.216,0.006
		c0.08,0.005,0.144,0.011,0.192,0.019l-2.437,6.12c-0.12,0.023-0.244,0.036-0.372,0.036s-0.256-0.013-0.384-0.036L145.216,61.512z"
		/>
	<path fill="#FFFFFF" d="M151.876,64.691c0,0.816,0.188,1.416,0.564,1.8c0.376,0.385,0.939,0.576,1.692,0.576
		c0.304,0,0.586-0.025,0.846-0.078c0.26-0.052,0.514-0.121,0.762-0.21c0.04,0.089,0.072,0.196,0.096,0.324
		c0.024,0.128,0.04,0.244,0.049,0.348c-0.232,0.104-0.504,0.185-0.816,0.24c-0.312,0.056-0.652,0.084-1.02,0.084
		c-0.528,0-0.982-0.078-1.362-0.233c-0.38-0.156-0.692-0.374-0.937-0.654s-0.424-0.614-0.54-1.002
		c-0.115-0.388-0.174-0.814-0.174-1.278c0-0.448,0.055-0.868,0.162-1.26c0.108-0.392,0.272-0.736,0.492-1.032
		s0.502-0.528,0.846-0.696s0.756-0.252,1.236-0.252c0.399,0,0.756,0.068,1.068,0.204c0.312,0.137,0.573,0.326,0.785,0.57
		s0.372,0.536,0.48,0.876s0.162,0.71,0.162,1.11c0,0.071-0.002,0.164-0.006,0.275c-0.005,0.112-0.011,0.208-0.019,0.288H151.876z
		 M155.477,64.031c0-0.247-0.032-0.491-0.096-0.731c-0.064-0.24-0.164-0.45-0.301-0.63c-0.136-0.181-0.312-0.326-0.527-0.438
		c-0.217-0.111-0.477-0.168-0.78-0.168c-0.561,0-0.996,0.172-1.308,0.517c-0.312,0.344-0.501,0.827-0.564,1.451H155.477z"/>
	<path fill="#FFFFFF" d="M157.408,58.812c0.048-0.008,0.114-0.014,0.198-0.018s0.15-0.007,0.198-0.007
		c0.04,0,0.104,0.003,0.191,0.007c0.089,0.004,0.156,0.01,0.204,0.018v7.404c0,0.208,0.024,0.37,0.072,0.485
		c0.048,0.116,0.108,0.2,0.18,0.252c0.072,0.053,0.152,0.084,0.24,0.097c0.088,0.012,0.168,0.018,0.24,0.018
		c0.088,0,0.18-0.006,0.276-0.018c0.096-0.013,0.176-0.026,0.239-0.042c0.04,0.096,0.068,0.2,0.084,0.312
		c0.017,0.112,0.028,0.216,0.036,0.312c-0.112,0.04-0.238,0.067-0.378,0.084c-0.14,0.016-0.27,0.023-0.39,0.023
		c-0.168,0-0.336-0.018-0.504-0.054s-0.318-0.104-0.45-0.204c-0.132-0.1-0.238-0.235-0.318-0.408c-0.08-0.172-0.12-0.397-0.12-0.678
		V58.812z"/>
	<path fill="#FFFFFF" d="M162.544,67.775c-0.456,0-0.856-0.082-1.2-0.246s-0.63-0.39-0.858-0.678
		c-0.228-0.288-0.397-0.628-0.51-1.02c-0.112-0.393-0.168-0.812-0.168-1.261c0-0.447,0.056-0.867,0.168-1.26
		c0.112-0.392,0.282-0.731,0.51-1.02c0.229-0.288,0.515-0.515,0.858-0.679c0.344-0.163,0.744-0.246,1.2-0.246
		s0.854,0.083,1.193,0.246c0.34,0.164,0.624,0.391,0.853,0.679c0.228,0.288,0.399,0.628,0.516,1.02
		c0.116,0.393,0.174,0.812,0.174,1.26c0,0.448-0.058,0.868-0.174,1.261c-0.116,0.392-0.288,0.731-0.516,1.02
		c-0.229,0.288-0.513,0.514-0.853,0.678S163,67.775,162.544,67.775z M162.544,67.08c0.64,0,1.117-0.225,1.434-0.673
		c0.316-0.447,0.474-1.06,0.474-1.836c0-0.775-0.157-1.388-0.474-1.836c-0.316-0.447-0.794-0.672-1.434-0.672
		c-0.641,0-1.118,0.225-1.435,0.672c-0.315,0.448-0.474,1.061-0.474,1.836c0,0.776,0.158,1.389,0.474,1.836
		C161.426,66.855,161.903,67.08,162.544,67.08z"/>
	<path fill="#FFFFFF" d="M166.443,61.512c0.048-0.008,0.108-0.014,0.181-0.019c0.071-0.004,0.132-0.006,0.18-0.006
		s0.108,0.002,0.18,0.006c0.072,0.005,0.132,0.011,0.181,0.019l0.071,0.84c0.168-0.256,0.41-0.484,0.727-0.684
		c0.315-0.2,0.726-0.301,1.229-0.301c0.376,0,0.721,0.059,1.032,0.175c0.312,0.115,0.578,0.298,0.798,0.546s0.392,0.56,0.517,0.936
		c0.124,0.376,0.186,0.828,0.186,1.356c0,0.527-0.072,1.002-0.216,1.422c-0.145,0.42-0.354,0.776-0.63,1.067
		c-0.276,0.293-0.616,0.517-1.021,0.673c-0.403,0.155-0.866,0.233-1.386,0.233c-0.192,0-0.4-0.016-0.624-0.048
		s-0.428-0.08-0.612-0.144v2.88c-0.048,0.008-0.115,0.014-0.204,0.018c-0.088,0.004-0.151,0.006-0.191,0.006
		c-0.048,0-0.114-0.002-0.198-0.006s-0.15-0.01-0.198-0.018V61.512z M167.235,66.852c0.185,0.072,0.374,0.126,0.57,0.162
		s0.458,0.054,0.786,0.054c0.312,0,0.607-0.05,0.888-0.149c0.28-0.101,0.524-0.259,0.732-0.475s0.372-0.489,0.492-0.821
		c0.119-0.332,0.18-0.73,0.18-1.194c0-0.736-0.138-1.312-0.414-1.729c-0.276-0.415-0.722-0.624-1.338-0.624
		c-0.192,0-0.4,0.032-0.624,0.097c-0.225,0.063-0.431,0.174-0.618,0.33c-0.188,0.155-0.344,0.359-0.468,0.611
		s-0.187,0.57-0.187,0.954V66.852z"/>
	<path fill="#FFFFFF" d="M172.911,61.512c0.064-0.008,0.126-0.014,0.187-0.019c0.06-0.004,0.118-0.006,0.174-0.006
		c0.063,0,0.124,0.002,0.18,0.006c0.057,0.005,0.116,0.011,0.181,0.019c0.016,0.144,0.027,0.316,0.035,0.516
		c0.009,0.2,0.013,0.38,0.013,0.54c0.072-0.151,0.164-0.3,0.275-0.443c0.112-0.145,0.244-0.272,0.396-0.385
		c0.151-0.111,0.326-0.201,0.521-0.27c0.196-0.068,0.418-0.103,0.666-0.103c0.232,0,0.433,0.028,0.601,0.084
		c0.168,0.057,0.313,0.135,0.438,0.234c0.124,0.101,0.229,0.218,0.312,0.354c0.084,0.136,0.162,0.287,0.233,0.455
		c0.088-0.127,0.188-0.26,0.301-0.396c0.111-0.136,0.239-0.258,0.384-0.366c0.144-0.107,0.31-0.195,0.498-0.264
		c0.188-0.068,0.397-0.103,0.63-0.103c0.712,0,1.226,0.204,1.542,0.612c0.315,0.408,0.474,0.992,0.474,1.752v3.9
		c-0.048,0.008-0.113,0.014-0.197,0.018s-0.15,0.006-0.198,0.006c-0.04,0-0.104-0.002-0.192-0.006s-0.156-0.01-0.204-0.018v-3.624
		c0-0.648-0.105-1.128-0.317-1.44c-0.212-0.312-0.53-0.468-0.954-0.468c-0.257,0-0.48,0.052-0.672,0.156
		c-0.192,0.104-0.353,0.244-0.48,0.42s-0.226,0.382-0.294,0.618c-0.068,0.235-0.102,0.485-0.102,0.75v3.588
		c-0.049,0.008-0.114,0.014-0.198,0.018s-0.15,0.006-0.198,0.006c-0.04,0-0.104-0.002-0.191-0.006
		c-0.089-0.004-0.156-0.01-0.204-0.018v-3.78c0-0.616-0.099-1.072-0.294-1.368c-0.196-0.296-0.479-0.443-0.847-0.443
		c-0.248,0-0.476,0.062-0.684,0.186s-0.389,0.298-0.54,0.522c-0.152,0.224-0.271,0.489-0.354,0.798
		c-0.084,0.308-0.126,0.646-0.126,1.014v3.072c-0.048,0.008-0.113,0.014-0.197,0.018s-0.15,0.006-0.198,0.006
		c-0.04,0-0.104-0.002-0.192-0.006s-0.156-0.01-0.204-0.018V61.512z"/>
	<path fill="#FFFFFF" d="M182.848,64.691c0,0.816,0.188,1.416,0.564,1.8c0.376,0.385,0.939,0.576,1.692,0.576
		c0.304,0,0.586-0.025,0.846-0.078c0.26-0.052,0.514-0.121,0.762-0.21c0.04,0.089,0.072,0.196,0.096,0.324
		c0.024,0.128,0.04,0.244,0.049,0.348c-0.232,0.104-0.504,0.185-0.816,0.24c-0.312,0.056-0.652,0.084-1.02,0.084
		c-0.528,0-0.982-0.078-1.362-0.233c-0.38-0.156-0.692-0.374-0.937-0.654s-0.424-0.614-0.54-1.002
		c-0.115-0.388-0.174-0.814-0.174-1.278c0-0.448,0.055-0.868,0.162-1.26c0.108-0.392,0.272-0.736,0.492-1.032
		s0.502-0.528,0.846-0.696s0.756-0.252,1.236-0.252c0.399,0,0.756,0.068,1.068,0.204c0.312,0.137,0.573,0.326,0.785,0.57
		s0.372,0.536,0.48,0.876s0.162,0.71,0.162,1.11c0,0.071-0.002,0.164-0.006,0.275c-0.005,0.112-0.011,0.208-0.019,0.288H182.848z
		 M186.448,64.031c0-0.247-0.032-0.491-0.096-0.731c-0.064-0.24-0.164-0.45-0.301-0.63c-0.136-0.181-0.312-0.326-0.527-0.438
		c-0.217-0.111-0.477-0.168-0.78-0.168c-0.561,0-0.996,0.172-1.308,0.517c-0.312,0.344-0.501,0.827-0.564,1.451H186.448z"/>
	<path fill="#FFFFFF" d="M188.379,61.512c0.064-0.008,0.126-0.014,0.187-0.019c0.06-0.004,0.118-0.006,0.174-0.006
		c0.063,0,0.124,0.002,0.18,0.006c0.057,0.005,0.116,0.011,0.181,0.019c0.016,0.144,0.027,0.324,0.035,0.54
		c0.009,0.216,0.013,0.404,0.013,0.563c0.08-0.144,0.184-0.289,0.312-0.438s0.278-0.282,0.45-0.402s0.37-0.218,0.594-0.294
		c0.225-0.076,0.469-0.114,0.732-0.114c0.704,0,1.216,0.21,1.536,0.631c0.319,0.42,0.479,1.01,0.479,1.77v3.864
		c-0.048,0.008-0.113,0.014-0.197,0.018s-0.15,0.006-0.198,0.006c-0.04,0-0.104-0.002-0.192-0.006s-0.156-0.01-0.204-0.018v-3.624
		c0-0.68-0.105-1.168-0.317-1.464c-0.213-0.296-0.53-0.444-0.954-0.444c-0.28,0-0.544,0.056-0.792,0.168s-0.462,0.274-0.643,0.486
		c-0.18,0.212-0.322,0.474-0.426,0.786c-0.104,0.312-0.156,0.668-0.156,1.067v3.024c-0.048,0.008-0.113,0.014-0.197,0.018
		s-0.15,0.006-0.198,0.006c-0.04,0-0.104-0.002-0.192-0.006s-0.156-0.01-0.204-0.018V61.512z"/>
	<path fill="#FFFFFF" d="M194.92,62.184h-1.044c-0.008-0.04-0.014-0.092-0.019-0.156c-0.004-0.063-0.006-0.128-0.006-0.191
		c0-0.064,0.002-0.124,0.006-0.181c0.005-0.056,0.011-0.104,0.019-0.144h1.044v-1.152l0.744-0.731h0.048v1.884h1.656
		c0.008,0.04,0.014,0.088,0.018,0.144c0.004,0.057,0.006,0.116,0.006,0.181c0,0.063-0.002,0.128-0.006,0.191
		c-0.004,0.064-0.01,0.116-0.018,0.156h-1.656v3.984c0,0.199,0.025,0.357,0.078,0.474c0.052,0.116,0.12,0.206,0.204,0.27
		c0.084,0.064,0.18,0.106,0.288,0.126c0.107,0.021,0.218,0.03,0.33,0.03c0.279,0,0.523-0.036,0.731-0.107
		c0.056,0.208,0.096,0.432,0.12,0.672c-0.288,0.088-0.624,0.132-1.008,0.132c-0.456,0-0.826-0.122-1.11-0.366
		s-0.426-0.642-0.426-1.194V62.184z"/>
</g>
</svg>
