<?xml version="1.0" encoding="utf-8"?>
<!-- Generator: Adobe Illustrator 15.0.2, SVG Export Plug-In . SVG Version: 6.00 Build 0)  -->
<!DOCTYPE svg PUBLIC "-//W3C//DTD SVG 1.1//EN" "http://www.w3.org/Graphics/SVG/1.1/DTD/svg11.dtd">
<svg version="1.1" id="Layer_1" xmlns="http://www.w3.org/2000/svg" xmlns:xlink="http://www.w3.org/1999/xlink" x="0px" y="0px"
	 width="136px" height="61px" viewBox="0 0 136 61" enable-background="new 0 0 136 61" xml:space="preserve">
<g>
	<path fill="#FFFFFF" d="M12.956,38.264c-2.416,0.146-5.033,0.109-7.851-0.109c-2.818-0.22-4.227-2.013-4.227-5.381V0.494h3.953
		c0.951,0,1.793,0.367,2.525,1.098c0.731,0.733,1.098,1.611,1.098,2.635v4.941h4.501v1.537c0,1.098-0.367,1.996-1.098,2.69
		c-0.733,0.696-1.611,1.043-2.635,1.043H8.455v16.25c0,1.246,0.731,1.866,2.196,1.866h2.306V38.264z"/>
	<path fill="#FFFFFF" d="M16.671,35.629c-1.538-1.318-2.635-3.092-3.294-5.325c-0.659-2.232-0.988-4.557-0.988-6.972
		c0-1.977,0.274-3.953,0.823-5.929c0.549-1.976,1.409-3.623,2.581-4.941c1.902-2.196,4.354-3.495,7.356-3.898
		c3-0.401,5.709-0.165,8.125,0.714c2.781,1.098,4.831,3.002,6.148,5.709c1.244,2.416,1.867,5.234,1.867,8.455
		c0,2.343-0.257,4.356-0.769,6.039c-0.513,1.685-1.172,3.111-1.976,4.281c-1.757,2.416-3.991,3.917-6.698,4.502
		c-2.416,0.659-4.85,0.714-7.302,0.165C20.092,37.879,18.135,36.946,16.671,35.629z M21.941,16.305
		c-1.537,1.685-2.233,4.191-2.086,7.521c0.146,3.332,0.769,5.655,1.866,6.972c0.439,0.587,1.208,1.081,2.306,1.481
		c1.098,0.403,2.213,0.439,3.349,0.11c1.134-0.329,2.141-1.152,3.02-2.47c0.878-1.317,1.354-3.44,1.427-6.368
		c0-2.635-0.422-4.612-1.263-5.929c-0.842-1.317-1.812-2.158-2.91-2.525c-1.098-0.365-2.196-0.384-3.294-0.055
		C23.259,15.371,22.453,15.793,21.941,16.305z"/>
	<path fill="#FFFFFF" d="M58.687,0.384h3.733c1.024,0,1.903,0.384,2.635,1.153c0.731,0.769,1.098,1.63,1.098,2.58v21.411
		c0,5.198-1.501,8.712-4.502,10.54c-3.002,1.831-6.258,2.745-9.772,2.745c-1.904,0-3.771-0.312-5.6-0.934
		c-1.831-0.62-3.294-1.628-4.392-3.019c-2.124-2.708-3.184-6.404-3.184-11.089c0-4.612,1.06-8.307,3.184-11.09
		c2.196-2.855,5.013-4.282,8.455-4.282c1.829,0,3.439,0.367,4.831,1.098c1.463,0.878,2.635,2.014,3.514,3.404V0.384z M46.17,23.441
		c0,2.929,0.549,5.161,1.647,6.698c1.098,1.537,2.671,2.305,4.721,2.305c1.977,0,3.514-0.769,4.611-2.305
		c1.024-1.537,1.538-3.769,1.538-6.698c0-2.635-0.549-4.721-1.647-6.258c-1.172-1.464-2.745-2.196-4.722-2.196
		c-1.904,0-3.404,0.769-4.501,2.306C46.719,18.758,46.17,20.806,46.17,23.441z"/>
	<path fill="#FFFFFF" d="M85.665,0.384h3.733c1.024,0,1.902,0.384,2.635,1.153c0.731,0.769,1.099,1.63,1.099,2.58v21.411
		c0,5.198-1.501,8.712-4.502,10.54c-3.002,1.831-6.259,2.745-9.772,2.745c-1.904,0-3.771-0.312-5.6-0.934
		c-1.83-0.62-3.294-1.628-4.392-3.019c-2.127-2.708-3.188-6.404-3.188-11.089c0-4.612,1.061-8.307,3.188-11.09
		c2.197-2.855,5.013-4.282,8.455-4.282c1.829,0,3.44,0.367,4.831,1.098c1.464,0.878,2.636,2.014,3.514,3.404V0.384z M73.148,23.441
		c0,2.929,0.549,5.161,1.646,6.698c1.099,1.537,2.672,2.305,4.722,2.305c1.977,0,3.514-0.769,4.611-2.305
		c1.024-1.537,1.537-3.769,1.537-6.698c0-2.635-0.549-4.721-1.646-6.258c-1.172-1.464-2.745-2.196-4.722-2.196
		c-1.904,0-3.403,0.769-4.502,2.306C73.697,18.758,73.148,20.806,73.148,23.441z"/>
</g>
<g>
	<path fill="#00A4CD" d="M0,51.159V49.65h1.35v-0.635c0-0.73,0.228-1.328,0.683-1.794c0.456-0.465,1.144-0.698,2.064-0.698
		c0.201,0,0.402,0.008,0.604,0.023c0.201,0.016,0.397,0.029,0.587,0.04v1.683c-0.264-0.032-0.54-0.048-0.825-0.048
		c-0.307,0-0.527,0.072-0.659,0.215s-0.198,0.384-0.198,0.722v0.492H5.16v1.509H3.604v6.701H1.35v-6.701H0z"/>
	<path fill="#00A4CD" d="M7.495,49.65v1.525h0.031c0.106-0.255,0.249-0.49,0.429-0.707c0.18-0.217,0.386-0.402,0.619-0.556
		c0.232-0.153,0.481-0.272,0.746-0.357c0.264-0.085,0.54-0.127,0.826-0.127c0.148,0,0.312,0.027,0.492,0.079v2.096
		c-0.106-0.021-0.233-0.039-0.381-0.056c-0.148-0.016-0.291-0.022-0.429-0.022c-0.413,0-0.762,0.068-1.048,0.205
		c-0.286,0.138-0.516,0.326-0.69,0.564c-0.175,0.237-0.299,0.516-0.373,0.833c-0.074,0.317-0.111,0.662-0.111,1.032v3.7H5.351v-8.21
		H7.495z"/>
	<path fill="#00A4CD" d="M10.496,51.978c0.201-0.535,0.487-0.99,0.857-1.366c0.37-0.375,0.815-0.667,1.333-0.873
		c0.519-0.206,1.101-0.31,1.747-0.31c0.646,0,1.231,0.104,1.754,0.31c0.524,0.206,0.971,0.498,1.342,0.873
		c0.371,0.376,0.656,0.831,0.857,1.366c0.201,0.534,0.302,1.13,0.302,1.785c0,0.657-0.101,1.25-0.302,1.779
		s-0.487,0.981-0.857,1.357s-0.817,0.664-1.342,0.865c-0.523,0.201-1.109,0.302-1.754,0.302c-0.646,0-1.228-0.101-1.747-0.302
		c-0.519-0.201-0.963-0.489-1.333-0.865c-0.371-0.376-0.657-0.828-0.857-1.357c-0.202-0.529-0.302-1.122-0.302-1.779
		C10.194,53.107,10.294,52.512,10.496,51.978z M12.544,54.724c0.063,0.312,0.172,0.594,0.325,0.842
		c0.153,0.249,0.357,0.447,0.611,0.596c0.254,0.147,0.572,0.223,0.953,0.223s0.701-0.075,0.961-0.223
		c0.259-0.148,0.465-0.347,0.619-0.596c0.153-0.248,0.262-0.529,0.325-0.842c0.063-0.312,0.096-0.632,0.096-0.961
		c0-0.328-0.032-0.649-0.096-0.968c-0.063-0.317-0.172-0.599-0.325-0.842c-0.154-0.243-0.36-0.441-0.619-0.595
		c-0.26-0.153-0.58-0.23-0.961-0.23s-0.699,0.077-0.953,0.23c-0.254,0.153-0.458,0.352-0.611,0.595s-0.262,0.524-0.325,0.842
		c-0.063,0.318-0.096,0.64-0.096,0.968C12.448,54.092,12.48,54.412,12.544,54.724z"/>
	<path fill="#00A4CD" d="M21.499,49.65v1.144h0.048c0.286-0.477,0.656-0.823,1.111-1.039c0.455-0.218,0.921-0.326,1.397-0.326
		c0.604,0,1.098,0.082,1.485,0.246s0.691,0.392,0.913,0.683s0.378,0.646,0.468,1.063c0.09,0.419,0.135,0.882,0.135,1.39v5.05h-2.254
		v-4.637c0-0.678-0.106-1.184-0.317-1.517c-0.212-0.334-0.588-0.499-1.127-0.499c-0.614,0-1.059,0.182-1.334,0.547
		c-0.275,0.365-0.413,0.966-0.413,1.803v4.303h-2.255v-8.21H21.499z"/>
	<path fill="#00A4CD" d="M32.486,49.65v1.509h-1.651v4.064c0,0.382,0.063,0.636,0.19,0.763s0.381,0.19,0.762,0.19
		c0.127,0,0.249-0.005,0.365-0.016c0.116-0.011,0.228-0.027,0.333-0.048v1.747c-0.191,0.031-0.402,0.052-0.635,0.062
		s-0.46,0.017-0.683,0.017c-0.35,0-0.681-0.024-0.993-0.071c-0.312-0.048-0.587-0.141-0.826-0.278s-0.426-0.334-0.563-0.587
		c-0.138-0.254-0.207-0.588-0.207-1.001v-4.843h-1.366V49.65h1.366v-2.46h2.255v2.46H32.486z"/>
	<path fill="#00A4CD" d="M37.535,52.557v1.938h-4.779v-1.938H37.535z"/>
	<path fill="#00A4CD" d="M40.854,55.891c0.338,0.329,0.825,0.493,1.46,0.493c0.455,0,0.847-0.113,1.175-0.342
		c0.328-0.228,0.53-0.469,0.604-0.722h1.984c-0.317,0.983-0.805,1.688-1.461,2.11c-0.656,0.425-1.45,0.636-2.382,0.636
		c-0.646,0-1.228-0.104-1.747-0.31c-0.519-0.206-0.958-0.501-1.317-0.881c-0.36-0.382-0.638-0.837-0.834-1.366
		c-0.196-0.528-0.293-1.111-0.293-1.747c0-0.613,0.101-1.185,0.301-1.714c0.202-0.529,0.487-0.987,0.857-1.374
		c0.371-0.387,0.812-0.69,1.326-0.912c0.513-0.223,1.082-0.334,1.707-0.334c0.699,0,1.308,0.135,1.826,0.404
		c0.519,0.271,0.945,0.633,1.278,1.088s0.574,0.975,0.723,1.557c0.148,0.582,0.201,1.19,0.159,1.826h-5.922
		C40.33,55.033,40.515,55.563,40.854,55.891z M43.402,51.572c-0.27-0.296-0.68-0.444-1.23-0.444c-0.36,0-0.659,0.062-0.897,0.183
		s-0.428,0.272-0.572,0.452c-0.143,0.181-0.243,0.371-0.301,0.571c-0.059,0.201-0.093,0.382-0.103,0.54h3.667
		C43.86,52.303,43.672,51.868,43.402,51.572z"/>
	<path fill="#00A4CD" d="M48.904,49.65v1.144h0.048c0.286-0.477,0.656-0.823,1.111-1.039c0.455-0.218,0.921-0.326,1.397-0.326
		c0.604,0,1.098,0.082,1.485,0.246c0.386,0.164,0.691,0.392,0.913,0.683s0.378,0.646,0.468,1.063c0.09,0.419,0.135,0.882,0.135,1.39
		v5.05h-2.254v-4.637c0-0.678-0.106-1.184-0.317-1.517c-0.212-0.334-0.588-0.499-1.127-0.499c-0.614,0-1.059,0.182-1.334,0.547
		c-0.275,0.365-0.413,0.966-0.413,1.803v4.303H46.76v-8.21H48.904z"/>
	<path fill="#00A4CD" d="M61.209,56.812c-0.264,0.444-0.611,0.765-1.04,0.961c-0.428,0.196-0.913,0.294-1.452,0.294
		c-0.615,0-1.154-0.119-1.62-0.356c-0.466-0.239-0.849-0.562-1.151-0.969c-0.302-0.408-0.53-0.877-0.683-1.405
		c-0.153-0.529-0.23-1.081-0.23-1.651c0-0.551,0.077-1.082,0.23-1.597c0.153-0.513,0.381-0.966,0.683-1.356
		c0.302-0.393,0.68-0.707,1.135-0.946c0.455-0.237,0.984-0.356,1.587-0.356c0.487,0,0.95,0.104,1.39,0.31
		c0.439,0.206,0.786,0.512,1.04,0.913h0.032v-4.128h2.255V57.86h-2.144v-1.049H61.209z M61.114,52.756
		c-0.063-0.312-0.172-0.589-0.325-0.826c-0.153-0.239-0.352-0.431-0.596-0.579s-0.55-0.223-0.92-0.223
		c-0.371,0-0.683,0.074-0.938,0.223c-0.253,0.148-0.458,0.343-0.611,0.587c-0.154,0.243-0.265,0.521-0.333,0.834
		c-0.069,0.312-0.103,0.638-0.103,0.977c0,0.317,0.037,0.635,0.111,0.953c0.074,0.317,0.193,0.601,0.357,0.849
		c0.164,0.249,0.37,0.449,0.619,0.603c0.249,0.154,0.548,0.231,0.897,0.231c0.37,0,0.68-0.075,0.929-0.223
		c0.249-0.148,0.447-0.347,0.595-0.596c0.148-0.248,0.254-0.532,0.317-0.85c0.064-0.317,0.095-0.646,0.095-0.983
		C61.209,53.394,61.178,53.067,61.114,52.756z"/>
	<path fill="#00A4CD" d="M73.736,56.812c-0.266,0.444-0.611,0.765-1.039,0.961c-0.43,0.196-0.914,0.294-1.453,0.294
		c-0.615,0-1.154-0.119-1.619-0.356c-0.467-0.239-0.85-0.562-1.152-0.969c-0.301-0.408-0.53-0.877-0.683-1.405
		c-0.153-0.529-0.23-1.081-0.23-1.651c0-0.551,0.077-1.082,0.23-1.597c0.153-0.513,0.382-0.966,0.683-1.356
		c0.302-0.393,0.681-0.707,1.136-0.946c0.455-0.237,0.984-0.356,1.588-0.356c0.486,0,0.949,0.104,1.389,0.31
		s0.785,0.512,1.039,0.913h0.031v-4.128h2.256V57.86H73.77v-1.049H73.736z M73.641,52.756c-0.062-0.312-0.172-0.589-0.324-0.826
		c-0.154-0.239-0.352-0.431-0.596-0.579s-0.551-0.223-0.922-0.223c-0.369,0-0.682,0.074-0.936,0.223
		c-0.256,0.148-0.459,0.343-0.611,0.587c-0.154,0.243-0.266,0.521-0.334,0.834s-0.104,0.638-0.104,0.977
		c0,0.317,0.037,0.635,0.111,0.953c0.074,0.317,0.193,0.601,0.357,0.849c0.164,0.249,0.371,0.449,0.619,0.603
		c0.248,0.154,0.547,0.231,0.896,0.231c0.371,0,0.682-0.075,0.93-0.223c0.25-0.148,0.447-0.347,0.596-0.596
		c0.146-0.248,0.254-0.532,0.316-0.85c0.064-0.317,0.096-0.646,0.096-0.983C73.736,53.394,73.705,53.067,73.641,52.756z"/>
	<path fill="#00A4CD" d="M79.23,55.891c0.338,0.329,0.826,0.493,1.461,0.493c0.455,0,0.846-0.113,1.176-0.342
		c0.328-0.228,0.527-0.469,0.602-0.722h1.984c-0.316,0.983-0.805,1.688-1.461,2.11c-0.654,0.425-1.449,0.636-2.381,0.636
		c-0.645,0-1.229-0.104-1.746-0.31c-0.52-0.206-0.957-0.501-1.318-0.881c-0.359-0.382-0.637-0.837-0.834-1.366
		c-0.195-0.528-0.293-1.111-0.293-1.747c0-0.613,0.1-1.185,0.301-1.714s0.488-0.987,0.859-1.374c0.369-0.387,0.811-0.69,1.324-0.912
		c0.514-0.223,1.082-0.334,1.707-0.334c0.699,0,1.307,0.135,1.826,0.404c0.52,0.271,0.945,0.633,1.277,1.088
		c0.334,0.455,0.574,0.975,0.723,1.557s0.201,1.19,0.158,1.826h-5.922C78.705,55.033,78.891,55.563,79.23,55.891z M81.779,51.572
		c-0.27-0.296-0.682-0.444-1.23-0.444c-0.361,0-0.66,0.062-0.896,0.183c-0.24,0.121-0.43,0.272-0.572,0.452
		c-0.145,0.181-0.244,0.371-0.303,0.571c-0.059,0.201-0.092,0.382-0.104,0.54h3.668C82.236,52.303,82.049,51.868,81.779,51.572z"/>
	<path fill="#00A4CD" d="M87.168,57.86l-2.809-8.21h2.365l1.73,5.605h0.031l1.73-5.605h2.24l-2.779,8.21H87.168z"/>
	<path fill="#00A4CD" d="M95.014,55.891c0.338,0.329,0.826,0.493,1.461,0.493c0.455,0,0.846-0.113,1.174-0.342
		c0.328-0.228,0.529-0.469,0.604-0.722h1.984c-0.316,0.983-0.805,1.688-1.461,2.11c-0.656,0.425-1.449,0.636-2.381,0.636
		c-0.646,0-1.229-0.104-1.746-0.31c-0.52-0.206-0.959-0.501-1.318-0.881c-0.359-0.382-0.639-0.837-0.834-1.366
		c-0.195-0.528-0.293-1.111-0.293-1.747c0-0.613,0.1-1.185,0.301-1.714s0.488-0.987,0.857-1.374c0.371-0.387,0.812-0.69,1.326-0.912
		c0.514-0.223,1.082-0.334,1.707-0.334c0.699,0,1.307,0.135,1.826,0.404c0.518,0.271,0.945,0.633,1.277,1.088
		c0.334,0.455,0.574,0.975,0.723,1.557s0.201,1.19,0.158,1.826h-5.922C94.488,55.033,94.674,55.563,95.014,55.891z M97.562,51.572
		c-0.271-0.296-0.682-0.444-1.23-0.444c-0.361,0-0.66,0.062-0.898,0.183s-0.428,0.272-0.57,0.452
		c-0.145,0.181-0.244,0.371-0.303,0.571c-0.059,0.201-0.094,0.382-0.104,0.54h3.668C98.02,52.303,97.832,51.868,97.562,51.572z"/>
	<path fill="#00A4CD" d="M103.238,46.523V57.86h-2.256V46.523H103.238z"/>
	<path fill="#00A4CD" d="M104.27,51.978c0.201-0.535,0.486-0.99,0.857-1.366c0.371-0.375,0.816-0.667,1.334-0.873
		s1.102-0.31,1.748-0.31c0.645,0,1.229,0.104,1.754,0.31c0.523,0.206,0.971,0.498,1.342,0.873c0.369,0.376,0.656,0.831,0.857,1.366
		c0.201,0.534,0.301,1.13,0.301,1.785c0,0.657-0.1,1.25-0.301,1.779s-0.488,0.981-0.857,1.357c-0.371,0.376-0.818,0.664-1.342,0.865
		c-0.525,0.201-1.109,0.302-1.754,0.302c-0.646,0-1.23-0.101-1.748-0.302s-0.963-0.489-1.334-0.865s-0.656-0.828-0.857-1.357
		s-0.301-1.122-0.301-1.779C103.969,53.107,104.068,52.512,104.27,51.978z M106.318,54.724c0.062,0.312,0.172,0.594,0.326,0.842
		c0.152,0.249,0.355,0.447,0.611,0.596c0.254,0.147,0.57,0.223,0.953,0.223c0.379,0,0.699-0.075,0.959-0.223
		c0.26-0.148,0.467-0.347,0.619-0.596c0.154-0.248,0.262-0.529,0.326-0.842c0.062-0.312,0.096-0.632,0.096-0.961
		c0-0.328-0.033-0.649-0.096-0.968c-0.064-0.317-0.172-0.599-0.326-0.842c-0.152-0.243-0.359-0.441-0.619-0.595
		s-0.58-0.23-0.959-0.23c-0.383,0-0.699,0.077-0.953,0.23c-0.256,0.153-0.459,0.352-0.611,0.595
		c-0.154,0.243-0.264,0.524-0.326,0.842c-0.064,0.318-0.096,0.64-0.096,0.968C106.223,54.092,106.254,54.412,106.318,54.724z"/>
	<path fill="#00A4CD" d="M115.273,49.65v1.049h0.031c0.275-0.444,0.625-0.768,1.047-0.969c0.424-0.201,0.891-0.302,1.398-0.302
		c0.646,0,1.201,0.122,1.668,0.365c0.465,0.244,0.852,0.566,1.158,0.968c0.307,0.403,0.535,0.872,0.684,1.405
		c0.148,0.535,0.221,1.094,0.221,1.676c0,0.55-0.072,1.08-0.221,1.588c-0.148,0.509-0.373,0.958-0.676,1.35
		c-0.301,0.392-0.678,0.704-1.127,0.938c-0.449,0.232-0.977,0.349-1.58,0.349c-0.508,0-0.977-0.104-1.404-0.31
		c-0.43-0.206-0.781-0.511-1.057-0.913h-0.031v3.891h-2.256V49.65H115.273z M118.203,56.161c0.248-0.148,0.449-0.342,0.604-0.58
		c0.152-0.238,0.262-0.516,0.324-0.833c0.064-0.318,0.096-0.641,0.096-0.969s-0.033-0.651-0.104-0.969
		c-0.068-0.317-0.182-0.601-0.342-0.849c-0.158-0.25-0.361-0.45-0.611-0.604c-0.248-0.153-0.553-0.23-0.912-0.23
		c-0.371,0-0.68,0.077-0.928,0.23c-0.25,0.153-0.451,0.352-0.605,0.595c-0.152,0.243-0.262,0.524-0.324,0.842
		c-0.064,0.318-0.096,0.646-0.096,0.984c0,0.328,0.035,0.65,0.104,0.969c0.068,0.317,0.18,0.595,0.332,0.833
		c0.154,0.238,0.359,0.432,0.611,0.58c0.256,0.147,0.562,0.223,0.922,0.223C117.645,56.384,117.953,56.309,118.203,56.161z"/>
	<path fill="#00A4CD" d="M124.449,55.891c0.34,0.329,0.826,0.493,1.461,0.493c0.455,0,0.848-0.113,1.176-0.342
		c0.328-0.228,0.529-0.469,0.604-0.722h1.984c-0.316,0.983-0.805,1.688-1.461,2.11c-0.656,0.425-1.449,0.636-2.381,0.636
		c-0.646,0-1.229-0.104-1.746-0.31c-0.52-0.206-0.959-0.501-1.318-0.881c-0.361-0.382-0.639-0.837-0.834-1.366
		c-0.195-0.528-0.295-1.111-0.295-1.747c0-0.613,0.102-1.185,0.303-1.714s0.486-0.987,0.857-1.374s0.812-0.69,1.326-0.912
		c0.512-0.223,1.082-0.334,1.707-0.334c0.697,0,1.307,0.135,1.826,0.404c0.518,0.271,0.943,0.633,1.277,1.088
		s0.574,0.975,0.723,1.557s0.201,1.19,0.158,1.826h-5.922C123.926,55.033,124.111,55.563,124.449,55.891z M126.998,51.572
		c-0.27-0.296-0.68-0.444-1.23-0.444c-0.359,0-0.658,0.062-0.896,0.183s-0.428,0.272-0.572,0.452
		c-0.143,0.181-0.242,0.371-0.301,0.571c-0.059,0.201-0.094,0.382-0.104,0.54h3.668C127.457,52.303,127.27,51.868,126.998,51.572z"
		/>
	<path fill="#00A4CD" d="M132.5,49.65v1.525h0.033c0.104-0.255,0.248-0.49,0.428-0.707s0.385-0.402,0.619-0.556
		c0.232-0.153,0.48-0.272,0.746-0.357s0.539-0.127,0.826-0.127c0.146,0,0.311,0.027,0.492,0.079v2.096
		c-0.105-0.021-0.234-0.039-0.383-0.056c-0.146-0.016-0.291-0.022-0.428-0.022c-0.412,0-0.762,0.068-1.047,0.205
		c-0.287,0.138-0.518,0.326-0.691,0.564c-0.176,0.237-0.299,0.516-0.373,0.833s-0.111,0.662-0.111,1.032v3.7h-2.256v-8.21H132.5z"/>
</g>
</svg>
