<?xml version="1.0" encoding="utf-8"?>
<!-- Generator: Adobe Illustrator 15.0.2, SVG Export Plug-In . SVG Version: 6.00 Build 0)  -->
<!DOCTYPE svg PUBLIC "-//W3C//DTD SVG 1.1//EN" "http://www.w3.org/Graphics/SVG/1.1/DTD/svg11.dtd">
<svg version="1.1" id="Layer_1" xmlns="http://www.w3.org/2000/svg" xmlns:xlink="http://www.w3.org/1999/xlink" x="0px" y="0px"
	 width="210px" height="76px" viewBox="0 0 210 76" enable-background="new 0 0 210 76" xml:space="preserve">
<path fill="#E35027" d="M9.819,58.711L5.495,10.213h47.566l-4.324,48.498l-19.511,5.484"/>
<path fill="#EC662B" d="M29.331,59.977l15.715-4.324l3.691-41.538H29.331"/>
<path fill="#EBEBEB" d="M29.331,32.151h-7.91l-0.527-6.117h8.438v-5.907h-0.105H14.355l0.105,1.582l1.477,16.453h13.395
	L29.331,32.151L29.331,32.151z M29.331,47.638h-0.105l-6.645-1.789l-0.422-4.738h-3.164h-2.742l0.738,9.374l12.234,3.375h0.105
	L29.331,47.638L29.331,47.638z"/>
<path fill="#FFFFFF" d="M29.226,32.151v6.012h7.383l-0.738,7.687l-6.645,1.789v6.222l12.234-3.375l0.105-1.056l1.371-15.697
	l0.211-1.582h-1.688H29.226z M29.226,20.127v3.691v2.215l0,0h14.449l0,0l0,0l0.105-1.266l0.316-3.059l0.105-1.582L29.226,20.127
	L29.226,20.127z"/>
<g>
	<path fill="#FFFFFF" d="M65.628,27.354v3.197h0.944v2.336h-4.539l0.033-2.336h0.944v-8.664h-0.944v-2.369h4.506v2.369h-0.944v3.015
		h2.369v-3.015h-0.978v-2.369h4.522v2.369h-0.928v5.444v3.22h0.928v2.336h-4.522v-2.336h0.978v-3.197H65.628z"/>
	<path fill="#FFFFFF" d="M78.797,32.886h-4.456V30.55h0.878v-8.664h-0.845v1.607h-2.153v-3.926h8.647v3.926h-2.154v-1.607h-0.845
		v8.664h0.928V32.886z"/>
	<path fill="#FFFFFF" d="M90.024,19.518h4.643v2.402h-0.795v8.614h0.795v2.353h-4.208v-2.353h0.696v-4.92l-2.071,7.272h-1.756
		l-2.038-7.272v4.92h0.845v2.353h-4.539v-2.353h0.961V21.92h-0.961v-2.402h4.875l1.851,9.028L90.024,19.518z"/>
	<path fill="#FFFFFF" d="M99.024,30.55h2.501v-1.772h2.535v4.108h-8.631V30.55h0.977v-8.664h-0.977v-2.368h4.522v2.369h-0.928
		L99.024,30.55L99.024,30.55z"/>
	<path fill="#FFFFFF" d="M106.03,27.519l-1.341-1.653v-6.348h8.061v3.595h-2.717v-1.126h-2.764v2.883h4.139l1.392,1.358v5.5
		l-1.192,1.16h-5.527l-1.391-1.392v-2.369h2.465v1.358h3.062V27.52L106.03,27.519L106.03,27.519z"/>
	<path fill="#FFFFFF" d="M126.55,32.886h-7.72V30.55h0.961l0.017-8.697h-1.011v-2.401h7.753l1.342,1.191v4.12l-0.961,1.142
		l0.961,0.993v4.533L126.55,32.886z M125.108,21.92h-2.684v2.949h2.684V21.92z M125.108,27.271h-2.684v3.28h2.684V27.271z"/>
	<path fill="#FFFFFF" d="M132.215,30.55h2.501v-1.772h2.534v4.108h-8.631V30.55h0.979v-8.664h-0.979v-2.368h4.522v2.369h-0.928
		L132.215,30.55L132.215,30.55z"/>
	<path fill="#FFFFFF" d="M141.392,32.886h-3.479v-2.303h0.48l2.004-8.697h-0.578l-0.018-2.369h3.977v2.369h-0.447l2.203,8.697h0.479
		v2.303h-3.562v-2.303h0.612l-0.183-0.762h-1.872l-0.199,0.762h0.58v2.303H141.392z M142.436,28.033l-0.514-2.071l-0.53,2.071
		H142.436z"/>
	<path fill="#FFFFFF" d="M151.017,32.886h-4.39v-2.402h0.994v-8.631h-0.994v-2.335h3.854l1.928,5.715v-3.429h-0.944v-2.286h4.571
		v2.336h-0.943v8.631h0.943v2.402h-3.61l-2.22-6.842v4.44h0.812V32.886z"/>
	<path fill="#FFFFFF" d="M161.586,21.887v-2.369h4.289v2.369h-0.694l-2.866,3.801l2.801,4.863h0.762v2.336h-4.291v-2.336h0.729
		l-1.458-2.833l-0.646,0.911v1.921h0.945v2.336h-4.507l-0.017-2.336h0.961v-8.664h-0.961v-2.368h4.521v2.369h-0.943v2.684
		l2.07-2.684H161.586z"/>
	<path fill="#FFFFFF" d="M67.052,52.748h-2.369L63.06,41.793h-0.812v-2.397h4.091v2.397h-0.663l0.623,6.266l1.344-5.258h1.733
		l1.474,5.162l0.707-6.17h-0.861v-2.397h3.959v2.397h-0.779l-1.574,10.955h-2.369l-1.441-6.026L67.052,52.748z"/>
	<path fill="#FFFFFF" d="M76.594,52.748l-1.077-1.074v-10.99l1.275-1.289h5.5l1.259,1.238v10.873l-1.226,1.241L76.594,52.748
		L76.594,52.748z M80.935,41.793h-2.8v8.635h2.8V41.793z"/>
	<path fill="#FFFFFF" d="M88.869,52.748h-4.522v-2.336h0.944v-8.619h-0.944v-2.397h7.32l1.261,1.488v4.962l-1.408,1.355h-0.828
		l1.806,3.211h0.497v2.336h-3.744v-2.336h0.547L88.141,47.3h-0.116v3.112h0.845L88.869,52.748L88.869,52.748z M90.161,41.793h-2.137
		v3.01h2.137V41.793z"/>
	<path fill="#FFFFFF" d="M101.028,52.748h-7.372l-0.017-2.318h0.994v-8.636h-0.994v-2.397h7.421l1.475,1.287V51.41L101.028,52.748z
		 M99.736,41.793h-2.485v8.635h2.485V41.793z"/>
	<path fill="#FFFFFF" d="M108.246,52.748h-4.6v-2.353h0.928v-8.603h-0.928v-2.397h6.874l1.287,1.304v5.017l-1.357,1.385h-3.162
		l0.017,3.295h0.96L108.246,52.748z M109.007,41.793h-1.753v2.911h1.753V41.793z"/>
	<path fill="#FFFFFF" d="M116.957,52.748h-4.521v-2.336h0.944v-8.619h-0.944v-2.397h7.319l1.262,1.488v4.962l-1.408,1.355h-0.827
		l1.805,3.211h0.498v2.336h-3.744v-2.336h0.547l-1.657-3.112h-0.114v3.112h0.844v2.336H116.957z M118.25,41.793h-2.137v3.01h2.137
		V41.793z"/>
	<path fill="#FFFFFF" d="M130.293,52.748h-8.713v-2.336h0.943v-8.651h-1.011v-2.365h8.78v3.82h-2.535v-1.455h-2.617v3.092h2.005
		v2.35h-2.005v3.211h2.617v-1.772h2.535V52.748L130.293,52.748z"/>
	<path fill="#FFFFFF" d="M130.923,48.805h2.616v1.623h3.017v-3.227h-4.378l-1.255-1.228v-5.402l1.226-1.177h5.699l1.375,1.361v2.574
		h-2.667v-1.538h-3.017v3.01h4.406l1.228,1.225v5.462l-1.275,1.259h-5.532l-1.441-1.425L130.923,48.805L130.923,48.805z"/>
	<path fill="#FFFFFF" d="M139.785,48.805h2.617v1.623h3.016v-3.227h-4.377l-1.256-1.228v-5.402l1.227-1.177h5.699l1.375,1.361v2.574
		h-2.668v-1.538h-3.016v3.01h4.406l1.227,1.225v5.462l-1.274,1.259h-5.533l-1.44-1.425v-2.518H139.785z"/>
	<path fill="#FFFFFF" d="M160.441,52.748h-4.455v-2.336h0.877v-8.651h-0.845v1.604h-2.153v-3.919h8.647v3.919h-2.153v-1.604h-0.846
		v8.651h0.928V52.748L160.441,52.748z"/>
	<path fill="#FFFFFF" d="M166.953,47.218v3.194h0.943v2.336h-4.539l0.033-2.336h0.943v-8.651h-0.943v-2.365h4.506v2.365h-0.943
		v3.009h2.369v-3.009h-0.979v-2.365h4.521v2.365h-0.928v5.435v3.217h0.928v2.336h-4.521v-2.336h0.979v-3.194H166.953z"/>
	<path fill="#FFFFFF" d="M182.26,52.748h-8.715v-2.336h0.945v-8.651h-1.012v-2.365h8.78v3.82h-2.535v-1.455h-2.617v3.092h2.005v2.35
		h-2.005v3.211h2.617v-1.772h2.535L182.26,52.748L182.26,52.748z"/>
	<path fill="#FFFFFF" d="M191.315,39.396h4.644v2.397h-0.795v8.603h0.795v2.353h-4.207v-2.353h0.695V45.48l-2.07,7.268h-1.756
		l-2.037-7.268v4.915h0.845v2.353h-4.539v-2.353h0.961v-8.603h-0.961v-2.397h4.874l1.852,9.013L191.315,39.396z"/>
	<path fill="#FFFFFF" d="M205.385,52.748h-8.715v-2.336h0.945v-8.651h-1.012v-2.365h8.78v3.82h-2.535v-1.455h-2.617v3.092h2.005
		v2.35h-2.005v3.211h2.617v-1.772h2.535L205.385,52.748L205.385,52.748z"/>
</g>
</svg>
