<?xml version="1.0" encoding="utf-8"?>
<!-- Generator: Adobe Illustrator 15.0.2, SVG Export Plug-In . SVG Version: 6.00 Build 0)  -->
<!DOCTYPE svg PUBLIC "-//W3C//DTD SVG 1.1//EN" "http://www.w3.org/Graphics/SVG/1.1/DTD/svg11.dtd">
<svg version="1.1" id="Layer_1" xmlns="http://www.w3.org/2000/svg" xmlns:xlink="http://www.w3.org/1999/xlink" x="0px" y="0px"
	 width="24px" height="24px" viewBox="0 0 24 24" enable-background="new 0 0 24 24" xml:space="preserve">
<path fill="#FFFFFF" d="M23,5.178c-0.81,0.359-1.68,0.602-2.593,0.711c0.933-0.559,1.648-1.443,1.985-2.497
	c-0.872,0.517-1.839,0.893-2.866,1.095c-0.823-0.877-1.997-1.425-3.295-1.425c-2.492,0-4.514,2.021-4.514,4.513
	c0,0.354,0.04,0.698,0.117,1.029C8.083,8.416,4.758,6.619,2.532,3.888C2.143,4.555,1.92,5.33,1.92,6.157
	c0,1.566,0.797,2.947,2.008,3.757C3.188,9.891,2.493,9.688,1.884,9.35c0,0.019,0,0.038,0,0.057c0,2.187,1.556,4.011,3.621,4.426
	c-0.379,0.104-0.778,0.158-1.189,0.158c-0.291,0-0.573-0.028-0.849-0.081c0.575,1.793,2.241,3.099,4.216,3.135
	c-1.544,1.211-3.491,1.933-5.605,1.933c-0.364,0-0.724-0.021-1.077-0.063c1.998,1.28,4.37,2.028,6.919,2.028
	c8.302,0,12.842-6.878,12.842-12.843c0-0.195-0.004-0.39-0.013-0.584C21.63,6.878,22.395,6.083,23,5.178z"/>
</svg>
