<svg viewBox="0 0 250 41" xmlns="http://www.w3.org/2000/svg" fill-rule="evenodd" clip-rule="evenodd" stroke-linejoin="round" stroke-miterlimit="1.414"><path d="M237.506 24.43l10.906-9.441H242.9l-8.766 7.507V5.188h-3.889v29.596h3.889V26.31l10.193 8.475H250L237.506 24.43zm-153.41-7.864c1.384 0 2.686.326 3.581 1.344L77.42 24.42c-.488-4.272 2.24-7.854 6.676-7.854m.121 14.57c-2.442 0-4.355-1.26-5.657-3.336l14.49-9.239c-2.238-3.664-4.844-5.658-9.24-5.658-5.494 0-10.296 4.762-10.296 10.378 0 6.553 4.313 11.52 10.947 11.52 3.216 0 6.475-2.025 9.04-3.817l-1.632-3.428c-2.117 1.667-4.843 3.58-7.652 3.58m123.959-.043h-7.099c-1.985 0-3.664-.706-5.038-2.116-1.373-1.41-2.059-3.106-2.059-5.087 0-1.98.686-3.685 2.06-5.117 1.373-1.43 3.052-2.145 5.037-2.145 1.985 0 3.665.715 5.038 2.145 1.374 1.432 2.06 3.136 2.06 5.117v7.203zm-7.113-18.172c-3.026 0-5.63 1.07-7.808 3.213-2.18 2.142-3.269 4.727-3.269 7.754 0 3.026 1.09 5.603 3.27 7.727 2.177 2.123 4.78 3.186 7.807 3.186h11.105V23.888c0-3.027-1.094-5.612-3.282-7.754-2.188-2.143-4.796-3.213-7.823-3.213m16.744 3.31c-2.264 2.21-3.398 4.888-3.398 8.034V34.8h4.03V24.265c0-1.878 1.252-6.764 7.485-7.55h2.08V12.92h-2.08c-3.146 0-5.852 1.103-8.117 3.31m-38.461-3.318c-2.414 0-5.544.98-6.971 3.033-1.427-2.052-4.557-3.033-6.973-3.033-4.38 0-8.399 3.3-8.399 7.321v14.568h3.926V21.128c0-2.727 2.24-4.469 4.563-4.469 2.549 0 4.92 1.43 4.92 5.094v13.048h3.926V21.753c0-3.664 2.373-5.094 4.92-5.094 2.325 0 4.563 1.742 4.563 4.47V34.8h3.925V20.233c0-4.02-4.018-7.32-8.4-7.32m-74.752-.008c-5.228 0-9.16 3.754-9.16 9.384v12.512h3.932V22.289c0-3.307 2.414-5.63 5.228-5.63 2.816 0 5.229 2.323 5.229 5.63v12.512h3.931V22.289c0-5.63-3.931-9.384-9.16-9.384m41.279 0c-2.28 0-4.29.983-5.497 2.324V5.292h-3.93v29.509h3.93V22.289c0-3.307 2.37-5.63 5.228-5.63 2.815 0 5.229 1.251 5.229 5.63v12.512h3.93V22.289c0-7.24-3.93-9.384-8.89-9.384m-19.267 18.219c-3.576 0-6.707-3.537-6.707-7.236 0-3.782 2.685-7.32 6.628-7.32 2.317 0 3.457.611 5.203 1.912l2.36-2.684c-2.155-1.87-4.757-2.887-7.605-2.887-6.178 0-10.49 5.04-10.49 11.101 0 6.058 5.042 10.776 10.49 10.776 3.051 0 5.654-1.385 7.727-3.54l-2.523-2.562c-1.423 1.384-2.884 2.44-5.083 2.44M2.089 12.459c1.024-.005 2.062.003 3.105 0-.01 2.617-.015 5.177-.015 7.545 0 8.179 6.652 14.83 14.828 14.83 8.176 0 14.827-6.651 14.827-14.83 0-8.175-6.651-14.813-14.827-14.813-2.135 0-4.787-.01-7.578 0 .004-1.041-.003-2.078 0-3.106 2.793-.008 5.437 0 7.578 0 9.888 0 17.933 8.033 17.933 17.919 0 9.889-8.045 17.934-17.933 17.934-9.889 0-17.933-8.045-17.933-17.934 0-2.372.007-4.93.015-7.545m.006-5.209h3.118v3.104H2.095V7.25zm.021-5.164h3.116v3.106H2.116V2.086zm5.15 10.353h3.091c-.01 2.626-.016 5.185-.016 7.565 0 5.331 4.337 9.666 9.666 9.666 5.328 0 9.664-4.335 9.664-9.666 0-5.327-4.336-9.647-9.664-9.647-2.151 0-4.771-.009-7.578 0V7.25c2.795-.01 5.442 0 7.578 0 7.032 0 12.753 5.722 12.753 12.754 0 7.034-5.72 12.756-12.753 12.756S7.252 27.038 7.252 20.004c0-2.37.006-4.945.015-7.565m.007-5.189h3.09v3.104h-3.09V7.25zm.02-5.164h3.102v3.106H7.294V2.086zm5.135 10.344c2.812-.01 5.425 0 7.578 0 4.185 0 7.59 3.39 7.59 7.574 0 4.187-3.405 7.593-7.59 7.593-4.186 0-7.591-3.406-7.591-7.593 0-2.384.005-4.944.013-7.574M0 20.004c0 11.032 8.975 20.008 20.007 20.008 11.031 0 20.006-8.976 20.006-20.008C40.013 8.974 31.038 0 20.007 0 17.867 0 .062.061.062.061S0 17.635 0 20.004m65.22 8.944c-1.373 1.43-3.053 2.146-5.038 2.146-1.985 0-3.665-.716-5.038-2.146-1.373-1.431-2.06-3.136-2.06-5.116v-7.203h7.098c1.985 0 3.665.706 5.038 2.115 1.374 1.411 2.06 3.107 2.06 5.088 0 1.98-.686 3.685-2.06 5.116m2.783-12.841c-2.176-2.124-4.78-3.186-7.807-3.186h-7.038V5.188H49.09v18.646c0 3.027 1.094 5.612 3.282 7.754 2.188 2.142 4.796 3.213 7.823 3.213s5.63-1.07 7.807-3.213c2.18-2.142 3.27-4.727 3.27-7.754 0-3.027-1.09-5.603-3.27-7.727" fill="#1b1b1b" fill-rule="nonzero"/></svg>