<svg xmlns="http://www.w3.org/2000/svg" viewBox="0 0 22.5 22.27"><defs><style>.e976b01e-b823-4a33-afa4-7e423e5efc07{fill:#303536;}</style></defs><title>close</title><g id="bc0933f0-4035-477f-a26f-3729a5f20fc6" data-name="Layer 2"><g id="ac142a7b-f51d-4aa6-8dfb-c0c4fdfa64fb" data-name="Layer 1"><path class="e976b01e-b823-4a33-afa4-7e423e5efc07" d="M.4,2.17,19.84,21.61a1.25,1.25,0,1,0,1.77-1.77L2.17.4A1.18,1.18,0,0,0,.4.4,1.18,1.18,0,0,0,.4,2.17Z"/><path class="e976b01e-b823-4a33-afa4-7e423e5efc07" d="M2.66,21.87,22.1,2.43a1.18,1.18,0,0,0,0-1.77,1.18,1.18,0,0,0-1.77,0L.89,20.1a1.18,1.18,0,0,0,0,1.77A1.18,1.18,0,0,0,2.66,21.87Z"/></g></g></svg>