<svg xmlns="http://www.w3.org/2000/svg" viewBox="0 0 30 20"><defs><style>.aa8ebab7-074c-4f4d-83e8-7a439dda45a8{fill:currentColor;}</style></defs><title>hamburger</title><g id="b82ec511-1600-43fe-8d94-c017d768d64d" data-name="Layer 2"><g id="bbf040c3-01b9-4713-ae67-b47f8537e908" data-name="Layer 1"><path class="aa8ebab7-074c-4f4d-83e8-7a439dda45a8" d="M12.5,11.25H28.75A1.18,1.18,0,0,0,30,10a1.18,1.18,0,0,0-1.25-1.25H12.5A1.18,1.18,0,0,0,11.25,10,1.18,1.18,0,0,0,12.5,11.25ZM1.25,2.5h27.5A1.18,1.18,0,0,0,30,1.25,1.18,1.18,0,0,0,28.75,0H1.25A1.18,1.18,0,0,0,0,1.25,1.18,1.18,0,0,0,1.25,2.5Zm0,17.5h27.5a1.25,1.25,0,0,0,0-2.5H1.25a1.25,1.25,0,0,0,0,2.5Z"/></g></g></svg>
