<?xml version="1.0" encoding="utf-8"?>
<!-- Generated by IcoMoon.io -->
<!DOCTYPE svg PUBLIC "-//W3C//DTD SVG 1.1//EN" "http://www.w3.org/Graphics/SVG/1.1/DTD/svg11.dtd">
<svg version="1.1" xmlns="http://www.w3.org/2000/svg" xmlns:xlink="http://www.w3.org/1999/xlink" width="24" height="28" viewBox="0 0 24 28">
<path fill="currentColor" d="M3.703 22.094h3.609v-10.844h-3.609v10.844zM7.547 7.906q-0.016-0.812-0.562-1.344t-1.453-0.531-1.477 0.531-0.57 1.344q0 0.797 0.555 1.336t1.445 0.539h0.016q0.922 0 1.484-0.539t0.562-1.336zM16.688 22.094h3.609v-6.219q0-2.406-1.141-3.641t-3.016-1.234q-2.125 0-3.266 1.828h0.031v-1.578h-3.609q0.047 1.031 0 10.844h3.609v-6.062q0-0.594 0.109-0.875 0.234-0.547 0.703-0.93t1.156-0.383q1.813 0 1.813 2.453v5.797zM24 6.5v15q0 1.859-1.32 3.18t-3.18 1.32h-15q-1.859 0-3.18-1.32t-1.32-3.18v-15q0-1.859 1.32-3.18t3.18-1.32h15q1.859 0 3.18 1.32t1.32 3.18z"></path>
</svg>