<?xml version="1.0" encoding="utf-8"?>
<!-- Generated by IcoMoon.io -->
<!DOCTYPE svg PUBLIC "-//W3C//DTD SVG 1.1//EN" "http://www.w3.org/Graphics/SVG/1.1/DTD/svg11.dtd">
<svg version="1.1" xmlns="http://www.w3.org/2000/svg" xmlns:xlink="http://www.w3.org/1999/xlink" width="24" height="28" viewBox="0 0 24 28">
<path fill="currentColor" d="M20 9.531q-0.875 0.391-1.891 0.531 1.062-0.625 1.453-1.828-1.016 0.594-2.094 0.797-0.953-1.031-2.391-1.031-1.359 0-2.32 0.961t-0.961 2.32q0 0.453 0.078 0.75-2.016-0.109-3.781-1.016t-3-2.422q-0.453 0.781-0.453 1.656 0 1.781 1.422 2.734-0.734-0.016-1.563-0.406v0.031q0 1.172 0.781 2.086t1.922 1.133q-0.453 0.125-0.797 0.125-0.203 0-0.609-0.063 0.328 0.984 1.164 1.625t1.898 0.656q-1.813 1.406-4.078 1.406-0.406 0-0.781-0.047 2.312 1.469 5.031 1.469 1.75 0 3.281-0.555t2.625-1.484 1.883-2.141 1.172-2.531 0.383-2.633q0-0.281-0.016-0.422 0.984-0.703 1.641-1.703zM24 6.5v15q0 1.859-1.32 3.18t-3.18 1.32h-15q-1.859 0-3.18-1.32t-1.32-3.18v-15q0-1.859 1.32-3.18t3.18-1.32h15q1.859 0 3.18 1.32t1.32 3.18z"></path>
</svg>