<svg width="512" height="512" xmlns="http://www.w3.org/2000/svg"><g fill-rule="evenodd"><path d="M288.936 278.482l61.225-44.666a26.611 26.611 0 0 0 10.172 3.301c14.667 1.65 27.943-8.938 29.596-23.603 1.653-14.667-8.935-27.943-23.601-29.598-14.667-1.651-27.943 8.936-29.595 23.604a26.583 26.583 0 0 0 1.912 13.319l-55.829 40.729c-4.269-5.176-10.466-8.777-17.646-9.585-10.167-1.145-19.663 3.593-25.084 11.494l-69.454-24.962c.019-.145.044-.292.061-.438 1.653-14.667-8.936-27.944-23.6-29.597-14.667-1.655-27.943 8.934-29.596 23.603-1.652 14.663 8.935 27.941 23.601 29.592 8.353.943 16.252-2.091 21.813-7.581l72.548 26.068c.751 12.759 10.598 23.538 23.719 25.017 14.665 1.653 27.943-8.936 29.597-23.6.114-1.04.164-2.075.161-3.097zm64.957-69.028c.585-5.202 5.299-8.961 10.5-8.374 5.204.587 8.961 5.298 8.374 10.502-.586 5.202-5.297 8.961-10.5 8.372-5.205-.583-8.962-5.296-8.374-10.5zm-200.359 26.687c-.587 5.206-5.299 8.963-10.502 8.374-5.205-.587-8.96-5.296-8.375-10.501.587-5.204 5.299-8.959 10.502-8.375 5.204.589 8.96 5.3 8.375 10.502zm118.077 43.503c-.588 5.205-5.297 8.961-10.502 8.375-5.202-.588-8.959-5.297-8.374-10.502.585-5.203 5.296-8.959 10.5-8.373 5.206.586 8.963 5.297 8.376 10.5z"/><path d="M169.181 265.521l-13.897 12.311a26.659 26.659 0 0 0-9.517-2.949c-14.667-1.649-27.944 8.938-29.596 23.604-1.653 14.666 8.936 27.943 23.601 29.598 14.667 1.65 27.943-8.936 29.596-23.604a26.584 26.584 0 0 0-2.24-14.068l20.582-18.229-18.529-6.663zm197.052 57.043c14.668 1.648 27.942-8.938 29.597-23.603 1.652-14.669-8.938-27.942-23.602-29.598-6.593-.744-12.898.992-18.002 4.453l-23.01-15.495-14.839 10.825 27.418 18.468a26.949 26.949 0 0 0-1.164 5.35c-1.651 14.67 8.937 27.946 23.602 29.6zm-149.047-76.493l14.991-13.275a26.592 26.592 0 0 0 13.002 5.153c6.646.75 13.003-1.021 18.126-4.542l22.601 15.223 14.839-10.827-27.089-18.245a26.806 26.806 0 0 0 1.117-5.209c1.651-14.665-8.938-27.943-23.602-29.594-14.667-1.654-27.943 8.935-29.595 23.599a26.565 26.565 0 0 0 .786 10.063l-23.706 20.997 18.53 6.657zM256 83.697c56.894 0 107.455 27.609 139.004 70.129l44.804-23.477a225.483 225.483 0 0 0-26.124-31.338C371.565 56.893 315.565 33.697 256 33.697c-45.665 0-89.227 13.647-126.053 38.988l35.06 36.938C191.459 93.199 222.638 83.697 256 83.697z"/><path d="M83 256.697c0-44.016 16.532-84.236 43.7-114.801L92.127 105.47C53.938 146.773 33 200.123 33 256.697c0 59.562 23.196 115.562 65.315 157.684 36.168 36.17 82.577 58.367 132.685 63.923v-50.419c-83.588-12.153-148-84.286-148-171.188zm380.388-82.256l-44.694 23.422C425.357 216.236 429 236.049 429 256.697c0 86.902-64.412 159.035-148 171.188v50.418c50.108-5.555 96.517-27.752 132.685-63.922C455.804 372.261 479 316.261 479 256.697c0-28.627-5.372-56.422-15.612-82.256z"/></g></svg>