<svg width="512" height="512" xmlns="http://www.w3.org/2000/svg"><path d="M212.6 88.622l-85.854-23.007c-7.895-2.119-16.012 2.578-18.13 10.474l-88.18 329.126c-2.117 7.91 2.578 16.03 10.488 18.163l85.838 23.007c7.896 2.119 16.028-2.578 18.146-10.474l88.179-329.14c2.103-7.897-2.578-16.03-10.488-18.149zm-78.359 292.46c-6.354 23.718-30.706 37.777-54.42 31.422-23.716-6.356-37.773-30.711-31.418-54.43 6.354-23.718 30.706-37.793 54.42-31.422 23.716 6.355 37.773 30.726 31.418 54.43zm17.02-63.497l-85.839-23.007 45.993-171.719 85.853 23.022-46.007 171.704zm148.258 34.711c-12.28 0-22.219 9.956-22.219 22.223 0 12.266 9.94 22.222 22.22 22.222 12.264 0 22.218-9.956 22.218-22.222 0-12.267-9.954-22.223-22.219-22.223zM179.138 156.341l-57.25-15.334-3.822 14.312 57.236 15.333 3.836-14.311zm-11.524 42.933l3.851-14.311-57.235-15.333-3.837 14.31 57.22 15.334zM96.84 349.007c-11.85-3.185-24.041 3.867-27.21 15.719-3.186 11.867 3.85 24.044 15.715 27.215 11.85 3.185 24.04-3.852 27.21-15.719 3.17-11.866-3.865-24.03-15.715-27.215zM462.457 144.89h-59.25v14.815h59.25V144.89zm0 59.26h-59.25v14.814h59.25v-14.815zm0-29.63h-59.25v14.814h59.25V174.52zm-29.625 177.777c-12.28 0-22.22 9.956-22.22 22.223 0 12.266 9.94 22.222 22.22 22.222 12.264 0 22.218-9.956 22.218-22.222 0-12.267-9.954-22.223-22.218-22.223zm44.437-281.481h-88.875c-8.191 0-14.812 6.622-14.812 14.815v340.74c0 8.178 6.62 14.815 14.812 14.815h88.875c8.177 0 14.813-6.637 14.813-14.815V85.63c0-8.193-6.651-14.815-14.813-14.815zm-44.437 348.148c-24.545 0-44.438-19.911-44.438-44.444 0-24.549 19.893-44.445 44.438-44.445 24.53 0 44.437 19.896 44.437 44.445 0 24.533-19.908 44.444-44.437 44.444zm44.437-111.111h-88.875V130.074h88.875v177.778zM329.144 144.889h-59.25v14.815h59.25v-14.815zm0 59.26h-59.25v14.814h59.25v-14.815zm14.813-133.334h-88.875c-8.192 0-14.813 6.622-14.813 14.815v340.74c0 8.178 6.621 14.815 14.813 14.815h88.875c8.176 0 14.812-6.637 14.812-14.815V85.63c0-8.193-6.65-14.815-14.812-14.815zm-44.438 347.23c-24.544 0-44.437-19.912-44.437-44.445 0-24.548 19.893-44.444 44.437-44.444 24.53 0 44.438 19.896 44.438 44.444 0 24.533-19.908 44.444-44.438 44.444zm44.438-110.193h-88.875V130.074h88.875v177.778zm-14.813-133.333h-59.25v14.814h59.25V174.52zm-226.424 38.03l57.22 15.332 3.852-14.31-57.235-15.334-3.837 14.311z" fill-rule="evenodd"/></svg>