<svg width="512" height="512" xmlns="http://www.w3.org/2000/svg"><path d="M355.923 55H156.052s-25 0-25 25.125h249.87C380.923 55 355.924 55 355.924 55zm74.974 75.375c0-25.125-24.975-25.125-24.975-25.125H106.078s-24.975 0-24.975 25.125V155.5h349.794v-25.125zm49.949 25.125l-14.759-14.874v39.999H45.913v-39.999L31.129 155.5c-14.784 14.874-25.376 18.844-19.427 50.25 5.923 31.306 34.613 202.91 38.88 226.125C55.25 457.352 81.128 457 81.128 457h349.794s25.853.352 30.547-25.125c4.267-23.216 32.93-194.82 38.88-226.125 5.898-31.406-4.694-35.376-19.503-50.25zM356.4 306.175c0 13.919-11.27 25.2-25.175 25.2h-150.45c-13.905 0-25.175-11.281-25.175-25.2V256h25.1v50.25h150.6V256h25.1v50.175z" fill-rule="evenodd"/></svg>