<svg width="512" height="512" xmlns="http://www.w3.org/2000/svg"><g fill="#030104" fill-rule="evenodd"><path d="M355.144 416.863a12.31 12.31 0 0 0 9.244-2.237c2.631-1.907 4.466-4.854 4.95-8.131l2.926-19.47c.59-3.919 3.03-7.248 6.561-9.033l17.606-8.808c2.977-1.508 5.21-4.092 6.214-7.23 1.039-3.173.71-6.57-.779-9.518l-9.07-17.563c-1.784-3.433-1.784-7.611 0-11.079l9.07-17.546c1.489-2.947 1.8-6.345.78-9.518-1.022-3.155-3.255-5.721-6.215-7.23l-17.606-8.807c-3.531-1.786-5.972-5.115-6.56-9.033l-2.926-19.47c-.485-3.277-2.32-6.207-4.951-8.115a12.162 12.162 0 0 0-9.244-2.236l-19.475 3.26c-3.86.64-7.773-.642-10.542-3.433l-13.832-14.079a12.381 12.381 0 0 0-8.794-3.658 12.515 12.515 0 0 0-8.794 3.658l-13.831 14.079a11.987 11.987 0 0 1-10.543 3.432l-19.44-3.207a12.221 12.221 0 0 0-9.261 2.236 12.242 12.242 0 0 0-4.951 8.115l-2.908 19.47a12.155 12.155 0 0 1-6.561 9.033l-17.623 8.807c-2.925 1.509-5.193 4.075-6.197 7.23a12.533 12.533 0 0 0 .762 9.518l9.07 17.546a12.04 12.04 0 0 1 0 11.079l-9.07 17.563a12.533 12.533 0 0 0-.762 9.518c1.021 3.138 3.254 5.722 6.197 7.23l17.623 8.808a12.155 12.155 0 0 1 6.56 9.033l2.909 19.47c.485 3.26 2.302 6.207 4.95 8.131a12.334 12.334 0 0 0 9.262 2.237l19.44-3.208c3.86-.676 7.79.624 10.543 3.416l13.831 14.043a12.278 12.278 0 0 0 8.794 3.71c3.307 0 6.475-1.317 8.794-3.71l13.832-14.043c2.77-2.792 6.7-4.092 10.542-3.416l19.475 3.156zm-52.66-14.217c-41.373 0-75.008-33.687-75.008-75.107s33.652-75.141 75.008-75.141c41.373 0 75.008 33.739 75.008 75.141 0 41.402-33.617 75.107-75.008 75.107z"/><path d="M302.501 263.234c-35.331 0-64.102 28.78-64.102 64.184 0 35.403 28.788 64.184 64.102 64.184 35.367 0 64.103-28.78 64.103-64.184 0-35.404-28.736-64.184-64.103-64.184zm111.708 167.689l-34.882-34.952-1.765 11.79c-.831 5.426-3.843 10.437-8.292 13.644a20.492 20.492 0 0 1-15.442 3.693l-19.492-3.19c-1.61-.104-2.58.347-3.289 1.075l-3.324 3.346 45.563 45.615a6.659 6.659 0 0 0 6.665 1.682c2.354-.745 4.085-2.705 4.57-5.15l4.102-22.14 22.176-4.16a6.544 6.544 0 0 0 5.09-4.578 6.645 6.645 0 0 0-1.68-6.675zm-142.919-9.102l-20.081 3.277c-5.626.867-11.08-.485-15.51-3.745-4.415-3.19-7.427-8.183-8.258-13.645l-1.766-11.737-34.864 34.952a6.702 6.702 0 0 0-1.662 6.658c.744 2.375 2.718 4.092 5.107 4.577l22.158 4.144 4.154 22.175a6.65 6.65 0 0 0 4.553 5.15 6.619 6.619 0 0 0 6.63-1.665l45.545-45.633-3.323-3.363a3.748 3.748 0 0 0-2.683-1.145zm51.084-310.708H159.045c-5.886 0-10.646 4.768-10.646 10.663a10.618 10.618 0 0 0 10.646 10.68h163.33c5.868 0 10.646-4.75 10.646-10.646 0-5.895-4.796-10.697-10.647-10.697zm0 54.683H159.045c-5.886 0-10.646 4.768-10.646 10.628-.017 5.895 4.743 10.68 10.646 10.68h163.33c5.868 0 10.646-4.75 10.646-10.663 0-5.877-4.796-10.645-10.647-10.645z"/><path d="M209.022 388.498l-8.05-4.022c-2.06-1.04-3.93-2.375-5.66-3.866h-68.76c-4.708 0-8.534-3.85-8.534-8.53V69.276c0-4.733 3.826-8.565 8.535-8.565h228.816c4.691 0 8.534 3.832 8.534 8.565v156.16a28.94 28.94 0 0 1 10.63 4.942c6.231 4.456 10.542 11.581 11.701 19.349l.347-180.434C386.615 52.044 372.593 38 355.369 38H126.553c-17.225 0-31.247 14.06-31.247 31.294v302.82c0 17.268 14.04 31.312 31.247 31.312h67.599l14.87-14.928z"/></g></svg>