<svg width="512" height="512" xmlns="http://www.w3.org/2000/svg"><path d="M328.834 177.206l-27.86-27.836-139.3 139.218c-23.084 23.061-23.084 60.472 0 83.534 23.084 23.06 60.496 23.06 83.58 0l167.16-167.067c38.482-38.44 38.482-100.778 0-139.218-38.455-38.454-100.831-38.454-139.286 0L97.623 241.258c-.123.124-.26.247-.37.357-53.648 53.627-53.648 140.549 0 194.162 53.634 53.613 140.617 53.613 194.279 0 .123-.124.22-.247.357-.37l.013.013L411.7 315.683l-27.873-27.836-119.798 119.724c-.124.11-.247.247-.357.357-38.208 38.179-100.351 38.179-138.56 0-38.193-38.18-38.193-100.284 0-138.464.138-.123.262-.247.385-.356l-.014-.028L301.015 93.672c23.03-23.034 60.537-23.034 83.58 0s23.03 60.514 0 83.534l-167.16 167.067c-7.685 7.682-20.174 7.682-27.86 0-7.672-7.67-7.672-20.167 0-27.836l139.3-139.231h-.041z" fill-rule="evenodd"/></svg>