<svg width="512" height="512" xmlns="http://www.w3.org/2000/svg"><g fill="#444" fill-rule="evenodd"><path d="M249.303 477C131.142 477 35 377.854 35 256S131.142 35 249.303 35c118.175 0 214.316 99.146 214.316 221s-96.141 221-214.316 221zm0-415.273c-103.87 0-188.372 87.157-188.372 194.273s84.515 194.259 188.372 194.259c103.883 0 188.386-87.157 188.386-194.259 0-107.102-84.503-194.273-188.386-194.273z"/><path d="M232.534 339.58l-19.997-17.004L265.777 256l-53.24-66.576 19.997-17.003L299.396 256z"/></g></svg>