<svg width="512" height="512" xmlns="http://www.w3.org/2000/svg"><path d="M491.67 191.925H390.38c-.49-2.352-1.176-4.705-2.156-6.96l-.294-.587.49-.49a40.1 40.1 0 0 0 13.519-29.7c0-11.37-4.8-22.25-13.323-29.797l-.49-.49.294-.588c1.078-2.45 1.861-5.097 2.351-7.646h100.996c3.33 0 5.192 3.823 3.135 6.47l-24.49 30.483a2.656 2.656 0 0 0 0 3.333l24.392 29.6c2.057 2.451.196 6.372-3.135 6.372zm-368.327-7.743l.294-.588-.49-.49c-8.523-7.548-13.323-18.428-13.323-29.798 0-11.37 4.898-22.25 13.519-29.7l.49-.49-.294-.587c-.98-2.255-1.666-4.607-2.155-6.96H20.094c-3.33 0-5.192 3.921-3.037 6.47l24.294 29.6c.784.98.784 2.353 0 3.333l-24.49 30.484c-2.057 2.646-.196 6.469 3.135 6.469h100.996c.49-2.646 1.273-5.195 2.35-7.743zm15.477-18.82c-7.15-6.37-7.15-17.545.098-23.916l4.702-4.117c5.094-4.509 6.857-11.86 4.212-18.133l-2.448-5.783c-3.723-8.822 1.175-18.918 10.383-21.466l6.074-1.666c6.563-1.863 11.265-7.646 11.657-14.507l.294-6.273c.49-8.626 7.64-15.095 15.87-15.095.979 0 1.86.098 2.84.294l6.171 1.079c.98.196 1.862.294 2.841.294 5.78 0 11.167-3.137 14.008-8.234l3.037-5.489c2.939-5.293 8.425-8.233 14.008-8.233 3.233 0 6.465.98 9.306 3.038l5.094 3.627c2.743 2.058 6.074 3.038 9.306 3.038 3.233 0 6.466-.98 9.306-2.94l5.094-3.627c2.841-2.058 6.074-2.94 9.208-2.94 5.584 0 11.168 2.94 14.009 8.331l2.938 5.49a15.958 15.958 0 0 0 14.009 8.33c.881 0 1.86-.097 2.742-.195l6.172-1.079c.881-.196 1.861-.196 2.743-.196 8.326 0 15.477 6.568 15.87 15.193l.293 6.273c.294 6.861 4.996 12.743 11.56 14.605l6.073 1.764c9.208 2.647 14.008 12.742 10.285 21.564l-2.449 5.783c-2.645 6.273-.98 13.625 4.115 18.133l4.702 4.117c7.15 6.371 7.15 17.545-.098 23.916l-4.702 4.117c-5.094 4.509-6.857 11.86-4.213 18.133l2.45 5.783c3.722 8.822-1.176 18.918-10.384 21.466l-6.074 1.667c-6.563 1.862-11.265 7.645-11.657 14.506l-.294 6.273c-.49 8.626-7.64 15.095-15.87 15.095-.979 0-1.86-.098-2.84-.294l-6.171-1.078a13.98 13.98 0 0 0-2.841-.294 16.062 16.062 0 0 0-14.008 8.233l-3.037 5.49c-2.939 5.292-8.425 8.233-14.008 8.233-3.233 0-6.466-.98-9.306-3.039l-5.094-3.626c-2.743-2.059-6.074-3.039-9.306-3.039-3.233 0-6.466.98-9.306 2.94l-5.094 3.627c-2.841 2.059-6.074 2.94-9.209 2.94-5.583 0-11.167-2.94-14.008-8.33l-2.938-5.49a15.958 15.958 0 0 0-14.009-8.331c-.881 0-1.86.098-2.742.196l-6.172 1.078c-.882.196-1.861.196-2.743.196-8.326 0-15.477-6.567-15.87-15.193l-.293-6.273c-.294-6.861-4.996-12.742-11.56-14.605l-6.073-1.764c-9.208-2.646-14.008-12.742-10.285-21.564l2.449-5.783c2.644-6.273.98-13.624-4.115-18.133l-4.702-4.117zm66.22-8.331l18.613 18.721 19.298 19.408 19.396-19.31 44.473-44.206-19.298-19.407-44.473 44.206-18.612-18.722-19.396 19.31zm-31.052 223.382l-5.878-23.916 18.808-15.88c3.527-2.94 1.666-8.723-2.939-9.115l-24.49-1.764-9.305-22.838c-1.764-4.313-7.837-4.313-9.6 0l-9.307 22.838-24.49 1.764c-4.603.294-6.465 6.077-2.938 9.116l18.808 15.879-5.878 23.916c-1.077 4.509 3.82 8.037 7.74 5.587l20.865-12.938L166.249 386c3.918 2.45 8.816-1.078 7.739-5.587zm110.498 0l-5.878-23.916 18.808-15.88c3.527-2.94 1.665-8.723-2.939-9.115l-24.49-1.764-9.306-22.838c-1.763-4.313-7.836-4.313-9.6 0l-9.306 22.838-24.49 1.764c-4.604.294-6.465 6.077-2.938 9.116l18.808 15.879-5.878 23.916c-1.077 4.509 3.82 8.037 7.74 5.587l20.864-12.938L276.747 386c3.918 2.45 8.914-1.078 7.739-5.587zm120.49-48.91l-24.49-1.765-9.307-22.838c-1.763-4.313-7.836-4.313-9.6 0l-9.306 22.838-24.49 1.764c-4.604.294-6.465 6.077-2.938 9.116l18.808 15.879-5.878 23.916c-1.077 4.509 3.82 8.037 7.74 5.587l20.864-12.938L387.245 386c3.918 2.45 8.816-1.078 7.739-5.587l-5.878-23.916 18.808-15.88c3.527-2.94 1.665-8.723-2.939-9.115zm-165.748 91.842l-24.49-1.765-9.306-22.838c-1.763-4.313-7.836-4.313-9.6 0l-9.306 22.838-24.49 1.765c-4.604.294-6.465 6.077-2.938 9.115l18.808 15.88-5.878 23.915c-1.077 4.51 3.82 8.038 7.74 5.587l20.864-12.938 20.866 12.938c3.918 2.45 8.816-1.078 7.739-5.587l-5.878-23.916 18.808-15.879c3.527-3.038 1.665-8.821-2.939-9.115zm100.507 48.812l-5.878-23.916 18.808-15.879c3.527-2.94 1.665-8.723-2.939-9.115l-24.49-1.765-9.306-22.838c-1.763-4.313-7.836-4.313-9.6 0l-9.306 22.838-24.49 1.765c-4.604.294-6.465 6.077-2.938 9.115l18.808 15.88-5.878 23.915c-1.077 4.51 3.82 8.038 7.74 5.587l20.864-12.938 20.866 12.938c4.016 2.45 8.914-1.078 7.739-5.587z" fill-rule="evenodd"/></svg>