<svg width="512" height="512" xmlns="http://www.w3.org/2000/svg"><path d="M38 255.676c0 120.027 97.648 217.675 217.676 217.675 120.027 0 217.675-97.648 217.675-217.675C473.351 135.648 375.705 38 255.676 38 135.646 38 38 135.648 38 255.676zm217.676 178.75c-98.562 0-178.747-80.186-178.747-178.75 0-42.282 14.787-81.159 39.424-111.798l251.12 251.12c-30.64 24.637-69.513 39.427-111.797 39.427zm178.747-178.75c0 42.281-14.788 81.158-39.422 111.797l-251.123-251.12c30.64-24.637 69.516-39.424 111.798-39.424 98.562 0 178.747 80.185 178.747 178.747z" fill-rule="evenodd"/></svg>