<svg width="512" height="512" xmlns="http://www.w3.org/2000/svg"><g fill-rule="evenodd"><path d="M503.517 265.565a1.221 1.221 0 0 0-1.122-.221c-.433.133-.83.248-1.203.358l-.183.053c-.922.27-1.718.502-2.507.819-12.465 4.958-22.278 13.453-30.001 25.97-1.908 3.092-3.385 6.306-4.562 9.512 1.93-10.783 2.377-14.984 2.719-27.05.016-.506.016-1.02.016-1.532 0-1.396 0-2.714.304-3.917.366-1.426 1.1-2.848 1.81-4.223.2-.39.4-.78.566-1.121a.823.823 0 0 1 .314-.192c3.565-.545 6.717-2.06 9.64-4.631 2.945-2.604 5.366-5.79 7.199-9.475 6.578-13.206 9.869-27.803 9.786-43.38-.008-1.503-.184-2.966-.378-4.557a88.555 88.555 0 0 1-.252-2.197 1.209 1.209 0 0 0-.666-.962 1.225 1.225 0 0 0-1.172.059c-.222.14-.412.252-.585.353-.334.2-.589.355-.83.529-5.611 4.027-10.56 9.04-14.711 14.897-6.774 9.572-10.714 20.396-11.775 32.303l-.32-3.982-.037-.481c-.416-5.204-.846-10.585-1.197-15.877-.088-1.34-.345-2.644-.593-3.905-.48-2.424-.934-4.715-.208-7.114.165-.543.304-1.089.444-1.634.343-1.35 1.999-3.428 4.542-5.7l.096-.087c.938-.796 5.756-5.21 8.49-13.94 2.774-8.87 2.564-18.137 2.412-24.904l-.004-.18c-.204-9.303-1.208-16.313-3.256-22.733a43.278 43.278 0 0 0-.912-2.482c-.172-.442-.349-.9-.53-1.38-.15-.405-.507-.7-.926-.77l-.205-.018a1.2 1.2 0 0 0-.932.444l-1.989 2.427c-9.537 11.646-14.223 25.305-13.93 40.599.051 2.693.253 5.456.61 8.308a236.652 236.652 0 0 0-8.5-24.372 1.78 1.78 0 0 1-.116-.564l-.023-1.073c-.033-1.547-.068-3.148-.002-4.723.01-.261.179-.73.53-1.192.5-.66 1.054-1.306 1.628-1.978.978-1.14 1.988-2.316 2.788-3.66 2.577-4.321 3.788-9.426 3.807-16.068.035-7.818-1.169-16.046-3.793-25.895-1.434-5.372-3.598-12.352-7.629-18.68a18.46 18.46 0 0 0-.904-1.25 22.934 22.934 0 0 1-.458-.604c-.228-.307-.544-.486-1.053-.486-.407.03-.77.26-.972.62-5.06 9.142-7.58 18.909-7.699 29.858-.101 9.13 1.323 16.986 3.108 23.194a231.122 231.122 0 0 0-15.067-23.957l-.125-.173c-.124-.166-.176-.247-.168-.19a145.296 145.296 0 0 1-.748-6.152c.004-.026.036-.17.292-.599.362-.617.758-1.221 1.18-1.86.844-1.287 1.716-2.618 2.276-4.108 1.687-4.498 2.066-9.6 1.155-15.59-2-13.26-7.838-25.2-17.845-36.504-1.03-1.16-2.168-2.187-3.372-3.272l-.333-.302c-.47-.427-.954-.863-1.442-1.325a1.21 1.21 0 0 0-1.187-.28c-.407.13-.722.468-.819.888l-.218.96c-.15.638-.265 1.14-.35 1.645-1.348 8.049-1.25 16.67.301 26.358 1.538 9.608 4.604 17.895 9.306 25.094-7.052-8.32-13.912-15.306-21.081-21.497a.708.708 0 0 1-.083-.203c.56-4.832-.63-9.385-3.642-13.918-3.955-5.958-9.45-10.498-16.334-13.494-4.119-1.789-8.387-3.372-12.565-4.923-2.002-.744-4.004-1.486-6.065-2.28-2.071-.825-2.957-.972-3.438-.527-.619.577-.47 1.07-.2 1.966l.087.292c2.526 8.519 5.878 15.256 10.25 20.596 8.027 9.814 17.414 14.8 28.684 15.24.395.024.708.134.836.233 1.587 1.19 2.754 2.14 3.787 3.084a178.26 178.26 0 0 1 9.627 9.524c-4.68-2.911-10.399-4.225-16.84-3.899-3.525.178-7.024.695-10.407 1.196l-.13.02c-1 .146-1.995.292-2.987.432-2.175.295-4.366.68-6.302 1.02-.784.14-2.657.566-3.088 1.476a1.03 1.03 0 0 0 .032.961c.15.27.314.524.492.755 5.588 7.26 11.962 12.04 19.487 14.613 9.174 3.155 17.6 2.895 25.173-.816 1.158-.638 2.554-.961 4.15-.961 1.204 0 2.107.19 2.406.259.449.074 1.058.325 1.182.487 4.709 6.199 9.178 12.82 13.352 19.774-3.526-3.433-8.125-5.748-14.39-7.256-5.49-1.31-11.104-1.59-16.531-1.864l-1.818-.092c-1.702-.088-3.404-.196-5.157-.306l-2.94-.182c-.38 0-.742.184-.963.49-.245.33-.303.758-.16 1.142.119.321.334.887.444 1.076 5.725 9.586 12.447 16.217 20.548 20.272 7.92 3.96 15.075 5.008 22.293 3.28a12.162 12.162 0 0 1 2.803-.308c3.07 0 5.21.938 5.66 1.806a244.699 244.699 0 0 1 10.572 25.417c-3.206-4.425-7.689-8.019-13.365-10.707-5.638-2.665-11.509-5.1-17.285-7.497a892.959 892.959 0 0 1-7.457-3.114 1.206 1.206 0 0 0-1.689 1.105c0 .776 8.239 23.666 20.203 32.686 4.88 3.68 10.891 7.465 18.472 7.643 2.269.046 4.615.367 6.386 2.384.271.32.63.57 1.022.704.605.199.771.57 1.07 1.833 2.455 10.32 4.243 20.958 5.343 31.76a42.997 42.997 0 0 0-1.162-3.325c-2.678-6.798-7.185-12.747-14.182-18.722-3.607-3.092-7.385-6.086-11.038-8.984l-.173-.136c-1.664-1.32-3.324-2.635-4.98-3.966a45.043 45.043 0 0 1-1.06-.89l-1.033-.885a1.23 1.23 0 0 0-1.322-.158c-.433.22-.693.675-.66 1.161.051.73.092 1.421.13 2.084l.02.31c.083 1.365.16 2.652.298 3.923 1.294 12.38 4.971 22.714 11.24 31.595 3.88 5.49 9.446 12.2 18.126 15.373 2.112.776 3.644 1.952 5.286 4.062 1.548 1.975 1.836 3.78 1.801 6.051a250.841 250.841 0 0 1-2.019 28.199c-.28-2.573-.87-5.221-1.779-7.973-1.88-5.697-4.81-11.237-8.958-16.934-3.581-4.934-7.307-9.885-10.91-14.675l-.24-.32a2181.495 2181.495 0 0 1-4.247-5.655c-.261-.382-.638-.519-.855-.595a1.21 1.21 0 0 0-1.678.712l-.042.13c-.06.174-.107.328-.132.482-2.485 14.836-.96 28.128 4.66 40.64 2.745 6.117 6.426 13.044 12.917 18.027a20.2 20.2 0 0 1 6.588 8.987c.272.757.262 1.086.23 1.213-2.746 11.392-6.335 22.38-10.697 32.78 1.123-5.481 1.046-11.239-.236-17.203-1.82-8.454-4.95-16.647-7.74-23.663l-.836-2.101a6841.263 6841.263 0 0 1-3.986-10.037c-.173-.439-.589-.739-1.144-.766-.438 0-.84.25-1.049.655l-.439.826c-.192.362-.372.7-.526 1.048-5.614 12.681-7.51 25.68-5.633 38.638 1.342 9.265 3.616 15.9 7.373 21.512 1.945 2.9 3.792 6.133 4.128 10.107.08.94.042 1.589-.377 2.326a182.142 182.142 0 0 1-15.87 23.434l.066-.119c4.186-7.66 4.313-15.94 3.885-23.032-.369-6.08-1.065-12.15-1.734-18.02l-.039-.339c-.27-2.35-.538-4.7-.783-7.056-.141-1.334-.3-2.67-.462-4.024l-.215-1.834a1.195 1.195 0 0 0-.65-.932c-.66-.346-1.73.187-2.886 1.556-7.94 9.403-12.869 20.029-14.648 31.584-1.845 11.981-.845 22.234 3.062 31.345.104.242.102.737.1.903l-.21 5.242c-.03.377-.23.802-.393.96a140.231 140.231 0 0 1-26.028 19.824c4.434-4.013 7.622-9.249 9.689-15.884 2.29-7.354 3.465-15.009 4.604-22.43l.1-.66c.404-2.608.825-5.21 1.255-7.87l.485-3.007a1.201 1.201 0 0 0-.442-1.138 1.22 1.22 0 0 0-1.211-.167l-.424.176c-.452.185-.846.35-1.218.54-17.71 8.857-29.369 29.512-27.721 49.112.258 3.07-.022 5.953-.86 8.81-.078.26-.33.542-.431.59-8.412 3.55-16.41 6.142-24.457 7.92a1.203 1.203 0 0 0-.876.792c-.136.402-.054.838.222 1.167a19.354 19.354 0 0 1 2.263 3.321c.257.478.87.723 1.328.604 6.557-1.498 12.942-3.437 18.984-5.769.488-.196.861-.29 1.21-.232 1.345.179 2.765.455 4.342.847.325.08.595.23.6.216 3.444 6.875 9.363 11.253 18.102 13.384 1.9.457 3.861.794 5.827 1 2.058.218 4.352.329 6.819.329 3.417 0 5.853-.212 5.883-.214 7.574-.849 14.043-2.555 19.772-5.219 2.35-1.09 5.03-2.56 7.088-5.183a1.208 1.208 0 0 0-.15-1.65c-5.82-5.141-11.745-8.877-18.118-11.42-9.442-3.756-18.042-4.774-26.473-3.15a39.26 39.26 0 0 0-3.685.908c7.886-4.72 15.437-10.267 22.568-16.586.136-.125.361-.234.536-.265 1.167-.194 2.716-.433 4.302-.548.146 0 .333.071.354.079 4.296 4.814 9.832 7.154 16.923 7.154.361 0 .724-.008 1.086-.02 7.71-.249 15.46-2.37 23.04-6.307 5.51-2.877 11.253-6.227 15.91-11.223 1.032-1.111 1.954-2.367 2.768-3.476l.08-.108c.36-.489.724-.982 1.098-1.468.204-.262.29-.6.236-.942-.057-.328-.247-.62-.572-.832-.082-.045-2.054-1.103-3.854-1.801-12.055-4.664-24.225-5.141-35.835-1.396-3.8 1.223-7.378 3.06-10.86 5.597 6.44-7.496 12.405-15.714 17.82-24.556.058-.094.212-.346.262-.392.473-.302.957-.589 1.44-.871.867-.509 1.764-1.035 2.606-1.662.711-.531.911-.545 1.63-.082 1.016.66 2.197 1.004 3.227 1.274 6.026 1.545 12.101.775 18.82-2.384 6.138-2.88 10.857-7.435 15.045-11.926 6.09-6.55 10.07-12.46 12.525-18.6.516-1.29.884-2.622 1.266-4.015.158-.585.32-1.17.491-1.744a1.201 1.201 0 0 0-.75-1.485l-.504-.039c-2.483 0-24.64.364-37.599 12.953a67.112 67.112 0 0 0-7.654 8.838c5.127-10.87 9.474-22.326 12.978-34.217l.051-.174c.042-.146.106-.366.148-.426l3.39-4.66c.126-.186.141-.186.34-.186.088 0 .185.006.296.012l.724.044c2.522.156 4.007.134 5.229-.057 4.825-.763 9.182-3.196 13.315-7.44 9.668-9.928 16.323-22.313 20.344-37.86.431-1.666.552-3.347.68-5.131.058-.809.121-1.642.213-2.503a1.225 1.225 0 0 0-.433-1.065zM175.493 446.32c-8.04-1.777-16.037-4.368-24.451-7.92-.1-.047-.35-.33-.429-.583-.839-2.862-1.12-5.746-.86-8.816 1.647-19.601-10.012-40.255-27.719-49.11a16.363 16.363 0 0 0-1.221-.542l-.42-.174c-.399-.17-.885-.1-1.206.16a1.2 1.2 0 0 0-.45 1.145l.484 3.005c.43 2.66.851 5.262 1.255 7.867l.102.682c1.137 7.403 2.312 15.058 4.602 22.413 2.067 6.635 5.255 11.87 9.69 15.883a140.168 140.168 0 0 1-26.027-19.822c-.167-.16-.364-.586-.393-.937l-.212-5.245c-.002-.187-.004-.682.102-.927 3.905-9.109 4.905-19.361 3.06-31.342-1.78-11.555-6.707-22.182-14.648-31.585-.93-1.1-1.75-1.658-2.438-1.658a.955.955 0 0 0-.438.096 1.206 1.206 0 0 0-.661.94l-.213 1.83a278.742 278.742 0 0 0-.463 4.028 672.469 672.469 0 0 1-.783 7.055l-.039.34c-.67 5.87-1.366 11.94-1.734 18.018-.428 7.091-.3 15.372 3.885 23.033.023.038.042.08.065.118a182.193 182.193 0 0 1-15.87-23.432c-.418-.739-.454-1.387-.376-2.327.337-3.977 2.183-7.21 4.128-10.108 3.756-5.612 6.03-12.247 7.373-21.512 1.877-12.957-.019-25.955-5.633-38.636-.154-.35-.334-.687-.526-1.049l-.439-.828a1.229 1.229 0 0 0-1.132-.65 1.21 1.21 0 0 0-1.06.76 6584.073 6584.073 0 0 1-3.987 10.04l-.836 2.1c-2.79 7.017-5.92 15.21-7.74 23.663-1.282 5.965-1.36 11.722-.236 17.203-4.363-10.398-7.95-21.386-10.698-32.78-.03-.127-.04-.455.231-1.213a20.19 20.19 0 0 1 6.59-8.988c6.489-4.983 10.17-11.91 12.915-18.027 5.62-12.512 7.145-25.804 4.66-40.638a3.198 3.198 0 0 0-.13-.478l-.044-.134a1.218 1.218 0 0 0-.68-.742c-.318-.133-.718-.108-.965.014-.249.09-.625.229-.87.588-1.407 1.881-2.834 3.78-4.263 5.676l-.24.32c-3.603 4.79-7.33 9.742-10.91 14.674-4.15 5.699-7.079 11.238-8.959 16.936-.907 2.751-1.5 5.4-1.78 7.972a250.82 250.82 0 0 1-2.018-28.198c-.035-2.272.253-4.077 1.803-6.053 1.64-2.108 3.172-3.285 5.284-4.06 8.679-3.175 14.247-9.884 18.127-15.374 6.268-8.88 9.945-19.214 11.24-31.592.137-1.274.216-2.562.296-3.926l.02-.31c.039-.663.08-1.353.132-2.084a1.21 1.21 0 0 0-.661-1.161 1.228 1.228 0 0 0-1.323.16l-1.03.884c-.388.33-.72.614-1.064.89-1.654 1.33-3.314 2.646-4.977 3.966l-.174.137c-3.652 2.896-7.43 5.89-11.036 8.983-7 5.976-11.506 11.924-14.183 18.723a43.01 43.01 0 0 0-1.163 3.326c1.1-10.803 2.889-21.441 5.344-31.762.298-1.263.464-1.634 1.077-1.835a2.32 2.32 0 0 0 1.006-.693c1.78-2.026 4.126-2.347 6.397-2.393 7.58-.178 13.59-3.964 18.47-7.643 11.964-9.022 20.201-31.91 20.201-32.687a1.21 1.21 0 0 0-.543-1.009 1.224 1.224 0 0 0-1.134-.1 894.275 894.275 0 0 1-7.566 3.158c-5.678 2.357-11.549 4.793-17.187 7.456-5.675 2.688-10.159 6.283-13.364 10.707a244.201 244.201 0 0 1 10.563-25.402c.456-.883 2.598-1.821 5.67-1.821.999 0 1.967.107 2.803.308 7.216 1.732 14.372.682 22.292-3.28 8.102-4.055 14.824-10.686 20.55-20.276.109-.185.324-.751.44-1.068a1.202 1.202 0 0 0-.155-1.14c-.224-.31-.581-.494-1.037-.494h-.01l-2.86.18c-1.754.112-3.456.22-5.158.307l-1.818.092c-5.427.274-11.04.555-16.533 1.865-6.263 1.507-10.862 3.822-14.388 7.256 4.174-6.955 8.643-13.573 13.35-19.772.128-.164.735-.416 1.233-.499a10.795 10.795 0 0 1 2.356-.249c1.596 0 2.992.325 4.176.977 7.524 3.683 15.973 3.957 25.146.802 7.525-2.574 13.897-7.354 19.484-14.61.181-.234.345-.49.494-.758.17-.31.182-.65.032-.961-.432-.909-2.303-1.335-3.09-1.477-1.934-.338-4.125-.724-6.297-1.019-.995-.14-1.991-.285-2.99-.433l-.128-.02c-3.385-.5-6.884-1.017-10.409-1.195-6.44-.33-12.16.986-16.84 3.9a178.762 178.762 0 0 1 9.628-9.525c1.032-.943 2.2-1.894 3.792-3.087.123-.094.436-.205.82-.227 11.28-.442 20.667-5.428 28.694-15.24 4.372-5.342 7.725-12.08 10.25-20.598l.088-.292c.27-.896.418-1.389-.202-1.966-.478-.445-1.32-.313-3.51.555a533.641 533.641 0 0 1-6.042 2.27c-4.126 1.532-8.394 3.115-12.513 4.904-6.884 2.995-12.38 7.536-16.335 13.493-3.012 4.533-4.203 9.088-3.642 13.9a.949.949 0 0 1-.059.196c-7.185 6.211-14.053 13.203-21.106 21.526 4.703-7.2 7.768-15.488 9.306-25.096 1.551-9.687 1.65-18.31.302-26.358a27.162 27.162 0 0 0-.349-1.638l-.22-.972a1.226 1.226 0 0 0-.824-.883 1.226 1.226 0 0 0-1.179.279c-.492.464-.974.902-1.445 1.327l-.331.3c-1.206 1.087-2.344 2.114-3.374 3.274C93.047 68.845 87.21 80.785 85.21 94.043c-.91 5.992-.533 11.094 1.156 15.592.56 1.49 1.431 2.821 2.3 4.143.397.603.795 1.209 1.16 1.83.267.447.29.563.289.542a149.81 149.81 0 0 1-.724 6.119c-.013.03-.058.1-.2.289l-.116.16a231.121 231.121 0 0 0-15.067 23.958c1.787-6.208 3.21-14.065 3.109-23.194-.122-10.95-2.64-20.717-7.702-29.862-.2-.356-.563-.587-1.072-.622a1.2 1.2 0 0 0-.956.495c-.152.212-.306.41-.453.6a17.33 17.33 0 0 0-.905 1.251c-4.031 6.328-6.193 13.306-7.628 18.679-2.623 9.853-3.828 18.08-3.793 25.894.02 6.642 1.228 11.747 3.805 16.067.802 1.345 1.81 2.522 2.825 3.706.538.628 1.09 1.274 1.591 1.936.35.46.52.93.53 1.19.065 1.575.03 3.176-.003 4.724l-.024 1.07a1.722 1.722 0 0 1-.109.557 236.866 236.866 0 0 0-8.505 24.382 78.83 78.83 0 0 0 .609-8.309c.293-15.293-4.392-28.95-13.93-40.598l-1.988-2.425a1.194 1.194 0 0 0-.933-.446l-.199.017a1.206 1.206 0 0 0-.93.768c-.182.484-.36.94-.532 1.382a44.731 44.731 0 0 0-.913 2.484c-2.047 6.418-3.05 13.429-3.254 22.729l-.004.181c-.153 6.766-.363 16.035 2.413 24.905 2.732 8.731 7.55 13.144 8.485 13.936l.1.09c2.543 2.272 4.199 4.35 4.542 5.7.138.546.278 1.092.442 1.631.726 2.403.272 4.692-.217 7.163-.244 1.248-.497 2.537-.585 3.86-.35 5.291-.78 10.672-1.197 15.876l-.037.481-.32 3.982c-1.06-11.907-5-22.73-11.776-32.303-4.15-5.857-9.098-10.868-14.709-14.897-.242-.174-.497-.33-.837-.532-.165-.096-.357-.21-.59-.356-.35-.21-.8-.229-1.16-.052a1.21 1.21 0 0 0-.668.963c-.076.752-.164 1.481-.257 2.237-.188 1.55-.366 3.012-.373 4.515-.083 15.577 3.208 30.174 9.786 43.38 1.833 3.684 4.254 6.872 7.2 9.476 2.921 2.57 6.074 4.084 9.63 4.63.08.013.266.126.294.149.193.386.393.775.593 1.164.71 1.374 1.445 2.796 1.81 4.222.304 1.205.304 2.523.304 3.918 0 .512 0 1.027.017 1.532.341 12.066.79 16.269 2.718 27.05-1.176-3.206-2.654-6.42-4.561-9.513-7.723-12.515-17.535-21.01-29.996-25.968-.793-.32-1.588-.55-2.51-.818l-.184-.055c-.374-.11-.77-.226-1.194-.356a1.204 1.204 0 0 0-1.563 1.282c.092.855.155 1.688.213 2.5.128 1.781.249 3.463.68 5.128 4.02 15.548 10.676 27.932 20.344 37.86 4.133 4.245 8.49 6.678 13.317 7.44 1.217.19 2.706.214 5.226.058l.725-.044c.11-.006.208-.012.296-.012.199 0 .215 0 .353.204l3.376 4.64c.043.062.107.282.15.434l.05.166c3.504 11.893 7.851 23.347 12.978 34.218a67.044 67.044 0 0 0-7.654-8.837c-12.96-12.589-35.116-12.953-37.6-12.953l-.309.002-.195.036a1.2 1.2 0 0 0-.75 1.482c.172.578.334 1.163.519 1.85.354 1.29.722 2.622 1.238 3.91 2.455 6.144 6.434 12.052 12.526 18.603 4.186 4.49 8.905 9.045 15.042 11.925 6.72 3.16 12.79 3.93 18.824 2.383 1.026-.27 2.207-.612 3.222-1.271.723-.464.92-.449 1.631.08.843.628 1.738 1.154 2.608 1.664.481.282.966.567 1.418.853.072.061.226.314.283.407 5.415 8.842 11.38 17.06 17.821 24.556-3.484-2.537-7.06-4.373-10.86-5.596-11.611-3.746-23.782-3.27-35.835 1.397-1.8.698-3.771 1.755-3.903 1.83a1.223 1.223 0 0 0-.526.812c-.052.33.034.67.235.928.377.49.74.983 1.101 1.471l.08.107c.814 1.11 1.735 2.365 2.77 3.477 4.655 4.997 10.396 8.347 15.908 11.224 7.58 3.937 15.33 6.058 23.039 6.306.362.013.725.02 1.087.02 7.09 0 12.626-2.34 16.893-7.125a.858.858 0 0 1 .339-.11c1.63.117 3.18.355 4.338.548.182.032.407.142.548.268 7.128 6.319 14.677 11.864 22.563 16.584a40.291 40.291 0 0 0-3.686-.91c-8.428-1.623-17.029-.605-26.473 3.152-6.371 2.542-12.297 6.278-18.116 11.42a1.206 1.206 0 0 0-.151 1.649c2.059 2.623 4.738 4.092 7.087 5.182 5.73 2.666 12.199 4.373 19.782 5.221.022.001 2.459.213 5.876.213 2.466 0 4.761-.11 6.817-.329a45.168 45.168 0 0 0 5.829-1c8.737-2.13 14.658-6.51 18.05-13.308.06-.058.322-.21.652-.29a39.791 39.791 0 0 1 4.345-.85c.318-.05.714.036 1.214.237 6.034 2.328 12.419 4.267 18.965 5.762a1.2 1.2 0 0 0 1.342-.604 19.396 19.396 0 0 1 2.263-3.32 1.203 1.203 0 0 0-.656-1.951z"/><path d="M315.034 285.78l49.924-48.72a6.224 6.224 0 0 0-3.443-10.61l-68.987-10.03-30.858-62.589a6.21 6.21 0 0 0-11.14 0l-30.846 62.588-68.999 10.03a6.215 6.215 0 0 0-5.015 4.235 6.222 6.222 0 0 0 1.572 6.375l49.924 48.722-11.779 68.79a6.22 6.22 0 0 0 2.471 6.082 6.202 6.202 0 0 0 6.542.474l61.703-32.474 61.702 32.474a6.2 6.2 0 0 0 6.54-.474 6.216 6.216 0 0 0 2.472-6.082l-11.783-68.79z"/></g></svg>