<svg width="512" height="512" xmlns="http://www.w3.org/2000/svg"><path d="M364.876 402.935H256.893c-7.228 0-13.083-5.86-13.083-13.11 0-7.234 5.87-13.11 13.083-13.11h107.983c52.318 0 94.886-42.608 94.886-94.989 0-52.367-42.568-94.99-94.886-94.99H72.535L99.85 214.08a13.098 13.098 0 0 1 3.835 9.272c0 3.351-1.283 6.702-3.835 9.256-5.103 5.123-13.392 5.123-18.496 0l-49.677-49.68-.03-.014s0-.015-.014-.03c0 0-.015 0-.03-.014l-.03-.03c.015 0-.014-.015-.014-.015l-.015-.014a.032.032 0 0 1-.03-.03 13.082 13.082 0 0 1-3.274-5.831v-.015a13.598 13.598 0 0 1-.31-1.58v-.044c-.28-2.215 0-4.518.885-6.673a13.462 13.462 0 0 1 2.936-4.311l49.603-49.65c5.118-5.109 13.393-5.109 18.496 0 5.119 5.122 5.119 13.405 0 18.528L72.535 160.56h292.341c66.758 0 121.067 54.374 121.067 121.18 0 66.835-54.309 121.194-121.067 121.194z" fill="#010002" fill-rule="evenodd"/></svg>