<svg width="512" height="512" xmlns="http://www.w3.org/2000/svg"><g fill-rule="evenodd"><path d="M240.405 203.678L166.638 272c3.303 5.51 5.505 12.122 5.505 17.632 0 3.306 0 6.612-1.101 9.918l75.969 46.284v-133.34c-1.101 0-5.505-7.714-6.606-8.816zm37.951-1.06c-1.101 1.102-13.212 9.918-14.313 11.02v132.239l75.969-48.488c-1.101-3.306-2.202-5.51-2.202-7.714 0-4.408 1.1-8.816 2.202-13.224l-61.656-73.833z"/><path d="M256.485 33.662L34.083 298.141l221.3 180.727 222.402-179.625-221.3-265.58zM374.292 325.69c-9.91 0-18.717-4.408-25.323-11.02l-60.555 42.978c4.404 5.51 5.505 12.122 5.505 19.836 0 19.836-16.515 35.264-35.232 35.264-19.818 0-35.232-15.428-35.232-35.264 0-8.816 3.303-16.53 8.808-23.142l-70.464-37.467c-6.606 6.611-15.414 9.917-24.222 9.917-19.818 0-35.232-15.427-35.232-35.263s16.515-35.264 35.232-35.264c5.505 0 11.01 1.102 16.515 4.408l73.767-68.324c-5.505-6.612-7.707-15.428-7.707-23.142 0-22.04 17.616-38.57 39.636-38.57 22.02 0 39.636 17.632 39.636 38.57 0 7.714-2.202 14.326-6.606 20.938l62.757 73.834c5.505-4.408 13.212-6.612 20.919-6.612 19.817 0 35.231 15.428 35.231 35.264-2.202 16.53-18.717 33.06-37.433 33.06z"/></g></svg>