<svg width="512" height="512" xmlns="http://www.w3.org/2000/svg"><path d="M290.006 43.236c-115.168 0-208.864 92.405-211.65 207.446V256H16.903l93.113 101.015L200.537 256H131.31v-5.318c2.769-85.693 72.757-154.23 158.696-154.23 87.737 0 158.86 71.44 158.86 159.548s-71.123 159.549-158.86 159.549c-35.156 0-67.656-11.545-93.97-30.953L159.6 423.607c35.966 28.23 81.227 45.092 130.406 45.092 116.983 0 211.78-95.21 211.78-212.699 0-117.489-94.797-212.764-211.78-212.764zm-25.91 83.05V256c0 3.373.697 6.745 1.993 9.907 1.327 3.162 3.206 6.048 5.603 8.431l82.91 83.017c7.336-4.75 14.25-10.085 20.388-16.295l-59.074-59.117V126.286h-51.82z" fill-rule="evenodd"/></svg>