<svg width="512" height="512" xmlns="http://www.w3.org/2000/svg"><path d="M480.335 279.13c8.238-4.416 18.57-23.501 18.57-23.501s-21.611-1.91-29.85 2.521c-.81.443-1.466 1.1-2.23 1.62a222.653 222.653 0 0 0 2.17-23.425c5.166 1.39 12.609-.948 18.004-5.73 7.015-6.204 12.685-27.139 12.685-27.139s-21.458 3.118-28.473 9.322c-.871.764-1.467 1.726-2.232 2.597-.489-8.22-1.528-16.289-2.903-24.235 5.288.03 11.86-3.957 16.001-9.749 5.41-7.625 6.175-29.293 6.175-29.293s-20.205 7.885-25.615 15.51c-.566.795-.871 1.712-1.345 2.567-1.758-6.25-3.852-12.362-6.175-18.367 5.288-.871 11.111-6.051 14.03-12.637 3.852-8.527.428-29.935.428-29.935s-18.309 11.644-22.13 20.17c-.443.963-.596 2.002-.902 3.01a213.148 213.148 0 0 0-10.713-18.718c4.799-2.002 9.369-7.839 11.157-14.455 2.476-9.031-4.234-29.63-4.234-29.63s-16.261 14.35-18.722 23.38c-.32 1.146-.32 2.338-.458 3.515-5.029-6.372-10.378-12.47-16.079-18.23 4.356-2.95 7.612-9.856 7.871-16.855.337-9.336-10.881-27.887-10.881-27.887s-12.563 17.695-12.93 27.032c-.03 1.07 0 2.154.122 3.208-4.692-3.88-9.521-7.594-14.534-11.078-1.36-4.615-5.06-9.52-10.149-12.591-7.993-4.814-29.665-3.988-29.665-3.988s9.354 19.543 17.378 24.372c3.545 2.14 7.58 3.21 11.34 3.454 3.82 2.597 7.611 5.287 11.233 8.144-9.75 1.04-25.783 10.697-25.783 10.697s17.668 12.545 27.021 12.896c7.168.26 14.412-2.613 17.545-6.906 3.852 3.866 7.49 7.945 11.035 12.117-9.842-.978-27.143 4.615-27.143 4.615s14.336 16.243 23.383 18.703c7.046 1.91 14.825.642 18.784-3.01 2.873 4.416 5.517 8.94 8.008 13.584-9.323-2.842-28.213.123-28.213.123s11.63 18.29 20.159 22.11c6.358 2.858 13.908 2.996 18.477.444 1.544 3.988 2.935 8.053 4.219 12.163-8.513-4.691-27.893-5.44-27.893-5.44s7.917 20.186 15.544 25.595c5.746 4.08 13.235 5.7 18.248 3.973a215.35 215.35 0 0 1 2.216 16.503c-7.58-6.28-25.447-11.155-25.447-11.155s3.133 21.454 9.354 28.438c4.6 5.195 11.401 8.42 16.643 7.976-.198 5.562-.55 11.094-1.192 16.549-5.502-7.992-22.604-17.328-22.604-17.328s-1.91 21.606 2.537 29.827c3.561 6.632 10.118 11.4 15.604 11.491-1.207 4.83-2.49 9.658-4.05 14.349-3.912-8.68-20.861-20.675-20.861-20.675s-4.417 21.24-.948 29.92c2.506 6.402 7.764 11.735 12.777 13.126-2.048 4.324-4.142 8.587-6.48 12.713-2.216-9.23-16.66-24.174-16.66-24.174s-8.298 20.033-6.54 29.217c1.253 6.693 5.333 12.835 9.934 15.25-2.98 4.034-6.053 7.991-9.338 11.796-.153-9.428-11.738-27.29-11.738-27.29s-11.998 18.06-12.059 27.382c-.03 6.937 2.843 13.875 7.015 17.053-3.606 3.285-7.32 6.494-11.141 9.52.015-.183.076-.32.092-.504 1.115-9.276-8.498-28.728-8.498-28.728s-14 16.534-15.13 25.794c-.81 6.387 1.008 12.897 4.294 16.717-4.738 2.888-9.552 5.608-14.534 8.083.504-1.344.947-2.72 1.222-4.14 1.788-9.184-6.419-29.248-6.419-29.248s-15.16 15.51-16.934 24.694c-1.238 6.295.123 12.927 3.118 16.976-8.727 3.286-17.79 5.822-27.02 7.916-5.427-17.879-21.871-30.99-41.51-30.99-19.655 0-36.085 13.08-41.51 30.99-9.231-2.063-18.294-4.63-27.021-7.916 2.995-4.064 4.356-10.68 3.118-16.976-1.773-9.2-16.934-24.694-16.934-24.694s-8.223 20.064-6.42 29.247c.276 1.421.719 2.797 1.223 4.141-4.982-2.475-9.812-5.195-14.534-8.083 3.255-3.82 5.09-10.33 4.294-16.717-1.13-9.26-15.145-25.794-15.145-25.794s-9.598 19.422-8.483 28.728c.016.183.077.32.092.504-3.836-3.026-7.535-6.22-11.142-9.52 4.158-3.178 7.046-10.13 7-17.053-.046-9.352-12.058-27.383-12.058-27.383s-11.57 17.863-11.723 27.291c-3.27-3.805-6.358-7.777-9.338-11.796 4.6-2.415 8.666-8.557 9.934-15.25 1.773-9.214-6.54-29.217-6.54-29.217s-14.444 14.96-16.66 24.174c-2.323-4.14-4.432-8.389-6.465-12.713 5.029-1.406 10.255-6.724 12.777-13.126 3.454-8.71-.963-29.92-.963-29.92s-16.964 11.98-20.877 20.675c-1.559-4.722-2.842-9.52-4.035-14.349 5.472-.091 12.028-4.859 15.59-11.49 4.447-8.237 2.552-29.828 2.552-29.828s-17.133 9.336-22.62 17.328c-.641-5.44-.993-10.972-1.192-16.549 5.227.443 12.044-2.796 16.644-7.976 6.22-6.984 9.353-28.438 9.353-28.438s-17.85 4.875-25.446 11.155a195.592 195.592 0 0 1 2.216-16.503c4.997 1.727 12.501.107 18.248-3.973 7.626-5.394 15.528-25.595 15.528-25.595s-19.38.749-27.892 5.44a190.324 190.324 0 0 1 4.233-12.163c4.585 2.552 12.135 2.399 18.463-.443 8.543-3.805 20.174-22.111 20.174-22.111s-18.952-2.919-28.29-.077c2.507-4.645 5.166-9.183 8.024-13.584 3.974 3.637 11.753 4.92 18.798 3.01 9.033-2.46 23.384-18.703 23.384-18.703s-17.331-5.578-27.159-4.6c3.53-4.171 7.168-8.251 11.02-12.117 3.148 4.293 10.408 7.151 17.56 6.906 9.338-.336 27.021-12.896 27.021-12.896S145.14 73.209 135.39 72.17c3.638-2.857 7.413-5.531 11.249-8.129 3.744-.245 7.794-1.314 11.34-3.453 8.009-4.83 17.362-24.373 17.362-24.373s-21.657-.84-29.665 3.973c-5.09 3.056-8.788 7.976-10.163 12.576-5.013 3.484-9.843 7.212-14.52 11.078.092-1.07.138-2.139.107-3.209-.351-9.351-12.914-27.031-12.914-27.031s-11.25 18.535-10.898 27.887c.26 6.999 3.5 13.905 7.855 16.84a222.21 222.21 0 0 0-16.062 18.244c-.153-1.176-.153-2.368-.459-3.514-2.46-9.031-18.722-23.38-18.722-23.38s-6.725 20.614-4.249 29.63c1.804 6.631 6.373 12.469 11.188 14.47-3.867 6.036-7.459 12.255-10.714 18.719-.306-1.009-.458-2.048-.886-3.01-3.837-8.527-22.146-20.17-22.146-20.17s-3.424 21.392.428 29.919c2.95 6.57 8.773 11.766 14.03 12.637-2.308 5.99-4.402 12.102-6.174 18.352-.474-.856-.78-1.773-1.345-2.567-5.41-7.64-25.615-15.525-25.615-15.525s.764 21.667 6.19 29.292c4.126 5.777 10.713 9.78 16.001 9.75-1.406 7.945-2.43 16.014-2.919 24.234-.749-.87-1.375-1.833-2.231-2.597-7-6.22-28.458-9.306-28.458-9.306s5.655 20.934 12.67 27.138c5.395 4.783 12.838 7.121 18.004 5.73a215.134 215.134 0 0 0 2.17 23.426c-.764-.52-1.406-1.177-2.231-1.62-8.238-4.447-29.849-2.521-29.849-2.521s10.332 19.07 18.57 23.516c5.899 3.163 13.006 3.82 17.759 1.91 1.528 6.021 3.27 11.904 5.303 17.726-.688-.352-1.268-.856-1.987-1.13-8.696-3.439-29.925 1.008-29.925 1.008s12.487 17.71 21.198 21.133c6.756 2.69 14.611 2.277 18.967-.856 2.766 5.868 5.747 11.598 9.002 17.175-.688-.198-1.39-.412-2.094-.534-9.185-1.758-29.222 6.54-29.222 6.54s15.574 15.097 24.775 16.854c7.229 1.375 14.932-.55 18.569-4.538a220.514 220.514 0 0 0 12.471 15.51c-.596-.03-1.177-.123-1.773-.107-9.353.06-27.403 12.087-27.403 12.087s18.188 11.78 27.54 11.75c7.215-.06 14.383-3.285 17.302-7.762 4.218 3.881 8.543 7.61 13.052 11.14-.398.03-.795-.062-1.192-.016-9.293 1.146-25.814 15.174-25.814 15.174s19.425 9.611 28.702 8.465c7.688-.947 14.87-5.5 16.72-10.757 3.607 2.23 7.153 4.6 10.897 6.631-9.185 3.82-21.595 15.938-21.595 15.938s20.052 8.145 29.222 6.326c7.412-1.436 14.09-6.295 15.787-11.49 11.066 4.385 22.604 7.823 34.464 10.329 1.605 22.6 20.266 40.478 43.268 40.478 23.001 0 41.662-17.878 43.267-40.478 11.86-2.506 23.399-5.944 34.48-10.33 1.665 5.196 8.36 10.055 15.772 11.491 9.185 1.819 29.252-6.387 29.252-6.387s-12.41-12.118-21.595-15.938c3.744-2.047 7.29-4.355 10.897-6.631 1.849 5.24 9.047 9.825 16.72 10.757 9.277 1.146 28.717-8.465 28.717-8.465s-16.537-14.028-25.814-15.19c-.382-.03-.794.062-1.192.031 4.509-3.53 8.834-7.258 13.052-11.14 2.92 4.478 10.087 7.702 17.316 7.763 9.339.061 27.541-11.75 27.541-11.75s-18.05-12.026-27.403-12.087c-.596 0-1.177.076-1.773.107 4.402-4.951 8.543-10.147 12.471-15.51 3.638 3.988 11.34 5.929 18.57 4.538 9.2-1.742 24.774-16.854 24.774-16.854s-20.037-8.298-29.222-6.556a20.1 20.1 0 0 0-2.094.55c3.256-5.547 6.236-11.277 9.002-17.175 4.34 3.132 12.196 3.53 18.967.856 8.711-3.423 21.198-21.149 21.198-21.149s-21.229-4.431-29.925-.993c-.718.306-1.299.78-1.987 1.13 2.033-5.79 3.76-11.72 5.304-17.725 4.707 1.926 11.798 1.269 17.713-1.894z" fill-rule="evenodd"/></svg>