<svg width="512" height="512" xmlns="http://www.w3.org/2000/svg"><path d="M23 291.483h137.73v184.99H23zm327.958-47.532h137.73v232.521h-137.73zm-163.989-68.978h137.77v301.5h-137.77zm233.913-71.178l19.505 39.577 43.685 6.355-31.575 30.802 7.434 43.514-39.049-20.547-39.048 20.547 7.434-43.514-31.575-30.802 43.645-6.356zM256.594 35.217l19.525 39.596 43.685 6.357-31.575 30.821 7.454 43.474-39.069-20.528-39.069 20.528 7.434-43.474-31.575-30.821 43.665-6.357zM89.467 149.948l19.504 39.596 43.685 6.376-31.554 30.782 7.434 43.494-39.07-20.528-39.068 20.548 7.454-43.494-31.574-30.782 43.665-6.376z" fill="#010002" fill-rule="evenodd"/></svg>