<svg width="512" height="512" xmlns="http://www.w3.org/2000/svg"><path d="M141.299 224.909c5.2 4.6 6.9 12.1 4.2 18.5l-2.5 5.9c-3.8 9 1.1 19.3 10.5 22l6.2 1.8c6.7 1.9 11.5 7.9 11.8 14.9l.3 6.4c.5 9.8 9.4 16.9 19 15.3l6.3-1.1c6.9-1.2 13.8 2.1 17.1 8.3l3 5.6c4.7 8.6 15.8 11.2 23.8 5.5l5.2-3.7c5.7-4.1 13.3-4 19 .1l5.2 3.8c7.9 5.7 19.1 3.2 23.8-5.4l3.1-5.6c3.4-6.1 10.3-9.4 17.1-8.2l6.3 1.1c9.6 1.7 18.6-5.4 19.1-15.2l.3-6.4c.4-7 5.2-12.9 11.9-14.8l6.2-1.7c9.4-2.6 14.4-12.9 10.6-22l-2.5-5.9c-2.7-6.5-1-13.9 4.3-18.5l4.8-4.2c7.4-6.5 7.4-17.9.1-24.4l-4.8-4.3c-5.2-4.6-6.9-12.1-4.2-18.5l2.5-5.9c3.8-9-1.1-19.3-10.5-22l-6.2-1.8c-6.7-1.9-11.5-7.9-11.8-14.9l-.3-6.4c-.5-9.8-9.4-16.9-19-15.3l-6.3 1.1c-6.9 1.2-13.8-2.1-17.1-8.3l-3.1-5.6c-4.7-8.6-15.8-11.2-23.8-5.5l-5.2 3.7c-5.7 4.1-13.3 4-19-.1l-5.2-3.8c-7.9-5.7-19.1-3.2-23.8 5.4l-3.1 5.6c-3.4 6.1-10.3 9.4-17.1 8.2l-6.3-1.1c-9.6-1.7-18.6 5.4-19.1 15.2l-.3 6.4c-.4 7-5.2 12.9-11.9 14.8l-6.2 1.7c-9.4 2.6-14.4 12.9-10.7 22l2.5 5.9c2.7 6.5 1 13.9-4.3 18.5l-4.8 4.2c-7.4 6.5-7.4 17.9-.1 24.4l5 4.3zm114.8-90.4c41 0 74.3 33.2 74.3 74.3 0 41-33.2 74.3-74.3 74.3-41 0-74.3-33.2-74.3-74.3 0-41 33.3-74.3 74.3-74.3zm-29.5 94.4l-17-17.1 17.7-17.6 17 17.1 40.6-40.4 17.6 17.7-40.6 40.4-17.7 17.6-17.6-17.7zm164.8 11.7l-.3-.6.5-.5c8.7-7.7 13.7-18.7 13.8-30.3 0-11.6-4.9-22.7-13.6-30.4l-.5-.5.3-.6c1.1-2.5 1.9-5.2 2.4-7.9h103.2c3.4 0 5.3 3.9 3.2 6.6l-25 31.1c-.8 1-.8 2.4 0 3.4l24.9 30.3c2.2 2.6.3 6.6-3.1 6.6h-103.6c-.6-2.5-1.3-4.9-2.2-7.2zm-379.5.5l25-31.1c.8-1 .8-2.4 0-3.4l-24.9-30.3c-2.2-2.6-.3-6.6 3.1-6.6h103.5c.5 2.4 1.2 4.8 2.2 7.1l.3.6-.5.5c-8.7 7.7-13.7 18.7-13.8 30.3 0 11.6 4.9 22.7 13.6 30.4l.5.5-.3.6c-1.1 2.5-1.9 5.2-2.4 7.9h-103.2c-3.4.1-5.2-3.8-3.1-6.5zm105.6 149.3l-14.5 12.2 4.5 18.4c.9 3.5-2.9 6.2-6 4.3l-16.1-10-16.1 10c-3 1.9-6.8-.9-6-4.3l4.5-18.4-14.5-12.2c-2.7-2.3-1.3-6.8 2.3-7l18.9-1.4 7.2-17.6c1.3-3.3 6-3.3 7.4 0l7.2 17.6 18.9 1.4c3.6.3 5 4.7 2.3 7zm85.3 0l-14.5 12.2 4.5 18.4c.9 3.5-2.9 6.2-6 4.3l-16.1-10-16.1 10c-3 1.9-6.8-.9-6-4.3l4.5-18.4-14.5-12.2c-2.7-2.3-1.3-6.8 2.3-7l18.9-1.4 7.2-17.6c1.3-3.3 6-3.3 7.4 0l7.2 17.6 18.9 1.4c3.6.3 5.1 4.7 2.3 7zm85.4 0l-14.5 12.2 4.5 18.4c.9 3.5-2.9 6.2-6 4.3l-16.1-10-16.1 10c-3 1.9-6.8-.9-6-4.3l4.5-18.4-14.5-12.2c-2.7-2.3-1.3-6.8 2.3-7l18.9-1.4 7.2-17.6c1.3-3.3 6-3.3 7.4 0l7.2 17.6 18.9 1.4c3.5.3 5 4.7 2.3 7zm85.3 0l-14.5 12.2 4.5 18.4c.9 3.5-2.9 6.2-6 4.3l-16.1-10-16.1 10c-3 1.9-6.8-.9-6-4.3l4.5-18.4-14.5-12.2c-2.7-2.3-1.3-6.8 2.3-7l18.9-1.4 7.2-17.6c1.3-3.3 6-3.3 7.4 0l7.2 17.6 18.9 1.4c3.6.3 5 4.7 2.3 7zm85.3 0l-14.5 12.2 4.5 18.4c.9 3.5-2.9 6.2-6 4.3l-16.1-10-16.1 10c-3 1.9-6.8-.9-6-4.3l4.5-18.4-14.5-12.2c-2.7-2.3-1.3-6.8 2.3-7l18.9-1.4 7.2-17.6c1.3-3.3 6-3.3 7.4 0l7.2 17.6 18.9 1.4c3.6.3 5 4.7 2.3 7z" fill-rule="evenodd"/></svg>