<svg width="512" height="512" xmlns="http://www.w3.org/2000/svg"><path d="M495.703 185.817c2.16 2.554.295 6.484-3.043 6.484h-101.5c-.491-2.358-1.179-4.716-2.16-6.975l-.295-.59.491-.49a40.196 40.196 0 0 0 13.547-29.768c0-11.396-4.81-22.301-13.35-29.866l-.491-.393.294-.589c1.08-2.456 1.865-5.109 2.356-7.663h101.206c3.338 0 5.203 3.832 3.142 6.484l-24.541 30.553a2.662 2.662 0 0 0 0 3.34l24.344 29.473zm-372.137-1.179l.295-.59-.491-.49c-8.54-7.565-13.35-18.47-13.35-29.866s4.908-22.3 13.546-29.767l.491-.491-.294-.59c-.982-2.26-1.67-4.617-2.16-6.975h-101.5c-3.338 0-5.203 3.93-3.044 6.484l24.345 29.669a2.662 2.662 0 0 1 0 3.34l-24.541 30.553c-2.062 2.653-.196 6.484 3.141 6.484H121.21c.491-2.652 1.277-5.207 2.356-7.76zm76.47-30.553c0-31.143 25.326-56.39 56.345-56.39 31.118 0 56.346 25.346 56.346 56.39 0 31.143-25.326 56.39-56.346 56.39-31.118 0-56.345-25.247-56.345-56.39zm22.577 2.26l12.369 12.378 12.76 12.87 12.86-12.772 29.45-29.374-12.762-12.87-29.449 29.375-12.369-12.379-12.859 12.771zM192.87 54.762l6.184 1.08c6.773 1.18 13.546-2.063 16.786-8.056l3.043-5.501c4.614-8.449 15.608-10.905 23.363-5.305l5.104 3.635a16.064 16.064 0 0 0 18.651.098l5.105-3.635c7.853-5.6 18.749-3.045 23.363 5.403l2.944 5.502c3.24 5.993 10.013 9.333 16.786 8.154l6.185-1.08c9.423-1.67 18.258 5.403 18.65 15.03l.295 6.288c.295 6.877 5.007 12.771 11.583 14.638L357 92.782c9.227 2.653 14.037 12.772 10.307 21.613l-2.454 5.797c-2.65 6.287-.982 13.655 4.122 18.174l4.712 4.126c7.166 6.386 7.166 17.586-.098 23.971l-4.712 4.127c-5.104 4.519-6.871 11.887-4.22 18.174l2.453 5.797c3.73 8.841-1.178 18.96-10.405 21.514l-6.086 1.67c-6.577 1.867-11.289 7.663-11.681 14.54l-.295 6.288c-.49 9.628-9.325 16.603-18.75 14.933l-6.183-1.081c-6.774-1.179-13.547 2.063-16.786 8.056l-3.043 5.501c-4.614 8.45-15.608 10.905-23.363 5.305l-5.105-3.635a16.064 16.064 0 0 0-18.65-.098l-5.105 3.635c-7.853 5.6-18.75 3.046-23.363-5.403l-2.945-5.502c-3.24-5.992-10.013-9.333-16.786-8.154l-6.184 1.08c-9.424 1.671-18.259-5.402-18.651-15.03l-.295-6.288c-.294-6.877-5.006-12.771-11.583-14.638l-6.086-1.768c-9.227-2.652-14.037-12.771-10.307-21.613l2.454-5.796c2.65-6.288.981-13.656-4.123-18.175l-4.712-4.126c-7.166-6.386-7.166-17.586.098-23.971l4.712-4.126c5.105-4.52 6.872-11.888 4.221-18.175l-2.454-5.796c-3.73-8.842 1.178-18.961 10.405-21.515l6.086-1.67c6.577-1.867 11.29-7.663 11.682-14.54l.294-6.288c.491-9.726 9.326-16.7 18.75-14.932zm-14.627 99.322c0 43.128 35.045 78.2 78.138 78.2 43.094 0 78.138-35.072 78.138-78.2s-35.044-78.2-78.138-78.2c-43.093.098-78.138 35.17-78.138 78.2zm6.086 178.21l-24.54-1.768-9.326-22.89c-1.767-4.323-7.853-4.323-9.62 0l-9.325 22.89-24.541 1.768c-4.614.295-6.479 6.091-2.945 9.137l18.847 15.915-5.89 23.971c-1.08 4.52 3.829 8.056 7.755 5.6l20.91-12.968 20.908 12.968c3.926 2.456 8.835-1.08 7.755-5.6l-5.89-23.97 18.847-15.916c3.534-2.947 1.67-8.744-2.945-9.137zm100.716 49.023l-5.89-23.97 18.847-15.916c3.534-2.947 1.67-8.744-2.944-9.137l-24.541-1.768-9.326-22.89c-1.767-4.323-7.853-4.323-9.62 0l-9.325 22.89-24.541 1.768c-4.614.295-6.479 6.091-2.945 9.137l18.847 15.915-5.89 23.971c-1.08 4.52 3.829 8.056 7.755 5.6l20.91-12.968 20.908 12.968c3.927 2.456 8.933-1.08 7.755-5.6zm120.74-49.023l-24.54-1.768-9.326-22.89c-1.767-4.323-7.853-4.323-9.62 0l-9.325 22.89-24.54 1.768c-4.615.295-6.48 6.091-2.946 9.137l18.848 15.915-5.89 23.971c-1.08 4.52 3.828 8.056 7.755 5.6l20.908-12.968 20.91 12.968c3.926 2.456 8.834-1.08 7.754-5.6l-5.89-23.97 18.848-15.916c3.632-2.947 1.668-8.744-2.945-9.137zm-166.092 92.053l-24.54-1.768-9.326-22.89c-1.767-4.323-7.853-4.323-9.62 0l-9.325 22.89-24.541 1.768c-4.614.295-6.479 6.091-2.945 9.136l18.847 15.916-5.89 23.97c-1.08 4.52 3.829 8.056 7.755 5.6l20.91-12.967 20.908 12.967c3.926 2.456 8.835-1.08 7.755-5.6l-5.89-23.97 18.847-15.916c3.534-3.045 1.67-8.841-2.945-9.136zm110.729 0l-24.541-1.768-9.326-22.89c-1.767-4.323-7.853-4.323-9.62 0l-9.325 22.89-24.541 1.768c-4.614.295-6.479 6.091-2.945 9.136l18.847 15.916-5.89 23.97c-1.08 4.52 3.829 8.056 7.756 5.6l20.908-12.967 20.91 12.967c3.926 2.456 8.834-1.08 7.754-5.6l-5.89-23.97 18.848-15.916c3.533-3.045 1.668-8.841-2.945-9.136z" fill-rule="evenodd"/></svg>