<svg width="512" height="512" xmlns="http://www.w3.org/2000/svg"><path d="M256.5 229.063c-68.207 0-123.5 55.277-123.5 123.468C133 420.723 188.293 476 256.5 476S380 420.723 380 352.531c0-68.191-55.293-123.469-123.5-123.469zm42.403 176.95l-42.403-26.5-42.403 26.5 14.959-47.573-41.167-33.346h51.65l16.961-42.61 16.962 42.61h51.65l-41.168 33.346 14.959 47.573zM160.444 91.875v54.875c0 4.314 2.03 8.386 5.488 10.972l54.889 41.157a13.736 13.736 0 0 0 8.235 2.746h54.888a13.74 13.74 0 0 0 8.235-2.746l54.89-41.157a13.705 13.705 0 0 0 5.487-10.972V91.875C367.712 91.875 380 79.59 380 64.437 380 49.285 367.712 37 352.556 37H160.444C145.288 37 133 49.285 133 64.438c0 15.152 12.288 27.437 27.444 27.437zm137.223 0v41.156c0 7.576-6.144 13.719-13.723 13.719-7.578 0-13.722-6.143-13.722-13.719V91.875h27.445zm-54.89 0v41.156c0 7.576-6.143 13.719-13.721 13.719-7.579 0-13.723-6.143-13.723-13.719V91.875h27.445z" fill-rule="evenodd"/></svg>