<svg width="512" height="512" xmlns="http://www.w3.org/2000/svg"><path d="M372.25 219.383c-57-122.403-86.65-168.9-179.775-166.954-33.175.674-25.225-23.996-50.525-14.642-25.25 9.354-3.575 23.049-29.425 44.227-72.55 59.442-65.875 114.42-32.225 245.453 14.175 55.202-34.175 57.896-15.05 111.377 13.975 39.013 116.975 55.352 225.625 15.141 108.65-40.21 177.15-120.082 163.175-159.096-19.125-53.505-57.775-23.971-81.8-75.506zM279.1 421.009c-97.05 35.92-176.8 14.817-180.175 5.413-5.8-16.214 31.325-70.244 142.275-111.328 110.95-41.083 172.875-25.842 179.35-7.757 3.825 10.7-44.375 77.727-141.45 113.672zm-31.2-87.156c-50.725 18.783-85.975 40.26-108.825 59.592 16.075 14.568 46.175 18.11 76.15 7.01 38.175-14.094 61.65-46.547 52.375-72.44-.125-.324-.275-.573-.4-.897a474.817 474.817 0 0 0-19.3 6.735z" fill-rule="evenodd"/></svg>