<svg width="512" height="512" xmlns="http://www.w3.org/2000/svg"><path d="M421.813 415.867V96.82c0-32.987-26.796-59.821-59.74-59.821h-210.91c-32.942 0-59.738 26.834-59.738 59.821v319.046c0 32.987 26.796 59.819 59.738 59.819h210.912c32.942 0 59.74-26.834 59.74-59.82zm-145.608 19.94H236.91l39.295-62.257v62.257zm105.783-19.94c0 10.534-8.22 19.09-18.562 19.802v-98.365h-19.913v98.503h-13.744v-98.503h-19.91v98.503h-13.74v-98.503h-19.913v14.825l-7.165-4.535-55.501 87.92.462.293h-62.84c-10.982 0-19.913-8.94-19.913-19.94V314.49h250.736v101.376h.003zm0-121.317h-18.562v-85.138h-19.913v85.138h-13.744v-85.138h-19.91v85.138h-72.627v-85.138h-19.914v85.138h-13.743v-85.138H183.66v85.138h-13.738v-85.138H150.01v85.138h-18.76V190.27h250.735l.003 104.28zm0-124.22h-18.562V85.195h-19.913v85.135h-13.744V85.195h-19.91v85.135h-13.74V85.195h-19.913v85.135H169.922V85.195H150.01v85.135h-18.76V96.82c0-11.002 8.93-19.94 19.913-19.94h210.912c10.983 0 19.914 8.938 19.914 19.94v73.509z" fill-rule="evenodd"/></svg>