<svg width="512" height="512" xmlns="http://www.w3.org/2000/svg"><g fill-rule="evenodd"><path d="M400.276 366.929v-14.614h-11.851v-12.483l-18.01-33.796h18.921v-19.66l-47.597-58.285H173.815l-43.305 68.371c-7.408 6.029-12.247 15.12-12.247 25.41 0 18.025 14.551 32.67 32.5 32.855-12.076 4.85-20.648 16.657-20.648 30.471 0 10.032 4.6 18.923 11.695 24.96-16.729 1.486-29.93 15.443-29.93 32.583 0 18.14 14.723 32.883 32.822 32.883h237.34V461.01h-15.196v-36.538h15.196v-6.394h18.234v-14.614h-10.94V366.93h10.94zm-267.427-45.057c0-6.806 3.782-12.694 9.316-15.835h217.388v34.1h-208.47c-10.053.003-18.234-8.189-18.234-18.265zM352.26 461.01H144.702c-10.054 0-18.234-8.19-18.234-18.268 0-10.07 8.18-18.268 18.234-18.268H352.26l-.001 36.536zm22.49-57.545H162.934c-10.053 0-18.233-8.192-18.233-18.268 0-10.07 8.18-18.27 18.233-18.27H374.75v36.538z"/><path d="M349.474 130.16c-6.862 0-19.376-1.25-19.376-3.42 0-50.11-40.548-90.74-90.565-90.74-41.843 0-76.953 28.472-87.348 67.1-32.53 10.746-56.036 41.395-56.036 77.582 0 24.242 25.341 54.106 40.919 70.175l24.719-39.027H352.11l32.807 40.176c18.355-11.747 30.56-32.283 30.56-55.717-.002-36.523-29.554-66.129-66.003-66.129z"/></g></svg>