<svg width="512" height="512" xmlns="http://www.w3.org/2000/svg"><path d="M403.68 35H109.16v441.84h294.52V35zm-36.816 36.818v116.55h-21.78V105.87H330.36v82.499h-14.727v-82.5h-14.728v82.5H286.18v-82.5h-14.727v82.5h-95.715v-82.5H161.01v82.5h-15.033V71.818h220.888zM330.36 226.239v82.501h-14.726v-82.5h-14.729v82.501h-18.409l-47.625-63.348-.23.172V226.24h-14.725v82.501h-14.727v-82.502h-14.726v82.501h-14.725v-82.5H161.01v82.501h-15.033V203.098H366.87V308.74h-21.778v-82.5H330.36zm-95.718 43.353l29.43 39.15h-29.43v-39.15zm36.814 170.429h-35.699l35.699-62.602v62.602zm73.63 0v-89.865H330.36v89.865h-14.727v-89.865h-14.728v89.865H286.18v-89.865h-14.727v15.327l-7.658-4.367-44.996 78.905h-72.824V323.468h220.897v116.553h-21.786z" fill-rule="evenodd"/></svg>