<svg width="512" height="512" xmlns="http://www.w3.org/2000/svg"><path d="M177.182 359.071v15.858c0 2.146-.783 4.006-2.348 5.581-1.565 1.575-3.427 2.358-5.584 2.347h-15.864c-2.147 0-4.008-.782-5.584-2.347-1.575-1.564-2.358-3.425-2.347-5.581V359.07c0-2.146.782-4.006 2.347-5.581 1.566-1.575 3.427-2.358 5.584-2.347h15.864c2.147 0 4.008.782 5.584 2.347 1.576 1.564 2.358 3.425 2.348 5.581zm0-63.428V311.5c0 2.146-.783 4.007-2.348 5.582-1.565 1.575-3.427 2.357-5.584 2.347h-15.864c-2.147 0-4.008-.783-5.584-2.347-1.575-1.565-2.358-3.425-2.347-5.582v-15.857c0-2.146.782-4.007 2.347-5.582 1.566-1.575 3.427-2.357 5.584-2.347h15.864c2.147 0 4.008.783 5.584 2.347 1.576 1.565 2.358 3.425 2.348 5.582zm63.454 0V311.5c0 2.146-.782 4.007-2.347 5.582-1.566 1.575-3.427 2.357-5.584 2.347H216.84c-2.147 0-4.008-.783-5.584-2.347-1.576-1.565-2.358-3.425-2.348-5.582v-15.857c0-2.146.783-4.007 2.348-5.582 1.565-1.575 3.426-2.357 5.584-2.347h15.864c2.146 0 4.008.783 5.584 2.347 1.575 1.565 2.358 3.425 2.347 5.582zm-63.454-63.429v15.857c0 2.146-.783 4.007-2.348 5.582-1.565 1.575-3.427 2.358-5.584 2.347h-15.864c-2.147 0-4.008-.782-5.584-2.347-1.575-1.564-2.358-3.425-2.347-5.582v-15.857c0-2.146.782-4.006 2.347-5.581 1.566-1.576 3.427-2.358 5.584-2.347h15.864c2.147 0 4.008.782 5.584 2.347 1.576 1.564 2.358 3.425 2.348 5.581zm190.363 126.857v15.858c0 2.146-.782 4.006-2.347 5.581-1.566 1.575-3.427 2.358-5.584 2.347H343.75c-2.147 0-4.008-.782-5.584-2.347-1.576-1.564-2.358-3.425-2.348-5.581V359.07c0-2.146.783-4.006 2.348-5.581 1.565-1.575 3.427-2.358 5.584-2.347h15.864c2.147 0 4.008.782 5.584 2.347 1.575 1.564 2.358 3.425 2.347 5.581zm-63.454-63.428V311.5c0 2.146-.783 4.007-2.348 5.582-1.565 1.575-3.426 2.357-5.584 2.347h-15.864c-2.146 0-4.008-.783-5.584-2.347-1.575-1.565-2.358-3.425-2.347-5.582v-15.857c0-2.146.782-4.007 2.347-5.582 1.566-1.575 3.427-2.357 5.584-2.347h15.864c2.147 0 4.008.783 5.584 2.347 1.576 1.565 2.358 3.425 2.348 5.582zm-63.455-63.429v15.857c0 2.146-.782 4.007-2.347 5.582-1.566 1.575-3.427 2.358-5.584 2.347H216.84c-2.147 0-4.008-.782-5.584-2.347-1.576-1.564-2.358-3.425-2.348-5.582v-15.857c0-2.146.783-4.006 2.348-5.581 1.565-1.576 3.426-2.358 5.584-2.347h15.864c2.146 0 4.008.782 5.584 2.347 1.575 1.564 2.358 3.425 2.347 5.581zm-63.454-63.428v15.857c0 2.146-.783 4.006-2.348 5.582-1.565 1.575-3.427 2.357-5.584 2.346h-15.864c-2.147 0-4.008-.782-5.584-2.346-1.575-1.565-2.358-3.426-2.347-5.582v-15.857c0-2.146.782-4.007 2.347-5.582 1.566-1.575 3.427-2.357 5.584-2.347h15.864c2.147 0 4.008.782 5.584 2.347 1.576 1.565 2.358 3.425 2.348 5.582zm190.363 126.857V311.5c0 2.146-.782 4.007-2.347 5.582-1.566 1.575-3.427 2.357-5.584 2.347H343.75c-2.147 0-4.008-.783-5.584-2.347-1.576-1.565-2.358-3.425-2.348-5.582v-15.857c0-2.146.783-4.007 2.348-5.582 1.565-1.575 3.427-2.357 5.584-2.347h15.864c2.147 0 4.008.783 5.584 2.347 1.575 1.565 2.358 3.425 2.347 5.582zm-63.454-63.429v15.857c0 2.146-.783 4.007-2.348 5.582-1.565 1.575-3.426 2.358-5.584 2.347h-15.864c-2.146 0-4.008-.782-5.584-2.347-1.575-1.564-2.358-3.425-2.347-5.582v-15.857c0-2.146.782-4.006 2.347-5.581 1.566-1.576 3.427-2.358 5.584-2.347h15.864c2.147 0 4.008.782 5.584 2.347 1.576 1.564 2.358 3.425 2.348 5.581zm-63.455-63.428v15.857c0 2.146-.782 4.006-2.347 5.582-1.566 1.575-3.427 2.357-5.584 2.346H216.84c-2.147 0-4.008-.782-5.584-2.346-1.576-1.565-2.358-3.426-2.348-5.582v-15.857c0-2.146.783-4.007 2.348-5.582 1.565-1.575 3.426-2.357 5.584-2.347h15.864c2.146 0 4.008.782 5.584 2.347 1.575 1.565 2.358 3.425 2.347 5.582zm-63.454-63.429v15.857c0 2.146-.783 4.007-2.348 5.582-1.565 1.575-3.427 2.357-5.584 2.347h-15.864c-2.147 0-4.008-.782-5.584-2.347-1.575-1.565-2.358-3.425-2.347-5.582v-15.857c0-2.146.782-4.006 2.347-5.582 1.566-1.575 3.427-2.357 5.584-2.346h15.864c2.147 0 4.008.782 5.584 2.346 1.576 1.565 2.358 3.426 2.348 5.582zm190.363 126.857v15.857c0 2.146-.782 4.007-2.347 5.582-1.566 1.575-3.427 2.358-5.584 2.347H343.75c-2.147 0-4.008-.782-5.584-2.347-1.576-1.564-2.358-3.425-2.348-5.582v-15.857c0-2.146.783-4.006 2.348-5.581 1.565-1.576 3.427-2.358 5.584-2.347h15.864c2.147 0 4.008.782 5.584 2.347 1.575 1.564 2.358 3.425 2.347 5.581zm-63.454-63.428v15.857c0 2.146-.783 4.006-2.348 5.582-1.565 1.575-3.426 2.357-5.584 2.346h-15.864c-2.146 0-4.008-.782-5.584-2.346-1.575-1.565-2.358-3.426-2.347-5.582v-15.857c0-2.146.782-4.007 2.347-5.582 1.566-1.575 3.427-2.357 5.584-2.347h15.864c2.147 0 4.008.782 5.584 2.347 1.576 1.565 2.358 3.425 2.348 5.582zm-63.455-63.429v15.857c0 2.146-.782 4.007-2.347 5.582-1.566 1.575-3.427 2.357-5.584 2.347H216.84c-2.147 0-4.008-.782-5.584-2.347-1.576-1.565-2.358-3.425-2.348-5.582v-15.857c0-2.146.783-4.006 2.348-5.582 1.565-1.575 3.426-2.357 5.584-2.346h15.864c2.146 0 4.008.782 5.584 2.346 1.575 1.565 2.358 3.426 2.347 5.582zm126.91 63.429v15.857c0 2.146-.783 4.006-2.348 5.582-1.566 1.575-3.427 2.357-5.584 2.346H343.75c-2.147 0-4.008-.782-5.584-2.346-1.576-1.565-2.358-3.426-2.348-5.582v-15.857c0-2.146.783-4.007 2.348-5.582 1.565-1.575 3.427-2.357 5.584-2.347h15.864c2.147 0 4.008.782 5.584 2.347 1.575 1.565 2.358 3.425 2.347 5.582zm-63.455-63.429v15.857c0 2.146-.783 4.007-2.348 5.582-1.565 1.575-3.426 2.357-5.584 2.347h-15.864c-2.146 0-4.008-.782-5.584-2.347-1.575-1.565-2.358-3.425-2.347-5.582v-15.857c0-2.146.782-4.006 2.347-5.582 1.566-1.575 3.427-2.357 5.584-2.346h15.864c2.147 0 4.008.782 5.584 2.346 1.576 1.565 2.358 3.426 2.348 5.582zm63.454 0v15.857c0 2.146-.782 4.007-2.347 5.582-1.566 1.575-3.427 2.357-5.584 2.347H343.75c-2.147 0-4.008-.782-5.584-2.347-1.576-1.565-2.358-3.425-2.348-5.582v-15.857c0-2.146.783-4.006 2.348-5.582 1.565-1.575 3.427-2.357 5.584-2.346h15.864c2.147 0 4.008.782 5.584 2.346 1.575 1.565 2.358 3.426 2.347 5.582zm-63.454 340.929h95.182V65.714H113.727v380.572h95.182v-55.5c0-2.146.783-4.007 2.348-5.582 1.565-1.575 3.426-2.357 5.584-2.347h79.318c2.147 0 4.008.782 5.584 2.347 1.576 1.565 2.358 3.425 2.348 5.582v55.5zM431 49.857v412.286c0 4.292-1.57 8.008-4.712 11.147-3.14 3.14-6.858 4.71-11.152 4.71H97.864c-4.294 0-8.012-1.57-11.153-4.71-3.14-3.14-4.711-6.855-4.711-11.147V49.857c0-4.292 1.57-8.008 4.711-11.147C89.853 35.57 93.57 34 97.865 34h317.272c4.294 0 8.011 1.57 11.152 4.71C429.43 41.85 431 45.565 431 49.857z" fill-rule="evenodd"/></svg>