<svg width="512" height="512" xmlns="http://www.w3.org/2000/svg"><path d="M33.541 166.274L238.228 46.118l261.946 227.235-189.679 132.734-276.954-239.8v-.013zm196.676 64.73l59.219-39.22-4.407-5.578-60.389 39.627 5.59 5.17h-.013zm33.056-120.091l-136.484 81.266 53.365 47.81 134.827-84.766-51.708-44.31zm34.016 326.314c0 12.59 8.326 29.72 8.326 29.72L15.362 225.254s-6.248-4.157-6.248-24.26 14.877-25.523 14.877-25.523l281.611 235.68s-8.326 13.486-8.326 26.076h.013zm9.194-13.827c-2.262-3.17 2.434-6.302 2.434-6.302l182.05-123.484.157 9.235-180.142 121.946s-2.262 1.763-4.512-1.395h.013zm184.615-103.329s-176.801 121.13-178.866 122.103c-2.092.987-4.223.816-6.748-2.157-2.526-2.974 2.92-6.131 2.92-6.131l182.799-123.34-.105 9.525zm-179.8 130.023l191.507-127.247-.71 18.024s-185.26 122.945-187.6 123.419c-2.342.473-7.564-.54-7.564-6.131 0-5.605 4.367-8.065 4.367-8.065z" fill-rule="evenodd"/></svg>