<svg width="512" height="512" xmlns="http://www.w3.org/2000/svg"><path d="M80.38 36v439.916h30.808v-95.239h291.61v95.25h28.748V36H80.381zm322.417 328.227h-86.254v-64.755h-23.616v64.76h-9.24v-64.76H260.07v64.76h-8.214v-64.76h-23.615v64.76h-9.761v-64.76h-23.613v64.76h-9.241v-64.76h-23.615v64.76h-8.22v-64.76h-23.615v64.76h-18.99v-93.885h291.61v93.88zm0-110.32h-16.655l4.942-1.126-15.156-66.823-23.023 5.235 14.215 62.713h-14.215v-66.183h-23.616v66.184H219V187.43h-23.615v66.472h-9.239V187.43h-23.613v66.472h-8.219V187.43h-23.615v66.472h-19.505v-87.706h291.61v87.712h-.006zm0-104.162h-9.747V81.222h-23.626v68.523h-9.242V81.222h-23.615v68.523h-8.217V81.222h-23.61v68.523H187.517l15.25-3.47L187.61 79.45l-23.029 5.243 14.757 65.059h-14.757v-68.53h-23.615v68.523h-29.773V52.443h291.61v97.302h-.006z" fill-rule="evenodd"/></svg>