<svg width="512" height="512" xmlns="http://www.w3.org/2000/svg"><path d="M472.148 121.144l.3-.798L256.54 36 40.981 121.22l-.704-.279v.547l-.03.016.03.092V392.15l216.164 84.732 216.194-84.736v-271.2l-.487.2zm-215.81-68.563l73.231 26.228-199.631 77.507-67.624-26.675 194.024-77.06zm-7.602 405.187l-80.961-32.687-40.631-15.265-71.418-28.175V143.643l70.701 27.89v59.51l6.301-1.759 4.258 5.851 5.929-1.383 5.742 6.065 5.01-1.726 8.09 8.022v-60.647l6.292 2.485 80.687 31.824v237.993zm7.722-251.538l-78.937-31.144 194.684-78.904 80.292 32.71-196.039 77.338zm200.738 175.41l-193.022 76.128V219.776l193.004-76.138v237.997l.018.006z" fill-rule="evenodd"/></svg>