<svg width="512" height="512" xmlns="http://www.w3.org/2000/svg"><path d="M256 143.5c-62.128 0-112.5 50.372-112.5 112.5S193.872 368.5 256 368.5 368.5 318.128 368.5 256 318.128 143.5 256 143.5zm0 182.813V185.688c38.77 0 70.313 31.542 70.313 70.312 0 38.77-31.543 70.313-70.313 70.313zm0 70.312c15.54 0 28.125 12.586 28.125 28.125v28.125c0 15.54-12.586 28.125-28.125 28.125-15.54 0-28.125-12.586-28.125-28.125V424.75c0-15.54 12.586-28.125 28.125-28.125zm0-281.25c-15.54 0-28.125-12.586-28.125-28.125V59.125C227.875 43.585 240.461 31 256 31c15.54 0 28.125 12.586 28.125 28.125V87.25c0 15.54-12.586 28.125-28.125 28.125zm196.875 112.5c15.54 0 28.125 12.586 28.125 28.125 0 15.54-12.586 28.125-28.125 28.125H424.75c-15.54 0-28.125-12.586-28.125-28.125 0-15.54 12.586-28.125 28.125-28.125h28.125zM115.375 256c0 15.54-12.586 28.125-28.125 28.125H59.125C43.585 284.125 31 271.539 31 256c0-15.54 12.586-28.125 28.125-28.125H87.25c15.54 0 28.125 12.586 28.125 28.125zm279.83 99.436l19.884 19.884c10.983 10.983 10.983 28.786 0 39.77-10.983 10.982-28.786 10.982-39.769 0l-19.884-19.885c-10.983-10.983-10.983-28.786 0-39.77 10.983-10.982 28.786-10.982 39.769 0zm-278.41-198.872L96.911 136.68c-10.983-10.983-10.983-28.786 0-39.77 10.983-10.982 28.786-10.982 39.769 0l19.884 19.885c10.983 10.983 10.983 28.786 0 39.77-10.983 10.982-28.786 10.982-39.769 0zm278.41 0c-10.983 10.983-28.786 10.983-39.77 0-10.982-10.983-10.982-28.786 0-39.769l19.885-19.884c10.983-10.983 28.786-10.983 39.77 0 10.982 10.983 10.982 28.786 0 39.769l-19.885 19.884zm-278.41 198.872c10.983-10.983 28.786-10.983 39.77 0 10.982 10.983 10.982 28.786 0 39.769l-19.885 19.884c-10.983 10.983-28.786 10.983-39.77 0-10.982-10.983-10.982-28.786 0-39.769l19.885-19.884z" fill-rule="evenodd"/></svg>