<svg width="512" height="512" xmlns="http://www.w3.org/2000/svg"><path d="M431.925 385.77c-32.565 62.026-98.004 102.06-170.61 102.06-72.53 0-137.908-39.941-170.473-101.829-25.736-8.01-44.583-32.92-44.583-62.366 0-15.356 5.175-29.447 13.733-40.59v-84.991c0-47.411 23.991-70.422 60.527-81.118 19.248-48.769 100.66-88.109 177.13-73.385 71.865 13.844 134.152 62.335 156.104 113.682 2.812 5.926 4.928 12.547 6.303 19.893.155.71.402 1.42.556 2.13.155.849.093 1.482.217 2.284.726 5.17 1.22 10.588 1.22 16.514v84.945c8.558 11.127 13.734 25.264 13.734 40.62 0 29.17-18.477 53.894-43.843 62.135l-.015.016zm-18.492-87.6h-.061c-.124-18.026-3.662-45.652-9.826-64.727-13.069 17.594-31.622 33.49-32.688 34.4a5.043 5.043 0 0 1-3.244 1.189c-.865 0-1.715-.2-2.503-.648a4.926 4.926 0 0 1-2.41-5.186c4.125-22.1-4.68-34.385-9.686-39.386-29.861 29.756-75.665 34.309-100.877 34.309-14.8 0-24.717-1.451-25.134-1.513-1.993-.293-3.615-1.76-4.094-3.689a4.968 4.968 0 0 1 1.854-5.17c21.704-16.143 18.646-42.904 16.637-52.735-47.951 4.846-66.18 55.344-66.365 55.868a4.972 4.972 0 0 1-4.45 3.318c-1.05.062-2.07.093-3.09.093h-.015c-21.843 0-36.69-12.594-46.39-26.051-7.385 18.905-11.602 50.235-11.772 70.067-.248-.016-.464-.077-.696-.077-12.42 0-22.4 11.359-22.4 25.403 0 14.044 9.965 25.403 22.4 25.403 3.106 0 6.04-.71 8.729-1.99 20.283 58.77 77.025 101.119 143.993 101.119 66.891 0 123.54-42.272 143.9-100.95 2.534 1.158 5.269 1.806 8.173 1.806 12.42 0 22.415-11.405 22.415-25.45 0-14.044-9.964-25.403-22.4-25.403zm-84.579 13.01c-12.42 0-22.477-9.985-22.477-22.3 0-12.317 10.057-22.302 22.477-22.302 12.405 0 22.477 9.985 22.477 22.301 0 12.316-10.057 22.301-22.477 22.301zm-67.849 48.4c-13.795 0-24.98-4.446-24.98-9.909 0-5.463 11.185-9.908 24.98-9.908 13.796 0 24.965 4.445 24.965 9.908 0 5.463-11.185 9.908-24.965 9.908zm-67.833-48.4c-12.42 0-22.477-9.985-22.477-22.3 0-12.317 10.056-22.302 22.477-22.302 12.405 0 22.477 9.985 22.477 22.301 0 12.316-10.057 22.301-22.477 22.301z" fill-rule="evenodd"/></svg>