<svg width="512" height="512" xmlns="http://www.w3.org/2000/svg"><path d="M470.873 179.208c-2.026-15.221-2.312-41.437 11.837-50.24.253-.162.441-.395.663-.595 11.568-3.697 19.574-8.885 13.29-15.866L326.016 61.133 49.704 99.517s-31.641 4.518-28.815 53.636c1.535 26.733 9.926 39.862 17.265 46.323l-22.674 6.828c-6.293 6.98 1.71 12.17 13.28 15.862.22.206.406.437.663.599 14.14 8.81 13.868 35.023 11.834 50.247-50.8 14.412-32.564 19.109-32.564 19.109l11.143 2.694c-7.838 7.077-15.622 20.498-14.164 45.95C8.5 389.873 34.49 393.263 34.49 393.263l180.818 58.722 272.922-66.05s18.242-4.705-32.571-19.119c-2.043-15.2-2.327-41.41 11.846-50.242.26-.157.45-.395.661-.592 11.57-3.697 19.568-8.88 13.282-15.862l-11.863-3.579c7.912-4.767 19.795-17.225 21.657-49.585 1.285-22.26-4.527-35.295-11.254-42.97l23.448-5.67c.001.01 18.242-4.695-32.563-19.108zm-228.284-.63l45.896-9.424 155.1-31.847 23.108-4.748c-7.384 13.502-7.074 31.98-5.852 43.857.268 2.687.576 5.14.875 7.005l-25.293 6.284-195.763 48.659 1.93-59.786zM45.442 226.37l23.104 4.75L217.5 261.713l13.012 2.662 39.024 8.014 1.924 59.787-201.202-50.015-19.835-4.926c.291-1.868.6-4.318.88-7.012 1.214-11.868 1.53-30.351-5.86-43.854zm-8.977-75.581c-.28-13.065 2.05-22.513 6.76-27.316 2.997-3.066 6.534-3.704 8.96-3.704 1.282 0 2.205.178 2.267.178l119.057 38.781 59.398 19.35-1.948 60.204-166.638-46.68-8.793-2.46a5.328 5.328 0 0 0-1.1-.17c-.686-.049-17.161-1.564-17.963-38.183zm179.273 275.113L40.312 376.761a5.222 5.222 0 0 0-1.096-.173c-.699-.047-17.181-1.56-17.978-38.17-.284-13.082 2.058-22.521 6.758-27.328 3.005-3.067 6.543-3.705 8.964-3.705 1.285 0 2.205.172 2.272.172l178.443 58.14-1.937 60.205zm229.874-61.874c.276 2.696.584 5.145.884 7.013l-221.06 54.947 1.932-59.787 47.26-9.709 6.98 1.687 26.16-8.495 120.588-24.759 23.117-4.752c-7.391 13.501-7.085 31.987-5.861 43.855zm12.176-81.252a4.25 4.25 0 0 0-1.183.182l-16.672 4.664-158.75 44.476-1.94-60.204 52.083-16.973 126.115-41.095c.017-.008 6.635-1.476 11.492 3.46 4.702 4.802 7.035 14.25 6.76 27.315-.822 36.607-17.305 38.128-17.905 38.175z" fill-rule="evenodd"/></svg>