<svg width="512" height="512" xmlns="http://www.w3.org/2000/svg"><g fill-rule="evenodd"><path d="M198.233 307.483a7.286 7.286 0 0 0 7.283 7.283h29.134a7.286 7.286 0 0 0 7.283-7.283v-43.7a7.286 7.286 0 0 0-7.283-7.283h-29.133a7.286 7.286 0 0 0-7.283 7.283v43.7h-.001zm14.567-36.416h14.567V300.2H212.8v-29.133zm-7.283-43.7h29.133a7.286 7.286 0 0 0 7.283-7.283v-43.7a7.286 7.286 0 0 0-7.283-7.283h-29.133a7.286 7.286 0 0 0-7.283 7.283v43.7a7.285 7.285 0 0 0 7.283 7.283zm7.283-43.7h14.567V212.8H212.8v-29.133z"/><path d="M151.001 175.342l105.499-63.3 105.499 63.3a7.238 7.238 0 0 0 3.743 1.041 7.27 7.27 0 0 0 6.25-3.533 7.28 7.28 0 0 0-2.49-9.993l-105.719-63.43v-46.86H300.2v14.567h-21.85a7.286 7.286 0 0 0-7.283 7.283 7.286 7.286 0 0 0 7.283 7.283h29.133a7.286 7.286 0 0 0 7.283-7.283V45.283A7.286 7.286 0 0 0 307.483 38H256.5a7.286 7.286 0 0 0-7.283 7.283v54.145L143.5 162.858a7.279 7.279 0 0 0-2.49 9.993c2.06 3.445 6.546 4.567 9.991 2.49zm-32.884 139.425a7.286 7.286 0 0 0 7.283-7.283v-43.7a7.286 7.286 0 0 0-7.283-7.283H88.983a7.286 7.286 0 0 0-7.283 7.283v14.566a7.286 7.286 0 0 0 7.283 7.283 7.286 7.286 0 0 0 7.283-7.283v-7.283h14.567v36.417a7.286 7.286 0 0 0 7.284 7.283zM169.1 409.45V198.233a7.286 7.286 0 0 0-7.283-7.283 7.286 7.286 0 0 0-7.283 7.283V409.45a7.286 7.286 0 0 0 7.283 7.283 7.286 7.286 0 0 0 7.283-7.283z"/><path d="M132.683 445.867h247.633a7.286 7.286 0 0 0 7.283-7.283 7.286 7.286 0 0 0-7.283-7.283h-65.55v-72.833h7.283a7.286 7.286 0 0 0 7.283-7.283 7.286 7.286 0 0 0-7.283-7.283H190.95a7.286 7.286 0 0 0-7.283 7.283 7.286 7.286 0 0 0 7.283 7.283h7.283V431.3h-65.55a7.286 7.286 0 0 0-7.283 7.283 7.287 7.287 0 0 0 7.283 7.284zm131.1-43.7a7.286 7.286 0 0 0 7.283-7.283 7.286 7.286 0 0 0-7.283-7.283v-29.133H300.2V431.3h-36.417v-29.133zm-50.983-43.7h36.417V387.6a7.286 7.286 0 0 0-7.283 7.283 7.286 7.286 0 0 0 7.283 7.283V431.3H212.8v-72.833zm211.217-7.284h-29.133a7.286 7.286 0 0 0-7.283 7.283v43.7a7.286 7.286 0 0 0 7.283 7.283h29.133a7.286 7.286 0 0 0 7.283-7.283v-43.7a7.286 7.286 0 0 0-7.283-7.283zm-7.284 43.7h-14.567V365.75h14.567v29.133zm7.284-131.1h-29.133a7.286 7.286 0 0 0-7.283 7.283v43.7a7.286 7.286 0 0 0 7.283 7.283h29.133a7.286 7.286 0 0 0 7.283-7.283v-43.7a7.286 7.286 0 0 0-7.283-7.283zm-7.284 43.7h-14.567V278.35h14.567v29.133zm-7.283 152.95h-305.9a7.286 7.286 0 0 0-7.283 7.283A7.287 7.287 0 0 0 103.55 475h305.9a7.286 7.286 0 0 0 7.283-7.283 7.287 7.287 0 0 0-7.283-7.284z"/><path d="M467.717 198.233a7.286 7.286 0 0 0-7.283 7.283v7.283h-80.117a7.286 7.286 0 0 0-7.283 7.283 7.286 7.286 0 0 0 7.283 7.283h80.117v240.35a7.286 7.286 0 0 0 7.283 7.283 7.286 7.286 0 0 0 7.283-7.283v-262.2a7.286 7.286 0 0 0-7.283-7.282zm-196.65 109.25a7.286 7.286 0 0 0 7.283 7.283h29.133a7.286 7.286 0 0 0 7.283-7.283v-43.7a7.286 7.286 0 0 0-7.283-7.283H278.35a7.286 7.286 0 0 0-7.283 7.283v43.7zm14.566-36.416H300.2V300.2h-14.567v-29.133zm-174.8 123.816c0-.946-.415-94.683-36.417-94.683C38.415 300.2 38 393.937 38 394.883c0 17.59 12.535 32.295 29.133 35.681v37.153A7.286 7.286 0 0 0 74.416 475a7.286 7.286 0 0 0 7.283-7.283v-37.153c16.6-3.386 29.134-18.092 29.134-35.681zm-36.416 21.85c-12.047 0-21.85-9.803-21.85-21.85 0-36.285 9.745-80.117 21.85-80.117 12.105 0 21.85 43.832 21.85 80.117 0 12.047-9.804 21.85-21.85 21.85zm284.05-7.283v-218.5a7.286 7.286 0 0 0-7.283-7.283 7.286 7.286 0 0 0-7.283 7.283v218.5a7.286 7.286 0 0 0 7.283 7.283 7.286 7.286 0 0 0 7.283-7.283zM278.35 227.367h29.133a7.286 7.286 0 0 0 7.283-7.283v-43.7a7.286 7.286 0 0 0-7.283-7.283H278.35a7.286 7.286 0 0 0-7.283 7.283v43.7a7.286 7.286 0 0 0 7.283 7.283zm7.283-43.7H300.2V212.8h-14.567v-29.133zm-240.35 109.25a7.286 7.286 0 0 0 7.283-7.283v-58.267h80.117a7.286 7.286 0 0 0 7.283-7.283 7.286 7.286 0 0 0-7.283-7.283H52.567v-7.283a7.286 7.286 0 0 0-7.283-7.283A7.285 7.285 0 0 0 38 205.517v80.117a7.286 7.286 0 0 0 7.283 7.283z"/></g></svg>