<svg width="512" height="512" xmlns="http://www.w3.org/2000/svg"><path d="M285.013 475.793c-.405 0-.809-.033-1.213-.099-.005 0-.018 0-.02-.003-.013-.002-.02-.005-.028-.005-.01.01-.018-.002-.025-.005-.003.003-.013-.002-.023-.002h-.003l-.12-.023-255.895-48.885a7.587 7.587 0 0 1-6.16-7.453V102.541a7.58 7.58 0 0 1 1.009-3.942v-.003c.002-.005.005-.012.007-.012v-.005c.033-.056.069-.117.104-.172l.005-.01c.005-.006.005-.013.008-.013 0-.003 0-.005.002-.005a7.55 7.55 0 0 1 4.548-3.346l220.665-56.899a7.69 7.69 0 0 1 2.822-.182l67.236 8.317c.134.015.267.03.401.05l78.835 9.754c.114.01.228.025.341.043l89.007 11.01a7.556 7.556 0 0 1 5.235 3.116 7.57 7.57 0 0 1 1.415 4.513v315.903a7.592 7.592 0 0 1-4.848 7.078l-200.541 77.536a6.57 6.57 0 0 1-.569.197c-.005.002-.007-.003-.02.005a7.296 7.296 0 0 1-1.516.29c-.008 0-.015.006-.023 0-.007 0-.012 0-.022.003-.008.003-.018.005-.023.003a.035.035 0 0 0-.023 0c-.002.018-.013.002-.023.002a7.93 7.93 0 0 1-.545.02zm-248.324-62.75l240.746 45.992V147.682l-75.757-11.48v125.49a7.586 7.586 0 0 1-2.648 5.76 7.605 7.605 0 0 1-6.097 1.738l-86.662-13.486a7.588 7.588 0 0 1-6.415-7.498V120.773l-63.165-9.57v301.84h-.002zm255.903-266.408v310.508L478 385.456V85.16l-185.407 61.476zm-177.579 95.073l71.503 11.123V133.905l-71.265-10.798-.238.071v118.53zM227.578 124.78l56.775 8.6 166.884-55.333-54.122-6.694-169.537 53.427zm-78.625-11.915l44.539 6.75L360.866 66.87l-43-5.32-168.913 51.315zm-81.968-12.419l47.144 7.144 166.65-50.628-30.515-3.775-183.279 47.26z" fill-rule="evenodd"/></svg>