<svg width="512" height="512" xmlns="http://www.w3.org/2000/svg"><path d="M491.975 100.836c-6.124-4.91-14.114-6.59-22.492-4.723l-189.93 42.188c-12.606 2.8-33.825 2.524-46.34-.597L43.18 90.33l188.275-39.255c12.71-2.652 34.172-2.597 46.876.118l143.942 30.766c3.26.7 6.481-1.375 7.177-4.64a6.035 6.035 0 0 0-4.646-7.17L280.863 39.38c-14.295-3.058-37.57-3.115-51.876-.133L39.572 78.743c-3.686.768-14.904 3.108-15.065 11.225-.156 8.117 10.963 10.89 14.617 11.8l191.158 47.66c14.26 3.552 37.539 3.858 51.897.666l189.932-42.19c4.722-1.045 9.093-.21 12.3 2.357 3.206 2.57 4.974 6.65 4.974 11.487v260.605c0 11.146-9.112 22.994-19.893 25.865l-74.569 19.858v-69.4h23.848c4.01 0 7.175-1.755 8.673-4.81 1.5-3.059.952-6.628-1.508-9.795l-45.682-58.89c-2.153-2.774-5.297-4.308-8.57-4.327-3.3.025-6.4 1.651-8.518 4.464l-44.12 58.767c-2.394 3.189-2.894 6.762-1.373 9.805 1.524 3.043 4.687 4.789 8.676 4.789h22.135v81.628l-69.457 19.514c-12.352 3.336-33.217 3.336-45.57.002L42.983 408.452c-10.784-2.909-19.892-14.793-19.892-25.95V139.019a6.042 6.042 0 0 0-6.045-6.039A6.042 6.042 0 0 0 11 139.02v243.485c0 16.73 12.664 33.25 28.83 37.612l190.474 51.372c7.261 1.962 16.574 2.94 25.903 2.94 9.354 0 18.723-.985 26.035-2.96l74.078-20.81c3.069-.863 4.381-3.764 4.26-7.018v-91.005a6.043 6.043 0 0 0-6.049-6.04l-22.251-.002 39.503-52.612 40.815 52.615h-23.72a6.043 6.043 0 0 0-6.046 6.04v83.092a6.043 6.043 0 0 0 6.046 6.04c.937 0 1.823-.064 2.344-.203l81.384-21.672c16.187-4.313 28.873-20.802 28.873-37.54V121.75c0-8.577-3.377-16.002-9.504-20.914z" fill-rule="evenodd"/></svg>