<svg width="512" height="512" xmlns="http://www.w3.org/2000/svg"><path d="M412.421 100.579C370.774 58.932 315.401 36 256.5 36c-58.901 0-114.274 22.932-155.921 64.579C58.932 142.226 36 197.599 36 256.5c0 58.901 22.932 114.274 64.579 155.921C142.226 454.068 197.599 477 256.5 477c58.901 0 114.274-22.932 155.921-64.579C454.068 370.774 477 315.401 477 256.5c0-58.901-22.932-114.274-64.579-155.921zm9.454 155.921c0 35.666-11.356 68.727-30.622 95.766l-230.519-230.52c27.039-19.279 60.1-30.621 95.766-30.621 91.19 0 165.375 74.184 165.375 165.375zm-330.75 0c0-35.666 11.356-68.727 30.622-95.766l230.519 230.52c-27.039 19.279-60.1 30.621-95.766 30.621-91.19 0-165.375-74.184-165.375-165.375z" fill-rule="evenodd"/></svg>