<svg width="512" height="512" xmlns="http://www.w3.org/2000/svg"><path d="M463.6 128.215L259.495 37.723a8.397 8.397 0 0 0-6.818 0L48.574 128.215c-3.465 1.536-4.942 4.692-4.942 8.706v235.623a8.162 8.162 0 0 0 4.77 7.425l204.29 93.376a8.163 8.163 0 0 0 3.394.74c1.299 0 2.214-.146 3.386-.755.002.005 204.3-93.362 204.3-93.362a8.169 8.169 0 0 0 4.77-7.425V136.92c0-3.802-1.476-7.17-4.942-8.706zm-296.234 56.01a8.163 8.163 0 0 0-4.622 7.354v79.655L122.85 252.41v-78.825l192.434-92.722 34.683 15.377-182.6 87.987zm88.721-129.608l39.606 17.56-176.91 85.244-46.558-21.282 183.862-81.522zm-8.162 398.595L59.96 367.298V148.485l46.56 21.282v87.816a8.159 8.159 0 0 0 4.682 7.383l56.224 26.535a8.147 8.147 0 0 0 7.852-.486 8.17 8.17 0 0 0 3.794-6.898v-81.19l68.853 31.472v218.813zm8.162-233.032l-64.519-29.492 177.988-85.76 70.393 31.211-183.862 84.04zm196.127 147.118l-187.962 85.915V234.4l187.962-85.916v218.814z" fill-rule="evenodd"/></svg>