<svg width="512" height="512" xmlns="http://www.w3.org/2000/svg"><path d="M335.273 256.022l134.721 134.722c8.752 8.751 8.752 22.962 0 31.713l-47.537 47.537c-8.751 8.752-22.94 8.752-31.713 0L256 335.273 121.256 469.994c-8.751 8.752-22.94 8.752-31.691 0l-47.56-47.537c-8.75-8.751-8.75-22.94 0-31.713L176.75 256.022 42.006 121.278c-8.752-8.751-8.752-22.961 0-31.713l47.581-47.537c8.752-8.752 22.94-8.752 31.691 0L256 176.772 390.744 42.028c8.751-8.752 22.94-8.752 31.713 0l47.537 47.559c8.752 8.752 8.752 22.94 0 31.713L335.273 256.023z" fill-rule="evenodd"/></svg>