<svg width="512" height="512" xmlns="http://www.w3.org/2000/svg"><path d="M444.571 476H67.43C50.08 476 36 461.92 36 444.571v-330c0-17.348 14.08-31.428 31.429-31.428h31.428v15.714C98.857 124.896 119.961 146 146 146s47.143-21.104 47.143-47.143V83.143h125.714v15.714c0 26.039 21.12 47.143 47.143 47.143s47.143-21.104 47.143-47.143V83.143h31.428c17.349 0 31.429 14.08 31.429 31.428v330C476 461.92 461.92 476 444.571 476zm0-282.857H67.43V444.57h377.14V193.143zM209.941 316.17c3.096-4.934 4.652-10.151 4.652-15.604 0-12.147-6.537-18.229-19.612-18.229-11.361 0-22.22 4.51-32.591 13.53V270.27c11.471-7.433 24.436-11.142 38.861-11.142 13.499 0 24.043 3.394 31.633 10.167s11.377 15.95 11.377 27.485c0 15.4-9.24 31.334-27.72 47.787l-27.17 24.121v.55h53.586v24.122h-86.916v-22.645l37.84-36.19c7.606-7.291 12.965-13.404 16.06-18.354zm106.355 52.439c4.148-3.19 6.223-7.638 6.223-13.358 0-5.892-2.562-10.434-7.685-13.624-5.123-3.19-12.163-4.793-21.135-4.793h-11.88v-22.283h10.952c17.192 0 25.788-5.704 25.788-17.128 0-10.749-6.6-16.107-19.8-16.107-8.832 0-17.428 2.86-25.788 8.564v-23.76c9.272-4.667 20.068-6.993 32.403-6.993 13.499 0 24.012 3.033 31.539 9.114 7.527 6.082 11.283 13.97 11.283 23.666 0 17.254-8.753 28.05-26.243 32.403v.456c9.334 1.163 16.688 4.557 22.094 10.167 5.406 5.61 8.109 12.508 8.109 20.664 0 12.336-4.51 22.094-13.53 29.276-9.02 7.181-21.482 10.78-37.385 10.78-13.624 0-24.702-2.216-33.235-6.632v-25.315c8.831 6.443 19.155 9.664 30.941 9.664 7.417.031 13.2-1.571 17.349-4.761zm49.217-238.323c-17.097 0-30.942-13.845-30.942-30.942V66.941c0-17.097 13.845-30.941 30.942-30.941s30.941 13.844 30.941 30.941v32.403c0 17.097-13.844 30.942-30.941 30.942zm-220 0c-17.097 0-30.942-13.845-30.942-30.942V66.941c0-17.097 13.845-30.941 30.942-30.941s30.941 13.844 30.941 30.941v32.403c0 17.097-13.86 30.942-30.941 30.942z" fill-rule="evenodd"/></svg>