<svg width="512" height="512" xmlns="http://www.w3.org/2000/svg"><path d="M9 47.488V468.81h493.76V47.488H9zm423.538 74.952h55.954v-2.271h-55.954V61.116h56.594v61.401l-51.14 59.671a23.998 23.998 0 0 0-5.454-4.72V122.44zm0 68.138h.2c1.072 2.013 1.735 4.27 1.735 6.71 0 2.585-.736 4.978-1.94 7.077l.005-13.787zm0 26.529c6.599-4.161 11.027-11.46 11.027-19.82 0-2.348-.455-4.569-1.1-6.709h46.036v-2.27h-46.74c-.658-1.586-1.543-3.035-2.52-4.416l1.88 1.612 48.006-56.018v119.033l-6.789 7.926h-49.8v-39.338zm0 41.61h47.852l-38.973 45.475a23.907 23.907 0 0 0-8.879-5.392v-40.083zm0 49.968c4.178 2.521 7.008 7.064 7.008 12.283 0 1.254-.214 2.453-.514 3.616h-6.498l.004-15.9zm0 18.17h5.722a14.417 14.417 0 0 1-5.722 6.396v-6.396zM396.64 197.192l-32.224 5.506v-12.12h33.305c-.63 2.113-1.071 4.307-1.08 6.614zM306 190.578h56.148v12.506l-47.292 8.081c.068-.736.195-1.449.195-2.203 0-7.486-3.583-14.077-9.051-18.384zm-9.7-129.462h65.848v59.053H296.3V61.116zm0 61.324h65.848v65.867h-59.654c-1.939-1.031-3.978-1.885-6.194-2.344V122.44zm0 72.994c5.608 1.963 9.668 7.255 9.668 13.528 0 6.273-4.06 11.561-9.668 13.528v-27.056zm0 36.523c8.392-1.722 15.09-7.959 17.62-16.022l48.228-8.24v48.75H296.3v-24.488zm23.015 94.898h42.838v.54l-42.225 7.214c.055-.658.2-1.29.2-1.971-.005-2.004-.332-3.92-.813-5.783zm45.104 0h.89l-.89.15v-.15zm-68.12-68.138h65.85v65.867h-43.542c-3.311-8.972-11.849-15.413-21.948-15.413-.118 0-.237.036-.36.036v-50.49zm0 59.58c.123 0 .242-.036.36-.036 4.945 0 9.318 2.512 11.902 6.327H296.3v-6.291zm0 8.558h13.502a14.169 14.169 0 0 1 1.235 5.783c0 7.931-6.453 14.39-14.382 14.39-.123 0-.24-.036-.359-.036l.005-20.137zM160.062 61.115h65.849v59.054H160.06V61.116zm0 61.325h65.849v50.532l-22.797-10.294c1.04-2.648 1.657-5.505 1.657-8.517 0-12.942-10.526-23.472-23.465-23.472-9.427 0-17.515 5.62-21.244 13.66V122.44zm68.12 56.546l20.644 9.326h-20.644v-9.326zm-65.268 98.86c0 3.929 1.063 7.576 2.775 10.843l-5.627 3.07v-33.033h12.807c-6 4.252-9.955 11.225-9.955 19.12zm-2.852-87.268h65.849v65.867h-29.995c-2.92-1.308-6.136-2.07-9.537-2.07-3.401 0-6.617.762-9.537 2.07h-16.78v-65.867zm-2.27 0v65.867h-65.85v-23.589c4.282-4.256 6.944-10.139 6.944-16.64 0-3.61-.886-6.99-2.353-10.047l28.57-15.59h32.688zm-28.52-2.27l28.524-15.564v15.563h-28.524zm-37.33 142.984c1.812 2.403 2.934 5.374 2.934 8.613s-1.117 6.196-2.934 8.613v-17.226zm6.19-6.71a23.56 23.56 0 0 0-6.185-5.046v-60.82h65.848v34.273l-57.901 31.594h-1.762zm88.246-61.124c7.93 0 14.382 6.455 14.382 14.386 0 7.932-6.453 14.387-14.382 14.387-7.93 0-14.382-6.455-14.382-14.387 0-7.93 6.453-14.386 14.382-14.386zm13.51-4.742h26.022v36.73l-18.083-8.167c1.28-2.898 2.016-6.073 2.016-9.435 0-7.895-3.951-14.867-9.955-19.128zm-39.827-70.41v-16.803l3.606-1.967c4.287 4.952 10.59 8.095 17.638 8.095 8.306 0 15.577-4.37 19.746-10.897l24.859 11.224v10.348h-65.85zm21.249-19.76c-7.93 0-14.382-6.455-14.382-14.386 0-7.931 6.453-14.386 14.382-14.386 7.929 0 14.382 6.455 14.382 14.386 0 7.931-6.453 14.386-14.382 14.386zm-20.245-2.757l-1 .545v-2.362c.291.636.655 1.217 1 1.817zM91.942 61.116h65.849v59.053H91.942V61.116zm0 61.324h65.849v45.135l-37.997 20.732H91.942V122.44zm0 68.138h23.687L94.19 202.276c-.7-.94-1.412-1.877-2.243-2.703l-.005-8.995zm-2.27 264.604H22.623v-61.779l.64-.558v2.148h66.412l-.005 60.19zm0-62.46H23.408l41.013-35.813c4.205 3.979 9.84 6.46 16.071 6.46 3.257 0 6.358-.669 9.178-1.877v31.23zm0-41.846c-2.498 2.094-5.677 3.407-9.179 3.407-7.929 0-14.382-6.455-14.382-14.386 0-5.783 3.456-10.762 8.402-13.042h11.966a13.996 13.996 0 0 1 3.197 2.062l-.005 21.96zm0-32.575a23.262 23.262 0 0 0-9.179-1.876c-7.061 0-13.333 3.203-17.638 8.159H23.26v2.271h37.742a23.34 23.34 0 0 0-3.973 13.042c0 5.074 1.657 9.748 4.405 13.591l-38.81 33.892V267.025l9.518-8.308h57.534L89.67 318.3zm0-61.856H34.74l25.626-22.376c4.088 3.452 9.296 5.614 15.055 5.614 5.386 0 10.286-1.894 14.25-4.955v21.717zm0-38.934c-.664 7.314-6.767 13.092-14.251 13.092-7.93 0-14.382-6.455-14.382-14.386 0-7.932 6.453-14.387 14.382-14.387 7.484 0 13.587 5.774 14.25 13.092v2.59zm0-97.342H23.26v2.271h66.41v65.867H23.26v2.271h66.41v7.119c-3.964-3.062-8.869-4.956-14.25-4.956-12.938 0-23.465 10.53-23.465 23.471 0 5.542 2.012 10.575 5.236 14.595l-29.36 25.638H23.26v2.272h1.97l-2.61 2.28V61.116h67.05v59.053zm68.119 335.013H91.942v-60.189h65.849v60.19zm0-62.46H91.942v-32.461c7.13-4.038 12.016-11.602 12.016-20.355 0-3.93-1.017-7.618-2.734-10.875l3.974-2.176h52.593v65.867zm-48.429-68.138l48.429-26.42v26.42h-48.429zM225.91 455.182h-65.85v-60.189h65.849v60.19zm0-62.46h-65.85v-65.867h65.849v65.867zm-65.849-68.138V296.92l8.13-4.438c4.304 5.342 10.812 8.826 18.187 8.826 7.947 0 14.959-3.998 19.205-10.062l20.327 9.18v24.144l-65.849.014zm68.12-23.126l47.315 21.368c-.272.581-.567 1.15-.79 1.758h-46.525v-23.126zm65.848 153.724h-65.848v-60.189h65.848v60.19zm0-62.46h-65.848v-65.867h45.821c-.472 1.863-.808 3.78-.808 5.783 0 12.038 9.146 21.877 20.835 23.203v36.881zm0-45.957c-6.676-1.24-11.753-7.09-11.753-14.114 0-2.067.454-4.02 1.231-5.787h10.518v19.901h.004zm0-22.181h-9.273a14.359 14.359 0 0 1 9.273-6.06v6.06zm0-15.145a23.358 23.358 0 0 0-16.253 9.43l-49.595-22.404v-37.757h65.848v50.73zm0-52.994h-65.848v-65.867h25.671l16.944 7.655c-1.694 3.207-2.68 6.845-2.68 10.73 0 12.94 10.527 23.47 23.465 23.47.84 0 1.63-.158 2.444-.25v24.262h.004zm-20.704-62.06l-8.428-3.807h12.28a23.67 23.67 0 0 0-3.852 3.807zM294.03 223.1c-.8.136-1.607.25-2.443.25-7.925 0-14.382-6.456-14.382-14.387s6.457-14.386 14.382-14.386c.84 0 1.644.109 2.443.25V223.1zm0-37.358c-.813-.091-1.607-.25-2.443-.25-3.96 0-7.634 1.076-10.904 2.816H259.87l-31.69-14.309V122.44h65.85v63.3zm0-65.572h-65.848V61.116h65.848v59.053zm68.12 335.013H296.3v-60.189h65.85v60.19zm-65.85-62.46v-36.64c.123 0 .242.036.36.036 10.585 0 19.45-7.095 22.36-16.744l43.13-7.368v60.716H296.3zm133.969 62.46H364.42v-60.189h65.849v60.19zm0-62.46H364.42V331.62l27.879-4.765h10.245c2.625 10.085 11.726 17.584 22.62 17.584 1.762 0 3.456-.231 5.105-.595v48.878zm0-58.344c-1.599.608-3.302.98-5.105.98-5.83 0-10.835-3.502-13.092-8.498h18.192l.005 7.518zm0-9.794h-18.97c-.304-1.163-.517-2.362-.517-3.616 0-7.931 6.453-14.386 14.382-14.386 1.803 0 3.506.372 5.105.98v17.022zm0-26.492c-1.649-.368-3.343-.595-5.105-.595-12.82 0-23.242 10.352-23.428 23.135l-23.133 3.952h-14.187v-65.867h65.848l.005 39.375zm0-41.647H364.42V207.31l32.656-5.583c2.085 10.82 11.599 19.029 23.016 19.029 3.655 0 7.084-.918 10.168-2.417l.009 38.107zm0-49c-2.607 2.607-6.2 4.23-10.173 4.23-7.929 0-14.377-6.456-14.377-14.387 0-2.435.663-4.693 1.73-6.71h22.82v16.867zm0-19.138H408.95c2.634-3.27 6.626-5.405 11.14-5.405 3.973 0 7.575 1.617 10.172 4.229v1.176h.005zm0-12.074c-3.093-1.499-6.512-2.417-10.173-2.417-9.754 0-18.129 5.997-21.666 14.491h-34.01V122.44h65.849v53.793zm0-56.064H364.42V61.116h65.849v59.053zm2.27 335.013v-60.189h55.954v-2.27h-55.954v-49.587c7.475-2.499 13.247-8.6 15.245-16.28h40.709v-2.272h-40.227c.186-1.19.368-2.376.368-3.616 0-4.956-1.585-9.517-4.228-13.283l41.961-48.968h2.13v-2.272h-.177l.817-.953v199.69h-56.598z" fill-rule="evenodd"/></svg>