<svg width="512" height="512" xmlns="http://www.w3.org/2000/svg"><g fill-rule="evenodd"><path d="M43.225 47.74C28.195 47.74 16 59.92 16 74.965v361.95c0 15.03 12.195 27.225 27.225 27.225h425.43c15.045 0 27.225-12.195 27.225-27.225V74.965c0-15.03-12.18-27.225-27.225-27.225H43.225zm420.93 384.66H47.74V79.465h416.415V432.4z"/><path d="M319.57 162.82c-51.42 0-95.4 32.535-112.425 78.105-4.875 13.05-7.545 27.165-7.545 41.895 0 66.165 53.82 120 120 120s120-53.82 120-120c0-64.83-51.69-117.81-116.01-119.925a89.42 89.42 0 0 0-4.02-.075zm-2.355 120.675L227.53 245.56c0-.015 0-.03.015-.06 12.93-35.265 50.01-60.495 89.715-60.495l-.045 98.49zM89.71 146.68h282.105c8.64 0 15.645-7.215 15.645-15.87s-7.005-15.87-15.645-15.87H89.71c-8.655 0-15.675 7.215-15.675 15.87s7.005 15.87 15.675 15.87zm81.45 41.115H90.055c-8.655 0-15.675 7.2-15.675 15.87 0 8.67 7.02 15.87 15.675 15.87h81.12c.99 0 1.95-.18 2.895-.345 2.955-.555 5.595-2.025 7.71-3.975a15.872 15.872 0 0 0 5.07-11.625c-.015-8.655-7.035-15.795-15.69-15.795zm-81.435 104.55h64.965c8.655 0 15.66-6.75 15.66-15.39 0-8.655-7.02-15.405-15.66-15.405H89.725c-8.655 0-15.66 6.75-15.66 15.405 0 8.64 7.005 15.39 15.66 15.39zm81.435 42.03H90.055c-8.655 0-15.675 6.735-15.675 15.39 0 8.655 7.02 15.405 15.675 15.405h81.12c8.655 0 15.675-6.75 15.675-15.405-.015-8.655-7.035-15.39-15.69-15.39z"/></g></svg>