<svg width="512" height="512" xmlns="http://www.w3.org/2000/svg"><path d="M256.5 477C134.716 477 36 378.284 36 256.5S134.716 36 256.5 36 477 134.716 477 256.5 378.284 477 256.5 477zm0-390.115c-93.662 0-169.615 75.953-169.615 169.615S162.838 426.115 256.5 426.115c93.679 0 169.615-75.953 169.615-169.615S350.18 86.885 256.5 86.885zm76.954 229.574l-17.199 17.199c-3.154 3.155-8.277 3.155-11.449 0l-48.68-48.68-48.679 48.68a8.108 8.108 0 0 1-11.449 0L178.8 316.459c-3.155-3.155-3.155-8.277 0-11.449l48.697-48.663-48.697-48.68a8.128 8.128 0 0 1 0-11.465L196 179.02a8.077 8.077 0 0 1 11.448 0l48.68 48.68 48.68-48.68c3.171-3.172 8.294-3.172 11.448 0l17.2 17.182a8.128 8.128 0 0 1 0 11.466l-48.697 48.68 48.697 48.662c3.154 3.172 3.154 8.311 0 11.449z" fill-rule="evenodd"/></svg>