<svg width="512" height="512" xmlns="http://www.w3.org/2000/svg"><g fill-rule="evenodd"><path d="M250.618 245.729c-2.337-19.668-18.327-35.544-38.02-37.75a44.826 44.826 0 0 0-4.995-.28c-11.554 0-22.43 4.512-30.623 12.706-8.194 8.193-12.706 19.07-12.706 30.623v.487c0 .531.432.961.96.961h27.57c.53 0 .96-.432.96-.96 0-7.936 6.215-14.325 13.852-14.325.154 0 .306.002.462.007 7.24.248 13.105 6.113 13.354 13.353.126 3.69-1.243 7.21-3.857 9.916a14.506 14.506 0 0 1-10.378 4.399h-3.824a.962.962 0 0 0-.961.96v27.57c0 .53.432.96.96.96h3.825c3.894 0 7.677 1.604 10.378 4.4 2.614 2.705 3.983 6.225 3.857 9.915-.25 7.24-6.115 13.106-13.354 13.353-.156.005-.31.007-.462.007-7.639 0-13.852-6.39-13.852-14.244a.962.962 0 0 0-.96-.96h-27.57a.962.962 0 0 0-.96.96v.407c0 23.892 19.439 43.33 43.33 43.33 1.652 0 3.331-.096 4.993-.28 19.694-2.206 35.684-18.083 38.021-37.75 1.3-10.942-1.506-21.83-7.902-30.663l-2.334-3.222 2.334-3.222c6.396-8.828 9.202-19.719 7.902-30.658zm61.472-32.954h-7.83c-20.204 0-36.64 16.437-36.64 36.639v68.216c0 20.204 16.438 36.64 36.64 36.64h7.83c20.203 0 36.638-16.437 36.638-36.64v-68.216c0-20.202-16.437-36.64-36.639-36.64zm7.854 97.405c0 5.913-4.792 10.707-10.705 10.707h-2.129c-5.913 0-10.707-4.793-10.707-10.707v-53.316c0-5.912 4.792-10.705 10.707-10.705h2.129c5.913 0 10.705 4.793 10.705 10.705v53.316z"/><path d="M467.017 67.722H365.725V46.67c0-6.065-4.919-10.984-10.983-10.984-6.065 0-10.984 4.92-10.984 10.984v21.052H169.242V46.67c0-6.065-4.919-10.984-10.984-10.984-6.064 0-10.983 4.92-10.983 10.984v21.052H45.983C39.917 67.722 35 72.639 35 78.705v342.318c0 6.067 4.917 10.984 10.983 10.984h48.934c31.597 28.167 73.234 45.307 118.793 45.307.648 0 1.296-.057 1.935-.173l253.306-45.306A10.984 10.984 0 0 0 478 421.023V78.705c0-6.066-4.917-10.983-10.983-10.983zM56.967 89.689h399.066v68.189H56.967V89.689zm0 320.35v-25.653a179.456 179.456 0 0 0 17.125 25.654H56.967zm155.786 45.306c-85.988-.522-155.786-70.635-155.786-156.742V179.845h399.066V411.83l-243.28 43.515z"/></g></svg>