<svg width="512" height="512" xmlns="http://www.w3.org/2000/svg"><g transform="translate(35 35)" fill-rule="evenodd"><path d="M250.748 246.596v-.536c8.733-1.955 15.43-6.389 20.09-13.26 4.635-6.871 6.966-15.135 6.966-24.779 0-18.39-4.527-31.703-13.528-39.914-9.028-8.21-22.917-12.322-41.655-12.322-21.069 0-36.526 4.648-46.343 13.93-9.644 8.933-14.466 22.863-14.466 41.789h40.182c0-10.715 1.66-17.948 4.956-21.698 3.295-3.75 7.46-5.626 12.456-5.626 5.184 0 8.974 1.741 11.398 5.224 2.411 3.496 3.617 8.974 3.617 16.474 0 9.282-1.34 16.34-4.018 21.163-2.68 4.808-7.769 7.232-15.27 7.232h-12.322v28.396h10.715c4.46 0 8.17.442 11.117 1.339 2.947.897 5.358 2.464 7.246 4.688 1.875 2.25 3.201 5.317 4.005 9.242.817 3.937 1.219 8.933 1.219 15 0 10.716-1.433 18.042-4.286 21.967-2.853 3.938-7.153 5.893-12.858 5.893-3.389 0-6.162-.83-8.305-2.545-2.143-1.687-3.844-3.924-5.09-6.697-1.258-2.759-2.102-6.027-2.544-9.764-.456-3.75-.67-7.768-.67-12.054h-43.396c0 12.148 1.473 22.06 4.42 29.734 2.946 7.688 7.179 13.702 12.724 18.109 5.532 4.38 12.095 7.42 19.69 9.108 7.58 1.7 16.112 2.545 25.582 2.545 8.21 0 15.979-1.072 23.305-3.215 7.327-2.143 13.662-5.491 19.02-10.045 5.357-4.554 9.603-10.448 12.724-17.667 3.12-7.246 4.7-15.925 4.7-26.132 0-13.394-2.423-23.707-7.245-30.94-4.862-7.273-12.885-12.135-24.136-14.64z"/><path d="M381.727 0H60.273C27.043 0 0 27.042 0 60.273v321.454C0 414.944 27.042 442 60.273 442h321.454C414.944 442 442 414.944 442 381.727V60.273C442 27.043 414.944 0 381.727 0zm40.182 381.727c0 22.073-18.082 40.182-40.182 40.182H60.273c-22.1 0-40.182-18.109-40.182-40.182V60.273c0-22.087 18.082-40.182 40.182-40.182h321.454c22.1 0 40.182 18.095 40.182 40.182v321.454z"/><circle cx="123.894" cy="63.929" r="17.05"/><circle cx="221" cy="63.929" r="17.05"/><circle cx="318.106" cy="63.929" r="17.05"/></g></svg>