<svg width="512" height="512" xmlns="http://www.w3.org/2000/svg"><g fill-rule="evenodd"><path d="M385.594 218.364c-3.312 7.971-8.341 15.15-14.972 21.357v1.107h-1.192c-.519.465-.994.973-1.534 1.429-6.682 5.606-14.204 10.106-22.34 13.543h25.067v118.602H228.46V255.8h31.687a153.981 153.981 0 0 1-31.64-14.972h-.047v-.029c-1.423-.884-2.88-1.714-4.273-2.642a88.404 88.404 0 0 1-10.7-8.48v11.152H89.014c2.755 5.03 5.771 10.008 8.944 14.972h52.807c2.245-2.209 4.485-4.4 6.715-6.5 2.866-2.693 6.371-4.115 10.12-4.115 6.152 0 12.066 4.078 14.38 9.927.092.22.085.469.158.688h31.336v118.602h-24.358c-2.851 2.5-6.477 4.124-10.37 4.124-3.523 0-6.871-1.228-9.686-3.538a25.103 25.103 0 0 0-.7-.585H87.755c-2.822 3.304-5.705 6.578-8.585 9.854-1.506 1.71-2.995 3.414-4.515 5.118a597.655 597.655 0 0 1-10.456 11.33v69.156a7.48 7.48 0 0 0 7.485 7.485 7.48 7.48 0 0 0 7.486-7.485v-80.486h134.318v80.486a7.482 7.482 0 0 0 7.485 7.485 7.479 7.479 0 0 0 7.486-7.485v-80.486h142.162v80.486a7.48 7.48 0 0 0 7.486 7.485 7.482 7.482 0 0 0 7.485-7.485v-80.486h83.382v-14.972h-83.382V255.802h83.382v-14.971h-83.382v-22.467h.001zm0-175.879a7.486 7.486 0 0 0-14.97 0v64.777h-33.878c6.498 3.786 12.684 8.165 18.328 13.202.621.555 1.176 1.2 1.784 1.769h13.757v15.585c6.484 8.951 11.573 18.758 14.972 28.759v-44.343h83.39v-14.971h-83.381V42.485h-.002zM228.46 201.598v-61.45c-.3-.02-.6-.02-.9-.056-10.322 26.2-10.022 46.516.9 61.506zm0-124.52V42.485a7.486 7.486 0 0 0-14.971 0v58.22a305.159 305.159 0 0 1 13.978-22.48c.291-.427.664-.756.993-1.147z"/><path d="M79.177 338.121v-56.399c-5.509-7.925-10.443-15.923-14.973-24.014v98.19a1279.449 1279.449 0 0 0 14.973-17.777zM64.206 237.415c2.957-3.33 7.215-5.45 11.634-5.45 1.152 0 2.258.198 3.337.457V122.234h123.546a225.939 225.939 0 0 1 7.201-14.971H79.177V42.485A7.483 7.483 0 0 0 71.69 35a7.484 7.484 0 0 0-7.485 7.485v64.777H46.219v14.97h17.98v115.182h.007v.001zM46.219 374.403v1.652c.507-.556 1.015-1.112 1.524-1.652H46.22zm16.002-120.116c-2.365-4.372-2.387-9.189-.307-13.458H46.219v14.972H63.09c-.278-.512-.6-1.002-.87-1.514z"/><path d="M136.129 189.086c-8.707 6.214-14.23 12.106-16.573 17.67-2.413 4.945-3.699 10.41-3.856 16.4h57.15v-14.448h-36.435a18.495 18.495 0 0 1 3.827-4.544c1.51-1.302 4.325-3.415 8.436-6.334l6.572-4.661c5.53-3.915 9.515-7.464 11.932-10.648 3.691-4.796 5.534-10.279 5.534-16.459 0-8.056-2.613-14.529-7.837-19.42-5.22-4.895-12.25-7.335-21.083-7.335-11.175 0-18.952 4.163-23.332 12.485-2.3 4.372-3.593 10.106-3.863 17.212h15.944c.186-4.678.801-8.092 1.842-10.241 1.798-3.722 5.194-5.585 10.18-5.585 3.647 0 6.447 1.17 8.399 3.513 1.955 2.343 2.935 5.274 2.935 8.802 0 4.334-1.707 8.322-5.12 11.97-2.195 2.343-7.09 6.213-14.652 11.623zm182.706-11.279c2.002-.764 3.918-2.208 5.76-4.32 2.917-3.374 4.372-7.516 4.372-12.425 0-6.949-2.442-12.479-7.332-16.605-4.882-4.124-11.309-6.192-19.284-6.192-4.298 0-7.918.52-10.863 1.557-2.953 1.035-5.497 2.533-7.648 4.492-2.865 2.764-4.977 5.772-6.323 9.035-1.265 3.722-1.975 7.65-2.127 11.8h15.308c-.073-4.102.79-7.388 2.603-9.844 1.821-2.456 4.657-3.684 8.531-3.684 3.363 0 5.973.994 7.829 2.994 1.856 1.993 2.784 4.583 2.784 7.77 0 4.914-1.82 8.178-5.453 9.785-2.106.957-5.805 1.473-11.127 1.557v11.737c5.439 0 9.416.515 11.938 1.557 4.428 1.842 6.652 5.5 6.652 10.991 0 4.145-1.191 7.32-3.581 9.529-2.4 2.207-5.199 3.307-8.408 3.307-5.249 0-8.867-2.013-10.848-6.042-1.076-2.185-1.609-4.945-1.609-8.286h-16.113c.272 6.641 1.609 12.006 4.028 16.107 4.598 7.713 12.8 11.569 24.6 11.569 9.583 0 16.82-2.682 21.703-8.027 4.884-5.35 7.332-11.558 7.332-18.616 0-6.714-2.097-12.007-6.271-15.885-2.806-2.575-4.948-3.861-6.453-3.861zm105.606 12.607v14.328h33.036v17.95h11.499v-82.92h-13.868l-30.667 50.642zm33.036 1.494H436.65l20.827-35.938v35.938zM119.442 336.126c-.68.826-1.352 1.652-2.036 2.485 1.101 5.848 3.736 10.469 8.1 13.714 4.986 3.699 10.615 5.556 16.865 5.556 2.141 0 4.133-.233 6.05-.585-8.1-7.178-15.652-14.219-22.7-21.17h-6.279zm3.572-56.48c-1.488 1.594-2.694 3.378-3.758 5.264.695.841 1.316 1.68 2.03 2.53a654.286 654.286 0 0 1 13.25-14.805c-4.416 1.302-8.3 3.561-11.522 7.011zm47.065 56.882c2.1-6.396 3.209-14.073 3.209-23.196 0-10.395-1.345-18.772-4.032-25.139-.855-2.04-1.886-3.824-3.004-5.49a496.48 496.48 0 0 0-10.867 11.492c.523 1.841.808 3.888.808 6.2 0 5.87-1.865 9.991-5.585 12.376-1.363.884-2.807 1.36-4.298 1.644a515.817 515.817 0 0 0 8.72 8.444c.585-.578 1.177-1.164 1.74-1.865a97.374 97.374 0 0 1-.234 3.261 582.82 582.82 0 0 0 13.543 12.273zm109.77 19.043v-83.44h-13.69c0 .73-.215 1.842-.634 3.34-.727 2.493-1.799 4.496-3.213 5.987-2.065 2.18-4.737 3.64-8.03 4.372-2.066.461-5.684.805-10.849 1.025v11.17h19.62v57.539h16.797v.007h-.001zm24.635-40.908c0 13.772 2.142 24.38 6.42 31.821 4.276 7.435 11.726 11.164 22.354 11.164 10.629 0 18.08-3.728 22.363-11.164 4.276-7.44 6.418-18.049 6.418-31.821 0-13.773-2.142-24.403-6.418-31.888-4.284-7.472-11.733-11.214-22.363-11.214-10.63 0-18.08 3.742-22.354 11.214-4.278 7.485-6.42 18.115-6.42 31.888zm19.102-22.334c1.572-4.831 4.803-7.251 9.672-7.251 4.877 0 8.064 2.42 9.584 7.251 1.513 4.84 2.266 12.274 2.266 22.334 0 9.59-.753 16.93-2.266 22.003-1.52 5.088-4.708 7.632-9.584 7.632-4.87 0-8.092-2.544-9.672-7.632-1.572-5.08-2.361-12.412-2.361-22.003.001-10.06.79-17.495 2.361-22.334zm114.401 63.988v-83.433h-13.692c0 .724-.213 1.841-.636 3.34-.725 2.486-1.798 4.489-3.217 5.98-2.069 2.186-4.736 3.64-8.033 4.372-2.07.453-5.687.804-10.85 1.03v11.163h19.622v57.548h16.806zm14.928-70.282v10.636h16.054v-14.307c-1.645 1.207-3.48 2.187-5.717 2.684-1.966.44-5.416.768-10.337.987z"/><path d="M363.085 236.516c2.895-2.431 5.322-5.038 7.537-7.725 18.488-22.412 14.006-52.736 0-77.134-5.63-9.797-12.734-18.653-20.528-25.61-1.514-1.344-3.115-2.565-4.693-3.816a106.037 106.037 0 0 0-25.383-14.97c-12.39-5.128-25.549-7.906-38.665-7.906-12.737 0-25.406 2.576-37.188 7.906a86.076 86.076 0 0 0-12.592 6.966c1.326-2.4 2.726-4.657 4.094-6.966 3.604-6.086 7.285-11.964 10.9-17.263 3.82-5.592-1.375-10.93-6.7-10.93-2.29 0-4.603.987-6.23 3.377a332.654 332.654 0 0 0-5.186 7.852 279.46 279.46 0 0 0-10.052 16.964 234.876 234.876 0 0 0-4.92 9.507 241.119 241.119 0 0 0-2.58 5.463c-15.005 32.982-21.285 69.737 2.58 96.782 4.064 4.605 8.955 8.948 14.876 12.92.029.023.066.038.096.063 4.792 3.209 9.935 6.137 15.279 8.824 16.229 8.159 34.582 13.64 52.917 14.972 2.843.212 5.687.373 8.524.373 2.924 0 5.827-.138 8.715-.373 15.541-1.243 30.505-5.914 43.51-14.972 1.938-1.336 3.847-2.754 5.689-4.304zm-55.53 5.406c-4.701 0-9.46-.443-14.212-1.094-18.956-2.61-37.784-9.88-51.97-18.152-5.077-2.964-9.313-6.236-12.913-9.723-8.616-8.348-13.243-18.07-14.973-28.506-1.137-6.883-1.07-14.043 0-21.35 1.595-10.877 5.272-22 10.063-32.772 1.316 1.25 3.067 2.003 4.91 2.208.27.029.518.165.793.165 1.656 0 3.363-.563 4.92-1.886 4.123-3.513 8.494-6.313 13.017-8.58 9.62-4.842 19.964-7.068 30.436-7.068 11.463 0 23.058 2.599 33.957 7.069 48.257 19.775 82.966 76.473 32.789 109.73-7.208 4.777-15.42 7.512-24.051 8.864-4.184.66-8.423 1.095-12.766 1.095zM64.407 389.374c4.536-4.942 9.036-9.913 13.423-14.972.449-.526.892-1.053 1.348-1.58 14.5-16.828 28.409-34.182 42.595-51.289 7.47 7.771 15.25 15.272 23.23 22.604a668.44 668.44 0 0 0 11.564 10.351c5.691 4.972 11.433 9.898 17.279 14.724 1.564 1.285 3.271 1.826 4.927 1.826 6.159 0 11.543-7.559 5.665-12.413-5.906-4.87-11.7-9.84-17.443-14.854a647.13 647.13 0 0 1-11.813-10.57 487.76 487.76 0 0 1-6.831-6.433c-5.764-5.476-11.442-11.025-16.898-16.756.6-.701 1.206-1.388 1.805-2.09 5.893-6.894 11.873-13.714 18.032-20.375 3.264-3.53 6.582-7.01 9.95-10.446a418.403 418.403 0 0 1 11.978-11.77c3.242-3.034 2.701-6.886.549-9.54-1.491-1.841-3.736-3.128-6.141-3.128-1.686 0-3.429.622-4.993 2.091-.358.335-.702.694-1.064 1.038-5.374 5.095-10.56 10.344-15.645 15.694-8.473 8.898-16.642 18.072-24.6 27.43-1.72-1.953-3.344-3.991-5.021-5.974-9.874-11.675-19.044-23.955-27.158-37.15-2.544-4.13-5.045-8.308-7.38-12.629-.556-1.035-1.257-1.759-2.015-2.343-.178-.142-.354-.322-.541-.435a6.354 6.354 0 0 0-3.338-.935c-1.512 0-3.001.533-4.312 1.378-3.037 1.963-4.93 5.801-2.716 9.905.936 1.732 2 3.355 2.972 5.067 2.386 4.195 4.814 8.37 7.402 12.405 9.65 15.06 20.55 29.073 32.37 42.304-10.841 13.056-21.485 26.295-32.37 39.33a997.732 997.732 0 0 1-14.972 17.537c-2.08 2.376-4.251 4.671-6.371 7.026-3.717 4.123-7.403 8.282-11.252 12.294-.157.162-.223.352-.358.513-.577.702-.994 1.42-1.265 2.165-.928 2.5-.27 5.073 1.265 7.038 1.458 1.865 3.637 3.159 5.957 3.159 1.7 0 3.444-.674 4.994-2.288 2.404-2.515 4.678-5.139 7.036-7.69.02-.073.089-.146.156-.22z"/></g></svg>