<svg width="512" height="512" xmlns="http://www.w3.org/2000/svg"><g fill-rule="evenodd"><path d="M405.448 457.555h-297.91c-25.702 0-48.413-12.947-62.098-32.58 1.847 32.8 28.858 59.011 62.098 59.011h297.91c33.268 0 60.279-26.17 62.112-59.012-13.685 19.634-36.41 32.58-62.112 32.58z"/><path d="M405.448 60.96h-9.013v-4.963c0-7.294-5.912-13.223-13.216-13.223-7.304 0-13.217 5.929-13.217 13.223v4.963h-24.268v-4.963c0-7.294-5.926-13.223-13.217-13.223-7.29 0-13.216 5.929-13.216 13.223v4.963h-24.269v-4.963c0-7.294-5.912-13.223-13.216-13.223-7.304 0-13.216 5.929-13.216 13.223v4.963h-24.27v-4.963c0-7.294-5.926-13.223-13.216-13.223-7.29 0-13.216 5.929-13.216 13.223v4.963h-24.27v-4.963c0-7.294-5.925-13.223-13.215-13.223s-13.217 5.929-13.217 13.223v4.963h-24.255v-4.963c0-7.294-5.925-13.223-13.216-13.223-7.29 0-13.216 5.929-13.216 13.223v4.963h-9.013c-34.425 0-62.429 28.031-62.429 62.473v258.413c0 34.442 28.017 62.486 62.457 62.486h297.909c34.44 0 62.47-28.03 62.47-62.486V123.433c-.013-34.456-28.03-62.473-62.47-62.473h.014zm-28.803-4.95a6.604 6.604 0 0 1 6.601-6.604c3.638 0 6.601 2.964 6.601 6.604v85.692a6.604 6.604 0 0 1-6.6 6.605c-3.64 0-6.602-2.965-6.602-6.605V56.01zm-50.701 0c0-3.653 2.976-6.604 6.6-6.604 3.625 0 6.602 2.964 6.602 6.604v85.692a6.604 6.604 0 0 1-6.601 6.605c-3.638 0-6.601-2.965-6.601-6.605V56.01zm-50.702 0a6.604 6.604 0 0 1 6.602-6.604c3.638 0 6.6 2.964 6.6 6.604v85.692a6.604 6.604 0 0 1-6.6 6.605c-3.639 0-6.602-2.965-6.602-6.605V56.01zm-50.7 0a6.604 6.604 0 0 1 6.6-6.604c3.639 0 6.602 2.964 6.602 6.604v85.692a6.604 6.604 0 0 1-6.601 6.605c-3.639 0-6.602-2.965-6.602-6.605V56.01zm-50.702 0a6.604 6.604 0 0 1 6.601-6.604c3.639 0 6.601 2.964 6.601 6.604v85.692a6.604 6.604 0 0 1-6.6 6.605c-3.639 0-6.602-2.965-6.602-6.605V56.01zm-50.701 0a6.604 6.604 0 0 1 6.601-6.604c3.638 0 6.601 2.964 6.601 6.604v85.692a6.604 6.604 0 0 1-6.6 6.605c-3.64 0-6.602-2.965-6.602-6.605V56.01zm312.958 325.836c0 16.876-13.74 30.636-30.635 30.636H107.538c-16.882 0-30.635-13.746-30.635-30.636V123.433c0-16.89 13.74-30.65 30.635-30.65h9.013v33.215c-4.478 3.778-7.4 9.375-7.4 15.69 0 11.375 9.233 20.627 20.617 20.627 11.383 0 20.616-9.238 20.616-20.627 0-6.315-2.921-11.899-7.4-15.69V92.783h24.269v33.215c-4.48 3.778-7.4 9.375-7.4 15.69 0 11.375 9.233 20.627 20.616 20.627s20.617-9.238 20.617-20.627c0-6.315-2.922-11.899-7.4-15.69V92.783h24.268v33.215c-4.48 3.778-7.4 9.375-7.4 15.69 0 11.375 9.233 20.627 20.616 20.627s20.617-9.238 20.617-20.627c0-6.315-2.922-11.899-7.4-15.69V92.783h24.268v33.215c-4.479 3.778-7.4 9.375-7.4 15.69 0 11.375 9.233 20.627 20.616 20.627 11.384 0 20.63-9.238 20.63-20.627 0-6.315-2.935-11.899-7.413-15.69V92.783h24.268v33.215c-4.479 3.778-7.4 9.375-7.4 15.69 0 11.375 9.233 20.627 20.617 20.627 11.383 0 20.616-9.238 20.616-20.627 0-6.315-2.921-11.899-7.4-15.69V92.783h24.269v33.215c-4.48 3.778-7.401 9.375-7.401 15.69 0 11.375 9.22 20.627 20.617 20.627s20.63-9.238 20.63-20.627c0-6.315-2.921-11.899-7.414-15.69V92.783h9.013c16.868 0 30.622 13.746 30.622 30.636l-.014 258.413-.014.014z"/><path d="M336.073 218.707L240.748 322.53l-66.66-49.374c-8.806-6.536-21.195-4.674-27.728 4.122-6.532 8.797-4.672 21.22 4.135 27.755l80.992 60.005a19.738 19.738 0 0 0 11.783 3.902c5.375 0 10.736-2.178 14.594-6.411l107.384-116.977c7.428-8.065 6.89-20.612-1.185-28.017-8.035-7.404-20.576-6.907-28.004 1.172h.014z"/></g></svg>