<svg width="512" height="512" xmlns="http://www.w3.org/2000/svg"><path d="M459.695 379.331L329.667 249.303l130.028-130.028a13.395 13.395 0 0 0 3.067-4.782c1.782-4.768.764-10.327-3.067-14.157L398.27 38.91c-3.83-3.83-9.402-4.835-14.157-3.067a13.357 13.357 0 0 0-4.782 3.054L249.303 168.926 119.275 38.898a13.357 13.357 0 0 0-4.782-3.054c-4.768-1.782-10.327-.764-14.157 3.067L38.91 100.336c-3.83 3.83-4.835 9.402-3.067 14.157a13.395 13.395 0 0 0 3.067 4.782l130.028 130.028L38.911 379.331a13.58 13.58 0 0 0-3.067 4.782c-1.782 4.755-.764 10.327 3.067 14.157l61.425 61.425c3.83 3.83 9.402 4.835 14.157 3.067a13.395 13.395 0 0 0 4.782-3.067l130.028-130.028 130.028 130.028a13.395 13.395 0 0 0 4.782 3.067c4.768 1.782 10.327.764 14.157-3.067l61.425-61.425c3.83-3.83 4.849-9.402 3.067-14.157a13.395 13.395 0 0 0-3.067-4.782z" fill-rule="evenodd"/></svg>