<svg width="512" height="512" xmlns="http://www.w3.org/2000/svg"><path d="M256.5 477C134.716 477 36 378.284 36 256.5S134.716 36 256.5 36 477 134.716 477 256.5 378.284 477 256.5 477zm101.108-284.801c4.138-4.139 4.138-10.873 0-15.011l-22.525-22.508c-4.139-4.139-10.873-4.139-15.011 0l-63.792 63.792-63.793-63.792c-4.138-4.139-10.872-4.139-15.01 0l-22.526 22.508c-4.138 4.138-4.138 10.872 0 15.01l63.81 63.81-63.81 63.776c-4.138 4.138-4.138 10.872 0 15.01l22.525 22.525c4.139 4.139 10.873 4.139 15.011 0l63.792-63.809 63.793 63.81c4.138 4.138 10.872 4.138 15.01 0l22.526-22.526c4.138-4.138 4.138-10.872 0-15.01l-63.81-63.776 63.81-63.81z" fill-rule="evenodd"/></svg>