<svg width="512" height="512" xmlns="http://www.w3.org/2000/svg"><path d="M423.615 476H89.385C72.612 476 59 462.406 59 445.655V111.862c0-16.765 13.612-30.345 30.385-30.345h30.384V96.69c0 25.14 20.403 45.517 45.577 45.517s45.577-20.377 45.577-45.517V81.517h91.154V96.69c0 25.14 20.418 45.517 45.577 45.517 25.158 0 45.577-20.377 45.577-45.517V81.517h30.384c16.773 0 30.385 13.58 30.385 30.345v333.793c0 16.75-13.612 30.345-30.385 30.345zm0-288.276H89.385v257.931h334.23v-257.93zm-258.269 75.862H119.77V218.07h45.577v45.517zm0 75.862H119.77v-45.517h45.577v45.517zm0 75.862H119.77v-45.517h45.577v45.517zm75.962-151.724H195.73V218.07h45.577v45.517zm0 75.862H195.73v-45.517h45.577v45.517zm0 75.862H195.73v-45.517h45.577v45.517zm75.961-151.724h-45.577V218.07h45.577v45.517zm0 75.862h-45.577v-45.517h45.577v45.517zm0 75.862h-45.577v-45.517h45.577v45.517zm75.962-151.724h-45.577V218.07h45.577v45.517zm0 75.862h-45.577v-45.517h45.577v45.517zm0 75.862h-45.577v-45.517h45.577v45.517zm-46.048-288.276c-16.53 0-29.914-13.382-29.914-29.874V65.874C317.27 49.367 330.654 36 347.183 36c16.53 0 29.914 13.367 29.914 29.874V97.16c0 16.492-13.385 29.874-29.914 29.874zm-182.308 0c-16.529 0-29.913-13.382-29.913-29.874V65.874c0-16.507 13.384-29.874 29.913-29.874 16.53 0 29.914 13.367 29.914 29.874V97.16c0 16.492-13.4 29.874-29.914 29.874z" fill-rule="evenodd"/></svg>