<svg width="512" height="512" xmlns="http://www.w3.org/2000/svg"><g fill-rule="evenodd"><path d="M433.357 50.523h-38.33v-5.679c0-5.437-4.407-9.844-9.843-9.844-5.437 0-9.844 4.407-9.844 9.844v5.68h-45.038v-5.68c0-5.437-4.407-9.844-9.843-9.844-5.437 0-9.844 4.407-9.844 9.844v5.68h-45.038v-5.68c0-5.437-4.407-9.844-9.844-9.844-5.436 0-9.843 4.407-9.843 9.844v5.68h-45.04v-5.68c0-5.437-4.407-9.844-9.843-9.844-5.437 0-9.843 4.407-9.843 9.844v5.68h-45.039v-5.68c0-5.437-4.407-9.844-9.843-9.844-5.437 0-9.844 4.407-9.844 9.844v5.68H78.11c-23.066 0-41.831 18.766-41.831 41.834V434.63c0 23.068 18.765 41.834 41.831 41.834h355.248c23.066 0 41.832-18.766 41.832-41.834V92.358c0-23.068-18.766-41.835-41.832-41.835zM375.34 70.211v19.097h-45.038V70.21h45.038zm9.844 57.774c5.436 0 9.843-4.407 9.843-9.844v-9.144h17.097v308.996H99.342V108.996h17.097v9.144c0 5.437 4.407 9.844 9.844 9.844 5.436 0 9.843-4.407 9.843-9.844v-9.144h45.039v9.144c0 5.437 4.406 9.844 9.843 9.844 5.436 0 9.843-4.407 9.843-9.844v-9.144h45.039v9.144c0 5.437 4.407 9.844 9.843 9.844 5.437 0 9.844-4.407 9.844-9.844v-9.144h45.038v9.144c0 5.437 4.407 9.844 9.844 9.844 5.436 0 9.843-4.407 9.843-9.844v-9.144h45.038v9.144c0 5.437 4.407 9.845 9.844 9.845zm-74.569-57.774v19.097h-45.038V70.21h45.038zm-64.725 0v19.097h-45.04V70.21h45.039zm-64.726 0v19.097h-45.039V70.21h45.039zm274.338 364.42c0 12.212-9.934 22.146-22.145 22.146H78.11c-12.21 0-22.145-9.934-22.145-22.146V92.358c0-12.212 9.934-22.147 22.145-22.147h38.33v19.097H89.5c-5.437 0-9.844 4.407-9.844 9.844v328.684c0 5.437 4.407 9.844 9.844 9.844h332.468c5.436 0 9.843-4.407 9.843-9.844V99.152c0-5.437-4.407-9.844-9.843-9.844h-26.94V70.21h38.33c12.21 0 22.144 9.935 22.144 22.147V434.63h.001z"/><path d="M210.906 227.036l-10.545 9.867c-11.234 10.513-17.677 25.367-17.677 40.753 0 5.437 4.407 9.844 9.844 9.844h47.313c5.437 0 9.843-4.407 9.843-9.844 0-5.437-4.406-9.844-9.843-9.844h-36.094a36.231 36.231 0 0 1 10.065-16.533l10.545-9.868c16.096-15.061 25.327-36.343 25.327-58.39 0-18.473-15.027-33.502-33.5-33.502-18.472 0-33.5 15.03-33.5 33.503v15.547c0 5.436 4.407 9.844 9.844 9.844 5.436 0 9.843-4.408 9.843-9.844v-15.547c0-7.618 6.197-13.814 13.813-13.814 7.617 0 13.814 6.196 13.814 13.814 0 16.618-6.959 32.66-19.092 44.014zm84.375 40.776c-7.617 0-13.813-6.197-13.813-13.814 0-5.437-4.407-9.844-9.844-9.844-5.436 0-9.843 4.407-9.843 9.844 0 18.473 15.028 33.502 33.5 33.502s33.5-15.029 33.5-33.502v-26.532c0-18.474-15.028-33.503-33.5-33.503-4.923 0-9.6 1.067-13.813 2.982V169.21h37.47c5.436 0 9.843-4.408 9.843-9.845 0-5.436-4.407-9.844-9.843-9.844h-47.314c-5.436 0-9.843 4.408-9.843 9.844v68.102c0 5.437 4.407 9.844 9.843 9.844 5.437 0 9.844-4.407 9.844-9.844 0-7.617 6.196-13.814 13.813-13.814 7.617 0 13.813 6.197 13.813 13.814v26.532c0 7.617-6.196 13.814-13.813 13.814zM186.81 314.308h-6.905a8.368 8.368 0 0 0-8.367 8.367v56.335a8.368 8.368 0 0 0 8.367 8.367h6.905c18.725 0 33.96-15.235 33.96-33.962v-5.145c0-18.727-15.235-33.962-33.96-33.962zm17.226 39.107c0 9.007-6.948 16.422-15.765 17.166v-39.476c8.818.744 15.765 8.158 15.765 17.166v5.144zm112.826-22.372a6.34 6.34 0 0 1 6.333 6.333 8.368 8.368 0 0 0 16.734 0c0-12.72-10.349-23.068-23.067-23.068-12.719 0-23.067 10.349-23.067 23.068v26.932c0 12.72 10.347 23.068 23.067 23.068s23.067-10.349 23.067-23.068a8.368 8.368 0 0 0-16.734 0 6.34 6.34 0 0 1-6.333 6.333 6.34 6.34 0 0 1-6.333-6.333v-26.932a6.34 6.34 0 0 1 6.333-6.333zm-43.096 0a8.368 8.368 0 0 0 0-16.735h-29.399a8.368 8.368 0 0 0-8.367 8.367v56.335a8.368 8.368 0 0 0 8.367 8.367h29.4a8.368 8.368 0 0 0 0-16.735h-21.033V359.21h11.283a8.368 8.368 0 0 0 0-16.735h-11.283v-11.431h21.032v-.001z"/></g></svg>