<svg width="512" height="512" xmlns="http://www.w3.org/2000/svg"><g fill-rule="evenodd"><path d="M416.864 36H96.136C62.981 36 36 62.981 36 96.136v320.728C36 450.005 62.981 477 96.136 477h320.728C450.005 477 477 450.005 477 416.864V96.136C477 62.981 450.005 36 416.864 36zm40.09 380.864c0 22.023-18.04 40.09-40.09 40.09H96.136c-22.05 0-40.09-18.067-40.09-40.09V96.136c0-22.036 18.04-40.09 40.09-40.09h320.728c22.05 0 40.09 18.054 40.09 40.09v320.728z"/><path d="M152.01 116.81h208.967c5.185 0 9.421-4.236 9.421-9.421V92.194c0-5.185-4.223-9.421-9.421-9.421H152.01c-5.172 0-9.422 4.236-9.422 9.421v15.195c.014 5.171 4.25 9.42 9.422 9.42zm-61.005 60.965h30.229v30.229H91.005zm42.964 0h30.242v30.229h-30.242zm42.964 0h30.242v30.229h-30.242zm42.964 0h30.242v30.229h-30.242zm42.977 0h30.242v30.229h-30.242zm42.951 0h30.242v30.229h-30.242zm42.964 0h30.242v30.229h-30.242zm42.978 0h30.229v30.229h-30.229zM91.005 220.739h30.229v30.255H91.005zm42.964 0h30.242v30.255h-30.242zm42.964 0h30.242v30.255h-30.242zm42.964 0h30.242v30.255h-30.242zm42.977 0h30.242v30.255h-30.242zm42.951 0h30.242v30.255h-30.242zm42.964 0h30.242v30.255h-30.242zm42.978 0h30.229v30.255h-30.229zM91.005 263.703h30.229v30.255H91.005zm42.964 0h30.242v30.255h-30.242zm42.964 0h30.242v30.255h-30.242zm42.964 0h30.242v30.255h-30.242zm42.977 0h30.242v30.255h-30.242zm42.951 0h30.242v30.255h-30.242zm42.964 0h30.242v30.255h-30.242zm42.978 0h30.229v30.255h-30.229zM91.005 306.667h30.229v30.255H91.005zm42.964 0h30.242v30.255h-30.242zm42.964 0h30.242v30.255h-30.242zm42.964 0h30.242v30.255h-30.242zm42.977 0h30.242v30.255h-30.242zm42.951 0h30.242v30.255h-30.242zm42.964 0h30.242v30.255h-30.242zm42.978 0h30.229v30.255h-30.229zM91.005 349.631h30.229v30.255H91.005zm42.964 0h30.242v30.255h-30.242zm42.964 0h30.242v30.255h-30.242zm42.964 0h30.242v30.255h-30.242zm42.977 0h30.242v30.255h-30.242zm42.951 0h30.242v30.255h-30.242zm42.964 0h30.242v30.255h-30.242zm42.978 0h30.229v30.255h-30.229zM91.005 392.622h30.229v30.242H91.005zm42.964 0h30.242v30.242h-30.242zm42.964 0h30.242v30.242h-30.242zm42.964 0h30.242v30.242h-30.242zm42.977 0h30.242v30.242h-30.242zm42.951 0h30.242v30.242h-30.242zm42.964 0h30.242v30.242h-30.242zm42.978 0h30.229v30.242h-30.229z"/></g></svg>