<svg width="512" height="512" xmlns="http://www.w3.org/2000/svg"><g transform="translate(32 32)" fill-rule="evenodd"><path d="M277.99 275.46h.078v-60.35c9.848-.813 19.008-4.807 26.35-11.448l45.943 45.948 2.502-2.502-45.91-45.913c7.261-7.676 11.512-17.473 12.175-27.996H379.7c1.62 11.302 11.315 20 23.074 20 12.889 0 23.336-10.443 23.336-23.336 0-12.888-10.447-23.33-23.336-23.33-11.75 0-21.453 8.697-23.074 19.999h-60.615c-.825-10.023-4.943-19.341-11.802-26.748l.24.244 46.516-46.516-2.502-2.498-46.504 46.504c-7.432-6.983-16.84-11.17-26.965-12.003V64.28h-.077c11.336-1.591 20.072-11.307 20.072-23.075 0-12.888-10.442-23.335-23.335-23.335-12.888 0-23.335 10.447-23.335 23.335 0 11.777 8.736 21.488 20.077 23.075h-.082v61.192c-10.947.688-21.128 5.221-28.937 13.025-7.586 7.586-12.101 17.434-12.974 28.04h-60.721v6.666h60.674c.659 10.455 4.867 20.2 12.046 27.855l-45.883 45.9c-3.314-2.83-7.436-4.447-11.845-4.447a18.194 18.194 0 0 0-12.961 5.375c-7.146 7.15-7.146 18.777 0 25.923a18.232 18.232 0 0 0 12.96 5.366c4.901 0 9.507-1.907 12.966-5.375a18.177 18.177 0 0 0 5.375-12.957c0-4.186-1.47-8.112-4.045-11.344l45.974-45.97c7.573 6.924 17.139 10.978 27.38 11.623v60.307h.081c-11.34 1.587-20.076 11.307-20.076 23.075 0 12.892 10.446 23.335 23.335 23.335 12.892 0 23.335-10.443 23.335-23.335 0-11.777-8.736-21.488-20.081-23.075zm37.713-108.928c-.586-6.414-2.583-12.73-6.124-18.366 3.472 5.52 5.533 11.785 6.124 18.366zm-116.95 94.316c0 4.01-1.556 7.774-4.392 10.605a14.907 14.907 0 0 1-10.609 4.387c-4.007 0-7.77-1.557-10.6-4.387-5.846-5.846-5.846-15.37 0-21.215a14.9 14.9 0 0 1 10.6-4.391c4.011 0 7.779 1.56 10.61 4.391a14.894 14.894 0 0 1 4.391 10.61zm57.853-72.862c-4.713-4.717-7.308-10.99-7.308-17.678 0-6.688 2.591-12.966 7.308-17.678 4.716-4.712 10.99-7.308 17.682-7.308 6.683 0 12.96 2.596 17.677 7.308 9.746 9.746 9.746 25.606 0 35.356-4.72 4.716-10.99 7.312-17.677 7.312-6.688 0-12.966-2.596-17.682-7.312zm16.352 10.613c7.128.33 14.145-2.027 19.576-6.607-5.435 4.58-12.405 6.945-19.576 6.607z"/><circle cx="145.438" cy="169.867" r="23.335"/><path d="M365.717 97.215c4.9 0 9.502-1.903 12.961-5.367 7.15-7.15 7.15-18.785 0-25.926a18.22 18.22 0 0 0-12.965-5.367 18.204 18.204 0 0 0-12.961 5.367 18.225 18.225 0 0 0-5.371 12.965c0 4.892 1.907 9.498 5.37 12.961a18.199 18.199 0 0 0 12.966 5.367zm-10.614-28.937a14.881 14.881 0 0 1 10.601-4.392c4.011 0 7.774 1.557 10.605 4.392 5.846 5.845 5.846 15.364 0 21.214a14.895 14.895 0 0 1-10.6 4.387 14.89 14.89 0 0 1-10.606-4.387 14.906 14.906 0 0 1-4.391-10.605c0-4.01 1.556-7.778 4.391-10.61zm-7.723 192.57c0 4.9 1.908 9.506 5.372 12.96a18.225 18.225 0 0 0 12.965 5.372c4.896 0 9.506-1.908 12.961-5.371 7.146-7.141 7.15-18.777 0-25.923a18.21 18.21 0 0 0-12.961-5.366c-4.9 0-9.51 1.903-12.965 5.366a18.225 18.225 0 0 0-5.371 12.962zm18.337-14.997a14.88 14.88 0 0 1 10.6 4.387c5.846 5.846 5.846 15.369 0 21.215a14.895 14.895 0 0 1-10.6 4.387 14.89 14.89 0 0 1-10.605-4.387 14.884 14.884 0 0 1-4.392-10.605c0-4.007 1.557-7.766 4.392-10.601a14.856 14.856 0 0 1 10.605-4.396zM170.787 65.922c-3.46 3.46-5.363 8.065-5.363 12.965s1.903 9.506 5.363 12.961a18.204 18.204 0 0 0 12.96 5.367c3.914 0 7.604-1.257 10.708-3.507l46.32 46.32 2.502-2.501-46.166-46.162c3.19-3.408 4.977-7.795 4.977-12.478 0-4.896-1.907-9.506-5.375-12.965a18.196 18.196 0 0 0-12.96-5.367 18.213 18.213 0 0 0-12.966 5.367zm27.966 12.965c0 4.011-1.56 7.766-4.392 10.605a14.9 14.9 0 0 1-10.609 4.387c-4.007 0-7.77-1.556-10.6-4.387-2.831-2.826-4.384-6.598-4.384-10.605 0-4.007 1.553-7.778 4.384-10.6a14.884 14.884 0 0 1 10.604-4.392c4.007 0 7.775 1.556 10.605 4.391 2.836 2.823 4.392 6.59 4.392 10.601zm182.991 127.572c-3.857-5.542-10.139-9.694-14.047-9.262l-41.236 4.545c-3.587.394-3.865 4.52-.923 9.485l8.779 8.774c2.223 1.3 4.383 2.01 6.102 1.822l41.235-4.545c3.909-.437 3.939-5.277.09-10.82zm43.766 77.728c-2.274-5.35-8.17-10.913-13.157-12.397l-24.16-7.226c-.851 5.383-3.306 10.558-7.424 14.701l39.863 11.926c4.986 1.493 7.167-1.646 4.879-7.004zm8.767 56.412l-57.758-34.154c-5.465-3.237-9.532-2.194-9.104 2.339.299 3.032 2.561 6.859 5.653 10.036 1.518 1.548 3.25 2.942 5.054 4.011l57.759 34.158c5.456 3.233 9.531 2.185 9.095-2.339-.44-4.528-5.234-10.819-10.699-14.051zm-3.455 54.739l-55.873-48.44c-5.285-4.589-10.759-5.756-12.208-2.605-1.3 2.801 1.039 8.095 5.306 12.461.518.526 1.07 1.04 1.638 1.535l55.864 48.432c5.29 4.593 10.76 5.76 12.205 2.613 1.458-3.147-1.647-9.412-6.932-13.996zm-75.667-22.826c-4.477-5.397-10.67-8.63-13.85-7.24-3.174 1.39-2.122 6.872 2.355 12.26l47.244 56.882c.479.59.987 1.142 1.51 1.676 4.271 4.366 9.518 6.808 12.349 5.572 3.173-1.385 2.12-6.876-2.352-12.26l-47.256-56.89zm-35.629 7.684c-3.118-5.546-9.314-10.45-13.813-10.998-4.515-.54-5.648 3.51-2.531 9.048l32.927 58.464c1.017 1.826 2.381 3.575 3.904 5.132 3.104 3.164 6.88 5.495 9.903 5.862 4.512.535 5.645-3.51 2.532-9.044l-32.922-58.464zm-47.158-11.174c-1.39-5.02-6.817-11.032-12.128-13.431-5.302-2.399-8.484-.265-7.098 4.742l14.633 52.995c.77 2.797 2.797 5.897 5.362 8.51 2.04 2.078 4.405 3.848 6.757 4.913 5.307 2.403 8.484.27 7.103-4.738l-14.63-52.99zm-61.979-42.912c-5.457-3.972-10.306-4.032-10.815-.132l-5.43 41.124c-.403 3.05 1.97 7.612 5.635 11.354a25.774 25.774 0 0 0 3.323 2.886c5.46 3.968 10.306 4.028 10.823.133l5.422-41.124c.518-3.892-3.498-10.268-8.958-14.24zm-61.458-46.815l-24.827 24.31c-2.348 2.297-.24 8.275 4.72 13.325 4.952 5.067 10.883 7.3 13.231 5.007l24.828-24.31c2.352-2.305.24-8.279-4.717-13.337-4.96-5.059-10.887-7.3-13.235-4.995zm-27.556-44.105c-3.844-5.529-10.134-9.69-14.043-9.257l-41.235 4.545c-3.908.436-3.947 5.268-.09 10.823a26.262 26.262 0 0 0 2.81 3.383c3.66 3.741 8.176 6.209 11.238 5.87l41.235-4.549c3.9-.423 3.943-5.273.085-10.815zm-28.423-50.467c-2.28-5.358-8.177-10.913-13.163-12.405l-52.665-15.754c-4.99-1.488-7.18 1.646-4.896 7.005 1.009 2.373 2.736 4.78 4.768 6.859 2.565 2.617 5.619 4.712 8.402 5.542l52.666 15.749c4.986 1.492 7.175-1.642 4.888-6.996zm-12.624-45.751c-.44-4.52-5.234-10.81-10.703-14.043L11.87 90.775c-5.47-3.237-9.536-2.19-9.096 2.335.291 3.036 2.549 6.863 5.645 10.036 1.522 1.552 3.254 2.946 5.054 4.011l57.755 34.154c5.464 3.233 9.54 2.185 9.1-2.34zM16.93 52.413l55.868 48.445c5.285 4.584 10.759 5.756 12.208 2.609 1.45-3.148-1.654-9.412-6.948-14L22.193 41.025c-5.285-4.589-10.758-5.756-12.208-2.609-1.296 2.805 1.035 8.1 5.31 12.461.518.53 1.061 1.04 1.634 1.535zm75.662 22.831c.484.581.984 1.142 1.506 1.668 4.271 4.366 9.514 6.812 12.345 5.576 3.177-1.386 2.13-6.876-2.348-12.26L56.843 13.342c-4.477-5.388-10.673-8.63-13.846-7.24-3.173 1.39-2.125 6.872 2.348 12.26l47.247 56.882zm35.63-7.689c1.026 1.826 2.386 3.584 3.908 5.136 3.1 3.169 6.88 5.503 9.904 5.867 4.52.534 5.649-3.515 2.531-9.053l-32.922-58.464C108.525 5.503 102.338.586 97.826.047c-4.511-.539-5.648 3.51-2.527 9.044l32.923 58.464zm40.32-13.611a26.777 26.777 0 0 1 11.173-2.446c1.737 0 3.447.171 5.115.488l-4.854-17.563c-1.385-5.02-6.816-11.028-12.118-13.427-5.307-2.403-8.484-.278-7.107 4.738l7.79 28.21zm68.808 67.696c1.775 1.292 3.472 2.122 4.977 2.583 1.92-1.171 3.892-2.245 5.949-3.168l5.323-40.402c.514-3.895-3.497-10.271-8.958-14.244-5.457-3.968-10.306-4.028-10.819-.137l-5.43 41.129c-.398 3.049 1.966 7.616 5.631 11.357a26.67 26.67 0 0 0 3.327 2.883z"/></g></svg>