<svg width="512" height="512" xmlns="http://www.w3.org/2000/svg"><g transform="translate(10 87)" fill-rule="evenodd"><path d="M492.646.046H256.653v162.18h235.946V.047h.047zm-17.918 144.276H274.54V17.936h200.19v126.386z"/><path d="M413.411 33.499h48.638v8.968h-48.638zm-.308 14.839h48.653v8.937h-48.653zm.447 16.072h48.653v8.953H413.55zm-114.268 8.675l.37.139 1.463 3.482-.154.355c-4.437 10.047-4.16 10.324-3.405 11.079l5.9 5.778c.263.247.679.401 1.018.401.323 0 1.355 0 10.075-3.945l.324-.17 3.605 1.465.154.354c4.114 10.155 4.514 10.155 5.53 10.155h8.351c1.032 0 1.495 0 5.315-10.186l.154-.37 3.56-1.448.338.139c5.916 2.496 9.336 3.76 10.23 3.76.37 0 .816-.17 1.047-.401l5.963-5.794c.755-.755 1.047-1.048-3.605-10.894l-.185-.355 1.479-3.482.323-.139c10.446-4.052 10.446-4.438 10.446-5.485v-8.167c0-1.048 0-1.495-10.446-5.224l-.323-.139-1.48-3.482.17-.37c4.437-10.031 4.13-10.355 3.405-11.079l-5.931-5.763a1.554 1.554 0 0 0-1.002-.4c-.323 0-1.356 0-10.075 3.944l-.34.17-3.59-1.449-.153-.37c-4.114-10.154-4.53-10.154-5.531-10.154h-8.366c-1.001 0-1.479 0-5.3 10.185l-.153.355-3.575 1.448-.323-.139c-5.947-2.496-9.383-3.76-10.292-3.76-.354 0-.785.17-1.016.401l-5.947 5.81c-.755.739-1.063 1.032 3.59 10.894l.184.354-1.479 3.498-.339.139c-10.414 4.021-10.414 4.422-10.414 5.454v8.183c0 1.063 0 1.494 10.43 5.223zm28.948-22.743c7.457 0 13.542 5.963 13.542 13.267 0 7.334-6.085 13.267-13.542 13.267-7.456 0-13.527-5.948-13.527-13.267 0-7.32 6.055-13.267 13.527-13.267zm38.285 47.938l-1.957.785-.2-.077c-3.22-1.356-5.115-2.05-5.593-2.05a.821.821 0 0 0-.554.216l-3.236 3.175c-.385.385-.585.57 1.972 5.948l.093.2-.817 1.895-.2.062c-5.67 2.203-5.67 2.419-5.67 2.99v4.468c0 .57 0 .816 5.67 2.85l.231.078.801 1.895-.092.2c-2.404 5.486-2.25 5.64-1.849 6.04l3.22 3.16a.85.85 0 0 0 .57.215c.2 0 .724 0 5.485-2.157l.2-.093 1.972.802.077.2c2.25 5.547 2.465 5.547 3.035 5.547h4.56c.57 0 .817 0 2.897-5.562l.092-.216 1.957-.786.2.077c3.22 1.371 5.1 2.05 5.577 2.05a.846.846 0 0 0 .57-.216l3.22-3.175c.416-.4.6-.554-1.987-5.917l-.093-.215.817-1.896.2-.077c5.685-2.203 5.685-2.419 5.685-2.99v-4.452c0-.57 0-.832-5.7-2.851l-.216-.093-.786-1.895.093-.2c2.387-5.486 2.249-5.64 1.833-6.056L385.372 97a.929.929 0 0 0-.57-.216c-.185 0-.724 0-5.485 2.158l-.2.092-1.957-.77-.061-.216c-2.265-5.547-2.496-5.547-3.066-5.547h-4.545c-.57 0-.816 0-2.896 5.562l-.077.216zm5.346 8.043c4.098 0 7.38 3.251 7.38 7.242s-3.328 7.258-7.38 7.258-7.38-3.267-7.38-7.258 3.297-7.242 7.38-7.242zm2.649-27.305l.124.061.508 1.202-.061.124c-1.556 3.513-1.449 3.59-1.171 3.867l2.049 2.003a.684.684 0 0 0 .354.14c.123 0 .462 0 3.528-1.372l.123-.046 1.248.493.046.138c1.433 3.529 1.603 3.529 1.942 3.529h2.896c.339 0 .493 0 1.833-3.56l.062-.123 1.233-.493.123.031c2.049.878 3.25 1.325 3.543 1.325.154 0 .308-.062.355-.139l2.08-2.034c.261-.261.354-.354-1.264-3.79L394 80.25l.509-1.202.123-.047c3.636-1.417 3.636-1.556 3.636-1.91V74.24c0-.354 0-.508-3.62-1.818l-.14-.031-.508-1.217.062-.14c1.54-3.497 1.433-3.59 1.17-3.851l-2.048-2.019a.684.684 0 0 0-.354-.139c-.093 0-.463 0-3.528 1.387l-.124.062-1.232-.509-.077-.123c-1.433-3.529-1.572-3.529-1.926-3.529h-2.896c-.34 0-.493 0-1.834 3.529l-.061.139-1.248.493-.139-.046c-2.049-.863-3.25-1.31-3.543-1.31a.475.475 0 0 0-.355.154l-2.049 2.003c-.277.262-.354.37 1.264 3.79l.061.124-.508 1.217-.123.062c-3.62 1.402-3.62 1.54-3.62 1.88v2.866c-.032.354-.032.508 3.62 1.803zm10.045-7.905c2.604 0 4.73 2.065 4.73 4.623 0 2.527-2.126 4.607-4.73 4.607-2.588 0-4.73-2.08-4.73-4.607 0-2.558 2.142-4.623 4.73-4.623zM0 338.954h235.962v-162.18H0v162.18zm17.887-144.291h200.188v126.4H17.887v-126.4z"/><path d="M156.759 213.863h48.638v8.953h-48.638zm-.293 14.823h48.638v8.953h-48.638zm.431 16.087h48.638v8.953h-48.638zm-125.592-11.51h101.758v16.796H31.305zm0 25.44h77.725v16.78H31.305zm0 25.441H184.52v16.796H31.305zm225.733-107.91v162.165H493V176.234H257.038zm218.075 144.275H274.94V194.124h200.173v126.385z"/><path d="M413.766 208.839h48.653v8.953h-48.653zm-.262 14.824h48.638v8.937h-48.638zm.416 16.072h48.622v8.953H413.92zm-58.76 57.26c3.79-3.79 9.876-23.591 9.876-23.591s-19.797 6.086-23.587 9.861c-3.79 3.791-3.79 9.955.015 13.745 3.744 3.79 9.906 3.79 13.696-.015z"/><path d="M287.912 311.587h121.324v-8.444l.123-.678c.047-.924.14-9.307.14-10.2 0-29.848-21.292-46.197-21.292-46.197-10.63-9.122-24.465-14.67-39.564-14.67-33.6 0-60.839 27.274-60.839 60.866 0 .925.093 9.307.154 10.201v9.122h-.046zm14.682-18.306h12.48v-4.052h-11.602c0-.031-.878 0-.878 0 .462-10.448 4.453-20.864 11.955-29.093l.324-.339.57.509 8.304 8.305 2.619-2.635-8.843-8.798c8.011-7.32 18.148-11.495 28.948-11.958h.632s.277-.03.246.154v12.312h3.343V245.22c1.618.062 3.282.293 4.884.493a45.434 45.434 0 0 1 24.866 11.634l-8.782 8.799 2.45 2.465 8.458-8.475.462-.37.385.54c7.318 7.997 11.493 18.12 11.971 28.923h-12.464v4.052l12.51-.015s.016 8.66-.03 9.184l-92.823.015c-.046-.54.046-8.629.015-9.184z"/><ellipse cx="441.004" cy="296.455" rx="13.973" ry="13.976"/><ellipse cx="304.289" cy="209.764" rx="9.783" ry="9.785"/><ellipse cx="336.041" cy="209.779" rx="9.783" ry="9.785"/><ellipse cx="367.747" cy="209.779" rx="9.783" ry="9.785"/><path d="M.555 162.797h235.962V.601H.555v162.196zM18.457 18.491H218.63v126.4H18.457v-126.4z"/><path d="M98.107 37.398l-8.196 25.379c7.333 2.296 12.664 9.122 12.664 17.212 0 4.052-1.356 7.766-3.605 10.77l21.122 16.319c5.746-7.535 9.166-16.92 9.166-27.09 0-19.923-13.11-36.843-31.151-42.59z"/><path d="M80.251 99.111c-9.921 0-17.979-8.074-17.979-17.998 0-9.923 8.058-17.997 17.98-17.997 1.848 0 3.635.292 5.33.816l8.196-25.394a44.137 44.137 0 0 0-13.527-2.11c-24.634 0-44.663 20.046-44.663 44.67 0 24.624 20.029 44.686 44.663 44.686 14.451 0 27.33-6.903 35.512-17.612L94.625 91.884c-3.281 4.361-8.489 7.227-14.374 7.227zm77.062-61.405h48.638v8.937h-48.638zm-.293 14.808h48.653v8.953H157.02zm.432 16.087h48.653v8.937h-48.653zm21.784 19.139v13.205c4.776.154 8.612 4.083 8.612 8.891 0 4.9-3.99 8.906-8.904 8.906-4.9 0-8.905-4.006-8.905-8.906 0-.123.015-.231.03-.324h-13.233v.324c0 12.189 9.921 22.127 22.108 22.127 12.201 0 22.123-9.938 22.123-22.127-.015-12.08-9.783-21.943-21.83-22.097z"/></g></svg>