<svg width="512" height="512" xmlns="http://www.w3.org/2000/svg"><path d="M190.594 216.2c13.691 2.451 27.933 4.141 42.876 4.141 84.463 0 152.936-41.51 152.936-92.652C386.406 76.491 317.952 35 233.49 35c-84.557 0-152.973 41.491-152.973 92.67 0 31.442 26.034 59.16 65.663 75.934l-41.547 54.333 85.96-41.737zm99.463-110.737c10.748 0 19.445 8.7 19.445 19.453 0 10.772-8.716 19.472-19.445 19.472-10.748 0-19.463-8.7-19.463-19.472 0-10.753 8.715-19.453 19.463-19.453zm-58.789 0c10.767 0 19.463 8.72 19.463 19.472 0 10.772-8.715 19.473-19.463 19.473-10.748 0-19.483-8.7-19.483-19.473 0-10.772 8.735-19.472 19.483-19.472zm-58.789 0c10.748 0 19.463 8.72 19.463 19.472 0 10.772-8.715 19.473-19.463 19.473-10.748 0-19.444-8.7-19.444-19.473 0-10.772 8.715-19.472 19.444-19.472zm259.708 241.955c0-51.16-68.435-92.67-153.01-92.67-84.443 0-152.917 41.49-152.898 92.67 0 51.16 68.455 92.652 152.917 92.652 14.963 0 29.185-1.671 42.895-4.103l85.98 41.738-41.547-54.39c39.63-16.738 65.663-44.456 65.663-75.897zM224.375 362.92c-10.728 0-19.444-8.701-19.444-19.473 0-10.772 8.716-19.473 19.444-19.473 10.767 0 19.483 8.7 19.464 19.473.018 10.772-8.698 19.473-19.464 19.473zm58.827 0c-10.767 0-19.463-8.701-19.463-19.473 0-10.772 8.696-19.473 19.463-19.473 10.767 0 19.464 8.7 19.464 19.473 0 10.772-8.697 19.473-19.464 19.473zm58.79 0c-10.73 0-19.426-8.701-19.426-19.473 0-10.772 8.696-19.473 19.425-19.473 10.748 0 19.464 8.7 19.464 19.473 0 10.772-8.697 19.473-19.464 19.473z" fill="#010002" fill-rule="evenodd"/></svg>