<svg width="512" height="512" xmlns="http://www.w3.org/2000/svg"><path d="M478.135 419.413c0 19.109 10.92 35.65 26.865 43.753v6.692c-4.46.604-9.013.94-13.647.94-28.544 0-54.294-11.986-72.509-31.188-11 2.93-22.674 4.515-34.75 4.515-66.772 0-120.891-48.133-120.891-107.5s54.12-107.5 120.892-107.5c66.772 0 120.892 48.133 120.892 107.5 0 23.247-8.302 44.76-22.392 62.35a48.856 48.856 0 0 0-4.473 20.452l.013-.014zM118.267 133.88c-27.792 22.588-43.105 51.64-43.105 81.808 0 16.917 4.702 33.338 13.956 48.778 9.55 15.923 23.924 30.476 41.547 42.1a53.692 53.692 0 0 1 23.574 36.912 137.555 137.555 0 0 1 1.41 15.171 136.359 136.359 0 0 0 9.188-8.385 53.711 53.711 0 0 1 37.987-15.749 54.9 54.9 0 0 1 6.783.43 215.513 215.513 0 0 0 26.69 1.693v53.75c-11.39 0-22.566-.725-33.473-2.123-46.167 46.185-101.267 54.463-154.54 55.685v-11.3c28.772-14.097 53.73-39.79 53.73-69.137a81.08 81.08 0 0 0-.914-12.053c-48.612-32.022-79.68-80.947-79.68-135.76 0-96.48 96.217-174.687 214.919-174.687 116.889 0 211.977 75.842 214.852 170.28-17.248-7.686-36.04-12.349-55.517-13.679-4.835-23.542-19.06-45.7-41.237-63.72-14.83-12.054-32.292-21.581-51.89-28.327-20.86-7.175-43.131-10.804-66.195-10.804-23.063 0-45.334 3.642-66.195 10.804-19.611 6.746-37.073 16.273-51.89 28.326v-.013z" fill-rule="evenodd"/></svg>