<svg width="512" height="512" xmlns="http://www.w3.org/2000/svg"><path d="M6 44.54v426.256h499.745V44.54H6zm428.672 73.533V58.328h57.28v175.02c-4.408-14.408-11.588-32.226-22.288-44.041h21.64v-2.298h-23.86c-6.513-6.384-14.235-10.534-23.345-10.534-3.35 0-6.48.593-9.427 1.609V120.37h56.632v-2.297h-56.632zm0 71.234h21.084c18.178 11.664 28.947 48.452 32.45 66.638h-53.53l-.004-66.638zm2.358-2.298a19.326 19.326 0 0 1 7.065-1.342c2.495 0 4.88.473 7.165 1.342h-14.23zM365.727 58.328h66.647v59.745h-66.647V58.328zm0 62.042h66.647v58.628c-4.146 1.834-7.887 4.591-11.238 8.01h-55.409V120.37zm0 68.937h53.28c-17.8 20.552-24.066 59.275-25.123 66.638h-28.157v-66.638zm27.826 68.936c-2.376 17.004-11.008 53.26-27.83 66.477v-66.477h27.83zm-96.77-9.536a175.483 175.483 0 0 1 1.571 7.238h-1.572v-7.238zm0 9.536h1.994c.018.082.037.179.05.262h.024c.547 3.162 7.96 44.215 27.026 66.376h-29.086l-.009-66.638zm11.352 0h55.29v66.638h-24.283c-17.549-13.047-27.845-49.436-31.007-66.638zm53.837 68.936c-2.95 1.59-6.113 2.49-9.519 2.49-3.415 0-6.637-.9-9.666-2.49h19.185zm-65.19-268.851h66.647v59.745h-66.647V58.328zm0 62.042h66.647v66.639h-66.647V120.37zm66.647 68.937v66.638h-55.735c-.781-4.251-4.082-20.778-10.912-37.699v-28.94h66.647zm-68.945 23.571c-3.893-8.64-8.733-17.023-14.667-23.571h14.667v23.571zm-66.647-154.55h66.647v59.745h-66.647V58.328zm0 62.042h66.647v66.639h-16.891c-6.513-6.38-14.235-10.534-23.35-10.534-9.137 0-16.707 4.15-22.968 10.534h-3.438V120.37zm33.567 66.639h-14.24a19.417 19.417 0 0 1 7.08-1.342c2.49 0 4.876.473 7.16 1.342zm-32.252 2.298a47.68 47.68 0 0 0-1.31 1.553v-1.553h1.31zm-70.26-130.98h66.647v59.746h-66.647V58.328zm0 62.043h66.647v66.639h-66.647V120.37zm0 68.937h66.647v4.595c-15.057 21.265-20.536 55.195-21.515 62.043h-45.132v-66.638zm0 68.936h44.8c-2.366 17.078-11.049 53.563-28.032 66.638h-16.768v-66.638zm13.238 68.936c-2.956 1.59-6.123 2.49-9.533 2.49-1.264 0-2.491-.155-3.705-.39v-2.1h13.238zm-54.283-71.234c-1.264-6.88-9.137-45.958-27.881-66.638h66.633v66.638h-38.752zm-9.349 0H89.952V204.67c9.887 16.03 16.06 38.347 18.546 51.275zm-18.55 2.298h18.973l.046.262h.023c.542 3.162 7.965 44.215 27.026 66.376H89.947v-66.638zm28.331 0h38.315v66.638h-7.308c-17.553-13.047-27.85-49.436-31.007-66.638zm38.315 68.936v1.521a22.394 22.394 0 0 1-3.668-1.521h3.668zM89.947 58.328h66.647v59.745H89.947V58.328zm0 62.042h66.647v66.639H89.947V120.37zM87.65 58.328v59.745H20.432v2.297H87.65v66.547c-6.494-6.329-14.189-10.442-23.262-10.442-9.137 0-16.703 4.15-22.968 10.534H20.432v2.298h18.864c-9.413 10.873-15.61 26.816-19.507 40.548V58.328h67.86zm-16.1 128.68H57.317a19.369 19.369 0 0 1 7.07-1.341c2.495 0 4.876.473 7.16 1.342zm16.1 137.873H20.432v2.298H87.65v66.638H20.432v2.298H87.65v60.894H19.79v-199.12l.648.087v.276h2.133l.56.078c.005-.028.01-.055.01-.078h64.514l-.005 66.629zm-64.188-68.936c2.68-18.07 11.84-54.956 29.477-66.638h23.11c4.28 2.743 8.14 6.88 11.601 11.838v54.8H23.461zm133.133 201.064H89.947v-60.894h66.647v60.894zm-66.647-63.192V327.18h48.133c5.3 5.529 11.445 9.536 18.514 11.02v55.618H89.947zM225.54 457.01h-66.647v-60.894h66.647v60.894zm0-63.192h-66.647v-55.195c1.21.152 2.441.24 3.705.24 9.684 0 17.618-4.642 24.085-11.683h38.857v66.638zm0-68.936h-36.876c18.201-22.207 23.887-63.39 24.3-66.565h.019c.005-.023.005-.05.01-.073h12.547v66.638zm-12.23-68.936c1.603-10.832 5.538-28.42 12.23-43.301v43.3h-12.23zm81.175 201.064h-66.647v-60.894h66.647v60.894zm0-63.192h-66.647V327.18h66.647v66.638zm0-68.936h-66.647v-66.638h66.647v66.638zm-66.647-68.936V207.87c4.082-7.914 9.032-14.651 14.943-18.562h23.12c13.733 8.819 23.252 31.99 28.584 50.645v15.993h-66.647zM363.43 457.009h-66.647v-60.894h66.647v60.894zm-66.647-63.192V327.18h31.154c6.752 7.04 14.85 11.682 24.512 11.682 3.94 0 7.584-.8 10.981-2.187v57.143h-66.647zm135.592 63.192h-66.647v-60.894h66.647v60.894zm0-63.192h-66.647v-58.173c3.99-2.036 7.575-4.954 10.81-8.465h55.837v66.638zm0-68.936H378.52c18.197-22.202 23.887-63.375 24.305-66.565h.019c.004-.023.004-.05.009-.073h29.527l-.005 66.638zm-29.205-68.936c2.666-17.974 11.753-54.56 29.205-66.445v66.445H403.17zm31.503 201.064v-60.894h56.632v-2.298h-56.632V327.18h56.632v-2.298h-56.632v-66.638h53.956c.014.082.033.179.046.262l1.522-.262h1.108v-.189l.648-.105v199.06h-57.28z" fill-rule="evenodd"/></svg>