<svg width="512" height="512" xmlns="http://www.w3.org/2000/svg"><g fill-rule="evenodd"><path d="M458.99 462.971h-35.645v-17.535a2.184 2.184 0 0 0-4.365 0v17.535H379.7v-17.535a2.184 2.184 0 0 0-4.365 0v17.535h-39.282v-17.535a2.184 2.184 0 0 0-4.364 0v17.535h-39.282v-17.535a2.184 2.184 0 0 0-4.364 0v17.535h-39.281v-17.535a2.184 2.184 0 0 0-4.365 0v17.535h-39.281v-17.535a2.184 2.184 0 0 0-4.365 0v17.535H161.47v-17.535a2.184 2.184 0 0 0-4.365 0v17.535h-39.28v-17.535a2.184 2.184 0 0 0-4.365 0v17.535H63.996v-79.319h21.098a2.19 2.19 0 0 0 2.182-2.183 2.19 2.19 0 0 0-2.182-2.183H63.996v-39.297h21.098a2.19 2.19 0 0 0 2.182-2.183 2.19 2.19 0 0 0-2.182-2.184H63.996v-39.297h21.098a2.19 2.19 0 0 0 2.182-2.183 2.19 2.19 0 0 0-2.182-2.183H63.996v-39.297h21.098c1.2 0 2.182-.978 2.182-2.183a2.186 2.186 0 0 0-2.182-2.183H63.996v-39.297h21.098c1.2 0 2.182-.978 2.182-2.184a2.186 2.186 0 0 0-2.182-2.183H63.996v-39.297h21.098c1.2 0 2.182-.978 2.182-2.183a2.186 2.186 0 0 0-2.182-2.183H63.996v-39.297h21.098c1.2 0 2.182-.978 2.182-2.183a2.186 2.186 0 0 0-2.182-2.183H63.996V78.009h21.098c1.2 0 2.182-.979 2.182-2.184a2.186 2.186 0 0 0-2.182-2.183H63.996V42.55A6.55 6.55 0 0 0 57.449 36a6.55 6.55 0 0 0-6.547 6.55v426.97a6.55 6.55 0 0 0 6.547 6.55H458.99a6.55 6.55 0 0 0 0-13.099z"/><path d="M235.65 182.993l92.708 45.082 121.345-78.59-2.13 42.515 8.72.437 2.88-57.544-61.937-3.034-.432 8.723 47.02 2.302-116.08 75.184-94.97-46.183-60.807 86.746-68.703-39.35-4.343 7.58 75.625 43.31z"/><path d="M449.048 284.174l15.856-55.387-59.637-17.011-2.396 8.396 44.191 12.606-116.01 51.78-72.57-67.193-100.351 77.28-54.151-9.231-1.467 8.61 57.927 9.868 97.513-75.11 71.396 66.094 123.304-55.034-11.994 41.93z"/></g></svg>