<svg width="512" height="512" xmlns="http://www.w3.org/2000/svg"><g transform="translate(77 34)" fill-rule="evenodd"><ellipse cx="130.992" cy="220.16" rx="72.36" ry="72.334"/><path d="M36.302 250.176l10.411-7.479c-1.996-7.364-3.16-15.03-3.16-22.996 0-48.476 39.42-87.866 87.913-87.866 48.48 0 87.912 39.39 87.912 87.866 0 36.662-22.603 68.128-54.611 81.277l8.745 9.23c34.134-15.89 57.9-50.457 57.9-90.493 0-55.094-44.861-99.924-99.96-99.924-55.129 0-99.96 44.83-99.96 99.924.014 10.623 1.723 20.829 4.81 30.461z"/><path d="M49.111 118.442l6.922 9.862c20.52-16.954 46.799-27.145 75.433-27.145 65.395 0 118.57 53.156 118.57 118.542 0 35.097-15.451 66.65-39.791 88.34l7.654 9.273c27.04-23.944 44.171-58.798 44.171-97.628 0-72.018-58.589-130.571-130.604-130.571-31.204.014-59.867 11.039-82.355 29.327z"/><path d="M279.747 219.7c0 38.314-14.733 73.167-38.686 99.494l7.266 9.876c26.897-28.666 43.468-67.08 43.468-109.37 0-58.897-32.008-110.33-79.454-138.179l-8.774 8.742c45.407 25.394 76.18 73.856 76.18 129.438z"/><path d="M13.34 367.053c32.397 26.011 73.423 41.658 118.126 41.658 104.296 0 189.078-84.808 189.078-189.025 0-82.425-53.089-152.52-126.856-178.301l-7.726 9.977C256.987 74.415 308.51 141.094 308.51 219.7c0 97.584-79.396 176.98-177.044 176.98-41.055 0-78.765-14.139-108.82-37.666l-9.306 8.038z"/><path d="M131.466 0C83.173 0 38.456 15.704 2.154 42.189l9.032 8.326c33.99-24.203 75.477-38.5 120.28-38.5 114.564 0 207.732 93.149 207.732 207.671 0 114.509-93.168 207.643-207.732 207.643-36.877 0-71.527-9.718-101.597-26.614l-7.927 9.317c32.296 18.647 69.675 29.355 109.524 29.355 121.17 0 219.765-98.56 219.765-219.7C351.231 98.545 252.621 0 131.466 0z"/></g></svg>