<svg width="512" height="512" xmlns="http://www.w3.org/2000/svg"><path d="M476.5 423.214c0 19.552 11.179 36.478 27.5 44.77v6.847c-4.565.619-9.226.963-13.97.963-29.219 0-55.577-12.265-74.222-31.914-11.262 2.998-23.21 4.62-35.572 4.62-68.351 0-123.75-49.252-123.75-110s55.399-110 123.75-110c68.352 0 123.75 49.252 123.75 110 0 23.788-8.497 45.801-22.921 63.8a49.976 49.976 0 0 0-4.579 20.928l.014-.014zM229 36c119.652 0 216.989 77.605 219.931 174.24-21.133-9.419-44.508-14.396-68.681-14.396-41.058 0-79.846 14.369-109.202 40.466-30.443 27.06-47.204 63.346-47.204 102.19 0 19.195 4.097 37.771 11.921 54.904-2.241.055-4.496.096-6.765.096a270.32 270.32 0 0 1-34.306-2.173c-47.259 47.26-103.661 55.73-158.194 56.98v-11.563c29.453-14.424 55-40.714 55-70.744 0-4.194-.33-8.305-.935-12.334C40.804 320.9 9 270.836 9 214.75 9 116.025 107.491 36 229 36z" fill-rule="evenodd"/></svg>