<svg width="512" height="512" xmlns="http://www.w3.org/2000/svg"><path d="M215 38c113.215 0 205 74.222 205 165.773 0 91.552-91.785 165.773-205 165.773a256.04 256.04 0 0 1-31.966-2.007c-44.034 43.823-94.888 51.689-145.7 52.836v-10.72c27.442-13.383 49.541-37.76 49.541-65.605 0-3.892-.3-7.702-.861-11.43C39.657 302.235 10 255.804 10 203.787c0-91.552 91.785-165.773 205-165.773V38zm220.375 371.573c0 23.871 15.512 44.765 39.292 56.236V475c-44.048-.983-84.474-7.73-122.631-45.284a222.366 222.366 0 0 1-27.703 1.72c-40.767 0-78.337-10.993-108.308-29.456 61.787-.218 120.116-19.993 164.355-55.772 22.29-18.026 39.893-39.194 52.275-62.887 13.134-25.128 19.803-51.88 19.803-79.548 0-4.452-.191-8.89-.533-13.301C482.921 216.05 502 250.915 502 289.343c0 44.588-25.693 84.382-65.873 110.425a64.433 64.433 0 0 0-.752 9.805z" fill-rule="evenodd"/></svg>