<svg width="512" height="512" xmlns="http://www.w3.org/2000/svg"><g fill-rule="evenodd"><path d="M212.308 311.392c-4.97 0-9 4.032-9 9.005 0 4.973 4.03 9.005 9 9.005 45.282 0 82.121-36.86 82.121-82.168 0-45.308-36.839-82.169-82.121-82.169-4.97 0-9 4.032-9 9.005 0 4.974 4.03 9.006 9 9.006 35.357 0 64.121 28.78 64.121 64.158 0 35.377-28.764 64.158-64.121 64.158z"/><path d="M212.308 365.989c65.444 0 118.687-53.273 118.687-118.755 0-47.951-28.552-90.94-72.74-109.524-4.584-1.93-9.858.228-11.784 4.812-1.926 4.585.227 9.864 4.809 11.791 37.49 15.766 61.714 52.239 61.714 92.92 0 55.552-45.168 100.746-100.687 100.746-4.97 0-9 4.032-9 9.005 0 4.973 4.03 9.005 9 9.005z"/><path d="M349.561 247.234c0 75.724-61.571 137.331-137.253 137.331-4.97 0-9 4.032-9 9.005 0 4.974 4.03 9.006 9 9.006 85.607 0 155.253-69.687 155.253-155.342 0-85.656-69.646-155.342-155.253-155.342-18.223 0-36.072 3.131-53.054 9.309a9.006 9.006 0 0 0-5.383 11.54c1.698 4.674 6.859 7.087 11.533 5.386 15.004-5.458 30.785-8.225 46.904-8.225 75.682 0 137.253 61.608 137.253 137.332z"/><path d="M386.117 247.234c0 95.893-77.97 173.908-173.81 173.908-4.97 0-9 4.032-9 9.005 0 4.973 4.03 9.005 9 9.005 105.765 0 191.81-86.093 191.81-191.918S318.072 55.315 212.307 55.315c-52.351 0-101.258 20.714-137.712 58.327a9.01 9.01 0 0 0 .196 12.734 8.998 8.998 0 0 0 12.727-.196c33.034-34.083 77.352-52.854 124.79-52.854 95.84 0 173.809 78.014 173.809 173.908z"/><path d="M303.675 37.756c-4.553-1.992-9.861.087-11.851 4.645-1.991 4.558.088 9.867 4.642 11.857 76.674 33.53 126.217 109.276 126.217 192.976 0 116.067-94.374 210.495-210.375 210.495-4.97 0-9 4.032-9 9.005 0 4.973 4.03 9.005 9 9.005 125.927 0 228.375-102.507 228.375-228.505 0-90.858-53.779-173.082-137.008-209.478z"/></g></svg>