<svg width="512" height="512" xmlns="http://www.w3.org/2000/svg"><path d="M484.324 424.854c0 19.686 11.25 36.727 27.676 45.075v6.894c-4.594.623-9.285.97-14.06.97-29.405 0-55.932-12.35-74.696-32.132-11.333 3.018-23.358 4.651-35.798 4.651-68.788 0-124.54-49.588-124.54-110.75 0-61.161 55.752-110.75 124.54-110.75 68.788 0 124.54 49.589 124.54 110.75 0 23.95-8.552 46.114-23.068 64.236a50.335 50.335 0 0 0-4.608 21.07l.014-.014zm-370.73-294.166c-28.63 23.271-44.405 53.202-44.405 84.28 0 17.43 4.843 34.347 14.378 50.254 9.838 16.404 24.645 31.397 42.8 43.372a55.315 55.315 0 0 1 24.286 38.029 141.721 141.721 0 0 1 1.453 15.63 140.477 140.477 0 0 0 9.465-8.64 55.331 55.331 0 0 1 39.133-16.224c2.325 0 4.65.152 6.988.443a222.006 222.006 0 0 0 27.496 1.744v55.375a271.28 271.28 0 0 1-34.484-2.187c-47.56 47.581-104.323 56.109-159.204 57.369V438.49c29.64-14.522 55.351-40.991 55.351-71.226 0-4.223-.332-8.362-.94-12.418-50.08-32.99-82.087-83.395-82.087-139.863 0-99.399 99.12-179.97 221.405-179.97 120.417 0 218.375 78.135 221.337 175.429-17.768-7.919-37.127-12.723-57.192-14.093-4.982-24.254-19.636-47.083-42.482-65.647-15.277-12.418-33.266-22.233-53.456-29.183-21.49-7.392-44.433-11.13-68.193-11.13-23.76 0-46.702 3.752-68.193 11.13-20.203 6.95-38.192 16.765-53.455 29.183v-.014z" fill-rule="evenodd"/></svg>