<svg width="512" height="512" xmlns="http://www.w3.org/2000/svg"><g fill-rule="evenodd"><path d="M233.905 247.406h189.983c4.385 0 7.308-2.93 7.308-7.322 0-4.393-2.923-7.322-7.308-7.322H233.905c-4.384 0-7.307 2.929-7.307 7.322 0 4.393 2.923 7.322 7.307 7.322zm189.983 43.931h-87.684c-4.385 0-7.307 2.929-7.307 7.322 0 4.393 2.922 7.321 7.307 7.321h87.684c4.385 0 7.308-2.928 7.308-7.321s-2.923-7.322-7.308-7.322zM233.905 305.98h65.763c4.385 0 7.307-2.928 7.307-7.321s-2.922-7.322-7.307-7.322h-65.763c-4.384 0-7.307 2.929-7.307 7.322 0 4.393 2.923 7.321 7.307 7.321zm0 58.577h189.983c4.385 0 7.308-2.929 7.308-7.322 0-4.393-2.923-7.321-7.308-7.321H233.905c-4.384 0-7.307 2.928-7.307 7.321s2.923 7.322 7.307 7.322z"/><path d="M168.141 218.117v158.155c0 21.965 18.268 46.86 42.381 46.86H352.28l59.187 51.986c1.462 1.465 2.923 1.465 5.115 1.465.731 0 2.193 0 2.923-.733 2.923-1.465 4.384-3.662 4.384-6.59v-46.13h21.191c21.921 0 44.573-23.43 44.573-46.86V218.115c0-24.162-23.383-36.61-44.573-36.61H210.522c-24.844.004-42.38 15.379-42.38 36.612zm306.897 0v158.155c0 15.376-16.076 32.217-29.959 32.217h-28.498c-4.384 0-7.307 2.928-7.307 7.321v37.342l-49.688-43.199c-1.461-1.464-2.923-1.464-5.115-1.464H210.522c-13.883 0-27.767-16.108-27.767-32.217V218.117c0-15.376 13.884-21.965 27.767-21.965H445.08c14.614 0 29.959 8.055 29.959 21.965zM277.747 93.646H80.457c-4.385 0-7.308 2.928-7.308 7.321s2.923 7.322 7.308 7.322h197.29c4.384 0 7.307-2.929 7.307-7.322 0-4.393-2.923-7.321-7.307-7.321zm-94.992 65.896c0-4.393-2.922-7.321-7.307-7.321H80.457c-4.385 0-7.308 2.928-7.308 7.321s2.923 7.322 7.308 7.322h94.991c4.385 0 7.307-2.929 7.307-7.322zm94.992-7.322h-58.456c-4.385 0-7.307 2.93-7.307 7.322 0 4.393 2.922 7.322 7.307 7.322h58.456c4.384 0 7.307-2.929 7.307-7.322 0-4.393-2.923-7.321-7.307-7.321zm-197.29 58.576c-4.385 0-7.308 2.928-7.308 7.321s2.923 7.322 7.308 7.322h65.763c4.384 0 7.307-2.929 7.307-7.322 0-4.393-2.923-7.321-7.307-7.321H80.457z"/><path d="M66.573 276.694h21.19v57.11c0 2.93 1.462 5.858 4.385 6.59.73.734 2.192.734 2.923.734 1.461 0 3.653-.733 5.115-2.198l45.303-41.734c2.923-2.928 2.923-7.321.731-10.25-2.923-2.929-7.307-2.929-10.23-.733l-33.612 30.75v-47.59c0-4.394-2.923-7.322-7.307-7.322H66.573c-14.614 0-29.959-16.841-29.959-31.484V72.412c0-13.912 15.345-22.698 29.96-22.698H301.13c13.153 0 27.767 7.322 27.767 22.698v79.809c0 4.393 2.922 7.321 7.307 7.321 4.384 0 7.307-2.928 7.307-7.321V72.412c0-21.965-17.537-37.341-42.381-37.341H66.573C44.652 35.069 22 48.98 22 72.412v157.422c0 24.162 21.921 46.86 44.573 46.86z"/></g></svg>