<svg width="512" height="512" xmlns="http://www.w3.org/2000/svg"><path d="M354.94 205.51l-17.034-17.034c-3.145-3.145-8.228-3.145-11.356 0L224.312 290.697l-48.603-48.994a8.054 8.054 0 0 0-11.39 0l-17.034 17.051c-3.145 3.145-3.145 8.228 0 11.356l71.281 71.791c3.145 3.128 8.228 3.128 11.356 0L354.94 216.883a8.003 8.003 0 0 0 0-11.373zM256 35C133.94 35 35 133.94 35 256s98.94 221 221 221 221-98.94 221-221S378.06 35 256 35zm0 391c-93.874 0-170-76.126-170-170 0-93.891 76.126-170 170-170 93.891 0 170 76.109 170 170 0 93.874-76.109 170-170 170z" fill-rule="evenodd"/></svg>