<svg width="512" height="512" xmlns="http://www.w3.org/2000/svg"><path d="M215.333 93.25c-21.458 0-42.185 3.364-61.583 10.01-18.178 6.224-34.363 15.013-48.081 26.12-25.43 20.588-39.447 46.967-39.447 74.242 0 15.257 4.27 30.068 12.675 44.037 8.757 14.553 21.987 27.885 38.24 38.545a54.22 54.22 0 0 1 23.871 37.27c.38 2.536.692 5.085.922 7.649a155.49 155.49 0 0 0 3.443-3.31A54.216 54.216 0 0 1 183.64 312c2.264 0 4.542.149 6.819.434a197.795 197.795 0 0 0 24.888 1.573c21.458 0 42.185-3.364 61.583-10.01 18.178-6.225 34.363-15.013 48.081-26.12 25.43-20.589 39.447-46.968 39.447-74.242s-14.003-53.653-39.447-74.24c-13.718-11.109-29.903-19.897-48.081-26.122-19.398-6.646-40.125-10.01-61.583-10.01l-.014-.013zm0-54.25c112.295 0 203.334 73.712 203.334 164.635 0 90.923-91.04 164.635-203.334 164.635-10.79 0-21.363-.691-31.706-1.993C139.95 409.799 89.51 417.61 39.11 418.75v-10.647c27.22-13.29 49.139-37.5 49.139-65.154 0-3.865-.298-7.65-.854-11.352C41.416 301.421 12 255.308 12 203.65c0-90.923 91.04-164.635 203.333-164.635V39zm218.584 369.022c0 23.707 15.385 44.458 38.972 55.85V473c-43.69-.976-83.787-7.676-121.634-44.973a220.281 220.281 0 0 1-27.477 1.709c-40.436 0-77.7-10.918-107.428-29.255 61.285-.217 119.14-19.855 163.02-55.389 22.108-17.902 39.568-38.924 51.85-62.455 13.026-24.955 19.641-51.524 19.641-79.002 0-4.421-.19-8.829-.529-13.21C481.076 215.828 500 250.453 500 288.618c0 44.281-25.484 83.803-65.338 109.666a64.07 64.07 0 0 0-.745 9.738z" fill-rule="evenodd"/></svg>