<svg width="512" height="512" xmlns="http://www.w3.org/2000/svg"><g fill-rule="evenodd"><path d="M104.48 91.888h127.07v26.863H104.48zm298.36 30.228c4.414 0 8.734-1.791 11.872-4.923 3.133-3.134 4.924-7.454 4.924-11.866 0-4.43-1.791-8.753-4.924-11.887-3.135-3.112-7.458-4.903-11.872-4.903a17.001 17.001 0 0 0-11.89 4.903 16.97 16.97 0 0 0-4.905 11.887c0 4.412 1.793 8.73 4.904 11.866a16.924 16.924 0 0 0 11.891 4.923zm-60.464 0c4.414 0 8.733-1.791 11.87-4.923 3.134-3.134 4.925-7.454 4.925-11.866 0-4.43-1.791-8.753-4.924-11.887-3.135-3.112-7.457-4.903-11.871-4.903-4.432 0-8.754 1.793-11.892 4.903a16.97 16.97 0 0 0-4.904 11.887c0 4.412 1.794 8.73 4.904 11.866a16.924 16.924 0 0 0 11.892 4.923zm-60.488 0a16.93 16.93 0 0 0 11.894-4.923c3.133-3.134 4.925-7.454 4.925-11.866 0-4.41-1.792-8.753-4.925-11.887a16.989 16.989 0 0 0-11.894-4.903c-4.411 0-8.731 1.793-11.869 4.903a16.97 16.97 0 0 0-4.904 11.887c0 4.412 1.794 8.73 4.904 11.866 3.138 3.132 7.458 4.923 11.87 4.923z"/><path d="M18 36.405v354.522h110.812v85.61l160.708-85.61h205.424V36.405H18zm443.352 33.579v70.672H51.592V69.984h409.76zM281.127 357.348l-118.724 63.247v-63.247H51.592V174.234h409.76v183.114H281.127z"/><path d="M113.512 220.445H399.43v26.863H113.512zm0 59.35H399.43v26.863H113.512z"/></g></svg>