<svg width="512" height="512" xmlns="http://www.w3.org/2000/svg"><g fill-rule="evenodd"><path d="M327.509 40.125H247.57c-27.535 0-55.957-1.775-83.49.888C65.49 52.55-7.342 143.97 4.204 243.378c11.547 94.97 92.373 159.763 185.634 160.65 15.988 0 31.975 0 47.963.887.888.888 2.665 1.776 3.552 1.776 6.218 4.437 12.435 7.988 18.653 12.426 26.645 17.752 53.292 35.502 79.937 52.367 7.106 4.437 16.876-1.776 16.876-9.763v-61.242c87.043-15.976 150.994-88.757 152.77-179.29-1.776-98.52-81.714-179.288-182.08-181.064zM346.16 381.84c-6.218.887-11.547 4.437-10.658 10.65v49.704c-13.323-8.875-27.535-17.751-40.857-26.626-15.1-9.763-34.64-28.402-52.405-31.953-23.981-4.437-49.739.888-74.609-1.775-47.962-5.326-92.372-33.728-118.13-74.556C-2.9 222.965 37.067 107.58 130.33 72.966c27.534-9.763 55.957-9.763 84.379-9.763h93.26c36.416 0 71.056 4.437 103.032 23.965 47.074 29.289 74.609 80.769 76.385 135.797-.89 80.768-60.398 148.223-141.224 158.874z"/><path d="M386.13 255.804H119.67c-14.21 0-14.21 22.19 0 22.19h266.46c14.21 0 14.21-22.19 0-22.19zm0-84.318H119.67c-14.21 0-14.21 22.189 0 22.189h266.46c14.21 0 14.21-22.19 0-22.19z"/></g></svg>