<svg width="512" height="512" xmlns="http://www.w3.org/2000/svg"><g fill="#231F20" fill-rule="evenodd"><path d="M323.507 277.55H92.517c-7.08 0-12.882-5.804-12.882-12.883 0-7.079 5.803-12.882 12.882-12.882h230.989c7.079 0 12.882 5.803 12.882 12.882.001 7.1-5.802 12.882-12.881 12.882zm0-57.532H92.517c-7.08 0-12.882-5.803-12.882-12.882s5.803-12.882 12.882-12.882h230.989c7.079 0 12.882 5.803 12.882 12.882.001 7.079-5.802 12.882-12.881 12.882zm0-63.174H92.517c-7.08 0-12.882-5.803-12.882-12.882s5.803-12.882 12.882-12.882h230.989c7.079 0 12.882 5.803 12.882 12.882.001 7.08-5.802 12.882-12.881 12.882z"/><path d="M98.98 437.958c-12.066 0-21.858-9.77-21.858-21.796v-52.047C37.198 352.908 9 316.455 9 274.458V128.606C9 77.178 50.839 35.34 102.249 35.34h214.876c51.43 0 93.249 41.838 93.249 93.266v145.832c0 51.429-41.839 93.266-93.249 93.266H184.091l-70.496 64.511a21.466 21.466 0 0 1-14.616 5.743zm3.269-382.656c-40.423 0-73.308 32.884-73.308 73.305V274.44c0 35.216 25.227 65.468 59.986 71.95l8.136 1.515v68.24c0 1.774 1.894 1.854 1.914 1.854.42 0 .778-.159 1.156-.478l76.219-69.755h140.791c40.423 0 73.308-32.884 73.308-73.325V128.606c0-40.421-32.885-73.324-73.308-73.324H102.25v.02z"/><path d="M423.417 95.823c.12 1.875.558 3.65.558 5.564v14.438c33.941 6.4 59.727 36.173 59.727 71.949v145.852c0 39.684-31.748 71.929-71.154 73.105v.08h-19.942v48.718c0 1.774-1.894 1.855-1.915 1.855-.419 0-.777-.16-1.156-.478l-54.721-50.093-14.1.14h-40.761c-23.433 0-44.132-11.148-57.453-28.338h-23.432c15.834 28.636 45.887 48.278 80.905 48.278h47.262l48.858 44.71a21.544 21.544 0 0 0 14.618 5.722c12.065 0 21.856-9.77 21.856-21.796v-28.875c50.394-1.177 91.096-42.356 91.096-93.047V187.773c-.019-46.982-35.018-85.549-80.246-91.95z"/></g></svg>