<svg width="512" height="512" xmlns="http://www.w3.org/2000/svg"><g fill-rule="evenodd"><path d="M6 364.728c0 2.263.269 5.902.664 5.902h33.6v-34.367c-.072 0-.136-.016-.198-.016-15.638 0-34.066 8.212-34.066 28.48zm464.868-28.046c-1.258 0-2.476.166-3.702.301v33.647h39.663c-.806-15.823-16.53-33.948-35.961-33.948zm-422.7-7.571v41.519H63.98v-79.114h134.396v79.114h15.811V259.87H48.168z"/><path d="M71.886 341.619v29.011h15.81v-39.557h39.53v39.557h7.906v-39.557h39.527v39.557h15.812v-71.203H71.886zm150.206-89.661V370.63h15.811v-79.114h118.585v79.114H372.3V141.2H222.092v110.76zm79.057-87.025h55.34v31.646h-55.34v-31.646zm0 47.469h55.34v31.645h-55.34v-31.645zm-63.246-47.469h55.34v31.646h-55.34v-31.646zm0 47.469h55.34v31.645h-55.34v-31.645z"/><path d="M245.81 370.63h15.81v-39.557h31.622v39.557h7.907v-39.557h31.622v39.557h15.811v-71.203H245.81zm134.395-36.36v36.361h7.905v-7.911h63.245v7.911h7.905v-87.025h-79.056v50.663zm71.15 20.537H388.11v-7.91h63.246v7.91zm0-23.734v7.911H388.11v-7.911h63.245z"/></g></svg>