<svg width="512" height="512" xmlns="http://www.w3.org/2000/svg"><g fill-rule="evenodd"><path d="M186.453 181.75c2.162 0 4.278.222 6.327.654-.512-12.532 6.815-24.62 19.112-29.54a30.3 30.3 0 0 1 11.27-2.168c8.687 0 16.639 3.678 22.274 9.777l22.416-23.296c6.563-6.813 6.378-17.66-.461-24.227a17.052 17.052 0 0 0-11.88-4.792 17.011 17.011 0 0 0-12.332 5.258l-67.788 70.452c3.557-1.39 7.269-2.118 11.062-2.118zm-38.548 158.306c3.883-6.358 9.586-11.172 16.446-13.898a34.11 34.11 0 0 1 30.613 2.592l6.957 4.264-.482-1.204-5.175-13h.005l-38.051-95.324c-2.777-6.944-2.792-14.473-.304-21.455l-5.806 6.033-.023-.022-36.843 38.298 7.657-60.407a21.343 21.343 0 0 0-6.424-18.128c-3.185-3.09-7.373-5.192-12.14-5.785-.92-.119-1.84-.18-2.746-.18-10.604 0-19.816 7.913-21.183 18.721L43.393 360.056a24.492 24.492 0 0 0 6.995 22.584l63.126 60.823a24.448 24.448 0 0 0 16.973 6.84c4.342 0 8.708-1.15 12.622-3.512l53.636-32.333-38.149-27.702c-15.62-10.03-20.433-30.846-10.69-46.7zm151.517-173.021l3.237 8.112 14.094-14.652c6.555-6.813 6.334-17.681-.476-24.242a17.086 17.086 0 0 0-11.88-4.79 17.05 17.05 0 0 0-12.331 5.26l-12.022 12.496c8.687 2.621 15.867 9.032 19.378 17.816z"/><path d="M393.466 320.593l-48.884-122.461c-2.376-5.952-8.094-9.577-14.121-9.577-1.88 0-3.796.35-5.644 1.093-7.788 3.12-11.597 11.975-8.465 19.768l23.5 58.87a7.605 7.605 0 0 1-4.247 9.893 7.513 7.513 0 0 1-2.821.543 7.615 7.615 0 0 1-7.062-4.785l-40.42-101.257c-2.376-5.954-8.086-9.577-14.122-9.577-1.885 0-3.794.348-5.65 1.091-7.788 3.113-11.59 11.969-8.463 19.769l40.413 101.265a7.605 7.605 0 0 1-.076 5.824 7.619 7.619 0 0 1-4.164 4.064 7.63 7.63 0 0 1-2.808.544 7.62 7.62 0 0 1-7.075-4.794L237.294 175.47c-2.375-5.944-8.093-9.56-14.129-9.56-1.878 0-3.787.347-5.636 1.082-7.796 3.122-11.597 11.97-8.478 19.777l46.07 115.38a7.618 7.618 0 0 1-7.054 10.44 7.618 7.618 0 0 1-7.075-4.793l-40.42-101.259c-2.37-5.95-8.079-9.574-14.117-9.574-1.878 0-3.794.348-5.648 1.09-7.796 3.115-11.597 11.97-8.473 19.769l43.242 108.333-.015.008 14.449 36.193a2.732 2.732 0 0 1-.78 3.092 2.701 2.701 0 0 1-1.752.638c-.49 0-.986-.134-1.426-.401l-39.038-23.975a18.967 18.967 0 0 0-9.913-2.807c-2.43 0-4.841.467-7.098 1.375a18.84 18.84 0 0 0-9.125 7.711c-5.494 8.943-2.694 20.652 6.251 26.157l130.38 94.691a24.51 24.51 0 0 0 14.382 4.665c3.058 0 6.14-.57 9.072-1.745l68.888-27.532c10.275-4.11 16.52-14.612 15.22-25.617l-11.589-97.945c-.016-.017-.009-.048-.016-.07zm-2.702-191.5c-5.629-2.779-12.482-.504-15.296 5.126-2.807 5.647-.513 12.495 5.122 15.303 12.571 6.263 21.948 17.035 26.404 30.348 4.462 13.314 3.475 27.562-2.778 40.132-2.806 5.647-.512 12.495 5.124 15.303a11.407 11.407 0 0 0 15.294-5.124c8.97-18.032 10.388-38.477 3.988-57.57-6.4-19.083-19.847-34.543-37.858-43.518z"/><path d="M407.721 95c-5.591-2.824-12.466-.504-15.288 5.134-2.805 5.639-.512 12.489 5.13 15.297 44.714 22.271 62.985 76.793 40.727 121.546-2.807 5.64-.513 12.489 5.13 15.296a11.253 11.253 0 0 0 5.071 1.196 11.4 11.4 0 0 0 10.215-6.329c27.867-56.006 4.997-124.259-50.985-152.14zm-181.254-4.68c1.054-6.21-3.126-12.1-9.34-13.158-19.869-3.342-39.804 1.226-56.207 12.898-16.402 11.664-27.286 29.024-30.634 48.884-1.053 6.21 3.127 12.1 9.34 13.156a11.92 11.92 0 0 0 1.915.156c5.466 0 10.292-3.937 11.228-9.508 2.346-13.849 9.926-25.957 21.368-34.093 11.426-8.142 25.333-11.351 39.187-8.983 6.238.952 12.095-3.132 13.143-9.352z"/><path d="M102.101 145.747c.646.105 1.284.158 1.916.158 5.463 0 10.29-3.937 11.233-9.51 8.324-49.27 55.107-82.633 104.415-74.274 6.206.972 12.095-3.145 13.15-9.354 1.046-6.219-3.141-12.103-9.348-13.158-29.877-5.038-59.917 1.842-84.599 19.405-24.686 17.562-41.065 43.69-46.115 73.578-1.046 6.219 3.142 12.102 9.348 13.155z"/></g></svg>