<svg width="512" height="512" xmlns="http://www.w3.org/2000/svg"><path d="M409.075 446.529V393.12h-15.162v51.267c-9.082 1.002-17.126 5.69-22.744 12.453v19.862h60.778c-.598-11.854-9.962-24.938-22.872-30.173zM295.359 241.155v7.598h7.58v15.196h-7.58v7.598h7.58v15.197h-7.58v7.598h7.58v15.196h-7.58v7.598h7.58v15.197h-7.58v7.598h7.58v15.196h-7.58v7.598h7.58v15.197h-7.58v7.598h7.58v15.199h-7.58v75.983h68.23V184.166l-68.23 39.535v17.453zm37.905 144.367h15.162v15.197h-15.162v-15.197zm0-7.598v-15.197h15.162v15.197h-15.162zm0-22.795v-15.197h15.162v15.197h-15.162zm0-22.794v-15.197h15.162v15.197h-15.162zm0-22.796v-15.196h15.162v15.196h-15.162zm0-22.795v-15.197h15.162v15.197h-15.162zm0-22.795v-15.196h15.162v15.196h-15.162zm-22.743-15.196h15.162v15.196h-15.162v-15.196zm0 22.795h15.162v15.197h-15.162v-15.197zm0 22.795h15.162v15.196h-15.162v-15.196zm0 22.794h15.162v15.197h-15.162v-15.197zm0 22.795h15.162v15.197h-15.162v-15.197zm0 22.796h15.162v15.196h-15.162v-15.196zm0 22.794h15.162v15.197h-15.162v-15.197zm98.554 0h21.834l-29.073-114.924-27.717 114.924h19.794zm-212.27 65.14c-2.328-1.695-4.89-3.039-7.581-4.125-3.64-1.474-7.513-2.432-11.615-2.432-14.267 0-26.503 9.323-31.81 21.678-5.207-12.94-17.807-22.096-32.583-22.096-14.988 0-32.667 7.887-32.667 27.361.008 2.159.265 5.653.644 5.653h130.902c-.476-9.383-6.428-19.587-15.29-26.039zm75.81-346.278v-7.598h-15.162V81.59h-7.58V36H234.71v45.59h-7.58v15.196h-15.163v15.196h-15.162v329.6c12.941 6.588 22.038 19.52 22.82 35.12h68.152v-364.72h-15.163v-7.599zm-60.648 22.796h60.648v15.196h-60.648V127.18zm0 22.795h60.648v15.197h-60.648v-15.197zm0 22.795h60.648v15.196h-60.648V172.77zm0 22.794h60.648v15.197h-60.648v-15.197zm60.648 197.557h-60.648v-15.197h60.648v15.197zm0-22.795h-60.648v-15.197h60.648v15.197zm0-22.796h-60.648v-15.196h60.648v15.196zm0-22.794h-60.648v-15.197h60.648v15.197zm0-22.795h-60.648v-15.196h60.648v15.196zm0-22.795h-60.648v-15.197h60.648v15.197zm0-22.795h-60.648v-15.197h60.648v15.197zm0-22.795h-60.648V218.36h60.65v15.197h-.002z" fill-rule="evenodd"/></svg>