<svg width="512" height="512" xmlns="http://www.w3.org/2000/svg"><g fill-rule="evenodd"><path d="M168.928 302.733c10.721 21.396 31.056 37.287 56.028 41.586l3.212.555-2.053 45.005c-1.122-.29-2.377-.467-3.551-.704-1.248-.258-2.46-.547-3.774-.746-3.817-.578-7.834-.978-12.212-.978-5.936 0-11.415.799-16.45 2.176 2.488.873 4.895 1.805 7.198 2.812 1.942.85 3.825 1.746 5.634 2.67 1.248-.08 2.437-.259 3.736-.259a72.9 72.9 0 0 1 11.755.954c1.307.214 2.54.474 3.773.748 1.204.266 2.407.54 3.537.858 10.67 3.018 18.348 8.204 23.532 12.946a54.94 54.94 0 0 1 3.772 3.788c2.186 2.441 3.56 4.432 4.29 5.57.333.518.562.91.621 1.014l.14.26c.887-.592 1.758-1.177 2.725-1.747.325-.191.59-.406.923-.591 1.476-.844 3.16-1.591 4.807-2.361 5.36-10.232 22.89-36.947 62.244-45.308l.097-2.012.258-5.542c-41.504 8.265-61.596 36.104-68.514 48.34-1.1-1.375-2.555-2.973-4.178-4.624a61.87 61.87 0 0 0-4.158-3.832c-1.181-.999-2.355-2.005-3.728-2.996l-3.862-55.051 3.449-.451c33.359-4.329 59.564-29.786 65.943-61.82-36.047-15.715-61.802-50.635-64.526-91.792-3.743-.562-7.546-.94-11.437-.94-4.703 0-9.281.489-13.756 1.295 4.748 23.327 7.34 43.813 7.34 56.827-.009 44.961-26.369 53.1-62.815 54.35zm208.11 60.34l.406 5.69.14 2.006c55.63 11.03 75.912 59.408 81.974 79.51a85.863 85.863 0 0 1 3.921 3.98c2.34 2.546 4.46 5.135 6.276 7.702h.125l-.85-4.387c-.168-.882-16.272-80.62-91.992-94.5z"/><path d="M256.854 188.813c.06 1.294.088 2.596.2 3.877 3.16 36.791 26.16 67.91 58.22 82.655 1.167.54 2.318 1.102 3.515 1.597 1.151.48 2.355.858 3.528 1.295a101.025 101.025 0 0 0 10.64 3.277l2.275-49.25-48.607-73.88 51.53 28.35 6.202-72.488h19.419l3.397 103.267 56.19-16.728-53.067 67.525 1.07 15.055c48.482-7.05 85.873-48.852 85.873-99.353 0-55.428-45.004-100.514-100.315-100.514-55.312 0-100.315 45.093-100.315 100.514 0 .318.045.629.045.94.015 1.301.14 2.574.2 3.86zM67.919 288.498c12.552 6.466 30.812 7.05 50.04 7.058l1.41-19.842-53.067-67.524 56.19 16.727 3.396-103.273h19.419l6.203 72.482 51.53-28.351-48.606 73.88.531 11.438 1.898 42.933.155 5.178h.886c1.285 0 2.577-1.842 3.832-1.857 1.344-.014 2.65-.969 3.957-.998 35.782-.799 58.656-7.517 58.656-47.52 0-13.953-2.503-33.773-6.897-55.45-.243-1.206-.487-2.53-.745-3.75-.25-1.192-.516-2.457-.783-3.656C201.32 118.883 169.652 36 136.677 36c-45.041 0-87.675 154.551-87.675 212.392.008 20.723 6.011 33.455 18.917 40.106z"/><path d="M340.105 286.745l-.17 3.707-3.316 71.734-.258 5.638-.088 1.9-2.378 51.47c11.585 8.176 18.814 18.637 22.144 24.268 3.544-2.42 9.872-5.993 18.821-9.093l-4.755-66.86-.14-1.952-.4-5.615-5.005-70.403-.266-3.685-.266-3.684-1.292-18.185 40.455-51.478-43.077 12.821-3.484-105.686h-5.501l-6.594 77.039-35.361-19.443 33.538 50.968-2.444 52.824-.163 3.715zM145.123 206.08l-6.586-77.038h-5.501l-3.478 105.693-43.077-12.822 40.456 51.478-.104 1.428-1.477 20.723-.265 3.699-.266 3.699-5.988 84.208c9.524-2.508 20.076-3.958 31.787-3.958 1.049 0 2.015.096 3.05.118l-3.715-80.36-.17-3.7-.17-3.699-2.68-57.944 33.537-50.967-35.353 19.443z"/><path d="M452.677 454.57c-10.094-9.315-23.798-17.15-38.204-17.15-12.832 0-23.392 1.813-31.846 4.217a93.576 93.576 0 0 0-3.877 1.176c-1.159.386-2.303.77-3.366 1.17a82.822 82.822 0 0 0-7.428 3.188c-7.052 3.448-10.574 6.51-10.648 6.585l-.908.814-2.761 2.47-1.181-2.47-.945-1.982c-.045-.089-1.1-2.241-3.169-5.416-2.894-4.454-7.84-10.935-14.87-16.765a63.753 63.753 0 0 0-3.412-2.656 60.41 60.41 0 0 0-3.744-2.538c-7.686-4.735-17.189-8.167-28.567-8.167-16 0-27.763 4.868-35.959 10.38-.021.015-.05.029-.074.044a55.924 55.924 0 0 0-3.625 2.671 58.359 58.359 0 0 0-3.692 3.218 56.154 56.154 0 0 0-3.256 3.322c-3.153 3.537-4.637 6.163-4.68 6.244l-3.752 6.858-2.916-7.265c-.377-.933-4.645-11.142-15.07-22.27-1.057-1.123-2.223-2.263-3.412-3.402-1.152-1.102-2.4-2.19-3.677-3.293-7.059-6.058-16.074-11.837-27.423-16.113-1.602-.6-3.212-1.199-4.903-1.731-2.03-.644-4.193-1.184-6.365-1.717-5.42-1.338-11.2-2.374-17.514-2.907-1.24-.104-2.576-.112-3.854-.177-1.175-.067-2.348-.134-3.552-.164-1.152-.03-2.208-.154-3.389-.154-12.102 0-22.742 1.723-32.356 4.475-1.196.34-2.4.666-3.558 1.044-1.344.436-2.718.828-4.01 1.31-47.468 17.636-63.218 64.57-67.058 79.345h424.83c-1.248-4.18-4.357-9.462-8.78-14.797a76.004 76.004 0 0 0-7.03-7.398z"/></g></svg>