<svg width="512" height="512" xmlns="http://www.w3.org/2000/svg"><g fill="#444" fill-rule="evenodd"><path d="M255.986 477C134.132 477 35 377.854 35 256S134.132 35 255.986 35c121.854 0 221 99.146 221 221s-99.146 221-221 221zm0-415.273C148.87 61.727 61.727 148.884 61.727 256s87.143 194.259 194.26 194.259c107.115 0 194.272-87.143 194.272-194.259 0-107.116-87.157-194.273-194.273-194.273z"/><path d="M255.986 242.63h129.838v26.727H255.986v-26.728z"/><path d="M238.873 166.04H265.6v103.22h-26.727V166.04z"/></g></svg>