<svg width="512" height="512" xmlns="http://www.w3.org/2000/svg"><g fill-rule="evenodd"><path d="M220.47 468.902h29.818V386.8h-37.366v-14.927h37.366v-7.464h-37.366v-14.927h37.366v-7.464h-37.366V327.09h37.366v-7.463h-37.366v-14.93h37.366v-7.463h-37.366v-14.927h37.366v-7.465h-37.366v-14.927h37.366v-7.464h-37.366v-14.927h37.366v-7.464h-37.366v-14.928h37.366v-7.464h-37.366v-14.927h37.366v-7.464h-37.366V170.35h37.366v-7.464h-37.366V147.96h74.733v-37.32h-14.947V95.71h-14.947V80.783h-7.473V36h-14.946v44.783h-7.473v14.928h-14.947v14.927h-14.947v323.766c12.757 6.471 21.725 19.175 22.495 34.498zm-7.548-343.336h59.787v14.928h-59.787v-14.928zM145.66 468.902h67.389c-.471-9.218-6.345-19.242-15.074-25.579-5.403-3.919-11.898-6.442-18.922-6.442-14.066 0-26.127 9.158-31.359 21.295a34.202 34.202 0 0 0-2.04-4.135v-59.777h-14.947v45.686a34.39 34.39 0 0 0-15.134-3.486c-14.774 0-32.203 7.747-32.203 26.877.008 2.128.262 5.561.636 5.561h61.655zm0-82.102h35.41l-42.882-168.87L97.315 386.8h33.4z"/><path d="M310.076 434.598a42.383 42.383 0 0 1 7.473-3.276c4.716-1.538 9.738-2.322 14.76-2.322 5.298 0 10.403 1 15.133 2.784V155.42h-89.681v320.944h36.732l-1.113-5.479c-.142-.769-.209-1.344-.314-1.985-.26-1.703-.44-3.21-.44-4.911 0-4.83.926-9.137 2.495-12.988 2.967-7.23 8.348-12.716 14.955-16.403zm-14.947-25.407v-14.927h14.947v14.927h-14.947zm-22.42-14.927h14.946v14.927h-14.947v-14.927zm0-22.392h14.946v14.927h-14.947v-14.927zm0-22.391h14.946v14.927h-14.947v-14.927zm0-22.391h14.946v14.927h-14.947V327.09zm0-22.392h14.946v14.927h-14.947v-14.927zm0-22.392h14.946v14.928h-14.947v-14.928zm0-22.391h14.946v14.927h-14.947v-14.927zm0-22.391h14.946v14.927h-14.947v-14.927zm0-22.392h14.946v14.928h-14.947v-14.928zm0-22.392h14.946v14.928h-14.947V192.74zm37.367 14.928h-14.947v-14.927h14.947v14.927zm0 22.392h-14.947v-14.928h14.947v14.928zm0 22.39h-14.947v-14.927h14.947v14.928zm0 22.392h-14.947v-14.927h14.947v14.927zm0 22.392h-14.947v-14.927h14.947v14.927zm0 22.391h-14.947v-14.927h14.947v14.927zm0 22.392h-14.947v-14.928h14.947v14.928zm0 22.391h-14.947v-14.927h14.947v14.927zm0 22.392h-14.947v-14.927h14.947V386.8zm22.42 22.391h-14.947v-14.927h14.946v14.927zm0-22.39h-14.947v-14.928h14.946V386.8zm0-22.393h-14.947v-14.927h14.946v14.927zm0-22.391h-14.947v-14.928h14.946v14.928zm0-22.392h-14.947v-14.927h14.946v14.927zm0-22.39h-14.947v-14.928h14.946v14.927zm0-22.393h-14.947v-14.927h14.946v14.927zm0-22.391h-14.947v-14.928h14.946v14.928zm0-22.391h-14.947v-14.928h14.946v14.928zm0-22.392h-14.947v-14.927h14.946v14.927zm0-22.391h-14.947v-14.928h14.946v14.928zm-22.42 0h-14.947v-14.928h14.947v14.928zm-22.421-14.928v14.928h-14.947v-14.928h14.947z"/><path d="M395.781 436.874c-14.066 0-26.128 9.158-31.359 21.295-2.077-5.143-5.388-9.629-9.514-13.204-2.263-1.963-4.745-3.687-7.473-5.015a34.39 34.39 0 0 0-15.133-3.486c-4.887 0-10.022.94-14.76 2.77-2.675 1.029-5.209 2.328-7.473 4.007-5.867 4.337-9.97 10.868-9.97 20.1.008 2.128.261 5.561.635 5.561h129.041c-.76-14.928-15.624-32.028-33.994-32.028z"/></g></svg>