<svg width="512" height="512" xmlns="http://www.w3.org/2000/svg"><g fill-rule="evenodd"><path d="M256.5 477C378.16 477 477 378.16 477 256.5S378.16 36 256.5 36 36 134.84 36 256.5 134.84 477 256.5 477zm0-406.326c102.588 0 185.826 83.514 185.826 185.826S358.812 442.326 256.5 442.326 70.674 359.101 70.674 256.5 153.899 70.674 256.5 70.674z"/><path d="M228.469 293.2l74.267 57.798c3.184 2.315 6.932 3.762 10.694 3.762 5.196 0 10.405-2.315 13.589-6.642 5.774-7.511 4.616-18.495-3.184-24.269L256.5 271.246v-118.78c0-9.537-7.8-17.337-17.337-17.337-9.536 0-17.337 7.8-17.337 17.336v127.16c0 5.485 2.605 10.405 6.643 13.588v-.014z"/></g></svg>