<svg width="512" height="512" xmlns="http://www.w3.org/2000/svg"><g fill-rule="evenodd"><path d="M373.88 322.477h-10.85v64.78c2.69-1.095 5.48-1.858 8.302-2.472v-38.44c15.02-3.799 27.093-14.91 32.199-29.351a66.56 66.56 0 0 1-16.124-9.96c-1.229 7.332-4.899 15.443-13.525 15.443z"/><path d="M346.422 345.79v36.275a53.574 53.574 0 0 1 8.303 6.32v-74.202h-6.17c-.805 0-1.452-.124-2.134-.224-3.437-.488-5.48-2.023-6.559-3.4-2.2-2.812-1.967-6.154-1.743-7.548v-13.71a4.151 4.151 0 1 1 8.303 0l-.126 15.31c-.058.324-.016 1.278.117 1.278h8.311v-16.587c0-.573.117-1.12.325-1.618a4.152 4.152 0 0 1 3.827-2.53 4.151 4.151 0 0 1 4.151 4.147v24.88h10.852c4.717 0 5.755-10.432 5.755-13.02v-1.832a66.48 66.48 0 0 1-8.593-12.656c-.847-1.625-1.661-3.275-2.375-4.976a65.982 65.982 0 0 1-5.148-25.602c0-.174.025-.348.025-.522-1.187-.09-2.375-.182-3.578-.182-25.549 0-46.264 20.691-46.264 46.21-.009 20.818 13.774 38.408 32.721 44.189zm-205.174 57.839c9.665-11.546 24.079-17.98 39.638-17.98 8.826 0 17.121 2.322 24.386 6.37V73.67H113.94v311.58c10.81 3.077 20.383 9.588 27.308 18.379zm-2.4-64.565h8.303v16.587h-8.303v-16.587zm0-24.881h8.303v16.587h-8.303v-16.587zm0-24.88h8.303v16.587h-8.303v-16.587zm0-24.882h8.303v16.588h-8.303V264.42zm0-24.88h8.303v16.587h-8.303v-16.587zm0-24.88h8.303v16.586h-8.303V214.66zm0-24.881h8.303v16.587h-8.303V189.78zm0-24.88h8.303v16.587h-8.303V164.9zm0-24.881h8.303v16.587h-8.303v-16.587zm41.515 16.587h-8.303v-16.587h8.303v16.587zm0 24.88h-8.303v-16.587h8.303v16.587zm0 24.881h-8.303V189.78h8.303v16.587zm0 24.881h-8.303v-16.587h8.303v16.587zm0 24.88h-8.303v-16.587h8.303v16.587zm0 24.88h-8.303v-16.587h8.303v16.588zm0 24.882h-8.303v-16.587h8.303v16.587zm0 24.88h-8.303v-16.587h8.303v16.587zm0 24.88h-8.303v-16.586h8.303v16.587zm-24.909-16.586h8.303v16.587h-8.303v-16.587zm0-24.881h8.303v16.587h-8.303v-16.587zm0-24.88h8.303v16.587h-8.303v-16.587zm0-24.882h8.303v16.588h-8.303V264.42zm0-24.88h8.303v16.587h-8.303v-16.587zm0-24.88h8.303v16.586h-8.303V214.66zm0-24.881h8.303v16.587h-8.303V189.78zm0-24.88h8.303v16.587h-8.303V164.9zm8.303-8.294h-8.303v-16.587h8.303v16.587zm16.606-49.761v24.88h-8.303v-24.88h8.303zm-16.606 0v24.88h-8.303v-24.88h8.303zm-24.909 0h8.303v24.88h-8.303v-24.88zM50.97 426.536c0-12.989 5.206-23.107 13.151-30.304a45.091 45.091 0 0 1 8.303-5.939 55.491 55.491 0 0 1 2.806-1.468h-2.806v-16.587H89.03v12.1c3.678-.696 7.423-1.086 11.168-1.086 1.834 0 3.645.132 5.438.332V256.128H6v182.458h45.982l-.084-.589c-.638-3.491-.929-8.542-.929-11.46zm-28.363-79.18h16.606v16.588H22.607v-16.587zm0-24.88h16.606v16.588H22.607v-16.587zm0-24.88h16.606v16.587H22.607v-16.587zm41.514 16.587H47.515v-16.587h16.606v16.587zm0 24.88H47.515v-16.586h16.606v16.587zm-16.605 8.294h16.606v16.587H47.516v-16.587zm41.515 16.587H72.425v-16.587H89.03v16.587zm0-24.88H72.425v-16.587H89.03v16.587zm0-24.881H72.425v-16.587H89.03v16.587zm0-24.88H72.425v-16.588H89.03v16.588zm-24.91 0H47.515v-16.588h16.606v16.588zm-41.514-16.588h16.606v16.588H22.607v-16.588zm0 99.523h16.606v16.587H22.607v-16.587zm24.91 0h16.605v16.587H47.516v-16.587zm184.873 63.927l.083 2.421h35.387l-.084-.589c-.639-3.491-.93-8.542-.93-11.462 0-20.75 12.19-38.663 29.757-47.115V206.367h-83.03v191.407c10.97 9.297 18.177 23.073 18.816 38.39zm47.608-105.395h-8.302v-8.293h8.302v8.293zm-33.211-8.293h16.605v8.293h-16.605v-8.293zm0-24.881h16.605v16.587h-16.605v-16.587zm0-24.88h16.605v16.587h-16.605v-16.588zm0-24.882h16.605v16.587h-16.605v-16.587zm33.211 16.587h-8.302v-16.587h8.302v16.587zm0 24.882h-8.302v-16.588h8.302v16.588zm0 24.88h-8.302v-16.587h8.302v16.587zm0-74.642h-8.302v-16.587h8.302v16.587zm-16.606 0h-16.605v-16.587h16.605v16.587zm-33.211-16.587h8.302v16.587h-8.302v-16.587zm0 24.88h8.302v16.587h-8.302v-16.587zm0 24.881h8.302v16.588h-8.302v-16.588zm0 24.88h8.302v16.588h-8.302v-16.587zm0 24.882h8.302v8.293h-8.302v-8.293zm0 16.587h49.816v8.293h-49.818v-8.293h.002zm0 16.587h49.817v8.293h-49.817v-8.293zm0 16.587h49.817v8.293h-49.817v-8.293zm149.453-87.124a58.227 58.227 0 0 0 25.963 23.695 57.853 57.853 0 0 0 15.551 4.67v87.422c.815.896 1.644 1.767 2.4 2.72 1.794-2.148 3.803-4.055 5.904-5.838V272.718h-11.416c-9.897 0-13.493-8.592-13.493-14.364v-18.81a4.15 4.15 0 0 1 8.302 0v18.81c.025 1.401.465 6.07 5.19 6.07h11.418v-24.88c0-.573.117-1.12.324-1.618a4.154 4.154 0 0 1 3.827-2.53 4.15 4.15 0 0 1 4.151 4.147v49.761h9.772c1.843 0 3.188-.522 4.218-1.642 2.657-2.895 2.799-8.981 2.631-10.89l-.016-20.643a4.151 4.151 0 1 1 8.303 0v20.286c.082.772.754 10.807-4.809 16.861-2.607 2.829-6.177 4.321-10.329 4.321h-9.772v94.48c2.648-1.45 5.413-2.703 8.302-3.666v-76.475c24.329-6.966 42.155-29.3 42.155-55.84 0-32.104-26.054-58.13-58.195-58.13-32.142 0-58.195 26.025-58.195 58.13 0 .307.041.598.041.904a57.81 57.81 0 0 0 7.774 28.114z"/><path d="M213.575 438.586h10.52c-.423-10.856-4.393-20.402-10.52-27.866-2.458-2.994-5.181-5.706-8.303-7.92-6.941-4.927-15.303-7.83-24.386-7.83-17.876 0-33.212 8.742-39.854 24.168a44.176 44.176 0 0 0-27.092-25.37c-2.657-.88-5.447-1.451-8.303-1.809-1.785-.224-3.587-.415-5.438-.415-9.499 0-19.852 3.276-27.774 9.645a37.305 37.305 0 0 0-4.416 4.221c-5.29 5.913-8.735 13.652-8.735 23.197 0 2.704.332 1.683.797 9.978h145.202l8.302.001zm249.612-43.607c-6.102 0-11.865 1.095-17.13 3.043a42.274 42.274 0 0 0-8.302 4.155c-3.097 2.016-5.903 4.396-8.302 7.2-2.458 2.87-4.55 6.112-6.12 9.761-.623-1.535-1.403-2.986-2.185-4.428-7.448-13.76-21.894-23.164-38.65-23.164-3.894 0-7.597.672-11.167 1.65-2.898.788-5.671 1.825-8.303 3.168-2.758 1.401-5.414 2.978-7.822 4.894-.15-.208-.333-.398-.482-.606-2.366-3.226-5.173-6.094-8.303-8.575-7.489-5.939-16.897-9.555-27.2-9.555-8.279 0-16.001 2.563-22.618 6.85-12.836 8.31-21.456 23.206-21.456 39.246 0 2.703.334 1.683.797 9.977h230.45c-.961-24.89-19.859-43.616-43.207-43.616z"/></g></svg>