<svg width="512" height="512" xmlns="http://www.w3.org/2000/svg"><g fill-rule="evenodd"><path d="M280.835 426.276a172.608 172.608 0 0 1-31.526 2.888c-95.215 0-172.664-77.463-172.664-172.664 0-95.2 77.449-172.664 172.664-172.664 95.215 0 172.663 77.463 172.663 172.664 0 1.373-.028 2.746-.056 4.105.764-.07 1.543-.113 2.336-.113 10.56 0 19.606 6.569 23.287 15.84h.254c6.923 0 13.52 1.388 19.55 3.908.85-7.8 1.288-15.713 1.288-23.74 0-120.923-98.386-219.309-219.308-219.309-120.923 0-219.309 98.386-219.309 219.309S128.4 475.809 249.323 475.809c15.954 0 31.497-1.727 46.489-4.983-9.244-9.216-14.963-21.943-14.963-35.986v-8.578l-.014.014z"/><path d="M225.98 145.458v96.419h-60.66c-12.854 0-23.316 10.447-23.316 23.343 0 12.882 10.448 23.33 23.316 23.33h83.989c12.896 0 23.343-10.448 23.343-23.33V145.458c0-12.882-10.447-23.33-23.343-23.33-12.897 0-23.344 10.448-23.344 23.33h.014zM367.938 315.15c0-3.13-1.09-6.13-3.086-8.523V285.55c0-5.649-4.6-10.25-10.25-10.25h-.212c-5.648 0-10.249 4.601-10.249 10.25v21.078a13.27 13.27 0 0 0-3.086 8.522c0 7.347 5.974 13.336 13.435 13.336h.113c7.347 0 13.335-5.974 13.335-13.336zm31.314-8.537v-21.079c0-5.648-4.601-10.249-10.25-10.249-5.648 0-10.249 4.601-10.249 10.25v21.078a13.27 13.27 0 0 0-3.086 8.522c0 7.347 5.974 13.335 13.336 13.335 7.36 0 13.335-5.974 13.335-13.335 0-3.128-1.09-6.13-3.086-8.522zm24.164-31.313c-5.648 0-10.249 4.6-10.249 10.249v21.078a13.27 13.27 0 0 0-3.086 8.522c0 7.347 5.974 13.336 13.335 13.336 7.362 0 13.336-5.974 13.336-13.336 0-3.128-1.09-6.13-3.087-8.522V285.55c0-5.649-4.6-10.25-10.249-10.25z"/><path d="M446.944 291.14h-3.794v20.499h3.794c8.579 0 15.558 6.979 15.558 15.557V434.87c0 8.578-6.98 15.557-15.558 15.557H330.849c-8.58 0-15.558-6.979-15.558-15.557V327.196c0-8.578 6.979-15.557 15.558-15.557h3.793V291.14h-3.793c-19.876 0-36.056 16.167-36.056 36.042v107.673c0 19.875 16.166 36.041 36.056 36.041h116.095c19.875 0 36.056-16.166 36.056-36.041V327.182c0-19.875-16.166-36.042-36.056-36.042z"/><path d="M344.255 375.78c-7.376 0-13.378 6.003-13.378 13.378 0 7.376 6.002 13.378 13.378 13.378 7.375 0 13.377-6.002 13.377-13.378 0-7.375-6.002-13.377-13.377-13.377zm44.648 0c-7.375 0-13.377 6.003-13.377 13.378 0 7.376 6.002 13.378 13.377 13.378 7.376 0 13.364-6.002 13.364-13.378 0-7.375-6.002-13.377-13.364-13.377zm44.635 0c-7.375 0-13.363 6.003-13.363 13.378 0 7.376 6.002 13.378 13.363 13.378 7.375 0 13.364-6.002 13.364-13.378 0-7.375-5.989-13.377-13.364-13.377zm-89.283 35.872c-7.376 0-13.378 6.003-13.378 13.364 0 7.361 6.002 13.378 13.378 13.378 7.375 0 13.377-6.003 13.377-13.378s-6.002-13.364-13.377-13.364zm44.648 0c-7.375 0-13.377 6.003-13.377 13.364 0 7.361 6.002 13.378 13.377 13.378 7.376 0 13.364-6.003 13.364-13.378s-6.002-13.364-13.364-13.364zm44.635 0c-7.375 0-13.363 6.003-13.363 13.364 0 7.361 6.002 13.378 13.363 13.378 7.375 0 13.364-6.003 13.364-13.378s-5.989-13.364-13.364-13.364zm0-71.743c-7.375 0-13.363 6.002-13.363 13.377 0 7.376 6.002 13.378 13.363 13.378 7.375 0 13.364-6.002 13.364-13.378 0-7.375-5.989-13.377-13.364-13.377z"/></g></svg>