<svg width="512" height="512" xmlns="http://www.w3.org/2000/svg"><g fill-rule="evenodd"><path d="M292.04 271.48h45.369v90.766H292.04zm0-45.384h45.369v7.563H292.04zm68.054-7.564h15.124v-68.074h-15.124V135.33H292.04v30.255h68.054v15.129H292.04v7.563h68.054v15.128H292.04v7.564h68.054zm-68.054 30.256h45.369v7.563H292.04zM93.323 438.399c2.072-17.011 18.194-26.156 32.174-26.156 14.738 0 27.305 8.948 32.5 21.83 4.636-10.786 7.32-37.305 35.744-43.674v50.338c10.752 5.46 18.865 15.256 21.7 27.396a42.74 42.74 0 0 1 1.06 7.563h22.609v-83.194h-30.247v-15.128h30.246v-7.563h-30.246v-15.128h60.492v7.564h15.123V112.639h-15.123V97.51h-15.123V82.383h-7.561V37h-15.123v45.383h-7.561v15.128h-15.123v15.128H193.74v270.717c-23.917 4.577-33.135 21.187-37.96 34.288-7.833-7.95-18.623-12.632-30.284-12.632-19.258 0-40.03 14.31-40.129 37.44a37.805 37.805 0 0 1 3.948-2.291 41.305 41.305 0 0 1 4.007-1.762zm115.54-310.633h60.493v15.128h-60.492v-15.128zm0 22.692h60.493v15.128h-60.492v-15.128zm0 22.691h60.493v15.128h-60.492v-15.128zm0 22.691h60.493v15.128h-60.492V195.84zm0 22.692h60.493v15.128h-60.492v-15.128zm0 22.692h60.493v15.128h-60.492v-15.128zm0 22.692h60.493v15.127h-60.492v-15.127zm0 22.69h60.493v15.128h-60.492v-15.127zm0 22.693h60.493v15.127h-60.492V309.3zm0 22.692h60.493v15.127h-60.492v-15.127zm151.231-105.895h-15.123v136.148h68.053v113.46h22.685V226.095h-75.615zm0 15.128h15.124v15.128h-15.124v-15.128zm0 45.383h15.124v15.127h-15.124v-15.127zm37.808 15.128h-15.123v-15.128h15.123v15.128zm-37.808 7.564h15.124v15.127h-15.124V309.3zm22.685 0h15.123v15.127h-15.123V309.3zm22.685 0h15.123v15.127h-15.123V309.3zm0-7.564v-15.128h15.123v15.128h-15.123zm0-22.692v-15.127h15.123v15.127h-15.123zm-7.562 0h-15.123v-15.127h15.123v15.127zm-37.808-15.127h15.124v15.127h-15.124v-15.127zm0 83.202V331.99h15.124v15.128h-15.124zm22.685 0V331.99h15.123v15.128h-15.123zm22.685 0V331.99h15.123v15.128h-15.123zm15.123-90.767h-15.123v-15.127h15.123v15.127zm-22.685 0h-15.123v-15.127h15.123v15.127z"/><path d="M208.993 475.703c-.13-2.495-.772-5.037-1.626-7.563-2.344-6.936-7.153-13.653-13.633-18.357-5.468-3.972-12.038-6.528-19.146-6.528-14.231 0-26.436 9.28-31.729 21.58-5.194-12.882-17.762-21.997-32.5-21.997-5.807 0-11.992 1.226-17.414 3.812a32.912 32.912 0 0 0-3.765 2.133c-1.346.885-2.564 1.922-3.728 3.025-4.575 4.327-7.668 10.265-7.668 18.26.008 2.156.265 5.635.643 5.635h130.566zM344.971 369.81h-98.299v105.893h15.122v-75.638h128.547v75.638h15.123V369.81h-30.246z"/><path d="M375.218 475.703h7.56v-68.075H269.357v68.075h15.123v-37.82h37.807v37.82h7.562v-37.82h37.808v37.82z"/></g></svg>