<svg width="512" height="512" xmlns="http://www.w3.org/2000/svg"><path d="M249.978 477C128.135 477 29 378.078 29 256.5S128.135 36 249.978 36c121.844 0 220.979 98.922 220.979 220.5S371.822 477 249.978 477zm0-418.964c-109.668 0-198.876 89.027-198.876 198.45 0 109.423 89.221 198.45 198.876 198.45 109.67 0 198.877-89.027 198.877-198.45 0-109.423-89.208-198.45-198.877-198.45zM427.07 255.273h-39.296c-4.067 0-7.362-3.293-7.362-7.345s3.295-7.345 7.362-7.345h39.296c4.067 0 7.363 3.293 7.363 7.345s-3.296 7.345-7.363 7.345zm-30.692-76.568c-4.743 0-8.59-3.845-8.59-8.572 0-4.727 3.847-8.572 8.59-8.572s8.59 3.845 8.59 8.572c0 4.727-3.847 8.572-8.59 8.572zm-62.776 239.959c-4.743 0-8.59-3.845-8.59-8.586 0-4.74 3.847-8.572 8.59-8.572s8.603 3.832 8.603 8.572c0 4.741-3.86 8.586-8.603 8.586zm-.759-307.17c-4.743 0-8.59-3.845-8.59-8.572 0-4.727 3.847-8.572 8.59-8.572 4.744 0 8.59 3.845 8.59 8.572 0 4.727-3.846 8.572-8.59 8.572zm-167.95 252.403a7.343 7.343 0 0 1-5.143 2.081 7.33 7.33 0 0 1-5.267-2.219c-2.84-2.894-2.785-7.565.125-10.39l97.935-95.312L208.2 129.34c-1.324-3.845.73-8.02 4.578-9.343 3.846-1.323 8.038.73 9.362 4.561l45.858 133.113a7.313 7.313 0 0 1-1.834 7.649L164.88 363.884l.013.013zm80.48-242.605c-4.067 0-7.363-3.294-7.363-7.345V74.739c0-4.052 3.296-7.345 7.363-7.345 4.068 0 7.363 3.293 7.363 7.345v39.208c0 4.051-3.295 7.345-7.363 7.345zm-87.47-9.798c-4.743 0-8.59-3.845-8.59-8.572 0-4.727 3.847-8.572 8.59-8.572s8.59 3.845 8.59 8.572c0 4.727-3.847 8.572-8.59 8.572zM102.82 351.439c-4.743 0-8.59-3.845-8.59-8.572 0-4.727 3.847-8.572 8.59-8.572s8.59 3.845 8.59 8.572c0 4.727-3.847 8.572-8.59 8.572zm-.772-172.734c-4.743 0-8.59-3.845-8.59-8.572 0-4.727 3.847-8.572 8.59-8.572s8.59 3.845 8.59 8.572c0 4.727-3.847 8.572-8.59 8.572zm7.363 69.223c0 4.052-3.295 7.345-7.363 7.345H62.753c-4.068 0-7.363-3.293-7.363-7.345s3.295-7.345 7.363-7.345h39.295c4.068 0 7.363 3.293 7.363 7.345zm49.264 153.578c4.743 0 8.59 3.832 8.59 8.572 0 4.741-3.847 8.586-8.59 8.586s-8.59-3.845-8.59-8.586c0-4.74 3.847-8.572 8.59-8.572zm86.698-9.812c4.068 0 7.363 3.294 7.363 7.345v39.208c0 4.066-3.295 7.346-7.363 7.346-4.067 0-7.363-3.294-7.363-7.346V399.04c0-4.051 3.296-7.345 7.363-7.345zm151.763-57.413c4.743 0 8.604 3.845 8.604 8.572 0 4.727-3.86 8.572-8.604 8.572-4.743 0-8.59-3.845-8.59-8.572 0-4.727 3.847-8.572 8.59-8.572z" fill-rule="evenodd"/></svg>