<svg width="512" height="512" xmlns="http://www.w3.org/2000/svg"><path d="M196.744 36v27.563h-27.58V330h174.673V63.563h-27.58V36H196.743zM325.45 293.25h-137.9v-18.375h137.9v18.375zm0-27.563h-137.9v-18.375h137.9v18.375zm0-27.562h-137.9V219.75h137.9v18.375zm0-27.562h-137.9v-18.375h137.9v18.375zm0-27.563h-137.9v-18.375h137.9V183zm0-27.563h-137.9v-18.375h137.9v18.375zm0-27.562h-137.9V109.5h137.9v18.375zm0-45.938v18.375h-137.9V81.937h137.9zm27.58 376.688V339.187H159.97v119.437h-27.58V477h248.22v-18.375h-27.582zm-174.673-82.688v-9.187h156.286v91.875h-9.193v-82.687h-137.9v82.687h-9.193v-82.688zm73.547 82.688h-45.966V403.5h45.966v55.125zm9.192 0V403.5h45.966v55.125h-45.966z" fill-rule="evenodd"/></svg>