<svg width="512" height="512" xmlns="http://www.w3.org/2000/svg"><path d="M249.492 477.28c-122.112 0-221.464-99.258-221.464-221.234 0-121.989 99.352-221.234 221.464-221.234 122.139 0 221.491 99.245 221.491 221.234 0 121.962-99.352 221.234-221.491 221.234zm0-422.489c-111.099 0-201.428 90.286-201.428 201.255 0 110.956 90.343 201.242 201.428 201.242 111.112 0 201.455-90.272 201.455-201.242 0-110.97-90.343-201.255-201.455-201.255zm169.452 214.625c.193-3.318.511-6.622.511-10.024 0-3.373-.304-6.678-.511-10.024h22.98v20.048h-22.98zm-17.853-85.529l18.13-9.208 4.546 8.932-18.31 9.318c-1.326-3.097-2.832-6.083-4.366-9.056v.014zm4.657 191.521l-21.17-14.586c2.031-2.655 4.118-5.282 5.983-8.061l20.88 14.38-5.707 8.267h.014zm-64.365-256.394l9.976-15.499 8.43 5.434-10.06 15.61a150.783 150.783 0 0 0-8.346-5.558v.013zm-97.875-24.818V71.245h20.078v22.951c-3.33-.193-6.646-.498-10.032-.484-3.4 0-6.702.29-10.032.484h-.014zm-79.44 4.563l8.968-4.521 8.194 16.218c-3.013 1.438-6.011 2.945-8.913 4.59l-8.236-16.287h-.013zm82.439 157.287V111.631h14.136v137.862h93.618v19.771H246.59l-81.417 89.249-2.21-2.019 83.544-91.599v-8.862.013zm-90.73 169.275l-8.47-5.434 14.536-22.467c2.764 1.866 5.652 3.54 8.553 5.212l-14.633 22.69h.014zM95.68 161.668l5.721-8.282 16.237 11.2c-1.921 2.737-3.676 5.585-5.445 8.448l-16.513-11.38v.014zM65.2 269.416v-20.048h22.993c-.18 3.332-.497 6.637-.497 10.024 0 3.402.304 6.706.497 10.024H65.199zm45.157 73.349L87.93 354.144l-4.56-8.918 22.165-11.269c1.506 2.987 3.137 5.918 4.822 8.808zM263.6 424.602v22.993h-20.078v-22.993c3.344.194 6.633.512 10.06.526 3.371 0 6.702-.318 10.018-.526zm79.455 5.448l-8.982 4.535-12.257-24.293c3.04-1.383 6.08-2.779 9.023-4.328l12.202 24.086h.014z" fill-rule="evenodd"/></svg>