<svg width="512" height="512" xmlns="http://www.w3.org/2000/svg"><path d="M444.775 287.132c0 104.218-84.508 188.715-188.775 188.715-104.267 0-188.775-84.497-188.775-188.715 0-101.047 79.486-183.273 179.347-188.22V66.354h-14.15c-8.346 0-15.112-6.764-15.112-15.107s6.766-15.093 15.112-15.093h45.291c8.346 0 15.113 6.75 15.113 15.093s-6.767 15.107-15.113 15.107h-16.029v32.364c101.605 3.007 183.091 86.12 183.091 188.415zm-198.203-130.21v-34.439c-46.75 2.646-88.207 24.653-116.778 57.995l24.856 24.848-10.676 10.688-23.533-23.54c-19.157 27.028-30.555 59.933-30.555 95.59 0 1.593.225 3.773.225 3.773h36.57v15.107H91.194c3.67 30.847 15.894 59.934 34.104 83.189l18.691-18.685 10.676 10.673-19.488 19.496c28.255 30.005 67.487 49.562 111.395 52.042v-41.023h15.097v41.219c44.946-1.534 85.26-20.94 114.266-51.26l-21.412-21.406 10.676-10.673 20.706 20.684c18.646-23.45 31.187-52.928 34.916-84.24h-38.344v-15.108h39.412c.045-1.563.24-2.18.24-3.773 0-36.649-12.03-70.366-32.149-97.785l-24.781 24.773-10.676-10.673 25.954-25.93c-29.278-33.116-71.471-54.583-118.793-56.176v34.634h-15.112zm16.03 134.93h52.87c4.165 0 7.548 3.397 7.548 7.546 0 4.164-3.383 7.561-7.549 7.561h-60.418c-4.166 0-7.549-3.397-7.549-7.56v-104.73a7.552 7.552 0 0 1 7.549-7.547 7.552 7.552 0 0 1 7.548 7.546v97.184z" fill-rule="evenodd"/></svg>