<svg width="512" height="512" xmlns="http://www.w3.org/2000/svg"><g fill-rule="evenodd"><path d="M175.898 462.36c-.87-2.57-2.083-5.082-3.606-7.497-6.011-9.516-16.61-17.178-28.881-17.178-12.429 0-23.282 7.146-29.279 17.178a36.561 36.561 0 0 0-2.174 4.213 34.321 34.321 0 0 0-2.046-4.154v-37.541H94.41c.165.15.337.301.503.457v22.945a34.451 34.451 0 0 0-15.18-3.502c-11.033 0-23.521 4.333-29.188 14.47-1.679 2.991-2.624 6.576-2.893 10.617h-5.21v14.995H192.36v-14.995l-16.462-.008zm-80.985-52.476h42.613l-4.512-17.8-.75-2.969-.96-3.771-28.708-113.23-31.753 131.397-1.042 4.31-.494 2.063h19.37zm314.826-254.921h-29.984v307.404h-7.495V387.39h-37.48v-14.995h37.48v-7.497h-37.48v-14.996h37.48v-7.497h-37.48V327.41h37.48v-7.497h-37.48v-14.997h37.48v-7.497h-37.48v-14.995h37.48v-7.498h-37.48v-14.995h37.48v-7.497h-37.48v-14.996h37.48v-7.497h-37.48v-14.997h37.48v-7.497h-37.48v-14.995h37.48v-7.498h-37.48v-14.996h37.48v-7.497h-37.48v-14.995h74.96v-37.488h-14.992V94.98h-14.992V79.986h-7.495V35h-14.992v44.986h-7.495v14.995H334.78v14.996h-14.992v352.391H297.3V357.401l-22.292-67.48h-37.675v22.494h7.496V297.42h24.78l20.195 60.588v104.36h-22.488v14.996h202.389V154.963H409.74zm-74.959-29.99h59.967v14.994H334.78v-14.995zm82.455 284.91v-14.995h14.992v14.996h-14.992zm-22.488-14.995h14.992v14.996h-14.992v-14.996zm0-22.493h14.992v14.995h-14.992v-14.995zm0-22.493h14.992v14.996h-14.992v-14.996zm0-22.492h14.992v14.995h-14.992V327.41zm0-22.494h14.992v14.996h-14.992v-14.996zm0-22.493h14.992v14.995h-14.992v-14.995zm0-22.493h14.992v14.996h-14.992V259.93zm0-22.492h14.992v14.995h-14.992v-14.995zm0-22.494h14.992v14.996h-14.992v-14.996zm0-22.493h14.992v14.995h-14.992v-14.995zm37.48 14.996h-14.992v-14.995h14.992v14.995zm0 22.493h-14.992v-14.996h14.992v14.996zm0 22.492h-14.992v-14.995h14.992v14.995zm0 22.494h-14.992V259.93h14.992v14.996zm0 22.493h-14.992v-14.995h14.992v14.995zm0 22.493h-14.992v-14.996h14.992v14.996zm0 22.492h-14.992V327.41h14.992v14.995zm0 22.494h-14.992v-14.996h14.992v14.996zm0 22.493h-14.992v-14.995h14.992v14.995zm7.496 7.497h14.991v14.996h-14.991v-14.996zm0-7.497v-14.995h14.991v14.995h-14.991zm0-22.493v-14.996h14.991v14.996h-14.991zm0-22.494V327.41h14.991v14.995h-14.991zm0-22.492v-14.996h14.991v14.996h-14.991zm0-22.493v-14.995h14.991v14.995h-14.991zm0-22.493V259.93h14.991v14.996h-14.991zm0-22.494v-14.995h14.991v14.995h-14.991zm0-22.492v-14.996h14.991v14.996h-14.991zm0-22.493v-14.995h14.991v14.995h-14.991zm0-22.493v-14.996h14.991v14.996h-14.991zm-7.496 0h-14.992v-14.996h14.992v14.996zm-22.488-14.996v14.996h-14.992v-14.996h14.992z"/><path d="M237.334 319.912l-14.992 29.99h37.48l-14.992-29.99z"/></g></svg>