<svg width="512" height="512" xmlns="http://www.w3.org/2000/svg"><g fill-rule="evenodd"><path d="M430.09 338.14h-34.7l-4.182 17.322h30.024v66.785c3.013-.493 6.077-.813 9.203-.813 2.763 0 5.462.285 8.111.7v-66.672h27.16L427.56 204.975l-14.933 61.806 14.727 58.41 2.735 12.949zm-69.46 82.877c6.269 1.785 12.104 4.695 17.315 8.513v-91.39H360.63v82.877zm-136.215 53.172l.087 2.528h14.926v-44.57c0-8.869 7.185-16.058 16.05-16.058h2.528c8.866 0 16.051 7.189 16.051 16.058v44.57h21.973l-.087-.615c-.666-3.646-.969-8.921-.969-11.97 0-13.563 5.429-24.13 13.713-31.647V35h-103.89v302.196l.2.944h-.2v95.956c11.437 9.709 18.952 24.095 19.618 40.093zm-2.302-92.744v-17.323h17.315v17.323h-17.315zm0-43.305h17.315v17.322h-17.315V338.14zm0-25.984h17.315v17.322h-17.315v-17.322zm0-25.984h17.315v17.322h-17.315v-17.322zm0-25.983h17.315v17.322h-17.315V260.19zm0-25.983h17.315v17.322h-17.315v-17.322zm0-25.984h17.315v17.323h-17.315v-17.323zm0-25.983h17.315v17.322h-17.315v-17.322zm0-25.983h17.315v17.322h-17.315v-17.322zm0-25.983h17.315v17.322h-17.315v-17.322zm0-25.984h17.315v17.322h-17.315V104.29zm0-25.984h17.315v17.322h-17.315V78.305zm43.286 17.323h-17.314V78.305h17.314v17.323zm0 25.983h-17.314V104.29h17.314v17.322zm0 25.983h-17.314v-17.322h17.314v17.322zm0 25.984h-17.314v-17.322h17.314v17.322zm0 25.984h-17.314v-17.323h17.314v17.323zm0 25.983h-17.314v-17.323h17.314v17.323zm0 25.982h-17.314v-17.322h17.314v17.322zm0 25.984h-17.314V260.19h17.314v17.322zm0 25.984h-17.314v-17.322h17.314v17.322zm0 25.983h-17.314v-17.322h17.314v17.322zm0 25.983h-17.314v-17.322h17.314v17.322zm-17.314 25.984v-17.323h17.314v17.323h-17.314zm43.286 0h-17.315v-17.323h17.315v17.323zm0-25.984h-17.315v-17.322h17.315v17.322zm0-25.983h-17.315v-17.322h17.315v17.322zm0-25.983h-17.315v-17.322h17.315v17.322zm0-25.984h-17.315V260.19h17.315v17.322zm0-25.984h-17.315v-17.322h17.315v17.322zm0-25.982h-17.315v-17.323h17.315v17.323zm0-25.983h-17.315v-17.323h17.315v17.323zm0-25.984h-17.315v-17.322h17.315v17.322zm0-25.984h-17.315v-17.322h17.315v17.322zm0-25.983h-17.315V104.29h17.315v17.322zm0-25.983h-17.315V78.305h17.315v17.323zm0-25.984h-17.315V52.322h17.315v17.322zm-25.972 0h-17.314V52.322h17.314v17.322zm-43.286-17.322h17.315v17.322h-17.315V52.322z"/><path d="M377.945 329.478h41.019l-11.002-43.392-38.674-152.566-47.347 195.958h38.69zM152.853 476.717h62.915c-.443-11.338-4.581-21.305-10.97-29.1-8.26-10.083-20.362-16.44-34.084-16.44-6.363 0-12.371 1.144-17.86 3.18V338.14h-17.315v108.073c-2.563 2.997-4.744 6.383-6.38 10.194-6.805-16.881-23.263-28.815-42.569-28.815-.987 0-1.99.06-2.987.13v-72.259h27.159l-4.39-17.323H85.854l2.588-12.861 7.117-29.786-22.942-90.518-36.37 150.486H66.28v76.825c-12.39 5.906-22.37 17.34-22.37 34.02 0 2.824.345 1.759.83 10.42h108.114v-.009z"/><path d="M135.539 329.478h58.334L144.195 133.52l-43.772 181.174-3.575 14.784h7.324zm303.008 102.513c-2.64-.493-5.333-.813-8.11-.813-3.17 0-6.218.355-9.204.875-14.571 2.52-26.604 10.99-32.352 24.363-2.467-6.123-6.242-11.572-10.935-16.067a45.687 45.687 0 0 0-17.315-10.427 45.558 45.558 0 0 0-14.328-2.32c-13.997 0-29.754 6.841-37.616 20.006-3.134 5.249-5.056 11.467-5.056 18.708 0 2.823.347 1.758.831 10.42h171.026c-.891-23.04-16.475-40.943-36.94-44.745z"/></g></svg>