<svg width="512" height="512" xmlns="http://www.w3.org/2000/svg"><path d="M283.938 229.063c7.463 7.463 11.194 16.608 11.194 27.437s-3.732 19.975-11.195 27.438c-7.463 7.463-16.608 11.194-27.437 11.194s-19.975-3.732-27.438-11.195c-7.463-7.463-11.194-16.608-11.194-27.437s3.732-19.975 11.195-27.438c7.463-7.463 16.608-11.194 27.437-11.194s19.975 3.732 27.438 11.195zM476 256.5c0 20.194-2.634 39.656-7.902 58.387-5.27 18.729-12.658 36.215-22.17 52.46a218.845 218.845 0 0 1-34.241 44.34 218.728 218.728 0 0 1-44.34 34.241c-16.244 9.512-33.73 16.902-52.461 22.17-18.73 5.268-38.192 7.902-58.386 7.902-20.194 0-39.656-2.634-58.387-7.902-18.73-5.27-36.218-12.658-52.46-22.17a218.845 218.845 0 0 1-44.34-34.241 218.805 218.805 0 0 1-34.242-44.34c-9.511-16.244-16.901-33.73-22.169-52.46C39.634 296.156 37 276.693 37 256.5c0-20.194 2.634-39.656 7.902-58.387 5.268-18.73 12.658-36.218 22.17-52.46a218.845 218.845 0 0 1 34.242-44.34 218.845 218.845 0 0 1 44.339-34.242c16.243-9.511 33.73-16.901 52.46-22.169C216.843 39.634 236.306 37 256.5 37c30.145 0 58.606 5.78 85.385 17.34 26.78 11.56 50.047 27.218 69.802 46.974 19.755 19.755 35.412 43.022 46.972 69.8C470.22 197.894 476 226.356 476 256.5zm-88.239-14.487c0-1.756-.659-3.293-1.976-4.61-1.317-1.316-2.854-1.975-4.611-1.975l-33.364-3.512c-.878-4.097-2.122-7.975-3.732-11.633a157.985 157.985 0 0 0-5.485-11.195l21.072-25.901c2.634-3.22 2.488-6.292-.439-9.219l-20.194-20.194c-1.463-1.463-3.07-2.195-4.827-2.195-1.756 0-3.22.585-4.39 1.756l-25.9 21.072a157.384 157.384 0 0 0-11.194-5.487c-3.66-1.61-7.536-2.855-11.633-3.732l-3.512-33.364c0-1.756-.659-3.293-1.976-4.61-1.317-1.316-2.854-1.975-4.61-1.975h-28.973c-1.756 0-3.293.659-4.61 1.976-1.317 1.317-1.975 2.853-1.975 4.609l-3.512 33.364c-4.098.878-7.976 2.122-11.634 3.732a157.107 157.107 0 0 0-11.194 5.487l-25.902-21.072c-1.17-1.17-2.634-1.756-4.39-1.756-1.756 0-3.366.732-4.83 2.195l-20.193 20.194c-2.927 2.927-3.073 6-.44 9.219l21.073 25.901a157.108 157.108 0 0 0-5.488 11.195c-1.61 3.658-2.853 7.536-3.731 11.633l-33.364 3.512c-1.756 0-3.293.659-4.61 1.976-1.317 1.316-1.975 2.853-1.975 4.609v28.974c0 1.754.658 3.292 1.975 4.61 1.317 1.317 2.854 1.975 4.61 1.975l33.364 3.512c.878 4.098 2.122 7.974 3.731 11.634 1.61 3.659 3.44 7.39 5.488 11.193l-21.072 25.901c-2.634 3.22-2.488 6.292.439 9.22l20.194 20.193c1.463 1.464 3.073 2.196 4.829 2.196 1.756 0 3.22-.584 4.39-1.755l25.9-21.072a157.675 157.675 0 0 0 11.195 5.486c3.659 1.61 7.537 2.854 11.634 3.731l3.512 33.364c0 1.756.658 3.294 1.975 4.612 1.317 1.317 2.854 1.975 4.61 1.975h28.974c1.755 0 3.292-.658 4.61-1.975 1.316-1.318 1.975-2.854 1.975-4.612l3.512-33.364c4.097-.878 7.973-2.122 11.633-3.731 3.659-1.61 7.39-3.44 11.193-5.486l25.901 21.072c1.171 1.171 2.634 1.755 4.39 1.755 1.756 0 3.364-.732 4.827-2.196l20.194-20.194c2.927-2.926 3.073-5.998.44-9.219l-21.073-25.9a157.953 157.953 0 0 0 5.486-11.194c1.61-3.66 2.854-7.537 3.731-11.634l33.364-3.512c1.756 0 3.295-.659 4.612-1.976 1.317-1.317 1.975-2.854 1.975-4.609v-28.974h.001z" fill="#010002" fill-rule="evenodd"/></svg>