<svg width="512" height="512" xmlns="http://www.w3.org/2000/svg"><g fill-rule="evenodd"><path d="M302.447 120.43l8.201-17.199c6.77-14.21 17.982-25.375 31.788-32.037h-60.099c5.047 9.139 4.487 19.28-4.116 29.312 12.223 0 22.068 8.719 24.226 19.924z"/><path d="M468.613 71.194h-56.761c21.415 17.028 19.008 40.074 1.818 47.24l-8.495 3.541c43.761 0 43.467-4.038 43.467 23.022 5.823 12.082 5.389 25.918 0 37.699v144.151c0 6.149-4.986 11.135-11.135 11.135H73.559c-6.149 0-11.135-4.985-11.135-11.135V170.559c-6.289-9.24-4.224-18.03-4.224-45.416 0-13.511 10.933-24.637 24.676-24.637-7.501-7.493-9.705-19.101-4.084-29.312h-36.34C28.399 71.194 17 82.592 17 96.646v269.218c0 14.054 11.399 25.453 25.453 25.453h168.696l-22.719 54.664h-10.421c-9.053 0-16.398 7.345-16.398 16.4 0 9.053 7.345 16.398 16.398 16.398h155.046c9.055 0 16.4-7.345 16.4-16.398 0-9.055-7.345-16.4-16.4-16.4h-10.419l-22.719-54.664h168.696c14.053 0 25.451-11.399 25.451-25.453V96.646c.001-14.054-11.398-25.452-25.451-25.452zm-82.322 303.655c-6.585 0-11.927-5.343-11.927-11.927 0-6.585 5.342-11.927 11.927-11.927s11.927 5.342 11.927 11.927c0 6.584-5.342 11.927-11.927 11.927zm38.761 0c-6.585 0-11.927-5.343-11.927-11.927 0-6.585 5.342-11.927 11.927-11.927s11.927 5.342 11.927 11.927c0 6.584-5.341 11.927-11.927 11.927z"/><path d="M106.792 101.919a82.84 82.84 0 0 0-6.025 14.489c-11.741 0-26.663-2.71-26.663 8.735 0 44.197-4.503 40.369 26.647 40.369a84.227 84.227 0 0 0 6.041 14.496c-18.526 18.52-20.95 16.804-5.186 32.558 9.861-10.669 19.116-12.564 48.109-24.645-15.28-10.071-25.405-27.332-25.405-46.954 0-31.02 25.235-56.255 56.247-56.255 34.956 0 62.181 31.921 55.145 67.374l51.324-21.4c0-16.593-4.457-14.279-26.665-14.279-1.552-5.055-3.602-9.9-6.04-14.497 8.293-8.3 20.794-16.966 12.703-25.057-31.432-31.439-25.375-31.696-47.427-9.652-4.597-2.438-9.427-4.48-14.504-6.025 0-11.717 2.702-26.664-8.713-26.664-44.197 0-40.361-4.519-40.361 26.664-5.062 1.545-9.907 3.587-14.504 6.025-8.293-8.3-16.942-20.778-25.049-12.703-31.228 31.216-31.756 25.353-9.674 47.421z"/><path d="M180.557 100.614c-22.253 0-40.345 18.099-40.345 40.353 0 18.433 12.485 33.853 29.397 38.661l46.092-19.21c15.358-27.681-5.234-59.804-35.144-59.804z"/><path d="M311.92 137.543l-188.294 78.479c-36.308 15.133-13.914 70.86 23.123 55.456l188.31-78.471c49.074 17.192 51.092 19.342 88.1-4.123 20.328-12.897 15.668-45.159 3.198-40.004l-32.984 13.736c-5.761 2.406-12.423-.312-14.846-6.127-16.71-40.066-19.24-32.62 29.025-52.73 12.098-5.039-6.957-31.354-30.671-25.88l-16.368 3.735c-29.134 6.654-35.703 28.838-48.593 55.929z"/></g></svg>