<svg width="512" height="512" xmlns="http://www.w3.org/2000/svg"><g fill-rule="evenodd"><path d="M300.791 437.715a183.015 183.015 0 0 1-11.055 2.395c-9.647 1.793-16.025 11.068-14.24 20.72a17.724 17.724 0 0 0 7.242 11.287 17.725 17.725 0 0 0 13.475 2.945 221.732 221.732 0 0 0 13.17-2.859c9.527-2.37 15.33-12.017 12.954-21.536-2.371-9.527-12.013-15.324-21.546-12.952zM432.262 199.5a17.718 17.718 0 0 0 6.626 8.932c4.452 3.135 10.279 4.19 15.84 2.352 9.321-3.095 14.372-13.143 11.288-22.458a220.739 220.739 0 0 0-4.625-12.652c-3.646-9.114-13.987-13.55-23.109-9.905-9.112 3.643-13.552 13.984-9.903 23.1a185.098 185.098 0 0 1 3.883 10.631zm-73.701 212.84a186.203 186.203 0 0 1-9.634 5.95c-8.507 4.906-11.42 15.777-6.515 24.278a17.74 17.74 0 0 0 5.148 5.646c5.485 3.858 12.933 4.436 19.134.864a221.559 221.559 0 0 0 11.467-7.082c8.188-5.408 10.442-16.434 5.03-24.624-5.413-8.193-16.438-10.443-24.63-5.031zM477.07 249.138c-.387-9.81-8.652-17.444-18.467-17.061-9.803.386-17.446 8.651-17.061 18.457.147 3.749.185 7.554.099 11.3-.138 6.15 2.872 11.634 7.549 14.93a17.73 17.73 0 0 0 9.834 3.232c9.813.217 17.945-7.563 18.162-17.377.098-4.475.061-9.01-.116-13.481zm-47.71 116.45c-7.868-5.902-19-4.3-24.893 3.552a185.507 185.507 0 0 1-7.067 8.836c-6.36 7.47-5.462 18.69 2.01 25.051.426.362.857.693 1.304 1.005 7.428 5.235 17.752 4.032 23.758-3.014a220.828 220.828 0 0 0 8.436-10.55c5.894-7.852 4.299-18.987-3.548-24.88zm26.134-64.245c-9.37-2.937-19.346 2.277-22.282 11.642a188.18 188.18 0 0 1-3.713 10.694c-2.952 7.751-.123 16.28 6.36 20.85a17.73 17.73 0 0 0 3.922 2.08c9.173 3.5 19.445-1.1 22.941-10.274a228.36 228.36 0 0 0 4.417-12.718c2.933-9.367-2.279-19.338-11.645-22.274zM223.227 440.27a183.613 183.613 0 0 1-45.601-14.487c-.171-.09-.324-.191-.504-.273a194.2 194.2 0 0 1-10.105-5.114c-.012-.014-.032-.022-.05-.03a189.655 189.655 0 0 1-17.688-11.05c-83.63-58.892-103.738-174.82-44.823-258.42 12.81-18.173 28.314-33.333 45.598-45.35.213-.148.425-.295.636-.444 60.905-41.951 143.605-44.778 208.276-1.67l-13.89 20.062c-3.861 5.585-1.486 9.654 5.274 9.046l60.335-5.4c6.768-.608 10.816-6.461 8.996-12.996L403.479 55.79c-1.814-6.542-6.458-7.326-10.323-1.742l-13.922 20.11C331.774 42.307 274.85 30.163 218.35 39.957a224.27 224.27 0 0 0-16.835 3.592l-.112.02c-.213.053-.43.122-.638.18-48.72 12.507-91.229 40.913-121.561 81.443-.256.303-.52.6-.76.93a217.826 217.826 0 0 0-7.684 11.082c-.19.28-.334.566-.5.85-25.03 38.774-37.103 83.601-35.033 129.238.005.15-.004.301 0 .455.2 4.458.554 8.978 1.034 13.427.026.287.09.559.138.846a219.369 219.369 0 0 0 1.9 13.442c7.932 45.747 29.52 86.912 61.867 118.943.075.075.153.157.229.234.026.03.056.045.081.073a223.99 223.99 0 0 0 28.323 23.66c26.637 18.764 56.298 31.167 88.152 36.881 9.665 1.736 18.898-4.696 20.632-14.353 1.733-9.664-4.695-18.9-14.357-20.631z"/><path d="M245.21 114.115c-7.95 0-14.39 6.443-14.39 14.38v143.258l131.066 67.73a14.303 14.303 0 0 0 6.59 1.606c5.206 0 10.234-2.834 12.79-7.778 3.646-7.057.887-15.727-6.172-19.372l-115.51-59.697V128.494c-.001-7.936-6.433-14.38-14.374-14.38z"/></g></svg>