<svg width="512" height="512" xmlns="http://www.w3.org/2000/svg"><g fill-rule="evenodd"><path d="M159.054 294.04c-2.361-2.506-2.361-6.607 0-9.114l41.797-44.372c2.362-2.506 2.661-6.854.668-9.662l-4.208-5.93c-1.993-2.807-5.572-3.07-7.95-.581l-57.96 60.579c-2.38 2.486-2.38 6.557 0 9.046l57.96 60.576c2.38 2.488 5.957 2.224 7.95-.582l4.21-5.93c1.994-2.81 1.69-7.156-.67-9.661l-41.797-44.369zm125.913-75.312h-7.778c-3.442 0-7.184 2.662-8.313 5.915l-45.064 129.675c-1.13 3.252.762 5.916 4.203 5.916h7.774c3.44 0 7.182-2.664 8.313-5.916l45.065-129.674c1.133-3.254-.76-5.916-4.2-5.916zm38.658 5.652c-2.38-2.487-5.955-2.225-7.95.583l-4.207 5.929c-1.994 2.808-1.692 7.156.667 9.662l41.8 44.372c2.362 2.507 2.362 6.608 0 9.114l-41.8 44.369c-2.361 2.505-2.66 6.851-.667 9.66l4.207 5.93c1.995 2.807 5.57 3.07 7.95.581l57.96-60.575c2.38-2.488 2.378-6.56 0-9.045l-57.96-60.58z"/><path d="M471.936 51.047H41.044C25.03 51.047 12 64.087 12 80.117v351.746c0 16.03 13.03 29.07 29.044 29.07h430.892c16.017 0 29.044-13.04 29.044-29.07V80.117c.003-16.028-13.027-29.07-29.044-29.07zM213.03 87.642c0-3.65 2.985-6.636 6.63-6.636h39.755c3.647 0 6.628 2.986 6.628 6.636v12.477c0 3.65-2.984 6.636-6.628 6.636H219.66c-3.645 0-6.629-2.987-6.629-6.636V87.642zm-81.627 0c0-3.65 2.984-6.636 6.63-6.636h39.754c3.647 0 6.63 2.986 6.63 6.636v12.477c0 3.65-2.985 6.636-6.63 6.636h-39.755c-3.646 0-6.629-2.987-6.629-6.636V87.642zm-79.56 0c0-3.65 2.983-6.636 6.628-6.636h39.755c3.646 0 6.63 2.986 6.63 6.636v12.477c0 3.65-2.985 6.636-6.63 6.636H58.471c-3.646 0-6.629-2.987-6.629-6.636V87.642zm425.9 340.395c0 3.827-3.158 6.958-7.016 6.958H42.256c-3.86 0-7.017-3.13-7.017-6.958V138.23c0-3.826 3.157-6.958 7.017-6.958h428.472c3.859 0 7.017 3.132 7.017 6.958v289.808h-.001z"/></g></svg>