<svg width="512" height="512" xmlns="http://www.w3.org/2000/svg"><g fill-rule="evenodd"><path d="M318.533 264.017c4.79-1.382 16.004-4.627 21.217-19.946l10.74-31.555 4.32 1.466a3.81 3.81 0 0 0 4.82-2.37l5.762-16.93a3.801 3.801 0 0 0-2.374-4.813l-139.237-47.3a3.811 3.811 0 0 0-4.82 2.37l-5.761 16.93a3.807 3.807 0 0 0 2.373 4.813l4.32 1.468-10.933 32.13c-5.163 15.169-1.748 20.29 4.73 28.042l28.176 33.71-3.14 9.227c-10.782 2.337-38.955 8.47-42.748 9.565-4.788 1.384-16.005 4.625-21.22 19.946l-9.246 27.17-4.32-1.467a3.812 3.812 0 0 0-4.82 2.37l-5.76 16.929a3.805 3.805 0 0 0 2.373 4.814l139.238 47.302a3.812 3.812 0 0 0 4.818-2.373l5.759-16.926a3.803 3.803 0 0 0-2.373-4.816l-4.318-1.467 9.44-27.745c5.162-15.167 1.75-20.291-4.73-28.04l-28.175-33.71 3.139-9.227c10.782-2.337 38.955-8.469 42.75-9.567zm-58.844 24.605l30.64 36.652c2.35 2.813 3.595 4.348 3.932 5.754.406 1.688-.136 4.677-1.654 9.134l-9.442 27.747-104.71-35.571 9.245-27.17c2.92-8.575 8.212-10.106 12.075-11.223 3.02-.872 28.938-6.55 45.622-10.155a6.835 6.835 0 0 0 5.026-4.477l5.621-16.517a6.827 6.827 0 0 0-1.224-6.575l-30.546-36.543-.093-.112c-2.351-2.812-3.596-4.348-3.933-5.754-.405-1.688.135-4.675 1.654-9.134l10.934-32.13 104.712 35.57-10.741 31.556c-2.918 8.578-8.208 10.107-12.072 11.224-3.02.873-28.937 6.552-45.62 10.155a6.84 6.84 0 0 0-5.029 4.478l-5.62 16.515a6.829 6.829 0 0 0 1.223 6.576z"/><path d="M342.412 418.861a171.736 171.736 0 0 1-9.361 4.924c-.51.249-1.003.521-1.48.815-.505.176-1.008.38-1.508.612a171.675 171.675 0 0 1-42.667 13.47c-.188.027-.376.038-.566.072a174.707 174.707 0 0 1-10.484 1.522c-.038.006-.076.015-.114.02a177.345 177.345 0 0 1-19.435 1.066c-75.494 0-139.877-48.396-163.731-115.76-.36-1.028-.721-2.053-1.063-3.083-5.718-17.179-8.824-35.539-8.824-54.612 0-19.113 3.12-37.513 8.862-54.724.125-.376.246-.75.373-1.126.343-1.002.698-2 1.06-2.996.168-.468.338-.933.51-1.397 19.824-53.304 65.166-94.312 121.117-108.143.035-.008.07-.011.106-.02.827-.204 1.66-.404 2.495-.596.094-.021.184-.055.274-.078a173.71 173.71 0 0 1 37.923-4.364l.15 17.833c.046 5.537 3.545 7.136 7.77 3.557l37.707-31.931c4.225-3.579 4.18-9.38-.11-12.888L263.18 39.739c-4.287-3.507-7.757-1.85-7.71 3.686l.15 17.799c-54.823.303-106.318 21.764-145.118 60.527A210.612 210.612 0 0 0 99.55 133.57c-.02.023-.043.042-.064.067-.129.15-.25.305-.377.454C68.57 169.895 51.352 214.52 50 261.86c-.033.367-.073.733-.082 1.109a205.193 205.193 0 0 0 .096 12.614c.01.305.05.603.08.902 1.75 43.133 16.678 83.913 42.869 117.69.089.116.16.24.25.356a204.544 204.544 0 0 0 8.03 9.712c.178.202.374.378.557.57 2.8 3.155 5.692 6.245 8.702 9.251 30.718 30.69 69.396 50.534 111.38 57.622l.384.072c.096.014.19.02.284.035a209.775 209.775 0 0 0 34.246 2.814c30.5 0 59.88-6.484 87.325-19.265a16.4 16.4 0 0 0 1.694-.924 16.03 16.03 0 0 0 1.815-.753 208.23 208.23 0 0 0 11.173-5.872c7.996-4.524 10.81-14.666 6.283-22.654-4.53-7.99-14.68-10.797-22.675-6.277zm58.551-247.697c3.211 4.775 8.469 7.351 13.822 7.351 3.19 0 6.419-.914 9.265-2.826 7.626-5.12 9.653-15.446 4.528-23.066a204.16 204.16 0 0 0-7.36-10.245c-5.581-7.292-16.022-8.679-23.32-3.103-7.297 5.578-8.687 16.011-3.102 23.3a174.488 174.488 0 0 1 6.167 8.589zm21.128 43.651c1.07 3.338 2.052 6.76 2.923 10.173 1.919 7.52 8.686 12.52 16.11 12.52 1.359 0 2.744-.168 4.12-.518 8.905-2.267 14.284-11.317 12.014-20.211a207.95 207.95 0 0 0-3.48-12.102c-2.8-8.742-12.165-13.562-20.915-10.761-8.752 2.8-13.574 12.157-10.772 20.9zm-10.597 164.976c-6.953-6.003-17.456-5.241-23.466 1.702a173.654 173.654 0 0 1-7.164 7.786c-6.422 6.566-6.3 17.089.274 23.506a16.59 16.59 0 0 0 11.624 4.734 16.6 16.6 0 0 0 11.902-5.006 206.572 206.572 0 0 0 8.533-9.276c6.007-6.946 5.246-17.442-1.703-23.446zm36.01-122.679c-9.2-.276-16.854 6.942-17.126 16.117-.104 3.513-.32 7.068-.643 10.563-.84 9.14 5.897 17.232 15.047 18.071.517.048 1.03.07 1.54.07 8.498 0 15.757-6.478 16.547-15.102.384-4.172.643-8.413.767-12.609.271-9.172-6.948-16.836-16.132-17.11zm-7.399 64.454c-8.56-3.348-18.21.869-21.56 9.418a174.32 174.32 0 0 1-4.161 9.739c-3.862 8.328-.235 18.207 8.102 22.066a16.584 16.584 0 0 0 6.983 1.544c6.282 0 12.292-3.57 15.106-9.637 1.76-3.8 3.43-7.698 4.954-11.592 3.35-8.547-.87-18.19-9.424-21.538zm-56.658-196.482c5.469-7.379 3.916-17.787-3.47-23.25a207.994 207.994 0 0 0-10.361-7.188c-7.703-5.003-18.008-2.823-23.016 4.873-5.007 7.695-2.826 17.99 4.876 22.994a173.833 173.833 0 0 1 8.703 6.038 16.58 16.58 0 0 0 9.888 3.264c5.091 0 10.118-2.329 13.38-6.731z"/></g></svg>