<svg width="512" height="512" xmlns="http://www.w3.org/2000/svg"><g fill-rule="evenodd"><path d="M212.265 150.864l-40.998 215.2-.016-.017-173.235 25.67 231.12 82.986 205.79-27.672 63.453-268.072-286.098-28.079-.016-.016zm-40.67 291.474l-56.744-21.681 27.348-3.645 63.64 21.274-34.244 4.052zm244.521-17.802l-228.932-64.808 36.777-189.92 245.6 28.86-53.46 225.868h.015z"/><path d="M347.113 255.03l-23.501 16.973 27.66 98.847 24.127-17.458-4.55-13.703 24.83-17.958L407 330.523l24.925-18.005-84.812-57.52v.032zm16.919 64.167l-9.82-29.487.235-.187 24.377 19.021-14.792 10.669v-.016zM10.572 174.782l1.86 18.866-8.224 3.332 1.86 19.006 57.26-27.547-1.782-17.88-61.591-16.003L1.8 172.952l8.74 1.83h.032zm31.992 6.648l.015.157-17.763 7.149-1.094-11.263 18.842 3.942v.016zm126.764-47.726c3.205 1.47 6.457 2.362 9.757 2.628 3.299.25 6.583-.203 9.804-1.36 3.22-1.19 6.192-3.254 8.928-6.242 1.986-2.175 3.409-4.349 4.331-6.539.939-2.206 1.455-4.317 1.61-6.398.126-2.05-.062-4.02-.593-5.944-.563-1.893-1.282-3.692-2.22-5.334 3.314.797 6.457.923 9.412.344 2.956-.548 5.786-2.347 8.491-5.334 1.36-1.487 2.58-3.332 3.675-5.522 1.063-2.222 1.61-4.709 1.548-7.493-.047-2.785-.876-5.788-2.455-8.98-1.61-3.222-4.316-6.585-8.24-10.136l-32.571-29.58-53.946 59.49 33.697 30.628a36.587 36.587 0 0 0 8.74 5.788l.032-.016zm16.98-65.09l9.664 8.776c1.892 1.736 3.127 3.394 3.721 5.037.579 1.658.204 3.207-1.172 4.693-1.767 1.97-3.503 2.768-5.223 2.424-1.735-.344-3.565-1.376-5.473-3.16l-9.663-8.79 8.131-8.98h.016zm-18.2 20.086l11.508 10.433c4.285 3.849 4.754 7.587 1.501 11.2-1.063 1.19-2.11 1.956-3.158 2.316-1.063.36-2.111.47-3.174.281-1.064-.187-2.049-.578-3.08-1.204-1.017-.61-1.986-1.361-2.925-2.221l-10.742-9.761 10.07-11.076v.032zM107.33 213.64c2.423 3.566 5.238 6.49 8.365 8.837 3.19 2.362 6.614 3.927 10.195 4.725 3.612.844 7.365.875 11.274.125 3.909-.751 7.787-2.472 11.68-5.131 3.503-2.41 6.223-5.1 8.178-8.135 1.939-3.034 3.19-6.132 3.737-9.323.547-3.19.516-6.257-.14-9.323-.673-3.034-1.815-5.788-3.456-8.181l-14.574 9.933c.563 1.267.97 2.519 1.251 3.786.313 1.236.391 2.456.266 3.566-.125 1.127-.453 2.222-1.063 3.191-.61 1.017-1.532 1.94-2.799 2.816-1.751 1.19-3.456 1.784-5.144 1.846-1.69.016-3.3-.36-4.863-1.158-1.564-.75-3.018-1.845-4.41-3.206a29.036 29.036 0 0 1-3.721-4.443c-1.08-1.611-2.033-3.3-2.783-5.1-.767-1.783-1.22-3.52-1.392-5.271a10.616 10.616 0 0 1 .704-4.943c.656-1.549 1.829-2.91 3.596-4.099 1.564-1.048 2.986-1.61 4.347-1.673 1.36-.079 2.564.046 3.69.39 1.095.392 2.048.924 2.799 1.55.766.61 1.376 1.141 1.751 1.532l14.417-9.855c-4.8-5.631-10.101-8.87-15.98-9.683-5.88-.844-12.103.986-18.795 5.475-3.722 2.519-6.661 5.428-8.835 8.698-2.142 3.238-3.534 6.695-4.175 10.34-.64 3.645-.453 7.43.532 11.31.954 3.879 2.72 7.711 5.3 11.45l.047-.047zm-71.396 63.243c.422-.453.75-.844 1-1.048l-6.129-9.135c-3.565 2.988-5.645 6.288-6.176 9.98-.532 3.692.563 7.65 3.362 11.904 1.594 2.362 3.393 4.208 5.441 5.6 2.033 1.392 4.19 2.284 6.49 2.675 2.298.407 4.674.36 7.13-.266 2.454-.626 4.862-1.69 7.255-3.27 2.267-1.5 4.112-3.253 5.629-5.255a17.703 17.703 0 0 0 3.033-6.43c.532-2.268.579-4.598.125-7.07-.438-2.471-1.485-4.943-3.174-7.43-1.485-2.253-3.19-3.942-5.066-5.225-1.908-1.22-3.862-2.034-5.864-2.409-2.001-.375-3.987-.36-5.895.063-1.939.39-3.643 1.095-5.191 2.143l6.192 9.213c.797-.344 1.61-.594 2.392-.782a7.016 7.016 0 0 1 2.252-.172 4.71 4.71 0 0 1 2.001.735c.626.36 1.204.955 1.767 1.768.735 1.095 1.095 2.221 1.126 3.254.016 1.048-.25 2.08-.735 3.05-.484 1.017-1.188 1.893-2.048 2.784a16.06 16.06 0 0 1-2.83 2.316 19.99 19.99 0 0 1-3.221 1.752c-1.095.438-2.236.766-3.315.86-1.08.078-2.158-.063-3.096-.47-1.001-.406-1.845-1.157-2.596-2.299-.641-.985-1.016-1.861-1.032-2.753-.031-.845.016-1.627.282-2.315a5.4 5.4 0 0 1 .938-1.768h-.047zm253.543 42.533c-1.47-2.221-3.19-3.926-5.066-5.225-1.892-1.188-3.878-2.033-5.863-2.393a14.665 14.665 0 0 0-5.895.031c-1.908.391-3.644 1.095-5.207 2.143l6.145 9.214a13.69 13.69 0 0 1 2.44-.766c.781-.173 1.563-.235 2.235-.157.735.078 1.376.329 2.002.688.64.36 1.204.97 1.767 1.768.766 1.126 1.094 2.206 1.141 3.238a6.55 6.55 0 0 1-.766 3.066 10.17 10.17 0 0 1-2.033 2.769c-.844.892-1.814 1.627-2.846 2.346a22.733 22.733 0 0 1-3.205 1.752c-1.095.47-2.22.767-3.33.845a6.542 6.542 0 0 1-3.081-.47c-1.016-.39-1.845-1.157-2.58-2.283-.641-.986-1-1.862-1.048-2.722-.047-.876.047-1.658.282-2.315.266-.735.563-1.283.985-1.768.375-.453.72-.86.985-1.063l-6.114-9.12c-3.58 2.988-5.629 6.288-6.16 9.98-.564 3.692.562 7.665 3.314 11.889 1.61 2.377 3.409 4.239 5.457 5.615 2.017 1.377 4.207 2.284 6.49 2.675 2.298.376 4.66.344 7.114-.266 2.47-.579 4.863-1.69 7.27-3.27 2.253-1.532 4.113-3.268 5.614-5.255 1.486-2.002 2.502-4.13 3.05-6.445.531-2.268.578-4.599.14-7.07-.469-2.456-1.548-4.928-3.22-7.415l-.017-.016zM30.617 91.844a33.901 33.901 0 0 0 7.365 6.116c2.658 1.627 5.692 2.44 9.007 2.41l.156.171c-.61.438-1.204 1.017-1.798 1.752-.61.751-1.126 1.455-1.486 2.19l14.073 15.55c.47-2.034 1.454-3.88 2.862-5.46a47.695 47.695 0 0 1 4.393-4.474l16.372-14.83a80.516 80.516 0 0 0 5.426-5.412 12.745 12.745 0 0 0 3.205-6.585c.39-2.503-.094-5.475-1.548-8.839-1.423-3.394-4.269-7.477-8.6-12.232a68.313 68.313 0 0 0-6.896-6.711c-2.439-2.08-5.035-3.708-7.708-4.85-2.69-1.079-5.473-1.532-8.35-1.25-2.893.28-5.801 1.657-8.694 4.098l12.806 14.156c.407-.36.938-.688 1.564-.985.625-.297 1.329-.391 2.158-.344.797.047 1.657.36 2.548.844.939.454 1.877 1.299 3.003 2.488a9.526 9.526 0 0 1 2.22 4.208c.39 1.533-.063 2.91-1.423 4.13-1.25 1.172-2.502 1.485-3.737 1.016-1.235-.47-2.392-1.126-3.534-1.97-1.407-1.049-2.924-2.316-4.581-3.77a95.843 95.843 0 0 0-5.207-4.256 50.193 50.193 0 0 0-5.645-3.8 20.015 20.015 0 0 0-6.067-2.27 14.246 14.246 0 0 0-6.239.204c-2.095.548-4.206 1.752-6.27 3.66-2.095 1.91-3.596 3.896-4.425 6.023a14.166 14.166 0 0 0-1.032 6.46c.156 2.19.782 4.318 1.83 6.445a27.402 27.402 0 0 0 4.268 6.117h-.016zm14.01-10.058c1.33-1.22 2.659-1.643 4.035-1.252 1.345.344 3.002 1.205 4.94 2.519a153.79 153.79 0 0 0 3.582 2.315 19.518 19.518 0 0 0 3.784 1.908l-3.69 3.332c-2.22 1.815-4.347 2.581-6.458 2.3-2.111-.282-3.972-1.299-5.536-3.035-1.25-1.392-1.907-2.863-1.97-4.474-.031-1.596.391-2.8 1.33-3.645l-.016.032zm244.193 20.836c-.25-.391-.375-.86-.53-1.392a3.18 3.18 0 0 1 .077-1.784c.172-.625.5-1.267 1.048-1.908.532-.641 1.329-1.298 2.47-1.987 1.126-.704 2.393-1.08 3.706-1.157 1.282-.032 2.314.547 3.112 1.783.688 1.22.766 2.284.234 3.207a13.792 13.792 0 0 1-2.11 2.503c-1.08.97-2.362 2.002-3.784 3.081-1.423 1.08-2.815 2.268-4.238 3.473a50.965 50.965 0 0 0-3.878 3.926c-1.22 1.393-2.158 2.879-2.814 4.521a11.934 11.934 0 0 0-.798 5.037c.063 1.768.735 3.63 1.892 5.616 1.204 1.987 2.596 3.473 4.128 4.49 1.58 1.016 3.221 1.61 5.035 1.83 1.767.203 3.58.03 5.426-.47 1.86-.516 3.768-1.36 5.535-2.456 2.377-1.407 4.394-3.066 6.067-4.943 1.751-1.877 2.83-4.176 3.33-6.867l.157-.078c.313.563.641 1.157 1.126 1.752.532.594 1 1.126 1.532 1.501l14.652-8.806c-1.564-.704-2.846-1.784-3.94-3.192a44.294 44.294 0 0 1-2.847-4.208L314.12 90.64c-1.047-1.783-2.251-3.52-3.487-5.209-1.22-1.674-2.814-2.847-4.737-3.598-1.955-.735-4.425-.797-7.35-.187-2.955.61-6.63 2.252-11.133 5.005-2.22 1.33-4.393 2.8-6.457 4.459-2.064 1.658-3.769 3.472-5.113 5.475a14.754 14.754 0 0 0-2.315 6.476c-.234 2.377.407 4.896 1.908 7.618l13.37-8.056h.015zm13.636 5.975a15.672 15.672 0 0 0 2.11-2.69l2.08 3.504c1.126 2.033 1.392 3.88.829 5.522-.563 1.658-1.658 2.972-3.268 3.973-1.33.782-2.611 1.064-3.878.86-1.298-.219-2.22-.782-2.72-1.642-.767-1.252-.892-2.41-.36-3.442.438-1.032 1.438-2.22 2.767-3.535.813-.829 1.61-1.658 2.44-2.55zM112.364 326.252h.157a22.64 22.64 0 0 0 1.657 1.971c.61.673 1.376 1.267 2.283 1.799s2.033.986 3.378 1.33c1.344.36 2.955.532 4.878.532 2.955 0 5.52-.642 7.74-1.956 2.174-1.298 3.972-3.035 5.442-5.178 1.438-2.111 2.501-4.49 3.252-7.117a29.07 29.07 0 0 0 1.063-7.868c0-2.472-.266-4.99-.797-7.556-.548-2.565-1.486-4.896-2.83-7.008-1.33-2.08-3.159-3.801-5.458-5.13-2.298-1.33-5.206-2.019-8.678-2.019-2.408 0-4.612.5-6.583 1.47a13.683 13.683 0 0 0-4.831 4.146h-.172v-20.242h-15.84v57.41h15.34v-4.6.016zm.313-20.007a9.336 9.336 0 0 1 1.063-3.285 6.902 6.902 0 0 1 2.111-2.378c.892-.626 2.064-.954 3.518-.954 1.423 0 2.596.328 3.487.954a6.6 6.6 0 0 1 2.111 2.378c.548.985.892 2.065 1.08 3.285a24.35 24.35 0 0 1 .265 3.707c0 1.22-.078 2.472-.266 3.708-.203 1.204-.547 2.346-1.079 3.3-.531 1.017-1.235 1.784-2.11 2.425-.892.626-2.065.954-3.488.954-1.454 0-2.626-.328-3.518-.954-.875-.626-1.61-1.408-2.142-2.425-.5-1-.922-2.096-1.063-3.3a22.904 22.904 0 0 1-.282-3.708c0-1.251.079-2.503.297-3.707h.016zM387.736 76.17l-4.128-1.893.047-.14a28.174 28.174 0 0 0 2.47-.69 8.698 8.698 0 0 0 2.58-1.344c.86-.61 1.752-1.44 2.596-2.503.876-1.064 1.705-2.472 2.487-4.24 1.22-2.69 1.673-5.318 1.423-7.868-.344-2.518-1.08-4.896-2.471-7.086-1.267-2.221-3.018-4.208-5.082-5.944-2.095-1.737-4.347-3.176-6.74-4.208-2.22-1.033-4.596-1.83-7.207-2.425a20.747 20.747 0 0 0-7.522-.344c-2.439.36-4.784 1.33-6.91 2.847-2.221 1.58-3.988 3.926-5.442 7.086-1.017 2.206-1.454 4.427-1.376 6.617.078 2.237.672 4.27 1.767 6.116l-.063.141-18.435-8.369-6.567 14.47 52.225 23.761 6.364-13.984h-.016zm-8.944-7.916a7.022 7.022 0 0 1-3.096.939c-1.094.063-2.267-.063-3.47-.375-1.205-.345-2.362-.798-3.488-1.267-1.079-.532-2.22-1.127-3.237-1.815a8.991 8.991 0 0 1-2.517-2.315c-.672-.892-1.063-1.846-1.267-2.91-.218-1.063 0-2.252.595-3.582.594-1.33 1.36-2.253 2.283-2.8.938-.579 1.938-.876 3.049-.954 1.094-.094 2.283.031 3.47.344a29.6 29.6 0 0 1 3.472 1.283 19.192 19.192 0 0 1 3.221 1.799 9.136 9.136 0 0 1 2.565 2.377 6.762 6.762 0 0 1 1.329 2.91c.219 1.064 0 2.252-.594 3.582-.61 1.33-1.408 2.221-2.283 2.8l-.032-.016zm-89.064 151.361c-2.064-1.299-4.19-2.05-6.411-2.269-2.205-.219-4.285.126-6.286.955l-.125-.078 10.773-17.176-13.494-8.447-30.49 48.602 13.009 8.15 2.439-3.88.14.063c.079.813.188 1.642.36 2.518.188.876.485 1.8 1.001 2.754.485.938 1.188 1.892 2.158 2.925.97 1.017 2.251 2.018 3.878 3.05 2.47 1.596 5.035 2.394 7.568 2.456 2.564.047 5.003-.422 7.349-1.455 2.392-1.032 4.55-2.471 6.567-4.286a28.807 28.807 0 0 0 5.097-6.085 36.463 36.463 0 0 0 3.331-6.836c.891-2.456 1.36-4.927 1.33-7.43-.017-2.472-.642-4.88-1.893-7.259-1.266-2.315-3.393-4.442-6.317-6.288l.016.016zm-8.319 16.19c-.532 1.142-1.079 2.237-1.751 3.27a27.193 27.193 0 0 1-2.22 2.972c-.845.97-1.705 1.736-2.69 2.252-1 .563-2.017.86-3.112.939-1.047.047-2.22-.344-3.424-1.064-1.204-.782-2.033-1.643-2.47-2.644a7.005 7.005 0 0 1-.5-3.19c.093-1.08.359-2.238.875-3.395a19.228 19.228 0 0 1 1.751-3.254c.625-1.048 1.376-2.034 2.22-3.003.798-.955 1.705-1.659 2.643-2.222a6.848 6.848 0 0 1 3.08-.86c1.048-.047 2.22.313 3.44 1.08 1.204.75 2.049 1.626 2.47 2.612.407 1.016.61 2.049.548 3.128a12.748 12.748 0 0 1-.844 3.38h-.016zM423.935 129.7c3.299 3.128 7.224 5.506 11.649 7.227 4.456 1.736 9.256 2.565 14.4 2.565 4.535 0 8.835-.641 12.916-1.893 4.05-1.251 7.647-3.128 10.727-5.584 3.112-2.472 5.66-5.475 7.74-9.057 2.048-3.583 3.377-7.681 3.972-12.343h-24.784c-.25 2.722-1.282 5.053-3.159 7.04-1.813 1.955-4.096 2.956-6.88 2.956-2.501 0-4.503-.454-6.004-1.455-1.454-.954-2.58-2.221-3.409-3.817-.766-1.58-1.266-3.363-1.563-5.35-.266-2.002-.376-4.067-.376-6.147 0-2.096.141-4.177.376-6.148.281-2.002.828-3.832 1.595-5.396.797-1.565 1.907-2.863 3.408-3.864 1.486-1.033 3.472-1.502 6.02-1.502 2.705 0 4.894.735 6.552 2.221 1.689 1.393 2.627 3.567 2.908 6.43h24.659c-.454-4.709-1.658-8.792-3.643-12.264a27.706 27.706 0 0 0-7.568-8.604c-3.128-2.253-6.677-3.91-10.696-5.037a49.73 49.73 0 0 0-12.743-1.643c-5.145 0-9.96.876-14.433 2.566-4.472 1.705-8.334 4.098-11.649 7.305-3.33 3.113-5.989 6.914-7.88 11.341-1.908 4.411-2.893 9.276-2.893 14.61 0 5.413.985 10.294 2.861 14.674 1.94 4.395 4.535 8.134 7.897 11.215v-.046z"/></g></svg>