<svg width="512" height="512" xmlns="http://www.w3.org/2000/svg"><path d="M256 35C134.132 35 35 134.132 35 256s99.132 221 221 221 221-99.132 221-221S377.868 35 256 35zm0 415.273C148.884 450.273 61.727 363.13 61.727 256S148.87 61.727 256 61.727 450.273 148.87 450.273 256c0 107.116-87.143 194.273-194.273 194.273zm80.568-255.932L274.896 256l61.672 61.659-18.909 18.91L256 274.894l-61.659 61.673-18.91-18.895L237.092 256l-61.673-61.673 18.91-18.91L256 237.092l61.673-61.673 18.895 18.91v.013z" fill="#444" fill-rule="evenodd"/></svg>