<svg width="512" height="512" xmlns="http://www.w3.org/2000/svg"><g fill-rule="evenodd"><path d="M441.296 192.309c4.29-12.145 6.746-25.154 6.746-38.773 0-64.291-52.056-116.416-116.263-116.416-43.69 0-81.717 24.168-101.577 59.845-15.128-9.523-32.99-15.12-52.178-15.12-54.3 0-98.311 44.071-98.311 98.433 0 3.768.26 7.474.672 11.136h-.672C49.502 191.413 25 215.939 25 246.197c0 30.258 24.502 54.785 54.713 54.785h19.86c-2.367-3.806-3.678-8.169-3.678-12.756 0-6.458 2.503-12.542 7.083-17.143l13.845-13.849 8.184-8.192c4.564-4.562 10.64-7.07 17.097-7.07a24.062 24.062 0 0 1 17.128 7.1l.045.047v-.07c0-13.366 10.854-24.244 24.213-24.244h31.095c13.342 0 24.197 10.877 24.197 24.245v.082l.061-.06c10.876-10.89 26.514-7.767 34.256-.014l10.152 10.165 11.83 11.846c4.58 4.578 7.099 10.669 7.099 17.15 0 4.602-1.327 8.972-3.694 12.764h32.836c22.639-35.486 89.916-51.68 108.646-6.58.763 1.834.916 3.775 1.16 5.702 26.043-4.204 45.995-26.637 45.995-53.906 0-27.209-19.86-49.619-45.827-53.89z"/><path d="M168.712 391.458c-15.023-9.913-24.976-26.902-24.976-46.216 0-30.533 24.807-55.372 55.292-55.372 30.501 0 55.307 24.839 55.307 55.372a56.22 56.22 0 0 1-1.099 10.944l50.453-21.064v-5.456c0-4.747-3.847-8.6-8.58-8.6h-17.63c-1.528-4.974-3.543-9.743-5.939-14.268l12.487-12.504a8.57 8.57 0 0 0 2.519-6.076c0-2.277-.9-4.463-2.519-6.084l-21.982-22.01a8.558 8.558 0 0 0-6.076-2.517 8.519 8.519 0 0 0-6.06 2.516l-12.503 12.512c-4.519-2.4-9.267-4.41-14.258-5.93v-17.656c0-4.747-3.832-8.592-8.565-8.592h-31.095c-4.734 0-8.581 3.845-8.581 8.592v17.654c-4.976 1.522-9.739 3.532-14.258 5.93l-12.471-12.495a8.546 8.546 0 0 0-6.076-2.516 8.573 8.573 0 0 0-6.076 2.508l-21.998 22.019a8.622 8.622 0 0 0-2.503 6.076c0 2.286.9 4.47 2.503 6.084l12.487 12.496a81.652 81.652 0 0 0-5.923 14.26h-17.63c-4.731 0-8.579 3.853-8.579 8.6v31.145c0 4.738 3.848 8.59 8.579 8.59h17.617a82.89 82.89 0 0 0 5.937 14.27l-12.487 12.504c-3.344 3.346-3.344 8.797 0 12.151l7.389 7.391c4.258-4.616 9.464-8.468 15.632-11.045l31.662-13.213z"/><path d="M199.028 305.522c-21.875 0-39.66 17.816-39.66 39.72 0 18.145 12.274 33.323 28.898 38.053l45.31-18.908c3.159-5.7 5.127-12.167 5.127-19.145.001-21.904-17.799-39.72-39.675-39.72zm244.053 47.018a6.35 6.35 0 0 0-2.428.489l-32.424 13.52a11.052 11.052 0 0 1-4.29.864 11.164 11.164 0 0 1-10.304-6.895l-9.893-23.745c-1.128-2.744-1.16-5.816-.015-8.56a11.079 11.079 0 0 1 6.015-6.069l32.424-13.528a6.252 6.252 0 0 0 3.373-8.185c-5.556-13.366-19.906-20.437-33.523-17.288l-16.09 3.677a51.34 51.34 0 0 0-34.912 28.01l-12.852 27.04-185.098 77.247c-15.052 6.283-22.165 23.577-15.891 38.664 6.213 14.913 23.402 22.257 38.621 15.92l185.112-77.239 28.196 9.892a51.254 51.254 0 0 0 44.455-5.09l13.952-8.858c12.03-7.643 16.808-22.837 11.328-36.006a6.23 6.23 0 0 0-5.756-3.86z"/></g></svg>