<svg width="512" height="512" xmlns="http://www.w3.org/2000/svg"><g fill-rule="evenodd"><path d="M472.757 50.053H39.223C23.11 50.053 10 63.156 10 79.263v353.454c0 16.107 13.11 29.21 29.223 29.21h433.534c16.116 0 29.223-13.103 29.223-29.21V79.263c0-16.105-13.107-29.21-29.223-29.21zM212.263 86.825c0-3.667 3.004-6.668 6.67-6.668h40c3.669 0 6.669 3 6.669 6.668v12.537c0 3.668-3.003 6.668-6.669 6.668h-40c-3.667 0-6.67-3-6.67-6.668V86.825zm-82.128 0c0-3.667 3.002-6.668 6.67-6.668h39.998c3.669 0 6.67 3 6.67 6.668v12.537c0 3.668-3.003 6.668-6.67 6.668h-39.999c-3.668 0-6.67-3-6.67-6.668V86.825zm-80.05 0c0-3.667 3.003-6.668 6.67-6.668h39.999c3.669 0 6.67 3 6.67 6.668v12.537c0 3.668-3.003 6.668-6.67 6.668H56.755c-3.669 0-6.67-3-6.67-6.668V86.825zm428.516 342.048c0 3.845-3.179 6.991-7.06 6.991H40.44c-3.883 0-7.06-3.146-7.06-6.991V137.657c0-3.845 3.177-6.991 7.06-6.991h431.101c3.881 0 7.06 3.146 7.06 6.991v291.216z"/><path d="M183.237 317.502c1.24 2.622 1.07 6.853-.38 9.404l-3.12 5.493c-1.45 2.552-.938 6.337 1.138 8.41l18.286 18.278c2.076 2.073 5.863 2.587 8.416 1.14l5.249-2.978c2.553-1.447 6.802-1.588 9.444-.307l5.744 2.4c2.762.99 5.663 4.114 6.442 6.944l1.849 6.697c.78 2.83 3.82 5.143 6.755 5.143h25.861c2.936 0 5.977-2.313 6.755-5.143l1.85-6.697c.78-2.83 3.681-5.947 6.445-6.93l5.242-2.168c2.649-1.262 6.905-1.108 9.46.34l5.61 3.184c2.552 1.446 6.34.936 8.416-1.138l18.287-18.276c2.076-2.074 2.588-5.859 1.14-8.412l-3.19-5.612c-1.448-2.55-1.6-6.805-.338-9.453l2.15-5.177c.985-2.764 4.105-5.663 6.934-6.443l6.93-1.91c2.828-.779 5.143-3.817 5.143-6.753v-25.849c0-2.933-2.315-5.974-5.144-6.753l-6.929-1.908c-2.829-.78-5.925-3.616-6.878-6.3-.954-2.685-2.942-11.495-1.492-14.045l3.485-6.141c1.449-2.552.936-6.337-1.14-8.41l-18.281-18.275c-2.076-2.074-5.864-2.587-8.416-1.14l-5.778 3.277c-2.554 1.448-6.803 1.585-9.442.303l-5.647-2.369c-2.761-.995-5.66-4.124-6.44-6.953l-1.973-7.15c-.78-2.828-3.82-5.142-6.756-5.142H243.06c-2.936 0-5.976 2.314-6.756 5.143l-1.973 7.15c-.781 2.828-3.677 5.961-6.436 6.963l-6.153 2.609c-2.633 1.297-6.875 1.173-9.428-.276l-5.409-3.07c-2.552-1.447-6.34-.935-8.415 1.139l-18.287 18.276c-2.076 2.074-2.59 5.859-1.14 8.41l3.423 6.025c1.449 2.552 1.685 6.679.525 9.172-1.16 2.493-5.884 10.024-8.712 10.804l-6.928 1.91c-2.829.778-5.145 3.817-5.145 6.751v25.849c0 2.934 2.316 5.973 5.145 6.754l6.928 1.909c2.828.781 7.698 8.68 8.938 11.3zm72.754-81.604c26.8 0 48.524 21.72 48.524 48.506 0 26.787-21.727 48.503-48.524 48.503s-48.525-21.718-48.525-48.503c0-26.787 21.726-48.506 48.525-48.506z"/></g></svg>