<svg width="512" height="512" xmlns="http://www.w3.org/2000/svg"><path d="M39.317 109.237h77.635c6.584 25.017 29.404 43.537 56.464 43.537s49.88-18.506 56.465-43.537h242.816c8.19 0 14.847-6.641 14.847-14.845s-6.642-14.845-14.847-14.845H229.881c-6.585-25.016-29.405-43.536-56.465-43.536-27.06 0-49.88 18.505-56.464 43.536H39.317c-8.19 0-14.846 6.641-14.846 14.845s6.642 14.845 14.846 14.845zm134.1-43.536c15.816 0 28.695 12.877 28.695 28.691 0 15.814-12.88 28.692-28.696 28.692s-28.695-12.878-28.695-28.692 12.879-28.691 28.695-28.691zm299.266 175.954h-98.921c-6.584-25.016-29.405-43.536-56.465-43.536-27.06 0-49.88 18.505-56.464 43.536H39.303c-8.19 0-14.847 6.641-14.847 14.845s6.642 14.845 14.847 14.845h221.53c6.584 25.016 29.404 43.536 56.464 43.536s49.88-18.505 56.465-43.536h98.92c8.19 0 14.847-6.641 14.847-14.845s-6.642-14.845-14.846-14.845zm-155.371 43.537c-15.816 0-28.695-12.878-28.695-28.692s12.879-28.692 28.695-28.692 28.695 12.878 28.695 28.692-12.879 28.692-28.695 28.692zm155.371 118.571H229.866c-6.584-25.017-29.404-43.537-56.464-43.537s-49.88 18.506-56.464 43.537H39.303c-8.19 0-14.847 6.641-14.847 14.845s6.642 14.845 14.847 14.845h77.635c6.584 25.016 29.404 43.536 56.464 43.536s49.88-18.505 56.464-43.536h242.817c8.19 0 14.846-6.641 14.846-14.845s-6.642-14.845-14.846-14.845zm-299.267 43.536c-15.816 0-28.695-12.877-28.695-28.691 0-15.814 12.879-28.692 28.695-28.692 15.817 0 28.696 12.878 28.696 28.692s-12.88 28.691-28.696 28.691z" fill-rule="evenodd"/></svg>