<svg width="512" height="512" xmlns="http://www.w3.org/2000/svg"><g fill="#030303" fill-rule="evenodd"><path d="M251.725 358.201c-43.557 0-78.992-35.435-78.992-78.987 0-42.366 71.195-107.558 74.222-110.312l4.77-4.334 4.773 4.341c3.027 2.754 74.215 67.953 74.215 110.311 0 43.546-35.434 78.981-78.988 78.981zm0-174.346c-21.735 20.758-64.804 67.606-64.804 95.359 0 35.732 29.072 64.8 64.804 64.8s64.8-29.068 64.8-64.8c0-27.773-43.061-74.608-64.8-95.36z"/><path d="M255.909 475.818C134.656 475.818 36 377.17 36 255.91 36 134.656 134.656 36 255.909 36c121.261 0 219.91 98.656 219.91 219.91 0 121.26-98.649 219.908-219.91 219.908zm0-425.63c-113.439 0-205.722 92.282-205.722 205.722 0 113.433 92.283 205.722 205.722 205.722 113.432 0 205.723-92.29 205.723-205.722 0-113.44-92.29-205.723-205.723-205.723z"/></g></svg>