<svg width="512" height="512" xmlns="http://www.w3.org/2000/svg"><g fill-rule="evenodd"><path d="M256 34C133.387 34 34 133.387 34 256s99.387 222 222 222 222-99.387 222-222S378.613 34 256 34zm0 409.313c-103.453 0-187.313-83.86-187.313-187.313 0-103.453 83.86-187.313 187.313-187.313 103.453 0 187.313 83.86 187.313 187.313 0 103.453-83.86 187.313-187.313 187.313z"/><path d="M256 145c-13.875 41.625-69.375 114.306-69.375 152.625 0 38.32 31.056 69.375 69.375 69.375 38.32 0 69.375-31.056 69.375-69.375 0-38.32-55.5-111-69.375-152.625zm0 194.25c-23.956 0-43.36-19.43-43.36-43.36 0-23.955 34.688-69.374 43.36-95.39 8.672 26.016 43.36 71.435 43.36 95.39 0 23.93-19.43 43.36-43.36 43.36z"/></g></svg>