<svg width="512" height="512" xmlns="http://www.w3.org/2000/svg"><path d="M327.919 198.579H182.464V174.57a6.926 6.926 0 0 0-6.931-6.933c-3.836 0-6.93 3.1-6.93 6.933v22.952c3.269 0 6.452.378 9.54 1.058H23.166C14.25 198.579 7 205.829 7 214.739v184.836c0 8.913 7.25 16.166 16.166 16.166h304.753c8.914 0 16.16-7.253 16.16-16.166V214.739c0-8.91-7.258-16.16-16.16-16.16zm2.306 200.996a2.314 2.314 0 0 1-2.306 2.311H23.166a2.313 2.313 0 0 1-2.314-2.311V214.739a2.312 2.312 0 0 1 2.314-2.305h304.753a2.305 2.305 0 0 1 2.306 2.305v184.836zM226.514 103.83c0-3.783 3.094-6.88 6.924-6.88h41.556c3.83 0 6.934 3.097 6.934 6.88a6.927 6.927 0 0 1-6.934 6.933h-41.556a6.924 6.924 0 0 1-6.924-6.933zm-57.905 29.187v-19.949c0-8.869 7.247-16.119 16.16-16.119h7.119c3.831 0 6.925 3.097 6.925 6.88a6.919 6.919 0 0 1-6.925 6.933h-7.119c-1.244 0-2.305 1.064-2.305 2.311v19.949a6.92 6.92 0 0 1-6.931 6.924 6.924 6.924 0 0 1-6.924-6.929zM448.15 103.83a6.923 6.923 0 0 1-6.934 6.933H399.67a6.923 6.923 0 0 1-6.934-6.933c0-3.783 3.098-6.88 6.934-6.88h41.559c3.83 0 6.921 3.097 6.921 6.88zm57.536 71.112v41.559a6.921 6.921 0 0 1-6.934 6.924 6.919 6.919 0 0 1-6.927-6.924v-41.559c0-3.789 3.097-6.928 6.927-6.928 3.842.001 6.934 3.139 6.934 6.928zm0-61.874v20.312c0 3.83-3.098 6.93-6.934 6.93-3.83 0-6.927-3.1-6.927-6.93v-20.312a2.321 2.321 0 0 0-2.312-2.314h-6.732a6.92 6.92 0 0 1-6.934-6.93c0-3.783 3.098-6.88 6.934-6.88h6.732c8.92.006 16.173 7.255 16.173 16.124zm0 144.986v39.897c0 8.86-7.253 16.113-16.166 16.16h-27.054c-3.836 0-6.934-3.139-6.934-6.969 0-3.783 3.098-6.934 6.934-6.934h27.054c1.295 0 2.317-1.011 2.317-2.258v-39.897c0-3.783 3.085-6.931 6.927-6.931 3.83.007 6.922 3.149 6.922 6.932zM365.039 103.83a6.926 6.926 0 0 1-6.928 6.933h-41.553a6.922 6.922 0 0 1-6.933-6.933c0-3.783 3.097-6.88 6.933-6.88h41.553c3.825 0 6.928 3.097 6.928 6.88zm62.796 203.313c0 3.83-3.098 6.969-6.928 6.969h-41.553c-3.782 0-6.934-3.139-6.934-6.969 0-3.783 3.151-6.934 6.934-6.934h41.553c3.83 0 6.928 3.15 6.928 6.934z" fill-rule="evenodd"/></svg>