<svg width="512" height="512" xmlns="http://www.w3.org/2000/svg"><path d="M393.6 62.626h-68.818a34.327 34.327 0 0 0-27.502-13.814h-17.537A27.323 27.323 0 0 0 256 35.001a27.323 27.323 0 0 0-23.743 13.811H214.72a34.327 34.327 0 0 0-27.502 13.814H118.4C99.383 62.67 83.993 78.12 84 97.156v345.318c-.002 19.035 15.386 34.479 34.4 34.526h275.2c19.014-.047 34.402-15.491 34.4-34.526V97.157c.007-19.037-15.383-34.486-34.4-34.531zM194.08 83.343c-.003-11.421 9.23-20.69 20.64-20.717h21.899a6.896 6.896 0 0 0 6.49-4.594A13.628 13.628 0 0 1 256 48.812a13.628 13.628 0 0 1 12.891 9.22 6.896 6.896 0 0 0 6.49 4.594h21.899c11.41.027 20.643 9.296 20.64 20.717v20.72H194.08v-20.72zm220.16 359.131c0 11.42-9.232 20.686-20.64 20.716H118.4c-11.408-.03-20.64-9.296-20.64-20.716V97.157c-.004-11.422 9.23-20.692 20.64-20.72h62.612a34.096 34.096 0 0 0-.692 6.906v27.631a6.896 6.896 0 0 0 6.88 6.905h137.6a6.896 6.896 0 0 0 6.88-6.905v-27.63a34.096 34.096 0 0 0-.692-6.906H393.6c11.41.027 20.644 9.297 20.64 20.719v345.317zM393.6 90.25h-41.28a6.903 6.903 0 0 0-6.789 6.906 6.903 6.903 0 0 0 6.789 6.906h34.4v241.723h-68.8c-11.41.023-20.646 9.293-20.64 20.715v41.43a6.884 6.884 0 0 0 6.88 6.888c3.8 0 6.88-3.083 6.88-6.887V366.5a6.894 6.894 0 0 1 6.88-6.905h59.065l-75.68 75.974H125.28V104.062h34.4a6.903 6.903 0 0 0 6.789-6.906 6.903 6.903 0 0 0-6.789-6.906H118.4a6.896 6.896 0 0 0-6.88 6.907v345.317a6.894 6.894 0 0 0 6.88 6.905h185.778c.23 0 .443-.017.656-.035l.337-.053a2.57 2.57 0 0 0 .337-.054c.126-.02.25-.05.372-.088.09-.016.18-.04.266-.071.124-.036.248-.09.372-.125l.266-.106c.122-.046.24-.1.355-.16.088-.03.171-.072.248-.124.124-.053.23-.142.355-.195.073-.054.15-.102.23-.142.142-.107.266-.196.39-.302a.984.984 0 0 0 .142-.107 3.42 3.42 0 0 0 .532-.479l89.423-89.767a.067.067 0 0 0 .035-.035c.203-.207.392-.426.567-.657.036-.053.09-.124.125-.178a6.68 6.68 0 0 0 .478-.763c.018-.018.018-.053.036-.07.13-.247.243-.502.337-.764.017-.053.053-.124.07-.178.096-.29.173-.587.231-.887 0-.018.018-.018.018-.036.053-.284.07-.55.106-.834v-.249c0-.088.018-.16.018-.23V97.157a6.896 6.896 0 0 0-6.88-6.907zM256 62.626a6.871 6.871 0 0 0-2.604 13.218 6.858 6.858 0 0 0 8.326-2.53 6.875 6.875 0 0 0-.846-8.67A6.967 6.967 0 0 0 256 62.626zm27.52 103.593h68.8a6.903 6.903 0 0 0 6.789-6.906 6.903 6.903 0 0 0-6.789-6.906h-68.8a6.903 6.903 0 0 0-6.789 6.906 6.903 6.903 0 0 0 6.789 6.906zm-55.04 27.624h123.84a6.903 6.903 0 0 0 6.789-6.906 6.903 6.903 0 0 0-6.789-6.906H228.48a6.903 6.903 0 0 0-6.789 6.906 6.903 6.903 0 0 0 6.789 6.906zm123.84 41.438H159.68a6.903 6.903 0 0 0-6.789 6.906 6.903 6.903 0 0 0 6.789 6.906h192.64a6.903 6.903 0 0 0 6.789-6.906 6.903 6.903 0 0 0-6.789-6.906zm0 27.626H159.68a6.903 6.903 0 0 0-6.789 6.906 6.903 6.903 0 0 0 6.789 6.906h192.64a6.903 6.903 0 0 0 6.789-6.906 6.903 6.903 0 0 0-6.789-6.906zm0 27.624H159.68a6.903 6.903 0 0 0-6.789 6.906 6.903 6.903 0 0 0 6.789 6.906h192.64a6.903 6.903 0 0 0 6.789-6.906 6.903 6.903 0 0 0-6.789-6.906zm6.88 34.538a6.9 6.9 0 0 0-6.88-6.912H159.68a6.905 6.905 0 0 0-6.901 6.909 6.905 6.905 0 0 0 6.901 6.908h192.64a6.905 6.905 0 0 0 6.88-6.905zm-82.56 20.716H221.6a6.901 6.901 0 0 0-6.898 6.905 6.901 6.901 0 0 0 6.898 6.905h55.04a6.896 6.896 0 0 0 5.974-3.453 6.912 6.912 0 0 0 0-6.905 6.896 6.896 0 0 0-5.974-3.452zm0 27.62H221.6a6.901 6.901 0 0 0-6.898 6.905 6.901 6.901 0 0 0 6.898 6.905h55.04a6.896 6.896 0 0 0 5.974-3.452 6.912 6.912 0 0 0 0-6.905 6.896 6.896 0 0 0-5.974-3.453zM152.8 159.312a6.896 6.896 0 0 0 6.88 6.907h34.4a6.903 6.903 0 0 0 6.789-6.906 6.903 6.903 0 0 0-6.789-6.906h-34.4a6.896 6.896 0 0 0-6.88 6.905zm-13.76 217.555c.049 17.105 13.932 30.937 31.019 30.904 17.087-.033 30.917-13.917 30.9-31.023-.015-17.105-13.872-30.963-30.959-30.963-17.117.039-30.97 13.946-30.96 31.082zm48.16 0c-.03 9.502-7.743 17.184-17.235 17.165-9.493-.02-17.175-7.734-17.165-17.236.01-9.503 7.708-17.201 17.2-17.201 9.512.02 17.21 7.75 17.2 17.272z" fill-rule="evenodd"/></svg>