<svg width="512" height="512" xmlns="http://www.w3.org/2000/svg"><g fill-rule="evenodd"><path d="M235.359 269.66c8.48-20.112 15.67-35.888 21.57-47.328 4.425-8.487 8.577-15.637 12.45-21.45 3.868-5.813 8.573-11.487 14.102-17.021 5.537-5.537 11.895-9.693 19.09-12.458 7.187-2.767 15.206-4.152 24.062-4.152h70.8v53.143c0 2.398.874 4.476 2.625 6.226 1.75 1.754 3.826 2.63 6.22 2.63 2.585 0 4.707-.828 6.357-2.49l88.51-88.566c1.664-1.663 2.493-3.782 2.493-6.367 0-2.584-.829-4.704-2.493-6.373l-88.23-88.294c-2.209-1.844-4.43-2.762-6.639-2.762-2.585 0-4.701.83-6.364 2.492-1.651 1.66-2.48 3.78-2.48 6.364v53.139h-70.8c-12.542 0-24.341 1.526-35.407 4.57-11.066 3.044-20.887 6.916-29.459 11.624-8.575 4.706-16.872 11.024-24.894 18.96-8.021 7.932-14.845 15.593-20.466 22.973-5.622 7.378-11.525 16.603-17.7 27.676-6.176 11.071-11.155 20.76-14.935 29.062-3.781 8.304-8.344 18.545-13.69 30.724-8.484 20.112-15.675 35.89-21.574 47.33-4.425 8.486-8.577 15.639-12.446 21.45-3.871 5.813-8.576 11.486-14.107 17.02-5.532 5.54-11.894 9.694-19.085 12.462-7.19 2.766-15.213 4.153-24.062 4.153H16.853c-2.582 0-4.704.823-6.361 2.487-1.656 1.659-2.488 3.776-2.488 6.363v53.147c0 2.581.835 4.705 2.494 6.369 1.66 1.66 3.783 2.489 6.362 2.489h61.956c12.541 0 24.34-1.526 35.405-4.572 11.063-3.046 20.884-6.921 29.455-11.625 8.577-4.707 16.873-11.028 24.894-18.964 8.02-7.929 14.845-15.592 20.468-22.97 5.62-7.382 11.522-16.605 17.7-27.675 6.175-11.075 11.156-20.761 14.934-29.062 3.777-8.305 8.34-18.543 13.687-30.725z"/><path d="M16.85 167.248h61.955c8.113 0 15.626 1.34 22.542 4.017 6.916 2.677 12.723 5.905 17.425 9.69 4.702 3.784 9.403 8.995 14.106 15.636 4.701 6.646 8.436 12.506 11.201 17.577 2.764 5.076 6.175 11.766 10.232 20.068 14.201-33.398 26.829-58.584 37.893-75.56-29.502-41.516-67.302-62.278-113.4-62.278H16.85c-2.583 0-4.705.83-6.362 2.492C8.832 100.549 8 102.669 8 105.253v53.143c0 2.585.828 4.702 2.488 6.362 1.661 1.663 3.783 2.49 6.362 2.49zm396.071 117.917c-2.215-1.843-4.43-2.76-6.644-2.76-2.578 0-4.701.826-6.358 2.488-1.657 1.659-2.485 3.782-2.485 6.362v53.148h-70.807c-8.116 0-15.628-1.341-22.544-4.02-6.916-2.675-12.725-5.903-17.425-9.688-4.697-3.782-9.402-8.997-14.103-15.642-4.704-6.643-8.44-12.504-11.206-17.58-2.762-5.067-6.173-11.765-10.23-20.061-14.198 33.212-26.734 58.398-37.615 75.56 4.976 7.195 10.14 13.608 15.487 19.232 5.346 5.626 10.418 10.563 15.212 14.809 4.794 4.24 10.233 7.936 16.317 11.067 6.087 3.138 11.431 5.766 16.046 7.89 4.621 2.122 10.423 3.828 17.427 5.122 7.005 1.287 12.906 2.262 17.7 2.9 4.794.643 11.342 1.107 19.639 1.387 8.294.278 15.025.364 20.183.278a2555.99 2555.99 0 0 1 22.41-.278c9.775-.09 17.612-.14 23.513-.14v53.143c0 2.399.875 4.475 2.626 6.227 1.75 1.753 3.825 2.628 6.22 2.628 2.585 0 4.706-.829 6.357-2.488l88.51-88.565c1.657-1.665 2.486-3.782 2.486-6.37 0-2.584-.829-4.704-2.493-6.361l-88.223-88.288z"/></g></svg>