<svg width="512" height="512" xmlns="http://www.w3.org/2000/svg"><g fill-rule="evenodd"><path d="M468.023 105.672c-49.74 49.679-39.366 48.716-79.121 8.945-5.933-5.932-5.887-15.374-.016-21.26l33.418-33.412c11.678-11.678-23.573-35.275-50.532-16.213-47.163 33.295-45.735 36.719-49.414 105.693l-19.598 19.606c2.624 4.884 4.938 9.985 6.569 15.498 5.963 20.236 12.517 34.258 1.862 52.366 4.597 3.09 14.24 13.231 18.543 17.532l48.824-48.816c69.26-3.712 72.492-2.492 105.678-49.399 19.086-27.029-4.581-62.195-16.213-50.54zm-278.302 219.26c2.64-16.126 15.312-28.729 31.307-31.338 2.656-16.034 15.296-28.707 31.354-31.346.606-3.696 1.832-7.221 3.478-10.551-7.997-4.567-13.789-11.065-17.392-19.42L136.393 334.35l.512.512-73.175 73.175c-15.528 15.522-15.528 40.663.016 56.193 15.514 15.53 40.655 15.522 56.186.008l61.931-61.932-12.873-12.881c-22.006-22.02-9.506-59.578 20.731-64.493zM94.882 453.757c-28.233 0-28.279-42.737 0-42.737 11.803 0 21.369 9.567 21.369 21.369 0 11.801-9.567 21.368-21.369 21.368z"/><path d="M299.932 249.016c-8.619 6.265-16.958 8.991-28.295 7.757-5.465 8.565-4.845 19.878 2.641 27.371-20.671-20.678-52.072 10.669-31.354 31.338-20.763-20.724-52.04 10.629-31.354 31.354-20.468-20.546-52.35 10.311-31.338 31.346L233 430.951c20.671 20.632 52.056-10.637 31.34-31.354 20.622 20.616 52.302-10.411 31.353-31.346a22.12 22.12 0 0 0 15.686 6.493c19.566 0 29.661-23.815 15.668-37.837 20.468 20.538 52.35-10.297 31.338-31.346-5.047-5.049-52.132-53.315-58.453-56.545zm-227.956-4.371c-6.973 6.973-6.973 18.31 0 25.281l49.834 49.826c127.59-127.581 107.51-107.517 121.518-121.51 1.164 1.438 2.158 3.029 2.718 4.907 5.202 17.65 7.919 38.079 29.909 38.079a25 25 0 0 0 17.704-7.323c12.921-12.897 5.622-27.215.42-44.887-8.589-29.165-35.78-47.909-65.736-45.952l-58.561 3.782a530454.6 530454.6 0 0 0-97.806 97.797zm56.574-86.826c15.172-15.172-3.246-28.535-18.232-43.521-6.973-6.973-18.31-6.973-25.281 0l-58.795 58.803c-6.989 6.979-6.989 18.302 0 25.281 37.395 37.418 25.809 35.936 102.308-40.563z"/></g></svg>