<svg width="512" height="512" xmlns="http://www.w3.org/2000/svg"><g fill="#010002" fill-rule="evenodd"><path d="M256.438 36C134.894 36 36.012 134.898 36.012 256.433c0 121.543 98.882 220.441 220.424 220.441 121.536 0 220.425-98.898 220.425-220.44C476.862 134.897 377.98 36 256.438 36zm0 399.95c-99.008 0-179.54-80.523-179.54-179.517 0-99.016 80.532-179.533 179.54-179.533s179.54 80.524 179.54 179.533c0 98.992-80.532 179.518-179.54 179.518z"/><path d="M336.322 282.917c0 44.125-35.768 79.886-79.886 79.886-44.117 0-79.886-35.761-79.886-79.886 0-44.125 79.886-116.736 79.886-116.736s79.886 72.62 79.886 116.736z"/><path d="M256.438 363.528c-44.45 0-80.61-36.162-80.61-80.61 0-18.475 13.495-43.837 40.112-75.381 19.774-23.434 39.81-41.708 40.01-41.89a.726.726 0 0 1 .975 0c.2.18 20.235 18.458 40.009 41.892 26.617 31.546 40.113 56.908 40.113 75.38 0 44.446-36.161 80.609-80.61 80.609zm0-196.361c-6.691 6.19-79.162 74.24-79.162 115.75 0 43.65 35.512 79.16 79.162 79.16 43.649 0 79.161-35.51 79.161-79.16-.001-41.503-72.472-109.56-79.161-115.75z"/></g></svg>