<svg width="512" height="512" xmlns="http://www.w3.org/2000/svg"><g fill-rule="evenodd"><path d="M226.986 284.105c-.65 1.706-1.503 3.18-2.559 4.41a10.875 10.875 0 0 1-3.838 2.919c-1.512.697-3.363 1.037-5.525 1.037-3.033 0-5.543-.66-7.56-1.968-2.015-1.328-3.624-3.063-4.826-5.244-1.202-2.162-2.074-4.624-2.617-7.328a41.22 41.22 0 0 1-.814-8.26c0-2.8.262-5.544.814-8.268.543-2.723 1.415-5.166 2.617-7.328 1.202-2.18 2.81-3.916 4.827-5.244 2.016-1.328 4.536-1.968 7.56-1.968 2.626 0 4.787.495 6.454 1.493 1.667 1.018 3.005 2.181 4.013 3.5 1.008 1.327 1.706 2.646 2.093 4.013.388 1.347.66 2.423.815 3.198h24.889c-1.086-10.469-4.75-18.553-11-24.253-6.242-5.7-15.1-8.598-26.567-8.675-6.435 0-12.24 1.037-17.387 3.14-5.157 2.085-9.576 5.041-13.26 8.84-3.682 3.8-6.512 8.366-8.49 13.727-1.977 5.34-2.975 11.293-2.975 17.797 0 6.116.94 11.855 2.791 17.157 1.861 5.322 4.604 9.897 8.21 13.784 3.605 3.887 7.996 6.95 13.19 9.2 5.196 2.229 11.166 3.372 17.921 3.372 6.048 0 11.437-1.017 16.167-3.024 4.72-2.026 8.694-4.672 11.911-7.968 3.218-3.296 5.66-7.008 7.328-11.109 1.667-4.09 2.51-8.258 2.51-12.436h-25.132c-.378 1.939-.891 3.79-1.56 5.486zm68.446-5.593h-.233l-13.608-50.367h-25.82l24.773 83.053h28.612l25.945-83.053h-26.294z"/><path d="M361.445 38H87.623v436.755H423.93V98.593L361.445 38zm33.408 407.665H116.7V67.08h229.762v46.14h48.383l.01 332.445z"/></g></svg>