<svg width="512" height="512" xmlns="http://www.w3.org/2000/svg"><g fill-rule="evenodd"><path d="M256 477c-121.868 0-221-99.146-221-221S134.146 35 256 35s221 99.146 221 221-99.146 221-221 221zm0-415.273C148.884 61.727 61.727 148.884 61.727 256S148.884 450.259 256 450.259 450.273 363.102 450.273 256c0-107.102-87.157-194.273-194.273-194.273z"/><path d="M402.827 109.173c81.093 81.093 81.093 212.56 0 293.64-81.093 81.08-212.56 81.08-293.64 0l293.64-293.64z"/><path d="M256 476.903c-56.604 0-113.193-21.533-156.275-64.628l18.896-18.896c75.748 75.748 198.983 75.748 274.73 0 75.748-75.748 75.748-198.997 0-274.744l18.896-18.896c86.176 86.163 86.176 226.373 0 312.55-43.067 43.067-99.671 64.614-156.26 64.614H256z"/></g></svg>