<svg width="512" height="512" xmlns="http://www.w3.org/2000/svg"><g fill-rule="evenodd"><path d="M483.783 339.001H404.62c-11.182 0-20.217-9.09-20.217-20.231 0-11.223 9.052-20.247 20.217-20.247h58.946V91.254h-263.28v23.94a20.182 20.182 0 0 1-20.218 20.231 20.181 20.181 0 0 1-20.216-20.23v-44.19c-.017-11.14 9.034-20.23 20.216-20.23h303.716c11.183 0 20.217 9.09 20.217 20.23V318.77c0 11.143-9.051 20.232-20.217 20.232z"/><path d="M331.9 461.225H28.217C17.05 461.225 8 452.118 8 440.977V193.215c0-11.158 9.051-20.231 20.217-20.231h303.667c11.183 0 20.217 9.09 20.217 20.23v247.763c.017 11.14-9.034 20.248-20.2 20.248zM48.45 420.746h263.233V213.462H48.451v207.284z"/></g></svg>