<svg width="512" height="512" xmlns="http://www.w3.org/2000/svg"><path d="M459.282 59.731C444.039 44.421 423.705 36 402.119 36c-21.585 0-41.892 8.407-57.149 23.704l-243.137 242.15a13.664 13.664 0 0 0-3.233 5.058L43.57 458.506a13.845 13.845 0 0 0 2.957 14.208A13.743 13.743 0 0 0 56.515 477c1.348 0 2.697-.193 4.031-.606l136.874-42.06a13.737 13.737 0 0 0 5.696-3.418l256.18-256.621C474.594 159.01 483 138.643 483 117.006c-.014-21.623-8.406-41.977-23.718-57.275zM181.599 410.368l-51.233 15.765c-2.986-8.778-7.636-16.55-13.978-22.904-5.517-5.499-11.914-9.77-18.655-13.244l23.443-64.579h31.642v27.563c0 7.62 6.15 13.781 13.758 13.781h24.282l-9.259 43.618zm202.512-199.746L216.488 378.533l4.815-22.698a13.812 13.812 0 0 0-2.779-11.535 13.716 13.716 0 0 0-10.676-5.113h-27.515v-27.562c0-7.607-6.163-13.781-13.757-13.781h-21.71l163.62-162.964.164.152c10.07-10.102 23.484-15.655 37.724-15.655 14.239 0 27.666 5.553 37.723 15.655 10.057 10.102 15.656 23.525 15.656 37.802 0 14.277-5.544 27.687-15.642 37.788zm55.718-55.814l-12.822 12.858c-1.239-19.693-9.397-38.05-23.43-52.12-14.046-14.085-32.385-22.244-52.1-23.47l12.905-12.83.028-.028c10.043-10.102 23.456-15.655 37.71-15.655 14.252 0 27.652 5.553 37.709 15.655 10.098 10.102 15.656 23.525 15.656 37.788 0 14.291-5.53 27.714-15.656 37.802zm-90.374-4.52L211.88 288.1c-5.379 5.389-5.379 14.099 0 19.487a13.684 13.684 0 0 0 9.727 4.038c3.522 0 7.03-1.35 9.727-4.038l137.575-137.812c5.38-5.389 5.38-14.099 0-19.487-5.393-5.389-14.074-5.389-19.453 0z" fill-rule="evenodd"/></svg>