<svg width="512" height="512" xmlns="http://www.w3.org/2000/svg"><g fill-rule="evenodd"><path d="M477.403 72H45.73c-7.852 0-14.23 5.892-14.23 13.757v341.486c0 7.369 6.378 13.757 14.23 13.757h431.673c7.85 0 14.229-5.892 14.229-13.757V85.757c0-7.369-6.378-13.757-14.23-13.757zm-14.218 27.514v54.542H60.454V99.514h402.731zM60.454 413.486V181.57h402.731v232.4H60.454v-.484z"/><path d="M103.625 140.3c3.925 0 7.356-1.476 10.303-3.933 2.947-2.456 4.41-5.892 4.41-9.824 0-3.437-1.474-6.884-4.41-9.825-5.4-4.912-14.713-4.912-20.112 0-2.452 2.456-4.409 5.893-4.409 9.825 0 3.436 1.474 6.884 4.41 9.824 2.451 2.457 5.882 3.933 9.808 3.933zm43.159 0c3.925 0 7.356-1.476 10.303-3.933 2.452-2.456 4.41-5.892 4.41-9.824 0-3.437-1.474-6.884-4.41-9.825-5.399-4.912-14.712-4.912-20.112 0-2.452 2.456-4.409 5.893-4.409 9.825 0 3.436 1.474 6.884 4.41 9.824 2.452 2.457 5.882 3.933 9.808 3.933zm43.171 0c3.925 0 7.356-1.476 10.303-3.933 2.947-2.456 4.41-5.892 4.41-9.824 0-3.437-1.474-6.884-4.41-9.825-5.4-4.912-14.713-4.912-20.112 0-2.452 2.456-4.409 5.893-4.409 9.825 0 3.436 1.474 6.884 4.41 9.824 1.956 2.457 5.882 3.933 9.808 3.933zm64.745 68.3H103.612c-7.851 0-14.229 5.892-14.229 13.756s6.378 13.757 14.23 13.757h151.085c7.851 0 14.23-5.893 14.23-13.757s-6.379-13.757-14.23-13.757zm0 54.53H103.612c-7.851 0-14.229 5.893-14.229 13.757 0 7.865 6.378 13.757 14.23 13.757h151.085c7.851 0 14.23-5.892 14.23-13.757 0-7.864-6.379-13.757-14.23-13.757zm0 55.04H103.612c-7.851 0-14.229 5.892-14.229 13.756 0 7.368 6.378 13.757 14.23 13.757h151.085c7.851 0 14.23-5.893 14.23-13.757s-6.379-13.757-14.23-13.757zM420.014 208.6H312.1c-7.851 0-14.23 5.892-14.23 13.756V331.43c0 7.369 6.379 13.757 14.23 13.757h107.915c7.852 0 14.23-5.893 14.23-13.757V222.356c0-7.368-6.378-13.757-14.23-13.757zm-14.712 109.57h-78.974v-82.057h78.974v82.056z"/></g></svg>