<svg width="512" height="512" xmlns="http://www.w3.org/2000/svg"><g fill-rule="evenodd"><path d="M430.817 189.785c-9.568-13.05-22.912-28.293-37.553-42.942-14.64-14.65-29.9-27.976-42.956-37.54-22.222-16.29-32.99-18.178-39.165-18.178H152.607c-19.01 0-34.464 15.463-34.464 34.453v316.969c0 18.99 15.454 34.453 34.464 34.453h261.929C433.532 477 449 461.537 449 442.547v-213.61c0-6.174-1.889-16.95-18.183-39.152zm-57.046-23.456c13.22 13.216 23.601 25.151 31.266 35.046h-66.323v-66.302c9.898 7.663 21.837 18.04 35.057 31.256zm47.658 276.218c0 3.735-3.157 6.89-6.893 6.89H152.607c-3.736 0-6.893-3.155-6.893-6.89V125.578c0-3.735 3.157-6.89 6.893-6.89h158.536v96.468c0 7.607 6.176 13.781 13.786 13.781h96.5v213.61z"/><path d="M295.165 54.177C272.943 37.888 262.176 36 256 36H97.464C78.468 36 63 51.449 63 70.453v316.969c0 16.634 11.856 30.553 27.571 33.764V70.453c0-3.735 3.157-6.89 6.893-6.89h209.75a273.956 273.956 0 0 0-12.035-9.386h-.014z"/></g></svg>