<svg width="512" height="512" xmlns="http://www.w3.org/2000/svg"><g fill-rule="evenodd"><path d="M333.223 325.808a7.161 7.161 0 0 0-7.162 7.162v130.707H115.163V404a7.161 7.161 0 0 0-7.161-7.161H48.324V48.323h277.737V179.03a7.161 7.161 0 0 0 14.323 0V41.161A7.161 7.161 0 0 0 333.223 34H41.163a7.161 7.161 0 0 0-7.161 7.161V404c0 .24.012.478.036.715.017.174.047.343.077.513.01.06.016.122.027.182.04.2.092.398.148.591.009.029.014.059.022.087.06.198.132.39.208.58l.029.08c.075.179.16.354.25.526.017.035.032.072.05.107.086.16.181.312.279.463.028.046.054.094.084.139.096.144.203.281.31.418.036.048.069.098.107.144.149.18.306.355.47.52l66.837 66.836c.165.165.339.323.52.472.047.038.097.07.144.108a7.4 7.4 0 0 0 .418.31c.045.03.093.055.139.083.152.097.304.192.464.278.034.02.071.034.107.052.173.088.347.174.527.249l.077.028c.19.076.383.148.58.208l.088.022c.193.057.39.109.59.149.06.012.123.017.183.027.17.03.339.06.513.077.237.024.475.036.715.036h225.22a7.161 7.161 0 0 0 7.162-7.161v-137.87a7.16 7.16 0 0 0-7.16-7.16zM100.84 453.55l-42.39-42.389h42.39v42.39z"/><path d="M285.48 420.71a7.161 7.161 0 0 0 0-14.323h-61.492a7.161 7.161 0 0 0 0 14.323h61.493zm0-319.871H88.906a7.161 7.161 0 0 0 0 14.322h196.576a7.161 7.161 0 0 0 0-14.322zm0 38.193H88.906a7.161 7.161 0 0 0 0 14.323h196.576a7.161 7.161 0 0 0 0-14.323zm0 38.194H88.906a7.161 7.161 0 0 0 0 14.322h196.576a7.161 7.161 0 0 0 0-14.322zm7.162 45.354a7.161 7.161 0 0 0-7.161-7.16H88.905a7.161 7.161 0 0 0 0 14.322h196.576a7.161 7.161 0 0 0 7.16-7.161zm-34.002 38.194a7.161 7.161 0 0 0-7.162-7.161H88.905a7.161 7.161 0 0 0 0 14.322H251.48a7.16 7.16 0 0 0 7.16-7.16zM88.905 291.806a7.161 7.161 0 0 0 0 14.323h98.288a7.161 7.161 0 0 0 0-14.323H88.905zm379.46-170.948c-6.214-6.214-14.486-9.637-23.294-9.637-8.807 0-17.079 3.422-23.293 9.636l-22.28 22.281h-.002l-20.253 20.253h-.001l-.001.001-144.766 144.769a7.01 7.01 0 0 0-.556.631c-.044.056-.084.116-.127.173-.129.174-.25.351-.36.533-.02.032-.044.06-.064.093l-42.175 71.63a11.843 11.843 0 0 0-2.749 7.623c0 3.188 1.241 6.185 3.496 8.44a11.857 11.857 0 0 0 8.44 3.495c2.816 0 5.484-.969 7.622-2.749l71.63-42.175c.034-.02.062-.044.096-.064.181-.11.357-.23.53-.359.058-.043.117-.084.174-.129.218-.172.43-.354.63-.555l144.766-144.766v-.001l.002-.001 20.254-20.254h.001l22.28-22.28c12.844-12.845 12.844-33.745 0-46.588zm-47.6 73.931l-26.332-26.332 10.128-10.127 26.333 26.331-10.129 10.128zM275.998 339.556l-26.331-26.332 134.64-134.64 26.331 26.332-134.64 134.64zm-41.352 26.165l-11.144-11.143 17.515-29.747 23.376 23.376-29.747 17.514zm-27.1 15.957l8.45-14.352 5.902 5.901-14.352 8.45zm250.692-224.362l-17.217 17.217-26.333-26.331 17.218-17.218c3.51-3.51 8.185-5.442 13.166-5.442 4.982 0 9.657 1.933 13.167 5.442 3.509 3.509 5.441 8.185 5.441 13.166 0 4.982-1.933 9.658-5.442 13.166z"/></g></svg>