<svg width="512" height="512" xmlns="http://www.w3.org/2000/svg"><g fill-rule="evenodd"><path d="M434.766 137.549a5.06 5.06 0 0 0-.288-1.425c-.069-.178-.11-.356-.179-.52-.274-.59-.617-1.15-1.097-1.63l-102.46-102.33c-.48-.48-1.041-.822-1.631-1.082-.178-.083-.357-.124-.521-.192a6.392 6.392 0 0 0-1.44-.288c-.124 0-.233-.068-.357-.068H164.087c-3.072 0-5.582 2.493-5.582 5.574v85.716H82.72c-3.072 0-5.582 2.493-5.582 5.575v335.89a5.574 5.574 0 0 0 5.582 5.575H347.9c3.071 0 5.581-2.493 5.581-5.575v-85.715h75.785c3.072 0 5.582-2.493 5.582-5.575V137.92c0-.124-.055-.233-.069-.357l-.013-.013zm-18.953-5.219h-83.424V49.011l83.424 83.32zM342.33 457.167H88.301V132.426h151.571v96.755a5.583 5.583 0 0 0 5.582 5.575h96.877v222.411zm-91.31-316.879l83.425 83.319h-83.424v-83.319zm102.46 225.603V229.18c0-.123-.068-.233-.068-.356a5.06 5.06 0 0 0-.288-1.424c-.069-.178-.11-.356-.179-.52-.274-.59-.617-1.151-1.097-1.63L249.39 122.92c-.48-.48-1.042-.823-1.631-1.097-.179-.082-.343-.123-.521-.178a5.172 5.172 0 0 0-1.44-.287c-.124 0-.234-.069-.357-.069H169.67V41.15h151.57v96.755a5.583 5.583 0 0 0 5.582 5.574h96.877v222.425h-70.217v-.013z"/><path d="M220.891 249.549h-11.15v39.666h-39.716v11.136h39.717v39.666h11.15v-39.666h39.716v-11.136h-39.717z"/></g></svg>