<svg width="512" height="512" xmlns="http://www.w3.org/2000/svg"><path d="M469.182 110.888l-19.635-19.636c-13.086-13.086-32.722-13.086-45.808 0l-58.893 58.893-98.164-114.518H66.722C48.726 35.627 34 50.354 34 68.348v376.29c0 17.994 14.727 32.721 32.721 32.721h245.404c17.995 0 32.721-14.727 32.721-32.721V281.03l124.336-124.336c13.086-13.086 13.086-32.722 0-45.807zm-222.5-50.716l76.888 89.987h-60.534c-8.177 0-16.354-8.177-16.354-16.354V60.172zm81.797 384.466c0 8.177-6.55 16.353-16.354 16.353H66.721c-8.176 0-16.353-6.55-16.353-16.353V68.348c0-8.176 6.55-16.353 16.353-16.353h163.607v81.796c0 17.995 14.727 32.722 32.722 32.722h65.443L164.886 330.12l-16.354 81.796 81.796-16.353 98.165-98.165v147.24h-.014zm-148.867-104.7l40.899 40.898-50.716 9.818 9.817-50.716zm53.984 29.453l-42.539-42.54 183.229-183.228 42.54 42.54-183.244 183.242.014-.014zM457.737 145.25l-27.812 27.813-42.54-42.54 27.813-27.812c6.55-6.55 16.354-6.55 22.904 0l19.635 19.635c6.55 6.55 6.55 16.354 0 22.904z" fill-rule="evenodd"/></svg>