<svg width="512" height="512" xmlns="http://www.w3.org/2000/svg"><g fill-rule="evenodd"><path d="M95.179 52.279v393.638c0 13.404 10.854 24.279 24.232 24.279h185.898V396.35H144.167c-4.013 0-7.268-3.26-7.268-7.282 0-4.021 3.255-7.282 7.268-7.282h161.555c2.304-13.777 14.275-24.306 28.673-24.306h83.426V52.292c0-13.403-10.854-24.278-24.232-24.278H119.411c-13.378 0-24.232 10.86-24.232 24.278v-.013zm190.035 21.39l20.577 73.748c4.703 16.582 8.055 30.939 12.978 47.742h.897c4.923-16.817 8.275-31.16 12.757-47.742l20.357-73.748h26.618l-45.416 146.597h-30.646L257.7 73.67h27.514zm-75.62-2.694c17.668 0 32.439 8.746 41.61 18.599l-14.536 16.14c-7.379-7.393-15.654-12.105-26.853-12.105-24.163 0-41.168 20.174-41.168 53.117 0 33.398 15.654 53.573 40.272 53.573 12.978 0 22.37-5.375 30.645-14.564l14.536 15.918c-11.86 13.666-27.293 21.294-45.636 21.294-37.362 0-66.449-26.904-66.449-75.544 0-47.963 29.983-76.428 67.566-76.428h.014zm-65.427 185.992h224.666c4.013 0 7.268 3.261 7.268 7.282 0 4.022-3.255 7.283-7.268 7.283H144.167c-4.014 0-7.268-3.261-7.268-7.283 0-4.02 3.255-7.282 7.268-7.282zm0 64.614h224.666c4.013 0 7.268 3.261 7.268 7.282s-3.255 7.282-7.268 7.282H144.167c-4.014 0-7.268-3.26-7.268-7.282 0-4.02 3.255-7.282 7.268-7.282z"/><path d="M415.532 372.031h-81.15c-8.027 0-14.537 6.522-14.537 14.565v83.6l97.976-98.165h-2.289z"/></g></svg>