<svg width="512" height="512" xmlns="http://www.w3.org/2000/svg"><g fill-rule="evenodd"><path d="M256.11 476.986h-.151c-121.8 0-220.931-99.132-220.959-220.958.041-121.868 99.188-221.014 221.014-221.014 59.048 0 114.547 22.984 156.274 64.725 41.728 41.742 64.712 97.213 64.698 156.233.042 59.021-22.915 114.506-64.642 156.275C370.616 453.988 315.13 477 256.097 477l.014-.014zm-.096-423.505c-111.647 0-202.505 90.859-202.547 202.547.042 111.646 90.873 202.477 202.505 202.477h.139c54.075 0 104.92-21.064 143.166-59.338 38.247-38.275 59.283-89.105 59.242-143.208.014-54.076-21.023-104.92-59.283-143.18C360.975 74.517 310.117 53.466 256 53.466l.014.014z"/><path d="M255.89 434.789h-.042c-47.777-.014-92.682-18.62-126.453-52.39-33.772-33.772-52.364-78.69-52.35-126.427-.014-98.566 80.182-178.775 178.79-178.802h.013c47.75 0 92.64 18.605 126.426 52.377 33.785 33.771 52.39 78.69 52.377 126.425.014 47.736-18.592 92.64-52.35 126.426-33.757 33.786-78.662 52.391-126.411 52.391zm-.042-339.152h-.014c-88.414.027-160.335 71.95-160.321 160.335-.014 42.833 16.657 83.096 46.934 113.373 30.277 30.277 70.555 46.963 113.401 46.977l.041 9.24v-9.24c42.805 0 83.069-16.686 113.346-46.977 30.263-30.29 46.962-70.554 46.935-113.373.014-42.805-16.672-83.068-46.963-113.359-30.29-30.29-70.554-46.976-113.373-46.976h.014z"/><path d="M257.243 149.036a4.613 4.613 0 0 1-4.613-4.613v-21.147a4.613 4.613 0 0 1 4.613-4.614 4.622 4.622 0 0 1 4.613 4.614v21.147a4.604 4.604 0 0 1-4.613 4.613zm29.2 3.909c-.4 0-.801-.055-1.216-.166-2.472-.649-3.922-3.19-3.273-5.65l5.497-20.428c.65-2.458 3.19-3.923 5.65-3.26a4.613 4.613 0 0 1 3.26 5.65l-5.484 20.415c-.54 2.058-2.431 3.425-4.448 3.425l.014.014zm27.169 11.312a4.526 4.526 0 0 1-2.307-.621 4.624 4.624 0 0 1-1.699-6.313l10.58-18.301c1.271-2.21 4.103-2.956 6.313-1.685a4.624 4.624 0 0 1 1.699 6.312l-10.58 18.302a4.634 4.634 0 0 1-4.006 2.306zm23.315 17.957a4.646 4.646 0 0 1-3.273-1.354c-1.796-1.796-1.796-4.724 0-6.533l14.945-14.945c1.796-1.796 4.724-1.796 6.533 0 1.81 1.795 1.796 4.723 0 6.533l-14.945 14.945a4.557 4.557 0 0 1-3.26 1.354zm17.888 23.398a4.634 4.634 0 0 1-4.006-2.307 4.606 4.606 0 0 1 1.699-6.312l18.302-10.58c2.196-1.299 5.027-.525 6.312 1.685 1.298 2.21.538 5.027-1.685 6.312l-18.302 10.58a4.666 4.666 0 0 1-2.307.622h-.013zm11.215 27.224a4.583 4.583 0 0 1-4.447-3.425 4.615 4.615 0 0 1 3.273-5.65l20.415-5.47c2.5-.593 4.986.816 5.65 3.274a4.626 4.626 0 0 1-3.274 5.65l-20.429 5.47c-.4.096-.8.151-1.188.151zm3.785 29.2a4.613 4.613 0 0 1-4.613-4.613 4.622 4.622 0 0 1 4.613-4.614l21.133-.013a4.622 4.622 0 0 1 4.614 4.613 4.622 4.622 0 0 1-4.614 4.613l-21.133.014zm-141.91-109.188a4.614 4.614 0 0 1-4.461-3.411l-5.484-20.43a4.63 4.63 0 0 1 3.274-5.662c2.5-.594 5 .8 5.663 3.273l5.484 20.415a4.63 4.63 0 0 1-3.274 5.663c-.4.097-.801.152-1.202.152zm-27.348 11.272a4.634 4.634 0 0 1-4.006-2.307l-10.58-18.302a4.614 4.614 0 0 1 1.685-6.312c2.196-1.299 5.028-.525 6.312 1.685l10.58 18.301a4.614 4.614 0 0 1-1.685 6.313 4.666 4.666 0 0 1-2.306.621zm-23.509 17.97a4.646 4.646 0 0 1-3.274-1.354l-14.945-14.932c-1.796-1.795-1.796-4.724 0-6.533 1.796-1.81 4.724-1.796 6.533 0l14.946 14.931c1.795 1.796 1.795 4.724 0 6.534a4.591 4.591 0 0 1-3.26 1.353zm-18.053 23.453a4.526 4.526 0 0 1-2.307-.622l-18.301-10.58a4.607 4.607 0 0 1-1.686-6.312 4.614 4.614 0 0 1 6.313-1.685l18.301 10.58a4.607 4.607 0 0 1 1.685 6.312 4.65 4.65 0 0 1-4.005 2.293v.014zm-11.382 27.307c-.4 0-.787-.055-1.188-.152l-20.428-5.47c-2.473-.662-3.937-3.19-3.274-5.649.663-2.458 3.246-3.867 5.65-3.273l20.428 5.47c2.473.662 3.937 3.19 3.274 5.649a4.627 4.627 0 0 1-4.462 3.425zm-3.895 29.338h-21.147a4.613 4.613 0 0 1-4.613-4.613 4.622 4.622 0 0 1 4.613-4.614h21.147a4.613 4.613 0 0 1 4.614 4.614 4.613 4.613 0 0 1-4.614 4.613zm-36.258 82.709c-2.1 0-4.212-.704-5.953-2.182-3.895-3.274-4.392-9.103-1.091-13.011 38.937-46.134 95.859-72.585 156.137-72.585h.069c60.291 0 117.226 26.45 156.178 72.57 3.273 3.896 2.803 9.738-1.092 13.012-3.922 3.301-9.751 2.804-13.011-1.105-35.43-41.962-87.198-66.01-142.075-66.01h-.056c-54.85 0-106.59 24.048-142.034 66.038a9.243 9.243 0 0 1-7.058 3.26l-.014.013z"/><path d="M258.514 361.293c-17.086 0-30.982-13.896-30.982-30.982s13.896-30.967 30.982-30.967c17.072 0 30.954 13.895 30.954 30.967 0 17.073-13.896 30.982-30.954 30.982zm0-43.454c-6.893 0-12.5 5.594-12.5 12.5 0 6.892 5.607 12.5 12.5 12.5 6.865 0 12.486-5.594 12.486-12.5s-5.621-12.5-12.486-12.5z"/><path d="M258.514 317.48c-5.11 0-9.24-4.13-9.24-9.241V180.225c0-5.111 4.13-9.24 9.24-9.24s9.24 4.129 9.24 9.24v128.014c0 5.11-4.13 9.24-9.24 9.24zm0 85.72c-5.11 0-9.24-4.13-9.24-9.24v-41.908c0-5.11 4.13-9.24 9.24-9.24s9.24 4.13 9.24 9.24v41.907c0 5.11-4.13 9.24-9.24 9.24z"/></g></svg>