<svg width="512" height="512" xmlns="http://www.w3.org/2000/svg"><path d="M419.27 161.864c0-1.089-.539-1.585-1.09-2.66 0 0 0-.537-.538-.537-.538-.538-1.09-1.585-1.586-2.122l-117.96-117.32c-.538-.538-1.09-1.089-2.124-1.585 0 0-.538 0-.538-.538-.538-.537-1.586-.537-2.124-1.088H121.976c-15.474 0-28.259 12.789-28.259 28.238v384.51c0 15.463 12.799 28.238 28.26 28.238H390.94c15.474 0 28.26-12.789 28.26-28.238V164a36.9 36.9 0 0 0 .054-2.122l.014-.014zm-33.652-7.993h-84.309V70.122l84.309 83.749zm13.888 294.891c0 4.796-3.752 8.545-8.551 8.545H121.99c-4.8 0-8.551-3.749-8.551-8.545V64.79c0-4.796 3.751-8.544 8.55-8.544h159.57V163.45c0 5.333 4.248 9.578 9.586 9.578h107.823v275.735h.538zm-45.361-102.918c0 5.333-4.248 9.578-9.585 9.578H166.813c-5.338 0-9.585-4.245-9.585-9.578 0-5.334 4.247-9.578 9.585-9.578h177.705c5.393-.593 9.64 3.707 9.64 9.578h-.013zm0 58.667c0 5.333-4.248 9.578-9.585 9.578H166.813c-5.338 0-9.585-4.245-9.585-9.578 0-5.334 4.247-9.578 9.585-9.578h177.705c5.393-.055 9.64 4.244 9.64 9.578h-.013zm0-117.32c0 5.333-4.248 9.578-9.585 9.578H166.813c-5.338 0-9.585-4.245-9.585-9.578 0-5.334 4.247-9.578 9.585-9.578h177.705c5.393-.055 9.64 4.244 9.64 9.578h-.013zm-187.332-68.3h177.705c5.338 0 9.586 4.245 9.586 9.578 0 5.333-4.248 9.578-9.586 9.578H166.813c-5.338 0-9.585-4.245-9.585-9.578-.538-4.796 4.247-9.578 9.585-9.578zm-10.137-48.538c0-5.333 4.248-9.578 9.585-9.578h61.373c5.337 0 9.585 4.245 9.585 9.578 0 5.334-4.248 9.578-9.585 9.578h-60.835c-5.337.593-10.137-3.707-10.137-9.578h.014zm0-58.115c0-5.333 4.248-9.578 9.585-9.578h61.373c5.337 0 9.585 4.245 9.585 9.578 0 5.333-4.248 9.578-9.585 9.578h-60.835c-5.337.055-10.137-4.245-10.137-9.578h.014z" fill-rule="evenodd"/></svg>