<svg width="512" height="512" xmlns="http://www.w3.org/2000/svg"><path d="M256 35C134.132 35 35 134.146 35 256s99.146 221 221 221 221-99.146 221-221c0-121.868-99.146-221-221-221zm0 415.259c-107.116 0-194.273-87.143-194.273-194.259 0-107.116 87.157-194.273 194.273-194.273S450.273 148.884 450.273 256 363.116 450.259 256 450.259zm65.817-141.15l8.37 28.067-27.432-9.02-97.889-97.889 19.061-19.06 97.89 97.902zm-112.53-112.365l-18.896 18.91-19.365-19.365 18.895-18.91 19.365 19.365z" fill="#444" fill-rule="evenodd"/></svg>