<svg width="512" height="512" xmlns="http://www.w3.org/2000/svg"><g fill-rule="evenodd"><path d="M300.866 133.243h56.287l.005 65.746 28.536-44.36v-37.184a8.6 8.6 0 0 0-2.507-6.063L310.396 38.51a8.558 8.558 0 0 0-6.054-2.51H79.278c-14.162 0-25.686 11.532-25.686 25.712v388.576c0 14.179 11.523 25.712 25.686 25.712h280.73c14.16 0 25.683-11.533 25.683-25.712V339.967l-28.529 43.707.004 63.752H82.132V64.573h208.133v58.056c0 5.865 4.746 10.614 10.601 10.614z"/><path d="M417.56 240.415l-11.793-7.715a4.16 4.16 0 0 0-5.762 1.209l-63.503 97.288-12.211-7.988 63.503-97.29a4.168 4.168 0 0 0-1.206-5.767l-11.794-7.716a4.158 4.158 0 0 0-5.762 1.209l-95.084 145.674a4.183 4.183 0 0 0-.673 2.074l-2.485 50.556a4.162 4.162 0 0 0 6.012 3.932l45.25-22.579a4.15 4.15 0 0 0 1.63-1.451l95.082-145.673a4.161 4.161 0 0 0-1.203-5.763zm38.961-59.692l-42.765-27.98a4.16 4.16 0 0 0-5.761 1.21l-28.842 44.187a4.173 4.173 0 0 0 1.208 5.77l42.765 27.978a4.159 4.159 0 0 0 5.76-1.209l28.842-44.186a4.168 4.168 0 0 0-1.207-5.77zm-332.824-53.096h81.619c5.78 0 10.464-4.691 10.464-10.476 0-5.785-4.685-10.477-10.464-10.477h-81.619c-5.779 0-10.464 4.692-10.464 10.477s4.687 10.476 10.464 10.476zm154.866 41.905c0-5.785-4.686-10.477-10.464-10.477H123.697c-5.779 0-10.464 4.692-10.464 10.477s4.685 10.476 10.464 10.476H268.1c5.78 0 10.464-4.691 10.464-10.476zm-154.866 62.857h81.619c5.78 0 10.464-4.691 10.464-10.476 0-5.785-4.685-10.477-10.464-10.477h-81.619c-5.779 0-10.464 4.692-10.464 10.477s4.687 10.476 10.464 10.476zm0 52.381h81.619c5.78 0 10.464-4.692 10.464-10.476 0-5.784-4.685-10.477-10.464-10.477h-81.619c-5.779 0-10.464 4.693-10.464 10.477 0 5.784 4.687 10.476 10.464 10.476zm4.43 135.386c-2.038 2.635 1.637 6.371 3.7 3.7 6.501-8.407 11.87-17.464 16.354-27.022 2.798 1.758 6.472 1.406 9.485.214 4.344-1.715 8.026-5.024 11.533-8.02 2.073-1.77 4.486-4.694 7.355-4.973 2.19-.21 5.15 1.555 7.34 1.931 5.723.977 12.407-.682 17.932-2.049 5.244-1.296 11.384-3.346 14.47-8.099 1.844-2.841-2.687-5.464-4.518-2.64-2.47 3.804-8.503 4.99-12.58 5.998-4.784 1.185-10.337 2.353-15.268 1.51-3.717-.632-6.723-2.883-10.545-1.178-5.119 2.284-9.029 7.083-13.55 10.323-2.022 1.45-4.334 2.843-6.864 3.04-1.04.08-1.89-.302-2.595-.94.557-1.292 1.11-2.591 1.636-3.902 5.102-12.68 7.41-25.557 9.777-38.915 1.204-6.787 3.205-17.482-6.512-18.135-8.585-.574-16.005 11.825-18.749 18.359-2.454 5.843-2.727 12.632-2.54 18.871.117 3.89 1.515 7.927 2.545 11.947-8.239 1.324-15.5 9.655-14.228 17.915 1.252 8.127 11.403 3.93 15.194.923 3.837-3.044 5.08-6.846 5.12-10.946.765 1.262 1.405 2.776 2.066 4.193-4.421 9.928-9.964 19.365-16.558 27.895zm9.17-29.649c-.774 3.455-5.14 6.866-8.579 7.185-2.705.251-1.055-4.586-.52-5.667 1.678-3.396 5.837-5.613 9.333-6.569.163 1.705.137 3.394-.234 5.051zm4.37-10.142c-.89-4.165-2.126-8.349-2.446-12.135-.62-7.307.677-14.964 4.296-21.354 2.261-3.994 6.87-10.114 11.76-10.638 4.367-.465 1.704 10.167 1.326 12.303-1.169 6.594-2.003 13.139-3.632 19.657a147.264 147.264 0 0 1-5.722 17.909c-1.22-3.037-2.807-4.981-5.582-5.742z"/></g></svg>