<svg width="512" height="512" xmlns="http://www.w3.org/2000/svg"><g fill-rule="evenodd"><path d="M427.797 35H169.8c-14.765 0-26.777 12.015-26.777 26.782v59.934c-48.943 14.01-84.87 59.165-84.87 112.556s35.926 98.546 84.87 112.555v103.118c0 14.768 12.012 26.783 26.777 26.783h210.834c2.502 0 4.9-.994 6.67-2.763l64.508-64.523a9.434 9.434 0 0 0 2.762-6.67V61.782c0-14.767-12.011-26.782-26.776-26.782zM169.8 53.866h257.998c4.364 0 7.914 3.551 7.914 7.916v28.469H161.884V61.782c0-4.365 3.55-7.916 7.915-7.916zM77.015 234.27c0-54.139 44.035-98.183 98.163-98.183 54.127 0 98.163 44.044 98.163 98.183 0 54.139-44.036 98.184-98.163 98.184-54.128 0-98.163-44.045-98.163-98.184zm84.869 215.674V350.56c4.365.496 8.8.76 13.295.76 35.15 0 66.728-15.584 88.198-40.204h57.785c5.21 0 9.431-4.223 9.431-9.433s-4.222-9.433-9.43-9.433h-44.354a116.219 116.219 0 0 0 14.95-47.831h29.403c5.208 0 9.43-4.223 9.43-9.433s-4.222-9.433-9.43-9.433h-29.284a116.209 116.209 0 0 0-14.269-47.83h43.552c5.208 0 9.43-4.223 9.43-9.433s-4.222-9.433-9.43-9.433h-56.563c-21.483-25.445-53.595-41.637-89.422-41.637-4.495 0-8.93.264-13.295.76v-8.864H435.71v284.22h-37.732c-14.766 0-26.776 12.015-26.776 26.782v37.741H169.799c-4.365 0-7.915-3.55-7.915-7.915zm228.181-5.426v-24.4c0-4.365 3.55-7.915 7.914-7.915h24.395l-32.309 32.315z"/><path d="M358.216 177.724h31.32c5.209 0 9.431-4.223 9.431-9.433s-4.222-9.433-9.43-9.433h-31.32c-5.21 0-9.432 4.223-9.432 9.433s4.223 9.433 9.431 9.433zm0 66.696h31.32c5.209 0 9.431-4.223 9.431-9.433s-4.222-9.433-9.43-9.433h-31.32c-5.21 0-9.432 4.223-9.432 9.433s4.223 9.433 9.431 9.433zm0 66.697h31.32c5.209 0 9.431-4.223 9.431-9.433s-4.222-9.433-9.43-9.433h-31.32c-5.21 0-9.432 4.223-9.432 9.433s4.223 9.433 9.431 9.433zm31.32 66.696c5.209 0 9.431-4.223 9.431-9.433s-4.222-9.433-9.43-9.433h-88.225c-5.209 0-9.431 4.224-9.431 9.433 0 5.21 4.222 9.433 9.43 9.433h88.225zM248.4 186.686l-11.506-11.508a16.298 16.298 0 0 0-11.6-4.806 16.298 16.298 0 0 0-11.6 4.806l-60.35 60.362-16.681-16.686a16.299 16.299 0 0 0-11.6-4.804 16.296 16.296 0 0 0-11.599 4.805l-11.508 11.51c-6.395 6.397-6.395 16.807 0 23.204l39.788 39.794a16.294 16.294 0 0 0 11.6 4.808h.002c4.38 0 8.5-1.707 11.598-4.806l83.457-83.474c6.395-6.397 6.395-16.808 0-23.205zm-95.056 91.6l-36.313-36.32 8.031-8.033 21.613 21.617a9.43 9.43 0 0 0 13.338 0l65.281-65.295 8.032 8.033-79.982 79.998z"/></g></svg>