<svg width="512" height="512" xmlns="http://www.w3.org/2000/svg"><path d="M256 104c-106.43 0-198.677 61.976-244 152.5C57.323 347.024 149.57 409 256 409s198.662-61.976 244-152.5C454.677 165.976 362.43 104 256 104zm120.307 80.87c28.67 18.285 52.964 42.777 71.218 71.63-18.254 28.838-42.548 53.345-71.218 71.63-36.02 22.981-77.622 35.12-120.307 35.12s-84.287-12.139-120.307-35.12c-28.67-18.285-52.964-42.777-71.218-71.63 18.254-28.838 42.548-53.344 71.218-71.63a193.227 193.227 0 0 1 5.657-3.476 121.767 121.767 0 0 0-7.35 41.739c0 67.374 54.625 122 122 122s122-54.626 122-122c0-14.67-2.592-28.716-7.35-41.74a245.192 245.192 0 0 1 5.657 3.478zM256 210.75c0 25.27-20.48 45.75-45.75 45.75s-45.75-20.48-45.75-45.75S184.98 165 210.25 165 256 185.48 256 210.75z" fill-rule="evenodd"/></svg>