<svg width="512" height="512" xmlns="http://www.w3.org/2000/svg"><path d="M362.873 38.09l-56.21-.09c-63.15 0-103.96 41.926-103.96 106.818v49.25h-56.517c-4.884 0-8.839 3.965-8.839 8.855v71.358c0 4.89 3.96 8.85 8.839 8.85h56.516V463.19c0 4.89 3.955 8.85 8.839 8.85h73.738c4.884 0 8.839-3.965 8.839-8.85V283.13h66.08c4.885 0 8.84-3.96 8.84-8.85l.026-71.358a8.87 8.87 0 0 0-2.588-6.259 8.834 8.834 0 0 0-6.255-2.596h-66.103v-41.75c0-20.067 4.775-30.254 30.88-30.254l37.866-.013c4.88 0 8.834-3.965 8.834-8.85V46.94c0-4.882-3.95-8.842-8.825-8.85z" fill-rule="evenodd"/></svg>