<svg width="512" height="512" xmlns="http://www.w3.org/2000/svg"><g fill-rule="evenodd"><path d="M462.805 29.91c-8.936-8.922-23.409-8.922-32.345 0l-96.35 96.197c-24.75-7.492-50.965-11.526-78.11-11.526-106.43 0-198.677 61.877-244 152.258 19.596 39.07 47.961 72.81 82.457 98.541l-75.762 75.642c-8.937 8.922-8.937 23.372 0 32.294 4.468 4.461 10.324 6.684 16.18 6.684s11.712-2.223 16.18-6.684l411.75-411.097c8.937-8.922 8.937-23.387 0-32.294v-.015zM210.25 175.484c20.13 0 37.21 12.987 43.325 31.015l-58.01 57.919c-18.057-6.106-31.065-23.159-31.065-43.257 0-25.229 20.48-45.677 45.75-45.677zM64.475 266.839c18.255-28.792 42.548-53.26 71.218-71.516a193.682 193.682 0 0 1 5.657-3.471 121.401 121.401 0 0 0-7.35 41.673c0 26.112 8.235 50.306 22.25 70.145l-29.036 28.99c-24.995-17.525-46.33-39.907-62.739-65.821zM378 233.54c0-12.927-2.028-25.382-5.764-37.06L218.88 349.591a122.157 122.157 0 0 0 37.134 5.755c67.375 0 122-54.539 122-121.806H378z"/><path d="M407.555 161.202l-33.063 33.01c.61.38 1.205.746 1.8 1.126 28.67 18.256 52.963 42.709 71.218 71.516-18.255 28.792-42.548 53.26-71.218 71.516-36.02 22.945-77.622 35.065-120.307 35.065a223.807 223.807 0 0 1-54.306-6.685l-36.645 36.588c28.456 10.217 59.063 15.774 90.95 15.774 106.415 0 198.662-61.878 244-152.258-21.456-42.785-53.435-79.174-92.445-105.637l.016-.015z"/></g></svg>