<svg width="512" height="512" xmlns="http://www.w3.org/2000/svg"><path d="M100.44 100.497c-84.587 84.677-84.579 222.462.008 307.15 84.562 84.669 222.18 84.669 306.758-.016 84.583-84.672 84.574-222.445.008-307.105-84.587-84.697-222.204-84.697-306.774-.029zm283.105 283.454c-71.524 71.61-187.92 71.618-259.448.008-71.544-71.623-71.531-188.159 0-259.769 71.528-71.61 187.916-71.619 259.456.004 71.527 71.61 71.52 188.15-.008 259.757zM198.262 224.778c-9.232 0-16.723-11.368-16.723-25.392 0-14.012 7.49-25.383 16.723-25.383 9.232 0 16.723 11.367 16.723 25.383 0 14.024-7.49 25.392-16.723 25.392zm-19.205-53.125a10.232 10.232 0 0 1-10.062 8.498 10.25 10.25 0 0 1-1.75-.151c-5.56-.962-9.293-6.255-8.337-11.826 2.07-11.998 12.974-34.11 40.192-31.872 5.626.463 9.809 5.404 9.347 11.036a10.177 10.177 0 0 1-11.023 9.362c-15.112-1.277-18.08 13.287-18.367 14.953zm150.893 27.733c0 14.024-7.49 25.392-16.727 25.392-9.232 0-16.722-11.368-16.722-25.392 0-14.012 7.49-25.383 16.722-25.383 9.237 0 16.727 11.367 16.727 25.383zm22.627-31.216c.957 5.57-2.776 10.864-8.333 11.826a10.71 10.71 0 0 1-1.754.151 10.235 10.235 0 0 1-10.062-8.498c-.286-1.662-3.255-16.222-18.366-14.949a10.169 10.169 0 0 1-11.02-9.362c-.461-5.632 3.721-10.573 9.347-11.036 27.215-2.239 38.12 19.87 40.188 31.868zm-46.284 160.16c0 33.496-23.53 60.746-52.47 60.746-28.94 0-52.47-27.25-52.47-60.747 0-33.492 23.53-60.726 52.47-60.726 28.94 0 52.47 27.234 52.47 60.726z" fill-rule="evenodd"/></svg>