<svg width="512" height="512" xmlns="http://www.w3.org/2000/svg"><path d="M407.214 100.522c-84.587-84.693-222.208-84.693-306.778-.02-84.587 84.672-84.579 222.457.008 307.145 84.562 84.669 222.183 84.669 306.762-.016 84.579-84.672 84.574-222.449.008-307.11zm-23.67 283.429c-71.527 71.61-187.915 71.618-259.447.008-71.544-71.623-71.535-188.159 0-259.769 71.528-71.606 187.912-71.615 259.456.008 71.527 71.61 71.52 188.146-.008 259.753zM172.909 195.297c0-14.016 11.354-25.383 25.354-25.383 13.995 0 25.35 11.363 25.35 25.383 0 14.024-11.355 25.387-25.35 25.387-14 0-25.354-11.363-25.354-25.387zm114.962 0c0-14.016 11.362-25.383 25.362-25.383 13.995 0 25.35 11.363 25.35 25.383 0 14.024-11.35 25.387-25.35 25.387-14 0-25.362-11.363-25.362-25.387zm59.94 103.96c-15.713 36.379-52.511 59.883-93.742 59.883-42.117 0-79.132-23.623-94.301-60.185-2.6-6.26.364-13.447 6.624-16.05a12.258 12.258 0 0 1 16.032 6.635c11.354 27.368 39.476 45.044 71.645 45.044 31.442 0 59.4-17.688 71.225-45.073 2.69-6.226 9.911-9.095 16.126-6.398 6.215 2.698 9.081 9.923 6.39 16.145z" fill-rule="evenodd"/></svg>