<svg width="512" height="512" xmlns="http://www.w3.org/2000/svg"><g fill="#010002" fill-rule="evenodd"><path d="M295.26 34c-4.38 0-7.933 3.57-7.933 7.93 0 4.38 3.556 7.932 7.934 7.932h119.957L214.803 250.209c-3.096 3.095-3.096 8.139 0 11.217 1.556 1.572 3.601 2.316 5.617 2.316a7.912 7.912 0 0 0 5.617-2.316L426.468 61.08v119.853c0 4.395 3.54 7.93 7.934 7.93 4.364 0 7.933-3.538 7.933-7.93V34H295.261z"/><path d="M354.184 194.401c-4.365 0-7.934 3.57-7.934 7.93v149.6H237.609v108.604H84.931V113.178h195.383a7.935 7.935 0 0 0 7.933-7.93c0-4.377-3.556-7.931-7.933-7.931H69.06v379.085h180.42L362.12 365.91V202.332c0-4.36-3.571-7.931-7.935-7.931zM337.52 367.795l-84.045 82.462v-82.462h84.045z"/></g></svg>