<svg width="512" height="512" xmlns="http://www.w3.org/2000/svg"><g fill-rule="evenodd"><path d="M492.365 245.75c-.99-1.253-24.721-31.025-65.404-60.918-54.369-39.946-113.525-61.06-171.073-61.06s-116.704 21.114-171.072 61.06c-40.684 29.892-64.415 59.665-65.405 60.917L11 256.39l8.411 10.64c.99 1.252 24.721 31.025 65.405 60.918 54.369 39.945 113.524 61.059 171.072 61.059s116.704-21.114 171.073-61.06c40.683-29.892 64.414-59.665 65.404-60.917l8.413-10.64-8.413-10.64zm-86.499 55.115c-33.618 24.555-86.926 53.828-149.978 53.828-63.05 0-116.36-29.273-149.977-53.828-23.07-16.851-40.36-33.894-50.216-44.477 9.861-10.585 27.148-27.626 50.215-44.476 33.618-24.556 86.926-53.829 149.977-53.829 63.05 0 116.362 29.273 149.977 53.83 23.07 16.85 40.359 33.893 50.216 44.474-9.86 10.587-27.149 27.629-50.214 44.478z"/><path d="M255.888 183.829c-17.6 0-33.737 6.272-46.3 16.698 9.942 2.91 17.207 12.094 17.207 22.98 0 13.225-10.72 23.947-23.946 23.947-6.95 0-13.205-2.964-17.58-7.692a72.754 72.754 0 0 0-1.937 16.628c0 40.074 32.485 72.56 72.556 72.56s72.555-32.486 72.555-72.56c0-40.075-32.482-72.561-72.555-72.561z"/></g></svg>