<svg width="512" height="512" xmlns="http://www.w3.org/2000/svg"><path d="M457.94 134.855v-82.37h-82.334v-13.15h95.46v95.503H457.94v.017zm-79.657 38.267c.209.434.365.92.47 1.407 1.86 8.095 5.007 17.162 6.675 19.316 3.46 2.814 4.173 7.886 1.53 11.534a8.467 8.467 0 0 1-6.884 3.526 8.497 8.497 0 0 1-4.955-1.598c-6.032-4.36-10.24-17.63-12.725-28.279-.383-1.042-.73-2.414-1.27-4.62-16.358-65.087-50.38-101.34-98.361-104.865-58.187-2.901-98.467 50.704-115.695 73.598l-2 2.675c-4.606 6.08-9.56 10.44-12.933 13.01-7.58 5.82-10.049 5.872-12.709 5.281a8.51 8.51 0 0 1-6.467-6.462c-.695-3.23.591-6.635 3.234-8.633a8.144 8.144 0 0 1 2.034-1.146c2.103-1.234 8.188-5.455 13.351-12.281l1.982-2.64c18.828-25.066 62.95-83.76 130.159-80.321h.174c36.473 2.64 65.905 20.844 87.479 54.143 16.707 25.778 23.59 53.171 26.181 63.49.261 1.093.591 2.275.73 2.848v.017zM43.334 134.855H30.191V39.353h95.46v13.15H43.333v82.37-.018zm-.14 332.157h82.317v13.132H30.052v-95.485h13.143v82.353zm74.946-176.206c-1.652-4.377.539-9.275 4.92-10.925.087-.053.313-.122.695-.244 17.541-6.027 107.628-39.639 157.54-109.641a8.45 8.45 0 0 1 11.804-1.963c3.824 2.71 4.694 7.99 1.982 11.829-52.902 74.206-147.422 109.503-165.815 115.808l-.295.104a8.373 8.373 0 0 1-2.886.522 8.502 8.502 0 0 1-7.928-5.472l-.017-.018zm149.073-184.282c-7.614 1.598-13.873 3.84-20.114 7.053-6.606 3.404-12.882 7.417-18.793 11.933-.33.26-1.651 1.303-1.825 1.46-.678.538-1.339 1.093-2 1.632a178.63 178.63 0 0 0-3.876 3.352 175.117 175.117 0 0 0-7.145 6.775c-4.225 4.256-8.293 8.685-12.065 13.358-9.37 11.499-19.558 22.008-31.38 31.006-6.084 4.62-12.638 7.99-19.244 11.76-7.823 4.446-15.681 8.91-24.339 11.499-4.433 1.337-9.213-1.546-10.413-5.924-1.252-4.533 1.495-9.102 5.91-10.422 2.87-.868 5.06-1.667 7.598-2.918 7.406-3.613 14.707-7.765 21.835-11.847 6.745-3.873 11.352-7.573 17.054-12.732 5.563-5.003 10.883-10.335 15.75-16.033 3.721-4.343 7.163-8.894 11.005-13.132 20.184-22.251 46.382-41.394 77.014-44.572 4.607-.47 8.484 4.22 8.484 8.476 0 4.968-3.894 7.99-8.484 8.477-1.895.191-2.434.243-4.955.764l-.017.035zM133.508 323.636c35.812-15.338 86.54-47.004 106.69-59.91 40.175-25.743 67.052-51.798 75.692-73.372 4.624-11.604 4.955-23.138.87-31.667-3.426-7.139-9.858-12.194-19.124-15.042-15.768-4.83-35.986 10.179-49.65 25.847-.278.312-33.361 35.54-69.852 57.895-1.13.678-26.963 16.19-54.918 23.798-4.52 1.233-9.179-1.425-10.396-5.958-1.251-4.517 1.426-9.172 5.946-10.405 25.694-7 50.328-21.783 50.572-21.922 33.639-20.6 65.661-54.317 65.957-54.63 22.496-25.777 47.06-37.033 67.313-30.832 13.804 4.221 23.974 12.507 29.45 23.92 6.136 12.801 5.963 29.303-.418 45.284-12.725 31.822-51.77 61.803-82.264 81.345-20.513 13.15-72.18 45.424-109.175 61.23a8.73 8.73 0 0 1-3.32.678 8.525 8.525 0 0 1-7.806-5.124c-1.825-4.308.156-9.293 4.468-11.135h-.035zm20.48 39.779c10.43-2.797 34.386-18.621 55.543-32.57 29.345-19.35 47.93-31.232 58.569-33.073 14.15-2.432 31.518 9.953 51.667 24.284 13.873 9.9 28.267 20.132 40.002 24.058 4.433 1.476 6.832 6.288 5.354 10.735-1.477 4.43-6.276 6.826-10.709 5.35-14.15-4.725-29.57-15.703-44.47-26.316-14.15-10.093-31.761-22.617-38.958-21.4-7.91 1.372-32.423 17.526-52.12 30.502-24.373 16.085-47.407 31.284-60.48 34.793a8.043 8.043 0 0 1-2.208.295 8.449 8.449 0 0 1-8.154-6.288c-1.234-4.517 1.443-9.154 5.963-10.388v.018zm39.062 31.249c36.943-26.959 58.934-41.932 69.417-43.739 10.344-1.789 24.756 6.723 47.443 20.74 10.726 6.636 21.835 13.497 28.65 15.964 4.415 1.598 6.675 6.462 5.093 10.856-1.582 4.395-6.45 6.67-10.83 5.09-8.484-3.075-19.819-10.075-31.832-17.492-11.37-7.035-30.457-18.795-35.725-18.43-8.484 1.46-47.512 29.981-62.22 40.716-4.572 3.353-8.518 6.236-11.334 8.216a8.373 8.373 0 0 1-4.885 1.564c-2.643 0-5.285-1.251-6.92-3.596-2.711-3.821-1.79-9.12 2.035-11.812 2.694-1.928 6.606-4.777 11.126-8.077h-.018zm64.462 9.64c13.16-2.275 25.173 6.306 39.064 16.207 4.224 3.022 8.605 6.15 13.351 9.258a8.478 8.478 0 0 1 2.469 11.725 8.463 8.463 0 0 1-11.735 2.467c-5.059-3.3-9.77-6.67-13.925-9.658-10.83-7.712-20.184-14.365-26.355-13.323-6.259 1.094-22.374 14.4-33.709 26.125a8.47 8.47 0 0 1-6.102 2.588c-2.12 0-4.26-.781-5.893-2.397-3.355-3.248-3.442-8.616-.191-11.985 4.59-4.725 28.18-28.47 43.01-31.041l.016.034zm47.234-140.526c-1.738-4.29 1.86-9.328 5.929-10.44 4.833-1.32 8.675 1.65 10.413 5.924 5.459 13.497 16.724 24.058 29.05 31.336 6.728 3.978 11.543 6.462 17.906 8.425 10.413 3.213 5.963 19.576-4.503 16.363-25.52-7.87-48.694-26.699-58.795-51.608zm71.19 5.68c-19.314-8.164-35.499-20.062-39.115-42.053-1.756-10.683 14.551-15.269 16.342-4.5 1.356 8.269 4.398 15.408 10.952 20.863 5.945 4.95 13.334 8.094 20.392 11.064 4.26 1.807 5.146 8.008 3.042 11.604-2.555 4.36-7.336 4.829-11.595 3.04l-.018-.018zm81.865 115.2h13.142v95.486h-95.476v-13.132h82.334v-82.353z" fill="#444" fill-rule="evenodd"/></svg>