<svg width="512" height="512" xmlns="http://www.w3.org/2000/svg"><path d="M464.54 190.583l-51.766-51.757 42.66-42.66c11.68-11.67 11.68-30.6 0-42.279-11.678-11.67-30.58-11.67-42.268 0l-42.66 42.651-51.749-51.767c-11.688-11.679-30.599-11.67-42.287 0-11.68 11.68-11.68 30.609 0 42.279l51.767 51.767-47.903 47.902c-25.683-17.399-55.918-26.792-87.627-26.792-41.857 0-81.2 16.3-110.794 45.884C52.309 235.397 36 274.748 36 316.605c0 41.858 16.309 81.218 45.913 110.804 29.595 29.604 68.937 45.884 110.794 45.884s81.2-16.29 110.803-45.884c53.843-53.862 60.147-137.472 19.045-198.392l47.95-47.95 51.767 51.776c5.825 5.834 13.478 8.761 21.13 8.761 7.661 0 15.304-2.917 21.139-8.752 11.679-11.67 11.679-30.599 0-42.269zM261.233 385.15c-18.308 18.298-42.632 28.38-68.525 28.38-25.884 0-50.217-10.082-68.525-28.38-18.299-18.308-28.4-42.633-28.4-68.526 0-25.883 10.101-50.217 28.4-68.525 18.308-18.298 42.641-28.38 68.525-28.38 25.893 0 50.217 10.072 68.516 28.37 37.782 37.793 37.782 99.268.01 137.06z" fill-rule="evenodd"/></svg>