<svg width="512" height="512" xmlns="http://www.w3.org/2000/svg"><g fill="#030104" fill-rule="evenodd"><path d="M435.118 35H76.878c-23.084 0-41.857 18.775-41.857 41.86v358.254c0 23.084 18.773 41.856 41.857 41.856h358.24c23.087 0 41.832-18.772 41.832-41.856V76.859C476.949 53.774 458.205 35 435.118 35zm5.99 400.112c0 3.278-2.684 5.988-5.99 5.988H76.878c-3.279 0-5.978-2.714-5.978-5.988V76.858c0-3.306 2.698-5.979 5.978-5.979h358.24a5.984 5.984 0 0 1 5.99 5.98v358.253z"/><path d="M393.91 116.646H118.06c-5.548 0-10.045 4.497-10.045 10.046v35.353c0 5.548 4.497 10.045 10.045 10.045h275.85c5.548 0 10.045-4.497 10.045-10.045v-35.353c0-5.55-4.498-10.046-10.045-10.046zm0 111.616H118.06c-5.548 0-10.045 4.497-10.045 10.046v35.352c0 5.55 4.497 10.045 10.045 10.045h275.85c5.548 0 10.045-4.496 10.045-10.045v-35.352c0-5.55-4.498-10.046-10.045-10.046zm0 111.615H118.06c-5.548 0-10.045 4.497-10.045 10.046v35.353c0 5.55 4.497 10.046 10.045 10.046h275.85c5.548 0 10.045-4.496 10.045-10.046v-35.353c0-5.549-4.498-10.046-10.045-10.046z"/></g></svg>