<svg width="512" height="512" xmlns="http://www.w3.org/2000/svg"><path d="M256 35C133.939 35 35 65.926 35 104.063V145.5l165.75 165.75v138.125C200.75 464.638 225.488 477 256 477s55.25-12.362 55.25-27.625V311.25L477 145.5v-41.438C477 65.927 378.061 35 256 35zM75.747 94.919c10.332-5.898 24.849-11.492 41.99-16.175 37.957-10.387 87.06-16.119 138.277-16.119 51.217 0 100.306 5.718 138.277 16.12 17.141 4.695 31.658 10.29 41.99 16.174 6.823 3.88 10.497 7.168 12.21 9.143-1.713 1.962-5.4 5.25-12.21 9.144-10.332 5.898-24.863 11.492-41.99 16.175-37.957 10.387-87.06 16.119-138.277 16.119-51.217 0-100.307-5.718-138.277-16.12-17.128-4.695-31.658-10.29-41.99-16.174-6.823-3.895-10.498-7.168-12.21-9.144 1.712-1.96 5.4-5.248 12.21-9.143z" fill-rule="evenodd"/></svg>