<svg width="512" height="512" xmlns="http://www.w3.org/2000/svg"><path d="M383.481 141.141c0 14.519-10.564 23.349-18.278 29.828-2.922 2.455-8.36 6.933-8.345 8.606.053 6.561-5.22 11.801-11.78 11.801h-.099c-6.513 0-11.82-5.079-11.873-11.607-.105-12.869 9.281-20.575 16.824-26.91 5.918-4.973 9.8-8.471 9.8-11.673 0-6.48-5.271-11.754-11.749-11.754-6.48 0-11.752 5.273-11.752 11.754 0 6.563-5.316 11.882-11.876 11.882s-11.876-5.319-11.876-11.882c0-19.584 15.926-35.518 35.501-35.518 19.577-.002 35.503 15.887 35.503 35.473zm-38.173 61.204c-6.56 0-11.614 5.32-11.614 11.882v.091c0 6.563 5.055 11.838 11.614 11.838 6.558 0 11.876-5.366 11.876-11.929 0-6.563-5.317-11.882-11.876-11.882zm-239.38 82.77c-6.56 0-11.876 5.32-11.876 11.882 0 6.563 5.316 11.882 11.876 11.882h.99c6.559 0 11.875-5.319 11.875-11.882s-5.316-11.882-11.876-11.882h-.99zm41.274 0c-6.56 0-11.876 5.32-11.876 11.882 0 6.563 5.317 11.882 11.876 11.882h.989c6.56 0 11.876-5.319 11.876-11.882s-5.317-11.882-11.876-11.882h-.989zM496 95.33v133.742c0 31.666-25.378 57.362-57.027 57.362H284.958c-3.012 0-5.491-.017-7.565-.06-2.174-.045-4.62-.063-5.574.043-.994.66-3.43 2.893-5.777 5.057-.93.856-1.984 1.799-3.12 2.837l-43.574 39.736c-3.476 3.173-8.618 3.994-12.923 2.096-4.304-1.9-7.326-6.165-7.326-10.871V199.299H74.691c-18.556 0-33.939 15.213-33.939 33.776v133.742c0 18.564 15.385 33.159 33.94 33.159h172.035c2.963 0 5.734 1.361 7.922 3.36l35.5 32.747V323.151c0-6.563 5.316-11.882 11.876-11.882s11.876 5.32 11.876 11.882v139.864c0 4.707-2.692 8.908-6.998 10.807-1.54.68-3.086.948-4.705.948-2.909 0-5.777-1.195-8.009-3.233l-52.066-47.798H74.691c-31.65 0-57.691-25.256-57.691-56.924v-133.74c0-31.666 26.04-57.54 57.691-57.54H199.1V95.33c0-31.667 26.24-57.101 57.89-57.101h181.985C470.622 38.23 496 63.664 496 95.33zm-23.752 0c0-18.563-14.722-33.337-33.275-33.337H256.99c-18.555 0-34.139 14.774-34.139 33.337v203.01l23.878-21.59c1.105-1.01 2.345-1.934 3.248-2.768 10.904-10.053 13.693-11.66 27.916-11.366 1.94.04 4.25.055 7.065.055h154.015c18.553 0 33.275-15.035 33.275-33.597V95.33z" fill-rule="evenodd"/></svg>