<svg width="512" height="512" xmlns="http://www.w3.org/2000/svg"><path d="M273.417 248.473h-141.6v16.054h141.6v-16.054zm0 53.16h-141.6v17.17h141.6v-17.17zm-87.934-266.35v53.444h-53.666v53.444H79.549v335.58H326.8v-53.708h52.268V371.98h53.383V35.301H185.483v-.017zm124.166 425.28H96.7V158.208h212.949v302.357zm52.268-52.61H326.8v-265.8H148.968V105.88h212.949v302.073zm53.383-53.16h-36.232V88.709H202.617V52.436H415.3v302.357zm-141.883 52.876h-141.6v17.171h141.6v-17.17zm0-53.425h-141.6v17.17h141.6v-17.17zm.265-159.48h-141.6v17.72h141.6v-17.72z" fill-rule="evenodd"/></svg>