<svg width="512" height="512" xmlns="http://www.w3.org/2000/svg"><path d="M264.993 148v-38.552a22.127 22.127 0 0 0-7.56-17.212 13.09 13.09 0 0 0-11.161-2.986A107.682 107.682 0 0 0 172 144.312a189.144 189.144 0 0 1 30.5-2.635A318.468 318.468 0 0 1 264.993 148zM133.359 266.792A145.636 145.636 0 0 1 121.135 327H350.3c6.508-4.835 21.369-16.7 24.886-19.776a57.733 57.733 0 0 1 50.3-13.536c.73.186 1.438.451 2.111.792l63.227 32.433a3.163 3.163 0 0 0 2.638-1.231c.36-.544.516-1.198.44-1.846l-21.281-41.75c-.176-.44-.352-.791-.528-1.23a31.534 31.534 0 0 1 0-20.128l21.896-51.595a2.407 2.407 0 0 0-.791-2.021 3.02 3.02 0 0 0-2.55-.967l-63.93 24.258a9.126 9.126 0 0 1-1.232.352 57.404 57.404 0 0 1-50.3-13.536C345.199 190.851 282.06 160 202.74 160A200.116 200.116 0 0 0 109 185.665a134.383 134.383 0 0 1 24.359 81.127zm107.02-49.22a8.748 8.748 0 0 1 2.482-12.098 8.76 8.76 0 0 1 12.115 2.429c13.719 20.48 13.719 77.083 0 97.563a8.767 8.767 0 0 1-7.299 3.955 8.253 8.253 0 0 1-4.837-1.494 8.697 8.697 0 0 1-2.462-12.13c9.762-14.678 9.762-63.547 0-78.226zm-35.175 0a8.748 8.748 0 0 1 2.483-12.098 8.758 8.758 0 0 1 12.114 2.429c13.718 20.48 13.718 77.083 0 97.563a8.766 8.766 0 0 1-7.3 3.955 8.253 8.253 0 0 1-4.836-1.494 8.697 8.697 0 0 1-2.462-12.13c9.761-14.678 9.761-63.547 0-78.226zm-35.176 0a8.748 8.748 0 0 1 2.483-12.098c4.02-2.661 9.435-1.576 12.115 2.429 13.718 20.48 13.718 77.083 0 97.563a8.766 8.766 0 0 1-7.3 3.955 8.253 8.253 0 0 1-4.837-1.494 8.697 8.697 0 0 1-2.462-12.13c9.763-14.678 9.763-63.547.001-78.226zM11 345c4.209 20.357 22.217 34.975 43.117 35h404.766c20.904-.013 38.919-14.637 43.117-35H11zm97.499 72.626c1.578 3.045 4.638 5.075 8.097 5.374h279.72c3.467-.276 6.537-2.313 8.098-5.374L417 397H96l12.499 20.626z"/><path d="M75.749 327h25.907a124.85 124.85 0 0 0 14.275-60.415A116.284 116.284 0 0 0 93.637 194a382.11 382.11 0 0 0-66.354 52.3c-11.044 11.092-11.044 29.037 0 40.13A392.666 392.666 0 0 0 75.75 327zm-10.135-76.82a8.828 8.828 0 0 1 9.606-1.851 10.182 10.182 0 0 1 2.907 1.852 9.28 9.28 0 0 1 2.555 6.261 8.787 8.787 0 0 1-.704 3.351 7.947 7.947 0 0 1-4.758 4.763 8.766 8.766 0 0 1-3.349.705 9.262 9.262 0 0 1-6.256-2.557 10.193 10.193 0 0 1-1.85-2.91 7.397 7.397 0 0 1-.705-3.352 9.275 9.275 0 0 1 2.554-6.261z"/></svg>