<svg width="512" height="512" xmlns="http://www.w3.org/2000/svg"><path d="M491.49 213.81a8.674 8.674 0 0 0-7.17-3.791h-73.648V147.9c0-4.782-3.88-8.662-8.665-8.662H215.666V85.086c0-4.783-3.881-8.662-8.666-8.662H27.665c-4.784 0-8.665 3.88-8.665 8.662V427.93c0 .31.015.622.06.933 0 .059.014.118.029.177.03.267.074.533.133.8.015.089.045.163.06.252a9.544 9.544 0 0 0 .296.947c.089.237.192.474.31.711.03.06.06.133.09.193.148.296.325.577.503.858.015.015.03.03.03.045.163.252.355.474.548.71.074.075.133.163.207.238.148.162.311.325.474.473.074.074.163.148.237.222.193.163.385.311.578.46l.178.133c.266.177.548.355.83.503.029.015.073.03.103.045.252.133.504.251.77.355.074.03.163.06.237.089.222.089.46.148.696.222.09.03.178.044.282.074.237.06.474.104.726.133l.266.045c.326.03.667.059.993.059h374.341c3.57 0 6.77-2.177 8.073-5.494l82.313-209.232a8.667 8.667 0 0 0-.904-8.056l.03-.015zM36.344 93.748H198.35V147.9a8.665 8.665 0 0 0 8.665 8.663h186.341v53.456H109.993a8.665 8.665 0 0 0-8.073 5.493l-65.575 166.69V93.75zM396.111 419.25H40.404l75.5-191.907H471.61l-75.5 191.907z" fill-rule="evenodd"/></svg>