<svg width="512" height="512" xmlns="http://www.w3.org/2000/svg"><g fill-rule="evenodd"><path d="M468.627 123.35H241.752v-15.807c0-14.335-11.633-25.991-25.927-25.991H44.373c-14.294 0-25.942 11.671-25.942 25.99V404.52c0 14.304 11.648 25.944 25.942 25.944h424.238c14.294 0 25.927-11.656 25.927-25.944V149.326c0-14.304-11.633-25.96-25.927-25.96l.016-.016zM44.389 98.268h171.467c5.089 0 9.222 4.136 9.222 9.259v24.19a8.345 8.345 0 0 0 8.345 8.35h235.22c5.087 0 9.22 4.136 9.22 9.212v36.55H35.122v-78.333c0-5.092 4.149-9.228 9.252-9.228h.016zm424.238 315.464H44.389c-5.088 0-9.253-4.136-9.253-9.212V202.592h442.712v201.912c0 5.092-4.133 9.228-9.221 9.228z"/><path d="M308.04 299.193h-43.195V256a8.345 8.345 0 0 0-8.345-8.35c-4.603 0-8.345 3.76-8.345 8.35v43.193H204.96c-4.619 0-8.345 3.76-8.345 8.35s3.742 8.35 8.345 8.35h43.195v43.194a8.345 8.345 0 0 0 8.345 8.35c4.603 0 8.345-3.76 8.345-8.35v-43.193h43.195c4.619 0 8.345-3.76 8.345-8.35 0-4.591-3.757-8.351-8.345-8.351z"/></g></svg>