<svg width="512" height="512" xmlns="http://www.w3.org/2000/svg"><path d="M219.822 346.77V477l73.356-25.2V346.77zm73.356-17.82h-73.356L83.09 180.9h346.82zM195.73 36c-8.45 0-15.282 11.07-15.282 24.75S187.28 85.5 195.73 85.5s15.282-11.07 15.282-24.75S204.18 36 195.73 36zm0 41.13c-3.865 0-6.922-7.38-6.922-16.38 0-9.09 3.146-16.38 6.922-16.38s6.922 7.38 6.922 16.38c.09 9-3.056 16.38-6.922 16.38zM252.994 36c-8.45 0-15.282 11.07-15.282 24.75s6.832 24.75 15.282 24.75 15.282-11.07 15.282-24.75S261.444 36 252.994 36zm0 41.13c-3.866 0-6.922-7.38-6.922-16.38 0-9.09 3.146-16.38 6.922-16.38 3.866 0 6.922 7.38 6.922 16.38s-3.056 16.38-6.922 16.38zM366.263 36c-8.45 0-15.282 11.07-15.282 24.75s6.832 24.75 15.282 24.75 15.283-11.07 15.283-24.75S374.714 36 366.263 36zm0 41.13c-3.865 0-6.922-7.38-6.922-16.38 0-9.09 3.147-16.38 6.922-16.38 3.776 0 6.922 7.38 6.922 16.38s-3.056 16.38-6.922 16.38zM143.14 84.87a3.609 3.609 0 0 1-3.595-3.6V43.74h-4.585a3.609 3.609 0 0 1-3.596-3.6c0-1.98 1.618-3.6 3.596-3.6h8.09a3.609 3.609 0 0 1 3.597 3.6v41.13c.09 1.98-1.529 3.6-3.506 3.6zm170.175 0a3.609 3.609 0 0 1-3.596-3.6V43.74h-4.585a3.609 3.609 0 0 1-3.596-3.6c0-1.98 1.618-3.6 3.596-3.6h8.09a3.609 3.609 0 0 1 3.596 3.6v41.13c.09 1.98-1.528 3.6-3.505 3.6zm-159.926 24.84c-8.45 0-15.283 11.07-15.283 24.75s6.833 24.75 15.283 24.75 15.282-11.07 15.282-24.75c0-13.77-6.832-24.75-15.282-24.75zm0 41.04c-3.866 0-6.922-7.38-6.922-16.38 0-9.09 3.146-16.38 6.922-16.38s6.922 7.38 6.922 16.38c0 9.09-3.057 16.38-6.922 16.38zm57.174-41.04c-8.45 0-15.282 11.07-15.282 24.75s6.832 24.75 15.282 24.75 15.282-11.07 15.282-24.75c0-13.77-6.832-24.75-15.282-24.75zm0 41.04c-3.866 0-6.922-7.38-6.922-16.38 0-9.09 3.146-16.38 6.922-16.38s6.922 7.38 6.922 16.38c.09 9.09-3.057 16.38-6.922 16.38zm113.269-41.04c-8.45 0-15.282 11.07-15.282 24.75s6.832 24.75 15.282 24.75 15.283-11.07 15.283-24.75c0-13.77-6.832-24.75-15.283-24.75zm0 41.04c-3.865 0-6.922-7.38-6.922-16.38 0-9.09 3.147-16.38 6.922-16.38 3.776 0 6.922 7.38 6.922 16.38.09 9.09-3.056 16.38-6.922 16.38zm47.466 7.74a3.609 3.609 0 0 1-3.596-3.6v-37.53h-4.585a3.609 3.609 0 0 1-3.596-3.6c0-1.98 1.618-3.6 3.596-3.6h8.09a3.609 3.609 0 0 1 3.597 3.6v41.13c.09 1.98-1.529 3.6-3.506 3.6zm-100.325 0a3.609 3.609 0 0 1-3.596-3.6v-37.53h-4.584a3.609 3.609 0 0 1-3.596-3.6c0-1.98 1.618-3.6 3.596-3.6h8.09a3.609 3.609 0 0 1 3.596 3.6v41.13c0 1.98-1.528 3.6-3.506 3.6z" fill-rule="evenodd"/></svg>