<svg width="512" height="512" xmlns="http://www.w3.org/2000/svg"><g fill-rule="evenodd"><path d="M256 146.5c-37.747 0-68.462 30.704-68.462 68.438v219c0 7.565 6.131 13.687 13.693 13.687 7.561 0 13.692-6.122 13.692-13.688v-219c0-22.643 18.426-41.062 41.077-41.062s41.077 18.42 41.077 41.063c0 7.558 6.13 13.687 13.692 13.687s13.693-6.129 13.693-13.688c0-37.733-30.715-68.437-68.462-68.437z"/><path d="M256 201.25c-7.562 0-13.692 6.129-13.692 13.688v123.187c0 7.559 6.13 13.688 13.692 13.688s13.692-6.13 13.692-13.688V214.937c0-7.558-6.13-13.687-13.692-13.687zm0 177.938c-7.562 0-13.692 6.128-13.692 13.687v68.438c0 7.565 6.13 13.687 13.692 13.687s13.692-6.122 13.692-13.688v-68.437c0-7.559-6.13-13.688-13.692-13.688zM310.77 256c-7.562 0-13.693 6.129-13.693 13.688v164.25c0 7.565 6.13 13.687 13.692 13.687s13.693-6.122 13.693-13.688v-164.25c0-7.558-6.131-13.687-13.693-13.687zm-164.308 27.375c-7.562 0-13.693 6.129-13.693 13.688v95.812c0 7.566 6.131 13.688 13.693 13.688 7.561 0 13.692-6.122 13.692-13.688v-95.813c0-7.558-6.13-13.687-13.692-13.687zM420.308 256c-7.562 0-13.693 6.129-13.693 13.688v68.437c0 7.559 6.131 13.688 13.693 13.688 7.561 0 13.692-6.13 13.692-13.688v-68.438c0-7.558-6.13-13.687-13.692-13.687zm-67.853-94.783c-7.013 2.84-10.396 10.814-7.562 17.824 4.613 11.395 6.953 23.473 6.953 35.897v177.937c0 7.566 6.13 13.688 13.692 13.688s13.693-6.122 13.693-13.688V214.937c0-15.96-3.01-31.492-8.946-46.161-2.835-7.004-10.777-10.387-17.83-7.56zM256 91.75c-67.946 0-123.23 55.265-123.23 123.188v27.375c0 7.558 6.13 13.687 13.692 13.687 7.561 0 13.692-6.129 13.692-13.688v-27.375c0-52.832 42.995-95.812 95.846-95.812 22.07 0 42.795 7.278 59.95 21.06 5.918 4.724 14.516 3.796 19.256-2.1 4.733-5.894 3.79-14.509-2.1-19.247-21.755-17.47-49.14-27.088-77.106-27.088z"/><path d="M195.708 76.92C214.756 68.592 235.04 64.375 256 64.375c83.05 0 150.615 67.542 150.615 150.563 0 7.558 6.131 13.687 13.693 13.687 7.561 0 13.692-6.129 13.692-13.688C434 116.82 354.152 37 256 37c-24.757 0-48.732 4.993-71.256 14.83-6.934 3.028-10.096 11.102-7.067 18.025 3.042 6.931 11.119 10.059 18.031 7.065zm-53.044 18.319c-5.642-5.053-14.287-4.558-19.335 1.069C94.1 128.956 78 171.08 78 214.938v123.187c0 7.559 6.13 13.688 13.692 13.688s13.693-6.13 13.693-13.688V214.937c0-37.105 13.618-72.755 38.35-100.37 5.04-5.634 4.565-14.289-1.07-19.328z"/></g></svg>