<svg width="512" height="512" xmlns="http://www.w3.org/2000/svg"><path d="M402.775 28L199.592 231.712l-26.718 107.155 106.914-26.782 118.735-119.033V368.42H200.088v54.914l-65.74-54.914h-76V112.68H171.74V84.263H30v312.572h94.087L228.436 484v-87.165H426.87V164.637l56.13-56.22L402.775 28zM211.824 299.81l8.249-33.048 24.733 24.793-32.982 8.255zm60.707-20.644l-40.084-40.194 130.287-130.556 40.041 40.137-130.244 130.613zm150.343-150.703l-40.098-40.18 20-20.103 40.14 40.236-20.042 20.047z"/><path d="M87 141h142v28H87zm0 57h85v28H87zm0 57h57v28H87zm0 56h57v28H87zM257 84h28v28h-28zm-57 0h28v28h-28z"/></svg>