<svg width="512" height="512" xmlns="http://www.w3.org/2000/svg"><path d="M202.36 276c-35.44 9.308-65.824 33.088-83.36 65.24l12.53 6.76c15.67-28.73 42.815-49.977 74.47-58.293L202.36 276zM301 383.774L313.825 390c6.493-12.917 19.588-20.941 34.175-20.941V355c-20.07 0-38.08 11.025-47 28.774z"/><path d="M288.265 397.12c3.51-28.524 27.842-50.686 57.263-50.686 24.763 0 46.736 15.764 54.676 39.23l13.454-4.554a72.157 72.157 0 0 0-4.24-9.973l32.873-15.347c.051.116.098.234.152.351 2.669 5.73 7.407 10.077 13.343 12.24 2.64.962 5.375 1.44 8.103 1.44 3.408 0 6.803-.747 9.982-2.232 11.814-5.514 16.943-19.62 11.436-31.446-2.67-5.73-7.407-10.076-13.343-12.239-.284-.103-.57-.196-.857-.289 2.396-5.89 2.44-12.72-.45-18.924-2.67-5.73-7.408-10.077-13.344-12.24a23.487 23.487 0 0 0-18.086.791c-11.813 5.514-16.943 19.621-11.436 31.447.057.12.126.23.184.349l-42.035 19.625a71.798 71.798 0 0 0-40.414-12.436c-37.263 0-67.99 28.516-71.566 64.892H89.04c3.725-77.78 68.265-139.913 147.07-139.913 48.551 0 93.964 23.893 121.482 63.916l11.705-8.048C339.128 269.196 289.339 243 236.11 243c-86.64 0-157.547 68.505-161.283 154.12H24V435h464v-37.88H288.265zm175.605-60.443c1.089 0 2.18.19 3.233.574a9.389 9.389 0 0 1 5.33 4.89c2.203 4.73.153 10.371-4.57 12.576a9.359 9.359 0 0 1-7.215.315 9.392 9.392 0 0 1-5.33-4.89c-2.202-4.73-.153-10.372 4.57-12.576a9.402 9.402 0 0 1 3.982-.889zm-18.63-30.563a9.402 9.402 0 0 1 3.982-.89c1.089 0 2.18.191 3.233.575a9.387 9.387 0 0 1 5.329 4.89c2.203 4.73.154 10.371-4.569 12.575a9.375 9.375 0 0 1-7.214.316 9.387 9.387 0 0 1-5.33-4.89c-2.204-4.73-.154-10.371 4.569-12.576zm-6.699 29.67c.84.425 1.7.817 2.597 1.143.285.104.574.18.863.273a23.89 23.89 0 0 0-1.138 3.58l-39.259 18.329a72.216 72.216 0 0 0-3.761-4.323l40.698-19.002zm35.255 85.011H38.204v-9.47h435.592v9.47zM177.521 142.547c-7.278-6.092-11.396-9.927-11.396-17.884 0-7.956 4.118-11.79 11.396-17.882C184.862 100.636 194 92.988 194 78h-14.125c0 7.955-4.118 11.789-11.395 17.88-7.342 6.146-16.48 13.794-16.48 28.783 0 14.99 9.138 22.64 16.48 28.785 7.278 6.091 11.395 9.926 11.395 17.883 0 7.957-4.118 11.792-11.396 17.884C161.138 195.361 152 203.01 152 218h14.125c0-7.957 4.118-11.792 11.396-17.884C184.862 193.97 194 186.32 194 171.33s-9.137-22.638-16.479-28.784zm42 0c-7.278-6.092-11.396-9.927-11.396-17.884 0-7.956 4.118-11.79 11.396-17.882C226.862 100.636 236 92.988 236 78h-14.125c0 7.955-4.118 11.789-11.395 17.88-7.342 6.146-16.48 13.794-16.48 28.783 0 14.99 9.138 22.64 16.48 28.785 7.278 6.091 11.395 9.926 11.395 17.883 0 7.957-4.118 11.792-11.396 17.884C203.138 195.361 194 203.01 194 218h14.125c0-7.957 4.118-11.792 11.396-17.884C226.862 193.97 236 186.32 236 171.33s-9.137-22.638-16.479-28.784zm42.001 0c-7.279-6.092-11.397-9.927-11.397-17.884 0-7.956 4.118-11.79 11.397-17.882C268.863 100.636 278 92.988 278 78h-14.125c0 7.955-4.118 11.789-11.396 17.88-7.341 6.146-16.479 13.794-16.479 28.783 0 14.99 9.139 22.64 16.48 28.785 7.279 6.091 11.396 9.926 11.396 17.883 0 7.957-4.118 11.792-11.397 17.884C245.138 195.361 236 203.01 236 218h14.125c0-7.957 4.118-11.792 11.397-17.884C268.863 193.97 278 186.32 278 171.33s-9.136-22.638-16.478-28.784zm41.999 0c-7.277-6.092-11.396-9.927-11.396-17.884 0-7.956 4.118-11.79 11.396-17.882C310.862 100.636 320 92.988 320 78h-14.125c0 7.955-4.117 11.789-11.395 17.88-7.342 6.146-16.48 13.794-16.48 28.783 0 14.99 9.138 22.64 16.48 28.785 7.278 6.091 11.395 9.926 11.395 17.883 0 7.957-4.117 11.792-11.396 17.884C287.138 195.361 278 203.01 278 218h14.125c0-7.957 4.118-11.792 11.396-17.884C310.862 193.97 320 186.32 320 171.33s-9.137-22.638-16.479-28.784z"/></svg>