<svg width="512" height="512" xmlns="http://www.w3.org/2000/svg"><path d="M294.207 36c-98.566 0-178.754 80.205-178.754 178.788 0 47.12 18.328 90.033 48.218 122.003l-123.378 123.4 14.672 14.677 123.73-123.753c31.178 26.468 71.51 42.461 115.51 42.461 98.565 0 178.753-80.204 178.753-178.788C472.958 116.205 392.772 36 294.207 36zm0 336.821c-87.124 0-158.004-70.892-158.004-158.033 0-87.14 70.88-158.033 158.004-158.033 87.123 0 158.002 70.892 158.002 158.033 0 87.14-70.88 158.033-158.002 158.033z" fill-rule="evenodd"/></svg>