<svg width="512" height="512" xmlns="http://www.w3.org/2000/svg"><path d="M470.148 450.502L357.246 339.404c29.565-32.122 47.731-74.603 47.731-121.35C404.963 118.054 322.596 37 220.984 37c-101.613 0-183.98 81.054-183.98 181.054s82.367 181.054 183.98 181.054c43.903 0 84.17-15.186 115.8-40.432l113.34 111.536c5.523 5.44 14.488 5.44 20.01 0a13.784 13.784 0 0 0 .014-19.71zm-249.164-79.25c-85.976 0-155.672-68.589-155.672-153.198 0-84.609 69.696-153.198 155.672-153.198 85.975 0 155.671 68.589 155.671 153.198 0 84.61-69.696 153.198-155.671 153.198z" fill-rule="evenodd"/></svg>