<svg width="512" height="512" xmlns="http://www.w3.org/2000/svg"><g fill-rule="evenodd"><path d="M343.166 91.12c-69.48-69.494-182.551-69.494-252.045 0-69.495 69.495-69.495 182.552 0 252.046 67.107 67.107 174.847 69.4 244.749 6.89l14.132 14.132c-3.527 9.006-1.682 19.625 5.587 26.894l74.567 74.567c9.806 9.806 25.701 9.806 35.493 0 9.792-9.806 9.806-25.7 0-35.507l-74.553-74.539c-7.283-7.27-17.902-9.114-26.894-5.601L350.07 335.87c62.51-69.902 60.217-177.642-6.89-244.736l-.014-.013zM112.414 321.874c-57.75-57.75-57.75-151.71 0-209.46 57.749-57.748 151.71-57.748 209.46 0 57.748 57.75 57.748 151.71 0 209.46-57.75 57.75-151.711 57.736-209.46 0z"/><path d="M147.608 146.306c25.227-25.226 54.535-43.535 85.363-54.941-34.924-1.994-72.329 11.596-101.027 40.294-29.105 29.105-42.654 67.148-40.186 102.505 11.325-31.736 29.946-61.94 55.85-87.844v-.013z"/></g></svg>