<svg width="512" height="512" xmlns="http://www.w3.org/2000/svg"><path d="M479.03 246.4a18.308 18.308 0 0 0-13.315-5.785h-1.494c6.77-11.638 10.45-24.853 10.45-38.461 0-30.685-18.375-58.308-46.269-70.446C427.748 89.862 393.508 56 351.46 56c-42.042 0-76.274 33.838-76.952 75.67a21.12 21.12 0 0 0-4.836-.585 21.104 21.104 0 0 0-17.228 8.923l-1.918 2.723c-1.578 2.23-4.543 3.038-7.023 1.884l-3.02-1.4c-6.214-2.892-13.461-2.553-19.399.862a21.06 21.06 0 0 0-10.458 16.338l-.3 3.316c-.108 1.184-.632 2.838-1.317 4.607a5.668 5.668 0 0 1-3.212-4.615l-.3-3.3c-.586-6.461-4.043-11.815-8.995-15.208l24.236-34.353c4.72-6.7 6.553-14.862 5.136-22.97-1.409-8.123-5.876-15.192-12.576-19.907-13.893-9.77-33.146-6.447-42.927 7.43L126.01 138.3c-1.478 2.1-2.572 4.377-3.473 6.715-.716.031-1.478-.038-2.264-.4l-3.019-1.4a21.136 21.136 0 0 0-19.4.87 21.058 21.058 0 0 0-10.45 16.33l-.3 3.316a5.672 5.672 0 0 1-5.145 5.138l-3.311.3a21.119 21.119 0 0 0-16.358 10.439A21.077 21.077 0 0 0 61.42 199l1.394 3a5.662 5.662 0 0 1-1.887 7.023l-2.719 1.915a21.1 21.1 0 0 0-8.94 17.224c0 4.561 1.601 8.869 4.25 12.446H46.28a18.308 18.308 0 0 0-13.316 5.784 18.457 18.457 0 0 0-4.92 13.823C32.6 327.5 75.451 361.285 138.393 391.308c7.024 3.354 12.823 8.923 16.342 15.707 3.435 6.631 2.888 15.185-1.494 22.462-3.303 5.477-3.396 12.07-.246 17.638 3.15 5.57 8.849 8.885 15.249 8.885h175.512c6.4 0 12.099-3.323 15.249-8.885 3.15-5.569 3.057-12.161-.324-17.777-4.305-7.146-4.844-15.692-1.417-22.315 3.512-6.785 9.311-12.361 16.343-15.715 62.927-30.023 105.785-63.8 110.352-131.085a18.513 18.513 0 0 0-4.93-13.823zm-19.753-44.246c0 14-4.813 27.53-13.616 38.461h-40.293v-30.769a7.69 7.69 0 0 0-7.702-7.692 7.69 7.69 0 0 0-7.7 7.692v30.77h-27.194a20.658 20.658 0 0 0 1.648-2.662c.023-.039.054-.077.077-.116.678-1.307 1.163-2.707 1.556-4.13.1-.354.184-.708.261-1.077.316-1.462.54-2.946.54-4.47a21.03 21.03 0 0 0-8.934-17.2l-1.771-1.253c.616-.039 1.209-.139 1.817-.185.924-.077 1.849-.17 2.765-.285a78.424 78.424 0 0 0 4.505-.684c.878-.162 1.764-.308 2.634-.5 1.602-.346 3.18-.777 4.744-1.223.7-.2 1.41-.362 2.103-.585a76.616 76.616 0 0 0 6.446-2.361c.585-.247 1.14-.539 1.71-.8 1.524-.685 3.041-1.393 4.512-2.177.824-.439 1.625-.916 2.426-1.385a76.603 76.603 0 0 0 3.489-2.123 79.624 79.624 0 0 0 5.568-4c.824-.646 1.64-1.285 2.433-1.962.948-.807 1.849-1.653 2.758-2.5.777-.723 1.563-1.438 2.31-2.192.855-.87 1.648-1.792 2.457-2.7a76.707 76.707 0 0 0 4.359-5.346c.485-.654 1-1.285 1.47-1.962.84-1.207 1.61-2.461 2.38-3.707.385-.631.786-1.254 1.155-1.9a75.071 75.071 0 0 0 2.188-4.116c.27-.553.539-1.1.8-1.661a75.786 75.786 0 0 0 2.003-4.662c.13-.338.254-.692.377-1.03 1.394-3.747 2.58-7.593 3.381-11.577 19.67 10.623 32.338 31.292 32.338 54.069zM351.459 71.384c33.97 0 61.61 27.608 61.61 61.54 0 1.16-.1 2.3-.17 3.445 0 0-.023.046-.023.077a61.066 61.066 0 0 1-5.737 22.654l-.092.208a60.885 60.885 0 0 1-2.473 4.646c-.107.184-.207.37-.315.554a58.306 58.306 0 0 1-2.65 4.015c-.2.285-.392.57-.593.846a59.205 59.205 0 0 1-2.757 3.439c-.3.354-.593.715-.9 1.061-.902 1.016-1.857 1.977-2.827 2.931-.4.4-.793.8-1.21 1.192-.923.862-1.894 1.67-2.872 2.477-.5.416-.993.839-1.51 1.231-.946.723-1.924 1.4-2.91 2.077-.593.408-1.179.823-1.795 1.208-.962.607-1.956 1.153-2.95 1.707-.677.377-1.355.77-2.048 1.123-.97.493-1.971.931-2.965 1.37-.762.338-1.517.692-2.295.992-.978.385-1.979.715-2.98 1.046-.84.285-1.664.577-2.519.823-.97.285-1.971.5-2.965.73-.916.216-1.825.447-2.757.624-.962.177-1.94.292-2.91.43-.994.14-1.98.285-2.981.378-.193.015-.393.015-.593.03v-.007c.015-.1.015-.193.03-.293.255-1.392.34-2.8.309-4.207-.008-.454-.062-.893-.1-1.346a21.286 21.286 0 0 0-.54-3.27c-.107-.43-.192-.861-.33-1.284-.455-1.446-1.017-2.87-1.795-4.208a21.112 21.112 0 0 0-16.358-10.438l-3.319-.3a5.68 5.68 0 0 1-4.613-3.208l16.458-16.43a7.677 7.677 0 0 0 0-10.878 7.7 7.7 0 0 0-10.89 0l-10.99 10.977c-1.625-2.054-3.535-3.9-5.86-5.246-1.556-.9-3.212-1.554-4.906-2.023-.57-.162-1.148-.177-1.725-.285-1.155-.223-2.295-.43-3.466-.454-.146 0-.292-.061-.439-.061-.885 0-1.756.17-2.634.285-.546.069-1.093.069-1.632.176-1.571.324-3.112.8-4.598 1.485l-3.003 1.392a5.249 5.249 0 0 1-2.41.462c-.047 0-.086-.008-.132-.008a5.656 5.656 0 0 1-2.356-.684c-.747-3.893-1.125-7.739-1.125-11.462 0-33.93 27.632-61.538 61.61-61.538zm-125.794 93.74l.3-3.316a5.574 5.574 0 0 1 2.82-4.4c1.617-.931 3.527-1.031 5.221-.231l3.034 1.408c9.234 4.261 20.216 1.315 26.077-6.985l1.918-2.723c2.164-3.07 7.139-3.046 9.287-.008l1.918 2.723c3.928 5.562 10.15 8.646 16.612 8.839h.223c.932.015 1.871 0 2.803-.108.44-.046.87-.146 1.31-.223.631-.115 1.255-.2 1.879-.37a20.43 20.43 0 0 0 3.265-1.168l3.011-1.4a5.623 5.623 0 0 1 5.222.23c1.617.939 2.649 2.539 2.81 4.408l.301 3.3c.924 10.138 8.957 18.17 19.1 19.077l3.31.3a5.582 5.582 0 0 1 4.414 2.815 5.57 5.57 0 0 1 .238 5.208l-1.417 3.046c-.061.139-.084.262-.138.4-2.742 6.277-2.172 13.254 1.078 18.9.046.077.092.162.139.239.415.7.854 1.369 1.355 2.023.27.361.57.692.862 1.038.378.43.74.877 1.156 1.277a19.64 19.64 0 0 0 2.549 2.154l2.734 1.93c1.525 1.093 2.403 2.785 2.403 4.655a5.6 5.6 0 0 1-2.403 4.63l-2.742 1.923c-.023.016-.038.039-.07.062a20.61 20.61 0 0 0-2.772 2.4c-.339.346-.631.738-.947 1.108-.462.546-.916 1.1-1.317 1.692-.154.223-.354.415-.5.646H239.55a21.693 21.693 0 0 0 1.656-2.67c.023-.038.046-.068.069-.107.678-1.315 1.17-2.715 1.563-4.146.1-.354.178-.7.255-1.054.323-1.454.539-2.938.546-4.454v-.015c0-.985-.215-1.923-.346-2.885-.1-.707-.085-1.438-.262-2.13-.562-2.293-1.633-4.393-2.911-6.362-1.448-2.223-3.196-4.262-5.422-5.83l-2.726-1.924a5.652 5.652 0 0 1-1.88-7l1.41-3.023c.685-1.477 1.155-3.023 1.479-4.592.1-.47.1-.939.161-1.408.154-1.108.27-2.208.247-3.315-.016-.577-.108-1.146-.17-1.723-.107-.993-.238-1.977-.485-2.947-.161-.63-.377-1.23-.593-1.846-.185-.507-.277-1.038-.493-1.538-.13-.3-.362-.523-.508-.808-.192-.392-.293-.815-.508-1.2-.408-.7-.963-1.277-1.448-1.923-.4-.538-.755-1.1-1.201-1.6-.932-1.038-1.995-1.923-3.104-2.746-.331-.246-.578-.592-.924-.815.8-2.339 1.478-4.908 1.71-7.439zm-42.696-80.84c4.89-6.938 14.525-8.6 21.464-3.715 3.342 2.354 5.576 5.893 6.277 9.954.7 4.07-.2 8.154-2.557 11.485l-30.043 42.584s-.008 0-.008.008l-14.316 20.285c-2.357 3.346-5.892 5.577-9.958 6.277-4.059.676-8.156-.2-11.498-2.562-.016-.008-.023-.023-.039-.03-1.101-.778-2.025-1.724-2.865-2.724a15.547 15.547 0 0 1-.616-.792c-.731-1.008-1.363-2.077-1.833-3.223-.03-.077-.077-.139-.108-.216-.47-1.215-.731-2.5-.885-3.807-.039-.331-.054-.662-.077-.993-.07-1.307-.031-2.638.246-3.969a15.218 15.218 0 0 1 2.45-5.67l44.366-62.891zM69.8 234.709l-2.726-1.916a5.593 5.593 0 0 1-2.411-4.638c0-1.877.878-3.562 2.41-4.646l2.711-1.908c8.34-5.854 11.283-16.815 7-26.077l-1.393-3c-.793-1.7-.7-3.608.231-5.23.94-1.616 2.541-2.647 4.413-2.808l3.304-.3a21.059 21.059 0 0 0 19.107-19.07l.3-3.315c.162-1.862 1.194-3.462 2.81-4.4a5.624 5.624 0 0 1 5.222-.23l3.035 1.407a20.21 20.21 0 0 0 6.908 1.792c.023.162.092.323.123.485.023.138.008.277.03.408.155.876.478 1.684.702 2.538.262.992.462 2 .816 2.97.424 1.138 1.009 2.192 1.556 3.268.37.724.654 1.47 1.086 2.162.754 1.223 1.678 2.33 2.603 3.438.392.47.7.985 1.116 1.431a30.744 30.744 0 0 0 4.706 4.093c1.517 1.069 3.134 1.946 4.782 2.715.524.238 1.055.43 1.594.638 1.179.47 2.372.87 3.597 1.185a24.99 24.99 0 0 0 1.856.43c1.301.255 2.618.4 3.95.485.501.031.987.108 1.487.116.131 0 .254.03.385.03 1.78 0 3.566-.153 5.353-.461 8.124-1.415 15.202-5.877 19.923-12.57l11.328-16.06c1.287.853 2.28 2.238 2.45 4.13l.3 3.3c.924 10.138 8.956 18.162 19.1 19.077l3.31.3c.725.061 1.356.361 1.972.661.3.154.6.293.87.5.416.308.755.708 1.07 1.124.201.261.424.5.578.8.37.723.632 1.484.67 2.269 0 .03-.007.077-.007.107a5.611 5.611 0 0 1-.508 2.554l-1.41 3.023a20.954 20.954 0 0 0-1.864 10.77c.008.046.024.092.024.146a21.14 21.14 0 0 0 .608 3.392 20.968 20.968 0 0 0 8.217 11.754l1.872 1.315.855.6c1.54 1.116 2.418 2.8 2.418 4.67 0 .938-.216 1.823-.632 2.615-.115.23-.362.37-.516.585-.37.523-.724 1.053-1.27 1.438l-.1.07-2.634 1.845a20.806 20.806 0 0 0-2.92 2.531c-.276.285-.5.608-.754.9a22.085 22.085 0 0 0-1.648 2.116c-.085.123-.2.23-.277.353H75.413a21.053 21.053 0 0 0-5.614-5.907zm297.17 142.715c-10.035 4.785-18.337 12.785-23.389 22.53-5.876 11.34-5.144 25.64 1.98 37.455.523.877.307 1.646.022 2.13-.277.485-.816 1.077-1.84 1.077H168.245c-1.017 0-1.564-.584-1.841-1.077-.277-.484-.5-1.253.108-2.269 7.046-11.684 7.778-25.984 1.902-37.33-5.044-9.747-13.354-17.747-23.381-22.524-59.724-28.477-97.553-58.192-101.619-118.23a3.052 3.052 0 0 1 .809-2.285 2.755 2.755 0 0 1 2.064-.9h419.436c1.001 0 1.671.485 2.064.9a3.01 3.01 0 0 1 .8 2.285c-4.073 60.038-41.902 89.753-101.618 118.238z"/><path d="M311.435 388h-65.87c-4.176 0-7.565 3.576-7.565 8 0 4.424 3.39 8 7.565 8h65.87c4.176 0 7.565-3.576 7.565-8 0-4.424-3.39-8-7.565-8zm-114.823 16h25.776c4.202 0 7.612-3.576 7.612-8 0-4.424-3.41-8-7.612-8h-25.776c-4.202 0-7.612 3.576-7.612 8 0 4.424 3.403 8 7.612 8zm114.741 7H196.647c-4.221 0-7.647 3.576-7.647 8 0 4.424 3.426 8 7.647 8h114.706c4.221 0 7.647-3.576 7.647-8 0-4.424-3.426-8-7.647-8zm23.567-283.245a7.64 7.64 0 0 0 5.417 2.245 7.64 7.64 0 0 0 5.416-2.245 7.656 7.656 0 0 0 0-10.836L324.08 95.247a7.651 7.651 0 0 0-10.833 0 7.656 7.656 0 0 0 0 10.836l21.673 21.672zm43.002 45A7.64 7.64 0 0 0 383.34 175a7.64 7.64 0 0 0 5.417-2.245 7.663 7.663 0 0 0 0-10.836l-21.675-21.672a7.652 7.652 0 0 0-10.834 0 7.656 7.656 0 0 0 0 10.836l21.675 21.672zM361.664 130a7.64 7.64 0 0 0 5.417-2.245l21.675-21.672c2.988-2.996 2.996-7.84 0-10.836a7.652 7.652 0 0 0-10.834 0l-21.675 21.672a7.656 7.656 0 0 0 0 10.836 7.64 7.64 0 0 0 5.417 2.245zM404 196c0 4.424 3.502 8 7.833 8h31.334c4.332 0 7.833-3.576 7.833-8 0-4.424-3.502-8-7.833-8h-31.334c-4.332 0-7.833 3.576-7.833 8zm-141.285 4a7.69 7.69 0 0 0 5.453-2.26l11.57-11.57a7.706 7.706 0 0 0 0-10.908 7.704 7.704 0 0 0-10.906 0l-11.57 11.57a7.706 7.706 0 0 0 0 10.908 7.692 7.692 0 0 0 5.453 2.26zm37.198 16.754a7.644 7.644 0 0 0 5.42 2.246 7.644 7.644 0 0 0 5.42-2.246 7.658 7.658 0 0 0 0-10.84l-7.666-7.666a7.656 7.656 0 0 0-10.84 0 7.658 7.658 0 0 0 0 10.84l7.666 7.666zm-31-3.506l-7.665 7.666a7.658 7.658 0 0 0 0 10.84 7.644 7.644 0 0 0 5.42 2.246 7.644 7.644 0 0 0 5.419-2.246l7.665-7.666a7.658 7.658 0 0 0 0-10.84c-2.997-2.997-7.85-2.997-10.839 0z"/></svg>