<svg width="512" height="512" xmlns="http://www.w3.org/2000/svg"><path d="M95.567 150.963c-10.8 40.358-5.257 82.514 15.61 118.7 27.83 48.256 79.73 78.235 135.445 78.235 21.028 0 41.863-4.327 61.185-12.59l81.268 140.917 32.475-18.77-81.27-140.922c27.935-20.906 47.975-50.35 57.14-84.6 10.8-40.359 5.257-82.514-15.61-118.7C353.982 64.98 302.082 35 246.367 35c-27.28 0-54.25 7.256-77.997 20.981-36.145 20.891-61.998 54.624-72.803 94.982zm150.8-78.42c42.36 0 81.818 22.785 102.97 59.464 15.86 27.501 20.073 59.54 11.863 90.212-8.207 30.672-27.857 56.31-55.327 72.186-18.055 10.435-38.54 15.95-59.248 15.95-42.36 0-81.817-22.785-102.97-59.464-15.86-27.5-20.072-59.537-11.863-90.21 8.21-30.674 27.858-56.31 55.328-72.188 18.055-10.434 38.54-15.95 59.248-15.95z" fill-rule="evenodd"/></svg>