<svg width="512" height="512" xmlns="http://www.w3.org/2000/svg"><path d="M320.704 156c.517-3.155.754-6.153.61-8.925l19.917-13.548c7.74-3.821 15.594-3.303 19.743-2.597.324.06 11.977 2.479 18.415-1.902 7.929-5.388 10.01-16.219 4.592-24.128-3.086-4.542-7.913-7.083-12.978-7.494 1.476-4.841.887-10.286-2.185-14.788-5.39-7.954-16.227-10.004-24.157-4.604-4.43 3.01-7.072 10.92-7.901 18.357-.37 2.832-2.245 12.541-10.055 19.58l-19.107 13.017c-12.577-3.422-33.062-.906-53.598 5.016 21.023 3.93 41.986 10.655 62.54 20.102l4.164 1.914zM63.24 339h158.408c-4.396-4.02-8.357-8.527-11.764-13.545-14.91-21.976-17.483-48.533-7.245-74.785 8.827-22.63 26.363-43.37 50.707-59.97 10.726-7.32 23.726-14.025 37.654-19.708-18.425-7.185-38.049-12.354-58.62-14.59-14.455-1.576-28.64-2.402-42.357-2.402C101.963 154 33 188.523 33 277.473 33 307.793 48.121 339 63.24 339z"/><path d="M268.553 213.163c-39.934 27.272-57.665 67.905-36.628 98.955C242.82 328.196 260.807 336 281.164 336c18.955 0 39.964-6.764 59.218-19.913 34.224-23.404 68.921-80.067 67.312-112.642l24.047-16.412c7.401-3.68 16.049-4.555 23.825-3.172 6.96 1.236 16.423 1.682 22.26-2.31 9.558-6.55 12.051-19.659 5.561-29.301-3.749-5.483-9.59-8.564-15.695-9.053 1.77-5.88 1.092-12.472-2.641-17.968-6.537-9.65-19.612-12.116-29.18-5.57-5.34 3.643-8.528 13.272-9.544 22.278-.428 3.408-2.7 15.198-12.127 23.776l-23.086 15.777c-4.755-1.312-10.458-1.922-16.808-1.922-31.249.002-78.227 14.783-105.753 33.595zm199.294 94.76l-37.526-7.539c-.015-.129-.027-.263-.043-.394-.961-8.526-5.715-20.973-14.834-34.99a221.694 221.694 0 0 1-6.252 11.093c-15.304 25.409-35.208 47.592-54.622 60.872-.52.355-1.047.685-1.57 1.035h111.883c8.349 0 15.117-6.799 15.117-15.185 0-7.24-5.087-13.473-12.153-14.892zM470.863 366H40.138a15.154 15.154 0 0 0-12.82 7.062 15.05 15.05 0 0 0-.818 14.575l13.53 27.983C46.352 428.69 59.624 437 74.183 437h362.632c14.558 0 27.833-8.31 34.155-21.38l13.53-27.983a15.045 15.045 0 0 0-.82-14.575A15.14 15.14 0 0 0 470.864 366z"/></svg>