<svg width="512" height="512" xmlns="http://www.w3.org/2000/svg"><path d="M297.402 36.004c-98.199 0-177.797 79.597-177.797 177.796 0 42.26 14.826 81.02 39.444 111.601L41.539 442.884c-7.385 7.412-7.385 19.393 0 26.779 7.386 7.412 19.393 7.412 26.779 0l117.51-117.483c30.526 24.59 69.313 39.416 111.601 39.416 98.199 0 177.797-79.597 177.797-177.796 0-98.2-79.653-177.796-177.824-177.796zm0 328.239c-82.99 0-150.443-67.481-150.443-150.443 0-82.962 67.507-150.444 150.443-150.444S447.845 130.838 447.845 213.8c0 82.962-67.48 150.443-150.443 150.443z" fill="#010002" fill-rule="evenodd"/></svg>