<svg width="512" height="512" xmlns="http://www.w3.org/2000/svg"><path d="M492.565 148.463c-.094-.079-.22-.141-.282-.22-4.227-4.167-10.083-5.812-15.5-4.919l-62.656.815c-9.91.14-17.832 8.272-17.707 18.189.125 9.885 7.625 17.264 18.161 17.703l20.98-.266-30.702 30.722c-18.256-13.473-40.237-20.758-63.361-20.758-28.589 0-55.47 11.139-75.683 31.364-41.708 41.752-41.708 109.698 0 151.45 20.213 20.226 47.094 31.365 75.683 31.365 28.572 0 55.47-11.14 75.682-31.365 36.949-37.005 41.223-94.548 12.697-136.237l32.237-32.164v23.484c0 9.917 8.047 17.939 17.942 17.939 9.941 0 17.942-8.037 17.942-17.939V161.2c0-4.763-2.02-9.369-5.433-12.737zm-100.748 198.7c-26.866 26.884-73.725 26.884-100.623 0-27.743-27.746-27.743-72.928 0-100.69 13.449-13.442 31.313-20.852 50.32-20.852 19.022 0 36.854 7.41 50.334 20.852 27.727 27.746 27.727 72.944-.031 100.69zM113.073 100.429C54.05 100.429 6 148.463 6 207.526c0 52.327 37.81 96.005 87.3 105.296v32.367H65.242c-9.91 0-17.926 8.053-17.926 17.954s8.016 17.954 17.926 17.954H93.3v20.163c0 9.917 8.048 17.954 17.958 17.954 9.91 0 17.973-8.068 17.973-17.954v-20.163h29.465c9.91 0 17.942-8.084 17.942-17.954 0-9.948-8.031-17.954-17.942-17.954H129.23v-31.788c51.525-7.833 90.854-52.326 90.854-105.875 0-59.063-47.987-107.097-107.01-107.097zm0 178.27c-39.25 0-71.158-31.944-71.158-71.204 0-39.261 31.908-71.205 71.158-71.205 39.219 0 71.142 31.944 71.142 71.205 0 39.26-31.907 71.205-71.142 71.205z" fill-rule="evenodd"/></svg>