<svg width="512" height="512" xmlns="http://www.w3.org/2000/svg"><path d="M473.073 459.234L324.88 311.054c25.867-29.127 41.726-67.313 41.726-109.24 0-90.88-73.926-164.807-164.799-164.807C110.926 37.007 37 110.933 37 201.813c0 90.873 73.926 164.8 164.806 164.8 41.921 0 80.114-15.86 109.241-41.727l148.18 148.194a9.778 9.778 0 0 0 6.92 2.864 9.782 9.782 0 0 0 6.926-2.864c3.833-3.84 3.833-10.02 0-13.846zM201.806 347.032c-80.079 0-145.225-65.14-145.225-145.219S121.727 56.588 201.806 56.588c80.072 0 145.219 65.146 145.219 145.225 0 36.52-13.644 69.843-35.978 95.389a149.232 149.232 0 0 1-13.845 13.845c-25.546 22.34-58.875 35.985-95.396 35.985z" fill="#010002" fill-rule="evenodd"/></svg>