<svg width="512" height="512" xmlns="http://www.w3.org/2000/svg"><path d="M108.969 301h-.938c-3.883 0-7.031 3.133-7.031 7s3.148 7 7.031 7h.938c3.883 0 7.031-3.133 7.031-7 0-3.868-3.148-7-7.031-7zm31-22h-.938c-3.883 0-7.031 3.133-7.031 7s3.148 7 7.031 7h.938c3.883 0 7.031-3.133 7.031-7s-3.148-7-7.031-7zM308.9 184.77l-.676-.675a7.162 7.162 0 1 0-10.123 10.136l.675.674a7.137 7.137 0 0 0 5.062 2.095 7.164 7.164 0 0 0 5.062-12.23zm-28.998-11.998l-.675-.675a7.164 7.164 0 0 0-10.13 10.13l.677.675a7.14 7.14 0 0 0 5.064 2.098 7.164 7.164 0 0 0 5.064-12.228zM398.969 290h-.938c-3.883 0-7.031 3.133-7.031 7s3.148 7 7.031 7h.938c3.883 0 7.031-3.133 7.031-7s-3.148-7-7.031-7zm-206-48h-.938c-3.883 0-7.031 3.133-7.031 7 0 3.866 3.148 7 7.031 7h.938c3.883 0 7.031-3.133 7.031-7s-3.148-7-7.031-7zm21-22h-.938c-3.883 0-7.031 3.133-7.031 7 0 3.866 3.148 7 7.031 7h.938c3.883 0 7.031-3.133 7.031-7 0-3.868-3.148-7-7.031-7zm37.937 77.101a7.16 7.16 0 0 0-10.129-.006l-.676.675a7.16 7.16 0 0 0-.006 10.128 7.136 7.136 0 0 0 5.067 2.102 7.14 7.14 0 0 0 5.06-2.094l.677-.675a7.163 7.163 0 0 0 .007-10.13zm72.996-47.003a7.163 7.163 0 0 0-10.129 0l-.675.675a7.163 7.163 0 0 0 10.128 10.13l.676-.676a7.162 7.162 0 0 0 0-10.13zm-59 13.999a7.164 7.164 0 0 0-10.128 0l-.676.675a7.162 7.162 0 1 0 10.129 10.13l.675-.675a7.164 7.164 0 0 0 0-10.13zm19 22.001a7.163 7.163 0 0 0-10.129 0l-.675.675a7.163 7.163 0 0 0 10.129 10.13l.675-.676a7.163 7.163 0 0 0 0-10.13zm10-34.001a7.165 7.165 0 0 0-10.129 0l-.675.675a7.164 7.164 0 0 0 10.129 10.13l.675-.675a7.164 7.164 0 0 0 0-10.13z"/><path d="M470.695 323.16h-10.893c-.197-3.73-3.275-6.697-7.053-6.697h-8.387l4.162-4.163h22.529a7.073 7.073 0 0 0 7.072-7.074 7.073 7.073 0 0 0-7.072-7.074h-8.386l8.96-8.964a7.077 7.077 0 0 0 0-10.004 7.071 7.071 0 0 0-10 0l-8.96 8.964v-8.387a7.073 7.073 0 1 0-14.143 0v19.743c-4.665-16.653-15.278-30.844-29.395-40.126-.287-14.22-8.016-26.675-19.439-33.605l2.18-2.18c4.103 2.796 8.946 4.3 14.021 4.3 6.675 0 12.949-2.601 17.667-7.321 9.743-9.745 9.744-25.602 0-35.35-3.763-3.764-8.522-6.178-13.687-6.996a24.996 24.996 0 0 0-6.98-13.678c-4.72-4.721-10.994-7.32-17.668-7.32-6.674 0-12.949 2.6-17.667 7.32-8.603 8.606-9.61 21.978-3.018 31.698l-9.009 9.011c-2.889-10.62-8.145-20.793-15.638-30.208 3.734-.193 6.704-3.273 6.704-7.056a7.073 7.073 0 0 0-7.071-7.074h-8.387l4.162-4.163h22.53a7.073 7.073 0 0 0 7.071-7.074 7.073 7.073 0 0 0-7.071-7.074h-8.386l8.96-8.964a7.077 7.077 0 0 0 0-10.004 7.071 7.071 0 0 0-10 0l-8.959 8.963v-8.387a7.073 7.073 0 1 0-14.143 0v22.536l-4.16 4.162v-8.387a7.073 7.073 0 1 0-14.144 0v5.223c-13.574-7.18-28.389-11.073-43.07-11.073-12.833 0-24.943 3.03-35.451 8.696l-6.114-6.115a7.072 7.072 0 1 0-10 10.004l4.244 4.245a66.238 66.238 0 0 0-3.825 3.51 67.14 67.14 0 0 0-3.508 3.827l-31.272-31.284a7.066 7.066 0 0 0-10.613.7c-.299.39-.617.756-.94 1.08-4.228 4.229-11.109 4.23-15.336 0-4.228-4.229-4.227-11.11 0-15.34 2.475-2.476 6.026-3.597 9.503-3.007a7.075 7.075 0 0 0 8.16-8.162c-.592-3.478.53-7.032 3.006-9.507 4.227-4.229 11.106-4.229 15.334 0a10.776 10.776 0 0 1 3.175 7.67 10.775 10.775 0 0 1-4.254 8.611 7.078 7.078 0 0 0-.7 10.619l12.886 12.89a7.072 7.072 0 1 0 10-10.005l-8.084-8.087c2.794-4.106 4.297-8.95 4.297-14.027 0-6.677-2.6-12.953-7.318-17.674C192.397 80.6 186.123 78 179.45 78c-6.675 0-12.949 2.6-17.667 7.32a25.003 25.003 0 0 0-6.984 13.691 24.985 24.985 0 0 0-13.685 6.984c-4.719 4.722-7.318 10.998-7.318 17.675-.001 6.676 2.598 12.953 7.318 17.674 8.6 8.603 21.964 9.607 31.686 3.018l28.346 28.355c-4.905 9.12-7.7 19.28-8.426 29.848a70.874 70.874 0 0 0-18.013 11.22V199.59a7.073 7.073 0 1 0-14.143 0v8.388l-4.161-4.161V181.28a7.073 7.073 0 1 0-14.143 0v8.39l-8.96-8.965a7.071 7.071 0 0 0-10 0 7.077 7.077 0 0 0 0 10.004l8.959 8.963h-8.384a7.073 7.073 0 0 0-7.071 7.074 7.073 7.073 0 0 0 7.071 7.074h22.527l4.16 4.162h-8.383a7.073 7.073 0 0 0-7.071 7.074 7.073 7.073 0 0 0 7.071 7.075h17.206a70.436 70.436 0 0 0-7.448 18.268 35.267 35.267 0 0 0-12.717-2.362c-9.444 0-18.323 3.68-25 10.36l-2.598 2.598c-5.45-2.68-11.49-4.104-17.753-4.104-10.72 0-20.79 4.146-28.357 11.676-7.581 7.539-11.753 17.58-11.753 28.272a39.65 39.65 0 0 0 4.393 18.208 35.31 35.31 0 0 0-4.485 8.115H41.305c-8.99 0-16.305 7.3-16.305 16.275 0 33.627 23.883 61.789 55.629 68.545v10.512c0 9.1 7.402 16.506 16.5 16.506h317.743c9.097 0 16.5-7.405 16.5-16.506v-10.512C463.116 401.224 487 373.063 487 339.435c0-8.974-7.314-16.275-16.305-16.275zm-43.697-4.595a55.7 55.7 0 0 1-.21 4.595h-37.763c-.277-10.277-4.407-19.89-11.722-27.171a14.52 14.52 0 0 0-5.334-3.368c.268-4.301.19-8.57-.201-12.77a7.037 7.037 0 0 0 4.786 1.877h.943a7.073 7.073 0 0 0 7.072-7.074 7.073 7.073 0 0 0-7.072-7.075h-.943a7.062 7.062 0 0 0-6.109 3.523c-.651-3.104-1.472-6.157-2.51-9.127.81-.036 1.621-.055 2.438-.055 31.223.001 56.625 25.412 56.625 56.645zm-206.18-18.913c1.15-15.768 8.593-30.924 21.733-44.07 16.22-16.225 37.43-25.531 58.193-25.531 16.092 0 30.704 5.753 41.144 16.196 12.671 12.678 17.766 30.507 15.737 48.912-.315.265-.626.537-.92.83l-27.302 27.172h-89.79c-3.013-10.03-9.842-18.438-18.794-23.509zm3.656 23.508H177.94a25.747 25.747 0 0 1 4.957-6.99c4.862-4.875 11.33-7.562 18.277-7.562 10.192.03 19.042 5.965 23.3 14.552zm142.205-17.14a.435.435 0 0 1 .326-.131.43.43 0 0 1 .323.13c4.628 4.605 7.283 10.656 7.555 17.141h-25.427l17.223-17.14zm26.886-54.323a70.417 70.417 0 0 0-23.19-3.924c-.918 0-1.828.024-2.736.06l11.58-11.584a26.254 26.254 0 0 1 14.346 15.448zm-14.23-50.245a7.077 7.077 0 0 0-.694-10.614c-.395-.303-.76-.622-1.084-.947-4.228-4.228-4.228-11.11 0-15.34a10.766 10.766 0 0 1 7.666-3.176c2.896 0 5.62 1.128 7.667 3.177 2.474 2.475 3.598 6.03 3.006 9.505a7.073 7.073 0 0 0 8.16 8.162 11.026 11.026 0 0 1 1.85-.156c2.896 0 5.613 1.124 7.652 3.164 4.228 4.229 4.228 11.11 0 15.34a10.764 10.764 0 0 1-7.667 3.177 10.77 10.77 0 0 1-8.611-4.26 7.073 7.073 0 0 0-5.148-2.753 7.08 7.08 0 0 0-5.463 2.058l-31.272 31.284a67.138 67.138 0 0 0-3.508-3.828 66.839 66.839 0 0 0-3.825-3.51l31.271-31.283zM222.78 167.018c10.44-10.443 25.053-16.195 41.145-16.195 20.763 0 41.975 9.306 58.195 25.533 12.258 12.26 19.555 26.275 21.415 40.9l-7.342 7.344c-10.507-5.668-22.618-8.698-35.45-8.698-3.057 0-6.117.186-9.174.518 1.688-2.73 1.358-6.351-1.01-8.72l-.666-.666a7.072 7.072 0 1 0-10 10.004l.666.667c.175.175.357.338.544.49a93.526 93.526 0 0 0-7.916 2.187c-12.962-14.438-31.744-23.544-52.623-23.544-4.504 0-8.905.442-13.18 1.25 1.825-11.75 6.9-22.57 15.396-31.07zm-2.215 43.971c14.893 0 28.45 5.797 38.568 15.235a103.6 103.6 0 0 0-14.687 9.113 7.03 7.03 0 0 0-4.597-1.71l-.944-.002h-.006a7.073 7.073 0 0 0-7.072 7.067c0 1.59.527 3.049 1.409 4.23-.227.222-.46.434-.685.658-14.592 14.597-23.264 31.5-25.458 49.33a40.11 40.11 0 0 0-5.88-.45h-.104c-9.073 0-17.674 3.021-24.68 8.572-7.797-9.705-12.487-22.008-12.487-35.4-.002-31.234 25.4-56.643 56.623-56.643zm-96.349 57.41a21.07 21.07 0 0 1 15-6.217c3.798 0 7.433 1.013 10.63 2.874a70.233 70.233 0 0 0 7.325 33.964 7.07 7.07 0 0 0 4.118 7.2 71.055 71.055 0 0 0 5.669 7.54 39.512 39.512 0 0 0-4.111 9.401h-22.998a7.066 7.066 0 0 0 4.08-6.403 7.073 7.073 0 0 0-7.07-7.075h-.943a7.073 7.073 0 0 0-7.072 7.075 7.067 7.067 0 0 0 4.08 6.403h-63.19a20.97 20.97 0 0 1 1.812-2.073l52.67-52.69zm-48.735 10.195c4.899-4.874 11.427-7.56 18.383-7.56 2.336 0 4.62.316 6.812.904l-31.822 31.834a25.753 25.753 0 0 1-.953-6.935c0-6.899 2.69-13.378 7.58-18.243zm341.194 116.789h-67.332a7.073 7.073 0 0 0-7.072 7.074 7.073 7.073 0 0 0 7.072 7.074h67.332c.186 0 .369-.013.553-.014v8.974a2.36 2.36 0 0 1-2.357 2.358H97.13a2.36 2.36 0 0 1-2.357-2.358v-8.974c.186 0 .369.014.554.014h217.246a7.073 7.073 0 0 0 7.071-7.074 7.073 7.073 0 0 0-7.071-7.074H95.326c-30.98 0-56.183-25.098-56.183-55.948 0-1.172.97-2.126 2.163-2.126h429.389c1.193 0 2.163.954 2.163 2.126 0 30.85-25.205 55.948-56.183 55.948z"/></svg>