<svg width="512" height="512" xmlns="http://www.w3.org/2000/svg"><g fill="#010002" fill-rule="evenodd"><path d="M397.786 72.927v86.764c23.857-1.357 23.931-23.614 23.931-43.382 0-19.768-.074-42.024-23.931-43.382zM263.225 279.499c-25.979 4.967-37.595 19.639-37.595 36.977 0 20.37 16.054 37.034 52.559 38.627 11.99 22.541 33.441 38.342 71.889 38.342 87.065 0 87.065-81.009 87.065-137.909H263.006c0 7.633.008 15.712.219 23.963zm114.678 76.36c14.672-21.671 20.045-46.406 19.988-72.312-.024-12.201 18.891-12.201 18.915 0 .057 28.987-6.161 57.615-22.573 81.863-6.795 10.039-23.19.585-16.33-9.551zm-129.878-38.977c-.171-9.405 1.829-16.745 15.989-20.435 1.008 14.192 3.04 28.393 7.096 41.399-20.476-2.675-22.89-10.088-23.085-20.964zm-77.839 158.125H458.97c13.054 0 20.102-13.371 20.102-25.963v-18.411c0-13.9-8.08-28.775-20.094-28.783H192.515c-9.429 0-17.062-2.56-22.329-7.169v80.326z"/><path d="M303.251 36.064H54.402C41.421 36.064 32 45.477 32 58.434v390.611c0 12.542 8.998 25.963 22.402 25.963h107.655V251.789c0-16.94 12.526-28.767 30.458-28.767h110.736c13.201 0 21.378-13.737 21.378-26.467V58.442c0-2.187-.301-4.194-.74-6.121-2.243-9.908-9.933-16.257-20.638-16.257zM144.426 136.29a7.31 7.31 0 0 1-1.382-.122l-6.389-1.097c-5.511 12.177-17.704 20.679-31.937 20.679-19.387 0-35.107-15.713-35.107-35.099 0-19.386 15.713-35.099 35.107-35.099 18.858 0 34.116 14.9 34.945 33.547l6.137 1.049a8.122 8.122 0 0 1 6.633 9.389 8.14 8.14 0 0 1-8.007 6.753zm208.206 54.217h18.541l2.617-8.128 2.618-8.129h13.249V60.45h-56.9v113.8h12.421l3.731 8.129z"/></g></svg>