<svg width="512" height="512" xmlns="http://www.w3.org/2000/svg"><path d="M339.264 322.985c28.183-30.532 45.766-71.414 45.766-116.436C385.03 112.106 308.236 35 213.602 35c-94.635 0-171.429 77.106-171.429 171.549 0 94.443 76.794 171.549 171.429 171.549 38.526 0 73.949-12.678 102.65-34.155l127.471 127.562c3.103 3.105 6.981 4.658 10.86 4.658 3.878 0 8.015-1.553 10.86-4.658 5.947-5.951 5.947-15.783 0-21.993l-126.18-126.527zM73.2 206.549c0-77.366 62.831-140.5 140.4-140.5 77.312 0 140.401 62.876 140.401 140.5s-62.831 140.5-140.4 140.5c-77.57 0-140.4-63.135-140.4-140.5z" fill-rule="evenodd"/></svg>