<svg width="512" height="512" xmlns="http://www.w3.org/2000/svg"><path d="M134.814 153.24a57.486 57.486 0 0 0-7.803 51.92c1.545 2.047 3.1 4.285 4.657 6.579a181.25 181.25 0 0 1 1.941 2.925c1.155 1.776 2.302 3.538 3.379 5.32a53.187 53.187 0 0 1 3.45-.121 64.41 64.41 0 0 1 10.29.854c1.118.181 2.182.529 3.284.766a65.61 65.61 0 0 1 6.583 1.658c1.272.416 2.473.982 3.714 1.473 1.89.749 3.776 1.486 5.583 2.403 1.263.64 2.446 1.398 3.664 2.116 1.67.984 3.325 1.97 4.902 3.095 1.189.848 2.297 1.781 3.428 2.706 1.464 1.196 2.9 2.409 4.259 3.727 1.067 1.036 2.06 2.126 3.058 3.232a65.778 65.778 0 0 1 3.596 4.312 64.987 64.987 0 0 1 2.59 3.7 64.776 64.776 0 0 1 2.878 4.85 64.56 64.56 0 0 1 2.033 4.09c.33.735.767 1.405 1.07 2.155h11.085c-.084-.539-.082-1.065-.157-1.602a87.968 87.968 0 0 1-.776-7.918c-.029-.6-.043-1.196-.06-1.792a81.691 81.691 0 0 1 .209-8.852c.014-.171.02-.345.035-.516a80.122 80.122 0 0 1 10.863-34.01c.598-1.023 1.323-1.953 1.959-2.948.424-.668.877-1.328 1.322-1.99a99.116 99.116 0 0 1 4.864-6.64c.552-.691 1.128-1.374 1.704-2.058a113.672 113.672 0 0 1 5.696-6.271c.313-.32.568-.657.886-.975-.806-28.376-21.986-51.49-49.283-55.455.015-.201.03-.404.03-.609.019-18.167 14.728-32.891 32.878-32.909 4.539 0 8.22-3.683 8.22-8.228 0-4.543-3.68-8.227-8.22-8.227a49.282 49.282 0 0 0-41.097 22.135A49.273 49.273 0 0 0 140.438 80c-4.538 0-8.219 3.683-8.219 8.227 0 4.544 3.68 8.228 8.22 8.228 18.147.022 32.852 14.744 32.869 32.909 0 .193.016.382.029.571a57.364 57.364 0 0 0-38.523 23.305zm93.205 93.559c-.002.26-.02.516-.019.778a70.26 70.26 0 0 0 .607 8.804c.072.558.167 1.12.254 1.681.147.97.416 1.962.603 2.938h15.886c.053-.136.13-.258.184-.393a91.419 91.419 0 0 1 4.572-9.816c.256-.475.513-.945.777-1.415 11.55-20.694 30.756-35.964 53.443-42.488l.174-.05a89.519 89.519 0 0 1 11.594-2.525c1.3-1.896 2.6-3.793 3.718-5.64.306-.506.57-.99.858-1.486a91.761 91.761 0 0 0 3.485-6.522 72.3 72.3 0 0 0 .734-1.6 67.928 67.928 0 0 0 2.252-5.659c.287-.829.56-1.647.796-2.442a50.475 50.475 0 0 0 1.152-4.666A29.531 29.531 0 0 0 326.46 155a199.474 199.474 0 0 0-73.622 39.889 91.66 91.66 0 0 0-13.45 15.829c-.178.266-.352.536-.526.805a65.184 65.184 0 0 0-10.844 35.276zm95.811-27.584c-1.1.076-2.21.108-3.299.233a73.313 73.313 0 0 0-7.696 1.357c-.903.203-1.826.35-2.717.585a73.022 73.022 0 0 0-8.037 2.686c-.61.24-1.246.423-1.849.678a73.223 73.223 0 0 0-8.422 4.265c-.274.16-.569.284-.84.449A73.69 73.69 0 0 0 263 260h132a73.387 73.387 0 0 0-5.716-9.636c-.27-.389-.595-.73-.872-1.112a73.538 73.538 0 0 0-6.27-7.568c-.36-.38-.759-.717-1.128-1.089a74.843 74.843 0 0 0-7.268-6.421 72.932 72.932 0 0 0-9.308-6.074 71.401 71.401 0 0 0-9.102-4.227c-.482-.185-.969-.359-1.456-.535a74.162 74.162 0 0 0-9.048-2.597c-.626-.137-1.248-.283-1.879-.405a74.656 74.656 0 0 0-8.515-1.1c-.96-.072-1.91-.17-2.877-.203a71.946 71.946 0 0 0-7.73.182zm80.08 23.115a89.338 89.338 0 0 1 4.57 7.474c.238.431.49.852.72 1.287a90.077 90.077 0 0 1 3.924 8.485c.057.145.138.278.195.424h18.565A109.897 109.897 0 0 0 452 216.105c-20.829-9.543-45.453-5.472-62 10.252a89.595 89.595 0 0 1 13.445 15.278c.16.23.307.465.465.696zm-289.15 1.21c-.82.514-1.608 1.075-2.396 1.636-.99.7-1.96 1.422-2.896 2.193a50.365 50.365 0 0 0-2.442 2.17 48.948 48.948 0 0 0-2.367 2.38 48.544 48.544 0 0 0-2.22 2.554 49.914 49.914 0 0 0-2.015 2.692 49.831 49.831 0 0 0-1.852 2.791c-.205.339-.374.7-.572 1.044h85c-.448-.777-.87-1.569-1.357-2.317-.464-.714-.913-1.439-1.412-2.125a50.113 50.113 0 0 0-3.541-4.302c-.381-.417-.719-.875-1.112-1.279a50.238 50.238 0 0 0-5.39-4.78c-.475-.363-.992-.662-1.48-1.008a50.094 50.094 0 0 0-4.577-2.93c-.73-.408-1.487-.764-2.237-1.135a49.413 49.413 0 0 0-4.407-1.922 49.238 49.238 0 0 0-2.46-.867 48.326 48.326 0 0 0-4.876-1.243c-.752-.155-1.492-.35-2.254-.47a40.064 40.064 0 0 0-12.2-.287c-.769.09-1.565.181-2.22.277-2.331.34-4.634.851-6.892 1.527-.103.031-.2.074-.302.107a48.711 48.711 0 0 0-5.805 2.21c-.636.29-1.246.632-1.868.949a48.828 48.828 0 0 0-3.85 2.135zm-84.978 40.234c22.717 55 62.356 101.383 113.202 132.464h104.304c4.535 0 8.212 3.666 8.212 8.19 0 4.524-3.676 8.19-8.212 8.19h-98.536v9.12c.007 4.011 3.268 7.26 7.29 7.262h198.917c4.022-.002 7.283-3.251 7.29-7.263v-9.118h-16.423c-4.535 0-8.212-3.667-8.212-8.19 0-4.525 3.676-8.191 8.212-8.191h22.182c50.835-31.079 90.47-77.449 113.193-132.431L484 277H27l2.782 6.774zm50.22-23.776c.406-.998.92-1.934 1.372-2.907.3-.643.586-1.288.906-1.92a64.897 64.897 0 0 1 4.826-8.115c.114-.16.246-.305.36-.465a65.337 65.337 0 0 1 5.76-6.888c.396-.415.785-.83 1.19-1.235a65.653 65.653 0 0 1 14.947-11.164 65.398 65.398 0 0 1 9.259-4.177c.47-.17.903-.42 1.378-.58-.132-.2-.265-.438-.397-.637-.49-.743-.975-1.418-1.462-2.131-1.576-2.28-3.055-4.347-4.488-6.205C94.49 188.652 77.958 186.266 71.514 186a78.032 78.032 0 0 0-7.47 74h15.958v-.002zm399.419-163.81v-.001l-12.01-4.001 15.21-15.2a8.186 8.186 0 0 0-.037-11.544 8.193 8.193 0 0 0-11.547-.036L455.833 80.6l-3.996-11.995a8.197 8.197 0 0 0-10.367-5.183 8.193 8.193 0 0 0-5.184 10.364l4.657 13.982c-1.719-.2-3.47-.253-5.245-.107a26.383 26.383 0 0 0-14.78 6.154l12.54 12.536a8.185 8.185 0 0 1-.04 11.54 8.193 8.193 0 0 1-11.543.04l-11.972-11.969-12.212 13.767 11.193 11.188a8.186 8.186 0 0 1-.04 11.54 8.193 8.193 0 0 1-11.543.04l-10.497-10.493-16.062 18.107 13.567 13.562a8.186 8.186 0 0 1-.04 11.54 8.193 8.193 0 0 1-11.543.04l-12.872-12.867-14.64 16.505c-.027.128-.071.26-.098.39a66.055 66.055 0 0 1-1.132 4.452c-.221.772-.475 1.551-.727 2.33-.423 1.303-.846 2.6-1.371 3.959a88.84 88.84 0 0 1-2.457 5.736c-.432.918-.922 1.862-1.4 2.802-.66 1.299-1.293 2.593-2.029 3.907l.209.025A89.995 89.995 0 0 1 368.204 211l84.417-74.829a7.23 7.23 0 0 1 .672-.535c8.772-6.266 12.762-17.127 10.42-27.426l10.527 3.507a8.19 8.19 0 0 0 10.337-5.182c1.429-4.28-.878-8.906-5.156-10.347z"/></svg>