<svg width="512" height="512" xmlns="http://www.w3.org/2000/svg"><path d="M256.752 329.424c-13.888 0-25.16-4.48-25.16-10.068 0-5.568 11.272-10.069 25.16-10.069s25.16 4.501 25.16 10.069c0 5.577-11.272 10.068-25.16 10.068zm-68.354-94.46c-12.49 0-22.644 10.159-22.644 22.654 0 12.484 10.155 22.653 22.644 22.653 12.49 0 22.644-10.169 22.644-22.653 0-12.495-10.165-22.654-22.644-22.654zm136.707 45.317c12.48 0 22.644-10.169 22.644-22.653 0-12.505-10.165-22.654-22.644-22.654-12.49 0-22.643 10.159-22.643 22.654 0 12.484 10.154 22.653 22.643 22.653zm158.083 18.838c-1.389 37.735-84.285 139.696 0 177.451l-75.479-25.17c0 15.102 5.032 20.136 5.032 20.136-51.829 7.501-118.451-2.023-168.58-12.303-20.399-1.34-40.053-5.92-58.47-13.17 6.44 15.667 19.494 31.736 19.494 31.736-41.514-6.293-71.705-27.688-71.705-27.688l-5.032 25.17C5.166 433.752 8.135 218.735 35.358 154.359 49.194 121.637 75.612 42.35 178.766 71.296c0 0 104.613-95.316 228.952 26.429 31.51 30.899 80.5 62.946 75.469 201.394zM257.054 419.403c67.397 0 124.49-42.95 145.01-102.534 2.555 1.158 5.303 1.852 8.211 1.852 12.53 0 22.573-11.538 22.573-25.794 0-14.066-9.832-25.473-22.14-25.765a126.58 126.58 0 0 1-10.768 15.052c4.206-14.387 6.501-29.157 6.501-43.837 0-3.957-.292-7.752-.624-11.538-32.768 7.954-78.81-1.742-121.762-28.845-22.18-13.995-40.507-30.748-54.063-48.227-24.184 13.481-47.099 41.511-120.041 70.578-.796 5.83-1.339 11.78-1.339 18.032 0 14.68 2.295 29.47 6.501 43.837a126.478 126.478 0 0 1-11.241-15.757c0 .232-.02.514-.02.745-.242-.02-.463-.09-.695-.09-12.529 0-22.573 11.538-22.573 25.805 0 14.256 10.044 25.794 22.573 25.794 3.12 0 6.089-.725 8.796-2.023 20.5 59.694 77.663 102.715 145.1 102.715z" fill-rule="evenodd"/></svg>