<svg width="512" height="512" xmlns="http://www.w3.org/2000/svg"><path d="M313.012 224.426C292.794 214.853 271.166 210 248.727 210c-4.82 0-8.727 3.899-8.727 8.707 0 4.808 3.908 8.706 8.728 8.706 19.83 0 38.94 4.288 56.802 12.744a8.728 8.728 0 0 0 11.625-4.133c2.067-4.344.212-9.537-4.143-11.598zm-118.976-4.821c-48.759 19.063-84.363 62.834-92.916 114.229-.793 4.76 2.435 9.257 7.21 10.046.486.08.968.12 1.445.12 4.208 0 7.922-3.033 8.633-7.306 7.55-45.363 38.98-83.997 82.027-100.826 4.505-1.762 6.725-6.83 4.957-11.321-1.767-4.491-6.852-6.702-11.356-4.942z"/><path d="M471.25 362.466h-16.5c-1.767-50.33-22.427-97.466-58.655-133.387-27.147-26.918-60.59-45.148-96.916-53.287C298.919 152.152 279.655 133 256 133c-23.56 0-42.76 19-43.17 42.508-36.729 7.992-70.464 26.34-97.675 53.604-35.768 35.836-56.165 82.96-57.907 133.354H40.75c-4.833 0-8.75 3.926-8.75 8.767 0 4.841 3.917 8.767 8.75 8.767h430.5c4.833 0 8.75-3.926 8.75-8.767 0-4.84-3.917-8.767-8.75-8.767zM256 150.534c12.943 0 23.675 9.64 25.432 22.13a201.883 201.883 0 0 0-26.15-1.707c-8.32 0-16.562.512-24.691 1.517 1.84-12.398 12.532-21.94 25.409-21.94zM74.762 362.466c3.707-96.561 83.253-173.976 180.52-173.976 98.04 0 178.219 77.415 181.955 173.976H74.762z"/></svg>