<svg width="512" height="512" xmlns="http://www.w3.org/2000/svg"><path d="M502.712 232.555c-2.442-2.732-6.632-2.937-9.345-.503l-12.986 11.65-70.42-69.792a6.62 6.62 0 0 0-9.358.04 6.606 6.606 0 0 0 .04 9.354l69.877 69.25-34.595 31.032-115.054-116.484L435.237 58.961a6.614 6.614 0 0 0 .258-9.354c-2.521-2.66-6.704-2.759-9.358-.265L306.86 162.134a6.632 6.632 0 0 0-2.072 4.69 6.638 6.638 0 0 0 1.906 4.764l10.596 10.73-23.343 24.41-45.025-4.796c-1.992-.238-3.945.477-5.361 1.88l-18.3 18.132-34.019-33.586 11.463-11.604a6.627 6.627 0 0 0 1.907-4.763 6.605 6.605 0 0 0-2.072-4.69L83.27 54.515c-2.648-2.5-6.844-2.401-9.359.265a6.614 6.614 0 0 0 .258 9.354l80.487 76.097L36.788 255.835l-20.748-18.61a6.625 6.625 0 0 0-9.346.503 6.611 6.611 0 0 0 .503 9.341l62.14 55.748a6.603 6.603 0 0 0 4.422 1.694 6.616 6.616 0 0 0 4.712-1.965l11.258-11.398 61.889 61.013-11.37 11.557a6.606 6.606 0 0 0 .04 9.315l23.203 23.193s.014.007.014.014c0 .006.006.013.013.013l23.21 22.935 23.178 23.174 23.204 23.194a6.602 6.602 0 0 0 4.68 1.938 6.602 6.602 0 0 0 4.679-1.938l12.006-12 12.204 12.033a6.587 6.587 0 0 0 4.646 1.905 6.602 6.602 0 0 0 4.68-1.938l18.524-18.517 2.734 2.732a6.602 6.602 0 0 0 4.68 1.939 6.602 6.602 0 0 0 4.678-1.939l18.525-18.516 2.734 2.732a6.602 6.602 0 0 0 4.679 1.938 6.602 6.602 0 0 0 4.68-1.938l18.524-18.517 2.727 2.726a6.602 6.602 0 0 0 4.68 1.938 6.602 6.602 0 0 0 4.678-1.938l23.204-23.194a6.606 6.606 0 0 0 0-9.354l-34.455-34.44 62.273-66.04 12.072 12.224a6.589 6.589 0 0 0 4.712 1.965 6.603 6.603 0 0 0 4.421-1.693l62.14-55.748c2.714-2.461 2.94-6.642.497-9.36zm-334.733 3.685c0 15.963-12.992 28.942-28.956 28.942a28.923 28.923 0 0 1-17.433-5.848l40.538-40.526a28.926 28.926 0 0 1 5.85 17.432zm3.534-26.812l11.046-11.041 5.97 5.894-12.165 12.45a41.665 41.665 0 0 0-4.851-7.303zM73.48 288.753l-26.825-24.067 117.623-115.36 24.263 22.943-115.06 116.484zm38.724-20.038a41.926 41.926 0 0 0 7.558 4.981c-2.098 2.157-4.262 4.4-6.44 6.649a3775.906 3775.906 0 0 1-7.683 7.905l-6.533-6.437 13.098-13.098zm48.838 92.728l13.911 13.713-6.836 6.98-13.833-13.827 6.758-6.866zm30.305 43.707l-13.826-13.66 6.903-6.993 13.886 13.687-6.963 6.966zm16.387 2.33l13.939 13.74-7.102 7.098-13.845-13.84 7.008-6.999zm30.048 44.031l-13.846-13.84 7.168-7.164 13.939 13.747-7.26 7.257zm125.38-47.366l-2.727-2.726-26.719-26.706s-.006 0-.006-.007l-8.121-8.117a6.613 6.613 0 0 0-9.359 0 6.606 6.606 0 0 0 0 9.355l30.174 30.152-13.846 13.84-37.58-37.562a6.613 6.613 0 0 0-9.358 0 6.606 6.606 0 0 0 0 9.354l8.134 8.13 22.033 22.03-13.846 13.839-21.728-21.712-7.724-7.72s-.007 0-.007-.007l-8.12-8.117a6.613 6.613 0 0 0-9.359 0 6.606 6.606 0 0 0 0 9.354l15.19 15.183 14.977 14.97-13.879 13.873-156.228-154.013c2.509-2.573 5.11-5.253 7.764-7.998 3.898-4.022 7.737-7.985 11.152-11.451a42.66 42.66 0 0 0 5.043.324c23.27 0 42.192-18.92 42.192-42.173 0-1.74-.132-3.46-.344-5.167l17.082-17.49 17.917 17.682-62.478 61.927a6.595 6.595 0 0 0-1.946 5.06 6.606 6.606 0 0 0 2.488 4.816c1.542 1.238 37.785 28.672 100.713-35.074l122.361 122.312-13.846 13.839zm-15.938-62.31l-87.992-87.959c-1.264-1.263-2.832-1.964-4.785-1.938a6.62 6.62 0 0 0-4.719 2.084c-40.597 43.179-67.792 44.488-80.056 41.657l80.97-80.258 31.748 3.38-4.765 4.989c-2.528 2.64-2.429 6.827.205 9.354a6.621 6.621 0 0 0 9.359-.212l38.042-39.778 83.492 83.453-61.499 65.228zM358.8 151.914c0 11.398 9.279 20.673 20.683 20.673 11.403 0 20.682-9.275 20.682-20.673 0-11.399-9.279-20.674-20.683-20.674-11.403 0-20.682 9.275-20.682 20.674zm28.128 0c0 4.101-3.342 7.442-7.445 7.442-4.104 0-7.446-3.34-7.446-7.442s3.342-7.443 7.445-7.443c4.104 0 7.446 3.341 7.446 7.443z" fill="#231F20" fill-rule="evenodd"/></svg>