<svg width="512" height="512" xmlns="http://www.w3.org/2000/svg"><path d="M430.623 111.105l-51.595 31.501 3.753 6.366c-25.105-7.158-74.972-20.062-101.281-20.062-24.904 0-38.19 6.425-55.467 14.762-3.396 1.614-31.457 15.066-31.993 15.185l-60.292-.173-55.586 76.045 39.083 35.909c-3.3 8.605-1.364 17.006 3.872 23.043 5.022 5.843 12.5 9.083 21.389 7.38-5.964 11.314-5.202 20.425 1.43 28.046 6.41 7.379 15.419 10.1 27.524 5.545-2.145 8.14-1.376 15.43 4.29 22.033 5.117 5.954 12.732 9.117 21.805 7.503l2.145-.417c-3.854 10.081-2.103 18.15 3.336 24.414 8.27 9.63 22.55 10.678 31.874 2.442l8.46-7.318 8.162 15.298c4.01 7.6 13.69 11.386 22.342 6.848 8.537-4.59 11.17-14.595 7.09-22.39-5.898-11.022-15.609-28.887-15.609-28.887.35-8.3-2.58-11.874-6.971-16.435l6.196-4.169s17.516 33.59 23.83 45.502c4.016 7.77 13.817 11.314 22.342 6.84 8.836-4.739 11.052-14.863 7.09-22.45l-25.678-47.937 7.269-4.59 28.597 53.833c4.314 8.17 14.328 11.11 22.341 6.907 8.794-4.781 11.142-14.72 7.09-22.45l-29.73-55.922 7.568-4.526s19.66 37.753 26.75 51.212c4.01 7.598 13.69 11.386 22.34 6.848 8.282-4.407 11.38-14.292 7.092-22.456L371.88 287.47c14.507-8.587 23.634-21.705 34.137-37.76l26.214-16.495 8.11 12.94 55.84-29.06-65.558-105.99zM168.78 323.398c-4.962 4.411-12.558 3.65-16.562-1.125-4.218-4.71-3.36-15.072 4.766-20.195.56-.368 45.5-39.266 45.934-39.652 4.76-4.228 12.237-3.883 16.622 1.184 4.367 4.967 3.956 12.41-1.013 16.74l-49.747 43.048zm31.814 27.63c-4.902 4.34-12.439 3.728-16.622-1.138-4.05-4.704-3.991-11.548.12-15.959.673-.678 36.401-31.579 37.116-32.217 4.861-4.328 12.327-3.75 16.622 1.133 4.48 5.227 3.813 12.694-1.012 16.786l-36.224 31.394zm50.046 11.91l-22.7 19.592c-4.855 4.312-12.38 3.781-16.681-1.19-4.421-5.032-3.736-12.644 1.072-16.74l22.7-19.765c4.336-3.71 11.272-4.102 16.264.888 3.956 3.167 5.302 12.028-.655 17.214zm148.526-121.54c-.852.851-1.698 1.62-2.204 2.376-7.686 11.976-18.988 26.88-30.468 32.853-45.345-62.044-70.665-82.344-103.522-111.572l-76.557 35.855c-5.72 2.852-12.916.405-15.788-5.598-2.883-5.889-.458-13.046 5.481-15.9l74.234-34.776c9.413-3.454 19.184-5.068 31.278-5.068 25.254 0 84.945 16.59 109.896 23.546l36.063 61.484-28.413 16.8zM16 198.814l64.087-93.17 47.155 37.784-62.615 86.834L16 198.814zm113.34 88.021c-4.456-5.098-3.724-12.696 1.013-16.734l40.691-35.372c4.945-4.115 12.434-3.68 16.682 1.25 4.408 5.062 3.932 12.446-1.013 16.793l-40.751 35.253c-4.326 3.936-12.13 4.02-16.622-1.19z" fill-rule="evenodd"/></svg>