<svg width="512" height="512" xmlns="http://www.w3.org/2000/svg"><g fill-rule="evenodd"><path d="M438.805 134.367l-6.568 2.082-34.975 3.116-9.88 15.776-7.168-2.278-27.835-25.096-4.038-13.051-5.408-13.918-17.494-15.692-20.639-4.038-.475 9.446 20.22 19.73 9.893 11.654-11.123 5.813-9.055-2.669-13.568-5.66.461-10.94-17.802-7.322-5.91 25.725-17.943 4.066 1.775 14.35 23.377 4.5 4.039-22.93 19.297 2.85 8.97 5.254h14.393l9.852 19.73 26.116 26.494-1.914 10.298-21.058-2.682-36.387 18.375-26.2 31.426-3.41 13.917h-9.404l-17.522-8.076-17.02 8.076 4.234 17.956 7.406-8.538 13.023-.405-.908 16.125 10.787 3.158 10.774 12.101 17.592-4.946 20.094 3.172 23.336 6.274 11.653 1.37 19.759 22.426 38.133 22.428-24.663 47.118-26.032 12.101-9.88 26.927-37.672 25.152-4.01 14.504c96.304-23.196 167.946-109.705 167.946-213.136-.028-45.176-13.722-87.222-37.17-122.113z"/><path d="M281.744 371.202l-15.986-29.638 14.672-30.574-14.672-4.387-16.474-16.545-36.499-8.188-12.115-25.348v15.05h-5.338l-31.454-42.647v-35.032l-23.056-37.49-36.61 6.525H79.549l-12.408-8.132 15.831-12.548-15.79 3.647c-19.031 32.502-30.126 70.216-30.126 110.613 0 121.191 98.247 219.48 219.452 219.48 9.334 0 18.487-.824 27.542-1.914l-2.292-26.592s10.075-39.488 10.075-40.83c-.014-1.355-10.09-35.45-10.09-35.45zM118.605 107.775l38.985-5.435 17.97-9.852 20.22 5.827 32.306-1.788 11.067-17.397 16.14 2.655 39.195-3.675 10.801-11.906 15.231-10.172 21.547 3.242 7.853-1.188C321.54 44.727 289.96 37 256.494 37c-68.12 0-129.03 31.049-169.246 79.802h.112l31.245-9.027zm147.167-48.949l22.414-12.338 14.392 8.314-20.834 15.86-19.898 1.998-8.957-5.813 12.883-8.02zm-66.387 1.803l9.893 4.122 12.953-4.122 7.057 12.227-29.903 7.853-14.379-8.412c-.014 0 14.057-9.055 14.379-11.668z"/></g></svg>