<svg width="512" height="512" xmlns="http://www.w3.org/2000/svg"><path d="M371.855 119.5c-10.734-1.456-16.403 7.538-17.106 17.566l-8.003 79.534c-.15 3.694-3.273 6.576-6.98 6.427a6.705 6.705 0 0 1-6.44-6.963L338.18 74.03c.355-10.05-7.517-18.48-17.587-18.838-10.072-.358-18.523 7.5-18.886 17.544l-4.744 140.902a5.4 5.4 0 0 1-5.405 5.393 5.397 5.397 0 0 1-5.403-5.393L286.15 53.2c0-10.049-8.17-18.2-18.246-18.2-10.076 0-18.245 8.15-18.245 18.2l-.133 157.446c0 3.384-2.747 6.108-6.142 6.125-4.961.025-5.938-4.63-5.938-4.63-.12-.484-6.084-139.904-6.084-139.904-.524-10.04-9.11-17.753-19.17-17.225-10.063.519-17.797 9.091-17.267 19.128l9.44 199.34c.955 5.99-3.14 11.612-9.141 12.565-6.007.953-11.642-3.124-12.597-9.117l-17.41-70.723c-2.393-9.772-12.268-15.748-22.054-13.364-9.79 2.391-15.783 12.245-13.39 22.01l28.888 117.858c.533 2.16 41.776 75.701 56.813 79.23v40.93c0 13.092 10.636 23.704 23.753 23.704h80.79c13.122 0 23.758-10.612 23.758-23.704v-44.845c21.277-27.173 29.378-78.17 29.72-122.084l10.322-147.052c.699-10.037-2.117-18.052-11.962-19.388z" fill-rule="evenodd"/></svg>