<svg width="512" height="512" xmlns="http://www.w3.org/2000/svg"><path d="M482.96 212.52c6.218 9.339 13.085 18.506 15.776 29.257v3.516c-1.747 13.17-12.721 22.082-26.908 18.128-7.92-2.193-14.231-11.498-19.908-19.313-4.486-6.192-8.304-12.29-12.274-17.538-1.126-1.48-3.099-5.345-4.073-3.526v38.386c.07.555.094 1.096.094 1.647v103.815c0 7.75-6.282 14.05-14.06 14.05h-5.853c-7.767 0-14.069-6.3-14.069-14.05l.044-90.86c0-.168 0-.335-.044-.537v-.743h-.133a5.186 5.186 0 0 0-5.027-3.855h-.94V163.423H265.561c4.083-15.497 12.195-26.769 21.32-35.73 13.656-13.367 30.14-19.283 54.43-21.639h19.314c43.972 2.253 67.973 23.253 86.612 52.043 11.712 18.064 23.69 36.388 35.723 54.423zM369.223 404.707h5.859c7.738 0 14.044-6.27 14.044-14.046v-58.874H355.2v58.874c0 7.775 6.247 14.046 14.024 14.046zM122.782 170.013h266.167v87.32H122.782v-87.32zm77.206 40.805c-.359 4.456.846 8.793 3.41 12.728 2.621 4.047 6.512 7.697 11.56 10.785 5.042 3.113 11.24 5.676 18.136 7.446 6.951 1.795 14.65 2.779 22.742 2.779 8.131 0 15.815-.989 22.761-2.779 6.946-1.766 13.095-4.328 18.176-7.446 5.038-3.103 8.944-6.762 11.56-10.785 2.568-3.979 3.774-8.297 3.41-12.728-.37-4.411-2.258-8.572-5.343-12.256-3.064-3.703-7.27-6.964-12.332-9.732-5.023-2.656-10.93-4.86-17.38-6.35-6.454-1.5-13.488-2.336-20.852-2.336-7.36 0-14.384.836-20.823 2.336-6.454 1.49-12.342 3.664-17.384 6.35-5.057 2.749-9.288 6.02-12.328 9.732-3.05 3.684-4.939 7.845-5.313 12.256zm188.961 53.12H122.782v11.473h266.167v-11.473zm-266.167 44.636h266.167v-11.479H122.782v11.479zm0-16.594h266.167v-11.488H122.782v11.488zm-26.77 88.943c7.747 0 14.073-6.305 14.073-14.056l-.044-90.86c0-.168 0-.36.044-.537v-.737h.128a5.203 5.203 0 0 1 5.032-3.88h.906V163.397h130.014c-4.098-15.487-12.195-26.764-21.325-35.73-13.65-13.371-30.125-19.283-54.426-21.638h-19.318c-43.948 2.262-67.978 23.237-86.607 52.052-11.688 18.079-23.671 36.403-35.684 54.423-6.217 9.33-13.09 18.497-15.805 29.238v3.526c1.751 13.17 12.726 22.077 26.928 18.133 7.905-2.199 14.236-11.513 19.888-19.328 4.516-6.192 8.318-12.29 12.283-17.528 1.141-1.476 3.114-5.331 4.093-3.516v38.4a12.72 12.72 0 0 0-.089 1.622v103.815c0 7.751 6.263 14.056 14.04 14.056h5.868zm157.527-153.88l.034-15.615c-1.722-.192-3.39-.408-4.92-.65a66.814 66.814 0 0 1-4.23-.875 31.45 31.45 0 0 1-3.541-1.052c-1.053-.384-2.022-.797-2.81-1.235-.82-.427-1.564-.905-2.159-1.436-.6-.536-1.107-1.087-1.51-1.687-.354-.624-.66-1.259-.846-1.952a7.842 7.842 0 0 1-.217-2.193c.01-.68.173-1.333.404-1.987.24-.67.585-1.279 1.043-1.894.462-.615 1.043-1.205 1.721-1.77a17.665 17.665 0 0 1 2.357-1.663 16.25 16.25 0 0 1 2.941-1.401c1.048-.413 2.184-.753 3.439-1.048a37.06 37.06 0 0 1 3.96-.61 53.827 53.827 0 0 1 4.462-.24v-3.492h4.486l.01 3.408c1.54.083 3.01.197 4.388.334 1.392.197 2.676.364 3.886.63a29.45 29.45 0 0 1 3.37.92c1.032.358 1.947.757 2.803 1.22.876.461 1.629.943 2.244 1.48.673.53 1.21 1.116 1.687 1.696.447.615.826 1.23 1.077 1.943.27.688.472 1.377.536 2.159h-8.416a12.381 12.381 0 0 0-.246-1.018 7.985 7.985 0 0 0-.404-.89 4.54 4.54 0 0 0-.585-.832 23.104 23.104 0 0 0-.738-.782 9.028 9.028 0 0 0-1.746-1.17 10.16 10.16 0 0 0-2.165-.87c-.792-.246-1.677-.423-2.632-.566a23.717 23.717 0 0 0-3.02-.231l.034 13.165c1.86.286 3.587.6 5.185.895 1.555.266 2.976.586 4.236.836 1.279.305 2.395.6 3.384.856.989.276 1.796.56 2.494.792 1.127.448 2.096.964 2.917 1.51a9.325 9.325 0 0 1 2.12 1.79 6.954 6.954 0 0 1 1.319 2.13c.29.742.472 1.588.511 2.459a12.082 12.082 0 0 1-.437 3.55c-.296 1.097-.807 2.09-1.496 3.025a12.916 12.916 0 0 1-2.637 2.488 18.204 18.204 0 0 1-3.714 1.919 16.47 16.47 0 0 1-2.636.84c-.964.256-2.052.497-3.178.714a95.406 95.406 0 0 1-3.729.516c-1.333.172-2.745.266-4.255.354l.035 5.862h-4.816l.02-5.862c-2.46-.088-4.65-.285-6.686-.605a33.17 33.17 0 0 1-5.504-1.205c-1.619-.496-3.085-1.116-4.28-1.82-1.235-.703-2.278-1.524-3.114-2.424a11.39 11.39 0 0 1-1.176-1.613 7.71 7.71 0 0 1-.821-1.85 11.753 11.753 0 0 1-.448-2.11 15.85 15.85 0 0 1-.079-2.355h8.663c.035.703.118 1.274.231 1.85.128.57.251 1.086.428 1.583.173.492.37.92.586 1.313.24.389.492.748.762 1.067.517.551 1.122 1.023 1.855 1.47.713.429 1.579.778 2.543 1.097.989.305 2.051.561 3.202.733 1.107.212 2.426.315 3.818.399zm4.683-14.961l.069 15.128c1.402-.044 2.705-.182 3.9-.32a23.798 23.798 0 0 0 3.257-.723c.97-.3 1.845-.688 2.583-1.116.762-.428 1.436-.94 1.948-1.525.25-.275.496-.6.718-.9.192-.3.334-.634.497-.964.142-.33.236-.678.27-1.028.035-.359.108-.713.108-1.106a5.449 5.449 0 0 0-.334-1.702 5.588 5.588 0 0 0-.866-1.436 6.748 6.748 0 0 0-1.436-1.24 11.443 11.443 0 0 0-1.983-1.022c-.452-.187-.94-.35-1.54-.546-.59-.182-1.23-.33-1.977-.516-.703-.187-1.53-.305-2.386-.517-.89-.098-1.8-.295-2.828-.467zm-4.595-5.725l.044-12.693c-1.057.025-2.026.069-2.917.187-.875.088-1.702.226-2.44.403-.747.177-1.421.374-2.031.65-.57.25-1.107.565-1.555.894-.452.32-.846.67-1.205 1.013a8.12 8.12 0 0 0-.87 1.038 5.125 5.125 0 0 0-.497 1.087 2.994 2.994 0 0 0-.207 1.097c0 .447.044.87.187 1.259.133.393.32.767.585 1.136.241.344.6.693.965.988.403.31.85.586 1.342.817.537.25 1.122.506 1.722.713.635.24 1.274.447 1.997.61.714.206 1.51.354 2.288.482.782.128 1.672.246 2.592.32zm22.584 152.666h5.854c7.777 0 14.02-6.28 14.02-14.041v-13.195h-33.918v13.195c.005 7.76 6.311 14.041 14.044 14.041zm-153.616 31.638c0 7.775 6.301 14.046 14.044 14.046h5.854c7.782 0 14.064-6.27 14.064-14.046v-58.874h-33.952v58.874h-.01zm266.354-76.977H122.782v11.473h266.167v-11.473zm-205.8 80.06h5.865c7.767 0 14.236-6.28 14.236-14.036v-47.921h-34.075l-.07 47.921c-.004 7.751 6.282 14.036 14.045 14.036zm46.507-34.721h5.859c7.762 0 14.064-6.28 14.064-14.041v-13.195h-33.933v13.195c-.01 7.76 6.238 14.041 14.01 14.041zm78.84 20.685c0 7.751 6.454 14.036 14.216 14.036h5.869c7.762 0 14.059-6.28 14.059-14.036l-.084-47.921h-34.06v47.921z" fill-rule="evenodd"/></svg>