<svg width="512" height="512" xmlns="http://www.w3.org/2000/svg"><g fill-rule="evenodd"><path d="M281.99 37.678a4.336 4.336 0 0 0-5.66-2.351L162.697 82.359a4.345 4.345 0 0 0-2.35 5.67l52.994 128.073 13.669 33.037 2.605 6.3c.894 2.148 3.476 3.24 5.662 2.338l1.596-.655a267.364 267.364 0 0 0-.833-3.703c-2.507-10.585-3.029-19.193-2.478-26.214 1.388-17.692 9.776-25.068 11.918-26.656 1.341-1.395 6.193-5.911 12.722-5.911 2.238 0 4.35.55 6.35 1.567 5.34 2.694 9.84 8.924 13.4 18.716.886 2.441 2.53 6.585 3.742 8.942.042 0 .099-.015.16-.015.152.38.248.798.526 1.105.072.258.171.47.247.714.187.619.393 1.217.648 1.741-.038.008-.064.008-.11.008l3.257 8.661 9.466-3.653 2.753-1.069 1.817-.7 1.748-.68.4-.157 3.296-1.276 43.027-17.808a4.346 4.346 0 0 0 2.354-5.67L281.99 37.678zm15.266 128.413l-36.197-14.5-14.496 36.204-17.53-7.021 14.497-36.204-36.197-14.503 7.024-17.528 36.196 14.5 14.495-36.204 17.533 7.023-14.501 36.204 36.201 14.503-7.025 17.526z"/><path d="M175.98 355.583c.494.51.912.948 1.328 1.356 1.224 1.189 2.043 1.893 2.276 2.084.685.686 1.36 1.356 2.102 2.083h-.007l2.533 2.48 1.355 1.333 2.518 2.469 1.347 1.329 1.36 1.326-.028.058c29.562 29.46 33.188 35.753 54.09 59.115 22.25 24.857 31.917 48.412 31.917 48.412s72.098-24.115 64.85-36.294C334.36 429.15 331.885 411 331.885 411c-2.304-42.576-35.786-96.04-33.31-96.04.168 0 .534.262 1.086.815 4.956 4.933 8.41 7.624 12.432 7.624 2.85 0 5.977-1.357 10.114-4.218 9.968-6.904-9.896-28.263-9.896-28.263s4.578-1.239 10.67-10.358c6.083-9.124-31.341-28.554-31.341-28.554s13.464-2.761 10.527-13.836c-.255-.962-.59-1.97-1.12-3.067-.071-.159-.16-.271-.232-.42-.015-.05-.053-.094-.084-.142l-16.497 6.378-1.112-2.959-4.418-11.752.016-.008c-1.837-3.297-4.285-10.018-4.285-10.018-5.117-14.057-11.195-17.827-16.238-17.827-5.815 0-10.252 5-10.252 5s-17.322 11.016-8.285 49.192c.256 1.087.463 2.069.702 3.105.277 1.239.583 2.522.827 3.7.278 1.298.507 2.495.747 3.734 5.798 29.383 1.866 37.19 1.866 37.19-3.04 2.616-5.853 3.661-8.402 3.661-5.32 0-9.498-4.5-12.195-8.538-.264-.8-.52-1.644-.757-2.507a52.754 52.754 0 0 1-.604-2.372c-2.837-12.058-3.351-27.769-3.388-29.038l1.326-1.923c.612-1.261 1.338-2.332 2.04-3.448l-14.178-34.268c-2.894 2.985-6.066 6.282-9.916 10.214-18.986 19.414-18.616 31.06-23.936 63.898-3.546 21.864-13.06 29.56-8.628 42.517 2.88 7.81 7.536 13.654 10.817 17.11z"/></g></svg>