<svg width="512" height="512" xmlns="http://www.w3.org/2000/svg"><g fill-rule="evenodd"><path d="M72.667 380.667h14.667V476H72.667zm88 0h14.667V476h-14.667zm-44 29.333h14.667v14.667h-14.667zm0 29.333h14.667V454h-14.667zm0-124.666h14.666C151.867 314.667 168 298.533 168 278v-22c0-20.533-16.133-36.667-36.667-36.667h-14.666C96.133 219.333 80 235.467 80 256v22c0 20.533 16.133 36.667 36.667 36.667zm-22-58.667c0-12.467 9.533-22 22-22h14.666c12.467 0 22 9.533 22 22v22c0 12.467-9.533 22-22 22h-14.666c-12.467 0-22-9.533-22-22v-22z"/><path d="M424.667 322H87.333C58.733 322 36 344.733 36 373.333V476h14.667V373.333c0-20.533 16.133-36.666 36.666-36.666h9.534l20.533 54.266c.733 2.2 3.667 4.4 6.6 4.4s5.867-2.2 8.067-4.4l20.533-54.266h8.067c20.533 0 36.666 16.133 36.666 36.666V476H212V373.333c0-14.666-5.867-27.133-15.4-36.666h32.267l20.533 54.266c.733 2.2 3.667 4.4 6.6 4.4s5.867-2.2 8.067-4.4l20.533-54.266h30.8c-9.533 9.533-15.4 22-15.4 36.666V476h14.667V373.333c0-20.533 16.133-36.666 36.666-36.666h9.534l20.533 54.266c.733 2.2 3.667 4.4 6.6 4.4s5.867-2.2 8.067-4.4l20.533-54.266h8.067c20.533 0 36.666 16.133 36.666 36.666V476H476V373.333c0-28.6-22.733-51.333-51.333-51.333zm-299.934 45.467L113 336.667h23.467l-11.734 30.8zm132 0L245 336.667h23.467l-11.734 30.8zm132 0L377 336.667h23.467l-11.734 30.8z"/><path d="M336.667 380.667h14.667V476h-14.667zm88 0h14.667V476h-14.667zm-44 29.333h14.667v14.667h-14.667zm0 29.333h14.667V454h-14.667zm0-124.666h14.666C415.867 314.667 432 298.533 432 278v-22c0-20.533-16.133-36.667-36.667-36.667h-14.666C360.133 219.333 344 235.467 344 256v22c0 20.533 16.133 36.667 36.667 36.667zm-22-58.667c0-12.467 9.533-22 22-22h14.666c12.467 0 22 9.533 22 22v22c0 12.467-9.533 22-22 22h-14.666c-12.467 0-22-9.533-22-22v-22zm-110 154h14.667v14.667h-14.667zm0 29.333h14.667V454h-14.667zm0-220C228.133 219.333 212 235.467 212 256v22c0 20.533 16.133 36.667 36.667 36.667h14.666C283.867 314.667 300 298.533 300 278v-22c0-20.533-16.133-36.667-36.667-36.667h-14.666zM285.333 256v22c0 12.467-9.533 22-22 22h-14.666c-12.467 0-22-9.533-22-22v-22c0-12.467 9.533-22 22-22h14.666c12.467 0 22 9.533 22 22z"/><path d="M446.667 109.333h-110V80h14.666c4.4 0 7.334-2.933 7.334-7.333V43.333c0-4.4-2.934-7.333-7.334-7.333H160.667c-4.4 0-7.334 2.933-7.334 7.333v29.334c0 4.4 2.934 7.333 7.334 7.333h14.666v29.333h-110C49.2 109.333 36 122.533 36 138.667v110c0 4.4 2.933 7.333 7.333 7.333h22v-14.667H50.667V138.667c0-8.067 6.6-14.667 14.666-14.667h381.334c8.066 0 14.666 6.6 14.666 14.667v102.666h-14.666V256h22c4.4 0 7.333-2.933 7.333-7.333v-110c0-16.134-13.2-29.334-29.333-29.334zM168 50.667h176v14.666H168V50.667zm22 58.666V80h132v29.333H190z"/><path d="M197.333 197.333v22H212v-14.666h88v14.666h14.667v-22c0-4.4-2.934-7.333-7.334-7.333H204.667c-4.4 0-7.334 2.933-7.334 7.333zm7.334-44h58.667V168h-58.667zm73.333 0h29.333V168H278z"/></g></svg>