<svg width="512" height="512" xmlns="http://www.w3.org/2000/svg"><g fill-rule="evenodd"><path d="M200.304 295.558c12.371 11.888 26.358 16 28.328 24.384 1.827 7.762-3.99 107.49-6.87 154.64h89.084c-4.065-46.525-12.209-144.274-9.83-154.64 3.483-15.166 22.069-33.057 29.707-45.41 6.035-9.76 9.101-21.376 9.11-34.531l.018-120.655c0-7.196-5.889-13.049-13.087-13.049-7.2 0-13.311 5.853-13.311 13.049v63.25c-.001 2.557-1.92 4.485-4.463 4.483-2.539 0-4.458-1.92-4.458-4.463V66.526s.311-13.739-13.054-13.739c-13.364 0-13.057 13.75-13.057 13.75v107.768c.016.441-.029 1.92-1.146 3.103-.565.604-1.608 1.32-3.362 1.32-1.765 0-2.814-.717-3.38-1.32-1.106-1.166-1.151-2.612-1.14-3.038V50.05c-.001-7.196-5.857-13.05-13.059-13.05-7.196 0-13.057 5.854-13.057 13.05V174.6c.026.485 0 1.972-1.099 3.168-.57.62-1.617 1.358-3.413 1.358-1.752 0-2.792-.722-3.356-1.327-1.113-1.199-1.153-2.693-1.131-3.156l-.026-108.677c0-7.198-5.857-13.052-13.054-13.052-7.202 0-13.058 5.854-13.058 13.052v140.717c.021.503-.01 2.404-1.31 3.776-.557.583-1.55 1.28-3.138 1.28-1.606 0-2.594-.703-3.142-1.293-1.277-1.368-1.281-3.244-1.251-3.783V162.36c0-7.312-5.954-13.262-13.274-13.262-7.317 0-13.267 5.95-13.267 13.262v66.687c-.004 36.906 9.82 49.464 27.546 66.51zm50.19-93.247c5.535 0 10.764 1.815 15.032 5.166 4.274-3.35 9.498-5.166 15.033-5.166 13.465 0 24.42 10.95 24.42 24.407 0 17.513-13.036 26.247-23.507 33.265-5.847 3.914-11.373 7.617-12.515 11.637a3.576 3.576 0 0 1-3.36 2.584h-.071a3.56 3.56 0 0 1-3.382-2.45c-1.37-4.172-6.89-7.88-12.732-11.8-10.394-6.98-23.334-15.666-23.334-33.237 0-13.456 10.956-24.406 24.415-24.406z"/><path d="M320.737 474.582h53.758c4.706-36.041 13.587-102.362 15.868-107.46 2.59-5.778 13.255-6.808 23.842-13.673 15.167-9.848 24.007-17.545 29.136-44.188l9.274-48.144c1.014-5.279-2.458-10.401-7.74-11.418-5.284-1.015-10.405 2.451-11.425 7.732l-6.156 31.982c-.058.39-.318 1.748-1.433 2.558-.476.353-1.284.719-2.44.495-1.153-.22-1.776-.861-2.092-1.36-.751-1.17-.507-2.543-.423-2.91l19.564-101.587c1-5.196-2.416-10.237-7.616-11.235-5.193-1-10.24 2.412-11.239 7.607l-15.122 78.456c-.055.335-.286 1.411-1.261 2.12-.49.358-1.343.737-2.61.492-1.289-.251-1.95-.926-2.272-1.454-.627-1.019-.44-2.091-.356-2.439l17.317-89.92c1.001-5.195-2.416-10.234-7.614-11.237-5.194-.997-10.24 2.414-11.238 7.609l-17.288 89.753c-.046.31-.279 1.346-1.238 2.036-.492.356-1.35.728-2.626.481-1.266-.243-1.914-.904-2.24-1.418-.642-1.009-.472-2.08-.398-2.396l14.985-77.804s2.126-9.886-7.519-11.741c-9.645-1.856-11.337 8.106-11.337 8.106l-16.135 83.81c-.356 1.836-2.026 3.06-3.839 2.603-2.042-.514-2.602-3.853-2.602-3.853-4.827 15.657-9.763 25.778-17.534 35.025-6.871 8.178-10.506 13.61-10.506 13.61.046 5.418.972 10.551 2.793 15.338 3.797 9.973 14.728 25.476 15.135 36.903.212 5.93-10.944 47.324-20.447 81.383a7027.91 7027.91 0 0 0 3.074 36.138zm27.47-185.368c1.867-9.713 11.298-16.1 21.02-14.227 3.999.768 7.519 2.803 10.137 5.817 3.547-1.83 7.577-2.414 11.567-1.646 9.723 1.873 16.105 11.297 14.24 21.014-2.448 12.685-12.992 17.158-21.472 20.754-4.757 2.022-9.26 3.924-10.83 6.75a2.612 2.612 0 0 1-2.784 1.3c-.018-.005-.032-.007-.051-.01a2.617 2.617 0 0 1-2.063-2.33c-.27-3.062-3.74-6.502-7.425-10.142-6.58-6.523-14.773-14.639-12.34-27.28zm-224.985 77.908c2.282 5.098 11.163 71.419 15.868 107.46h67.046c-8.19-28.629-30.957-109.07-30.658-117.517.405-11.427 11.336-26.931 15.134-36.903 2.067-5.446 2.992-11.325 2.77-17.576-13.463-12.955-23.525-24.322-27.973-45.518-.089 1.47-1.11 2.68-2.646 2.974-1.831.355-3.485-.767-3.839-2.603l-16.135-83.81s-1.691-9.963-11.337-8.106c-9.646 1.856-7.52 11.741-7.52 11.741l14.986 77.804c.074.314.244 1.387-.397 2.396-.327.514-.977 1.175-2.24 1.418-1.278.247-2.135-.123-2.628-.481-.96-.691-1.192-1.728-1.238-2.036l-17.285-89.753c-1-5.195-6.047-8.606-11.24-7.609-5.2 1.003-8.619 6.042-7.615 11.237l17.316 89.92c.086.348.273 1.42-.355 2.44-.32.527-.983 1.202-2.273 1.453-1.266.245-2.117-.134-2.609-.492-.974-.709-1.206-1.785-1.26-2.12l-15.122-78.456c-1-5.195-6.046-8.608-11.238-7.607-5.201.997-8.616 6.04-7.617 11.235L92.68 288.2c.084.365.329 1.737-.423 2.91-.317.498-.939 1.14-2.092 1.36-1.155.224-1.964-.144-2.44-.495-1.113-.81-1.375-2.168-1.433-2.558l-6.156-31.982c-1.02-5.28-6.14-8.747-11.426-7.732-5.28 1.018-8.753 6.14-7.74 11.418l9.274 48.144c5.13 26.643 13.97 34.342 29.137 44.188 10.587 6.861 21.25 7.891 23.84 13.67zm-.566-87.963c3.99-.77 8.019-.185 11.567 1.646 2.617-3.013 6.136-5.049 10.137-5.817 9.722-1.873 19.152 4.514 21.02 14.227 2.435 12.641-5.759 20.756-12.34 27.28-3.685 3.64-7.156 7.08-7.424 10.143a2.615 2.615 0 0 1-2.063 2.328l-.051.01a2.612 2.612 0 0 1-2.782-1.299c-1.572-2.825-6.074-4.728-10.832-6.75-8.481-3.596-19.026-8.07-21.472-20.754-1.866-9.717 4.517-19.14 14.24-21.014z"/></g></svg>