<svg width="512" height="512" xmlns="http://www.w3.org/2000/svg"><path d="M49.44 353.118c5 11.051 15.89 17.588 27.281 17.588 4.12 0 8.308-.855 12.295-2.655l364.057-164.408c11.01-4.97 17.945-16.05 17.593-28.108-.348-12.058-7.926-22.717-19.194-27.032L87.412 9c-15.46-5.939-32.735 1.792-38.651 17.207-5.925 15.416 1.793 32.701 17.225 38.612l297.126 113.845L64.381 313.57c-15.063 6.798-21.753 24.504-14.94 39.548zm418.61-58.199c-6.772-15.056-24.484-21.756-39.568-15.003L56.95 446.816c-15.072 6.773-21.803 24.463-15.018 39.527 4.986 11.08 15.898 17.636 27.309 17.636 4.098 0 8.27-.846 12.258-2.642L453.04 334.434c15.06-6.761 21.794-24.46 15.01-39.515z" fill-rule="evenodd"/></svg>