<svg width="512" height="512" xmlns="http://www.w3.org/2000/svg"><g fill-rule="evenodd"><path d="M358.363 394.258c0 3.13-.545 6.158-1.586 8.99 4.264-1.143 9.123-2.93 13.883-5.712 16.76-9.584 26.329-26.916 28.46-51.647.595-6.803 3.67-13.16 8.727-17.778a27.086 27.086 0 0 1 18.445-7.201h3.819l.098-13.26c.05-6.902-5.504-12.514-12.396-12.514H386.18c-6.794 0-12.346 5.512-12.396 12.316l-.149 22.546c.397 23.24-6.048 37.841-15.221 46.929l-.05 17.331z"/><path d="M451.827 336.007l-21.717-.15h-3.768a12.378 12.378 0 0 0-12.346 11.373c-6.148 71.263-65.697 73.1-71.845 73.1h-.496l-107.744-.149c-3.272 0-5.95-2.681-5.95-6.009v-1.887c0-3.278 2.678-5.91 5.95-5.91l97.133.15c6.793 0 12.346-5.513 12.396-12.366l.05-7.35.1-20.262c.049-6.853-5.455-12.464-12.347-12.464l-48.145-.299c-4.364-.05-8.677-1.191-12.445-3.426-12.05-7.101-43.039-22.943-80.722-22.943-17.998 0-37.533 3.625-57.268 13.508l-16.71.099c.497 2.036.745 4.17.745 6.406l.099 106.72c0 1.937-.199 3.824-.595 5.661h53.747c6.892 0 13.735.646 20.478 1.937l26.477 5.016c29.998 5.71 60.442 8.64 90.985 8.84l40.36.248s107.694-5.065 115.677-126.585c.644-7.15-4.96-13.209-12.1-13.258zm-351.591 5.065a12.449 12.449 0 0 0-8.578-5.91c-.694-.098-1.389-.198-2.132-.198H60.768c-6.843 0-12.396 5.562-12.396 12.415l.099 106.72c0 6.854 5.553 12.416 12.396 12.416h28.758c.843 0 1.686-.099 2.479-.248 3.719-.745 6.842-3.228 8.528-6.555a12.697 12.697 0 0 0 1.339-5.662l-.1-106.72c.1-2.236-.545-4.42-1.635-6.258zm241.517-212.299V51.898c0-8.243-6.643-14.898-14.875-14.898H308.78c-8.23 0-14.874 6.655-14.874 14.898V80.85L258.9 45.79a12.376 12.376 0 0 0-17.552 0l-117.76 117.944c-6.247 6.257-1.834 16.934 6.992 16.934h16.015c6.842 0 12.396 5.562 12.396 12.415v96.094c0 6.853 5.553 12.415 12.395 12.415h26.428c6.842 0 12.396-5.562 12.396-12.415v-42.708c0-6.854 5.553-12.416 12.395-12.416h55.037c6.842 0 12.396 5.562 12.396 12.416v42.757c0 6.854 5.553 12.416 12.396 12.416h26.427c6.843 0 12.396-5.562 12.396-12.416v-96.093c0-6.853 5.553-12.415 12.395-12.415h16.016c8.826 0 13.238-10.677 6.991-16.934l-34.906-35.011z"/></g></svg>