<svg width="512" height="512" xmlns="http://www.w3.org/2000/svg"><g fill-rule="evenodd"><path d="M256 150.17a6.953 6.953 0 0 0 6.95-6.957V44.957A6.953 6.953 0 0 0 256 38a6.953 6.953 0 0 0-6.95 6.957v98.256a6.952 6.952 0 0 0 6.95 6.958zm27.835 0a6.953 6.953 0 0 0 6.95-6.957V44.957a6.953 6.953 0 0 0-6.95-6.957 6.953 6.953 0 0 0-6.95 6.957v98.256a6.952 6.952 0 0 0 6.95 6.958z"/><path d="M235.114 165.878V65.169a6.953 6.953 0 0 0-6.95-6.957 6.953 6.953 0 0 0-6.949 6.957v107.148a6.953 6.953 0 0 0 6.95 6.957c17.99 0 32.628 14.655 32.628 32.669a6.953 6.953 0 0 0 6.95 6.957 6.953 6.953 0 0 0 6.95-6.957c0-23.323-17.208-42.697-39.579-46.065zm76.556-97.56a6.953 6.953 0 0 0-6.95 6.957v116.56c0 17.36-9.335 33.551-24.362 42.255a6.962 6.962 0 0 0-2.536 9.506 6.946 6.946 0 0 0 9.496 2.54 61.23 61.23 0 0 0 1.65-.994v221.9a6.953 6.953 0 0 0 6.95 6.958 6.953 6.953 0 0 0 6.95-6.957V233.375c9.978-11.318 15.752-26.065 15.752-41.54V75.276a6.953 6.953 0 0 0-6.95-6.957zM231.642 234.09c-15.027-8.704-24.363-24.894-24.363-42.254v-75.887a6.953 6.953 0 0 0-6.95-6.957 6.953 6.953 0 0 0-6.949 6.957v75.887c0 20.942 10.568 40.558 27.832 52.134v223.073a6.953 6.953 0 0 0 6.95 6.957 6.953 6.953 0 0 0 6.95-6.957v-226.93a6.96 6.96 0 0 0-3.47-6.023zm-114.819 29.75a6.953 6.953 0 0 0 6.95-6.957v-98.256a6.953 6.953 0 0 0-6.95-6.957 6.953 6.953 0 0 0-6.95 6.957v98.256a6.953 6.953 0 0 0 6.95 6.958zm27.835 0a6.953 6.953 0 0 0 6.95-6.957v-98.256a6.953 6.953 0 0 0-6.95-6.957 6.953 6.953 0 0 0-6.95 6.957v98.256a6.953 6.953 0 0 0 6.95 6.958z"/><path d="M95.937 279.547V178.839a6.953 6.953 0 0 0-6.95-6.957 6.953 6.953 0 0 0-6.949 6.957v107.147a6.953 6.953 0 0 0 6.95 6.957c17.99 0 32.628 14.655 32.628 32.669a6.953 6.953 0 0 0 6.95 6.957 6.953 6.953 0 0 0 6.95-6.957c0-23.322-17.209-42.696-39.579-46.065zm76.556-97.559a6.953 6.953 0 0 0-6.95 6.957v116.56c0 17.36-9.335 33.551-24.362 42.254a6.962 6.962 0 0 0-2.536 9.507 6.946 6.946 0 0 0 9.496 2.538 61.23 61.23 0 0 0 1.65-.993v108.232a6.953 6.953 0 0 0 6.95 6.957 6.953 6.953 0 0 0 6.95-6.957V347.044c9.978-11.317 15.752-26.065 15.752-41.539v-116.56a6.954 6.954 0 0 0-6.95-6.957zM92.465 347.76c-15.027-8.704-24.363-24.894-24.363-42.254V229.62a6.953 6.953 0 0 0-6.95-6.957 6.953 6.953 0 0 0-6.95 6.957v75.886c0 20.941 10.569 40.558 27.833 52.134v109.403a6.953 6.953 0 0 0 6.95 6.957 6.953 6.953 0 0 0 6.95-6.957V353.782a6.957 6.957 0 0 0-3.47-6.022zm302.712-139.579a6.953 6.953 0 0 0 6.95-6.957v-98.256a6.953 6.953 0 0 0-6.95-6.958 6.953 6.953 0 0 0-6.95 6.958v98.256a6.954 6.954 0 0 0 6.95 6.957zM367.342 96.01a6.953 6.953 0 0 0-6.95 6.958v98.256a6.953 6.953 0 0 0 6.95 6.957 6.953 6.953 0 0 0 6.95-6.957v-98.256a6.953 6.953 0 0 0-6.95-6.958z"/><path d="M429.962 230.326V123.18a6.953 6.953 0 0 0-6.95-6.958 6.953 6.953 0 0 0-6.95 6.958v100.708c-22.37 3.368-39.577 22.744-39.577 46.065a6.953 6.953 0 0 0 6.95 6.957 6.953 6.953 0 0 0 6.949-6.957c0-18.013 14.637-32.669 32.628-32.669a6.954 6.954 0 0 0 6.95-6.958zM370.82 292.1c-15.028-8.703-24.364-24.894-24.364-42.253v-116.56a6.953 6.953 0 0 0-6.95-6.958 6.953 6.953 0 0 0-6.949 6.957v116.56c0 15.474 5.774 30.222 15.752 41.54v175.657a6.953 6.953 0 0 0 6.95 6.957 6.953 6.953 0 0 0 6.95-6.957V303.15c.544.339 1.093.67 1.65.994a6.946 6.946 0 0 0 9.496-2.538 6.96 6.96 0 0 0-2.536-9.506zm80.028-125.098a6.953 6.953 0 0 0-6.95 6.958v75.886c0 17.36-9.336 33.55-24.363 42.254a6.958 6.958 0 0 0-3.47 6.022v168.92a6.953 6.953 0 0 0 6.95 6.958 6.953 6.953 0 0 0 6.95-6.957V301.979c17.264-11.576 27.832-31.192 27.832-52.133V173.96a6.953 6.953 0 0 0-6.95-6.958z"/></g></svg>