<svg width="512" height="512" xmlns="http://www.w3.org/2000/svg"><g fill-rule="evenodd"><path d="M23.066 298.77c7.757 0 14.066-6.306 14.066-14.057 0-7.752-6.31-14.058-14.066-14.058C15.31 270.655 9 276.961 9 284.713c0 7.751 6.31 14.057 14.066 14.057zm339.39-104.713c-4.394-4.39-11.52-4.39-15.913 0l-34.204 34.183c-4.395 4.392-4.395 11.513 0 15.905a11.225 11.225 0 0 0 7.956 3.294c2.88 0 5.76-1.099 7.957-3.294l34.204-34.183c4.395-4.391 4.395-11.512 0-15.905zm-18.29 81.897a11.225 11.225 0 0 0 7.957 3.294c2.88 0 5.76-1.099 7.957-3.294l68.408-68.367c4.394-4.391 4.394-11.512 0-15.905-4.394-4.39-11.52-4.39-15.914 0l-68.408 68.367c-4.394 4.392-4.394 11.513 0 15.905z"/><path d="M499.566 204.94L383.395 88.843c-4.395-4.39-11.52-4.39-15.915 0l-41.266 41.24h-139.27c-32.086 0-62.636 14.61-82.857 39.36H82.144v-16.869c0-6.21-5.038-11.246-11.253-11.246H20.253C14.038 141.327 9 146.363 9 152.573c0 6.21 5.038 11.246 11.253 11.246h39.385v157.443H20.253C14.038 321.262 9 326.298 9 332.508c0 6.21 5.038 11.246 11.253 11.246H70.89c6.215 0 11.253-5.036 11.253-11.246v-28.115h21.943c20.22 24.75 50.772 39.36 82.857 39.36h13.091l80.316 80.267a11.225 11.225 0 0 0 7.957 3.294c2.88 0 5.76-1.099 7.957-3.294l203.3-203.174a11.246 11.246 0 0 0 0-15.905zm-380.862 81.583a11.254 11.254 0 0 0-9.095-4.622H82.144v-89.967h27.467c3.596 0 6.975-1.717 9.094-4.622 15.863-21.752 41.373-34.739 68.24-34.739H303.71l-66.762 66.721c-9.387-6.866-17.755-15.219-24.796-24.89-3.656-5.022-10.692-6.13-15.72-2.477-5.026 3.654-6.135 10.687-2.48 15.71 21.353 29.331 52.857 48.596 88.708 54.246 6.896 1.088 11.621 7.578 10.534 14.47-1.087 6.89-7.573 11.605-14.477 10.524-31.147-4.908-59.822-18.565-82.924-39.493-4.605-4.171-11.721-3.822-15.895.78-4.174 4.601-3.825 11.713.78 15.884a182.545 182.545 0 0 0 6.17 5.316l-22.667 22.652a11.244 11.244 0 0 0 0 15.904l12.746 12.737c-23.09-2.788-44.347-15.108-58.223-34.134zm169.604 113.64L188.05 299.968l17.226-17.214c21.074 13.383 44.795 22.378 69.934 26.34 1.849.291 3.683.433 5.498.433 16.994-.003 31.986-12.379 34.715-29.673 3.02-19.141-10.104-37.17-29.257-40.19a114.008 114.008 0 0 1-29.113-8.656l118.385-118.31 100.257 100.196-187.387 187.269z"/></g></svg>