<svg width="512" height="512" xmlns="http://www.w3.org/2000/svg"><g fill-rule="evenodd"><path d="M251.123 258.004c-7.83 0-12.847 6.766-12.847 17.864 0 11.175 5.016 18.321 12.847 18.321 7.829 0 12.846-7.146 12.846-18.32 0-11.1-5.018-17.865-12.846-17.865zM213.144 348h-12.657v28.988h12.657c12.112 0 18.78-5.171 18.78-15.244 0-10.205-6.667-13.745-18.78-13.745z"/><path d="M60.373 476.909h392.14c21.747 0 39.374-17.63 39.374-39.375V241.616c0-21.747-17.627-39.375-39.373-39.375h-39.668l-10.44-10.441L281.303 70.691a26.099 26.099 0 0 0 1.28-8.08c0-14.438-11.703-26.141-26.14-26.141-14.435 0-26.138 11.703-26.138 26.14 0 2.821.452 5.536 1.28 8.081L110.48 191.8l-10.44 10.44H60.372C38.628 202.24 21 219.87 21 241.617v195.918c0 21.746 17.628 39.375 39.373 39.375zm101.736-52.557h-15.787v-89.01h15.787v89.01zm19.84-173.113h9.045l15.507 27.974 5.093 10.567h.304c-.38-5.093-1.14-11.403-1.14-16.952V251.24h8.438v49.716h-9.045l-15.508-27.975-5.093-10.567h-.304c.38 5.244 1.14 11.25 1.14 16.8v21.742h-8.438V251.24zm51.337 173.113l-19.19-34.842h-13.61v34.842h-15.785v-89.01h30.076c18.509 0 32.662 6.533 32.662 26.404 0 13.61-7.077 21.775-17.692 25.45l21.23 37.156h-17.69zm-4.056-148.484c0-16.04 8.97-25.542 21.893-25.542 12.998 0 21.968 9.502 21.968 25.542 0 16.116-8.97 25.998-21.968 25.998-12.924 0-21.893-9.882-21.893-25.998zm52.779 148.484h-15.787v-89.01h15.787v89.01zm16.396-123.398h-10.717l-9.882-49.715h9.045l4.333 25.085c.836 5.322 1.672 10.643 2.432 15.887h.305c1.063-5.244 2.128-10.642 3.268-15.887l6.081-25.085h7.678l6.08 25.085c1.14 5.17 2.205 10.567 3.346 15.887h.304c.76-5.32 1.595-10.642 2.356-15.887l4.333-25.085h8.438l-9.502 49.715h-10.946l-6.157-26.15c-.836-3.877-1.597-7.68-2.205-11.48h-.304a339.226 339.226 0 0 1-2.28 11.48l-6.006 26.15zm72.882 123.398h-16.195l-27.763-50.085-9.118-18.919h-.544c.681 9.391 2.041 20.144 2.041 30.078v38.925h-15.106v-89.008h16.195l27.763 50.084 9.118 18.918h.543c-.68-9.117-2.04-20.415-2.04-30.35v-38.651h15.106v89.008zm86.963-79.346l-8.71 9.798c-4.49-4.355-9.39-7.35-17.69-7.35-15.787 0-26.403 12.25-26.403 32.256 0 20.278 9.39 32.527 27.219 32.527 5.035 0 9.935-1.36 12.792-3.946v-19.19h-16.875v-12.93h31.03v39.197c-6.124 5.99-16.603 10.616-28.852 10.616-23.68 0-41.509-16.332-41.509-45.866 0-29.126 18.373-46.41 42.46-46.41 12.248.001 20.959 5.58 26.538 11.298zM240.128 83.027a26.022 26.022 0 0 0 16.315 5.724 26.02 26.02 0 0 0 16.315-5.724l119.207 119.214H120.921L240.128 83.027zM56.092 335.343h15.786v35.794h36.065v-35.794h15.787v89.009h-15.787v-39.468H71.878v39.468H56.092v-89.01z"/></g></svg>