<svg width="512" height="512" xmlns="http://www.w3.org/2000/svg"><g fill="#231F20"><path d="M395.293 412.697c-6.905-6.916-8.352-16.598-3.222-21.67 5.063-5.07 14.796-3.622 21.636 3.228 6.905 6.916 8.352 16.598 3.222 21.67-5.13 5.137-14.796 3.688-21.636-3.228z"/><path d="M418.885 415.84c3.608-3.61 4.016-9.469 1.566-15.123-5.514 3.883-14.498 2.112-21.1-4.428-2.246-2.248-3.88-4.7-4.969-7.289-.476.34-.885.681-1.293 1.09-.408.409-.817.817-1.089 1.294 2.586 1.09 5.037 2.725 7.283 4.973 6.602 6.608 8.304 15.668 4.424 21.118 5.65 2.452 11.503 1.975 15.178-1.635z"/><path d="M383.777 358.208c5.11 5.63 2.69 13.07 18.223 29.09L395.948 394 340 338.032l5.918-6.032c10.288 10.523 22.997 20.242 37.859 26.208zm-23.531 24.569c5.624 5.11 13.056 2.69 29.059 18.223l6.695-6.052L340.026 339 334 344.918c10.579 10.288 20.287 22.93 26.246 37.859z"/><path d="M308.358 335.552c5.576 4.995 13.409 2.131 29.34 17.448l7.302-6.66L289.572 291 283 297.46c10.488 10.255 19.914 22.908 25.358 38.092zM100.28 118.703c6.922 6.91 16.613 8.357 21.69 3.224 5.076-5.132 3.625-14.806-3.23-21.65-6.857-6.843-16.614-8.356-21.69-3.224-5.076 5.133-3.692 14.806 3.23 21.65z"/><path d="M97.134 97.115c3.614-3.608 9.478-4.016 15.138-1.566-3.887 5.514-2.114 14.498 4.432 21.1 2.25 2.246 4.705 3.88 7.296 4.969-.34.476-.682.885-1.091 1.293-.41.408-.818.817-1.296 1.089-1.09-2.586-2.727-5.037-4.977-7.283-6.614-6.602-15.683-8.304-21.138-4.424-2.387-5.65-1.978-11.57 1.636-15.178z"/><path d="M129.223 153.754c-5.11-5.624-2.69-13.056-18.223-29.059l6.052-6.695L173 173.974 167.082 180c-10.355-10.512-22.997-20.22-37.859-26.246zm23.531-24.531c-5.624-5.11-13.056-2.69-29.059-18.223L117 117.052 172.974 173l6.026-5.918c-10.579-10.355-20.22-22.997-26.246-37.859zm181.798 180.135c4.995 5.576 2.131 13.409 17.448 29.34L345.34 346 290 290.572l6.46-6.572c10.255 10.422 22.908 19.914 38.092 25.358z"/><path d="M203.642 179.448c-5.576-4.995-13.409-2.131-29.34-17.448L167 168.66 222.428 224l6.572-6.46c-10.422-10.255-19.914-22.908-25.358-38.092z"/><path d="M178.448 204.642c-4.995-5.576-2.131-13.409-17.448-29.34l6.66-7.302L223 223.428 216.54 230c-10.255-10.422-22.908-19.914-38.092-25.358zM336 311c-8.553 7.34-15.326 7.615-19.09 6.586-.342-.206-.41-.137-.41-.069-.068 0-.137 0 .068.343 1.027 3.842.753 10.565-6.568 19.14 8.21-7.478 11.084-9.124 19.158-6.517.342.206.41.137.342.068.068 0 .137 0-.068-.343-2.532-8.095-.89-10.976 6.568-19.208zm77.735-191.293c-6.926 6.905-16.623 8.352-21.703 3.222-5.079-5.063-3.628-14.796 3.233-21.636 6.926-6.905 16.623-8.352 21.703-3.222 5.079 5.13 3.628 14.73-3.233 21.636z"/><path d="M418.866 98.115c-3.614-3.608-9.478-4.016-15.138-1.566 3.887 5.514 2.114 14.498-4.432 21.1-2.25 2.246-4.705 3.88-7.296 4.969.34.476.682.885 1.091 1.293.41.408.818.817 1.296 1.089 1.09-2.586 2.727-5.037 4.977-7.283 6.614-6.602 15.683-8.304 21.138-4.424 2.387-5.717 1.978-11.57-1.636-15.178z"/><path d="M361.246 131.223c5.624-5.11 13.056-2.69 29.059-18.223l6.695 6.052L341.026 175 335 169.082c10.579-10.355 20.287-22.997 26.246-37.859z"/><path d="M383.777 154.754c5.11-5.624 2.69-13.056 18.223-29.059L395.948 119 340 174.974l5.918 6.026c10.355-10.579 22.997-20.22 37.859-26.246z"/><path d="M337.552 205.642c4.995-5.576 2.131-13.409 17.448-29.34L348.34 169 293 224.428l6.46 6.572c10.255-10.422 22.908-19.914 38.092-25.358zM120.707 413.697c6.905-6.916 8.352-16.598 3.222-21.67-5.13-5.07-14.796-3.622-21.636 3.228-6.905 6.916-8.352 16.598-3.222 21.67 5.063 5.137 14.796 3.688 21.636-3.228z"/><path d="M99.115 418.84c-3.608-3.61-4.016-9.469-1.566-15.123 5.514 3.883 14.498 2.112 21.1-4.428 2.246-2.248 3.88-4.7 4.969-7.289.476.34.885.681 1.293 1.09.408.409.817.817 1.089 1.294-2.586 1.09-5.037 2.725-7.283 4.973-6.602 6.608-8.304 15.668-4.424 21.118-5.65 2.452-11.503 1.975-15.178-1.635z"/><path d="M154.754 384.777c-5.624 5.11-13.056 2.69-29.059 18.223L119 396.948 174.974 341l6.026 5.918c-10.579 10.288-20.287 22.93-26.246 37.859z"/><path d="M132.223 362.246c-5.11 5.624-2.69 13.056-18.223 29.059l6.052 6.695L176 342.026 170.082 336c-10.355 10.579-22.997 20.287-37.859 26.246zm180.135-181.798c5.576-4.995 13.409-2.131 29.34-17.448l7.302 6.66L293.572 225 287 218.54c10.422-10.255 19.848-22.908 25.358-38.092z"/><path d="M181.448 311.358c-4.995 5.576-2.131 13.409-17.448 29.34l6.66 7.302L226 292.572 219.54 286c-10.255 10.422-22.908 19.914-38.092 25.358z"/><path d="M207.642 336.552c-5.576 4.995-13.409 2.131-29.34 17.448L171 347.34 226.428 292l6.572 6.46c-10.422 10.255-19.914 22.908-25.358 38.092z"/><path d="M181 312c7.478 8.232 9.124 11.113 6.517 19.208-.206.343-.137.412-.068.343-.07.07 0 .138.343-.068 8.095-2.607 10.976-.96 19.208 6.517-7.34-8.575-7.615-15.367-6.586-19.14.206-.343.137-.411.069-.343.068-.068 0-.137-.343.069-3.842 1.029-10.565.686-19.14-6.586zm132-132c7.34 8.553 7.615 15.326 6.586 19.09-.206.342-.137.41-.069.41 0 .068 0 .137.343-.068 3.842-1.027 10.565-.753 19.14 6.568-7.478-8.21-9.124-11.084-6.517-19.158.206-.342.137-.41.068-.342 0-.068 0-.137-.343.068-8.095 2.532-10.976.958-19.208-6.568zm-43 285c0-9.94-6.068-18-13.5-18s-13.5 8.06-13.5 18 6.068 18 13.5 18 13.5-8.06 13.5-18z"/><path d="M256.467 483c-4.943 0-9.226-3.836-11.467-9.488 6.458-1.144 11.401-8.68 11.401-17.832a23.71 23.71 0 0 0-1.582-8.545c.528-.068 1.055-.135 1.648-.135s1.12 0 1.648.135a23.71 23.71 0 0 0-1.582 8.545c0 9.22 5.009 16.756 11.467 17.832-2.24 5.652-6.59 9.488-11.533 9.488z"/><path d="M274 420.124c-.406 7.565-7.382 11.113-7.857 33.34L257 454l.203-78.933 8.534-.067c-.135 14.662 1.964 30.395 8.263 45.124zm-34 0c.406 7.565 7.382 11.113 7.857 33.34L257 454l-.203-78.933-8.534-.067c.135 14.662-1.964 30.395-8.263 45.124z"/><path d="M239 348.124c.413 7.498 8.26 11.113 8.812 33.34L258 382l-.207-78.933-9.568-.067c.137 14.662-2.134 30.395-9.225 45.124zm38-.029c-.413 7.505-8.26 11.123-8.812 33.369L258 382l.207-78.933 9.568-.067c-.206 14.607 2.134 30.354 9.225 45.095z"/><path d="M240 349.967c10.88.53 14.037 1.393 17.799 8.688.134.398.201.398.201.266.067.066.067.066.201-.266 3.762-7.295 6.918-8.158 17.799-8.688-11.015-.862-15.918-5.306-17.799-8.622-.134-.398-.201-.398-.201-.266-.067-.066-.067-.066-.201.266-1.881 3.316-6.784 7.76-17.799 8.622zM269 48c0 9.94-6.068 18-13.5 18S242 57.94 242 48s6.068-18 13.5-18S269 38.06 269 48z"/><path d="M255.467 30c-4.943 0-9.226 3.836-11.467 9.488 6.458 1.144 11.401 8.68 11.401 17.832a23.71 23.71 0 0 1-1.582 8.545c.528.068 1.055.135 1.648.135s1.12 0 1.648-.135a23.71 23.71 0 0 1-1.582-8.545c0-9.22 5.009-16.756 11.467-17.832-2.24-5.652-6.59-9.488-11.533-9.488z"/><path d="M239 94.876c.406-7.565 7.382-11.113 7.857-33.34L256 61l-.203 78.933-8.534.067c.135-14.662-1.964-30.462-8.263-45.124z"/><path d="M238 163.905c.413-7.505 8.26-11.123 8.812-33.369L257 130l-.207 78.933-9.568.067c.137-14.607-2.134-30.354-9.225-45.095z"/><path d="M272 94.876c-.406-7.565-7.382-11.113-7.857-33.34L255 61l.203 78.933 8.534.067c-.135-14.662 1.964-30.462 8.263-45.124z"/><path d="M274 163.905c-.413-7.505-8.26-11.123-8.812-33.369L255 130l.207 78.933 9.568.067c-.137-14.607 2.203-30.354 9.225-45.095zM464 269c-9.94 0-18-6.068-18-13.5s8.06-13.5 18-13.5 18 6.068 18 13.5-8.06 13.5-18 13.5z"/><path d="M482 255.467c0-4.943-3.836-9.226-9.488-11.467-1.144 6.458-8.68 11.401-17.832 11.401a23.71 23.71 0 0 1-8.545-1.582c-.068.528-.135 1.055-.135 1.648s0 1.12.135 1.648a23.71 23.71 0 0 1 8.545-1.582c9.22 0 16.756 5.009 17.832 11.467 5.652-2.24 9.488-6.59 9.488-11.533z"/><path d="M418.124 239c7.565.406 11.113 7.382 33.34 7.857L452 256l-78.933-.203-.067-8.534c14.662.135 30.462-1.964 45.124-8.263z"/><path d="M418.124 272c7.565-.406 11.113-7.382 33.34-7.857L452 255l-78.933.203-.067 8.534c14.662-.135 30.462 1.896 45.124 8.263z"/><path d="M348.095 277c7.505-.413 11.123-8.26 33.369-8.812L382 258l-78.933.207-.067 9.568c14.607-.137 30.354 2.134 45.095 9.225zM48 271c9.94 0 18-6.068 18-13.5S57.94 244 48 244s-18 6.068-18 13.5S38.06 271 48 271z"/><path d="M30 256.467c0-4.943 3.836-9.226 9.488-11.467 1.144 6.458 8.68 11.401 17.832 11.401a23.71 23.71 0 0 0 8.545-1.582c.068.528.135 1.055.135 1.648s0 1.12-.135 1.648a23.71 23.71 0 0 0-8.545-1.582c-9.22 0-16.756 5.009-17.832 11.467-5.652-2.24-9.488-6.59-9.488-11.533z"/><path d="M92.876 273c-7.565-.406-11.113-7.382-33.34-7.857L59 256l78.933.203.067 8.534c-14.662-.135-30.395 1.896-45.124 8.263z"/><path d="M92.876 240c-7.565.406-11.113 7.382-33.34 7.857L59 257l78.933-.203.067-8.534c-14.662.135-30.395-1.964-45.124-8.263zm255.219-1c7.505.413 11.123 8.26 33.369 8.812L382 258l-78.933-.207-.067-9.568c14.607.137 30.354-2.203 45.095-9.225z"/><path d="M163.905 239c-7.505.413-11.123 8.26-33.369 8.812L130 258l78.933-.207.067-9.568c-14.607.137-30.354-2.203-45.095-9.225zm0 38c-7.505-.413-11.123-8.26-33.369-8.812L130 258l78.933.207.067 9.568c-14.607-.137-30.354 2.134-45.095 9.225z"/><path d="M306 256c0-27.6-22.348-50-49.967-50C228.415 206 206 228.333 206 255.933V256c0 27.6 22.348 50 49.967 50C283.585 306 306 283.6 306 256z"/><path d="M255.466 92C165.241 92 92 165.241 92 255.466 92 345.692 165.174 419 255.466 419 345.692 419 419 345.759 419 255.466 419 165.174 345.692 92 255.466 92zm0 38.332c69.146 0 125.269 56.123 125.269 125.202 0 69.078-56.123 125.335-125.269 125.335-69.146 0-125.2-56.122-125.2-125.268-.068-69.146 56.054-125.269 125.2-125.269z"/><path d="M419.967 240c.53 9.64 1.393 12.393 8.688 15.803.398.066.398.131.266.197.066.066.066.066-.266.197-7.295 3.344-8.158 6.164-8.688 15.803-.862-9.77-5.306-14.098-8.622-15.803-.398-.066-.398-.131-.266-.197-.066-.066-.066-.066.266-.197 3.382-1.705 7.76-6.033 8.622-15.803zm-256.934 0c-.53 10.88-1.393 14.037-8.688 17.799-.398.134-.398.201-.266.201-.066.067-.066.067.266.201 7.295 3.762 8.158 6.918 8.688 17.799.862-11.015 5.306-15.918 8.622-17.799.398-.134.398-.201.266-.201.066-.067.066-.067-.266-.201-3.316-1.881-7.76-6.784-8.622-17.799zm186.986 0c-.866 11.015-5.324 15.918-8.651 17.799-.333.067-.4.201-.333.201-.067.067-.067.134.266.201 3.327 1.881 7.786 6.784 8.651 17.799.532-10.88 1.397-14.037 8.718-17.799.332-.134.399-.201.266-.201.066-.067.066-.134-.266-.201-7.254-3.762-8.12-6.918-8.651-17.799zM94.033 273c-.53-9.64-1.393-12.393-8.688-15.803-.398-.066-.398-.131-.266-.197-.066-.066-.066-.066.266-.197 7.295-3.344 8.158-6.164 8.688-15.803.862 9.77 5.306 14.098 8.622 15.803.398.066.398.131.266.197.066.066.066.066-.266.197-3.316 1.705-7.76 6.033-8.622 15.803zM271 94.033c-9.64-.53-12.393-1.393-15.803-8.688-.066-.398-.131-.398-.197-.266-.066-.066-.066-.066-.197.266-3.344 7.295-6.164 8.158-15.803 8.688 9.77.862 14.098 5.306 15.803 8.622.066.398.131.398.197.266.066.066.066.066.197-.266 1.705-3.382 6.033-7.76 15.803-8.622zm1 324.934c-9.64.53-12.393 1.393-15.803 8.688-.066.398-.131.398-.197.266-.066.066-.066.066-.197-.266-3.344-7.295-6.164-8.158-15.803-8.688 9.77-.862 14.098-5.306 15.803-8.622.066-.398.131-.398.197-.266.066-.066.066-.066.197.266 1.705 3.316 6.033 7.76 15.803 8.622zM363 132c7.267 6.6 9.933 7.933 17.533 5.2.334-.2.4-.2.334-.067.066-.066.133 0-.067.334-2.733 7.6-1.4 10.2 5.2 17.533-7.6-6.4-13.867-6.4-17.467-5.2-.333.2-.4.2-.333.067-.067.066-.133 0 .067-.334C369.333 145.867 369.4 139.6 363 132zM156 387c-7.267-6.6-9.933-7.933-17.533-5.2-.334.2-.4.2-.334.067-.066.066-.133 0 .067-.334 2.733-7.6 1.4-10.2-5.2-17.533 7.6 6.4 13.867 6.4 17.467 5.2.333-.2.4-.2.333-.067.067-.066.133 0-.067.334C149.6 373.133 149.6 379.333 156 387zm-26-234c6.6-7.267 7.933-9.933 5.2-17.533-.2-.334-.2-.4-.067-.334-.066-.066 0-.133.334.067 7.6 2.733 10.2 1.4 17.533-5.2-6.4 7.6-6.4 13.867-5.2 17.467.2.333.2.4.067.333.066.067 0 .133-.334-.067-3.6-1.133-9.866-1.133-17.533 5.267zm253 207c-6.6 7.267-7.933 9.933-5.2 17.533.2.334.2.4.067.334.066.066 0 .133-.334-.067-7.6-2.733-10.2-1.4-17.533 5.2 6.4-7.6 6.4-13.867 5.2-17.467-.2-.333-.2-.4-.067-.333-.066-.067 0-.133.334.067 3.6 1.133 9.866 1.133 17.533-5.267z"/></g></svg>