<svg width="512" height="512" xmlns="http://www.w3.org/2000/svg"><g fill="#444" fill-rule="evenodd"><path d="M255.986 477C134.132 477 35 377.854 35 256S134.146 35 255.986 35C377.854 35 477 134.146 477 256s-99.146 221-221.014 221zm0-415.273C148.87 61.727 61.727 148.884 61.727 256s87.143 194.259 194.26 194.259c107.129 0 194.286-87.143 194.286-194.259 0-107.116-87.157-194.273-194.287-194.273z"/><path d="M258.472 343.917c-.828.621-1.67 1.036-2.707 1.036-1.036 0-2.085-.415-2.707-1.036l-62.446-62.654c-29.863-29.863-31.741-60.775-12.528-79.78 19.006-19.007 49.918-19.007 68.924 0a51.64 51.64 0 0 1 8.771 11.698 51.947 51.947 0 0 1 8.77-11.699c19.007-19.213 49.92-19.213 69.133 0 19.005 19.006 17.127 49.918-12.736 79.781L258.5 343.917h-.028z"/></g></svg>