<svg width="512" height="512" xmlns="http://www.w3.org/2000/svg"><path d="M321.198 405.596v16.616c0 13.203-9.793 24.16-22.372 25.867l-4.043 14.91c-2.336 8.083-9.793 13.742-17.79 13.742h-40.25c-8.626 0-16.083-5.749-17.79-13.742l-4.043-14.91c-12.669-1.706-22.372-12.664-22.372-25.867v-16.616c0-8.623 6.918-16.077 16.083-16.077h97.123c8.625.538 15.454 7.454 15.454 16.077zm12.758-68.171c-2.875 18.143-18.778 31.705-37.107 31.705h-79.963c-18.777 0-34.41-13.383-37.106-31.705-3.235-20.927-13.118-40.687-27.673-55.776-25.786-27.035-40.16-62.064-40.79-98.799-.629-80.475 63.88-146.221 143.844-146.85h1.078c80.592 0 146.18 65.027 146.18 144.964 0 37.454-14.915 74.189-40.79 100.685-14.825 15.358-24.439 34.669-27.673 55.776zm4.762-77.961c20.215-20.658 31.805-49.22 31.805-78.5 0-62.333-51.212-113.08-114.194-113.08h-.899c-62.353.54-112.667 51.915-112.217 114.607.449 28.562 11.77 56.046 31.895 77.063 19.047 19.67 31.985 45.627 36.208 73.02.45 3.234 3.145 4.671 5.57 4.671h79.963c2.965 0 5.212-2.425 5.57-4.67 4.224-27.664 16.802-52.992 36.299-73.111zm-81.85-5.569c-9.434 0-16.981 7.635-16.981 16.976 0 9.43 7.637 16.975 16.98 16.975 9.435 0 16.982-7.634 16.982-16.975 0-9.341-7.547-16.976-16.981-16.976zm.18-12.125c7.457 0 13.477-5.928 13.746-13.293l2.695-94.397c.27-9.251-7.187-16.796-16.352-16.796-9.254 0-16.621 7.635-16.352 16.796l2.606 94.397c.09 7.365 6.2 13.293 13.657 13.293z"/></svg>