<svg width="512" height="512" xmlns="http://www.w3.org/2000/svg"><path d="M384.38 165.306c-3.453-10.17-13.076-17.491-24.418-17.491-11.148 0-20.642 7.072-24.242 16.972h-53.432v-54.06c11.135-2.854 19.367-12.952 19.367-24.973 0-12.288-8.604-22.561-20.116-25.145C278.773 49.352 268.614 41 256.5 41s-22.273 8.352-25.04 19.609c-11.511 2.584-20.115 12.857-20.115 25.145 0 12.02 8.232 22.12 19.367 24.972v54.062H177.28c-3.6-9.9-13.094-16.972-24.242-16.972-11.34 0-20.965 7.321-24.419 17.491C116.854 167.7 108 178.099 108 190.567c0 12.054 8.278 22.173 19.46 24.994 1.599 12.703 12.437 22.531 25.578 22.531 12.87 0 23.536-9.426 25.472-21.747h52.201v182.241c-11.135 2.853-19.367 12.951-19.367 24.973 0 12.101 8.344 22.25 19.592 25.024C232.586 461.23 243.4 471 256.5 471s23.914-9.77 25.563-22.417c11.249-2.774 19.592-12.923 19.592-25.024 0-12.02-8.232-22.12-19.367-24.973v-182.24h52.202c1.935 12.32 12.601 21.746 25.472 21.746 13.14 0 23.979-9.829 25.577-22.531C396.722 212.74 405 202.62 405 190.566c0-12.467-8.854-22.866-20.62-25.26z"/></svg>