<svg width="512" height="512" xmlns="http://www.w3.org/2000/svg"><path d="M256.59 192.06c0-8.91-2.429-17.19-7.197-25.38 4.858-8.19 7.197-16.47 7.197-25.38 0-18.99-11.245-36.54-28.067-45.18.45-2.7.63-5.49.63-8.37 0-28.08-22.76-50.85-50.827-50.85-14.574 0-24.74 6.75-31.936 14.04C136.405 42.3 123 36.9 110.407 36.9c-13.674 0-26.538 5.31-36.344 15.03-9.805 9.72-15.203 22.41-15.203 35.82 0 3.87.63 7.65 1.35 11.25C45.725 108.27 37 123.93 37 141.3c0 8.91 2.519 17.82 7.107 25.47C39.339 174.96 37 183.24 37 192.06c0 16.56 8.546 32.13 22.67 41.94-.45 2.7-.72 5.4-.72 8.1 0 28.08 23.12 50.85 51.547 50.85 12.594 0 25.998-5.4 35.983-14.04 7.287 7.29 17.452 14.04 31.936 14.04 13.673 0 26.358-5.22 35.983-14.76 9.626-9.54 14.843-22.32 14.843-36 0-1.62 0-3.51-.18-5.49 16.733-8.46 27.528-25.56 27.528-44.64zm-25.099-20.16c4.948 6.75 7.197 13.14 7.197 20.07 0 13.95-9.086 26.19-22.58 30.51-2.339.81-4.318 2.52-5.397 4.77a9.5 9.5 0 0 0-.18 7.2c.72 1.8.72 5.04.72 7.65 0 18.45-14.394 32.85-32.835 32.85-9.266 0-16.553-4.5-24.38-14.94-1.709-2.25-4.407-3.6-7.196-3.6-2.789 0-5.488 1.35-7.287 3.6-6.477 8.64-18.711 14.94-29.146 14.94-18.532 0-33.555-14.76-33.555-32.85 0-3.15.54-6.39 1.62-9.54 1.438-4.14-.45-8.73-4.319-10.8-11.785-6.21-19.161-17.64-19.161-29.79 0-6.93 2.249-13.32 7.197-20.07 2.338-3.24 2.249-7.74-.27-10.89-4.498-5.67-6.927-12.69-6.927-19.8 0-12.78 7.466-24.12 19.431-29.52 4.048-1.89 6.207-6.39 4.948-10.71-1.26-4.41-2.43-9-2.43-13.32 0-17.82 15.384-32.85 33.556-32.85 10.435 0 22.67 6.3 29.146 14.94 1.71 2.25 4.408 3.6 7.197 3.6 2.789 0 5.487-1.35 7.197-3.6 7.916-10.44 15.113-14.94 24.379-14.94 18.081 0 32.835 14.76 32.835 32.85 0 3.96-.63 7.83-1.62 10.89-.72 2.25-.54 4.77.54 6.93s3.059 3.78 5.308 4.5c13.404 4.32 23.21 17.46 23.21 31.23 0 6.93-2.25 13.32-7.198 20.07a8.914 8.914 0 0 0 0 10.62zm-11.964 231.3h-63.691V342l12.054 12.06c1.8 1.8 4.049 2.61 6.387 2.61 2.34 0 4.588-.9 6.388-2.61a8.966 8.966 0 0 0 0-12.69l-27.438-27.45-.09-.09c-.18-.18-.36-.36-.63-.54-.09-.09-.27-.18-.36-.27-.09-.09-.27-.18-.36-.27-.09-.09-.27-.18-.45-.27-.089-.09-.269-.18-.359-.18-.18-.09-.27-.18-.45-.18-.09-.09-.27-.09-.36-.18-.18-.09-.27-.09-.45-.18s-.27-.09-.45-.18c-.18 0-.269-.09-.449-.09s-.27-.09-.45-.09-.36-.09-.54-.09c-.09 0-.27 0-.36-.09a6.027 6.027 0 0 0-1.799 0c-.09 0-.27 0-.36.09-.18 0-.36 0-.54.09-.179 0-.269.09-.449.09s-.27.09-.45.09-.27.09-.45.18-.27.09-.45.18c-.09.09-.27.09-.36.18-.179.09-.269.09-.449.18-.09.09-.27.09-.36.18-.18.09-.27.18-.45.27-.09.09-.27.18-.36.27-.09.09-.27.18-.36.27-.18.18-.359.36-.629.54l-.09.09-27.437 27.45a8.966 8.966 0 0 0 0 12.69 8.956 8.956 0 0 0 12.684 0L137.214 342v70.2c0 4.95 4.049 9 8.996 9h72.687c4.948 0 8.996-4.05 8.996-9s-3.328-9-8.366-9zM476 324.36c0-19.26-10.975-36.54-27.977-45.18.45-2.7.63-5.49.63-8.28 0-13.68-5.308-26.46-14.844-36-9.535-9.63-22.31-14.85-35.983-14.85-14.574 0-24.74 6.75-31.936 14.04-9.985-8.64-23.39-14.04-35.983-14.04-28.427 0-51.547 22.77-51.547 50.85 0 3.87.54 7.38 1.26 10.62-14.304 9.36-23.21 25.47-23.21 42.93 0 8.37 2.519 17.19 7.107 25.2-4.588 7.56-7.107 16.38-7.107 24.84 0 17.28 8.546 32.85 22.67 42.21-.54 2.7-.72 5.58-.72 8.55 0 13.41 5.398 26.1 15.203 35.82 9.806 9.72 22.76 15.03 36.344 15.03 12.594 0 25.998-5.4 35.983-14.04 7.287 7.29 17.452 14.04 31.936 14.04 28.067 0 50.826-22.77 50.736-50.94 0-1.8 0-3.6-.09-5.49C465.026 411.12 476 393.48 476 374.4c0-8.46-2.519-17.28-7.107-24.84 4.588-8.01 7.107-16.83 7.107-25.2zm-24.739 30.96c4.408 5.49 6.927 12.51 6.927 19.08 0 14.13-9.266 27-22.58 31.23-2.339.81-4.318 2.52-5.397 4.77a9.5 9.5 0 0 0-.18 7.2c.72 1.71.72 3.96.72 7.65 0 18.09-14.754 32.85-32.835 32.85-9.266 0-16.553-4.5-24.38-14.94-1.709-2.25-4.407-3.6-7.196-3.6-2.879 0-5.577 1.35-7.197 3.51-6.477 8.64-18.711 14.94-29.146 14.94-18.172 0-33.555-15.03-33.555-32.85 0-3.69.54-6.84 1.62-10.17 1.438-4.32-.54-9-4.679-10.98-11.694-5.58-18.891-16.92-18.891-29.61 0-6.57 2.519-13.59 6.927-19.08 2.518-3.15 2.608-7.65.27-10.89-4.678-6.39-7.197-13.5-7.197-20.07 0-13.05 7.646-24.84 19.431-30.24 4.048-1.89 6.207-6.39 4.948-10.71-1.35-4.5-2.43-8.37-2.43-12.6 0-18.09 15.114-32.85 33.556-32.85 10.435 0 22.67 6.3 29.146 14.94 1.71 2.25 4.408 3.6 7.197 3.6 2.789 0 5.487-1.35 7.197-3.6 7.916-10.44 15.113-14.94 24.379-14.94 18.441 0 32.835 14.4 32.835 32.85 0 3.96-.63 7.83-1.62 10.89-.72 2.25-.54 4.77.54 6.93s3.059 3.78 5.308 4.5c13.853 4.5 23.21 17.01 23.21 31.23 0 6.57-2.52 13.68-7.198 20.07-2.339 3.24-2.249 7.74.27 10.89zM293.653 109.8h63.691V171l-12.054-12.06a8.956 8.956 0 0 0-12.685 0 8.966 8.966 0 0 0 0 12.69l27.438 27.45.09.09c.18.18.36.36.63.54.09.09.27.18.36.27.09.09.27.18.36.27.09.09.269.18.359.27.09.09.27.18.36.18.18.09.27.09.45.18.09.09.27.09.36.18.09.09.27.09.45.18s.27.09.45.18c.179 0 .269.09.449.09s.27.09.45.09.36.09.45.09c.09 0 .27 0 .36.09h1.799c.09 0 .27 0 .36-.09.18 0 .36 0 .45-.09.179 0 .269-.09.449-.09s.27-.09.45-.09.27-.09.45-.18.27-.09.45-.18c.09-.09.27-.09.36-.18.179-.09.269-.09.449-.18.09-.09.27-.18.36-.18.18-.09.27-.18.36-.27.09-.09.27-.18.36-.27.09-.09.27-.18.36-.27.18-.18.36-.36.629-.54l.09-.09 27.437-27.45c3.149-3.51 3.149-9.18-.36-12.69a8.956 8.956 0 0 0-12.684 0L375.336 171v-70.2c0-4.95-4.048-9-8.996-9h-72.687c-4.948 0-8.996 4.05-8.996 9s4.048 9 8.996 9z" fill-rule="evenodd"/></svg>