<svg width="512" height="512" xmlns="http://www.w3.org/2000/svg"><g fill="#020400"><path d="M49.583 254.435c.876 1.531 1 3.225 1.346 4.86 3.399 16.075 8.037 31.783 14.413 46.927 8.745 20.764 20.296 39.771 35.704 56.322 16.399 17.61 35.819 30.728 58.172 39.515 2.449.963 4.945 1.803 7.397 2.764 1.2.47 1.738.272 1.726-1.13-.038-4.523-.044-9.047.006-13.57.012-1.17-.508-1.674-1.552-1.972-1.626-.464-3.192-1.177-4.842-1.52-1.865-.387-2.342-1.39-2.298-3.181.094-3.767.026-7.54-.089-11.306-.038-1.2.372-1.694 1.49-1.922 2.886-.585 5.745-1.315 8.64-1.848 1.525-.28 2.074-1.014 2.106-2.54.221-11.364.502-22.73.761-34.094.248-10.86.493-21.72.744-32.579.233-10.043.469-20.09.723-30.133.047-1.818.068-3.651.292-5.452.77-6.158-1.316-11.767-3.205-17.42-.79-2.374-.66-2.58 1.821-2.631 2.953-.062 2.962-.065 2.092-2.815-.891-2.814-1.7-5.659-2.735-8.42-.838-2.235-1.027-4.494-.998-6.839.018-1.298.34-2.072 1.797-1.933 1.608.15 2.06-.7 1.989-2.176-.342-6.954-.035-13.929-.714-20.88-.693-7.125 2.853-12.222 8.19-16.37.543-.423 1.13-.798 1.65-1.248.897-.777.959-1.646-.05-2.335-1.723-1.171-1.723-2.57-.806-4.237.756-1.375 1.422-2.797 2.113-4.207.487-.997 1.053-1.065 1.555-.074a130.831 130.831 0 0 1 2.593 5.434c.484 1.067.05 1.94-.743 2.696-1.676 1.6-1.632 2.014.292 3.392 3.582 2.563 6.538 5.623 8.134 9.863.912 2.421 1.116 4.884.865 7.412-.7 7.072-.605 14.168-.688 21.257-.014 1.366.782 1.591 1.83 1.46 1.625-.2 1.9.56 1.994 2.053.198 3.125-.855 5.934-1.755 8.799a269.39 269.39 0 0 1-2.482 7.512c-.386 1.12-.177 1.709 1.104 1.635.062-.003.127 0 .189.003 3.818.201 3.812.198 2.661 3.8a519.52 519.52 0 0 0-2.37 7.547c-.914 3.028-.303 6.112-.283 9.175.006.816.121 1.629.142 2.442.304 12.807.537 25.618.918 38.423.295 9.981.519 19.963.767 29.944.23 9.29.578 18.58.702 27.872.033 2.545.07 2.545 2.5 2.548 1.944.003 3.888-.044 5.83.012 1.22.036 1.649-.476 1.66-1.673.027-3.146-.215-6.159-1.298-9.225-2.59-7.338-3.26-14.839-.212-22.278 1.735-4.236 4.998-7.344 8.193-10.44 8.259-7.997 16.845-15.613 26.422-22.023 4.541-3.039 9.17-5.907 14.44-7.571 1.581-.5 2.056-3.986.832-5.712-.325-.462-.714-.876-1.071-1.313-1.104-1.351-1.34-2.93-.041-4.077 3.862-3.412 3.847-7.918 3.885-12.465.006-.742.065-1.487.121-2.693.644 1.253.703 2.16.723 3.071.039 1.822.127 3.634.42 5.44.3 1.842.793 3.528 2.248 4.837.596.536 1.018 1.269 1.498 1.928.983 1.348.915 2.643-.123 3.962-.647.822-1.502 1.52-1.676 2.667-.478 3.154-.201 3.69 2.773 4.816 8.028 3.042 14.874 8.048 21.554 13.254 7.178 5.594 13.737 11.903 20.3 18.213 7.405 7.122 8.848 15.693 7.063 25.255-.357 1.907-.756 3.867-1.54 5.617-1.26 2.815-1.29 5.706-1.263 8.666.011 1.324.566 1.744 1.823 1.741 10.094-.03 20.19-.03 30.284-.006 1.177.003 1.998-.526 2.806-1.283 7.223-6.768 13.351-14.47 19.146-22.458 9.214-12.701 16.989-26.234 23.09-40.697 7.079-16.779 11.679-34.163 12.682-52.455.941-17.184-1.68-33.758-7.438-49.937-4.497-12.624-9.655-24.941-15.995-36.744-9.244-17.204-20.515-32.91-34.663-46.424-17.738-16.947-38.377-29.11-61.488-37.19-19.4-6.78-39.42-10.588-59.792-12.767-2.426-.26-4.851-.556-7.273-.848-.089-.012-.157-.169-.52-.58 21.625-4.18 43.13-5.047 64.735-2.28 51.309 6.573 94.578 28.966 129.193 67.443 71.745 79.753 69.004 197.208 3.992 273.505-68.51 80.407-182.161 95.042-266.705 42.714-43.796-27.11-73.603-65.51-89.453-114.58-8.002-24.767-10.917-50.252-8.97-76.246z"/><path d="M80.751 56.874c5.775 2.118 11.397 4.183 17.019 6.242 8.637 3.164 17.283 6.3 25.905 9.506 1.337.496 2.132.233 3.013-.904 8.981-11.591 18.013-23.141 27.042-34.697.327-.42.604-1.208 1.207-.98.719.274.357 1.107.336 1.683-.498 14.672-.995 29.342-1.56 44.01-.054 1.365.32 1.998 1.613 2.464 13.826 5.004 27.631 10.067 41.44 15.127.482.178 1.295.154 1.23.893-.05.57-.768.528-1.234.661-14.011 4.023-28.014 8.076-42.049 12.02-1.784.502-2.326 1.323-2.373 3.13-.336 12.856-.777 25.712-1.202 38.565-.058 1.754-.191 3.506-.309 5.258-.026.41.136.99-.415 1.128-.524.133-.707-.425-.94-.765a4589.456 4589.456 0 0 1-9.464-14.031c-5.133-7.651-10.286-15.29-15.351-22.985-.907-1.38-1.903-1.078-3.075-.741-11.847 3.397-23.694 6.788-35.544 10.182-2.164.62-4.329 1.25-6.49 1.876-.474.138-1.078.493-1.405.062-.447-.585.254-1.02.563-1.418a8874.91 8874.91 0 0 1 17.218-22.099c3.357-4.298 6.703-8.598 10.098-12.867.76-.954.689-1.675.018-2.667-8.208-12.156-16.37-24.34-24.534-36.523-.368-.543-.95-1.028-.757-2.13z"/></g></svg>