<svg width="512" height="512" xmlns="http://www.w3.org/2000/svg"><path d="M195.518 321.406c-2.13-1.643-18.993-14.408-65.79-17.511-2.572-.213-5.175-2.04-7.457-3.576-2.907-1.932-5.936-3.97-8.142-6.588-3.577-4.275-7.625-7.865-11.034-12.612-22.752-31.707-45.047-38.082-48.38-39.344-4.444-2.146-21.444.502-13.271 11.836.517.092 26.024 35.89 27.668 38.751 2.922 5.051 6.24 7.12 9.36 10.665 2.845 3.241 5.995 6.223 8.902 9.403 0 0-16.314-9.646-20.21-13.876-1.735-1.886-2.572-4.61-3.973-6.861-1.598-2.587-3.317-5.128-5.052-7.623-2.176-3.119-4.368-6.222-6.681-9.25-2.953-3.85-6.012-7.607-9.055-11.38-1.888-2.358-4.033-4.625-5.586-7.075-7.716-12.171 1.096-19.459 9.482-20.387-.411-1.4-4.262-38.234-4.931-44.41-1.918-17.756-3.82-30.9-14.002-34.491-2.617-.928-4.474-.609-6.437 1.445-2.313 2.434-3.698 15.32-4.353 23.476 0 0-4.443 43.74-3.378 64.158.578 10.955 34.592 86.265 44.362 97.904 9.77 11.64 86.23 55.7 86.23 55.7 2.557 2.13 16.71 13.023 16.71 27.31v31.021l82.425.092.076-28.466c.198-5.264 1.08-10.483 1.72-15.732 1.796-5.98.365-17.298-.472-21.68-9.573-42.722-44.835-67.947-48.685-70.93l-.046.031zm300.936-139.378c-.67-8.155-2.04-21.041-4.353-23.475-1.948-2.07-3.82-2.374-6.437-1.446-10.166 3.576-12.084 16.736-14.001 34.49-.685 6.178-4.536 43.012-4.946 44.411 8.37.913 17.197 8.2 9.48 20.388-1.551 2.464-3.697 4.731-5.584 7.074-3.044 3.773-6.118 7.531-9.07 11.38-2.314 3.013-4.506 6.132-6.682 9.25-1.735 2.511-3.454 5.022-5.052 7.623-1.385 2.252-2.222 4.96-3.973 6.862-3.91 4.23-20.21 13.875-20.21 13.875 2.907-3.18 6.057-6.162 8.903-9.402 3.105-3.545 6.422-5.614 9.344-10.665 1.66-2.86 27.166-38.66 27.668-38.751 8.172-11.335-8.842-13.967-13.27-11.837-3.334 1.248-25.63 7.622-48.381 39.329-3.394 4.747-7.442 8.353-11.034 12.613-2.207 2.632-5.235 4.655-8.142 6.587-2.283 1.537-4.885 3.348-7.457 3.56-46.798 3.104-63.66 15.87-65.79 17.512-3.851 2.982-39.113 28.208-48.685 70.914-.838 4.397-2.268 15.701-.472 21.68.624 5.25 1.537 10.468 1.72 15.732l.076 28.466 82.424-.091v-31.022c0-14.287 14.154-25.195 16.71-27.31 0 0 76.46-44.045 86.23-55.7 9.77-11.654 43.784-86.95 44.363-97.903 1.08-20.403-3.364-64.16-3.364-64.16l-.015.016zm-190.28 97.311c39.097-36.773 87.645-82.431 94.326-123.069 4.672-28.74.106-52.413-13.606-70.396-13.834-18.15-34.881-28.512-64.36-31.676a77.9 77.9 0 0 0-7.99-.411c-20.85 0-41.897 7.76-58.044 20.874-16.147-13.115-37.195-20.874-58.044-20.874-2.572 0-5.16.137-7.99.41-29.479 3.165-50.526 13.526-64.36 31.677-13.712 17.983-18.278 41.672-13.606 70.396 6.666 40.638 55.214 86.296 94.31 123.069 0 0 19.511 19.565 25.37 24.586 4.399 3.788 13.956 11.41 24.305 11.41s19.906-7.622 24.32-11.41c5.859-5.02 25.354-24.586 25.354-24.586h.015zm-99.318-177.08c-24.913 0-45.184 18.03-45.184 40.182 0 6.724-5.448 12.171-12.175 12.171s-12.175-5.447-12.175-12.171c0-35.587 31.183-64.524 69.534-64.524 6.727 0 12.175 5.446 12.175 12.171s-5.448 12.172-12.175 12.172z" fill-rule="evenodd"/></svg>