<svg width="512" height="512" xmlns="http://www.w3.org/2000/svg"><g fill-rule="evenodd"><path d="M412.346 251.628c-7.552 0-13.401 5.827-13.401 13.422v183.34h-95.032v-74.865c0-7.023-5.849-13.162-12.919-13.162h-68.713c-7.558 0-13.646 6.138-13.646 13.162v74.866h-94.793V271.138c0-7.077-5.843-12.955-13.401-12.955-7.065 0-12.913 5.878-12.913 12.955v190.676c0 7.075 5.848 12.954 12.913 12.954h121.84c7.065 0 12.913-5.879 12.913-12.954v-74.866h42.398v74.866c0 7.075 5.848 12.954 13.402 12.954h121.352c7.066 0 12.913-5.879 12.913-12.954V265.05c0-7.595-5.847-13.423-12.913-13.423z"/><path d="M485.203 262.086l-105.752-106.29V83.324c0-7.544-6.093-13.37-13.646-13.37-7.07 0-12.918 5.826-12.918 13.37v45.887l-87.234-87.82c-2.673-2.706-5.849-4.163-9.015-4.163-3.654 0-6.825 1.509-9.503 4.163L28.073 260.629c-5.255 5.254-5.603 13.683 0 18.521 4.871 5.619 13.262 5.255 18.517 0L256.638 69.433l209.56 211.694c2.182 2.186 5.36 3.434 9.502 3.434 3.655 0 6.82-1.248 9.503-3.434 4.876-4.89 5.24-13.734 0-19.041z"/></g></svg>