<svg width="512" height="512" xmlns="http://www.w3.org/2000/svg"><g fill="#444" fill-rule="evenodd"><path d="M256 477c-121.868 0-221-99.146-221-221S134.146 35 256 35s221 99.146 221 221-99.146 221-221 221zm0-415.273c-107.116 0-194.273 87.143-194.273 194.26 0 107.115 87.157 194.258 194.273 194.258s194.273-87.143 194.273-194.259c0-107.116-87.157-194.259-194.273-194.259z"/><path d="M165.652 169.354h63.966v63.966h-63.966zm113.622 0h63.966v63.966h-63.966zM168.76 278.68h63.966v63.966H168.76zm113.622 0h63.966v63.966h-63.966z"/></g></svg>