<svg width="512" height="512" xmlns="http://www.w3.org/2000/svg"><g fill="#010002"><path d="M280.474 116.292c7.158 6.569 11.93 11.944 14.315 16.125l2.685 3.583 3.579-1.792c6.56-3.583 14.315-10.451 23.263-20.604 6.56-7.167 11.631-11.944 15.21-14.333L344 96.583 341.316 93c-10.14-16.723-23.561-30.458-40.263-41.208L297.473 50l-1.789 2.687c-10.737 12.542-22.07 23.89-34 34.042L259 89.417l1.79 2.687c2.983 7.167 9.545 15.23 19.684 24.188z"/><path d="M255.395 160.537C282.25 177.512 310.298 186 339.54 186c35.21 0 61.468-13.402 78.775-40.205l2.685-2.68-2.685-2.68c-2.388-1.787-5.371-5.064-8.952-9.828-11.34-12.509-20.888-21.146-28.645-25.91l-4.476-1.787-1.79 4.467c-11.34 23.825-32.226 35.738-62.662 35.738-17.903 0-36.254-4.467-55.052-13.402-18.798-8.934-33.27-19.656-43.415-32.164L199 77l6.266 24.123c6.564 22.634 23.274 42.438 50.13 59.414zm-4.118 138.658c-6.852-8.034-16.532-18.597-29.043-31.69l-1.787-2.678c14.894-28.565 15.191-57.726.893-87.481-13.701-30.351-35.447-48.502-65.234-54.453-5.361-.596-11.02-.893-16.978-.893-10.128 0-20.256 2.083-30.383 6.249-10.128 4.166-18.022 8.48-23.681 12.943-5.66 4.464-13.255 10.862-22.787 19.193-10.128 8.927-17.873 15.175-23.234 18.746l-5.362 4.463 6.255 3.57c.596.596 3.872 5.06 9.83 13.391 13.702 19.639 24.128 29.458 31.277 29.458 1.787 0 8.042-5.653 18.766-16.96 8.34-9.523 12.808-14.58 13.404-15.176 20.85-16.664 38.128-24.995 51.83-24.995 2.383 0 5.064.297 8.042.893 8.936 1.785 14.596 5.951 16.979 12.497 1.787 7.142 1.043 15.325-2.234 24.549s-7.596 16.514-12.958 21.87c-2.978 2.976-8.042 6.845-15.191 11.605-10.128 7.737-17.276 14.878-21.447 21.424l-2.68 2.678 3.574 2.678 11.617 11.605c13.702 13.687 24.127 23.506 31.276 29.458l3.575 3.57 2.68-3.57c8.937-10.712 16.086-19.639 21.447-26.78 1.192 1.785 3.277 4.463 6.256 8.034 4.17 5.951 7.298 10.712 9.383 14.282 2.085 3.571 4.765 8.332 8.042 14.283 3.277 5.952 5.362 11.308 6.256 16.068.893 4.76 1.34 10.415 1.34 16.96 0 6.547-1.191 13.094-3.574 19.64-4.171 11.902-12.809 21.424-25.915 28.565-13.107 7.141-28 10.117-44.681 8.927-38.128-2.38-72.98-35.707-104.553-99.98-1.788-2.975-3.575-7.438-5.362-13.39-5.362-14.282-11.021-23.506-16.979-27.672L31 264.827l1.787 10.712C37.553 304.7 46.49 332.67 59.596 359.45c13.106 26.78 28.893 49.394 47.361 67.843 11.32 10.712 25.469 19.342 42.447 25.888 16.979 6.546 33.808 9.819 50.49 9.819 22.638 0 42-6.398 58.085-19.192 16.085-12.795 24.425-32.286 25.021-58.47 0-17.258-3.574-33.922-10.723-49.99-7.15-16.068-14.149-28.119-21-36.153z"/><path d="M471.28 214.545c-5.36-9.554-15.932-17.465-31.716-23.735-15.783-6.27-28.737-8.21-38.862-5.822-20.25 4.18-43.776 17.317-70.577 39.41-8.338 6.568-14.89 11.494-19.654 14.778-4.765 3.285-10.721 6.42-17.868 9.405-7.147 2.985-13.997 4.478-20.548 4.478-7.147 0-14.294-1.194-21.441-3.582L239 245.894l6.254 10.748c14.294 23.885 31.566 35.827 51.816 35.827 13.698 0 30.672-6.27 50.923-18.81l3.573 11.644c4.766 13.734 15.338 27.616 31.715 41.649C399.661 340.984 415.592 348 431.077 348h2.68c14.89-.597 26.802-8.658 35.736-24.183C477.83 308.889 482 289.931 482 266.942c0-22.989-3.574-40.455-10.72-52.397zm-26.802 52.845c-4.764 8.36-11.912 15.376-21.441 21.048-9.53 5.672-19.357 8.509-29.482 8.509-13.698 0-25.015-5.374-33.948-16.122l-8.04-8.957c4.169-2.985 10.72-7.463 19.654-13.435 33.948-22.69 58.07-32.841 72.364-30.452 7.743 13.136 8.04 26.272.893 39.409z"/></g></svg>