<svg width="512" height="512" xmlns="http://www.w3.org/2000/svg"><path d="M183.636 484.664V437.2H483.84v47.464H183.636zm287.975-40.472H261.756v33.465H471.61v-33.465zm-287.975-160.65H483.84v47.448H183.636v-47.45zm231.656 40.456h56.304v-33.45h-56.304v33.45zM183.636 129.882H483.84v47.449H183.636v-47.449zm150.102 40.472H471.61v-33.465H333.738v33.465zM27.122 469.062c0-17.633 20.442-41.404 47.968-48.35-11.526-7.694-19.465-22.9-19.465-36.564 0-19.312 15.755-34.96 35.174-34.96 19.42 0 35.16 15.633 35.16 34.96 0 13.664-7.954 28.87-19.465 36.564 27.525 6.962 47.922 30.717 47.937 48.35 0 20.808-127.309 20.808-127.309 0zm66.486-38.213h.138l5.832-6.64c-2.825 1.022-5.74 1.602-8.81 1.602-3.068 0-5.984-.626-8.808-1.603l5.817 6.641h.168l-15.008 36.09 17.832 17.71 17.847-17.71-15.008-36.09zM27.122 315.403c0-17.649 20.442-41.419 47.968-48.365-11.526-7.68-19.465-22.9-19.465-36.564 0-19.312 15.755-34.96 35.174-34.96 19.42 0 35.16 15.648 35.16 34.96 0 13.664-7.954 28.885-19.465 36.564 27.525 6.946 47.922 30.747 47.937 48.365 0 20.793-127.309 20.793-127.309 0zm66.486-38.228h.138l5.832-6.626c-2.825.992-5.74 1.618-8.81 1.618-3.068 0-5.984-.626-8.808-1.618l5.817 6.626h.168L72.937 313.28l17.832 17.694 17.847-17.694-15.008-36.106zM27.122 161.728c0-17.633 20.442-41.403 47.968-48.364-11.526-7.68-19.465-22.9-19.465-36.549 0-19.312 15.755-34.976 35.174-34.976 19.42 0 35.16 15.664 35.16 34.976 0 13.664-7.954 28.885-19.465 36.549 27.525 6.961 47.922 30.747 47.937 48.364 0 20.809-127.309 20.809-127.309 0zm66.486-38.197h.138l5.832-6.64c-2.825 1.007-5.74 1.617-8.81 1.617-3.068 0-5.984-.626-8.808-1.618l5.817 6.641h.168l-15.008 36.106 17.832 17.679 17.847-17.68-15.008-36.105z" fill="#444" fill-rule="evenodd"/></svg>