<svg width="512" height="512" xmlns="http://www.w3.org/2000/svg"><g fill-rule="evenodd"><path d="M160.95 352.05h-73.5C58.785 352.05 36 374.835 36 403.5V477h14.7v-73.5c0-20.58 16.17-36.75 36.75-36.75h9.555l20.58 54.39c.735 2.205 3.675 4.41 6.615 4.41 2.94 0 5.88-2.205 8.085-4.41l20.58-54.39h8.085c20.58 0 36.75 16.17 36.75 36.75V477h14.7v-73.5c0-28.665-22.785-51.45-51.45-51.45zm-36.015 45.57l-11.76-30.87h23.52l-11.76 30.87z"/><path d="M116.85 432.9h14.7v14.7h-14.7zm0 29.4h14.7V477h-14.7zM80.1 285.9v22.05c0 20.58 16.17 36.75 36.75 36.75h14.7c20.58 0 36.75-16.17 36.75-36.75V285.9c0-20.58-16.17-36.75-36.75-36.75h-14.7c-20.58 0-36.75 16.17-36.75 36.75zm14.7 0c0-12.495 9.555-22.05 22.05-22.05h14.7c12.495 0 22.05 9.555 22.05 22.05v22.05c0 12.495-9.555 22.05-22.05 22.05h-14.7c-12.495 0-22.05-9.555-22.05-22.05V285.9zM72.75 425.55h14.7V477h-14.7zm88.2 0h14.7V477h-14.7zm132.3-73.5h-73.5v14.7h9.555l20.58 54.39c.735 2.205 3.675 4.41 6.615 4.41 2.94 0 5.88-2.205 8.085-4.41l20.58-54.39h8.085c20.58 0 36.75 16.17 36.75 36.75V477h14.7v-73.5c0-28.665-22.785-51.45-51.45-51.45zm-36.015 45.57l-11.76-30.87h23.52l-11.76 30.87zm-8.085 35.28h14.7v14.7h-14.7zm0 29.4h14.7V477h-14.7zm0-117.6h14.7c20.58 0 36.75-16.17 36.75-36.75V285.9c0-20.58-16.17-36.75-36.75-36.75h-14.7c-20.58 0-36.75 16.17-36.75 36.75v22.05c0 20.58 16.17 36.75 36.75 36.75zm-22.05-58.8c0-12.495 9.555-22.05 22.05-22.05h14.7c12.495 0 22.05 9.555 22.05 22.05v22.05c0 12.495-9.555 22.05-22.05 22.05h-14.7c-12.495 0-22.05-9.555-22.05-22.05V285.9z"/><path d="M293.25 425.55h14.7V477h-14.7zm132.3-73.5h-73.5v14.7h9.555l20.58 54.39c.735 2.205 3.675 4.41 6.615 4.41 2.94 0 5.88-2.205 8.085-4.41l20.58-54.39h8.085c20.58 0 36.75 16.17 36.75 36.75V477H477v-73.5c0-28.665-22.785-51.45-51.45-51.45zm-36.015 45.57l-11.76-30.87h23.52l-11.76 30.87zm-8.085 35.28h14.7v14.7h-14.7zm0 29.4h14.7V477h-14.7zm0-117.6h14.7c20.58 0 36.75-16.17 36.75-36.75V285.9c0-20.58-16.17-36.75-36.75-36.75h-14.7c-20.58 0-36.75 16.17-36.75 36.75v22.05c0 20.58 16.17 36.75 36.75 36.75zm-22.05-58.8c0-12.495 9.555-22.05 22.05-22.05h14.7c12.495 0 22.05 9.555 22.05 22.05v22.05c0 12.495-9.555 22.05-22.05 22.05h-14.7c-12.495 0-22.05-9.555-22.05-22.05V285.9z"/><path d="M425.55 425.55h14.7V477h-14.7zM462.3 36v36.75H50.7V36H36v44.1c0 4.41 2.94 7.35 7.35 7.35h176.4v36.75H168.3c-4.41 0-7.35 2.94-7.35 7.35v80.85c0 4.41 2.94 7.35 7.35 7.35h36.75c4.41 0 7.35-2.94 7.35-7.35V183h29.4v29.4c0 4.41 2.94 7.35 7.35 7.35h36.75c4.41 0 7.35-2.94 7.35-7.35v-80.85c0-4.41-2.94-7.35-7.35-7.35h-51.45V87.45h235.2c4.41 0 7.35-2.94 7.35-7.35V36h-14.7zM278.55 205.05H256.5V183h7.35v-14.7h-73.5V183h7.35v22.05h-22.05V138.9h102.9v66.15z"/><path d="M80.1 36h22.05v14.7H80.1zm36.75 0h22.05v14.7h-22.05zm36.75 0h22.05v14.7H153.6zm36.75 0h22.05v14.7h-22.05zm36.75 0h22.05v14.7H227.1zm36.75 0h22.05v14.7h-22.05zm36.75 0h22.05v14.7H300.6zm36.75 0h22.05v14.7h-22.05zm36.75 0h22.05v14.7H374.1zm36.75 0h22.05v14.7h-22.05zm-56.595 112.455l-22.05 22.05c-2.94 2.94-2.94 7.35 0 10.29l22.05 22.05 10.29-10.29L354.99 183h48.51v-14.7h-48.51l9.555-9.555-10.29-10.29zm-271.95 44.1l10.29 10.29 22.05-22.05c2.94-2.94 2.94-7.35 0-10.29l-22.05-22.05-10.29 10.29 9.555 9.555H36V183h55.86l-9.555 9.555z"/></g></svg>