<svg width="512" height="512" xmlns="http://www.w3.org/2000/svg"><g fill-rule="evenodd"><path d="M281.965 322.377c-10.868 11.566-17.936 16.399-22.783 16.399-3.366 0-4.512-2.99-3.772-9.722 2.263-17.517 15.31-73.84 19.012-93.968 3.73-17.21 2.626-26.15-2.235-26.15-9.29 0-32.072 15.296-46.991 30.564-.768 1.173-2.235 7.487-1.467 9.708 0 .769 1.104 1.146 1.104 1.146 8.968-7.096 16.05-11.217 20.17-11.217 1.845 0 2.571 2.975 1.467 8.213-4.47 22.378-11.929 57.105-17.53 85.797-5.225 25.032-1.9 35.089 5.95 35.089s29.474-10.463 47.061-33.972c.712-1.83 1.439-8.898 1.09-10.784 0-.726-1.09-1.117-1.09-1.117l.014.014zM278.57 144.75c-6.37 0-14.192 2.975-17.907 6.719-1.467 1.872-2.976 7.46-3.367 10.435.391 6.733 2.25 10.462 5.993 12.711 1.844 1.467 14.164.363 16.776-1.145 4.526-2.962 8.577-8.954 9.345-16.036.322-3.339-.377-7.85-1.871-10.072-.755-1.117-3.744-2.612-8.968-2.612z"/><path d="M256.5 33C133.058 33 33 133.058 33 256.5S133.058 480 256.5 480 480 379.942 480 256.5 379.942 33 256.5 33zm0 412.078c-104.151 0-188.578-84.427-188.578-188.578S152.349 67.922 256.5 67.922 445.078 152.349 445.078 256.5 360.651 445.078 256.5 445.078z"/></g></svg>