<svg width="512" height="512" xmlns="http://www.w3.org/2000/svg"><path d="M175.717 86.8l105.881 61.1a6.152 6.152 0 0 0 8.364-2.242l3.054-5.292c1.693-2.907.68-6.653-2.229-8.345l-105.895-61.1c-2.924-1.692-6.671-.68-8.35 2.227l-3.053 5.293a6.118 6.118 0 0 0 2.228 8.359zm-91.7 158.744l105.896 61.115c2.923 1.677 6.67.68 8.35-2.227l3.053-5.279c1.693-2.907.694-6.667-2.229-8.344l-105.896-61.1a6.119 6.119 0 0 0-8.35 2.227l-3.052 5.293c-1.708 2.878-.71 6.623 2.228 8.315zM457.43 320.21L245.495 210.431l28.493-49.314c1.679-2.907.68-6.667-2.214-8.344L176.44 97.776c-2.909-1.677-6.671-.665-8.35 2.242l-67.26 116.415c-1.663 2.907-.665 6.667 2.244 8.345l95.318 54.982c2.908 1.692 6.67.68 8.335-2.227l28.507-49.314 201.083 128.549c2.836 1.808 6.526.911 8.205-2.01l15.295-26.465c1.664-2.878.594-6.522-2.387-8.084zm33.428 15.459l-10.578-6.103c-2.894-1.692-6.671-.68-8.35 2.227l-18.363 31.743c-1.664 2.907-.666 6.667 2.243 8.33l10.578 6.103c2.908 1.692 6.656.694 8.35-2.227l18.348-31.744c1.693-2.906.695-6.666-2.228-8.33zM262.049 373.34H249.3c1.606-1.792 2.677-4.106 2.677-6.71v-10.064c0-5.54-4.53-10.08-10.071-10.08H40.244c-5.557 0-10.086 4.54-10.086 10.08v10.065c0 2.603 1.07 4.917 2.691 6.71H20.086c-5.571 0-10.086 4.555-10.086 10.094v40.304c0 5.54 4.53 10.08 10.086 10.08h241.992c5.57 0 10.071-4.54 10.071-10.08v-40.333c0-5.51-4.53-10.065-10.1-10.065zm-14.34 46.582H35.351c-5.831 0-10.606-4.773-10.606-10.586V398.72c.014-5.814 4.775-10.615 10.606-10.586h212.356c5.86 0 10.636 4.772 10.622 10.571l.014 10.63c-.014 5.813-4.775 10.586-10.636 10.586z" fill-rule="evenodd"/></svg>