<svg width="512" height="512" xmlns="http://www.w3.org/2000/svg"><path d="M385.942 36H256.453c-17.653 0-39.246 12.334-48.238 27.541L113.291 224.21c-8.991 15.208-1.963 27.541 15.69 27.541h95.529l-101.596 73.687c-14.304 10.367-11.586 18.768 6.068 18.768h55.952l-63.818 117.205c-8.456 15.51-4.063 19.236 9.815 8.291l163.725-129.195c13.85-10.945 11.16-20.13-6.04-20.528-17.187-.385-31.133-.715-31.133-.715l107.594-98.712c13.013-11.948 9.266-21.312-8.387-20.913l-99.207 2.213L395.689 58.99c12.286-12.705 7.92-22.99-9.72-22.99h-.027z" fill-rule="evenodd"/></svg>