<svg width="512" height="512" xmlns="http://www.w3.org/2000/svg"><path d="M298.483 314.236s-21.216 27.017-48.322 0c-26.291-25.429-45.416 0-45.416 0l-63.33 124.472c-1.835 6.777 2.207 13.745 9.002 15.563h210.337c6.796-1.818 10.837-8.773 9.014-15.563l-71.285-124.472zm96.99 118.103L293.74 261.61v-.318l-.179-100.048h7.026c10.531 0 19.1-8.532 19.1-19.06 0-10.514-8.569-19.045-19.1-19.045H198.65c-10.545 0-19.1 8.531-19.1 19.046 0 10.527 8.555 19.059 19.1 19.059h6.145l-.204 100.074-88.077 171.02c-5.457 20.33 6.643 41.22 27.017 46.661h224.923c20.4-5.442 32.5-26.331 27.017-46.661zM365.05 466.26l-218.127-.241c-13.579-3.637-21.637-17.571-18.003-31.1l88.574-173.117.268-113.259h-19.1c-3.506 0-6.362-2.848-6.362-6.357 0-3.51 2.856-6.345 6.362-6.345H300.6a6.352 6.352 0 0 1 6.35 6.345 6.355 6.355 0 0 1-6.35 6.357h-19.1l.319 112.84L383.04 435.135c3.647 13.566-4.424 27.5-17.99 31.124zM262.12 104.081c0 7.018 5.712 12.714 12.75 12.714s12.75-5.696 12.75-12.714c0-7.018-5.7-12.714-12.75-12.714s-12.75 5.683-12.75 12.714zm12.75-31.786c10.557 0 19.125-8.53 19.125-19.071 0-10.54-8.568-19.071-19.125-19.071s-19.125 8.53-19.125 19.071c0 10.54 8.568 19.071 19.125 19.071zm-51 31.786c7.05 0 12.75-5.696 12.75-12.714 0-7.018-5.7-12.714-12.75-12.714s-12.75 5.696-12.75 12.714c0 7.018 5.7 12.714 12.75 12.714z" fill-rule="evenodd"/></svg>