<svg width="512" height="512" xmlns="http://www.w3.org/2000/svg"><path d="M324.222 244.32L40.039 329.173a24.146 24.146 0 0 1-6.912 1.012c-10.58 0-20.083-7.079-23.114-17.215-3.808-12.74 3.465-26.203 16.214-30.008l284.18-84.857-14.792-49.485 129.36-38.626 43.4 145.184-129.36 38.627-14.793-49.487zm29.087 88.88c1.417 4.742 5.858 8.051 10.798 8.051 1.085 0 2.175-.16 3.237-.476l103.126-30.793a11.221 11.221 0 0 0 6.7-5.447 11.196 11.196 0 0 0 .882-8.58l-5.524-18.484-124.741 37.245 5.522 18.484zm58.434-259.06c-1.416-4.74-5.858-8.05-10.796-8.05-1.087 0-2.176.16-3.239.476L294.584 97.359a11.21 11.21 0 0 0-6.7 5.445 11.197 11.197 0 0 0-.882 8.58l4.467 14.943 124.74-37.246-4.466-14.94zm78.526 348.774h-11.646v-12.4c0-6.224-5.049-11.272-11.279-11.272H300.451c-6.23 0-11.279 5.048-11.279 11.272v12.4h-11.646c-6.23 0-11.278 5.047-11.278 11.272 0 6.224 5.048 11.272 11.278 11.272H490.27c6.23 0 11.278-5.048 11.278-11.272 0-6.225-5.05-11.272-11.278-11.272z" fill-rule="evenodd"/></svg>