<svg width="512" height="512" xmlns="http://www.w3.org/2000/svg"><path d="M223.496 73.827h143.998c6.29 0 11.399-5.121 11.399-11.394v-.236c0-6.287-5.124-11.395-11.4-11.395H223.51c-6.29 0-11.4 5.121-11.4 11.395v.236c-.04 6.287 5.069 11.394 11.4 11.394h-.014zm-11.455 32.296c0 6.287 5.124 11.394 11.4 11.394h193.662c6.29 0 11.4-5.12 11.4-11.394v-.236c0-6.287-5.124-11.394-11.4-11.394H223.441c-6.29 0-11.4 5.12-11.4 11.394v.236zm0 43.649c0 6.287 5.124 11.394 11.4 11.394h193.662c6.29 0 11.4-5.121 11.4-11.394v-.236c0-6.287-5.124-11.395-11.4-11.395H223.441c-6.29 0-11.4 5.122-11.4 11.395v.236zm0 65.702c0 6.287 5.124 11.394 11.4 11.394h143.983c6.29 0 11.4-5.12 11.4-11.394v-.236c0-6.287-5.124-11.394-11.4-11.394H223.482c-6.29 0-11.399 5.12-11.399 11.394l-.042.236zm0 43.69c0 6.287 5.124 11.395 11.4 11.395h104.051c6.29 0 11.4-5.121 11.4-11.395v-.236c0-6.287-5.124-11.394-11.4-11.394H223.496c-6.29 0-11.399 5.121-11.399 11.394l-.042.236h-.014zm0 43.649c0 6.287 5.124 11.395 11.4 11.395h193.662c6.29 0 11.4-5.122 11.4-11.395v-.236c0-6.287-5.124-11.394-11.4-11.394H223.441c-6.29 0-11.4 5.121-11.4 11.394v.236zm0 74.737c0 6.149 4.985 11.076 11.08 11.076h188.026c6.15 0 11.08-4.983 11.08-11.076v-.236c0-6.148-4.985-11.075-11.08-11.075H223.12c-6.15 0-11.08 4.983-11.08 11.075v.236zm0 42.442c0 6.148 4.985 11.075 11.08 11.075h163.075c6.151 0 11.08-4.982 11.08-11.075v-.236c0-6.148-4.984-11.075-11.08-11.075H223.121c-6.15 0-11.08 4.982-11.08 11.075v.236zm0 42.386c0 6.148 4.985 11.075 11.08 11.075h74.436c6.15 0 11.08-4.983 11.08-11.075v-.236c0-6.149-4.985-11.076-11.08-11.076H223.12c-6.15 0-11.08 4.983-11.08 11.076v.236zM84.622 112.77v58.361h92.458v-58.36c0-4.844-4.235-8.8-9.455-8.8H157.1c-1.86 0-3.582.833-4.651 2.235l-15.51 20.333-3.776-7.356 6.012-11.77c.833-1.623-.417-3.483-2.374-3.483h-12.052c-1.902 0-3.166 1.86-2.374 3.484l6.012 11.769-3.721 7.259-14.996-20.194c-1.069-1.444-2.846-2.276-4.707-2.276H93.925c-5.068 0-9.317 3.914-9.317 8.799h.014zm46.236-15.307c15.593 0 28.31-12.7 28.31-28.3 0-15.599-12.704-28.298-28.31-28.298-15.606 0-28.31 12.657-28.31 28.299 0 15.586 12.704 28.299 28.31 28.299zm-46.236 226.71h92.458v-58.36c0-4.844-4.235-8.8-9.455-8.8H157.1c-1.86 0-3.582.833-4.651 2.235l-15.51 20.332-3.776-7.356 6.012-11.769c.833-1.624-.417-3.483-2.374-3.483h-12.052c-1.902 0-3.166 1.86-2.374 3.483l6.012 11.77-3.721 7.258-14.996-20.194c-1.069-1.443-2.846-2.276-4.707-2.276H93.925c-5.22 0-9.455 3.956-9.455 8.8l.138 58.36h.014zm17.925-101.954c0 15.586 12.705 28.299 28.311 28.299s28.31-12.7 28.31-28.299c0-15.6-12.704-28.299-28.31-28.299-15.606 0-28.31 12.658-28.31 28.299zM177.08 426.64c0-4.844-4.235-8.8-9.455-8.8H157.1c-1.86 0-3.582.833-4.651 2.235l-15.51 20.332-3.776-7.355 6.012-11.77c.833-1.623-.417-3.483-2.374-3.483h-12.052c-1.902 0-3.166 1.86-2.374 3.483l6.012 11.77-3.721 7.258-14.996-20.193c-1.069-1.444-2.846-2.276-4.707-2.276H93.925c-5.22 0-9.455 3.955-9.455 8.799V485h92.457l.14-58.36h.013zm-74.533-43.594c0 15.586 12.705 28.3 28.311 28.3s28.31-12.7 28.31-28.3c0-15.6-12.704-28.298-28.31-28.298-15.606 0-28.31 12.657-28.31 28.298z" fill-rule="evenodd"/></svg>