<svg width="512" height="512" xmlns="http://www.w3.org/2000/svg"><g fill-rule="evenodd"><path d="M419.95 142.503c-.026-2-.692-3.975-2.114-5.537l-87.043-96.041c-.026-.027-.051-.036-.07-.06-.518-.56-1.123-1.022-1.762-1.429a9.251 9.251 0 0 0-2.325-1.04c-.166-.046-.312-.111-.476-.152a8.944 8.944 0 0 0-2.032-.244H110.197c-9.76 0-17.705 7.674-17.705 17.102v401.886c0 9.432 7.944 17.102 17.705 17.102H402.33c9.76 0 17.706-7.67 17.706-17.102V143.46c0-.322-.052-.637-.087-.958zM180.748 412.738c0 29.543-14.664 39.856-38.24 39.856-5.576 0-12.907-.922-17.685-2.463l2.713-18.93c3.346 1.077 7.644 1.854 12.425 1.854 10.201 0 16.57-4.468 16.57-20.625v-65.25h24.217v65.558zm87.48-9.385c-8.29 7.54-20.56 10.922-34.893 10.922-3.19 0-6.058-.15-8.29-.46v37.094h-24.06V348.566c7.493-1.235 18.006-2.154 32.823-2.154 14.976 0 25.654 2.768 32.825 8.309 6.85 5.235 11.467 13.844 11.467 24.007.001 10.154-3.5 18.775-9.871 24.625zm115.04 42.778c-7.486 2.463-21.669 5.85-35.855 5.85-19.588 0-33.775-4.772-43.644-14-9.882-8.93-15.301-22.47-15.137-37.71.154-34.47 26.12-54.168 61.331-54.168 13.872 0 24.544 2.613 29.797 5.081l-5.097 18.776c-5.896-2.463-13.223-4.46-25.015-4.46-20.23 0-35.523 11.081-35.523 33.552 0 21.39 13.858 34.01 33.777 34.01 5.576 0 10.036-.62 11.947-1.544v-21.693h-16.573v-18.313h39.992v54.62zm-273.071-117.76V55.102h205.077v87.499c0 4.72 3.97 8.55 8.854 8.55h78.203v177.22H110.197z"/><path d="M235.083 364.107c-4.934 0-8.28.459-10.039.927v30.62c2.077.46 4.628.618 8.129.618 12.906 0 20.878-6.313 20.878-16.926 0-9.545-6.856-15.24-18.968-15.24zm-2.885-133.36c-35.356-34.161-69.642 97.979-69.642 97.979h117.836s-12.82-63.797-48.194-97.98zm85.766 35.256c-25.062 6.191-37.572 62.723-37.572 62.723h84.506c-11.472-28.324-25.53-68.014-46.934-62.723zm-155.399-65.706c12.109 0 21.924-9.473 21.924-21.176 0-11.7-9.814-21.166-21.924-21.166-12.13 0-21.942 9.465-21.942 21.166 0 11.703 9.813 21.176 21.942 21.176zm132.955 13.614c4.427 0 8.568-.44 12.251-1.159 4.288 1.78 9.501 2.844 15.172 2.844 14.485 0 26.242-6.85 26.242-15.29 0-8.449-11.752-15.293-26.242-15.293-5.446 0-10.486.962-14.687 2.613a9.644 9.644 0 0 0-6.592-2.613h-3.8c-4.868 0-8.723 3.561-9.276 8.116-11.766 1.18-20.472 5.28-20.472 10.192-.004 5.853 12.263 10.59 27.405 10.59z"/></g></svg>