<svg width="512" height="512" xmlns="http://www.w3.org/2000/svg"><g fill-rule="evenodd"><path d="M82.356 200.565c4.915 0 9.323-1.066 13.123-3.145 4.105-2.231 7.145-5.579 9.02-9.89 1.672-3.855 2.533-8.826 2.533-15.268V127.73a6.34 6.34 0 0 0-6.334-6.34h-8.614a6.34 6.34 0 0 0-6.333 6.34v45.04c0 4.21-.406 5.732-.558 6.087-.1.304-.253.507-.658.76-.558.356-1.267.508-2.23.508-1.57 0-2.027-.456-2.179-.66 0 0-.962-1.318-1.165-6.289-.05-1.775-.912-3.449-2.28-4.615a6.184 6.184 0 0 0-4.915-1.42l-7.803 1.065c-3.09.405-5.422 3.043-5.472 6.188-.152 8.166 1.874 14.607 6.08 19.121 4.256 4.718 10.235 7.05 17.785 7.05zm48.085-5.376c5.827 3.6 12.465 5.376 19.812 5.376 6.739 0 13.073-1.623 18.9-4.818 6.03-3.297 10.691-8.217 13.934-14.557 3.141-6.087 4.712-13.086 4.712-20.694 0-7.507-1.52-14.354-4.459-20.34-3.09-6.238-7.6-11.209-13.528-14.709-5.827-3.449-12.364-5.224-19.56-5.224-10.944 0-20.115 3.754-27.107 11.159-6.942 7.304-10.489 17.346-10.489 29.824a43.45 43.45 0 0 0 4.358 19.07c3.09 6.29 7.6 11.311 13.427 14.913zm8.462-50.265c3.192-3.043 6.942-4.565 11.4-4.565 3.091 0 5.828.761 8.26 2.283 2.432 1.521 4.205 3.652 5.472 6.492 1.419 3.145 2.128 6.949 2.128 11.31 0 6.747-1.571 11.87-4.611 15.217-3.04 3.297-6.638 4.819-11.4 4.819-4.662 0-8.26-1.522-11.3-4.768-3.142-3.348-4.662-8.014-4.662-14.303.102-7.964 1.622-13.543 4.713-16.485zm112.638-.456c0-4.21-1.165-8.217-3.496-11.97-2.382-3.855-5.726-6.746-9.931-8.572-3.852-1.674-8.614-2.536-14.542-2.536h-24.474a6.34 6.34 0 0 0-6.333 6.34v65.328a6.34 6.34 0 0 0 6.333 6.34h24.879c4.712 0 8.665-.405 12.11-1.268 3.648-.913 6.84-2.383 9.374-4.31 2.685-2.03 4.965-4.82 6.688-8.37 1.722-3.499 2.584-7.304 2.584-11.31 0-5.225-1.52-9.84-4.459-13.746-.861-1.166-1.874-2.232-2.938-3.195.405-.507.76-1.015 1.064-1.573a21.232 21.232 0 0 0 3.141-11.158zm-37.495-2.638h6.739c5.624 0 7.55.456 8.006.608.557.203.81.406 1.013.71.253.406.558 1.066.558 2.334 0 .913-.153 1.572-.456 1.927-.355.457-1.115.76-1.723.964-.354.101-1.925.507-6.384.507h-7.803v-7.05h.05zm18.545 34.795c-.355.608-.659 1.014-1.064 1.268-.456.253-1.267.66-2.787.913-.253.05-1.368.203-4.712.203h-9.932v-9.79h8.716c4.56 0 6.688.508 7.55.761 1.165.406 1.671.964 1.975 1.37.304.456.76 1.217.76 2.739 0 1.065-.152 1.876-.506 2.536zm56.344 65.632c3.851-4.565 8.057-8.775 12.566-12.68h-230.9c-6.993 0-12.668 5.68-12.668 12.68s5.675 12.68 12.668 12.68h209.01c2.838-4.412 5.93-8.672 9.324-12.68zm125.407-121.73H274.038c-6.992 0-12.667 5.68-12.667 12.68s5.675 12.68 12.667 12.68h140.304c6.992 0 12.667-5.68 12.667-12.68 0-6.999-5.675-12.68-12.667-12.68zm12.668 66.394c0-7-5.676-12.68-12.668-12.68H274.038c-6.992 0-12.667 5.68-12.667 12.68s5.675 12.68 12.667 12.68h140.304c6.992 0 12.667-5.68 12.667-12.68zM57.933 299.217c0 7 5.675 12.68 12.668 12.68h191.277c.152-4.311.558-8.521 1.166-12.68a117.1 117.1 0 0 1 2.634-12.68H70.6c-6.993 0-12.668 5.68-12.668 12.68zm259.833 123.962H169.963c-5.472 0-9.931 4.463-9.931 9.941v6.442c0 5.478 4.459 9.941 9.931 9.941h147.752c5.473 0 9.932-4.463 9.932-9.941v-6.442c0-5.478-4.409-9.941-9.881-9.941z"/><path d="M180.604 367.234h12.06l-2.382 43.265h107.216l-.659-12.021c-9.323-8.978-17.126-19.578-23.003-31.244-3.953-7.862-6.993-16.282-9.07-25.056 0-.102-.05-.203-.05-.305H39.945c-2.534 0-4.611-2.08-4.611-4.616V93.29c0-2.536 2.077-4.616 4.61-4.616h407.839c2.533 0 4.61 2.08 4.61 4.616v138.164a115.727 115.727 0 0 1 25.335 33.12V93.29c0-16.535-13.427-29.976-29.945-29.976H39.946C23.427 63.314 10 76.755 10 93.29v243.967c0 16.536 13.427 29.977 29.946 29.977h140.658z"/><path d="M468.812 382.45l-4.51-4.616-3.141-3.196a18.26 18.26 0 0 0-1.47-1.318 103.594 103.594 0 0 0 7.854-13.644c6.283-13.188 9.78-27.947 9.78-43.519 0-25.512-9.425-48.844-24.98-66.698-18.596-21.353-46.008-34.895-76.46-34.895-19.407 0-37.547 5.477-52.95 14.962a103.22 103.22 0 0 0-16.569 12.68 100.269 100.269 0 0 0-11.4 12.68 101.936 101.936 0 0 0-16.164 31.6 96.154 96.154 0 0 0-2.99 12.68 95.214 95.214 0 0 0-1.317 12.68 124.01 124.01 0 0 0-.101 4.311c0 4.717.355 9.384.963 13.949.253 2.028.608 4.007 1.013 5.985.405 1.927.81 3.804 1.318 5.731 0 .102.05.203.1.305 2.332 8.876 5.879 17.296 10.388 25.056 2.28 3.855 4.763 7.608 7.5 11.107 2.026 2.587 4.154 5.123 6.434 7.507 2.027 2.13 4.155 4.21 6.334 6.188 17.937 16.028 41.549 25.766 67.44 25.766 21.181 0 40.84-6.542 57.105-17.65.355.405.71.81 1.115 1.217l3.344 3.397 4.51 4.565 27.31 27.846c3.7 3.804 8.614 5.68 13.529 5.68a18.91 18.91 0 0 0 13.326-5.477c7.5-7.355 7.6-19.426.254-26.882l-27.565-27.997zm-26.5-40.577c-3.75 9.637-9.526 18.26-16.773 25.36-12.819 12.478-30.35 20.238-49.604 20.238-19.255 0-36.786-7.71-49.606-20.237a71.541 71.541 0 0 1-16.771-25.36c-3.092-7.964-4.763-16.637-4.763-25.666 0-1.47.05-2.89.152-4.311a69.602 69.602 0 0 1 1.926-12.68c1.064-4.413 2.584-8.623 4.407-12.68 6.03-13.188 16.012-24.194 28.375-31.6a70.73 70.73 0 0 1 36.33-9.992 70.73 70.73 0 0 1 36.33 9.992c20.876 12.427 34.86 35.251 34.86 61.271-.1 9.029-1.773 17.702-4.864 25.665z"/></g></svg>