<svg width="512" height="512" xmlns="http://www.w3.org/2000/svg"><g fill-rule="evenodd"><path d="M119.09 34.539H32.412C20.605 34.539 11 44.147 11 55.958v86.671c0 11.812 9.605 21.421 21.412 21.421h86.678c11.81 0 21.418-9.609 21.418-21.421V55.958c0-11.811-9.609-21.419-21.418-21.419zM24.951 55.958c0-4.118 3.347-7.467 7.461-7.467h86.678c4.118 0 7.469 3.35 7.469 7.467v86.671c0 4.119-3.351 7.47-7.469 7.47H32.412c-4.114 0-7.461-3.351-7.461-7.47V55.958zm169.707 15.348h299.366A6.983 6.983 0 0 0 501 64.33a6.983 6.983 0 0 0-6.976-6.975H194.658c-3.847 0-6.977 3.129-6.977 6.975a6.985 6.985 0 0 0 6.977 6.976zm0 34.963h236.559c3.847 0 6.977-3.129 6.977-6.976s-3.13-6.975-6.977-6.975H194.658c-3.847 0-6.977 3.129-6.977 6.975 0 3.846 3.13 6.976 6.977 6.976zm299.366 21.015H194.658c-3.847 0-6.977 3.129-6.977 6.976 0 3.846 3.13 6.976 6.977 6.976h299.366A6.983 6.983 0 0 0 501 134.26a6.984 6.984 0 0 0-6.976-6.976zm0 86.775H194.658c-3.847 0-6.977 3.129-6.977 6.976 0 3.846 3.13 6.976 6.977 6.976h299.366a6.983 6.983 0 0 0 6.976-6.976 6.983 6.983 0 0 0-6.976-6.976zm-299.366 48.918h236.559c3.847 0 6.977-3.129 6.977-6.976 0-3.846-3.13-6.976-6.977-6.976H194.658c-3.847 0-6.977 3.129-6.977 6.976.001 3.846 3.13 6.976 6.977 6.976zm299.366 21.014H194.658c-3.847 0-6.977 3.129-6.977 6.976s3.13 6.976 6.977 6.976h299.366a6.983 6.983 0 0 0 6.976-6.976 6.983 6.983 0 0 0-6.976-6.976zm0 86.776H194.658c-3.847 0-6.977 3.129-6.977 6.976 0 3.846 3.13 6.976 6.977 6.976h299.366a6.983 6.983 0 0 0 6.976-6.976 6.983 6.983 0 0 0-6.976-6.976zm-299.366 48.917h236.559c3.847 0 6.977-3.129 6.977-6.976 0-3.846-3.13-6.976-6.977-6.976H194.658c-3.847 0-6.977 3.129-6.977 6.976.001 3.846 3.13 6.976 6.977 6.976zm299.366 21.011H194.658c-3.847 0-6.977 3.129-6.977 6.976s3.13 6.975 6.977 6.975h299.366a6.983 6.983 0 0 0 6.976-6.975 6.984 6.984 0 0 0-6.976-6.976z"/><path d="M39.017 129.001a6.922 6.922 0 0 0 2.04 4.933 6.923 6.923 0 0 0 4.936 2.048c1.86 0 3.61-.724 4.928-2.039l24.83-24.793 24.832 24.792a6.927 6.927 0 0 0 4.928 2.04 6.93 6.93 0 0 0 4.937-2.047 6.931 6.931 0 0 0 2.039-4.934 6.928 6.928 0 0 0-2.047-4.931L85.624 99.293l24.817-24.777c2.721-2.719 2.725-7.144.007-9.865a6.932 6.932 0 0 0-4.938-2.047c-1.86 0-3.61.724-4.927 2.039L75.752 89.436l-24.83-24.793a6.93 6.93 0 0 0-4.929-2.04 6.921 6.921 0 0 0-4.934 2.047 6.923 6.923 0 0 0-2.041 4.935 6.932 6.932 0 0 0 2.047 4.931L65.88 99.293 41.065 124.07a6.929 6.929 0 0 0-2.048 4.931zm0 313.415a6.924 6.924 0 0 0 2.04 4.934 6.923 6.923 0 0 0 4.936 2.048c1.86 0 3.61-.724 4.928-2.039l24.83-24.792 24.832 24.792a6.927 6.927 0 0 0 4.928 2.04 6.93 6.93 0 0 0 4.937-2.047c2.718-2.721 2.714-7.147-.008-9.865L85.624 412.71l24.817-24.777a6.928 6.928 0 0 0 2.046-4.931 6.935 6.935 0 0 0-2.039-4.934 6.928 6.928 0 0 0-4.937-2.047 6.926 6.926 0 0 0-4.927 2.04l-24.833 24.792-24.83-24.792a6.926 6.926 0 0 0-4.929-2.04 6.921 6.921 0 0 0-4.934 2.047 6.922 6.922 0 0 0-2.041 4.934 6.932 6.932 0 0 0 2.047 4.931L65.88 412.71l-24.816 24.777a6.924 6.924 0 0 0-2.047 4.929zm80.073-251.168H32.412c-11.807 0-21.412 9.607-21.412 21.415v86.672c0 11.811 9.605 21.419 21.412 21.419h86.678c11.81 0 21.418-9.608 21.418-21.419v-86.672c0-11.808-9.609-21.415-21.418-21.415zm-94.139 21.415c0-4.116 3.347-7.465 7.461-7.465h86.678c4.118 0 7.469 3.349 7.469 7.465v86.672c0 4.118-3.351 7.469-7.469 7.469H32.412c-4.114 0-7.461-3.351-7.461-7.469v-86.672z"/><path d="M119.09 347.952H32.412C20.605 347.952 11 357.56 11 369.37v86.669c0 11.812 9.605 21.421 21.412 21.421h86.678c11.81 0 21.418-9.609 21.418-21.421V369.37c0-11.81-9.609-21.418-21.418-21.418zM24.951 369.37c0-4.117 3.347-7.467 7.461-7.467h86.678c4.118 0 7.469 3.35 7.469 7.467v86.669c0 4.119-3.351 7.47-7.469 7.47H32.412c-4.114 0-7.461-3.351-7.461-7.47V369.37zm33.575-78.354a6.963 6.963 0 0 0 5.665 2.404 7.015 7.015 0 0 0 5.363-3.017l41.807-60.909a6.925 6.925 0 0 0 1.108-5.224 6.934 6.934 0 0 0-2.911-4.476 6.936 6.936 0 0 0-3.942-1.226 6.977 6.977 0 0 0-5.756 3.029l-36.691 53.454-11.99-13.878a6.978 6.978 0 0 0-9.84-.718c-2.911 2.514-3.233 6.928-.719 9.839l17.906 20.722z"/></g></svg>