<svg width="512" height="512" xmlns="http://www.w3.org/2000/svg"><g fill-rule="evenodd"><path d="M398.031 35H114.97c-24.395 0-44.243 19.807-44.243 44.186v353.642C70.726 457.193 90.56 477 114.97 477h283.06c24.395 0 44.229-19.807 44.229-44.172V79.186C442.274 54.821 422.44 35 398.031 35zm26.551 397.828c0 14.613-11.9 26.52-26.55 26.52H114.968c-14.637 0-26.538-11.893-26.538-26.52V79.186c0-14.613 11.9-26.506 26.538-26.506H398.03c14.623 0 26.538 11.893 26.538 26.506v353.642h.013z"/><path d="M149.564 135.127H336.11a8.12 8.12 0 0 0 8.127-8.122c0-4.489-3.635-8.135-8.127-8.135H149.564c-4.492 0-8.114 3.632-8.114 8.135a8.1 8.1 0 0 0 8.114 8.122zm0 37.017H336.11a8.12 8.12 0 0 0 8.127-8.121 8.12 8.12 0 0 0-8.127-8.122H149.564a8.108 8.108 0 0 0-8.114 8.122 8.108 8.108 0 0 0 8.114 8.121zm0 37.018H336.11a8.123 8.123 0 0 0 8.127-8.136 8.111 8.111 0 0 0-8.127-8.121H149.564a8.108 8.108 0 0 0-8.114 8.121 8.102 8.102 0 0 0 8.114 8.136zm93.28 20.774h-93.267c-4.492 0-8.127 3.646-8.127 8.135a8.12 8.12 0 0 0 8.127 8.122h93.267a8.108 8.108 0 0 0 8.114-8.122 8.111 8.111 0 0 0-8.114-8.135zm-27.974 73.096h-65.293a8.114 8.114 0 0 0-8.127 8.135 8.12 8.12 0 0 0 8.127 8.122h65.293c4.492 0 8.113-3.647 8.113-8.122 0-4.503-3.621-8.135-8.113-8.135zm150.86-52.916l-89.645 97.088-10.034 34.752-6.635 22.957 56.212-21.286 89.618-97.088c10.076-10.898 9.399-27.9-1.52-37.97-10.92-10.042-27.92-9.365-37.995 1.52v.027zM278.159 393.13l-8.514-7.859 9.592-33.164 2.571.373 27.698 25.526.816 2.942-32.149 12.183h-.014zm113.06-97.875l-33.048-30.47 7.81-8.467 33.047 30.484-7.81 8.453z"/></g></svg>