<svg width="512" height="512" xmlns="http://www.w3.org/2000/svg"><path d="M487.05 306.158v171.368h-99.247v-159.89c0-40.167-14.355-67.578-50.279-67.578-27.423 0-43.743 18.473-50.923 36.343-2.618 6.388-3.292 15.28-3.292 24.223v166.902h-99.28s1.337-270.802 0-298.86h99.27v42.363c-.2.316-.462.658-.652.965h.653v-.965c13.189-20.335 36.743-49.384 89.464-49.384 65.319 0 114.285 42.715 114.285 134.513zM80.177 34.601C46.215 34.601 24 56.901 24 86.227c0 28.687 21.572 51.664 54.86 51.664h.664c34.621 0 56.153-22.973 56.153-51.664-.653-29.325-21.532-51.626-55.499-51.626zM29.896 477.526h99.243v-298.86H29.896v298.86z" fill-rule="evenodd"/></svg>