<svg width="512" height="512" xmlns="http://www.w3.org/2000/svg"><path d="M471.337 208.734a29.686 29.686 0 0 1-23.979 12.196h-.621c-13.136 0-24.766-8.426-28.84-20.912-16.368-50.14-56.093-89.781-106.288-106.025-12.238-3.964-20.54-15.387-20.54-28.26v-.663c0-9.586 4.6-18.606 12.35-24.241a29.99 29.99 0 0 1 26.865-4.268c68.8 22.307 123.152 76.77 145.293 145.611 2.915 9.02 1.313 18.896-4.254 26.562h.014zM260.82 416.487c73.427 0 135.707-48.136 157.186-114.491a29.674 29.674 0 0 1 28.246-20.567c9.78 0 18.951 4.682 24.67 12.597a30.467 30.467 0 0 1 4.281 27.362C445.646 411.612 360.81 477 260.821 477 136.3 477 35 375.7 35 251.18c0-100.39 65.9-185.502 156.717-214.744a29.723 29.723 0 0 1 26.616 4.269 29.752 29.752 0 0 1 12.238 24.033c0 13.426-8.633 25.332-21.354 29.518-65.955 21.727-113.69 83.8-113.69 156.91 0 91.162 74.159 165.321 165.307 165.321h-.013z" fill-rule="evenodd"/></svg>