<svg width="512" height="512" xmlns="http://www.w3.org/2000/svg"><path d="M56.02 202.825l366.577 165.397a30.093 30.093 0 0 0 12.385 2.67c11.477 0 22.435-6.575 27.469-17.693 6.86-15.138.12-32.947-15.048-39.794L146.611 177.696 445.787 63.162c15.538-5.942 23.293-23.335 17.344-38.84-5.961-15.5-23.338-23.276-38.918-17.31L57.636 147.342c-11.345 4.345-18.98 15.068-19.33 27.194a30.071 30.071 0 0 0 17.714 28.289zm.05 131.59l374.109 167.907a30.164 30.164 0 0 0 12.343 2.654c11.498 0 22.476-6.6 27.498-17.743 6.827-15.15.053-32.951-15.122-39.765L80.785 279.553c-15.184-6.79-33.01-.054-39.841 15.097-6.828 15.155-.05 32.955 15.126 39.765z" fill-rule="evenodd"/></svg>