<svg width="512" height="512" xmlns="http://www.w3.org/2000/svg"><path d="M447.43 37H287.32c-16.231 0-29.376 13.199-29.376 29.403 0 16.205 13.135 29.413 29.376 29.413h89.207l-86.896 86.741c-26.156-17.932-57.099-27.619-89.513-27.619-42.387 0-82.215 16.472-112.174 46.41-61.866 61.785-61.866 162.325 0 224.129 29.96 29.938 69.796 46.42 112.174 46.42s82.215-16.501 112.183-46.42c29.988-29.929 46.476-69.744 46.476-112.079 0-32.39-9.667-63.273-27.618-89.403l86.839-86.779v89.07c0 16.214 13.221 29.355 29.443 29.355 16.23 0 29.443-13.141 29.443-29.356V66.346C476.893 50.132 463.67 37 447.43 37zM270.753 383.953c-18.858 18.858-43.935 29.222-70.636 29.222-26.682 0-51.76-10.373-70.636-29.222-38.939-38.9-38.939-102.22 0-141.138 18.877-18.849 43.964-29.232 70.636-29.232 26.682 0 51.769 10.383 70.636 29.232 18.887 18.848 29.262 43.91 29.262 70.564.01 26.674-10.385 51.735-29.262 70.574z" fill-rule="evenodd"/></svg>