<svg width="512" height="512" xmlns="http://www.w3.org/2000/svg"><g fill-rule="evenodd"><path d="M429.035 33H82.965c-9.471 0-17.16 7.694-17.16 17.171v411.658c0 9.52 7.689 17.171 17.16 17.171h346.042c9.471 0 17.16-7.652 17.16-17.171V50.171C446.195 40.68 438.478 33 429.035 33zm-17.16 411.658h-311.75V67.356h311.736v377.302h.014z"/><path d="M211.261 141.894h-62.803v62.83h62.79v-62.83h.027-.014zm-7.646 20.864l-27.885 27.903a1.883 1.883 0 0 1-2.689 0l-16.992-17.073a1.988 1.988 0 0 1 0-2.732l4.08-4.014c.725-.767 1.937-.767 2.703 0l11.588 11.638 22.453-22.468a1.933 1.933 0 0 1 2.73 0l4.04 4.056c.752.725.752 1.938-.028 2.69zm20.753-6.718H368v34.551H224.368v-34.55zm-13.107 67.792h-62.803v62.803h62.79v-62.803h.027-.014zm-7.646 20.837l-27.885 27.903a1.883 1.883 0 0 1-2.689 0l-16.992-17.074c-.725-.752-.725-1.965 0-2.704l4.08-4.042c.725-.752 1.937-.752 2.703 0l11.588 11.638 22.453-22.467a1.933 1.933 0 0 1 2.73 0l4.04 4.042a1.878 1.878 0 0 1-.028 2.704zm20.753-6.732H368v34.551H224.368v-34.551zm-75.897 69.618h62.79v62.83h-62.79v-62.83zm75.897 14.16H368v34.524H224.368v-34.524z"/></g></svg>