<svg width="512" height="512" xmlns="http://www.w3.org/2000/svg"><path d="M256.332 34c-86.137 0-155.97 69.866-155.97 156.042 0 6.597.53 13.027 1.336 19.4 13.327 121.89 144.506 262.373 144.506 262.373 2.337 2.617 4.59 4.231 6.76 5.4l.112.055 4.368 1.392 4.369-1.392.111-.055c2.17-1.17 4.425-2.867 6.761-5.4 0 0 129.287-140.734 142.308-262.65.779-6.29 1.308-12.665 1.308-19.15C412.272 103.865 342.468 34 256.33 34zm0 256.415c-55.31 0-100.325-45.036-100.325-100.372S201.022 89.671 256.332 89.671s100.297 45.036 100.297 100.372-44.988 100.372-100.297 100.372z" fill="#010002" fill-rule="evenodd"/></svg>