<svg width="512" height="512" xmlns="http://www.w3.org/2000/svg"><g fill-rule="evenodd"><path d="M394.068 185.737h-31.286v-44.43C362.782 82.69 314.99 35 256.25 35c-58.742 0-106.537 47.69-106.537 106.307v44.427h-31.285c-8.239 0-14.92 6.668-14.92 14.889v261.676c0 8.22 6.681 14.888 14.92 14.888h275.64c8.24 0 14.921-6.667 14.921-14.888V200.625c0-8.223-6.682-14.888-14.92-14.888zm-214.515-44.43c0-42.2 34.406-76.53 76.696-76.53 42.289 0 76.693 34.33 76.693 76.53v44.427H179.553v-44.427zM379.148 447.41h-245.8V215.514h245.8V447.41z"/><path d="M283.657 371.461l-11.953-37.66c5.234-4.41 8.634-10.926 8.634-18.298 0-13.276-10.785-24.04-24.092-24.04-13.306 0-24.091 10.764-24.091 24.04 0 7.372 3.4 13.888 8.634 18.298l-11.954 37.66h54.822z"/></g></svg>