<svg width="512" height="512" xmlns="http://www.w3.org/2000/svg"><g fill-rule="evenodd"><path d="M441.437 69.76H70.955C37.883 69.76 11 96.62 11 129.661v252.982c0 33.042 26.883 59.9 59.955 59.9h370.38c33.072 0 59.955-26.858 59.955-59.9v-252.88c.101-33.042-26.782-60.003-59.853-60.003zM474 382.643c0 17.94-14.608 32.535-32.564 32.535H70.955c-17.956 0-32.565-14.595-32.565-32.535v-252.88c0-17.94 14.609-32.536 32.565-32.536h370.38c17.956 0 32.564 14.595 32.564 32.535v252.881h.102z"/><path d="M320.208 253.01l119.91-107.436c5.58-5.068 6.087-13.683 1.014-19.36-5.072-5.574-13.695-6.08-19.376-1.013L256.399 273.484l-32.26-28.785c-.102-.101-.203-.203-.203-.304a20.28 20.28 0 0 0-2.232-1.926L90.432 125.1a13.686 13.686 0 0 0-19.376 1.115c-5.072 5.676-4.565 14.291 1.116 19.359l121.33 108.348L72.679 366.933c-5.478 5.17-5.782 13.784-.608 19.359 2.739 2.838 6.39 4.358 10.043 4.358a13.73 13.73 0 0 0 9.333-3.649L214.095 272.37l33.275 29.697c2.637 2.331 5.884 3.446 9.13 3.446 3.246 0 6.594-1.216 9.13-3.548l34.188-30.609 121.938 115.748c2.638 2.534 6.087 3.75 9.434 3.75 3.653 0 7.203-1.42 9.942-4.257 5.174-5.473 4.971-14.19-.507-19.359L320.208 253.01z"/></g></svg>