<svg width="512" height="512" xmlns="http://www.w3.org/2000/svg"><path d="M78.425 330.091c-19.68-47.54-19.682-99.902 0-147.442 11.277-27.24 28.25-51.018 49.623-70.072l64.448 64.483V47.88H63.382l42.232 42.254c-68.084 61.903-93.718 162.319-56.54 252.123 15.003 36.238 39.256 67.978 70.14 91.79 29.942 23.086 65.521 38.356 102.89 44.158l4.873-31.41C159.9 436.38 104.367 392.752 78.425 330.09zm385.119 12.165c22.929-55.384 22.929-116.387 0-171.77-15.002-36.238-39.257-67.978-70.14-91.79-29.941-23.087-65.52-38.357-102.89-44.159l-4.872 31.41c67.076 10.415 122.61 54.042 148.55 116.703 19.683 47.54 19.683 99.903 0 147.442-11.276 27.24-28.25 51.019-49.621 70.072l-64.449-64.483v129.182h129.113l-42.147-42.17c24.266-21.993 43.556-49.277 56.456-80.437z" fill-rule="evenodd"/></svg>