<svg width="512" height="512" xmlns="http://www.w3.org/2000/svg"><g fill="#010002" fill-rule="evenodd"><path d="M256.494 473.759c-92.888 0-175.551-58.93-205.72-146.644-2.241-6.48 1.219-13.56 7.717-15.771 6.471-2.24 13.558 1.203 15.785 7.71 26.723 77.681 99.96 129.851 182.232 129.851 106.235 0 192.652-86.343 192.652-192.474 0-6.857 5.574-12.44 12.437-12.44 6.863 0 12.424 5.569 12.424 12.44-.014 119.831-97.58 217.328-217.527 217.328zM51.418 268.858c-6.849 0-12.423-5.542-12.423-12.413 0-119.817 97.58-217.314 217.499-217.314 92.86 0 175.523 58.901 205.72 146.588 2.227 6.48-1.219 13.56-7.718 15.8-6.512 2.21-13.571-1.232-15.798-7.711C411.96 116.127 338.737 63.957 256.48 63.957c-106.222 0-192.652 86.371-192.652 192.502.014 6.843-5.547 12.399-12.41 12.399z"/><path d="M449.972 204.709c-1.218 0-2.479-.196-3.711-.574l-86.32-27.008c-6.54-2.057-10.181-9.027-8.137-15.576 2.045-6.535 9.048-10.173 15.561-8.144L442.703 177l28.306-70.894c2.55-6.367 9.79-9.488 16.15-6.913 6.372 2.547 9.495 9.754 6.946 16.12L461.5 196.9c-1.919 4.8-6.569 7.809-11.527 7.809zM30.423 414.62c-1.526 0-3.095-.294-4.594-.91-6.372-2.547-9.482-9.754-6.933-16.121l32.592-81.585c2.41-6.046 9.048-9.208 15.253-7.25l86.319 27.01c6.554 2.042 10.182 9.011 8.137 15.547-2.045 6.563-9.034 10.201-15.56 8.144L70.311 335.89l-28.334 70.894a12.478 12.478 0 0 1-11.555 7.837z"/></g></svg>