<svg width="512" height="512" xmlns="http://www.w3.org/2000/svg"><path d="M348.942 119.802c-36.171 0-69.071 14.24-93.459 37.374-24.388-23.139-57.284-37.374-93.454-37.374C87.021 119.802 26 180.914 26 256.032c0 75.11 61.02 136.222 136.03 136.222 36.17 0 69.065-14.237 93.453-37.372 24.388 23.14 57.289 37.372 93.459 37.372 75 0 136.025-61.113 136.025-136.222 0-75.118-61.024-136.23-136.025-136.23zm-186.913 260.22c-68.276 0-123.814-55.63-123.814-123.99 0-68.37 55.543-123.996 123.814-123.996 32.877 0 62.727 12.986 84.91 33.998-21.157 24.02-34.034 55.53-34.034 89.999 0 34.479 12.877 65.984 34.035 90.007-22.184 20.995-52.034 33.982-84.91 33.982zm63.091-123.99c0-31.008 11.51-59.332 30.363-81.092 18.852 21.76 30.364 50.083 30.364 81.092 0 31.001-11.513 59.328-30.364 81.082-18.853-21.754-30.363-50.08-30.363-81.082zm123.822 123.99c-32.878 0-62.73-12.987-84.914-33.995 21.157-24.026 34.035-55.53 34.035-90.007 0-34.473-12.877-65.98-34.035-89.999 22.19-21.012 52.036-33.998 84.914-33.998 68.272 0 123.81 55.624 123.81 123.997 0 68.361-55.538 124.002-123.81 124.002zM53.496 220.612l-4.318-4.325 75.674-75.787 4.319 4.325-75.675 75.788zm-5.344 34.278l-4.319-4.323 111.75-111.919 4.318 4.325L48.151 254.89zm163.463-8.624L99.867 358.189l-4.32-4.325 111.75-111.921 4.318 4.323zm0 33.583L124.207 367.4l-4.319-4.325 87.416-87.552 4.311 4.326zm-68.376 90.52l70.941-71.053 4.32 4.326-70.942 71.052-4.319-4.325zm28.5 2.562l53.223-53.313 4.319 4.325-53.225 53.313-4.318-4.325zm13.473-226.484L48.614 283.249l-4.316-4.327 136.597-136.8 4.317 4.325zm22.814 5.481L56.55 303.642l-4.319-4.326 151.482-151.713 4.312 4.325zm22.782 9.052L66.354 325.67l-4.32-4.326 164.455-164.69 4.319 4.326zm-16.168 48.794L80.726 343.87l-4.318-4.325 133.908-134.103 4.324 4.33z" fill-rule="evenodd"/></svg>