<svg width="512" height="512" xmlns="http://www.w3.org/2000/svg"><path d="M473.27 35.604H39.71A6.71 6.71 0 0 0 33 42.316v236.019a6.71 6.71 0 0 0 6.71 6.712h136.833c-7.305 14.447-4.623 32.003 6.982 43.653 8.602 8.635 14.144 13.555 17.949 16.401a274.626 274.626 0 0 1-8.605 36.162c-4.463 14.352-2.175 29.712 6.274 42.143l7.082 10.418a65.279 65.279 0 0 1 11.335 36.838 6.71 6.71 0 1 0 13.42 0c0-15.894-4.722-31.243-13.657-44.387l-7.083-10.418c-6.136-9.027-7.797-20.183-4.557-30.607a287.806 287.806 0 0 0 12.991-85.537v-53.17c0-15.19 12.355-27.548 27.54-27.548 15.185 0 27.54 12.358 27.54 27.548v51.74c0 19.575 4.487 39.246 12.975 56.885a6.709 6.709 0 0 0 8.956 3.137 6.712 6.712 0 0 0 3.135-8.959c-7.618-15.834-11.645-33.492-11.645-51.064v-13.236h61.85c15.104 14.38 21.985 35.808 18.003 56.366L330 464.393a6.712 6.712 0 0 0 12.85 3.871l37.123-123.296c.022-.075 12.301-45.139 12.301-45.139 1.336-4.91 1.5-9.943.55-14.783h80.446a6.71 6.71 0 0 0 6.71-6.712V42.316a6.715 6.715 0 0 0-6.712-6.712zM309.112 160.327L466.559 54.89v210.874L309.113 160.327zM46.42 55.903l155.937 104.426L46.42 264.753V55.903zm13.86-6.875h390.91l-195.455 130.89L60.28 49.028zm132.752 270.197c-7.952-7.982-9.41-20.263-3.544-29.863l2.636-4.314h13.13v14.666c0 9.943-.547 19.854-1.617 29.7-2.673-2.416-6.137-5.704-10.605-10.189zm53.182-113.653c-22.586 0-40.96 18.38-40.96 40.972v25.08H60.288l154.131-103.218 37.582 25.167a6.706 6.706 0 0 0 7.466 0l37.584-25.168 154.134 103.219h-164.01v-25.08c0-22.593-18.376-40.972-40.961-40.972zm133.112 90.73l-2.199 8.069a75.54 75.54 0 0 0-10.276-19.324h12.1a18.948 18.948 0 0 1 .375 11.256z" fill-rule="evenodd"/></svg>