<svg width="512" height="512" xmlns="http://www.w3.org/2000/svg"><g fill-rule="evenodd"><path d="M357.322 221.316c-3.887.826-7.822 2.892-9.871 5.173l2.747 4.263c1.538-1.79 4.28-3.294 6.925-3.856 4.636-.908 7.513 1.092 8.31 4.844.704 3.308-.527 6.567-2.992 11.17-2.737 5.194-3.128 9.816-1.845 13.692l.555 1.88 5.72-1.216-.486-1.895c-1.025-3.704-.528-7.19 1.88-11.701 2.627-4.941 4.654-9.134 3.59-14.142-1.173-5.596-6.103-10.004-14.533-8.212zm7.818 42.234c-2.558.544-3.996 2.847-3.417 5.57.547 2.572 2.73 4.184 5.3 3.638 2.706-.576 3.982-2.923 3.435-5.496-.578-2.722-2.746-4.259-5.319-3.712z"/><path d="M489.794 328.241c.545 2.142.245 4.491-1.076 6.47-1.879 2.813-5.226 4.038-8.345 3.369l-48.192 10.243c-4.33.92-8.594-1.857-9.517-6.2-.923-4.342 1.842-8.613 6.173-9.534L461 325.752l-57.028-38.348c-7.512 8.327-17.564 14.48-29.335 16.983-29.76 6.325-59.13-12.806-65.474-42.65-2.63-12.371-.843-24.64 4.207-35.252l-18.506-12.442-33.807 33.075a7.998 7.998 0 0 1-5.978 2.274 8.046 8.046 0 0 1-5.74-2.834l-66.359-78.431-19.262 82.525a8.005 8.005 0 0 1-8.937 6.117L39.207 240.223c-4.385-.63-7.435-4.698-6.811-9.094a8.008 8.008 0 0 1 9.065-6.823l108.311 15.509 21.214-90.895a8.001 8.001 0 0 1 5.929-5.976c.07-.015.14-.034.21-.05a8.019 8.019 0 0 1 7.789 2.675l71.085 84.017 32.314-31.615a8.009 8.009 0 0 1 10.066-.918l23.916 16.077c7.516-8.328 17.565-14.476 29.336-16.978 29.76-6.326 59.13 12.806 65.474 42.65 2.63 12.37.847 24.64-4.207 35.252l57.199 38.46-6.983-32.854c-.923-4.342 1.842-8.614 6.173-9.534 4.33-.92 8.594 1.857 9.517 6.2l10.955 51.536c.022.127.017.256.035.38zm-118.699-39.505c-21.126 4.49-41.899-9.044-46.4-30.226-4.503-21.182 8.968-41.995 30.095-46.486 21.126-4.49 41.898 9.044 46.4 30.226 4.503 21.182-8.968 41.995-30.095 46.486z"/></g></svg>