<svg width="512" height="512" xmlns="http://www.w3.org/2000/svg"><path d="M256.279 33c-81.257 0-147.364 66.12-147.364 147.393 0 32.734 20.898 86.1 63.886 163.152 30.408 54.497 60.315 99.937 61.572 101.845l21.906 33.21 21.905-33.21c1.257-1.908 31.167-47.347 61.57-101.844 42.99-77.052 63.887-130.418 63.887-163.152C403.641 99.12 337.535 33 256.279 33zm0 222.8c-42.187 0-76.387-34.206-76.387-76.402s34.2-76.403 76.387-76.403c42.186 0 76.387 34.207 76.387 76.403 0 42.196-34.201 76.402-76.387 76.402z" fill-rule="evenodd"/></svg>