<svg width="512" height="512" xmlns="http://www.w3.org/2000/svg"><path d="M369.176 170.023C366.062 85.78 324.32 37 256.5 37S146.938 85.779 143.824 170.023H72.122V477h368.756V170.023h-71.702zM256.5 77.93c55.047 0 69.675 46.59 71.477 92.093H185.023c1.802-45.504 16.43-92.093 71.477-92.093zm143.405 358.14h-286.81V210.953h286.81V436.07zM236.014 333.744v61.396h40.972v-61.396c12.2-7.091 20.487-25.817 20.487-40.93 0-22.604-18.346-40.93-40.973-40.93s-40.973 18.326-40.973 40.93c0 15.113 8.287 33.839 20.487 40.93z" fill-rule="evenodd"/></svg>