<svg width="512" height="512" xmlns="http://www.w3.org/2000/svg"><path d="M256 38C135.597 38 38 135.597 38 256s97.597 218 218 218 218-97.597 218-218S376.403 38 256 38zm0 385.692C163.4 423.692 88.308 348.6 88.308 256 88.308 163.384 163.4 88.308 256 88.308c92.616 0 167.692 75.076 167.692 167.692 0 92.6-75.076 167.692-167.692 167.692zm62.683-184.461H184.53c-9.274 0-16.77 7.512-16.77 16.769 0 9.273 7.496 16.77 16.77 16.77h134.153c9.274 0 16.77-7.497 16.77-16.77 0-9.257-7.496-16.77-16.77-16.77z" fill-rule="evenodd"/></svg>