<svg width="512" height="512" xmlns="http://www.w3.org/2000/svg"><path d="M361.819 40H151.095c-9.598 0-17.38 7.773-17.38 17.36v398.195c0 9.587 7.782 17.36 17.38 17.36h210.724c9.598 0 17.38-7.773 17.38-17.36V57.36c0-9.587-7.782-17.36-17.38-17.36zM232.873 76.217h44.3a2.995 2.995 0 0 1 2.998 3 3.003 3.003 0 0 1-2.998 2.998h-44.3a3.004 3.004 0 0 1-3.002-2.999 3.004 3.004 0 0 1 3.002-2.999zm22.15 360.476c-5.53 0-10.015-4.479-10.015-10.003 0-5.525 4.48-10.008 10.015-10.008 5.531 0 10.015 4.478 10.015 10.008 0 5.524-4.484 10.003-10.015 10.003zm104.272-32.498H153.619V108.72h205.676v295.475z" fill-rule="evenodd"/></svg>