<svg width="512" height="512" xmlns="http://www.w3.org/2000/svg"><g fill-rule="evenodd"><path d="M165.107 239.014h89.89c44.984-49.329-44.92-98.658 0-147.968h-89.89c-44.99 49.31 44.97 98.64 0 147.968zm11.708-73.958c-9.084-18.374 2.46-33.237 21.167-33.237 18.023 0 36.235 14.863 45.339 33.237 9.084 18.355-2.46 33.217-21.155 33.217-18.067-.012-36.26-14.894-45.35-33.217z"/><path d="M195.738 175.4c3.258 2.148 6.352 3.232 9.268 3.232 3.303 0 5.44-.995 6.46-2.992.989-2.003.932-5.083-.171-9.266h15.753c1.21 3.251.976 5.495-.666 6.712-.92.678-2.669 1.09-5.243 1.242.768 1.699 1.49 3.41 2.162 5.121 3.341 0 5.725-.538 7.22-1.654 2.77-2.003 3.126-5.806.92-11.415h5.597c-.399-.919-.843-1.838-1.23-2.738h-5.622c-1.978-3.492-3.969-6.16-5.94-8.011-3.601-3.334-7.88-4.988-13.04-4.988-3.518 0-5.712 1.3-6.422 3.892-.393 1.603-.298 4.639.514 9.12h-14.08c-1.097-2.668-.95-4.608.456-5.818.755-.653 1.852-1.052 3.246-1.186a377.1 377.1 0 0 1-2.149-5.057c-3.214.101-5.407 1.185-6.498 3.226-1.128 2.047-.931 5.007.514 8.841h-3.791c.412.92.85 1.826 1.274 2.745h3.854c1.782 3.847 4.33 6.851 7.614 8.993zm14.751-16.923c.476-1.756 1.909-2.656 4.337-2.656 1.527 0 3.01.323 4.437.989 2.808 1.242 5.04 3.517 6.669 6.826h-15.189c-.45-2.415-.539-4.113-.254-5.16zm-4.469 7.91c.54 2.16.57 3.866.076 5.14-.507 1.274-1.737 1.908-3.632 1.908-1.585 0-3.335-.533-5.255-1.617-1.908-1.077-3.48-2.883-4.736-5.425 4.495-.006 9.04-.006 13.547-.006zm71.248-23.629h67.925c33.947-37.254-33.966-74.503 0-111.758h-67.925c-33.941 37.28 33.96 74.529 0 111.758zm8.855-55.876c-6.884-13.867 1.82-25.105 15.97-25.105 13.59 0 27.398 11.231 34.238 25.093 6.84 13.867-1.87 25.086-15.994 25.086-13.58.019-27.36-11.2-34.214-25.074z"/><path d="M300.425 94.735c2.447 1.63 4.786 2.434 6.998 2.434 2.473 0 4.102-.754 4.875-2.263.748-1.508.717-3.828-.133-6.99h11.9c.912 2.459.734 4.15-.508 5.05-.678.514-1.99.831-3.943.945a83.852 83.852 0 0 1 1.591 3.86c2.542 0 4.336-.412 5.458-1.242 2.118-1.502 2.358-4.38.698-8.62h4.247c-.304-.69-.653-1.388-.926-2.079h-4.24c-1.516-2.643-2.993-4.645-4.527-6.046-2.732-2.516-5.946-3.771-9.832-3.771-2.688 0-4.31.976-4.818 2.947-.317 1.204-.247 3.492.368 6.864h-10.65c-.837-2.016-.736-3.473.348-4.38.57-.494 1.408-.798 2.447-.887-.52-1.28-1.071-2.554-1.604-3.834-2.447.088-4.082.887-4.944 2.44-.824 1.552-.691 3.77.418 6.68h-2.865c.304.697.64 1.375.925 2.085h2.923c1.382 2.91 3.29 5.16 5.794 6.807zM314.84 79.95c1.129 0 2.27.266 3.367.754 2.123.932 3.79 2.668 5.046 5.153h-11.48c-.324-1.82-.381-3.106-.172-3.88.33-1.35 1.414-2.027 3.24-2.027zm-6.637 7.96c.412 1.635.431 2.916.057 3.879-.361.963-1.331 1.439-2.764 1.439-1.191 0-2.504-.406-3.993-1.23-1.458-.83-2.663-2.174-3.582-4.107 3.442.02 6.853.02 10.282.02zm116.231 294.857c7.303-7.606 7.968-21.778 6.751-40.716-8.577-.564-21.287.856-25.743 0-10.891-21.657-26.55-38.554-48.876-48.834.767-14.166 2.687-27.184 10.846-33.934-19.93-1.363-36.742 12.08-47.487 24.427-40.217-41.768-159.674-49.196-217.165 10.844-9.915-.78-8.8-20.877 4.057-17.639-20.952-14.254-32.49 24.858-12.222 29.859-16.907 24.116-18.492 75.955 4.082 94.982 3.297 28.584 8.349 55.4 22.251 73.388h45.586c-1.167-9.254-2.377-19.148-1.357-29.948 27.703 6.307 60.635 8.126 93.644 5.432 5.09 8.461 10.035 17.043 16.115 24.51h45.142c-1.623-11.96-3.398-24.446-.171-36.71 10.846-2.111 66.759-16.308 104.547-55.661zm-62.309-60.579c6.206 0 11.22 5.032 11.22 11.218 0 6.193-5.014 11.231-11.22 11.231-6.219 0-11.227-5.045-11.227-11.23.007-6.187 5.008-11.219 11.227-11.219zm-93.327-43.504c-31.088-10.699-65.2-10.585-96.084.323l-3.512-7.232c33.129-11.712 69.732-11.858 103.057-.38l-3.46 7.289z"/></g></svg>