<svg width="512" height="512" xmlns="http://www.w3.org/2000/svg"><g fill-rule="evenodd"><path d="M161.142 460.542H73.513c-12.078 0-21.907-9.83-21.907-21.907V73.515c0-12.078 9.83-21.907 21.907-21.907h87.629a7.3 7.3 0 0 0 7.302-7.302 7.3 7.3 0 0 0-7.302-7.303H73.513c-20.132 0-36.512 16.38-36.512 36.513v365.12c0 20.133 16.379 36.513 36.512 36.513h87.629a7.3 7.3 0 0 0 7.302-7.303 7.302 7.302 0 0 0-7.302-7.304zm153.35-36.512a7.3 7.3 0 0 0 7.303 7.302h102.234a7.3 7.3 0 0 0 7.302-7.302V88.12a7.3 7.3 0 0 0-7.302-7.303H321.795a7.3 7.3 0 0 0-7.302 7.302 7.3 7.3 0 0 0 7.302 7.302h94.931v321.306h-94.93a7.301 7.301 0 0 0-7.304 7.303z"/><path d="M329.098 387.518h51.116a7.3 7.3 0 0 0 7.302-7.302 7.3 7.3 0 0 0-7.302-7.302h-51.116a7.3 7.3 0 0 0-7.303 7.302 7.3 7.3 0 0 0 7.303 7.302zm0-87.628h51.116a7.3 7.3 0 0 0 7.302-7.303 7.3 7.3 0 0 0-7.302-7.302h-51.116a7.3 7.3 0 0 0-7.303 7.302 7.3 7.3 0 0 0 7.303 7.302zm0 58.419h51.116a7.3 7.3 0 0 0 7.302-7.302 7.3 7.3 0 0 0-7.302-7.303h-51.116a7.3 7.3 0 0 0-7.303 7.303 7.3 7.3 0 0 0 7.303 7.302zm0-29.209h51.116a7.3 7.3 0 0 0 7.302-7.303 7.3 7.3 0 0 0-7.302-7.302h-51.116a7.3 7.3 0 0 0-7.303 7.302 7.3 7.3 0 0 0 7.303 7.302zm-189.863-80.327a7.3 7.3 0 0 0-7.302 7.302 7.3 7.3 0 0 0 7.302 7.302h.3c.605 8.054 2.198 15.54 4.578 22.184l-1.863 1.855a7.31 7.31 0 0 0-.007 10.333 7.299 7.299 0 0 0 5.17 2.14c1.168 0 2.294-.38 3.352-.935 4.82 7.171 10.873 12.275 17.68 14.407v1.132a7.3 7.3 0 0 0 7.301 7.302 7.3 7.3 0 0 0 7.302-7.302v-1.132c6.857-2.147 12.948-7.302 17.789-14.56 1.117.642 2.322 1.087 3.578 1.087a7.3 7.3 0 0 0 5.162-2.132 7.317 7.317 0 0 0 0-10.333l-2.103-2.11c2.33-6.573 3.885-13.985 4.483-21.937h.3a7.3 7.3 0 0 0 7.302-7.302 7.3 7.3 0 0 0-7.302-7.302h-.3c-.591-7.901-2.124-15.255-4.432-21.798l2.052-2.052a7.317 7.317 0 0 0 0-10.333c-2.352-2.359-5.879-2.651-8.661-1.11-4.85-7.332-10.969-12.53-17.87-14.693v-1.132a7.3 7.3 0 0 0-7.301-7.302 7.3 7.3 0 0 0-7.303 7.302v1.132c-6.842 2.148-12.933 7.296-17.774 14.54-2.738-1.387-6.126-1.03-8.42 1.263a7.293 7.293 0 0 0 0 10.325l1.812 1.811c-2.359 6.609-3.93 14.05-4.528 22.046h-.297v.002zm20.096-21.075c.015-.022.015-.037.03-.058 4.315-9.64 10.537-15.379 16.386-15.379 10.362 0 21.907 17.993 21.907 43.815 0 25.821-11.545 43.814-21.907 43.814s-21.907-17.993-21.907-43.814c0-11.218 2.183-20.944 5.491-28.378zm111.347 210.937V73.515a7.3 7.3 0 0 0-7.302-7.302 7.3 7.3 0 0 0-7.302 7.302v365.12a7.3 7.3 0 0 0 7.302 7.302 7.3 7.3 0 0 0 7.302-7.302z"/><path d="M438.634 37.003H321.795a7.3 7.3 0 0 0-7.302 7.302 7.3 7.3 0 0 0 7.302 7.302h116.839c12.078 0 21.907 9.829 21.907 21.907v365.12c0 12.079-9.83 21.908-21.907 21.908H321.795a7.3 7.3 0 0 0-7.302 7.302 7.3 7.3 0 0 0 7.302 7.302h116.839c20.132 0 36.512-16.38 36.512-36.512V73.514c0-20.132-16.38-36.511-36.512-36.511zM175.747 270.68a7.3 7.3 0 0 0 7.302-7.302v-14.605a7.3 7.3 0 0 0-7.302-7.303 7.3 7.3 0 0 0-7.302 7.303v14.605a7.3 7.3 0 0 0 7.302 7.302z"/><path d="M295.85 52.374L266.64 37.77a7.277 7.277 0 0 0-5.032-.547L86.35 81.036a7.295 7.295 0 0 0-5.535 7.083v36.512h-7.302a7.3 7.3 0 0 0-7.302 7.303v58.42a7.3 7.3 0 0 0 7.302 7.301h29.21a7.3 7.3 0 0 0 7.302-7.302v-58.42a7.3 7.3 0 0 0-7.303-7.302H95.42V93.823l167.11-41.777 22.754 11.377v385.304l-22.754 11.377-167.11-41.777v-8.902a7.3 7.3 0 0 0-7.302-7.302 7.3 7.3 0 0 0-7.302 7.302v14.605c0 .197.102.358.117.556.037.504.147.97.292 1.453.124.438.248.861.46 1.263.212.423.49.781.775 1.153.292.373.57.716.92 1.023.343.3.723.525 1.132.759.424.256.84.475 1.321.635.19.058.314.197.519.241l175.258 43.815a7.271 7.271 0 0 0 1.767.219 7.362 7.362 0 0 0 3.264-.767l29.209-14.605a7.31 7.31 0 0 0 4.038-6.535V58.91a7.31 7.31 0 0 0-4.038-6.536zM95.42 183.051H80.816v-43.814h14.605v43.814z"/><path d="M88.118 212.26a7.3 7.3 0 0 0-7.302 7.302v94.932h-7.302a7.3 7.3 0 0 0-7.302 7.302v58.42a7.3 7.3 0 0 0 7.302 7.302h29.21a7.3 7.3 0 0 0 7.301-7.302v-58.42a7.3 7.3 0 0 0-7.302-7.302h-7.302v-94.93a7.302 7.302 0 0 0-7.303-7.304zm7.302 160.653H80.816v-43.815h14.605v43.815z"/></g></svg>