<svg width="512" height="512" xmlns="http://www.w3.org/2000/svg"><path d="M427.889 378.778H84.11c-27.085 0-49.111 22.026-49.111 49.11C35 454.975 57.026 477 84.111 477H427.89c27.084 0 49.11-22.026 49.11-49.111 0-27.085-22.026-49.111-49.111-49.111zm0-171.889H84.11C57.026 206.889 35 228.915 35 256c0 27.085 22.026 49.111 49.111 49.111H427.89c27.084 0 49.11-22.026 49.11-49.111 0-27.085-22.026-49.111-49.111-49.111zm0-171.889H84.11C57.026 35 35 57.026 35 84.111c0 27.085 22.026 49.111 49.111 49.111H427.89c27.085 0 49.111-22.026 49.111-49.11C477 57.025 454.974 35 427.889 35z" fill-rule="evenodd"/></svg>