<svg width="512" height="512" xmlns="http://www.w3.org/2000/svg"><g fill-rule="evenodd"><path d="M418.992 35H94.009c-4.88 0-8.834 3.952-8.834 8.827V427.03c0 4.875 3.955 8.827 8.834 8.827h10.07v33.451a8.829 8.829 0 0 0 8.833 8.828c2.12 0 4.215-.762 5.863-2.222l45.203-40.055h185.043l45.203 40.055a8.831 8.831 0 0 0 9.485 1.445 8.827 8.827 0 0 0 5.211-8.05v-33.452h10.07c4.878 0 8.834-3.952 8.834-8.827V43.827c.002-4.875-3.954-8.827-8.832-8.827zM121.749 449.68v-13.824h15.6l-15.6 13.824zm269.503.001l-15.601-13.824h15.601v13.824zm18.904-31.48H102.844V52.654h307.313v365.547z"/><path d="M378.931 73.68H134.07c-4.88 0-8.834 3.952-8.834 8.827V388.35c0 4.876 3.955 8.828 8.834 8.828h244.86c4.878 0 8.834-3.952 8.834-8.827V82.507c0-4.875-3.956-8.827-8.834-8.827zm-8.834 305.841H142.904V91.334h227.193v288.187z"/><path d="M256.5 162.997c-38.482 0-69.79 31.283-69.79 69.736s31.308 69.737 69.79 69.737c38.484 0 69.791-31.284 69.791-69.737 0-38.453-31.308-69.736-69.79-69.736zm49.213 75.504c-4.638-1.506-9.624 1.03-11.132 5.667a8.827 8.827 0 0 0 5.672 11.124l2.76.895a52.27 52.27 0 0 1-8.575 12.202l-1.518-2.087a8.838 8.838 0 0 0-12.339-1.952 8.823 8.823 0 0 0-1.954 12.33l1.705 2.346a51.72 51.72 0 0 1-14.115 4.866v-2.609c0-4.875-3.955-8.827-8.834-8.827s-8.833 3.952-8.833 8.827v2.926a51.68 51.68 0 0 1-14.28-4.382l1.533-2.11a8.823 8.823 0 0 0-1.955-12.33 8.84 8.84 0 0 0-12.34 1.954l-1.7 2.34a52.418 52.418 0 0 1-8.993-11.906l2.478-.804c4.64-1.507 7.18-6.487 5.672-11.124-1.507-4.637-6.492-7.176-11.132-5.667l-2.777.9a52.424 52.424 0 0 1-.676-8.348c0-2.227.157-4.418.43-6.572l2.48.805a8.834 8.834 0 0 0 2.732.434c3.723 0 7.187-2.372 8.4-6.102 1.508-4.637-1.032-9.617-5.673-11.124l-2.76-.896a52.331 52.331 0 0 1 8.576-12.201l1.516 2.086a8.825 8.825 0 0 0 7.155 3.64 8.8 8.8 0 0 0 5.186-1.686 8.823 8.823 0 0 0 1.954-12.33l-1.706-2.347a51.692 51.692 0 0 1 14.115-4.865v2.608c0 4.876 3.955 8.827 8.834 8.827 4.878 0 8.834-3.951 8.834-8.827v-2.925a51.68 51.68 0 0 1 14.28 4.382l-1.533 2.11a8.822 8.822 0 0 0 1.955 12.329 8.79 8.79 0 0 0 5.185 1.686 8.825 8.825 0 0 0 7.155-3.64l1.7-2.339a52.403 52.403 0 0 1 8.992 11.906l-2.478.804c-4.642 1.508-7.181 6.487-5.674 11.124 1.213 3.73 4.676 6.103 8.4 6.103a8.85 8.85 0 0 0 2.732-.435l2.777-.9a52.18 52.18 0 0 1 .678 8.346c0 2.228-.157 4.419-.43 6.573l-2.48-.805z"/><path d="M256.5 200.955c-17.535 0-31.802 14.255-31.802 31.778 0 17.523 14.267 31.779 31.803 31.779s31.803-14.256 31.803-31.779-14.267-31.778-31.803-31.778zm0 45.902c-7.793 0-14.134-6.336-14.134-14.124s6.341-14.124 14.135-14.124 14.135 6.336 14.135 14.124-6.342 14.124-14.135 14.124zm49.472 104.163h-8.834c-4.879 0-8.834 3.952-8.834 8.827s3.955 8.827 8.834 8.827h8.834c4.878 0 8.834-3.952 8.834-8.827s-3.956-8.827-8.834-8.827zm-40.637 0h-100.71c-4.879 0-8.834 3.952-8.834 8.827s3.955 8.827 8.834 8.827h100.71c4.878 0 8.834-3.952 8.834-8.827s-3.956-8.827-8.834-8.827z"/></g></svg>