<svg width="512" height="512" xmlns="http://www.w3.org/2000/svg"><path d="M349.944 119.619c-36.394 0-69.5 14.299-94.037 37.526-24.541-23.234-57.64-37.526-94.034-37.526C86.4 119.619 25 180.982 25 256.409c0 75.42 61.4 136.785 136.872 136.785 36.394 0 69.493-14.299 94.034-37.529 24.537 23.236 57.644 37.53 94.037 37.53 75.466 0 136.87-61.366 136.87-136.785 0-75.428-61.403-136.791-136.869-136.791zm-188.072 261.29c-68.7 0-124.58-55.859-124.58-124.5 0-68.649 55.887-124.505 124.58-124.505 33.081 0 63.116 13.04 85.437 34.137-21.287 24.12-34.246 55.758-34.246 90.37 0 34.62 12.958 66.253 34.246 90.377-22.32 21.082-52.356 34.122-85.437 34.122zm63.483-124.5c0-31.135 11.58-59.574 30.55-81.425 18.97 21.851 30.552 50.29 30.552 81.426 0 31.13-11.582 59.572-30.551 81.416-18.97-21.844-30.551-50.288-30.551-81.416zm124.59 124.5c-33.082 0-63.121-13.04-85.441-34.134 21.287-24.124 34.246-55.757 34.246-90.377 0-34.615-12.959-66.251-34.246-90.37 22.325-21.098 52.358-34.138 85.44-34.138 68.695 0 124.577 55.855 124.577 124.508 0 68.64-55.882 124.512-124.577 124.512zM52.667 220.845l-4.346-4.342 76.144-76.1 4.345 4.343-76.143 76.1zm-5.378 34.42l-4.345-4.342 112.442-112.379 4.344 4.342L47.29 255.264zm164.477-8.661L99.325 358.988l-4.345-4.342 112.441-112.383 4.346 4.34zm0 33.72l-87.953 87.913-4.345-4.342 87.958-87.913 4.34 4.343zm-68.8 90.894l71.38-71.346 4.346 4.342-71.382 71.347-4.345-4.343zm28.675 2.573l53.553-53.533 4.345 4.343-53.552 53.533-4.346-4.343zM185.2 146.373L47.755 283.736l-4.345-4.342L180.855 142.03l4.345 4.343zm22.953 5.503L55.74 304.214l-4.345-4.342 152.42-152.338 4.338 4.342zm22.924 9.09L65.604 326.335l-4.345-4.342 165.473-165.369 4.345 4.342zm-16.267 48.995L80.065 344.611l-4.345-4.343 134.74-134.655 4.35 4.348zm245.57 10.883l-76.142-76.1 4.345-4.343 76.143 76.1-4.345 4.343zm5.378 34.42L353.318 142.89l4.344-4.342 112.441 112.379-4.345 4.337zm-160.143-13.001l112.447 112.382-4.344 4.342L301.27 246.602l4.345-4.34zm0 33.718l87.954 87.913-4.344 4.342-87.955-87.912 4.345-4.343zm-6.926 23.89l71.384 71.347-4.344 4.343-71.385-71.347 4.345-4.342zm-10.846 20.387l53.554 53.533-4.345 4.342-53.547-53.532 4.338-4.343zM332.19 142.03l137.44 137.364-4.345 4.342-137.438-137.363 4.344-4.343zm-22.962 5.504l152.425 152.338-4.345 4.342-152.42-152.338 4.34-4.342zm-22.92 9.09L451.78 321.992l-4.344 4.342-165.468-165.369 4.34-4.343zm16.277 48.989l134.743 134.655-4.344 4.343-134.745-134.65 4.346-4.348zm-39.258-7.813h-18.175v-6.142h18.175v6.142zm-16.51 115.158h18.18v6.143h-18.18v-6.143zm29.065-93.403h-39.95v-6.143h39.95v6.143zm3.841 19.703h-50.822v-6.141h50.822v6.141zm1.79 14.077v6.145h-52.678v-6.145h52.678zm-50.06 20.073h47.412v6.142h-47.413v-6.142zm4.479 19.589h36.109v6.142h-36.11v-6.142z" fill-rule="evenodd"/></svg>