<svg width="512" height="512" xmlns="http://www.w3.org/2000/svg"><path d="M350.241 119.619c-36.316 0-69.35 14.299-93.834 37.526-24.488-23.234-57.516-37.526-93.83-37.526C87.267 119.619 26 180.982 26 256.409c0 75.42 61.267 136.785 136.576 136.785 36.315 0 69.342-14.299 93.83-37.529 24.484 23.236 57.52 37.53 93.834 37.53 75.302 0 136.573-61.366 136.573-136.785 0-75.428-61.27-136.791-136.572-136.791zm-187.665 261.29c-68.55 0-124.311-55.859-124.311-124.5 0-68.649 55.766-124.505 124.31-124.505 33.01 0 62.98 13.04 85.253 34.137-21.241 24.12-34.172 55.758-34.172 90.37 0 34.62 12.93 66.253 34.172 90.377-22.273 21.082-52.243 34.122-85.252 34.122zm63.345-124.5c0-31.135 11.555-59.574 30.485-81.425 18.928 21.851 30.486 50.29 30.486 81.426 0 31.13-11.558 59.572-30.486 81.416-18.93-21.844-30.485-50.288-30.485-81.416zm124.32 124.5c-33.01 0-62.984-13.04-85.256-34.134 21.242-24.124 34.172-55.757 34.172-90.377 0-34.615-12.93-66.251-34.172-90.37 22.277-21.098 52.245-34.138 85.256-34.138 68.546 0 124.307 55.855 124.307 124.508 0 68.64-55.76 124.512-124.307 124.512zm-85.698-182.083h-18.137v-6.142h18.137v6.142zM248.067 313.99h18.14v6.143h-18.14v-6.143zm29.004-93.41h-39.864v-6.142h39.864v6.143zm3.833 19.704H230.19v-6.141h50.713v6.141zm1.784 14.077v6.14h-52.565v-6.14h52.565zm-49.946 20.067h47.31v6.142h-47.31v-6.142zm4.465 19.6h36.03v6.143h-36.03v-6.142z" fill-rule="evenodd"/></svg>