<svg width="512" height="512" xmlns="http://www.w3.org/2000/svg"><path d="M116.347 345.693c0-4.904 3.979-8.879 8.889-8.879h2.12c4.91 0 8.89 3.975 8.89 8.88 0 4.904-3.98 8.879-8.89 8.879h-2.12c-4.91 0-8.89-3.975-8.89-8.88zm192.608-186.9c-12.058 4.07-20.16 15.325-20.16 28.01 0 16.296 13.272 29.552 29.585 29.552h80.484c16.313 0 29.586-13.257 29.586-29.553 0-12.682-8.101-23.938-20.159-28.008-4.649-1.57-9.695.925-11.266 5.57-1.572 4.646.925 9.685 5.576 11.254 4.828 1.63 8.07 6.124 8.07 11.184 0 6.504-5.296 11.795-11.807 11.795H318.38c-6.51 0-11.807-5.291-11.807-11.795 0-5.06 3.244-9.556 8.072-11.185 4.651-1.57 7.148-6.608 5.576-11.253-1.57-4.647-6.615-7.138-11.266-5.57zm-132.99 259.671a8.888 8.888 0 0 0-11.266 5.57c-1.572 4.646.925 9.684 5.576 11.254 4.828 1.628 8.071 6.122 8.071 11.182 0 6.505-5.295 11.796-11.806 11.796H86.055c-6.51 0-11.808-5.291-11.808-11.796 0-5.059 3.245-9.554 8.074-11.183 4.65-1.57 7.148-6.609 5.576-11.254-1.571-4.646-6.614-7.137-11.266-5.57-12.059 4.07-20.16 15.325-20.16 28.007 0 16.297 13.272 29.554 29.585 29.554h80.485c16.313 0 29.585-13.257 29.585-29.554-.001-12.682-8.103-23.937-20.16-28.006zm-74.091-7.063c-15.84-31.094-25.656-52.931-25.656-65.709 0-27.581 22.466-50.02 50.08-50.02 27.612 0 50.077 22.439 50.077 50.02 0 12.787-9.816 34.621-25.654 65.709 0 0-5.664 11.169-5.948 11.762-2.285 4.787-6.54 13.696-18.477 13.696-11.937 0-16.192-8.908-18.477-13.695-.282-.593-5.945-11.763-5.945-11.763zm-7.878-65.709c0 11.086 16.624 43.719 23.722 57.654 0 0 7.556 15.12 8.065 15.724.315.452.794.206 1.028.001.509-.604 1.347-2.362 1.916-3.554.34-.71 6.15-12.172 6.15-12.172 7.099-13.931 23.72-46.557 23.72-57.653 0-17.79-14.489-32.264-32.299-32.264-17.811.001-32.302 14.475-32.302 32.264zM456.542 44.88v63.644c0 4.905-3.98 8.88-8.89 8.88h-80.141v40.926h7.04c4.91 0 8.89 3.975 8.89 8.879s-3.98 8.88-8.89 8.88h-31.858c-4.91 0-8.889-3.976-8.889-8.88 0-4.904 3.98-8.88 8.89-8.88h7.038v-49.616l-.001-.189.001-.188V45.068l-.001-.189c0-4.904 3.979-8.879 8.889-8.879h89.033c4.91 0 8.889 3.975 8.889 8.88zm-17.779 8.88h-71.252v45.885h71.252V53.758zM383.94 247.133H129.074c-30.231 0-54.826-24.567-54.826-54.765 0-30.199 24.595-54.765 54.826-54.765h179.228c4.91 0 8.89-3.975 8.89-8.88 0-4.904-3.98-8.879-8.89-8.879H129.074c-40.034 0-72.604 32.535-72.604 72.524 0 39.99 32.57 72.524 72.604 72.524h254.865c30.23 0 54.824 24.567 54.824 54.765s-24.594 54.765-54.824 54.765h-179.23c-4.909 0-8.888 3.975-8.888 8.879s3.979 8.879 8.889 8.879h179.229c40.034 0 72.603-32.534 72.603-72.523 0-39.99-32.57-72.524-72.603-72.524z" fill-rule="evenodd"/></svg>