<svg width="512" height="512" xmlns="http://www.w3.org/2000/svg"><g fill-rule="evenodd"><path d="M476.947 35.959h-27.372L438.74 46.787l-10.82-10.828h-25.942l-10.835 10.828-10.806-10.828h-25.949L343.56 46.787l-10.828-10.828h-25.94l-10.829 10.828-10.828-10.828h-25.948l-10.828 10.828-10.828-10.828h-30.168v190.657l-43.588 43.043 43.588 30.51v175.82h29.064l11.932-11.933 11.932 11.932h23.733l11.94-11.932 11.931 11.932h23.74l11.933-11.932 11.924 11.932h23.748l11.932-11.932 11.932 11.932h23.74l11.932-11.932 11.932 11.932h26.275V35.958h-.036zM465.603 464.63h-10.225l-16.63-16.623-16.631 16.623h-14.343L391.15 448l-16.616 16.63h-14.35L343.56 448l-16.616 16.63h-14.35l-16.63-16.623-16.624 16.623h-14.343l-16.624-16.623-16.63 16.623h-13.021V308.106l5.911 4.132 27.807-27.451-33.718-49.5V47.31h14.125l15.52 15.534 15.526-15.534h16.544l15.534 15.52 15.534-15.52h16.543l15.527 15.52 15.534-15.52h16.543l15.527 15.52 15.534-15.52h16.551l15.52 15.52 15.54-15.52h11.33v417.32h-.05z"/><path d="M321.585 245.135c-1.816-3.123-3.24-9.274-4.256-18.44h-29.456c-.218 20.146 5.89 34.402 18.33 42.768 7.052 4.648 17.742 7.778 32.063 9.369v21.721h10.589v-21.94c11.278-.87 21.031-3.856 29.238-8.94 13.464-8.3 20.182-21.605 20.182-39.935 0-13.885-4.903-24.655-14.663-32.295-5.933-4.582-17.524-9.855-34.765-15.825V140.05c7.183.508 12.157 3.34 14.874 8.512 1.583 2.984 2.658 7.712 3.239 14.183h28.693c-.443-17.452-6.769-30.08-19.006-37.851-6.724-4.866-15.991-7.785-27.8-8.73v-14.72h-10.595v14.51c-7.415.58-13.05 1.489-16.9 2.73-6.325 1.969-12.07 5.527-17.24 10.69-4.01 4.002-7.11 8.766-9.325 14.285-2.215 5.534-3.334 11.678-3.334 18.44 0 10.261 2.862 19.02 8.57 26.296 5.708 7.27 15.505 12.942 29.405 17.023l8.83 2.614v46.588c-8.278-1.452-13.834-4.619-16.673-9.484zm27.27-33.501c6.035 2.25 10.327 4.43 12.847 6.543 4.226 3.638 6.354 8.591 6.354 14.83 0 8.213-2.266 14.001-6.805 17.35-2.57 1.887-6.725 3.202-12.396 3.928v-42.651zm-22.361-38.505c-4.583-3.566-6.877-8.395-6.877-14.51 0-5.6 1.532-10.015 4.59-13.254 3.057-3.232 7.741-4.924 14.066-5.076v38.294c-5.308-1.678-9.244-3.493-11.779-5.454zm-64.097 202.175h160.126v15.127H262.397zM40.25 125.488L157.42 263.9l47.54-46.936L68.057 98.044zm257.732 235.785s-15.962-21.097-13.413-42.906l-33.044-25.788-19.078 19.187 22.426 30.131s27.88 1.467 43.11 19.376zm-23.522-32.28c-.037.123-.044.239-.08.355-.167.487-.421.922-.697 1.344-.16.247-.305.508-.502.733-.225.24-.486.443-.755.654-.363.276-.711.544-1.125.748-.211.101-.443.145-.661.21-.378.131-.727.327-1.14.37-.175.015-.342-.043-.516-.043-.065 0-.116.03-.16.03-.13 0-.247-.073-.37-.073-.618-.059-1.199-.153-1.758-.37-.174-.08-.334-.175-.5-.27-.48-.246-.916-.515-1.315-.886-.218-.203-.385-.435-.567-.668-.247-.32-.494-.631-.668-1.016-.218-.429-.327-.872-.443-1.351-.036-.174-.145-.32-.152-.501-.008-.073.021-.153.021-.218-.021-.203-.123-.385-.109-.596 0-.493.167-.93.276-1.38.015-.043.015-.101.037-.145.704-2.505 2.905-4.372 5.62-4.35 3.269.022 5.898 2.687 5.876 5.94-.007.53-.189.996-.312 1.482zM35 120.71l25.643-25.317C34.223 95.153 35 120.71 35 120.71zm391.54 216.147c-10.734 6.275-21.38 12.412-33.393 15.542-.631-3.944-1.256-7.88-2.055-11.802-.225-2.33-2.258-4.444-4.786-3.645-14.125 4.459-25.868 13.61-39.71 18.57-1.126-5.157-2.244-10.306-3.391-15.455-.56-2.527-3.48-3.297-5.549-2.266-12.338 6.086-24.8 11.882-37.364 17.488-4.445 1.983-.596 8.511 3.82 6.529a1138.69 1138.69 0 0 0 32.774-15.302c1.09 4.982 2.172 9.957 3.268 14.924.45 2.005 2.753 3.196 4.656 2.644 14.19-4.096 25.868-13.138 39.5-18.388.689 4.132 1.524 8.199 2.178 12.44.341 2.15 2.825 3 4.662 2.643 14.394-2.796 26.675-10.08 39.202-17.407 4.22-2.433.407-8.97-3.813-6.515z"/></g></svg>