<svg width="512" height="512" xmlns="http://www.w3.org/2000/svg"><path d="M392.976 475.759h-84.41a6.033 6.033 0 0 1-6.029-6.039v-18.373a211.57 211.57 0 0 1-43.48 4.522c-19.915 0-39.46-2.754-58.218-8.19v22.041a6.033 6.033 0 0 1-6.029 6.039h-77.205a6.033 6.033 0 0 1-6.029-6.039v-78.584c-10.258-12.212-18.394-25.648-24.11-39.913h-34.31a6.31 6.31 0 0 1-1.073-.094c-.275.027-.55.046-.827.058-13.695.758-25.18-15.17-26.186-36.034-.453-9.388 1.326-18.414 5.009-25.411 3.323-6.316 7.904-10.516 13.18-12.185a5.67 5.67 0 0 1 2.663-.68h.453c.43-.05.861-.089 1.298-.11l.007.137-.007-.137a17.34 17.34 0 0 1 2.985.11h29.297c5.39-32.246 16.554-53.575 38.622-73.907l-9.164-39.123a6.043 6.043 0 0 1 2.19-6.162 6.014 6.014 0 0 1 6.503-.553l34.077 18.098c29.883-19.209 65.816-28.94 106.873-28.94 94.479 0 172.31 62.017 180.585 140.867 4.888-2.026 11.99-5.765 19.323-12.354 13.067-11.748 15.498-25.242 15.52-25.377a6.026 6.026 0 0 1 6.957-4.935 6.033 6.033 0 0 1 4.926 6.968c-.123.72-3.192 17.806-19.352 32.331-10.595 9.522-20.84 14.029-26.653 16.004.002.428.004.858.004 1.285 0 35.901-14.668 70.75-41.363 98.4v70.244a6.03 6.03 0 0 1-6.027 6.036zm-45.779-12.077h39.75v-66.674c0-1.6.635-3.133 1.761-4.266 25.538-25.648 39.604-58.204 39.604-91.665 0-78.693-75.928-142.713-169.256-142.713-39.893 0-74.521 9.659-102.92 28.708l-26.947 22.576c-22.925 20.274-33.256 40.372-38.1 74.126a6.035 6.035 0 0 1-5.969 5.18H67.073c3.877 6.307 6.383 14.615 6.829 23.847.49 10.16-1.616 19.452-5.54 26.346h48.428c.101 0 .202.002.306.007.4.031 11.242.321 18.901-8.306a6.031 6.031 0 0 1 4.329-2.024c1.659-.102 3.265.59 4.44 1.765l6.197 6.208a6.045 6.045 0 0 1 0 8.538 6.022 6.022 0 0 1-8.527 0l-2.081-2.085c-10.256 8.043-21.92 8.031-23.669 7.973h-16.125c9.617 21.566 25.402 40.952 46.06 56.458a6.045 6.045 0 0 1 2.412 4.833v51.17h39.75v-24.208c0-1.942.934-3.766 2.506-4.898a5.996 5.996 0 0 1 5.433-.829c19.924 6.666 40.894 10.045 62.337 10.045 27.731 0 55.27-5.808 79.636-16.796a6.017 6.017 0 0 1 5.748.435 6.045 6.045 0 0 1 2.757 5.072v31.177h-.003zm-32.603 0h20.546v-22.085a200.79 200.79 0 0 1-20.546 6.832v15.253zm-190.96 0h13.34v-48.18a172.402 172.402 0 0 1-13.34-11.512v59.692zm-85.668-142.21c2.173 10.704 7.775 17.875 12.709 17.655.27-.014.54-.05.81-.108.063-.017.128-.037.193-.051a6.37 6.37 0 0 0 .485-.145c4.053-1.442 7.907-7.826 9.226-16.617-4.353-.208-7.833-3.819-7.833-8.23 0-4.214 3.176-7.7 7.257-8.182-.938-4.268-2.467-8.142-4.46-11.178-1.996-3.043-4.282-5-6.474-5.599a5.71 5.71 0 0 0-.617-.125c-.075-.013-.152-.025-.225-.04-.226-.026-.46-.028-.675-.03a4.821 4.821 0 0 1-.46.077l-.058.01c-.174.021-.348.038-.516.072-.097.022-.19.041-.287.055-2.257.677-4.5 2.913-6.299 6.333-1.606 3.049-2.723 6.814-3.28 10.898 3.102 1.181 5.313 4.19 5.313 7.705a8.25 8.25 0 0 1-4.809 7.5zm23.58-11.326a3.842 3.842 0 0 0-3.593 3.83 3.84 3.84 0 0 0 3.831 3.839h.034c.068-1.437.07-2.915-.002-4.435a49.254 49.254 0 0 0-.27-3.234zm-24.472.95c-.031 1.15-.02 2.31.039 3.477.034.713.084 1.418.15 2.111a3.822 3.822 0 0 0 1.118-2.707c0-1.15-.506-2.179-1.307-2.882zm87.11-137.069l4.711 20.122 12.873-10.782-17.585-9.34zm22.515 102.66c-10.379 0-18.821-8.456-18.821-18.851 0-10.396 8.442-18.854 18.821-18.854 10.379 0 18.822 8.458 18.822 18.854 0 10.395-8.443 18.851-18.822 18.851zm0-25.629c-3.73 0-6.764 3.041-6.764 6.778 0 3.736 3.034 6.775 6.764 6.775 3.73 0 6.764-3.039 6.764-6.775 0-3.737-3.033-6.778-6.764-6.778zm71.972.945a6.036 6.036 0 0 1-6.028-6.041c0-.222-.05-22.602-4.457-42.024-2.093-9.229-4-14.832-5.276-17.98-5.013 1.341-13.596 4.411-20.082 10.8-6.726 6.625-10.678 15.182-10.717 15.267a6.035 6.035 0 0 1-7.984 2.987 6.038 6.038 0 0 1-2.993-7.985c.195-.432 4.869-10.634 13.239-18.88 12.62-12.43 30.3-14.96 31.047-15.064a6.03 6.03 0 0 1 5.66 2.393c.726.983 4.567 6.85 8.862 25.788 4.712 20.774 4.756 43.737 4.756 44.705a6.026 6.026 0 0 1-6.027 6.034zm79.805-66.897c-.8 0-1.613-.16-2.394-.5-.14-.058-14.025-5.958-33.235-5.958-19.439 0-36.034 6.02-36.2 6.084-3.124 1.152-6.587-.454-7.74-3.577a6.04 6.04 0 0 1 3.565-7.751c.752-.278 18.696-6.83 40.375-6.83 21.855 0 37.39 6.675 38.04 6.958a6.04 6.04 0 0 1 3.116 7.949 6.029 6.029 0 0 1-5.527 3.625zm-37.016-62.005c-23.668 0-42.926-19.287-42.926-42.998 0-23.706 19.258-42.994 42.926-42.994 23.669 0 42.927 19.286 42.927 42.994.002 23.709-19.256 42.998-42.927 42.998zm0-73.916c-17.022 0-30.869 13.869-30.869 30.918 0 17.05 13.85 30.921 30.87 30.921 17.02 0 30.868-13.871 30.868-30.92 0-17.05-13.846-30.919-30.869-30.919z" fill-rule="evenodd"/></svg>