<svg width="512" height="512" xmlns="http://www.w3.org/2000/svg"><g fill="#010002" fill-rule="evenodd"><path d="M459.305 103.227c0-38.806-60.179-69.227-137.01-69.227-63.968 0-117.29 20.74-132.698 51.602l-.908 1.795 2.005-.099c3.65-.197 7.546-.295 11.88-.343h.614l.343-.492c16.75-23.582 65.586-40.086 118.761-40.086 67.576 0 124.645 26.031 124.645 56.844 0 27.184-46.544 51.872-105.93 56.188l-1.104.074v12.409l1.269-.073c47.324-3.161 86.478-17.774 105.767-39.324v18.215c0 19.83 0 66.239-105.904 70.875l-1.13.048v12.36l1.244-.049c53.027-2.325 88.566-15.277 105.79-38.513v13.212c0 19.806 0 66.213-105.904 70.85l-1.13.048V291.9l1.244-.048c53.01-2.303 88.566-15.277 105.79-38.514v13.236c0 19.806 0 66.238-105.904 70.85l-1.13.048v12.377l1.244-.073c53.027-2.303 88.591-15.268 105.79-38.514v17.799c0 19.978 0 66.778-107.82 70.923l-.901.048-.197.886c-.786 3.433-1.84 6.79-3.157 9.951l-.712 1.687 1.841-.048c123.312-3.726 123.312-61.652 123.312-83.447v-48.678h-.631c.63-5.447.63-10.22.63-13.81v-48.681h-.212c.213-3.628.213-6.839.213-9.24v-47.506l-.238-.908c.238-3.726.238-7.035.238-9.51v-47.5z"/><path d="M190.653 96.906c-76.806 0-136.985 30.421-136.985 69.227v47.515c0 2.793.025 5.807.27 9.24h-.277v48.661c0 2.801.025 5.84.27 9.272h-.27v48.661c0 3.53 0 8.28.71 13.8h-.71v48.687c0 21.255 0 85.994 137.918 85.994 136.052 0 136.052-62.487 136.052-85.994v-48.686h-.606c.606-5.415.606-10.222.606-13.801v-48.661h-.187c.187-3.628.187-6.864.187-9.272v-48.661h-.187c.187-3.628.187-6.839.187-9.24v-47.515c0-38.808-60.172-69.227-136.978-69.227zm0 126.08c-67.55 0-124.62-26.031-124.62-56.853 0-30.814 57.07-56.843 124.62-56.843 67.55 0 124.645 26.031 124.645 56.843 0 30.822-57.101 56.853-124.645 56.853zm.926 61.931c-125.546 0-125.546-51.78-125.546-71.269v-18.24c21.873 24.367 70.22 39.962 124.62 39.962 54.4 0 102.747-15.595 124.645-39.962v18.24c0 21.305 0 71.27-123.72 71.27zm0 57.908c-125.546 0-125.546-51.774-125.546-71.269v-14.318c19.493 26.578 61.702 40.029 125.546 40.029 62.993 0 104.58-13.089 123.712-38.93v13.212c.007 21.337.007 71.276-123.712 71.276zm0 57.926c-125.546 0-125.546-51.774-125.546-71.26v-14.318c19.493 26.572 61.702 40.036 125.546 40.036 62.993 0 104.58-13.098 123.712-38.93v13.212c.007 21.319.007 71.26-123.712 71.26zm0 64.844c-125.546 0-125.546-53.492-125.546-73.619v-18.904c19.493 26.571 61.702 40.06 125.546 40.06 62.993 0 104.58-13.097 123.712-38.93v17.774c.007 22.035.007 73.62-123.712 73.62z"/><path d="M251.323 137.04l-15.802 5.349c-7.79-1.868-16.284-2.843-24.566-2.843-9.313 0-17.856 1.22-24.688 3.53-6.44 2.162-9.697 4.684-10.236 7.895-.565 3.408 2.03 7.134 8.444 12.089 3.183 2.556 4.655 4.538 4.436 5.93-.172.959-1.352 2.4-5.998 3.973-4.116 1.375-9.084 2.112-14.403 2.112-6.194 0-12.445-.982-18.001-2.874-7.423-2.5-13.086-5.98-15.14-9.363l-.393-.664-16.678 2.646.711 1.449c1.564 3.185 7.03 6.815 14.524 9.804l-15.9 5.34 13.591 4.586 16.43-5.52c17.202 4.17 38.526 3.776 51.93-.762 7.422-2.474 11.17-5.241 11.776-8.722.564-3.237-1.71-6.79-7.127-11.132-2.669-2.227-6.147-5.365-5.827-7.16.197-1.022 1.841-2.055 4.852-3.087 2.669-.885 7.054-1.957 12.906-1.957 5.27 0 10.556.877 15.729 2.62 9.868 3.336 12.486 6.595 13.764 8.167l.442.515 17.046-2.573-1.327-1.622c-2.398-2.89-6.464-5.488-12.365-7.921l15.475-5.218-13.605-4.587zm41.217-53.788l2.497-1.598-15.482-3.062-.393.222c-3.935 2.252-6.245 6.079-6.146 10.05l-17.783-1.074 1.448 6.864 18.616 1.13c5.509 8.487 21.064 12.302 32.913 13.016 1.865.099 3.624.147 5.311.147 12.03 0 19.616-2.843 25.328-9.542 5.27-5.856 9.157-7.257 17.316-6.717 3.404.197 14.549 1.302 15.752 7.035.736 3.408-1.4 5.537-3.821 7.356l-2.088 1.566 15.089 3.087.441-.32c3.192-2.424 4.731-5.225 4.731-8.51l17.316 1.074-1.473-6.864-17.905-1.105c-4.51-6.642-16.628-11.467-31.202-12.352a67.236 67.236 0 0 0-4.338-.147c-11.48 0-18.886 3.113-24.754 10.37-4.067 4.758-9.36 6.447-18.347 5.857-9.82-.59-16.995-3.824-17.921-8.068-.89-4.222 3.128-7.284 4.895-8.415z"/></g></svg>