<svg width="512" height="512" xmlns="http://www.w3.org/2000/svg"><g fill-rule="evenodd"><path d="M451.849 200.617c-11.413-11.418-17.697-26.595-17.697-42.74 0-43.574-35.458-79.027-79.036-79.027-16.14 0-31.317-6.288-42.735-17.701C297.458 46.222 277.61 38 256.497 38c-21.106 0-40.954 8.222-55.881 23.15-11.413 11.413-26.591 17.7-42.735 17.7-43.579 0-79.032 35.453-79.032 79.032 0 16.145-6.289 31.318-17.701 42.736-14.928 14.927-23.15 34.771-23.145 55.882 0 21.11 8.222 40.96 23.15 55.882 11.412 11.419 17.696 26.596 17.696 42.735 0 43.58 35.453 79.032 79.032 79.032 16.144 0 31.321 6.288 42.74 17.7C215.542 466.78 235.39 475 256.502 475c21.107 0 40.955-8.222 55.883-23.15 11.418-11.413 26.591-17.701 42.735-17.701 43.579 0 79.032-35.453 79.032-79.032 0-16.144 6.287-31.316 17.701-42.735 14.928-14.926 23.149-34.771 23.144-55.882 0-21.11-8.222-40.96-23.15-55.883zm-13.144 98.618c-14.927 14.927-23.149 34.771-23.149 55.882 0 33.323-27.112 60.436-60.436 60.436-21.11 0-40.955 8.222-55.883 23.15-11.418 11.413-26.595 17.701-42.735 17.701-16.144 0-31.32-6.288-42.739-17.7-14.923-14.928-34.767-23.151-55.883-23.151-33.324 0-60.436-27.113-60.436-60.436 0-21.111-8.222-40.955-23.149-55.882-23.562-23.562-23.562-61.908 0-85.47 14.927-14.928 23.149-34.772 23.149-55.883 0-33.324 27.112-60.437 60.436-60.437 21.115 0 40.96-8.22 55.883-23.149 11.418-11.414 26.595-17.701 42.734-17.701 16.145 0 31.322 6.287 42.735 17.701 14.932 14.928 34.782 23.15 55.888 23.15 33.324 0 60.436 27.112 60.436 60.436 0 21.11 8.222 40.955 23.149 55.883 11.414 11.413 17.697 26.59 17.697 42.735 0 16.144-6.282 31.321-17.697 42.735z"/><path d="M256.503 89.737c-44.547 0-86.423 17.348-117.922 48.846-65.02 65.018-65.02 170.817 0 235.835 31.5 31.498 73.375 48.846 117.922 48.846 44.542 0 86.419-17.347 117.917-48.846 65.022-65.018 65.022-170.817 0-235.835-31.498-31.498-73.375-48.846-117.917-48.846zm104.77 271.532c-27.986 27.984-65.195 43.398-104.77 43.398-39.58 0-76.79-15.414-104.773-43.398-57.767-57.771-57.767-151.766 0-209.538 27.984-27.984 65.194-43.398 104.773-43.398 39.575 0 76.784 15.414 104.77 43.398 57.765 57.771 57.765 151.767 0 209.538z"/><path d="M181.866 275.25l31.216 31.217-55.006-7.423-10.133 10.124 48.486 48.487 10.825-10.82-30.383-30.38 53.481 7.281 10.824-10.818-48.487-48.487zm72.476 5.344l-10.051-10.057L266 248.823l-9.225-9.226-21.71 21.715-9.988-9.988 24.143-24.14-9.643-9.642L204.62 252.5l48.487 48.487 35.72-35.725-9.57-9.574zm48.849-126.671l18.242 37.537-36.42-19.359-11.313 11.31 19.286 36.492-37.455-18.319-11.722 11.718 65.412 31.562 8.044-8.045-23.162-44.251 44.32 23.095 8.044-8.045-31.562-65.412z"/></g></svg>