<svg width="512" height="512" xmlns="http://www.w3.org/2000/svg"><g fill-rule="evenodd"><path d="M380.61 159.937c-14.963-6-19.285-9.627-19.285-16.178 0-5.243 3.97-11.368 15.162-11.368 9.9 0 17.493 3.905 17.56 3.939a5.519 5.519 0 0 0 2.583.653 5.215 5.215 0 0 0 4.878-3.34l2.72-6.954c.946-2.534-.49-4.742-2.322-5.534-6.096-2.653-18.008-4.707-18.13-4.728-.191-.034-.859-.177-.859-.958l-.038-10.087c0-3.037-2.536-5.51-5.65-5.51h-4.878c-3.11 0-5.645 2.471-5.645 5.512l.013 10.605c0 .813-.881 1.166-1.203 1.24-15.037 3.583-24.434 14.6-24.434 28.498 0 17.324 14.317 25.152 29.776 31.029 12.358 4.853 17.4 9.774 17.4 16.991 0 7.854-7.14 13.34-17.37 13.34-8.733 0-20.554-5.538-20.671-5.595a5.522 5.522 0 0 0-2.383-.539 5.278 5.278 0 0 0-4.991 3.468l-2.597 7.033c-.923 2.625.498 4.757 2.317 5.705 7.26 3.782 21.308 5.998 21.933 6.096.168.024 1.023.324 1.023 1.106v10.559c0 3.038 2.536 5.51 5.65 5.51h5.042c3.116 0 5.652-2.471 5.652-5.51v-11.112c0-1.039.766-1.13.924-1.169 16.02-3.6 25.887-15.323 25.887-30.042-.004-15.12-8.398-24.89-28.064-32.66z"/><path d="M374.311 37.718c-73.126 0-132.402 59.294-132.402 132.432 0 73.14 59.276 132.434 132.402 132.434 73.124 0 132.401-59.295 132.401-132.434 0-73.138-59.277-132.432-132.4-132.432zm0 234.174c-56.18 0-101.718-45.553-101.718-101.74 0-56.189 45.538-101.74 101.718-101.74 56.177 0 101.714 45.551 101.714 101.74 0 56.187-45.537 101.74-101.714 101.74zm105.499 94.866c-28.156 15.543-66.88 29.914-105.497 35.973-34.36 5.39-98.998-7.609-98.998-22.96 0-5.817 56.69 14.334 90.983 5.182 26.296-7.017 22.563-31.62 8.26-34.866-14.22-3.228-97.53-33.755-133.115-34.808-16.763-.495-58.148 5.832-78.174 9.094-6.86 1.116-11.162.994-11.59 7.56-1.994 30.518-5.921 92.927-8.062 125.526-.045.689.912 9.952 8.554 3.433 8.364-7.134 20.096-15.042 30.947-12.58 17.024 3.863 164.306 30.851 184.62 26.128 29.063-6.757 111.333-55.523 127.107-70.68 24.449-23.499 5.443-48.307-15.036-37.002zm-368.775-43.575l-77.157-3.803c-5.957-.294-12.04 4.197-13.521 9.974L6.327 456.756c-1.479 5.779 2.188 10.697 8.148 10.927l85.508-.008c5.962.23 11.209-4.448 11.666-10.397l9.39-122.748a10.527 10.527 0 0 0-10.004-11.347zM65.612 450.796c-11.783 0-21.333-9.553-21.333-21.337 0-11.785 9.552-21.337 21.333-21.337 11.781 0 21.333 9.553 21.333 21.337 0 11.785-9.55 21.337-21.333 21.337z"/></g></svg>