<svg width="512" height="512" xmlns="http://www.w3.org/2000/svg"><g fill-rule="evenodd"><path d="M409.06 344.817c9.085-18.422 9.68-40.635-6.038-54.977 7.096-20.87 1.252-47.061-19.843-54.808 3.757-12.857 4.748-27.316-2.076-38.868-6.16-10.428-18.704-13.15-30.06-12.85 12.347-26.633 31.018-59.868 55.623-83.775l3.46-3.356-2.909-3.843c-1.988-2.631-49.41-64.225-109.695-45.58l-4.163 1.288.329 4.339c.085 1.096 7.846 107.88-14.738 155.51a1057.294 1057.294 0 0 0-6.092 3.277c-3.297-10.198-7.34-20.463-12.173-30.3-9.828-22.758-25.04-52.76-45.614-78.467 9.707-8.526 4.758-22.528 1.086-29.908 12.884-11.195 31.902-23.811 53.857-26.106 2.158 6.025 7.188 16.704 16.192 19.791-.337-7.949-.687-12.81-.708-13.037l-.654-8.67 8.31-2.575c3.226-.997 6.487-1.74 9.77-2.344l-3.4-1.05c-60.291-18.642-107.71 42.948-109.698 45.579l-2.908 3.843 3.453 3.36c26.217 25.476 45.71 61.55 57.978 88.937-36.76 12.581-50.153 44.31-61.968 72.304-8.208 19.452-15.39 36.425-28.694 42.913l-.442-1.347-4.104-12.595-59.638 19.42 57.374 176.018 59.64-19.42-3.448-10.583c54.08-15.686 110.392-21.778 165.097-34.812 16.804-4.003 34.27-7.952 43.542-23.67 7.889-13.348 2.13-31.559-6.648-43.638zm-283.085-15.555l-5.677-17.421 17.419-5.672 5.678 17.415-17.42 5.678zM303.36 151.395c1.595 6.644 7.163 13.196 15.296 16.965 12.23 5.661 25.567 2.875 29.78-6.234 4.224-9.101-2.271-21.074-14.497-26.739-12.11-5.605-25.287-2.914-29.646 5.98 2.02-24.632 1.94-48.928 1.426-66.05 12.28-.031 18.764-13.588 21.304-20.675 21.95 2.295 40.97 14.915 53.857 26.107-3.676 7.38-8.625 21.378 1.086 29.907-19.28 24.091-33.834 51.93-43.676 74.069-15.3 2.698-30.314 8.674-44.69 15.66 4.828-14.415 7.895-31.533 9.76-48.99zm-54.204 30.621l-.081.113-.414-1.212c.166.367.336.742.495 1.1zm143.08 202.015c-14.225 8.805-34.783 11.241-50.826 14.491-45.465 9.215-95.307 15.261-139.917 28.231L164.43 315.89c20.68-8.61 33.21-32.743 42.214-54.083 10.16-24.077 20.702-48.91 47.022-58.885 3.283 7.96 5.466 15.544 8.105 24.809 1.401 4.925 7.061 6.071 11.09 3.868 21.244-11.602 44.267-24.13 68.486-28.299.173.06.353.1.523.167a4.23 4.23 0 0 0 .117-.283c.407-.067.807-.152 1.213-.212 7.334-1.128 19.22-1.878 22.956 6.386 2.798 6.18 1.815 13.543.499 19.957-.775 3.77-2.597 9.44-2.972 10.364-1.634 4.013-.07 9.954 5.013 10.558 19.44 2.302 22.216 24.36 14.894 39.413-1.33 2.73-1.033 6.944 1.673 8.857 15.381 10.856 12.83 28.065 4.284 42.74-1.182 2.022-1.175 5.573.417 7.415 8.427 9.745 16.295 26.69 2.271 35.37z"/><path d="M263.098 127.138c-12.226 5.664-18.721 17.637-14.498 26.739 4.217 9.105 17.55 11.895 29.78 6.234a32.22 32.22 0 0 0 5.137-3.002c1.26-10.064 2.084-20.442 2.593-30.573-6.11-3.178-14.801-3.2-23.012.602z"/></g></svg>