<svg width="512" height="512" xmlns="http://www.w3.org/2000/svg"><path d="M256 35C134.132 35 35 134.146 35 256s99.146 221 221 221 221-99.146 221-221c0-121.868-99.146-221-221-221zm0 415.259c-107.116 0-194.273-87.143-194.273-194.259 0-107.116 87.157-194.273 194.273-194.273S450.273 148.884 450.273 256 363.116 450.259 256 450.259zM274.91 256l45.373 45.388 2.79-18.357 26.424 4.033-8.246 54.187-54.2 8.246-4.02-26.423 18.33-2.79-45.375-45.375-45.581 45.568 17.03 2.597-4.019 26.423-54.186-8.246-8.232-54.2 26.423-4.034 2.983 19.642 46.673-46.673L190.39 209.3l-2.984 19.641-26.423-4.02 8.232-54.186 54.2-8.246 4.02 26.424-17.017 2.596 45.567 45.568 45.374-45.374-18.329-2.79 4.02-26.437 54.186 8.246 8.246 54.2-26.423 4.02-2.79-18.344-45.374 45.36.013.042z" fill="#444" fill-rule="evenodd"/></svg>