<svg width="512" height="512" xmlns="http://www.w3.org/2000/svg"><g fill-rule="evenodd"><path d="M208.422 385.854c11.708 0 23.137-1.155 34.196-3.328-.555-6.333 1.25-12.712 5.368-17.936L348.12 237.653c4.859-6.149 12.124-9.708 19.99-9.708 5.09 0 9.902 1.48 14.021 4.207a175.252 175.252 0 0 0 1.25-21.033c0-96.52-78.341-174.782-174.96-174.782-96.619 0-174.96 78.215-174.96 174.736 0 96.52 78.341 174.781 174.96 174.781zm32.623-150.328c-7.033-8.644-19.111-12.297-29.985-14.792-13.466-3.052-25.635-6.102-37.852-12.944-7.82-4.345-13.974-10.493-18.185-18.26-4.211-7.673-6.34-16.548-6.34-26.256 0-17.288 6.247-31.526 18.556-42.297 7.265-6.38 17.213-10.77 28.458-12.85v-9.431c0-6.38 5.183-11.557 11.568-11.557h6.293c6.386 0 11.569 5.178 11.569 11.557v9.569c10.411 2.034 19.712 6.102 26.653 11.88 7.358 6.102 12.772 13.868 16.103 23.16 2.453 6.841-2.035 14.191-9.208 15.254l-6.108.925a11.55 11.55 0 0 1-12.679-7.72c-1.48-4.3-3.423-7.859-5.876-10.586-5.506-6.194-14.206-9.708-23.83-9.708-10.273 0-19.945 3.976-25.914 10.679-4.905 5.5-7.265 11.788-7.265 19.322 0 7.35 2.083 13.591 6.155 18.491 8.514 10.262 22.489 13.036 35.954 15.763 7.867 1.572 16.01 3.236 23.09 6.333 7.543 3.329 13.79 7.443 18.556 12.204 4.812 4.807 8.56 10.632 11.152 17.242 2.592 6.565 3.887 13.776 3.887 21.45 0 16.78-5.46 31.017-16.15 42.25-8.791 9.245-20.776 15.347-34.52 17.797v6.98c0 6.38-5.182 11.557-11.568 11.557h-6.34c-6.385 0-11.567-5.177-11.567-11.556v-7.258c-7.59-1.433-14.854-3.883-21.379-7.257-7.681-3.976-14.39-10.401-19.944-19.138-3.701-5.825-6.385-12.573-8.005-20.155-1.388-6.379 2.915-12.62 9.347-13.729l6.247-1.109c5.97-1.017 11.707 2.681 13.188 8.552 1.76 6.887 4.119 12.296 7.08 16.087 6.618 8.505 17.584 13.59 29.291 13.59 1.99 0 3.98-.139 5.923-.462 8.376-1.248 15.872-5.224 21.101-11.141 5.507-6.287 8.33-14.192 8.33-23.483-.002-7.859-1.946-14.238-5.786-18.953z"/><path d="M303.514 476.92h129.148c6.386 0 11.569-5.177 11.569-11.556v-73.5h23.97c9.67 0 15.084-11.141 9.069-18.722L379.263 248.84l-2.082-2.635c-2.314-2.958-5.692-4.391-9.07-4.391s-6.756 1.48-9.07 4.391L258.906 373.142c-1.48 1.895-2.267 3.976-2.452 6.056-.602 6.333 4.256 12.666 11.521 12.666h23.97v73.5c0 6.38 5.183 11.556 11.569 11.556z"/></g></svg>