<svg width="512" height="512" xmlns="http://www.w3.org/2000/svg"><g fill-rule="evenodd"><path d="M468.683 183.333h-219.5c-4.39 0-7.316 2.927-7.316 7.317v278.033c0 4.39 2.926 7.317 7.316 7.317h219.5c4.39 0 7.317-2.927 7.317-7.317V190.65c0-4.39-2.927-7.317-7.317-7.317zm-7.316 14.634v43.9H256.5v-14.634h87.8V212.6h-87.8v-14.633h204.867zM256.5 461.367V256.5h204.867v204.867H256.5z"/><path d="M293.083 271.133h21.95v14.633h-21.95zm36.584 0h21.95v14.633h-21.95zm36.583 0h21.95v14.633h-21.95zm36.583 0h21.95v14.633h-21.95zM278.45 307.717h29.267v14.633H278.45zm43.9 0h29.267v14.633H322.35zm43.9 0h29.267v14.633H366.25zm43.9 0h29.267v14.633H410.15zm-131.7 29.266h29.267v14.633H278.45zm43.9 0h29.267v14.633H322.35zm43.9 0h29.267v14.633H366.25zm43.9 0h29.267v14.633H410.15zm-131.7 29.267h29.267v14.633H278.45zm43.9 0h29.267v14.633H322.35zm43.9 0h29.267v14.633H366.25zm43.9 0h29.267v14.633H410.15zm-131.7 29.267h29.267v14.633H278.45zm43.9 0h29.267v14.633H322.35zm43.9 0h29.267v14.633H366.25zm43.9 0h29.267v14.633H410.15zm-131.7 29.266h29.267v14.633H278.45zm43.9 0h29.267v14.633H322.35zm43.9 0h29.267v14.633H366.25zm43.9 0h29.267v14.633H410.15zM51.633 139.433h80.484c4.39 0 7.316-2.926 7.316-7.316V51.633H388.2v102.434h14.633V44.317c0-4.39-2.926-7.317-7.316-7.317h-263.4c-.732 0-1.464 0-2.195.732h-.732c-.732.731-1.463.731-2.195 1.463l-87.8 87.8c-.732.732-.732 1.463-1.463 2.195v.732c0 .731-.732 1.463-.732 2.195V212.6h14.633v-73.167zM124.8 124.8H61.877l31.461-31.462L124.8 61.877V124.8zm95.117 226.817h-80.484V249.183c0-4.39-2.926-7.316-7.316-7.316h-87.8c-4.39 0-7.317 2.926-7.317 7.316v219.5c0 4.39 2.927 7.317 7.317 7.317h175.6c4.39 0 7.316-2.927 7.316-7.317v-109.75c0-4.39-2.926-7.316-7.316-7.316zM51.633 366.25H124.8v21.95H51.633v-21.95zm73.167-14.633H51.633v-21.95H124.8v21.95zm0-36.584H51.633v-21.95H124.8v21.95zm-73.167 87.8H124.8v21.95H51.633v-21.95zm87.8 0H212.6v21.95h-73.167v-21.95zM212.6 388.2h-73.167v-21.95H212.6v21.95zM51.633 256.5H124.8v21.95H51.633V256.5zm0 182.917H124.8v21.95H51.633v-21.95zm160.967 21.95h-73.167v-21.95H212.6v21.95z"/><path d="M315.033 73.583h51.217v14.633h-51.217zm-80.483 36.584h131.7V124.8h-131.7zM358.933 212.6h21.95v14.633h-21.95z"/></g></svg>