<svg width="512" height="512" xmlns="http://www.w3.org/2000/svg"><path d="M318.081 125.952c6.56-1.675 11.477-5.495 5.451-11.866-.73-.762-1.9-.5-2.43.309-1.734 2.632-5.698 3.51-10.325 3.385 1.434-.418 2.57-1.153 3.216-2.344 2.344-4.333.106-8.001-3.286-11.073-1.222-1.122-2.613-1.825-4.082-2.225 9.126-16.113 19.011-35.358 25.628-53.396 15.516-42.144-48.722 28.843-70.873 16.319-22.153-12.51-13.282-51.808-50.941-14.103-26.516 26.571 14.692 50.908 41.398 62.999-5.409.757-10.809 1.231-16.137 1.221-5.993 0-11.973-.18-17.95-.674-4.829-.39-17.083-.83-19.373-6.436-.741-1.824-3.722-1.023-2.97.822 2.542 6.228 11.34 7.364 17.146 8.133 6.328.811 12.76 1.197 19.183 1.275-.078.01-.167.026-.245.036-15.762 2.059-31.669 4.562-46.898 9.228-5.412 1.66-19.129 5.403-18.058 13.392.26 1.939 3.348 1.97 3.087 0-1.2-9.004 25.733-13.162 31.285-14.369 15.542-3.375 31.37-5.49 47.202-7.08-39.674 19.531-92.95 72.232-104.85 138.713a97.726 97.726 0 0 1 29.494-4.538c29.699 0 57.492 13.275 76.258 36.41l.47.582a98.012 98.012 0 0 1 21.087-2.307c54.16 0 98.218 44.122 98.218 98.363 0 5.178-.403 10.254-1.177 15.22 34.728-21.64 57.213-59.844 57.213-116.71.005-78.318-52.944-132.403-106.74-159.286zm-18.232-12.164a663.875 663.875 0 0 0 5.08-8.667c.378.064.758.11 1.153.21 4.29 1.296 5.717 4.262 4.237 8.914-1.63.664-3.893.345-5.585.225-1.645-.106-3.26-.373-4.885-.682zm13.232 9.73c-2.23-1.04-4.45-2.032-6.678-2.984 6.361.732 12.486.152 15.951-2.94 2.558 4.352-5.386 5.541-8.733 5.909-.192.015-.357.01-.54.015zM203.676 314.776v-.097c.016.02.037.025.059.045-.022.021-.037.042-.059.052zm-26.53 108.108c2.05 6.098 4.738 11.878 7.955 17.339-4.9.917-9.928 1.449-15.086 1.449-45.598 0-82.558-37.023-82.558-82.681 0-45.66 36.96-82.678 82.558-82.678 25.882 0 48.962 11.947 64.098 30.61a90.169 90.169 0 0 0-17.295 8.144c-11.714-12.522-28.325-20.38-46.804-20.38-35.466 0-64.212 28.794-64.212 64.308 0 35.514 28.746 64.313 64.212 64.313a68.545 68.545 0 0 0 7.131-.424zm8.134-76.069c-8.18 13.746-12.969 29.73-12.969 46.858 0 4.741.467 9.378 1.174 13.934h-8.369v-65.114c-4.388 1.332-9.727 1.98-16.098 1.98h-4.59v-17.85h4.59c14.735 0 17.742-6.802 18.717-11.904l.709-3.725h16.837v35.821h-.001zm82.561-35.82c-45.595 0-82.561 37.02-82.561 82.678 0 45.652 36.961 82.676 82.561 82.676 45.597 0 82.556-37.024 82.556-82.676-.01-45.659-36.968-82.678-82.556-82.678zm0 146.99c-35.464 0-64.211-28.798-64.211-64.313 0-35.51 28.747-64.308 64.211-64.308 35.462 0 64.209 28.799 64.209 64.308 0 35.516-28.747 64.313-64.209 64.313zm-1.584-112.308h16.844v96.607h-20.164v-65.113c-4.395 1.334-9.725 1.99-16.101 1.99h-4.587v-17.85h4.587c14.74 0 17.74-6.8 18.729-11.908l.692-3.726z" fill-rule="evenodd"/></svg>