<svg width="512" height="512" xmlns="http://www.w3.org/2000/svg"><g fill-rule="evenodd"><path d="M385.797 220.814c-.011-.091-.018-.184-.031-.274-.065-.451-.15-.901-.272-1.345l-.005-.015a11.126 11.126 0 0 0-.422-1.23c-.047-.116-.098-.228-.149-.341a11.01 11.01 0 0 0-.429-.864c-.068-.124-.134-.248-.207-.37-.04-.066-.07-.134-.112-.2a11.36 11.36 0 0 0-.528-.753c-.035-.046-.063-.094-.097-.138-.28-.362-.58-.698-.896-1.016-.059-.06-.124-.116-.185-.174a11.238 11.238 0 0 0-.855-.746c-.076-.059-.15-.118-.228-.175-.397-.295-.806-.57-1.233-.807l-164.286-93.47 94.59-59.62 158.58 90.222-66.787 42.094c-5.212 3.284-6.776 10.176-3.495 15.392 3.281 5.217 10.166 6.783 15.378 3.498l82.548-52.028a11.16 11.16 0 0 0 5.207-9.697 11.16 11.16 0 0 0-5.638-9.452L315.669 36.567a11.143 11.143 0 0 0-11.452.258L188.293 109.89l-.071.045-57.928 36.51a4.901 4.901 0 0 0-.079.05L14.212 219.612a11.16 11.16 0 0 0-5.206 9.697 11.16 11.16 0 0 0 5.638 9.452L195.22 341.498a11.138 11.138 0 0 0 11.451-.258l82.549-52.029c5.212-3.283 6.776-10.176 3.494-15.391-3.28-5.217-10.166-6.785-15.377-3.499l-76.9 48.469-158.579-90.224 94.592-59.62 169.13 96.227v127.445c0 4.065 2.207 7.808 5.762 9.772a11.134 11.134 0 0 0 11.331-.327l58.002-36.558a11.163 11.163 0 0 0 5.21-9.444V222.12c0-.066-.011-.128-.013-.194-.007-.37-.031-.741-.075-1.113zm-57.914 151.587V258.68a11.16 11.16 0 0 0-5.641-9.703L157.86 155.453l36.59-23.063 158.578 90.222-13.884 8.751c-5.212 3.284-6.777 10.176-3.495 15.392a11.136 11.136 0 0 0 9.447 5.216c2.03 0 4.086-.555 5.93-1.718l12.556-7.913V349.9l-35.699 22.501z"/><path d="M484.794 184.21l-82.548 52.027c-5.212 3.284-6.776 10.176-3.494 15.392a11.136 11.136 0 0 0 9.447 5.216c2.03 0 4.086-.555 5.93-1.718l82.548-52.027c5.212-3.284 6.777-10.177 3.495-15.392-3.28-5.217-10.167-6.784-15.378-3.498zM277.336 314.967l-76.9 48.468L25.663 264c-5.35-3.045-12.161-1.175-15.204 4.187-3.044 5.36-1.171 12.173 4.184 15.22l180.576 102.737a11.138 11.138 0 0 0 11.451-.258l82.548-52.028c5.213-3.284 6.777-10.176 3.495-15.392-3.28-5.218-10.166-6.785-15.377-3.5zm207.458-86.111l-82.548 52.028c-5.212 3.283-6.776 10.176-3.494 15.392a11.136 11.136 0 0 0 9.447 5.215c2.03 0 4.086-.554 5.93-1.717l82.548-52.028c5.212-3.284 6.777-10.176 3.495-15.392-3.28-5.218-10.167-6.784-15.378-3.498z"/><path d="M277.336 359.613l-76.9 48.468-174.773-99.435c-5.35-3.045-12.161-1.174-15.204 4.188-3.044 5.359-1.171 12.173 4.184 15.219L195.219 430.79a11.138 11.138 0 0 0 11.451-.258l82.548-52.029c5.213-3.283 6.777-10.176 3.495-15.392-3.28-5.219-10.166-6.785-15.377-3.499zm207.458-86.11l-82.548 52.027c-5.212 3.284-6.776 10.176-3.494 15.392a11.136 11.136 0 0 0 9.447 5.216c2.03 0 4.086-.555 5.93-1.718l82.548-52.028c5.212-3.283 6.777-10.176 3.495-15.391-3.28-5.217-10.167-6.783-15.378-3.498z"/><path d="M277.336 404.26l-76.9 48.468-174.773-99.436c-5.35-3.044-12.161-1.174-15.204 4.188-3.044 5.359-1.171 12.173 4.184 15.22l180.576 102.737a11.138 11.138 0 0 0 11.451-.258l82.548-52.028c5.213-3.284 6.777-10.176 3.495-15.392-3.28-5.218-10.166-6.785-15.377-3.5z"/></g></svg>