<svg width="512" height="512" xmlns="http://www.w3.org/2000/svg"><g fill-rule="evenodd"><path d="M432.126 94.686c0-8.091-6.58-14.672-14.671-14.672-8.084 0-14.672 6.58-14.672 14.672 0 8.09 6.588 14.671 14.672 14.671 8.092 0 14.671-6.58 14.671-14.671zm-22.006 73.356a7.338 7.338 0 0 0-7.336 7.335v264.085c0 12.14-9.866 22.007-22.007 22.007H131.363c-12.133 0-22.007-9.866-22.007-22.007V182.714h271.42a7.328 7.328 0 0 0 7.335-7.336 7.333 7.333 0 0 0-7.335-7.335H102.021a7.338 7.338 0 0 0-7.335 7.335v264.085c0 20.224 16.461 36.678 36.678 36.678h249.413c20.224 0 36.679-16.453 36.679-36.678V175.378a7.335 7.335 0 0 0-7.337-7.336zm-44.015-66.021a7.328 7.328 0 0 0 7.336-7.335 7.333 7.333 0 0 0-7.336-7.336H292.75a7.338 7.338 0 0 0-7.336 7.336 7.333 7.333 0 0 0 7.336 7.335h73.356z"/><path d="M432.126 204.72a7.333 7.333 0 0 0 7.336 7.336 7.328 7.328 0 0 0 7.335-7.335v-58.686a7.333 7.333 0 0 0-7.335-7.335H72.679a7.338 7.338 0 0 0-7.336 7.335v58.686a7.333 7.333 0 0 0 7.336 7.335 7.328 7.328 0 0 0 7.335-7.335v-51.35h352.112v51.35z"/><path d="M180.418 197.664c-3.91-1.093-7.96 1.159-9.052 5.062a88.137 88.137 0 0 0-3.324 24.002c0 48.54 39.488 88.028 88.028 88.028 48.548 0 88.028-39.488 88.028-88.028a88.122 88.122 0 0 0-3.315-23.996c-1.093-3.895-5.194-6.132-9.053-5.061a7.337 7.337 0 0 0-5.061 9.052 73.485 73.485 0 0 1 2.758 20.004c0 40.456-32.908 73.356-73.356 73.356-40.441 0-73.356-32.9-73.356-73.356a73.8 73.8 0 0 1 2.757-20.012 7.327 7.327 0 0 0-5.054-9.051z"/><path d="M439.462 36H72.679C52.46 36 36 52.461 36 72.679v161.384c0 20.224 16.461 36.679 36.679 36.679a7.328 7.328 0 0 0 7.335-7.336 7.333 7.333 0 0 0-7.335-7.335c-12.133 0-22.007-9.866-22.007-22.007V72.679c0-12.133 9.874-22.007 22.007-22.007h366.784c12.14 0 22.007 9.874 22.007 22.007v161.384c0 12.141-9.867 22.007-22.007 22.007a7.338 7.338 0 0 0-7.336 7.336 7.333 7.333 0 0 0 7.336 7.335c20.224 0 36.678-16.454 36.678-36.679V72.68c0-20.218-16.454-36.679-36.68-36.679z"/><path d="M131.363 197.385a7.338 7.338 0 0 0-7.335 7.335v190.728a7.333 7.333 0 0 0 7.335 7.335c20.225 0 36.68 16.461 36.68 36.679a7.333 7.333 0 0 0 7.334 7.335h161.385a7.328 7.328 0 0 0 7.335-7.335c0-20.218 16.462-36.679 36.679-36.679a7.328 7.328 0 0 0 7.335-7.335V204.72a7.333 7.333 0 0 0-7.335-7.336 7.338 7.338 0 0 0-7.335 7.336v183.92c-22.455 3.228-40.265 21.031-43.487 43.486H182.193c-3.22-22.455-21.032-40.258-43.493-43.486V204.72c0-4.05-3.28-7.336-7.337-7.336z"/><path d="M234.063 212.056a7.328 7.328 0 0 0 7.336-7.335 7.333 7.333 0 0 0-7.336-7.336c-13.63 0-25.022 9.39-28.301 22.007h-1.042a7.338 7.338 0 0 0-7.335 7.336 7.333 7.333 0 0 0 7.335 7.335h1.042c3.278 12.625 14.671 22.007 28.301 22.007 16.19 0 29.343-13.16 29.343-29.342 0-8.091 6.587-14.672 14.671-14.672 8.091 0 14.672 6.58 14.672 14.672 0 8.09-6.58 14.671-14.672 14.671a7.338 7.338 0 0 0-7.335 7.336 7.333 7.333 0 0 0 7.335 7.335c13.637 0 25.03-9.382 28.308-22.007h1.035a7.328 7.328 0 0 0 7.335-7.335 7.333 7.333 0 0 0-7.335-7.336h-1.035c-3.278-12.617-14.671-22.007-28.308-22.007-16.183 0-29.342 13.168-29.342 29.343 0 8.09-6.58 14.671-14.672 14.671-8.084 0-14.671-6.58-14.671-14.671 0-8.092 6.587-14.672 14.671-14.672z"/></g></svg>