<svg width="512" height="512" xmlns="http://www.w3.org/2000/svg"><g fill-rule="evenodd"><path d="M174.967 226.533H189.7v14.733h-14.733zm0 29.467H189.7v14.733h-14.733zm0-125.233H189.7c20.627 0 36.833-16.207 36.833-36.834v-22.1C226.533 51.207 210.327 35 189.7 35h-14.733c-20.627 0-36.834 16.207-36.834 36.833v22.1c0 20.627 16.207 36.834 36.834 36.834zm-22.1-58.934c0-12.523 9.576-22.1 22.1-22.1H189.7c12.523 0 22.1 9.577 22.1 22.1v22.1c0 12.524-9.577 22.1-22.1 22.1h-14.733c-12.524 0-22.1-9.576-22.1-22.1v-22.1z"/><path d="M469.633 285.467h-198.9V189.7c0-28.73-22.836-51.567-51.566-51.567H145.5c-28.73 0-51.567 22.837-51.567 51.567v95.767H42.367c-4.42 0-7.367 2.946-7.367 7.366v44.2c0 4.42 2.947 7.367 7.367 7.367h22.1V477H79.2V344.4h324.133v-14.733h-353.6V300.2h412.534v29.467h-22.1c-4.42 0-7.367 2.946-7.367 7.366V477h14.733V344.4h22.1c4.42 0 7.367-2.947 7.367-7.367v-44.2c0-4.42-2.947-7.366-7.367-7.366zm-274.776-132.6l-11.787 30.94-11.787-30.94h23.574zm-86.19 36.833c0-20.627 16.206-36.833 36.833-36.833h9.577l20.626 54.513c.737 2.21 3.684 4.42 6.63 4.42 2.947 0 5.894-2.21 8.104-4.42l20.626-54.513h8.104c20.626 0 36.833 16.206 36.833 36.833v95.767h-22.1V211.8h-14.733v73.667H145.5V211.8h-14.733v73.667h-22.1V189.7z"/><path d="M469.633 57.1h-176.8c-4.42 0-7.366 2.947-7.366 7.367V167.6c0 4.42 2.946 7.367 7.366 7.367h36.834v29.466c0 2.947 1.473 5.894 4.42 6.63.736.737 2.21.737 2.946.737 2.21 0 3.684-.737 5.157-2.21l34.623-34.623h92.82c4.42 0 7.367-2.947 7.367-7.367V64.467c0-4.42-2.947-7.367-7.367-7.367zm-7.366 103.133h-88.4c-2.21 0-3.684.737-5.157 2.21l-24.31 24.31V167.6c0-4.42-2.947-7.367-7.367-7.367H300.2v-88.4h162.067v88.4z"/><path d="M322.3 93.933h44.2v14.733h-44.2zm58.933 0h44.2v14.733h-44.2zM322.3 123.4h117.867v14.733H322.3zm-29.467 257.833h-73.666c-4.42 0-7.367 2.947-7.367 7.367v44.2c0 4.42 2.947 7.367 7.367 7.367h73.666c4.42 0 7.367-2.947 7.367-7.367v-44.2c0-4.42-2.947-7.367-7.367-7.367zm-7.366 44.2h-58.934v-29.466h58.934v29.466zm44.2-36.833H344.4v14.733h-14.733zm29.466 0h14.733v14.733h-14.733zm29.467 0h14.733v14.733H388.6zm-58.933 29.467H344.4V432.8h-14.733zm29.466 0h14.733V432.8h-14.733zm29.467 0h14.733V432.8H388.6zM108.667 388.6H123.4v14.733h-14.733zm29.466 0h14.733v14.733h-14.733zm29.467 0h14.733v14.733H167.6zm-58.933 29.467H123.4V432.8h-14.733zm29.466 0h14.733V432.8h-14.733zm29.467 0h14.733V432.8H167.6z"/></g></svg>