<svg width="512" height="512" xmlns="http://www.w3.org/2000/svg"><path d="M474.363 476.175H271.307l73.506-73.87-22.983-23.08h33.088l-41.473-41.662c92.684 9.126 160.918 44.571 160.918 138.612zm-283.806-96.981h-33.088l41.457-41.631C106.236 346.689 38 382.143 38 476.175h203.084l-73.507-73.87 22.98-23.111zm148.293-191.79c-2.994 41.381-20.572 89.697-45.82 115.607h97.561V193.698C390.591 79.406 330.421 36 256.197 36c-74.223 0-134.402 43.406-134.402 157.698v109.31h97.546c-24.4-25.049-41.76-71.128-45.588-111.559l.979-.075c41.96 0 78.25-17.447 98.17-43.216 14.566 18.824 37.952 32.925 65.948 39.244v.002z" fill-rule="evenodd"/></svg>