<svg width="512" height="512" xmlns="http://www.w3.org/2000/svg"><path d="M451.236 398.033l-62.64-102.957c18.775-6.678 30.035-25.873 26.696-45.508-3.339-19.635-20.312-34.035-40.241-34.14a39.953 39.953 0 0 0-18.84 4.881L278.914 98.901c13.832-17.021 11.66-41.94-4.91-56.314-16.568-14.374-41.56-13.023-56.48 3.055-14.92 16.078-14.389 41.084 1.2 56.515L146.086 216.29a39.713 39.713 0 0 0-8.274-.867c-20.076.102-37.127 14.714-40.29 34.527-3.164 19.812 8.49 39.001 27.537 45.343L64.54 394.727c-.53-.017-1.003-.162-1.534-.162-21.165-.134-38.964 15.833-41.107 36.877-2.144 21.043 12.07 40.267 32.83 44.398 20.757 4.131 41.257-8.184 47.343-28.443 6.087-20.259-4.234-41.822-23.836-49.802l60.01-98.57 61.578 101.163c-19.879 6.794-31.276 27.633-26.265 48.023 5.01 20.39 24.77 33.581 45.537 30.4 20.767-3.181 35.666-21.683 34.335-42.636-1.331-20.954-18.451-37.424-39.453-37.955l-62.663-102.954a40.898 40.898 0 0 0 27.095-34.577 40.886 40.886 0 0 0-19.877-39.169l71.009-111.557a39.496 39.496 0 0 0 39.39-1.936l76.663 120.439a40.867 40.867 0 0 0-10.11 38.11 40.895 40.895 0 0 0 26.81 28.926l-60.49 99.426c-.549-.016-1.003-.162-1.553-.162-21.147-.118-38.92 15.845-41.05 36.871-2.13 21.026 12.078 40.226 32.82 44.348 20.74 4.12 41.219-8.187 47.298-28.428 6.08-20.242-4.23-41.785-23.815-49.76l60-98.57 61.576 101.162c-19.918 6.783-31.355 27.644-26.356 48.07 4.999 20.427 24.78 33.658 45.581 30.488 20.802-3.169 35.739-21.688 34.42-42.676-1.318-20.987-18.456-37.494-39.491-38.038zm-360.61 37.605c-.109 15.216-12.52 27.473-27.745 27.401-15.225-.072-27.52-12.446-27.484-27.661.036-15.216 12.389-27.532 27.614-27.532 15.297.073 27.65 12.505 27.615 27.792zm149.7 3.325c-.104 15.218-12.515 27.48-27.743 27.41-15.228-.072-27.524-12.45-27.485-27.667.038-15.219 12.397-27.533 27.625-27.527 15.295.066 27.647 12.499 27.603 27.784zM137.803 284.302a27.813 27.813 0 0 1-25.836-17.018 27.782 27.782 0 0 1 5.897-30.357 27.826 27.826 0 0 1 30.331-6.121 27.795 27.795 0 0 1 17.223 25.691c.049 15.295-12.31 27.739-27.615 27.805zm190.064 151.336c-.117 15.202-12.521 27.442-27.733 27.368-15.211-.075-27.494-12.437-27.461-27.64.032-15.201 12.368-27.51 27.58-27.52 15.3.066 27.657 12.502 27.614 27.792zM219.872 73.058c.113-15.217 12.528-27.47 27.754-27.393 15.225.077 27.516 12.456 27.474 27.672-.042 15.216-12.4 27.527-27.626 27.521-15.297-.072-27.647-12.51-27.602-27.797v-.004zm127.6 183.439c.121-15.21 12.538-27.452 27.757-27.367 15.22.085 27.499 12.465 27.45 27.675-.05 15.21-12.408 27.51-27.628 27.497-15.293-.08-27.633-12.522-27.579-27.805zm102.532 210.252a27.804 27.804 0 0 1-25.846-16.996 27.772 27.772 0 0 1 5.882-30.356 27.816 27.816 0 0 1 30.327-6.125 27.785 27.785 0 0 1 17.216 25.691c.034 15.272-12.297 27.696-27.579 27.786z" fill-rule="evenodd"/></svg>