<svg width="512" height="512" xmlns="http://www.w3.org/2000/svg"><path d="M53.555 311.262C38.333 311.262 26 323.595 26 338.826c0 15.222 12.333 27.571 27.555 27.571h71.25l-13.18 13.182c-10.766 10.765-10.766 28.213 0 38.989a27.482 27.482 0 0 0 19.481 8.075 27.493 27.493 0 0 0 19.482-8.068l52.158-52.178H457.71c15.221 0 27.562-12.341 27.562-27.571 0-15.23-12.333-27.568-27.562-27.568H257.866l73.476-73.504H457.71c15.221 0 27.562-12.34 27.562-27.563 0-15.227-12.333-27.568-27.562-27.568h-71.243l49.92-49.938c10.762-10.768 10.762-28.216 0-38.985-10.764-10.768-28.199-10.76-38.963 0l-88.894 88.927H53.555C38.333 182.627 26 194.964 26 210.194c0 15.223 12.333 27.564 27.555 27.564h199.843l-73.483 73.504H53.555z" fill-rule="evenodd"/></svg>