<svg width="512" height="512" xmlns="http://www.w3.org/2000/svg"><g fill-rule="evenodd"><path d="M467.7 190.3H44.3c-4.38 0-7.3 2.92-7.3 7.3v102.2c0 4.38 2.92 7.3 7.3 7.3h146v-14.6H51.6v-87.6h292v87.6h-21.9v14.6h146c4.38 0 7.3-2.92 7.3-7.3V197.6c0-4.38-2.92-7.3-7.3-7.3zm-7.3 102.2H358.2v-87.6h102.2v87.6zm-167.9 58.4h-73c-28.47 0-51.1 22.63-51.1 51.1v73H183v-73c0-20.44 16.06-36.5 36.5-36.5h9.49l20.44 54.02c.73 2.19 3.65 4.38 6.57 4.38 2.92 0 5.84-2.19 8.03-4.38l20.44-54.02h8.03c20.44 0 36.5 16.06 36.5 36.5v73h14.6v-73c0-28.47-22.63-51.1-51.1-51.1zm-35.77 45.26l-11.68-30.66h23.36l-11.68 30.66z"/><path d="M248.7 431.2h14.6v14.6h-14.6zm0 29.2h14.6V475h-14.6zm0-116.8h14.6c20.44 0 36.5-16.06 36.5-36.5v-21.9c0-20.44-16.06-36.5-36.5-36.5h-14.6c-20.44 0-36.5 16.06-36.5 36.5v21.9c0 20.44 16.06 36.5 36.5 36.5zm-21.9-58.4c0-12.41 9.49-21.9 21.9-21.9h14.6c12.41 0 21.9 9.49 21.9 21.9v21.9c0 12.41-9.49 21.9-21.9 21.9h-14.6c-12.41 0-21.9-9.49-21.9-21.9v-21.9zm-21.9 138.7h14.6V475h-14.6zm87.6 0h14.6V475h-14.6zm-219-197.1h21.9v14.6H73.5zm36.5 0h21.9v14.6H110zm36.5 0h21.9v14.6h-21.9zm36.5 0h21.9v14.6H183zM73.5 256h21.9v14.6H73.5zm36.5 0h21.9v14.6H110zm36.5 0h21.9v14.6h-21.9zm262.8 21.9c16.06 0 29.2-13.14 29.2-29.2s-13.14-29.2-29.2-29.2-29.2 13.14-29.2 29.2 13.14 29.2 29.2 29.2zm0-43.8c8.03 0 14.6 6.57 14.6 14.6s-6.57 14.6-14.6 14.6-14.6-6.57-14.6-14.6 6.57-14.6 14.6-14.6zM88.1 139.2h100.01l41.61 27.74c1.46.73 2.92 1.46 4.38 1.46s2.19 0 3.65-.73c2.19-1.46 3.65-3.65 3.65-6.57V44.3c0-4.38-2.92-7.3-7.3-7.3h-146c-4.38 0-7.3 2.92-7.3 7.3v87.6c0 4.38 2.92 7.3 7.3 7.3zm7.3-87.6h131.4v96.36l-32.12-21.9c-1.46-.73-2.92-1.46-4.38-1.46H95.4v-73zm178.85 116.07c1.46.73 2.19.73 3.65.73s2.92-.73 4.38-1.46l41.61-27.74H423.9c4.38 0 7.3-2.92 7.3-7.3V44.3c0-4.38-2.92-7.3-7.3-7.3h-146c-4.38 0-7.3 2.92-7.3 7.3v116.8c0 2.92 1.46 5.11 3.65 6.57zM285.2 51.6h131.4v72.27h-94.9c-1.46 0-2.92.73-4.38 1.46l-32.12 21.9V51.6z"/><path d="M110 66.2h51.1v14.6H110zm65.7 0h29.2v14.6h-29.2zM110 95.4h51.1V110H110zm65.7 0h29.2V110h-29.2zm124.1-29.2h51.1v14.6h-51.1zm65.7 0h29.2v14.6h-29.2zm-65.7 29.2h51.1V110h-51.1zm65.7 0h29.2V110h-29.2zM37 460.4h14.6V475H37zm29.2 0h14.6V475H66.2zm29.2 0H110V475H95.4zm29.2 0h14.6V475h-14.6zm-58.4-29.2h14.6v14.6H66.2zm29.2 0H110v14.6H95.4zm29.2 0h14.6v14.6h-14.6zM95.4 402H110v14.6H95.4zm29.2 0h14.6v14.6h-14.6zm0-29.2h14.6v14.6h-14.6zm248.2 87.6h14.6V475h-14.6zm29.2 0h14.6V475H402zm29.2 0h14.6V475h-14.6zm29.2 0H475V475h-14.6zm-87.6-29.2h14.6v14.6h-14.6zm29.2 0h14.6v14.6H402zm29.2 0h14.6v14.6h-14.6zM372.8 402h14.6v14.6h-14.6zm29.2 0h14.6v14.6H402zm-29.2-29.2h14.6v14.6h-14.6z"/></g></svg>