<svg width="512" height="512" xmlns="http://www.w3.org/2000/svg"><g fill-rule="evenodd"><path d="M249.659 366.331c-5.42 0-8.921.464-10.994.923v67.867c2.077.464 5.423.464 8.446.464 21.982.15 36.324-11.54 36.324-36.32.155-21.548-12.906-32.934-33.776-32.934zm-93.858-.304c-4.936 0-8.282.459-10.039.918v30.63c2.075.458 4.625.617 8.117.617 12.916 0 20.878-6.313 20.878-16.93.001-9.54-6.854-15.235-18.956-15.235z"/><path d="M419.95 142.503c-.026-2-.683-3.975-2.105-5.537l-87.052-96.041c-.018-.027-.051-.036-.07-.06-.518-.56-1.114-1.022-1.754-1.429-.19-.119-.39-.225-.589-.334a9.251 9.251 0 0 0-1.746-.706c-.155-.046-.311-.111-.475-.152a8.916 8.916 0 0 0-2.023-.244h-213.94c-9.76 0-17.704 7.674-17.704 17.102v401.886c0 9.432 7.944 17.102 17.705 17.102H402.33c9.76 0 17.706-7.67 17.706-17.102V143.46c0-.322-.052-.637-.087-.958zM188.936 405.265c-8.282 7.54-20.55 10.93-34.893 10.93-3.182 0-6.058-.158-8.28-.458v37.084h-24.058V350.479c7.485-1.228 18.006-2.155 32.826-2.155 14.973 0 25.65 2.772 32.817 8.309 6.855 5.235 11.463 13.853 11.463 24.007 0 10.162-3.497 18.78-9.875 24.625zm102.453 35.247c-11.3 9.077-28.507 13.385-49.532 13.385-12.59 0-21.506-.767-27.571-1.535V350.479c8.924-1.378 20.56-2.155 32.825-2.155 20.383 0 33.61 3.54 43.971 11.08 11.156 8.004 18.168 20.777 18.168 39.089-.01 19.857-7.496 33.552-17.861 42.02zm99.444-72.18H349.56v23.698h38.557v19.09H349.56v41.7h-24.37V349.1h65.642v19.232zm-280.636-39.961V55.102h205.086v87.499c0 4.72 3.96 8.55 8.853 8.55h78.195l.01 177.22H110.196z"/><path d="M347.089 221.79c-.52-.047-12.994-1.147-32.142-1.147-6 0-12.042.113-18.008.33-37.814-27.41-68.787-54.84-85.368-70.214.302-1.693.51-3.03.607-4.058 2.187-22.3-.244-37.354-7.201-44.745-4.556-4.83-11.247-6.438-18.224-4.597-4.333 1.096-12.354 5.156-14.922 13.421-2.835 9.134 1.722 20.219 13.695 33.074.19.194 4.254 4.307 11.637 11.275-4.799 22.1-17.36 69.79-23.454 92.69-14.314 7.388-26.24 16.287-35.473 26.496l-.605.668-.391.802c-.951 1.93-5.496 11.945-2.084 19.99 1.558 3.659 4.478 6.33 8.445 7.734l1.063.276s.959.2 2.645.2c7.385 0 25.615-3.748 35.393-38.553l2.369-8.819c34.13-16.024 76.794-21.193 107.718-22.633 15.907 11.394 31.736 21.86 47.073 31.13l.5.28c.744.367 7.47 3.575 15.346 3.582 11.255 0 19.477-6.672 22.538-18.3l.154-.795c.856-6.645-.872-12.634-4.996-17.317-8.687-9.863-24.862-10.723-26.315-10.77zm-199.505 69.363a.78.78 0 0 1-.136-.238c-.734-1.707.147-5.85 1.444-8.884 5.567-6.013 12.25-11.532 19.961-16.501-7.51 23.481-18.431 25.511-21.269 25.623zm47.683-156.01c-11.533-12.401-11.36-18.549-10.74-20.619 1.018-3.459 5.613-4.766 5.653-4.778 2.314-.608 3.72-.488 4.97.838 2.829 3.001 5.258 12.06 4.299 28.675a327.006 327.006 0 0 1-4.182-4.117zm-5.96 105.595l.2-.734-.026.008c5.774-21.846 14.102-53.835 18.89-74.383l.174.16.017-.099c15.492 14.092 39.246 34.703 67.688 56.14l-.32.013.471.343c-26.794 2.186-58.796 7.288-87.093 18.552zm175.963 7.167c-2.04 7.241-5.965 8.231-9.562 8.231-4.175 0-8.195-1.678-9.111-2.084-10.444-6.323-21.128-13.212-31.91-20.583h.26c18.483 0 30.793 1.083 31.277 1.117 3.087.11 12.856 1.504 17.066 6.285 1.65 1.874 2.282 4.113 1.98 7.034z"/></g></svg>