<svg width="512" height="512" xmlns="http://www.w3.org/2000/svg"><path d="M467.472 280.12c4.132-5.387 6.146-12.344 4.3-19.455L417.498 51.783c-3.142-12.085-15.373-19.317-27.237-16.113l-346.8 92.845c-11.819 3.174-18.971 15.64-15.86 27.678l54.26 208.868c3.126 12.054 15.417 19.286 27.266 16.143L231.661 348.4v69.928c0 39.122 63.837 59.598 126.941 59.598 63.074 0 127.002-20.476 127.002-59.598v-106.06c0-12.756-6.863-23.451-18.147-32.149h.015zm-39.269-72.003l5.673 21.742-68.93 18.508-5.627-21.788 68.9-18.447-.016-.015zM388.187 70.504l10.782 41.41-107.696 28.869-10.766-41.426 107.68-28.853zm-48.312 161.247l5.505 21.27c-25.483 1.16-50.279 5.676-70.21 13.412l-4.21-16.158 68.915-18.524zM99.87 319.317l-5.627-21.712 68.915-18.508 5.673 21.834-68.945 18.386h-.015zm82.732-45.392l68.884-18.478 5.216 19.912a82.458 82.458 0 0 0-4.804 3.25l-63.684 17.058-5.612-21.727v-.015zm280.02 142.678c0 22.795-46.528 41.273-104.005 41.273-57.4 0-103.99-18.478-103.99-41.273v-25.695c0-.854.504-1.632.641-2.456 3.294 21.636 48.053 38.786 103.35 38.786 55.326 0 100.1-17.15 103.379-38.786.137.824.625 1.602.625 2.456v25.695zm0-50.52c0 22.78-46.528 41.243-104.005 41.243-57.4 0-103.99-18.462-103.99-41.243V340.39c0-.84.504-1.633.641-2.457 3.294 21.621 48.053 38.802 103.35 38.802 55.326 0 100.1-17.196 103.379-38.802.137.824.625 1.618.625 2.457v25.694zm-103.99-12.572c-57.4 0-103.99-18.462-103.99-41.243 0-22.78 46.574-41.242 103.99-41.242 57.478 0 104.005 18.462 104.005 41.242 0 22.78-46.527 41.243-104.005 41.243z" fill="#444" fill-rule="evenodd"/></svg>