<svg width="512" height="512" xmlns="http://www.w3.org/2000/svg"><path d="M256.5 38.389c-120.464 0-218.111 97.647-218.111 218.111 0 120.464 97.647 218.111 218.111 218.111 120.464 0 218.111-97.647 218.111-218.111 0-120.464-97.647-218.111-218.111-218.111zm0 341.847c-13.909 0-25.167-11.275-25.167-25.167 0-13.892 11.258-25.166 25.167-25.166 13.892 0 25.167 11.274 25.167 25.166 0 13.892-11.275 25.167-25.167 25.167zm25.167-109.055c0 13.892-11.275 25.166-25.167 25.166-13.909 0-25.167-11.274-25.167-25.166V153.736c0-13.909 11.258-25.167 25.167-25.167 13.892 0 25.167 11.258 25.167 25.167v117.445z" fill-rule="evenodd"/></svg>