<svg width="512" height="512" xmlns="http://www.w3.org/2000/svg"><path d="M256 37C135.047 37 37 135.047 37 256s98.047 219 219 219 219-98.047 219-219S376.953 37 256 37zm0 389.333c-94.073 0-170.333-76.26-170.333-170.333S161.927 85.667 256 85.667 426.333 161.927 426.333 256 350.073 426.333 256 426.333zm0-275.777c-13.432 0-24.333 10.885-24.333 24.333v82.117c0 13.432 10.901 24.333 24.333 24.333 13.432 0 24.333-10.901 24.333-24.333v-82.117c0-13.448-10.901-24.333-24.333-24.333zm0 162.222c-13.432 0-24.333 10.901-24.333 24.333 0 13.432 10.901 24.333 24.333 24.333 13.432 0 24.333-10.9 24.333-24.333 0-13.432-10.901-24.333-24.333-24.333z" fill-rule="evenodd"/></svg>