<svg width="512" height="512" xmlns="http://www.w3.org/2000/svg"><path d="M362.64 459.822c-4.84 26.453-18.3 24.056-37.728 1.575-8.592-15.666-22.135-26.941-38.076-36.46l-.056 3.776c18.257 5.743 19.554 19.04 14.142 35.318-22.957-33.673-43.07-36.948-59.234 1.965-2.999-11.038-4.17-21.575-.377-30.774-11.646-1.589-17.978 6.453-22.078 18.551-3.836-9.268-4.143-18.035-.182-26.244-10.39-2.383-18.354 3.637-22.455 23.08-11.297-23.916 11.493-43.36 32.079-34.718 6.486-1.38 10.572-5.937 12.176-13.77-62.498-28.92-127.395-64.196-93.698-211.195-8.83-47.109-2.079-81.674 13.096-105.033 4.059-9.561 4.756-17.84 2.999-25.185-2.804-3.54-7.253-5.506-12.497-6.704 3.347-.67 6.653-.976 9.819-.586-3.877-7.735-10.628-14.37-18.927-20.418 17.463 3.833 32.72 11.206 41.048 29.715 30.684-21.157 73.251-19.234 105.023 1.575 8.16-19.666 23.767-27.36 41.73-31.29-8.312 6.063-15.062 12.711-18.94 20.446 3.236-.432 6.597-.125 10.028.558-5.425 1.24-10 3.303-12.79 7.08-1.59 6.983-.948 14.83 2.679 23.805 19.512 24.489 28.229 60.35 14.533 105.465 59.43 64.907 69.081 157.313 37.7 269.44l-.015.028zm-90.38-42.858l-19.986-9.575c-3.124 21.018 9.944 21.24 19.987 9.575zm37.98-309.482c-18.537-32.642-51.257-39.582-73.197 6.314-22.804-41.673-59.917-46.914-75.845 5.923-9.875 51.75 12.608 81.45 76.975 86.998 64.033-2.592 93.113-49.757 72.066-99.235zm-38.58 115.974l-8.019.794c-18.494 78.775 73.21 135.055 83.015 216.213l8.02-.795c-9.805-81.158-101.51-137.437-83.015-216.212zm-17.963-76.573c12.44-23.122 27.392-23.08 44.31-4.766-14.937 22.341-29.721 25.352-44.31 4.766zm-24.855 21.2c1.967-15.304 16.402-14.036 18.118-.391-.307 13.714-3.543 24.042-8.87 31.959-5.621-8.753-9.68-18.607-9.248-31.569zm-53.39-28.796c18.243-18.439 32.567-13.923 43.767 8.683-20.42 16.948-35.413 15.415-43.767-8.683z" fill-rule="evenodd"/></svg>