<svg width="512" height="512" xmlns="http://www.w3.org/2000/svg"><g fill-rule="evenodd"><path d="M155.075 365.86c-4.653 0-7.808.439-9.46.877v28.892c1.952.438 4.355.58 7.666.58 12.173 0 19.694-5.958 19.694-15.97.005-9.01-6.462-14.379-17.9-14.379zm165.344-215.52l.043.015v-.016z"/><path d="M419.95 142.503c-.026-2-.692-3.975-2.105-5.537l-87.052-96.041c-.018-.027-.044-.036-.07-.06-.518-.56-1.114-1.022-1.754-1.429-.19-.119-.381-.225-.58-.334a9.748 9.748 0 0 0-1.746-.706c-.164-.046-.311-.111-.484-.152a8.916 8.916 0 0 0-2.023-.244h-213.94c-9.76 0-17.704 7.674-17.704 17.102v401.886c0 9.432 7.944 17.102 17.705 17.102H402.33c9.76 0 17.706-7.67 17.706-17.102V143.46c0-.322-.052-.637-.087-.958zM186.351 402.885c-7.817 7.115-19.391 10.312-32.922 10.312-3.011 0-5.724-.15-7.818-.438v34.991H122.91v-96.553c7.064-1.161 16.988-2.034 30.967-2.034 14.123 0 24.206 2.61 30.964 7.841 6.46 4.932 10.823 13.064 10.823 22.65.01 9.578-3.297 17.72-9.312 23.231zm107.795 44.866h-24.05L248.446 410c-6.023-10.455-12.632-23.081-17.604-34.555l-.44.143c.604 12.926.896 26.716.896 42.686v29.476h-21.042v-97.86h26.757l21.053 35.86c6.004 10.313 12.025 22.505 16.525 33.544h.454c-1.509-12.922-1.954-26.137-1.954-40.8v-28.6h21.055v97.857zm104.485-4.5c-7.063 2.322-20.445 5.52-33.828 5.52-18.484 0-31.875-4.501-41.19-13.218-9.315-8.418-14.437-21.194-14.286-35.569.147-32.52 24.656-51.108 57.87-51.108 13.08 0 23.16 2.463 28.118 4.788l-4.806 17.716c-5.572-2.322-12.483-4.209-23.61-4.209-19.083 0-33.517 10.455-33.517 31.649 0 20.186 13.08 32.09 31.875 32.09 5.26 0 9.47-.576 11.273-1.453v-20.475h-15.635v-17.276h37.732v51.546h.004v-.001zm-288.434-114.88V55.102h205.086v61.51h5.533v33.727h34.555v.813h46.96l.008 177.219H110.197z"/><path d="M181.614 251.521h34.304v-33.723h-34.555v-33.73h34.555V150.34h-34.555v-33.727h-34.92v33.727H181v33.73h-34.557v33.729H181v33.723h-34.295v33.733h34.557v33.723h34.904v-33.723h-34.552zm69.733 0h34.302v-33.723h-34.555v-33.73h34.555V150.34h-34.555v-33.727h-34.928v33.727h34.557v33.73h-34.557v33.729h34.557v33.723h-34.295v33.733h34.556v33.723H285.9v-33.723h-34.553zM285.9 150.34h34.519c-3.026-1.36-5.136-4.301-5.136-7.739v-25.989H285.9v33.727zm34.554.012v33.716H285.9v33.73h34.554v33.723H286.15v33.73h34.563v33.727h34.913V285.25h-34.55v-33.73h34.296v-33.723h-34.555v-33.73h34.555v-32.916h-31.235a8.996 8.996 0 0 1-3.683-.8z"/></g></svg>