<svg width="512" height="512" xmlns="http://www.w3.org/2000/svg"><path d="M333.61 294.736c.175 0 .322-.061.488-.061.22 0 .4.061.638.061h-1.127zm-62.718-70.17c.178-.046.297-.23.49-.275 10.987 39.887 39.438 69.771 68.335 70.384 26.326-1.18 58.653-30.528 69.417-70.2 4.95.306 9.903-5.546 11.298-13.695 1.437-8.516-1.587-16.098-6.687-16.987a5.66 5.66 0 0 0-.995.169c-1.497-65.679-32.558-88.813-71.73-89.826-40.357.203-76.503 28.356-74.219 89.826a5.623 5.623 0 0 0-1.113-.169c-5.115.889-8.124 8.486-6.664 16.987 1.407 8.44 6.723 14.629 11.868 13.786zm65.754-120.55h-4.965c1.26-.016 2.49.06 3.72.09.43.001.846-.088 1.245-.088v-.001zm-221.939 237.56H91.79l28.727-28.813C56.294 319.074 9 343.598 9 408.697h140.758l-50.95-51.114 15.9-16.007zM394.11 306.07l-36.664 72.023-5.783-46.826 9.044-7.429h-41.984l9.072 7.429-5.797 46.826-36.627-72.022c-63.723 8.609-109.464 36.012-109.464 102.628h327.656c-.016-66.616-45.77-94.02-109.45-102.628l-.003-.001zm-176.648-97.267c-2.076 28.644-14.255 62.097-31.744 80.034h67.61v-75.669c0-79.123-41.707-109.168-93.133-109.168-51.425 0-93.124 30.022-93.124 109.168v75.67h67.592c-16.914-17.356-28.939-49.247-31.595-77.232l.652-.046c29.105 0 54.213-12.1 68.033-29.93 10.113 13.082 26.311 22.809 45.712 27.174l-.003-.001z" fill-rule="evenodd"/></svg>