<svg width="512" height="512" xmlns="http://www.w3.org/2000/svg"><path d="M253.602 255.327c1.791-.033 3.547.102 5.321.131.59 0 1.153-.131 1.758-.131h-7.083.004zm7.496 55.011c.238 0 .457-.064.686-.064.32 0 .607.064.925.064h-1.611zm-97.95-100.634c.246-.041.417-.32.68-.395 15.761 57.246 56.544 100.045 97.973 100.965 37.758-1.707 84.078-43.754 99.51-100.676 7.097.402 14.24-8.002 16.187-19.678 2.06-12.217-2.224-23.053-9.564-24.332a8.99 8.99 0 0 0-1.407.23C364.4 71.642 319.85 38.464 263.715 37.023c-57.862.272-109.681 40.671-106.395 128.828a7.77 7.77 0 0 0-1.61-.263c-7.35 1.272-11.63 12.145-9.573 24.332 1.983 12.122 9.605 21.014 17.011 19.784zM26.951 473.782c0-26.078 5.036-47.841 14.002-66.122-20.008-15.384-28.244-41.64-20.606-65.689 7.638-24.049 29.517-40.747 54.738-41.777 25.22-1.03 48.39 13.83 57.964 37.175a324.077 324.077 0 0 1 50.813-10.783l52.515 103.275 8.32-67.182-12.988-10.665h60.205l-13.013 10.665 8.322 67.182 52.548-103.275c91.327 12.324 156.886 51.632 156.886 147.196H26.951zm7.413-113.436a43.213 43.213 0 0 0 15.089 32.674 42.718 42.718 0 0 0 28.168 10.749c17.577.069 33.463-10.462 40.239-26.675a43.396 43.396 0 0 0-9.298-47.362 43.437 43.437 0 0 0-47.34-9.495 43.41 43.41 0 0 0-26.857 40.11h-.001zm37.106 8.398h41.043V351.94H42.735v16.807h28.736l-.001-.003z" fill-rule="evenodd"/></svg>