<svg width="512" height="512" xmlns="http://www.w3.org/2000/svg"><g fill-rule="evenodd"><path d="M192.085 266.954c24.044 10.755 61.81 12.662 61.81 12.662.85.014 1.673.028 2.495.028h.22c.822 0 1.658-.014 2.495-.028 0 0 37.766-1.907 61.81-12.662 0 0 3.441-.81 3.55-8.698 0 0-1.233-34.558-11.692-50.1 0 0-2.619-4.034-10.049-6.792 0 0-24.208-7.38-25.84-13.65 0 0-8.02 20.784-20.384 20.55-12.365.234-20.384-20.55-20.384-20.55-1.632 6.27-25.84 13.65-25.84 13.65-7.376 2.662-10.049 6.791-10.049 6.791-10.46 15.543-11.693 50.101-11.693 50.101.11 7.888 3.55 8.698 3.55 8.698z"/><path d="M229.837 163.048c1.782 14.953 14.613 30.428 26.265 30.428 13.394 0 26.101-16.312 28.089-30.428.726-.521 2.001-1.825 2.426-4.774 0 0 2.838-10.22-.96-9.123 1.358-3.924 5.717-19.303-2.727-28.837 0 0-3.935-5.446-13.613-8.341-.384-.26-.699-.549-1.096-.837 0 0 .219.26.48.672-.508-.123-1.084-.26-1.646-.398-.534-.576-1.151-1.152-1.795-1.742 0 0 .603.59 1.288 1.633-.288-.069-.493-.179-.754-.192-.425-.686-.973-1.345-1.672-2.03 0 0 .288.507.699 1.344-1.837-1.304-5.387-4.322-5.387-7.683 0 0-2.262 1.043-3.523 2.936-.549-.85-.069-1.838-.069-1.838-1.028.576-3.701 2.73-4.537 5.666l-.768-1.043c-1.563-1.783-4.305-.412-4.305-.412S232.1 114.168 228 126.858c0 0-2.357 5.707.782 22.499-4.497-2.113-1.426 8.917-1.426 8.917.48 2.963 1.7 4.266 2.509 4.774h-.028z"/><path d="M353.651 54.807V37h-28.445v17.807H187.808V37h-28.432v17.807H99.992V476h313.043V54.807h-59.384zM116.319 459.716V71.119h43.057v22.786h28.432V71.12h137.44v22.786h28.403V71.12h43.072v388.597H116.305h.014z"/><path d="M154.085 404.717H319.86v16.504H154.085zm-.027-96.689h214.549v16.435h-214.55v-16.435zm0 33.034h198.318v16.531H154.058zm0 32.102H336.09v16.422H154.058v-16.422z"/></g></svg>