<svg width="512" height="512" xmlns="http://www.w3.org/2000/svg"><g fill-rule="evenodd"><path d="M203.885 250.12h1.123c96.056-1.03 82.106-129.192 82.106-129.192-3.932-85.66-75.552-84.91-82.667-84.63-7.022-.28-78.736-1.03-82.668 84.63 0 0-13.95 128.256 82.106 129.192zm62.632 23.965l-33.329 105.32-19.473-55.235c34.172-47.651-2.434-50.085-8.894-50.085h-.374c-6.554.094-43.066 2.434-8.895 50.085l-19.473 55.234-33.329-105.32s-41.849 20.316-79.297 43.814c-28.274 17.787-33.517 36.885-34.36 64.502L29 475.736h231.245a25.63 25.63 0 0 1-1.03-7.115v-86.315c0-14.51 11.796-26.306 26.308-26.306h32.486c2.434 0 4.681.374 6.928.936v-13.574c0-12.639 8.894-23.124 20.784-25.652-37.448-23.404-79.204-43.625-79.204-43.625z"/><path d="M317.916 375.285h-32.487c-3.838 0-7.022 3.183-7.022 7.021v86.315c0 3.838 3.184 7.021 7.022 7.021h32.487c3.838 0 7.021-3.183 7.021-7.02v-86.316c0-3.84-3.09-7.022-7.021-7.022zm65.722-38.851H351.15c-3.838 0-7.021 3.09-7.021 7.021v125.166c0 3.838 3.183 7.021 7.021 7.021h32.487c3.838 0 7.021-3.183 7.021-7.02V343.454c-.093-3.838-3.183-7.021-7.021-7.021z"/><path d="M483.157 291.217L437.47 217.82c-2.06-3.276-6.928-3.276-8.987 0l-45.688 73.396c-2.153 3.557.375 8.05 4.494 8.05h22.47v169.26c0 3.839 3.182 7.022 7.02 7.022h32.487a6.903 6.903 0 0 0 6.928-6.553h.094V299.268h22.47c4.119.094 6.646-4.494 4.4-8.051z"/></g></svg>