<svg width="512" height="512" xmlns="http://www.w3.org/2000/svg"><g fill-rule="evenodd"><path d="M253.024 366.04c-4.914 0-8.245.456-9.994.914v30.49c2.068.456 4.604.614 8.09.614 12.85 0 20.777-6.285 20.777-16.853 0-9.502-6.817-15.166-18.873-15.166zm-92.159 0c-4.914 0-8.244.456-9.992.914v30.49c2.067.456 4.603.614 8.09.614 12.848 0 20.776-6.285 20.776-16.853-.001-9.502-6.82-15.166-18.874-15.166z"/><path d="M418.175 143.026c-.026-1.99-.688-3.956-2.104-5.51L329.425 41.91c-.025-.027-.05-.035-.068-.06-.517-.557-1.12-1.016-1.756-1.421a9.173 9.173 0 0 0-2.316-1.035c-.164-.046-.309-.11-.473-.151A8.815 8.815 0 0 0 322.79 39H109.834c-9.716 0-17.625 7.64-17.625 17.024v400.055c0 9.388 7.91 17.023 17.625 17.023h290.802c9.716 0 17.626-7.635 17.626-17.023V143.98c0-.32-.053-.633-.087-.954zM193.858 405.1c-8.253 7.506-20.467 10.88-34.74 10.88-3.17 0-6.026-.158-8.245-.46v36.919H126.92V350.562c7.45-1.222 17.923-2.145 32.675-2.145 14.906 0 25.533 2.76 32.667 8.271 6.825 5.212 11.42 13.786 11.42 23.898 0 10.116-3.482 18.694-9.825 24.513zm92.16 0c-8.252 7.506-20.47 10.88-34.743 10.88-3.17 0-6.024-.158-8.245-.46v36.919h-23.95V350.562c7.45-1.222 17.922-2.145 32.675-2.145 14.906 0 25.534 2.76 32.667 8.271 6.825 5.212 11.421 13.786 11.421 23.898-.002 10.116-3.482 18.694-9.825 24.513zm99.292-36.304h-29.182v83.643H331.86v-83.643h-28.713v-19.61h82.155v19.61h.008zm-275.476-40.747V56.024h204.144v87.1c0 4.699 3.95 8.512 8.812 8.512h77.847v176.411H109.834z"/><path d="M241.528 149.585c-39.848 0-72.141 31.2-72.141 69.686 0 38.483 32.292 69.68 72.14 69.68 39.843 0 72.142-31.197 72.142-69.68h-72.141v-69.686z"/><path d="M251.313 208.274v.02h72.148c0-19.601-8.418-37.284-21.902-49.945l-50.246 49.925zm-.757-12.244l51.004-49.27c-14.346-13.862-32.246-20.624-51.058-20.364l.037 69.617.017.017z"/></g></svg>