<svg width="512" height="512" xmlns="http://www.w3.org/2000/svg"><path d="M372.372 332.091L487.4 217.121l-82.325-82.294-57.012 56.986-7.104-13.548a6.503 6.503 0 0 0-8.773-2.74l-53.997 28.252-28.278-53.97a6.515 6.515 0 0 0-3.821-3.192 6.507 6.507 0 0 0-2.607-.26l-.949-.285c20.536-9.09 34.919-29.614 34.919-53.466 0-32.245-26.247-58.48-58.514-58.48-32.264 0-58.51 26.235-58.51 58.48 0 11.74 3.511 22.669 9.501 31.844l-5.551-1.659c-1.204-.831-2.642-1.266-4.274-1.142l-.044.007a6.142 6.142 0 0 0-2.114.18l-88.528 7.7a6.5 6.5 0 0 0-5.908 7.037l7.892 90.626a6.446 6.446 0 0 0 2.295 4.41 6.436 6.436 0 0 0 4.746 1.494l23.475-2.04a6.495 6.495 0 0 0 5.91-7.036l-5.278-60.68 39.749-3.459-50.158 125.998a6.456 6.456 0 0 0-.461 2.26l-1.533 71.614H31.5a6.49 6.49 0 0 0-6.5 6.497v38.174a6.494 6.494 0 0 0 6.5 6.497h107.27a6.496 6.496 0 0 0 6.501-6.497v-89.102L267.588 475.72a6.486 6.486 0 0 0 5.18 2.556 6.44 6.44 0 0 0 3.93-1.331l33.61-25.597a6.537 6.537 0 0 0 2.507-4.296 6.505 6.505 0 0 0-1.281-4.81l-115.38-151.307 38.695-91.108 24.894 47.524a6.494 6.494 0 0 0 8.77 2.741l44.568-23.32-23.038 23.027 82.33 82.292zM218.94 47.118c25.091 0 45.508 20.401 45.508 45.484 0 25.081-20.418 45.485-45.508 45.485-1.304 0-2.593-.086-3.88-.197l-17.794-5.3c-14.178-7.713-23.833-22.744-23.833-39.986-.001-25.085 20.42-45.486 45.507-45.486zm49.295 188.454l-28.249-53.94c-1.164-2.227-3.48-3.565-6.022-3.473a6.503 6.503 0 0 0-5.726 3.95l-45.534 107.229a6.505 6.505 0 0 0 .82 6.485l113.731 149.124-23.268 17.734-122.64-160.819a6.545 6.545 0 0 0-3.313-2.29l-7.42-2.209a6.41 6.41 0 0 0-1.853-.271 6.496 6.496 0 0 0-6.502 6.496v94.344H37.993v-25.177h58.51a6.502 6.502 0 0 0 6.5-6.364l1.655-76.799 53.616-134.694a6.482 6.482 0 0 0-.822-6.279c-1.352-1.799-3.476-2.773-5.783-2.592l-56.73 4.93a6.527 6.527 0 0 0-4.415 2.297 6.444 6.444 0 0 0-1.496 4.74l5.279 60.684-10.524.917-6.762-77.68 82.077-7.143 33.55 9.994c6.14 3.1 12.86 5.19 19.992 5.958l27.35 8.148 29.69 56.68a6.5 6.5 0 0 0 8.774 2.741l54.002-28.252 4.902 9.356-69.124 36.175zm200.786-18.456l-96.648 96.6-63.945-63.914 96.642-96.59 63.951 63.904z" fill="#030303" fill-rule="evenodd"/></svg>