<svg width="512" height="512" xmlns="http://www.w3.org/2000/svg"><path d="M267.964 165.568c-1.024 6.14-4.658 10.511-8.366 10.3-8.027 29.734-32.108 51.75-51.679 52.707-21.527-.473-42.777-22.819-50.956-52.741-.118.084-.24.161-.367.233-3.822.654-7.807-3.958-8.851-10.343-1.045-6.386 1.158-12.046 4.932-12.735.298.022.593.07.883.141-1.728-46.07 25.139-67.221 55.2-67.4 29.212.721 52.344 18.029 53.528 67.243.243-.07.494-.107.747-.112 3.74.65 5.983 6.334 4.929 12.707zm205.617 281.045l-27.759 27.998-107.534-108.494 3.462-3.482-30.02-30.283c-65.777 55.568-163.225 51.213-223.783-10-64.742-65.296-64.742-171.548 0-236.868a165.098 165.098 0 0 1 234.733 0c61.198 61.765 64.397 160.082 9.895 225.861l29.993 30.278 3.463-3.481 107.55 108.47zM321.009 276.912c33.66-54.437 25.772-124.826-19.103-170.462a135.856 135.856 0 0 0-193.104 0C62.628 153.416 55.76 226.342 92.354 281.102c11.976-26.52 39.734-39.166 74.91-44.01l27.353 53.95 4.291-35.119-6.779-5.6h31.255l-6.71 5.567 4.372 35.104 27.232-54.025c33.267 4.555 59.768 16.239 72.731 39.943z" fill-rule="evenodd"/></svg>