<svg width="512" height="512" xmlns="http://www.w3.org/2000/svg"><path d="M256.5 474.611c-120.464 0-218.111-97.647-218.111-218.111 0-120.464 97.647-218.111 218.111-218.111 120.464 0 218.111 97.647 218.111 218.111 0 120.464-97.647 218.111-218.111 218.111zm108.015-227.54c0-9.261-7.516-16.778-16.777-16.778h-67.112v-67.111c0-9.261-7.5-16.778-16.777-16.778H247.07c-9.278 0-16.778 7.517-16.778 16.778v67.111h-67.111c-9.278 0-16.778 7.517-16.778 16.778v16.778c0 9.278 7.5 16.777 16.778 16.777h67.111v67.112c0 9.278 7.5 16.777 16.778 16.777h16.778c9.278 0 16.777-7.5 16.777-16.777v-67.112h67.112c9.26 0 16.777-7.5 16.777-16.777V247.07z" fill-rule="evenodd"/></svg>