<svg width="512" height="512" xmlns="http://www.w3.org/2000/svg"><path d="M264.24 36.006c-.61 0-1.184.126-1.752.126-1.783-.036-3.55-.162-5.349-.126h7.1zm-2.762 274.962c-.32 0-.608-.054-.944-.054-.232 0-.437.054-.692.054h1.636zM161.417 209.79c.228-.12.45-.251.665-.395 15.845 57.556 56.859 100.584 98.508 101.519 37.955-1.744 84.509-44.017 100.025-101.25 7.12.414 14.312-8.019 16.272-19.76 2.068-12.281-2.247-23.214-9.62-24.49-.477.049-.952.127-1.42.234-2.14-94.687-46.912-128.041-103.352-129.498-58.182.27-110.275 40.906-106.956 129.534a7.388 7.388 0 0 0-1.618-.27c-7.389 1.276-11.688 12.209-9.624 24.49 1.975 12.19 9.634 21.145 17.12 19.886zM24.475 475.33c0-26.216 5.062-48.099 14.068-66.475-20.112-15.471-28.39-41.876-20.711-66.06 7.68-24.185 29.674-40.977 55.028-42.011 25.353-1.034 48.642 13.91 58.266 37.389a323.626 323.626 0 0 1 51.082-10.825l52.791 103.821 8.365-67.553-13.056-10.735h60.54l-13.1 10.735 8.367 67.553 52.826-103.82c91.81 12.37 157.709 51.874 157.709 147.981H24.475zm7.435-114.07a43.494 43.494 0 0 0 15.187 32.887 42.996 42.996 0 0 0 28.305 10.788A43.648 43.648 0 1 0 31.91 361.26zm24.005 21.56l11.58 9.457 44.631-43.226-2.859-3.003-3-3.11-5.852-6.06-12.252 11.832L66.5 369.693l-12.367-10.141-4.298-3.47-5.3 6.563-5.285 6.563 16.665 13.611z" fill-rule="evenodd"/></svg>