<svg width="512" height="512" xmlns="http://www.w3.org/2000/svg"><g transform="translate(43 36)" fill-rule="evenodd"><path d="M103.005 337.186h219.8v14.66h-219.8zm0 43.981h219.8v14.66h-219.8z"/><ellipse cx="337.458" cy="205.244" rx="14.653" ry="14.66"/><path d="M381.417 131.943H352.11V29.32C352.11 13.194 338.922 0 322.804 0h-219.8C86.887 0 73.699 13.194 73.699 29.32v102.623H44.391c-24.91 0-43.96 19.057-43.96 43.98v131.943c0 24.923 19.05 43.98 43.96 43.98h29.307v58.642c0 16.126 13.188 29.32 29.307 29.32h219.8c16.118 0 29.306-13.194 29.306-29.32v-58.641h29.307c24.91 0 43.96-19.058 43.96-43.981V175.923c0-24.923-19.05-43.98-43.96-43.98zM88.351 29.32c0-7.33 5.86-14.66 14.653-14.66h219.8c7.326 0 14.653 5.863 14.653 14.66v102.622H88.351V29.32zm249.107 381.167c0 7.33-5.861 14.66-14.653 14.66h-219.8c-7.327 0-14.654-5.864-14.654-14.66V307.866h249.107v102.622zm73.266-102.622c0 16.126-13.189 29.32-29.307 29.32H352.11v-43.98H73.698v43.98H44.391c-16.119 0-29.306-13.194-29.306-29.32V175.923c0-16.126 13.187-29.32 29.306-29.32h337.027c16.118 0 29.307 13.194 29.307 29.32v131.943h-.001z"/></g></svg>