<svg width="512" height="512" xmlns="http://www.w3.org/2000/svg"><path d="M256.5 474C136.373 474 39 376.627 39 256.5S136.373 39 256.5 39 474 136.373 474 256.5 376.627 474 256.5 474zm0-384.808c-92.387 0-167.308 74.904-167.308 167.308 0 92.387 74.92 167.308 167.308 167.308 92.404 0 167.308-74.92 167.308-167.308 0-92.404-74.904-167.308-167.308-167.308zm66.722 184.039H273.03v50.192c0 9.252-7.495 16.73-16.73 16.73-9.253 0-16.732-7.478-16.732-16.73v-50.192h-50.192c-9.252 0-16.73-7.496-16.73-16.731 0-9.235 7.478-16.73 16.73-16.73h50.192v-50.193c0-9.252 7.48-16.73 16.731-16.73 9.236 0 16.731 7.478 16.731 16.73v50.192h50.192c9.236 0 16.731 7.496 16.731 16.731 0 9.235-7.495 16.73-16.73 16.73z" fill-rule="evenodd"/></svg>