<svg width="512" height="512" xmlns="http://www.w3.org/2000/svg"><path d="M509.93 157.673c0-.055.006-.11.006-.165 0-66.793-54.145-120.938-120.938-120.938S268.061 90.714 268.061 157.508c0 66.794 54.15 120.938 120.938 120.938 13.727 0 26.867-2.393 39.162-6.609-27.209 156.09-148.93 256.752-36.096 173.905C517.182 353.874 510.07 161.198 509.93 157.673zM122.938 278.445c13.727 0 26.867-2.393 39.168-6.609-27.216 156.09-148.937 256.752-36.102 173.905 125.117-91.867 118.006-284.543 117.865-288.068 0-.055.006-.11.006-.165 0-66.793-54.144-120.938-120.937-120.938C56.144 36.57 2 90.714 2 157.508c0 66.794 54.15 120.937 120.938 120.937z" fill-rule="evenodd"/></svg>