<svg width="512" height="512" xmlns="http://www.w3.org/2000/svg"><path d="M422.202 411.23h-2.844c2.996-4.446 4.877-9.579 5.61-15.109 11.037-1.39 19.704-10.234 19.704-21.355V71.494c0-12.068-10.074-21.89-22.486-21.89H182.231c-3.347 0-6.435.81-9.294 2.077H150.82c6.695-10.005 18.236-16.666 31.412-16.666h239.955c20.682 0 37.496 16.36 37.496 36.464v303.287c0 20.118-16.814 36.463-37.496 36.463h.016zm-13.834-306.404v303.256c0 20.15-16.83 36.494-37.526 36.494h-2.828c2.98-4.475 4.891-9.623 5.594-15.153 11.037-1.375 19.719-10.205 19.719-21.325V104.826c0-12.083-10.073-21.89-22.5-21.89H130.87c-3.347 0-6.435.825-9.294 2.077H99.46c6.695-10.006 18.266-16.666 31.427-16.666h239.956c20.696 0 37.51 16.36 37.541 36.494l-.015-.015zm-51.406 33.347V441.46c0 20.134-16.83 36.479-37.526 36.479H79.496C58.799 477.939 42 461.579 42 441.46V138.173c0-20.133 16.814-36.479 37.496-36.479h239.94c20.697 0 37.526 16.36 37.526 36.48zm-299.967 0V441.46c0 12.068 10.089 21.89 22.5 21.89h239.94c12.428 0 22.517-9.837 22.517-21.89V138.173c0-12.068-10.089-21.89-22.516-21.89H79.496c-12.427 0-22.5 9.838-22.5 21.89zm49.541 226.175c0-25.19 29.823-59.194 69.978-69.124-16.768-10.983-28.355-32.736-28.355-52.274 0-27.603 22.96-49.998 51.314-49.998 28.386 0 51.33 22.395 51.33 49.998 0 19.538-11.587 41.291-28.401 52.274 40.232 9.93 70.024 43.934 70.054 69.124 0 29.772-185.92 29.772-185.92 0zm97.065-54.627h.183l8.53-9.47c-4.128 1.42-8.377 2.275-12.84 2.275-4.464 0-8.744-.886-12.871-2.322l8.499 9.517h.244l-21.92 51.587 26.063 25.312 26.062-25.343-21.935-51.586-.015.03z" fill="#444" fill-rule="evenodd"/></svg>