<svg width="512" height="512" xmlns="http://www.w3.org/2000/svg"><path d="M375.897 87.378h82.374v29.57h-82.374zM20 203.252h82.374v29.57H20zm390.397 193.505h81.318v28.514h-81.318zM368.3 391.3c32.245-13.695 54.917-45.68 54.917-82.862 0-41.852-28.722-77.122-67.489-87.133a89.526 89.526 0 0 0 5.6-31.235c0-26.64-11.648-50.602-30.108-67.092l13.439-18.174h23.486v-5.28h-26.15l-14.827 20.054c-15.353-12.183-34.745-19.487-55.821-19.487-49.615 0-89.98 40.364-89.98 89.979a89.55 89.55 0 0 0 5.598 31.235c-12.898 3.332-24.685 9.46-34.673 17.696l-17.451-23.604h-26.152v5.28h23.486l15.951 21.573 2.795-2.066c-19.23 16.515-31.447 40.976-31.447 68.254 0 49.614 40.364 89.977 89.976 89.977 23.964 0 45.753-9.435 61.895-24.761 16.142 15.326 37.93 24.761 61.894 24.761a89.538 89.538 0 0 0 29.95-5.145l15.07 20.384h26.152v-5.28h-23.486l-12.624-17.073zm-36.966-249.097l-84.446 84.445a89.198 89.198 0 0 0-18.15-6.086l90.476-90.478a77.463 77.463 0 0 1 12.12 12.12zm-19.769-17.52l-94.148 94.149a90.69 90.69 0 0 0-7.965-.373c-3.123 0-6.21.162-9.253.474a76.935 76.935 0 0 1-1.908-5.215l96.698-96.702a76.445 76.445 0 0 1 16.576 7.667zm-68.652-5.93l-42.886 42.888c7.803-19.507 23.378-35.083 42.886-42.888zm-47.608 60.662l65.382-65.385a77.15 77.15 0 0 1 10.659-.756c4.494 0 8.894.41 13.179 1.155l-88.82 88.823a76.943 76.943 0 0 1-1.156-13.183c0-3.616.27-7.169.756-10.654zm67.17 184.495c-13.796 13.192-32.472 21.321-53.023 21.321-42.344 0-76.792-34.45-76.792-76.793 0-42.345 34.448-76.795 76.792-76.795 20.55 0 39.227 8.13 53.023 21.321-12.018 15.298-19.213 34.555-19.213 55.474-.001 20.917 7.195 40.175 19.213 55.472zm6.933-122.493a90.45 90.45 0 0 0-13.962-10.275l81.29-81.29a76.462 76.462 0 0 1 7.665 16.57l-74.993 74.995zm77.978-40.693l-17.827 17.828c-11.01.446-21.518 2.863-31.17 6.934l48.598-48.598a76.928 76.928 0 0 1 1.155 13.18c0 3.618-.27 7.171-.756 10.656z" fill-rule="evenodd"/></svg>