<svg width="512" height="512" xmlns="http://www.w3.org/2000/svg"><path d="M2.108 354.536c0 66.794 54.144 120.938 120.937 120.938 66.794 0 120.938-54.144 120.938-120.938 0-66.794-54.144-120.937-120.938-120.937-13.727 0-26.867 2.393-39.168 6.61C111.093 84.118 232.814-16.543 119.979 66.303-5.138 158.17 1.974 350.84 2.114 354.371c0 .055-.006.104-.006.165zm266.061 0c0 66.794 54.144 120.938 120.938 120.938 66.794 0 120.938-54.144 120.938-120.938 0-66.794-54.145-120.937-120.939-120.937-13.728 0-26.867 2.393-39.168 6.61C377.154 84.118 498.875-16.543 386.04 66.303 260.923 158.17 268.034 350.84 268.175 354.371c0 .055-.006.104-.006.165z" fill-rule="evenodd"/></svg>