<svg width="512" height="512" xmlns="http://www.w3.org/2000/svg"><g fill="#010002" fill-rule="evenodd"><path d="M230.95 471.984C111.87 471.984 15 375.113 15 256.034c0-119.08 96.87-215.95 215.95-215.95 119.08 0 215.95 96.884 215.95 215.95 0 6.814-5.52 12.348-12.348 12.348-6.815 0-12.35-5.52-12.35-12.349 0-105.465-85.8-191.28-191.266-191.28-105.479 0-191.28 85.815-191.28 191.28S125.457 447.3 230.936 447.3c67.473 0 130.677-36.17 164.956-94.382 3.463-5.882 11.028-7.815 16.896-4.366 5.869 3.448 7.816 11.013 4.38 16.896-38.673 65.707-110.04 106.536-186.218 106.536z"/><path d="M434.552 268.382c-2.128 0-4.297-.556-6.258-1.71l-77.333-45.668c-5.868-3.463-7.815-11.028-4.353-16.897 3.477-5.868 11.042-7.815 16.91-4.338l67.474 39.841 43.429-62.203c3.907-5.59 11.598-6.953 17.174-3.059 5.59 3.894 6.953 11.584 3.06 17.174l-49.98 71.562a12.317 12.317 0 0 1-10.123 5.298z"/></g></svg>