<svg width="512" height="512" xmlns="http://www.w3.org/2000/svg"><path d="M256 432.352c48.121 0 89.54-17.358 124.256-52.074 34.716-34.716 52.074-76.135 52.074-124.256 0-48.121-17.358-89.54-52.074-124.256C345.54 97.05 304.121 79.692 256 79.692c-48.121 0-89.54 17.358-124.256 52.074-34.716 34.716-52.074 76.135-52.074 124.256 0 48.121 17.358 89.54 52.074 124.256 34.716 34.716 76.135 52.074 124.256 52.074zm0-396c60.5 0 112.237 21.487 155.21 64.46 42.973 42.973 64.46 94.71 64.46 155.21 0 60.5-21.487 112.237-64.46 155.21-42.973 42.973-94.71 64.46-155.21 64.46-60.5 0-112.237-21.487-155.21-64.46-42.973-42.973-64.46-94.71-64.46-155.21 0-60.5 21.487-112.237 64.46-155.21 42.973-42.973 94.71-64.46 155.21-64.46z" fill-rule="evenodd"/></svg>