<svg width="512" height="512" xmlns="http://www.w3.org/2000/svg"><g fill-rule="evenodd"><path d="M409.706 80.305h-81.968v41.046h61.48v307.815H122.795V121.35h61.48V80.305h-81.982c-11.318 0-20.489 9.196-20.489 20.53v348.86c0 11.334 9.185 20.53 20.49 20.53h307.397c11.318 0 20.503-9.196 20.503-20.53V100.822c-.014-11.334-9.185-20.516-20.49-20.516z"/><path d="M209.322 160.66c.73.497 18.286 11.982 46.678 11.982 28.392 0 45.934-11.499 46.678-11.982a10.218 10.218 0 0 0 4.557-8.534V39.258c0-5.667-4.571-10.258-10.244-10.258h-81.968c-5.66 0-10.245 4.591-10.245 10.258v112.868c0 3.42 1.722 6.632 4.558 8.534h-.014zm15.945-111.13h61.48v96.419c-5.66 2.523-16.317 6.177-30.733 6.177-14.375 0-25.074-3.668-30.733-6.205l-.014-96.39zm-22.471 310.71c-22.65 7.404-43.03 8.728-43.03 38.744 0 6.15 31.243 12.037 82.809 12.933l6.527-42.108-3.291-5.281a1.952 1.952 0 0 1 .193-2.344l8.578-9.28c.743-.771 2.079-.771 2.822 0l8.592 9.28c.579.634.661 1.6.193 2.344l-3.29 5.28 6.526 42.095c51.58-.882 82.822-6.77 82.822-12.92 0-30.015-20.392-31.339-43.043-38.743-13.962-4.55-31.256-7.128-27.566-31.188 9.198-8.41 12.406-25.756 12.406-25.756s12.241-6.177 13.618-18.02C308.71 276.257 304 272.08 304 272.08v-11.47c0-25.453-21.783-45.542-48.014-45.542-26.23 0-48.013 20.076-48.013 45.542v11.471s-4.71 4.164-3.663 13.195c1.391 11.844 13.618 18.021 13.618 18.021s3.222 17.345 12.406 25.756c3.718 24.06-13.59 26.638-27.538 31.188z"/><path d="M272.33 70.047c0 9.03-7.311 16.352-16.33 16.352-9.019 0-16.33-7.321-16.33-16.352 0-9.032 7.311-16.353 16.33-16.353 9.019 0 16.33 7.321 16.33 16.353z"/></g></svg>