<svg width="512" height="512" xmlns="http://www.w3.org/2000/svg"><path d="M164.552 131.477h-37.55a8.81 8.81 0 0 0-8.79 8.788v37.532a8.812 8.812 0 0 0 8.79 8.805h37.55a8.817 8.817 0 0 0 8.804-8.805v-37.532a8.814 8.814 0 0 0-8.804-8.788zm29.472 14.643h198.745v25.838H194.024V146.12zm-29.472 81.817h-37.55a8.818 8.818 0 0 0-8.79 8.79v37.562a8.818 8.818 0 0 0 8.79 8.789h37.55a8.825 8.825 0 0 0 8.804-8.789v-37.563a8.825 8.825 0 0 0-8.804-8.788zm0 96.461h-37.55a8.822 8.822 0 0 0-8.79 8.805v37.547a8.81 8.81 0 0 0 8.79 8.789h37.55a8.814 8.814 0 0 0 8.804-8.789v-37.547a8.828 8.828 0 0 0-8.804-8.805zm1.91 46.337a1.94 1.94 0 0 1-1.91 1.91h-37.55a1.925 1.925 0 0 1-1.898-1.91v-37.548a1.936 1.936 0 0 1 1.897-1.91h37.55a1.94 1.94 0 0 1 1.91 1.91v37.548zm115.591-111.198a41.06 41.06 0 0 1 5.109-16.956h-93.138v25.838h87.78c.032-2.965.047-5.947.25-8.882zm-88.029 79.505v25.854h82.206l9.395-3.898c.155-.512.31-1.009.45-1.506a30.46 30.46 0 0 1 5.839-11.444 49.41 49.41 0 0 1-4.41-9.006h-93.48zM434.648 35H76.344C53.523 35.03 35.03 53.523 35 76.344v358.32c.03 22.82 18.524 41.311 41.344 41.336h358.304c22.825-.017 41.326-18.511 41.352-41.336V76.344c-.027-22.826-18.526-41.322-41.352-41.344zm13.79 399.664a13.59 13.59 0 0 1-1.46 5.916l-6.367-33.99a33.13 33.13 0 0 0-8.695-6.352 527.647 527.647 0 0 0-51.818-22.531 6.342 6.342 0 0 1-3.416-2.656 87.231 87.231 0 0 1-3.463-9.86c-.652-2.127-1.227-4.13-3.556-5.155a2.961 2.961 0 0 1-1.196-2.299c.14-7.733-1.661-15.838 4.069-22.577.158-.236.283-.492.372-.761 3.09-6.755 3.634-14.504 7.935-20.793.099-.165.157-.351.171-.543.482-4.814 1.025-9.596 1.429-14.41a2.312 2.312 0 0 0-.978-1.833c-2.392-.838-2.252-2.748-2.252-4.674V264.01a17.952 17.952 0 0 0-5.745-14.037c-4.674-4.208-9.488-8.292-14.333-12.36-2.314-1.988-2.531-3.479-.342-5.668a27.36 27.36 0 0 1 3.292-2.438c-.233-.373-.465-.73-.698-1.103a27.252 27.252 0 0 0-4.364.031c-5.326.87-10.683 1.615-15.932 2.858-10.015 2.36-19.72 5.465-27.826 12.174-5.56 4.596-10 9.907-10.575 17.469-.28 3.96-.233 7.92-.28 11.879-.015 6.46.078 12.92-.077 19.332a3.865 3.865 0 0 1-1.351 2.997c-2.609.87-2.655 2.532-2.33 4.69.265 1.49.078 3.075.389 4.519.9 4.021 1.863 8.059 3.028 12.018.854 2.95 2.531 5.746 3.012 8.743a29.48 29.48 0 0 0 7.206 15.76 4.49 4.49 0 0 1 1.086 3.029 189 189 0 0 1-1.428 13.804 3.32 3.32 0 0 1-1.832 2.392c-3.075.652-3.556 3.012-4.286 5.404-.947 3.152-2.003 6.304-3.215 9.363a4.571 4.571 0 0 1-2.267 2.345c-5.466 2.391-11.01 4.58-16.506 6.879-5.87 2.484-11.755 4.829-17.47 7.546-5.9 2.796-11.614 5.979-17.36 9.069a41.52 41.52 0 0 0-9.239 6.32l-7.795 41.413H76.344c-7.602-.015-13.762-6.171-13.781-13.773V76.344c.01-7.607 6.174-13.771 13.78-13.781h358.305c7.61.008 13.777 6.172 13.79 13.78v358.321z" fill-rule="evenodd"/></svg>