<svg width="512" height="512" xmlns="http://www.w3.org/2000/svg"><path d="M477 200.75H311.25l61.95-61.95c-31.314-31.298-72.93-48.55-117.2-48.55-44.27 0-85.9 17.238-117.2 48.55-31.298 31.314-48.55 72.93-48.55 117.2 0 44.27 17.238 85.9 48.55 117.2 31.314 31.298 72.93 48.55 117.2 48.55 44.27 0 85.9-17.238 117.2-48.55a172.008 172.008 0 0 0 7.54-8.054l41.576 36.382C381.804 447.788 322.328 477 256 477c-122.061 0-221-98.939-221-221S133.939 35 256 35c61.024 0 116.274 24.738 156.26 64.74L477 35v165.75z" fill-rule="evenodd"/></svg>