<svg width="512" height="512" xmlns="http://www.w3.org/2000/svg"><path d="M401.083 174.227c2.455-1 5.9-2.109 8.667-3 9.994-3.219 22.475-7.221 31.142-15.903l2.563-2.727v-.173c8.582-9.83 13.23-22.272 13.255-35.448 0-14.427-5.643-28-15.818-38.19-10.252-10.222-23.827-15.849-38.27-15.849-14.081 0-27.36 5.37-37.502 15.137l-.782.742c-8.627 8.627-12.863 20.591-16.255 30.197-1.008 2.86-2.273 6.43-3.375 8.845-.118-.118-.251-.233-.367-.36L256.865 30l-91.94 91.97c-1.93 1.93-7.751 7.767-6.009 15.458 1.86 8.212 10.23 11.175 19.084 14.308 6.425 2.274 13.646 4.822 18.303 8.973l.867.851c5.43 5.455 8.44 12.7 8.44 20.397 0 7.673-3.01 14.888-8.464 20.334-10.846 10.885-29.812 10.863-40.73-.01l-.915-.89c-3.97-4.588-6.33-11.973-8.44-18.536-2.978-9.379-6.37-19.998-16.785-19.998-4.197 0-8.284 2.049-12.496 6.252l-86.776 86.782 225.86 225.884 80.952-80.96c2.149-2.142 8.658-8.652 6.782-16.943-2.015-8.915-11.19-12.145-21.811-15.903-8.346-2.96-17.794-6.29-23.685-12.182-14.168-14.19-14.168-37.284 0-51.46 6.884-6.885 16.036-10.66 25.733-10.66 9.721 0 18.873 3.775 25.727 10.66l1.336 1.234c4.93 5.766 7.815 14.77 10.363 22.787 3.58 11.206 7.291 22.78 18.482 22.78 6.073 0 10.752-3.979 13.761-6.97l88.267-88.282-81.688-81.649zM382.08 331.6c-1.01-2.455-2.088-5.87-2.979-8.628-3.212-10.018-7.182-22.475-15.872-31.164l-3.055-2.875-.203.015c-9.791-8.385-22.1-12.957-35.127-12.957-14.427 0-28 5.627-38.237 15.84-21.07 21.075-21.07 55.381.094 76.53 8.643 8.642 20.6 12.863 30.203 16.254 2.821 1.015 6.37 2.258 8.785 3.352a6.602 6.602 0 0 0-.343.36l-68.48 68.464-200.87-200.9 72.605-72.615c.58 1.61 1.149 3.424 1.649 4.963 2.703 8.488 6.08 19.052 13.573 26.54l2.57 2.46h.203c8.416 7.213 19.013 11.152 30.227 11.152 12.41 0 24.085-4.837 32.822-13.613 8.784-8.751 13.645-20.412 13.645-32.814 0-11.824-4.376-22.976-12.379-31.594l-1.29-1.391c-7.455-7.431-17.567-11.027-25.727-13.903-1.603-.57-3.533-1.251-5.182-1.9l78.148-78.178 74.99 74.99c3.056 3.048 7.822 7.097 13.989 7.097 11.081 0 15.075-11.276 18.918-22.185 2.845-8.058 6.057-17.137 11.495-22.983l.687-.663c6.861-6.87 15.989-10.643 25.688-10.643 9.721 0 18.873 3.79 25.773 10.69 6.86 6.855 10.642 15.974 10.642 25.688 0 9.722-3.781 18.858-10.642 25.727l-1.142 1.188c-5.752 5.01-14.833 7.924-22.913 10.518-10.87 3.494-20.272 6.51-22.427 15.419-1.994 8.236 4.494 14.715 6.634 16.84l69.254 69.214L382.08 331.6z" fill="#010002" fill-rule="evenodd"/></svg>