<svg width="512" height="512" xmlns="http://www.w3.org/2000/svg"><g fill-rule="evenodd"><path d="M498.174 376.19c-6.678-19.658-19.829-76.575-85.02-90.346l8.952-2.368c21.125-5.595 35.872-24.753 35.872-46.605v-8.949c3.237-1.673 5.542-4.64 6.457-8.253 17.605-.364 31.797-14.677 31.797-32.362 0-17.684-14.193-31.998-31.797-32.36-.885-3.442-3.015-6.25-6.03-7.963 1.073-12.8-1.596-29.915-8.985-46.226-3.569-7.395-7.974-15.3-14.179-22.553-52.478-66.877-169.912-46.392-189.568 43.685-.033.134-.033.244-.063.37 5.557 4.79 10.592 9.676 14.445 14.614.175.205.301.41.474.616 28.388-97.038 166.44-92.177 183.587 10.67-2.922 2.367-4.895 5.831-4.895 9.879v58.55c0 3.884 1.815 7.262 4.53 9.628.412.34.87.585 1.311.876v9.778c0 35.053-38.08 37.254-72.025 46.242-8.415-9.084-23.273-3.101-23.273 9.067 0 15.347 21.947 18.868 26.209 3.512 16.72-4.428 12.157-3.22 22.593-5.981a93.968 93.968 0 0 1-9.267 5.492c-3.031 25.969-37.845 32.156-49.577 8.664-11.066-1.561-21.55-5.46-31.228-11.174-5.968 5.304-13.231 9.178-21.236 11.048-.189.246-.378.481-.583.72 0 16.136-4.674 29.938-14.447 42.02 21.947 13.287 39.771 32.841 50.87 56.886h155.593c14.116 0 24-13.873 19.483-27.178z"/><path d="M341.113 277.936c4.705-7.267 12.836-12.113 22.104-12.113 6.094 0 11.635 2.155 16.087 5.627 26.872-14.788 45.77-49.974 45.77-91.063 0-54.426-33.14-98.538-74.032-98.538-37.259 0-68.015 36.719-73.161 84.46 2.89 6.889 5.288 14.014 6.914 21.4 1.769 8.365 2.164 13.628 2.511 21.528 21.472 5.05 37.623 24.469 37.623 47.244 0 5.168-.931 10.117-2.462 14.81a59.732 59.732 0 0 0 18.646 6.645zm-88.826 84.839c-11.162 5.902-15.282 5.965-57.958 17.273-12.71 12.579-33.944 9.28-42.077-7.007-16.293-2.313-31.418-9.46-44.38-20.36-39.455 5.438-73.164 32.543-86.236 71.037-6.11 17.967-13.183 29.298-4.736 41.057 10.168 14.22 9.456 8.727 276.373 8.727 14.305 0 24.377-14.117 19.799-27.611-7.878-23.19-16.608-61.044-60.785-83.116zm-98.644-15.673c6.079-9.367 17.43-14.48 29.556-10.905l22.924-6.077c34.498-32.337 29.477-72.914 29.477-103.018-17.32-98.63-126.228-101.282-144.021 0 0 161.61.016-116.615.016 44.996 6.931 39.337 31.513 69.536 62.048 75.004z"/><path d="M50.246 288.842c1.405 5.589 6.235 9.818 12.268 9.818 7.136 0 12.914-5.777 12.914-12.894v-58.551c0-4.057-1.99-7.522-4.91-9.887 3.237-20.155 14.052-40.104 27.504-53.33 19.75-21.02 52.812-33.157 90.481-24.003 14.494 4.72 28.767 11.308 40.656 24.003 13.23 12.974 23.982 32.442 27.488 53.337-7.626 6.18-4.896 11.513-4.896 68.432 0 4.45 2.4 8.192 5.843 10.503v9.786c0 33.899-33.456 36.015-72.01 46.233-8.415-9.082-23.29-3.101-23.29 9.069 0 15.347 21.962 18.874 26.226 3.51 39.913-10.566 81.989-14.558 81.989-58.812v-8.957c3.237-1.672 5.542-4.64 6.44-8.261 17.638-.356 31.814-14.677 31.814-32.354 0-17.675-14.177-31.99-31.814-32.354-.868-3.44-2.999-6.259-6.014-7.978.663-7.758-.301-17.273-1.958-25.085a108.52 108.52 0 0 0-7.01-21.134c-3.584-7.393-7.99-15.3-14.195-22.545-5.872-7.511-13.451-14.362-22.009-20.39-74.568-51.648-177.538 9.446-169.534 89.17-3 1.72-5.115 4.53-5.983 7.954-17.651.346-31.846 14.67-31.846 32.36 0 17.692 14.195 32.023 31.846 32.36z"/></g></svg>