<svg width="512" height="512" xmlns="http://www.w3.org/2000/svg"><path d="M332.13 351.626c-33.537 0-60.827 28.343-60.827 62.64h27.4c0-20.579 14.796-35.203 33.23-35.203 18.433 0 33.222 15.352 33.222 34.599 0 19.247-13.29 34.9-33.84 34.9V476c34.25 0 61.233-27.815 61.233-62.187s-26.88-62.187-60.417-62.187zm-42.147-1.126l-58.821-60.684c12.487-20.263 12.487-46.376 0-66.632l68.945-71.139c9.357 5.879 20.324 9.33 32.038 9.33 33.537 0 60.828-28.344 60.828-62.64h-27.4c0 20.578-15.2 35.202-33.634 35.202-18.433 0-33.633-15.352-33.633-34.599 0-19.247 12.467-34.9 33.017-34.9V37c-34.25 0-60.417 27.815-60.417 62.187 0 12.36 3.623 23.843 9.775 33.522l-68.733 70.919c-9.556-6.132-20.591-9.466-32.147-9.466-16.324 0-31.654 6.544-43.155 18.404-23.49 24.234-23.49 63.648 0 87.868 11.5 11.874 26.831 18.41 43.155 18.41 11.562 0 22.59-3.34 32.147-9.465l58.382 60.232 19.653-19.11zm-133.685-69.183c-13.275-13.684-13.275-35.95 0-49.641 6.302-6.503 14.646-10.076 23.496-10.076 8.85 0 17.193 3.58 23.495 10.083 13.276 13.684 13.276 35.95 0 49.641-6.302 6.503-14.645 10.076-23.495 10.076-8.85 0-17.194-3.58-23.496-10.083z" fill-rule="evenodd"/></svg>