<svg width="512" height="512" xmlns="http://www.w3.org/2000/svg"><g fill-rule="evenodd"><path d="M432.53 96.863c2.089-3.668 1.754-8.885-1.182-11.917l-44.99-46.475c-2.936-3.035-7.515-2.862-10.49.135-43.522 43.85-96.31 11.97-113.875-.902-3.406-2.497-8.608-2.495-12.013.002-17.567 12.873-70.353 44.747-113.872.902-2.974-2.996-7.555-3.17-10.49-.135l-44.99 46.47c-2.937 3.035-3.271 8.248-1.183 11.918 9.997 17.567 31.776 70.317-8.875 147.967-55.167 105.378 48.521 164.435 92.71 183.707 33.458 14.59 71.463 38.218 86.3 47.733 3.556 2.28 9.263 2.28 12.819 0 14.837-9.515 52.842-33.143 86.3-47.733 44.189-19.27 147.877-78.328 92.71-183.707-40.654-77.65-18.875-130.401-8.878-147.965zm-17.94 223.083c-6.232 17.688-25.403 51.164-83.768 76.615-25.666 11.194-54.982 29.423-66.393 36.741-2.355 1.509-5.35 2.339-8.437 2.339-3.087 0-6.082-.83-8.437-2.339-11.414-7.318-40.73-25.547-66.392-36.74-58.366-25.45-77.537-58.928-83.77-76.616-8.298-23.555-5.477-48.924 8.39-75.41 29.93-57.168 14.885-95.456 7.027-109.261-3.1-5.448-2.309-12.544 1.881-16.874l35.075-36.233c2.28-2.355 5.315-3.652 8.544-3.652 3.266 0 6.37 1.315 8.739 3.7 10.251 10.33 22.145 15.566 35.348 15.566h.005c19.905 0 38.199-11.833 45.14-16.919 4.738-3.47 12.164-3.47 16.899-.003 6.944 5.09 25.238 16.922 45.135 16.922h.005c13.208 0 25.105-5.239 35.353-15.566 2.369-2.387 5.47-3.702 8.738-3.702 3.232 0 6.265 1.297 8.547 3.651l35.075 36.236c4.191 4.327 4.983 11.423 1.882 16.871-7.858 13.805-22.9 52.093 7.028 109.262 13.863 26.488 16.685 51.857 8.386 75.412z"/><path d="M388.095 128.974c.33-.58.214-1.485.03-1.72L353.59 91.58c-12.656 12.575-27.456 18.943-44.014 18.945h-.007c-22.81 0-42.79-12.144-52.67-19.386-.308-.224-1.524-.227-1.83.002-9.876 7.236-29.855 19.38-52.674 19.383h-.005c-16.557 0-31.36-6.373-44.007-18.945l-34.541 35.683c-.176.225-.293 1.131.038 1.712 8.89 15.625 26.028 58.741-6.813 121.47-12.158 23.227-14.733 45.186-7.657 65.27 13.4 38.03 58.203 61.042 76.844 69.17 26.504 11.56 56.507 30.21 68.18 37.694.172.112.726.324 1.557.324s1.38-.212 1.558-.324c11.669-7.484 41.672-26.133 68.179-37.694 18.64-8.128 63.443-31.14 76.843-69.17 7.076-20.084 4.498-42.043-7.657-65.27-32.847-62.73-15.71-105.844-6.82-121.469zm-41.818 96.468l-51.818 37.635 19.793 60.894c2.2 6.768-.686 8.865-6.446 4.681l-51.818-37.632-51.817 37.635c-5.761 4.183-8.647 2.087-6.447-4.68l19.793-60.895-51.818-37.636c-5.761-4.183-4.657-7.575 2.462-7.575h64.05l19.793-60.894c2.2-6.77 5.768-6.77 7.969 0l19.792 60.894h64.05c7.118-.002 8.222 3.39 2.462 7.573z"/></g></svg>