<svg width="512" height="512" xmlns="http://www.w3.org/2000/svg"><g fill-rule="evenodd"><path d="M494.987 70.76c.003-.056.005-.112.006-.17.002-.065-.001-.129-.001-.194 0-.122.001-.243-.004-.363-.005-.103-.016-.204-.025-.306l-.004-.04c-.006-.06-.008-.119-.015-.178a6.656 6.656 0 0 0-.026-.196c-.014-.096-.035-.192-.052-.288-.025-.133-.048-.266-.08-.399l-.011-.042c-.023-.093-.054-.185-.081-.278-.038-.13-.074-.258-.119-.386-.021-.062-.046-.121-.068-.182-.021-.056-.046-.11-.068-.165l-.002-.004c-.043-.105-.083-.21-.13-.314-.054-.116-.115-.227-.174-.34-.03-.056-.057-.112-.088-.167-.026-.046-.05-.093-.077-.139a8.014 8.014 0 0 0-.298-.458c-.034-.048-.062-.1-.097-.148l-.005-.008-.015-.02c-.092-.125-.196-.245-.298-.367-.063-.075-.123-.156-.188-.227l-.091-.095c-.047-.05-.098-.098-.147-.146-.102-.104-.203-.209-.31-.306l-.02-.02c-.044-.039-.09-.07-.135-.108l-.064-.052c-.032-.027-.059-.058-.091-.084-.022-.017-.045-.029-.067-.047-.07-.055-.138-.11-.209-.163-.069-.05-.142-.094-.212-.143-.13-.088-.261-.178-.397-.257-.099-.059-.201-.11-.302-.162-.11-.06-.22-.119-.332-.172-.047-.021-.094-.044-.141-.064l-.09-.036-.146-.058c-.095-.038-.19-.078-.285-.113-.104-.037-.209-.067-.313-.098-.06-.02-.12-.038-.182-.055-.065-.017-.129-.037-.194-.054-.138-.034-.278-.06-.418-.086-.078-.015-.156-.036-.235-.048l-.062-.007c-.13-.02-.26-.03-.388-.042-.111-.01-.221-.023-.332-.03l-.15-.006c-.06-.002-.118.002-.177.002h-.025c-.125 0-.25-.002-.376.004-.1.004-.2.016-.3.024-.065.006-.132.01-.198.017a5.779 5.779 0 0 0-.222.028c-.1.014-.197.035-.296.053-.123.023-.248.043-.37.072l-.043.012c-.103.025-.206.058-.309.088-.126.036-.252.071-.376.115-.06.02-.12.045-.18.067-.015.006-.031.01-.047.015L21.773 242.534a7.462 7.462 0 0 0 .014 13.925l138.058 53.057 44.238 136.313c.006.02.017.037.023.055.013.04.023.081.037.122.104.297.234.586.377.87.03.06.06.116.091.174.14.26.292.514.464.759.023.032.042.067.066.099l.034.047c.013.017.027.032.04.05.056.074.119.146.179.219.07.088.138.177.212.262.058.064.122.124.183.187l.084.086c.042.043.083.089.127.13.045.045.09.09.136.132.045.041.093.079.14.118.144.126.29.248.442.364l.027.022c.014.01.031.018.045.028.047.034.095.065.141.097.24.167.492.321.755.46.043.022.083.051.126.073.014.007.028.012.042.02.246.122.5.234.764.332.056.02.113.034.17.053.073.025.147.047.221.07.322.098.645.177.969.231l.043.01c.031.005.062.004.093.009a7.45 7.45 0 0 0 1.07.084h.002c.03 0 .058-.007.086-.007.308-.004.614-.029.918-.07.046-.006.093-.005.137-.012.066-.01.131-.034.196-.046a7.27 7.27 0 0 0 .702-.163c.075-.021.152-.035.226-.059.014-.003.027-.005.04-.01.035-.01.069-.027.104-.04.111-.037.22-.081.329-.124.146-.058.29-.117.43-.182l.065-.027c.012-.007.026-.01.038-.016.07-.034.136-.075.205-.111a7.511 7.511 0 0 0 .695-.411l.003-.002c.026-.018.053-.033.08-.05.123-.086.24-.18.36-.273.069-.054.139-.105.206-.161.074-.063.144-.13.215-.194.056-.05.108-.102.162-.154a7.57 7.57 0 0 0 .647-.706l.051-.061c.022-.028.04-.059.061-.087.016-.02.035-.038.05-.06l54.575-73.69a7.458 7.458 0 0 0-1.56-10.438 7.473 7.473 0 0 0-10.446 1.56l-23.712 32.017 18.846-51.406 178.383 67.652a7.48 7.48 0 0 0 6.413-.53 7.464 7.464 0 0 0 3.62-5.316L494.915 71.52c.003-.016.002-.032.004-.048.018-.124.028-.248.04-.372.01-.113.022-.226.028-.34zm-58.283 27.291L223.373 252.865a7.46 7.46 0 0 0-1.655 10.423 7.46 7.46 0 0 0 6.05 3.078 7.442 7.442 0 0 0 4.382-1.426l203.79-147.889-190.728 213.991a7.416 7.416 0 0 0-1.737 2.657c-.067.176-.119.354-.172.531l-31.686 86.432-38.663-119.132a7.449 7.449 0 0 0-4.414-4.658l-.034-.015-123.29-47.382L436.704 98.05zm-6.76 298.383l-166.673-63.21 213.052-239.04-46.38 302.25z"/><path d="M190.187 293.638a7.442 7.442 0 0 0 4.383-1.426l14.518-10.535a7.46 7.46 0 0 0 1.654-10.424 7.473 7.473 0 0 0-10.432-1.653l-14.517 10.536a7.46 7.46 0 0 0-1.655 10.423 7.458 7.458 0 0 0 6.05 3.079z"/></g></svg>