<svg width="512" height="512" xmlns="http://www.w3.org/2000/svg"><g fill-rule="evenodd"><path d="M374.4 463.2H48.8v-333h74c4.44 0 7.4-2.96 7.4-7.4v-74h244.2V293h14.8V41.4c0-4.44-2.96-7.4-7.4-7.4h-259c-.74 0-1.48 0-2.22.74h-.74c-.74.74-1.48.74-2.22 1.48l-81.4 81.4c-.74.74-.74 1.48-1.48 2.22v.74c0 .74-.74 1.48-.74 2.22v347.8c0 4.44 2.96 7.4 7.4 7.4h340.4c4.44 0 7.4-2.96 7.4-7.4V441h-14.8v22.2zM59.16 115.4l28.12-28.12 28.12-28.12v56.24H59.16z"/><path d="M470.6 315.2h-96.2V330h88.8v74H78.4v14.8h392.2c4.44 0 7.4-2.96 7.4-7.4v-88.8c0-4.44-2.96-7.4-7.4-7.4z"/><path d="M78.4 344.8h148v14.8h-148zm0 29.6H404v14.8H78.4zm170.2-29.6h37v14.8h-37zm59.2 0h37v14.8h-37zm-199.8-74h37v14.8h-37zm-29.6 0h22.2v14.8H78.4zm0 29.6h37v14.8h-37zm44.4 0H145v14.8h-22.2zM108 211.6h37v14.8h-37zm-29.6 0h22.2v14.8H78.4zm0 29.6h37V256h-37zm44.4 0H145V256h-22.2zM307.8 71h44.4v14.8h-44.4zm22.2 29.6h22.2v14.8H330zM174.6 241.2v74h14.8v-74c0-20.72 16.28-37 37-37h9.62l20.72 54.76c.74 2.22 3.7 4.44 6.66 4.44s5.92-2.22 8.14-4.44l20.72-54.76h8.14c20.72 0 37 16.28 37 37v74h14.8v-74c0-28.86-22.94-51.8-51.8-51.8h-74c-28.86 0-51.8 22.94-51.8 51.8zm89.54-5.92L252.3 204.2h23.68l-11.84 31.08z"/><path d="M256 270.8h14.8v14.8H256zm0 29.6h14.8v14.8H256zm0-118.4h14.8c20.72 0 37-16.28 37-37v-22.2c0-20.72-16.28-37-37-37H256c-20.72 0-37 16.28-37 37V145c0 20.72 16.28 37 37 37zm-22.2-59.2c0-12.58 9.62-22.2 22.2-22.2h14.8c12.58 0 22.2 9.62 22.2 22.2V145c0 12.58-9.62 22.2-22.2 22.2H256c-12.58 0-22.2-9.62-22.2-22.2v-22.2zm-22.2 140.6h14.8v51.8h-14.8zm88.8 0h14.8v51.8h-14.8z"/></g></svg>