<svg width="512" height="512" xmlns="http://www.w3.org/2000/svg"><path d="M334.721 349.228c-34.901 0-63.294 28.382-63.294 63.267 0 34.886 28.393 63.27 63.294 63.27 34.902 0 63.296-28.383 63.296-63.27 0-34.886-28.394-63.267-63.296-63.267zm0 108.64c-25.026 0-45.388-20.354-45.388-45.371 0-25.018 20.362-45.37 45.388-45.37 25.028 0 45.39 20.354 45.39 45.37s-20.36 45.37-45.39 45.37zm-104.98-258.446a8.93 8.93 0 0 0 6.33-2.62l53.39-53.367c11.502 11.774 27.537 19.103 45.262 19.103 34.901 0 63.295-28.382 63.295-63.267 0-34.886-28.395-63.271-63.297-63.271-34.901 0-63.294 28.382-63.294 63.269a62.83 62.83 0 0 0 7.346 29.538l-55.361 55.337a8.945 8.945 0 0 0-.002 12.656 8.926 8.926 0 0 0 6.331 2.622zm104.98-145.524c25.028 0 45.39 20.354 45.39 45.371 0 25.017-20.362 45.37-45.39 45.37-25.026 0-45.388-20.354-45.388-45.37s20.362-45.37 45.388-45.37zM272.03 356.581l-52.768-52.745c13.5-11.611 22.075-28.795 22.075-47.954 0-34.887-28.393-63.269-63.294-63.269-34.901 0-63.295 28.382-63.295 63.27 0 34.886 28.395 63.268 63.295 63.268 9.16 0 17.864-1.97 25.73-5.486l55.596 55.572a8.928 8.928 0 0 0 6.33 2.62c2.29 0 4.582-.874 6.33-2.62a8.945 8.945 0 0 0 .001-12.656zM132.653 255.882c0-25.017 20.362-45.37 45.39-45.37 25.026 0 45.388 20.353 45.388 45.37 0 25.018-20.36 45.37-45.388 45.37s-45.39-20.352-45.39-45.37z" fill-rule="evenodd"/></svg>