<svg width="512" height="512" xmlns="http://www.w3.org/2000/svg"><g fill-rule="evenodd"><path d="M232.047 177.611h7.933c4.378 0 7.933-3.551 7.933-7.927 0-4.376-3.555-7.927-7.933-7.927h-7.933c-4.38 0-7.933 3.551-7.933 7.927 0 4.376 3.554 7.927 7.933 7.927zm-119-63.421h7.933c4.378 0 7.933-3.552 7.933-7.927 0-4.376-3.555-7.928-7.933-7.928h-7.933c-4.38 0-7.933 3.552-7.933 7.928 0 4.375 3.554 7.927 7.933 7.927z"/><path d="M192.69 191.509c1.515 15.236 8.139 28.65 8.457 29.284 7.195 14.373 18.063 36.094 54.7 36.094 36.636 0 47.505-21.721 54.692-36.094.326-.634 6.95-14.048 8.465-29.284 4.91-2.695 8.243-7.92 8.243-13.898v-15.855c0-5.859-3.198-10.98-7.933-13.723v-2.132c0-26.232-21.349-47.566-47.6-47.566H239.98c-26.252 0-47.6 21.334-47.6 47.566v2.132c-4.736 2.744-7.933 7.864-7.933 13.723v15.855c-.001 5.978 3.33 11.202 8.241 13.898zm7.624-29.753c4.378 0 7.933-3.552 7.933-7.927V145.9c0-17.489 14.232-31.71 31.733-31.71h31.733c17.501 0 31.733 14.222 31.733 31.71v7.928c0 4.375 3.554 7.927 7.933 7.927v15.855c-4.38 0-7.933 3.552-7.933 7.928 0 13.715-7.03 28.032-7.1 28.167-8.259 16.505-15.542 27.326-40.5 27.326-24.959 0-32.25-10.821-40.5-27.319-.072-.143-7.1-14.46-7.1-28.174 0-4.376-3.555-7.928-7.933-7.928v-15.855zm-71.29 54.288l-6.592 39.495a7.921 7.921 0 0 0 6.513 9.125c.445.072.88.103 1.318.103 3.808 0 7.171-2.743 7.814-6.619l5.482-32.796c11.448.262 22.03 1.252 31.56 2.964 4.33.785 8.432-2.1 9.21-6.405a7.923 7.923 0 0 0-6.402-9.204c-12.162-2.18-25.823-3.282-40.61-3.282-4 .04-7.635 2.647-8.293 6.619zM382.78 114.19h7.933c4.378 0 7.933-3.552 7.933-7.927 0-4.376-3.555-7.928-7.933-7.928h-7.933c-4.38 0-7.933 3.552-7.933 7.928 0 4.375 3.554 7.927 7.933 7.927z"/><path d="M271.714 177.611h7.933c4.378 0 7.933-3.551 7.933-7.927 0-4.376-3.555-7.927-7.933-7.927h-7.933c-4.38 0-7.933 3.551-7.933 7.927-.001 4.376 3.553 7.927 7.933 7.927zm150.733-63.421h7.933c4.378 0 7.933-3.552 7.933-7.927 0-4.376-3.555-7.928-7.933-7.928h-7.933c-4.38 0-7.933 3.552-7.933 7.928 0 4.375 3.554 7.927 7.933 7.927z"/><path d="M343.422 128.087c1.516 15.237 8.14 28.65 8.457 29.285 7.195 14.373 18.063 36.094 54.7 36.094 36.636 0 47.505-21.721 54.7-36.094.317-.635 6.942-14.048 8.457-29.285 4.91-2.695 8.243-7.92 8.243-13.897V98.335c0-5.859-3.197-10.98-7.933-13.723V82.48c0-26.233-21.349-47.566-47.6-47.566h-31.733c-26.252 0-47.6 21.333-47.6 47.566v2.132c-4.736 2.743-7.933 7.864-7.933 13.723v15.855c0 5.977 3.332 11.201 8.242 13.897zm7.625-29.752c4.378 0 7.933-3.552 7.933-7.928V82.48c0-17.489 14.232-31.71 31.733-31.71h31.733c17.501 0 31.733 14.222 31.733 31.71v7.927c0 4.376 3.554 7.928 7.933 7.928v15.855c-4.38 0-7.933 3.552-7.933 7.927 0 13.716-7.029 28.033-7.1 28.167-8.259 16.505-15.542 27.327-40.5 27.327-24.966 0-32.25-10.822-40.5-27.32-.072-.142-7.1-14.46-7.1-28.174 0-4.375-3.554-7.927-7.933-7.927V98.335zm-23.825 123.567c.77 4.305 4.848 7.167 9.21 6.413 9.545-1.712 20.168-2.703 31.646-2.964l5.483 32.796c.642 3.877 4.006 6.62 7.814 6.62a8.25 8.25 0 0 0 1.317-.104 7.926 7.926 0 0 0 6.514-9.125l-6.593-39.495c-.674-3.971-4.109-6.588-8.298-6.62-14.82 0-28.504 1.103-40.682 3.283-4.308.77-7.18 4.892-6.41 9.196zm-261.887-5.85c-.658-3.987-4.34-6.596-8.322-6.627-11.415 0-22.221.666-32.114 1.966a7.929 7.929 0 0 0-6.83 8.894c.579 4.344 4.578 7.381 8.9 6.825 7.419-.975 15.399-1.57 23.832-1.76l22.69 135.904c.642 3.877 4.005 6.62 7.813 6.62a7.55 7.55 0 0 0 1.318-.111c4.315-.713 7.234-4.804 6.513-9.125l-23.8-142.586zm230.694 56.794c-4.07.008-7.814 2.76-8.378 6.85l-23.8 174.312a7.933 7.933 0 0 0 7.87 8.999 7.932 7.932 0 0 0 7.855-6.857l22.856-167.376c33.812.825 59.913 8.15 72.218 20.413 5.474 5.463 8.131 11.694 8.131 19.05v126.84c0 4.376 3.555 7.928 7.934 7.928 4.378 0 7.933-3.552 7.933-7.927V328.236c0-11.614-4.309-21.801-12.797-30.267-16.249-16.213-48.132-25.123-89.822-25.123zm-24.315 15.752c0-8.744-7.116-15.856-15.867-15.856-8.75 0-15.867 7.11-15.867 15.856 0 5.842 3.213 10.9 7.933 13.65v57.698c0 4.376 3.554 7.928 7.933 7.928 4.378 0 7.933-3.552 7.933-7.928V302.25c4.722-2.75 7.935-7.809 7.935-13.651z"/><path d="M343.114 367.874c-4.38 0-7.933 3.552-7.933 7.928v95.131c0 4.376 3.554 7.928 7.933 7.928 4.378 0 7.933-3.552 7.933-7.928v-95.131c0-4.376-3.555-7.928-7.933-7.928zm87.297-142.697c0-8.744-7.124-15.855-15.883-15.855-8.758 0-15.882 7.11-15.882 15.855 0 5.843 3.213 10.893 7.933 13.644v57.705c0 4.376 3.554 7.927 7.933 7.927s7.933-3.551 7.933-7.927v-57.682c4.737-2.75 7.966-7.817 7.966-13.667zm56.541-13.787c-9.909-1.3-20.73-1.965-32.177-1.965-4.102 0-7.664 2.64-8.33 6.619l-23.84 142.594c-.723 4.321 2.19 8.412 6.513 9.125.444.079.88.11 1.317.11 3.808 0 7.172-2.743 7.814-6.619l22.73-135.903c8.456.19 16.469.785 23.894 1.76 4.308.554 8.33-2.482 8.901-6.826.58-4.344-2.482-8.323-6.822-8.894zM73.38 114.19h7.933c4.378 0 7.933-3.552 7.933-7.927 0-4.376-3.555-7.928-7.933-7.928H73.38c-4.38 0-7.933 3.552-7.933 7.928 0 4.375 3.554 7.927 7.933 7.927zm23.8 95.132c-8.75 0-15.867 7.11-15.867 15.855 0 5.843 3.213 10.9 7.933 13.651v57.698c0 4.376 3.554 7.927 7.933 7.927s7.933-3.551 7.933-7.927v-57.698c4.72-2.75 7.933-7.808 7.933-13.65.002-8.746-7.114-15.856-15.865-15.856z"/><path d="M34.022 128.087c1.507 15.237 8.14 28.65 8.457 29.285 7.195 14.373 18.064 36.094 54.7 36.094s47.505-21.721 54.692-36.094c.326-.635 6.95-14.048 8.465-29.285 4.91-2.695 8.243-7.92 8.243-13.897V98.335c0-5.859-3.198-10.98-7.933-13.723V82.48c0-26.233-21.349-47.566-47.6-47.566H81.314c-26.252 0-47.6 21.333-47.6 47.566v2.132c-4.736 2.743-7.933 7.864-7.933 13.723v15.855c-.001 5.977 3.33 11.201 8.241 13.897zm7.625-29.752c4.378 0 7.933-3.552 7.933-7.928V82.48c0-17.489 14.232-31.71 31.733-31.71h31.733c17.501 0 31.733 14.222 31.733 31.71v7.927c0 4.376 3.554 7.928 7.933 7.928v15.855c-4.38 0-7.933 3.552-7.933 7.927 0 13.716-7.03 28.033-7.1 28.167-8.259 16.505-15.542 27.327-40.5 27.327-24.966 0-32.24-10.822-40.5-27.32-.072-.142-7.1-14.46-7.1-28.174 0-4.375-3.555-7.927-7.933-7.927V98.335zM168.58 367.874c-4.38 0-7.933 3.552-7.933 7.928v95.131c0 4.376 3.554 7.928 7.933 7.928 4.378 0 7.933-3.552 7.933-7.928v-95.131c0-4.376-3.554-7.928-7.933-7.928z"/><path d="M224.042 279.703a7.936 7.936 0 0 0-7.846-6.857c-41.681.056-74.033 8.84-90.352 25.123-8.497 8.467-12.796 18.653-12.796 30.267v126.842c0 4.375 3.554 7.927 7.933 7.927 4.378 0 7.933-3.552 7.933-7.927V328.236c0-7.357 2.658-13.588 8.139-19.05 12.297-12.264 38.397-19.59 72.209-20.406l22.856 167.368a7.93 7.93 0 0 0 8.933 6.786 7.933 7.933 0 0 0 6.791-8.927l-23.8-174.304z"/></g></svg>