<svg width="512" height="512" xmlns="http://www.w3.org/2000/svg"><path d="M490.87 38.41a7.12 7.12 0 0 0-7.679-1.101L22.111 251.128A7.092 7.092 0 0 0 18 257.482a7.088 7.088 0 0 0 3.974 6.442l130.485 63.913a7.117 7.117 0 0 0 7.383-.686l126.868-94.64-99.596 102.25a7.084 7.084 0 0 0-1.99 5.485l9.917 128.895a7.093 7.093 0 0 0 4.865 6.193 7.11 7.11 0 0 0 7.598-2.103l69.257-80.1 85.616 40.829a7.118 7.118 0 0 0 5.898.103 7.098 7.098 0 0 0 3.943-4.378l120.745-383.82a7.082 7.082 0 0 0-2.093-7.456z" fill-rule="evenodd"/></svg>