<svg width="512" height="512" xmlns="http://www.w3.org/2000/svg"><path d="M411.98 165.042c35.293 0 64.02-28.727 64.02-64.021S447.273 37 411.98 37c-35.295 0-64.022 28.727-64.022 64.02 0 35.295 28.727 64.022 64.021 64.022zm0-109.75c25.214 0 45.728 20.514 45.728 45.729s-20.514 45.729-45.729 45.729-45.729-20.514-45.729-45.73c0-25.214 20.514-45.728 45.73-45.728zM256.5 37c-35.294 0-64.02 28.727-64.02 64.02 0 35.295 28.726 64.022 64.02 64.022s64.02-28.727 64.02-64.021S291.795 37 256.5 37zm0 109.75c-25.215 0-45.73-20.514-45.73-45.73 0-25.214 20.515-45.728 45.73-45.728 25.215 0 45.73 20.514 45.73 45.729s-20.515 45.729-45.73 45.729zm0 45.73c-35.294 0-64.02 28.726-64.02 64.02s28.726 64.02 64.02 64.02 64.02-28.726 64.02-64.02-28.726-64.02-64.02-64.02zm0 109.75c-25.215 0-45.73-20.515-45.73-45.73 0-25.215 20.515-45.73 45.73-45.73 25.215 0 45.73 20.515 45.73 45.73 0 25.215-20.515 45.73-45.73 45.73zM101.02 37C65.728 37 37 65.727 37 101.02c0 35.295 28.727 64.022 64.02 64.022 35.295 0 64.022-28.727 64.022-64.021S136.315 37 101.02 37zm0 109.75c-25.214 0-45.728-20.514-45.728-45.73 0-25.214 20.514-45.728 45.729-45.728s45.729 20.514 45.729 45.729-20.514 45.729-45.73 45.729zm310.96 45.73c-35.295 0-64.022 28.726-64.022 64.02s28.727 64.02 64.021 64.02S476 291.795 476 256.5s-28.727-64.02-64.02-64.02zm0 109.75c-25.216 0-45.73-20.515-45.73-45.73 0-25.215 20.514-45.73 45.73-45.73 25.214 0 45.728 20.515 45.728 45.73 0 25.215-20.514 45.73-45.729 45.73zm0 45.728c-35.295 0-64.022 28.727-64.022 64.021S376.685 476 411.98 476 476 447.273 476 411.98c0-35.295-28.727-64.022-64.02-64.022zm0 109.75c-25.216 0-45.73-20.514-45.73-45.729s20.514-45.729 45.73-45.729c25.214 0 45.728 20.514 45.728 45.73 0 25.214-20.514 45.728-45.729 45.728z" fill-rule="evenodd"/></svg>