<svg width="512" height="512" xmlns="http://www.w3.org/2000/svg"><g fill-rule="evenodd"><path d="M343.373 284.217c2.813-.714 5.15-1.905 7.01-3.572 1.86-1.666 3.386-4.476 4.579-8.334 1.192-3.858 1.765-9.144 1.765-15.764 0-6.667-.573-11.763-1.765-15.334-1.193-3.572-2.814-6.335-4.96-8.335-2.098-2-4.817-3.333-8.06-4.048-2.433-.571-7.202-.81-14.307-.81h-7.822v57.055h13.02c4.912-.048 8.394-.334 10.54-.858z"/><path d="M101.19 61.336v390.328c0 14.001 11.352 25.336 25.373 25.336h258.874c14.021 0 25.372-11.335 25.372-25.336V61.336c0-14.001-11.35-25.336-25.372-25.336H126.563c-14.021 0-25.372 11.335-25.372 25.336zM370.224 452.95c-6.677 0-12.114-5.43-12.114-12.097s5.437-12.096 12.114-12.096c6.677 0 12.114 5.429 12.114 12.096 0 6.668-5.39 12.097-12.114 12.097zm0-390.71c6.677 0 12.114 5.43 12.114 12.097 0 6.668-5.437 12.097-12.114 12.097-6.677 0-12.114-5.43-12.114-12.097.048-6.667 5.437-12.096 12.114-12.096zm-67.818 159.732c0-4.714 3.863-8.572 8.585-8.572h23.273c7.203 0 12.639.572 16.406 1.667 5.056 1.476 9.396 4.143 13.02 7.953 3.625 3.81 6.343 8.477 8.251 13.954 1.86 5.524 2.814 12.287 2.814 20.383 0 7.096-.906 13.192-2.67 18.336-2.147 6.286-5.247 11.334-9.253 15.24-3.004 2.952-7.106 5.238-12.257 6.857-3.863 1.238-8.966 1.81-15.405 1.81h-24.227c-4.722 0-8.585-3.858-8.585-8.572v-69.056h.048zm-33.814 47.339c-1.193-1.429-3.291-2.668-6.248-3.715-2.051-.715-6.677-1.953-13.974-3.762-9.347-2.334-15.881-5.144-19.649-8.525-5.294-4.762-7.965-10.525-7.965-17.335 0-4.381 1.24-8.477 3.72-12.334 2.48-3.81 6.105-6.715 10.78-8.715 4.673-2 10.349-3 16.978-3 10.826 0 18.981 2.38 24.466 7.095 2.337 2 4.197 4.334 5.58 6.905 2.957 5.525-.954 12.24-7.25 12.525h-.524c-3.434.144-6.725-1.761-8.108-4.905-.859-1.857-1.907-3.285-3.29-4.381-2.433-1.953-6.153-2.905-11.017-2.905-5.056 0-9.014 1.047-11.875 3.095-1.86 1.334-2.767 3.096-2.767 5.334 0 2.048.86 3.762 2.576 5.239 2.193 1.857 7.535 3.762 16.024 5.762 8.49 2 14.737 4.048 18.79 6.191 4.055 2.144 7.25 5.05 9.54 8.763 2.29 3.715 3.434 8.286 3.434 13.716 0 4.953-1.383 9.573-4.103 13.859-2.765 4.334-6.628 7.525-11.636 9.62-5.007 2.095-11.303 3.143-18.791 3.143-10.921 0-19.267-2.524-25.134-7.572-3.481-3-6.104-6.762-7.917-11.382-2.098-5.286 1.526-11.048 7.202-11.62 3.767-.38 7.44 1.715 8.871 5.239 1.144 2.762 2.623 4.952 4.53 6.572 3.1 2.667 7.345 4 12.64 4 5.626 0 9.824-1.19 12.685-3.571 2.862-2.382 4.245-5.144 4.245-8.335 0-1.81-.62-3.572-1.813-5.001zm-96.72-57.387c10.826 0 18.982 2.381 24.466 7.095a24.07 24.07 0 0 1 5.58 6.906c2.957 5.525-.954 12.24-7.249 12.525h-.525c-3.434.143-6.725-1.762-8.108-4.905-.858-1.857-1.907-3.286-3.29-4.382-2.433-1.952-6.152-2.905-11.017-2.905-5.056 0-9.014 1.048-11.876 3.096-1.86 1.333-2.766 3.095-2.766 5.334 0 2.047.859 3.761 2.576 5.238 2.193 1.857 7.535 3.762 16.024 5.763 8.49 2 14.737 4.048 18.79 6.191 4.055 2.143 7.25 5.049 9.54 8.763 2.289 3.714 3.433 8.286 3.433 13.716 0 4.953-1.383 9.572-4.102 13.858-2.766 4.335-6.629 7.525-11.636 9.62-5.008 2.096-11.303 3.144-18.791 3.144-10.922 0-19.268-2.525-25.134-7.572-3.481-3-6.104-6.763-7.917-11.382-2.098-5.287 1.526-11.049 7.202-11.62 3.767-.381 7.44 1.714 8.87 5.238 1.145 2.763 2.624 4.953 4.531 6.573 3.1 2.666 7.344 4 12.639 4 5.627 0 9.824-1.19 12.686-3.572 2.861-2.381 4.245-5.144 4.245-8.334 0-2.048-.62-3.762-1.813-5.191-1.192-1.429-3.29-2.667-6.248-3.715-2.05-.714-6.677-1.953-13.974-3.762-9.347-2.333-15.881-5.144-19.649-8.524-5.294-4.763-7.965-10.526-7.965-17.336 0-4.381 1.24-8.477 3.72-12.334 2.48-3.81 6.105-6.715 10.779-8.715 4.674-1.811 10.35-2.811 16.979-2.811zM138.152 62.24c6.677 0 12.114 5.43 12.114 12.096 0 6.668-5.437 12.097-12.114 12.097-6.677 0-12.114-5.43-12.114-12.097s5.437-12.096 12.114-12.096zm0 366.516c6.677 0 12.114 5.428 12.114 12.096 0 6.667-5.437 12.096-12.114 12.096-6.677 0-12.114-5.429-12.114-12.096 0-6.668 5.437-12.096 12.114-12.096z"/></g></svg>