<svg width="512" height="512" xmlns="http://www.w3.org/2000/svg"><path d="M256 35C135.68 35 37.818 131.149 35.07 250.806c2.554-104.394 81.935-188.181 179.493-188.181 99.173 0 179.562 86.577 179.562 193.375 0 22.887 18.55 41.438 41.438 41.438C458.45 297.438 477 278.887 477 256c0-122.061-98.939-221-221-221zm0 442c120.32 0 218.182-96.149 220.93-215.806-2.554 104.394-81.935 188.181-179.493 188.181-99.173 0-179.562-86.577-179.562-193.375 0-22.887-18.55-41.438-41.438-41.438C53.55 214.563 35 233.113 35 256c0 122.061 98.939 221 221 221z" fill-rule="evenodd"/></svg>