<svg width="512" height="512" xmlns="http://www.w3.org/2000/svg"><path d="M35.014 250.31H35s0 .04.014.096c.041 1.668.235 3.309.566 4.894.083.759.18 1.572.29 2.482.097.814.194 1.682.304 2.62.166 1.103.332 2.275.511 3.53.373 2.481.774 5.225 1.257 8.162.58 2.771 1.216 5.777 1.879 8.99.303 1.6.76 3.24 1.201 4.908.442 1.669.898 3.406 1.368 5.17.248.883.442 1.78.732 2.676.29.896.566 1.806.856 2.716.29.91 1.174 3.695 1.782 5.598.152.482.304.951.456 1.434.18.468.345.951.525 1.434.359.95.718 1.916 1.077 2.895.732 1.93 1.478 3.916 2.238 5.915.842 1.972 1.712 3.97 2.596 5.998.442 1.006.884 2.027 1.326 3.06.442 1.035.981 2.027 1.478 3.048 1.009 2.027 2.017 4.095 3.053 6.177 1.063 2.068 2.251 4.095 3.384 6.177.58 1.034 1.16 2.068 1.74 3.116.58 1.048 1.257 2.04 1.879 3.074 1.27 2.041 2.555 4.11 3.853 6.177 5.456 8.135 11.52 16.187 18.22 23.812a230.17 230.17 0 0 0 21.878 21.371 227.446 227.446 0 0 0 24.49 17.718c8.467 5.184 17.113 9.61 25.636 13.415 2.154.883 4.295 1.751 6.423 2.62 1.063.414 2.1.882 3.163 1.255 1.063.372 2.127.744 3.176 1.117 1.05.372 4.172 1.489 6.258 2.15 2.085.62 4.143 1.228 6.174 1.834 1.022.29 2.016.62 3.025.869 1.008.248 2.016.496 3.01.73 1.99.483 3.951.952 5.871 1.42 1.948.373 3.854.745 5.732 1.104.94.18 1.865.358 2.777.524.455.082.911.165 1.367.262.456.069.912.124 1.368.193 1.809.248 3.577.496 5.304.73.856.125 1.712.235 2.555.359.842.124 1.685.165 2.514.248 1.643.152 3.26.29 4.82.428 1.561.137 3.067.29 4.545.317.096 0 .193 0 .29.014.262 15 12.514 27.079 27.61 27.079.236 0 .47-.014.705-.014v.014s.042 0 .097-.014a27.386 27.386 0 0 0 4.903-.565c.76-.083 1.575-.18 2.487-.29.815-.096 1.685-.193 2.624-.303 1.105-.166 2.28-.331 3.536-.51 2.486-.372 5.235-.772 8.177-1.255 2.776-.579 5.787-1.213 9.006-1.875 1.602-.303 3.246-.772 4.917-1.2 1.671-.427 3.412-.896 5.18-1.365.884-.248 1.781-.44 2.68-.73.897-.29 1.795-.566 2.72-.855.926-.29 3.702-1.172 5.608-1.779.484-.152.953-.303 1.437-.455.47-.18.953-.345 1.436-.524.953-.358 1.92-.717 2.9-1.075 1.935-.731 3.924-1.476 5.926-2.234 1.976-.84 3.978-1.71 6.023-2.592 1.008-.441 2.03-.882 3.066-1.324 1.036-.44 2.03-.979 3.053-1.475 2.03-1.006 4.102-2.013 6.188-3.047 2.071-1.062 4.102-2.247 6.188-3.378a553.57 553.57 0 0 1 3.121-1.737c1.05-.58 2.044-1.255 3.08-1.876 2.045-1.268 4.117-2.55 6.188-3.846 8.15-5.447 16.216-11.5 23.855-18.187a230.143 230.143 0 0 0 21.409-21.84 227.068 227.068 0 0 0 17.75-24.445c5.193-8.452 9.626-17.084 13.439-25.577.884-2.15 1.754-4.288 2.624-6.411.414-1.062.884-2.096 1.257-3.158.373-1.061.746-2.123 1.119-3.171.373-1.048 1.491-4.164 2.154-6.246.622-2.082 1.23-4.136 1.838-6.163.29-1.02.621-2.013.87-3.02.248-1.006.497-2.013.732-3.005.483-1.986.953-3.944 1.422-5.86.373-1.944.746-3.847 1.105-5.722.18-.938.36-1.862.525-2.772.083-.455.166-.91.263-1.365.069-.455.124-.91.193-1.365.249-1.806.497-3.57.732-5.294.125-.855.235-1.71.36-2.55.124-.842.165-1.683.248-2.51.152-1.641.29-3.254.428-4.812.138-1.558.29-3.061.318-4.536.014-.235.014-.455.027-.676 15.208-.069 27.515-12.382 27.515-27.576 0-.234-.014-.469-.014-.703H477s0-.041-.014-.096a27.244 27.244 0 0 0-.566-4.895c-.083-.759-.18-1.572-.29-2.496-.097-.813-.194-1.682-.304-2.62-.166-1.103-.332-2.274-.511-3.515-.373-2.482-.774-5.226-1.257-8.163-.58-2.771-1.216-5.777-1.879-8.99-.303-1.599-.76-3.24-1.201-4.922-.442-1.682-.898-3.405-1.368-5.17-.248-.883-.442-1.779-.732-2.675-.29-.896-.566-1.793-.856-2.716-.29-.924-1.174-3.695-1.782-5.598-.152-.469-.304-.952-.456-1.434-.18-.469-.345-.951-.525-1.434-.359-.951-.718-1.917-1.077-2.896a2108.21 2108.21 0 0 0-2.238-5.915 883.588 883.588 0 0 0-2.596-5.997 338.378 338.378 0 0 1-1.326-3.061c-.442-1.034-.981-2.027-1.478-3.047-1.009-2.027-2.017-4.095-3.053-6.177-1.063-2.068-2.251-4.095-3.384-6.177-.58-1.034-1.16-2.068-1.74-3.116-.58-1.048-1.257-2.04-1.879-3.075-1.27-2.04-2.555-4.109-3.854-6.177-5.455-8.135-11.52-16.187-18.218-23.812a230.17 230.17 0 0 0-21.88-21.37 227.446 227.446 0 0 0-24.489-17.718c-8.467-5.184-17.113-9.61-25.622-13.416-2.155-.882-4.296-1.75-6.423-2.62-1.063-.413-2.1-.868-3.163-1.254-1.063-.386-2.127-.745-3.177-1.117-1.05-.372-4.171-1.49-6.257-2.151-2.085-.62-4.144-1.227-6.174-1.834-1.022-.29-2.017-.62-3.025-.868a283.86 283.86 0 0 0-3.011-.731c-1.989-.483-3.95-.952-5.87-1.42-1.948-.373-3.854-.745-5.733-1.103-.939-.18-1.864-.359-2.776-.524a50.582 50.582 0 0 1-1.367-.262c-.456-.07-.912-.124-1.368-.193-1.81-.248-3.577-.497-5.304-.731-.856-.124-1.712-.234-2.555-.359-.843-.124-1.685-.165-2.514-.248-1.644-.138-3.26-.29-4.82-.427-1.561-.138-3.067-.29-4.545-.317l-1.077-.042c-.276-14.987-12.528-27.051-27.611-27.051-.235 0-.47.013-.705.013v-.013s-.041 0-.096.013a27.386 27.386 0 0 0-4.904.566c-.76.082-1.575.179-2.5.29-.815.096-1.685.192-2.624.303-1.105.165-2.28.33-3.523.51-2.486.372-5.234.772-8.177 1.254-2.776.58-5.787 1.214-9.005 1.876-1.603.303-3.246.772-4.918 1.2-1.67.427-3.411.895-5.18 1.364-.883.248-1.781.441-2.679.73-.898.29-1.795.566-2.72.856-.926.29-3.703 1.172-5.609 1.778-.47.152-.953.304-1.436.455-.47.18-.953.345-1.437.524-.953.359-1.92.717-2.9 1.076-1.934.73-3.923 1.475-5.926 2.233-1.975.841-3.978 1.71-6.008 2.592-1.009.442-2.03.883-3.067 1.324-1.036.441-2.03.98-3.052 1.475-2.03 1.007-4.103 2.013-6.188 3.048-2.072 1.061-4.103 2.247-6.188 3.378-1.036.579-2.072 1.158-3.122 1.737-1.05.579-2.044 1.255-3.08 1.875-2.044 1.268-4.116 2.55-6.188 3.847-8.15 5.446-16.216 11.499-23.854 18.186a230.143 230.143 0 0 0-21.41 21.84 227.068 227.068 0 0 0-17.749 24.446c-5.193 8.452-9.627 17.083-13.44 25.576-.883 2.151-1.754 4.288-2.624 6.412-.414 1.061-.87 2.096-1.257 3.157-.386 1.062-.746 2.124-1.118 3.171-.373 1.048-1.492 4.164-2.155 6.246-.622 2.082-1.23 4.137-1.823 6.164-.29 1.02-.622 2.013-.87 3.02-.25 1.006-.498 2.012-.733 3.005-.483 1.985-.953 3.943-1.422 5.86-.373 1.944-.746 3.847-1.105 5.722-.18.937-.36 1.861-.525 2.771-.083.455-.166.91-.263 1.365-.069.455-.124.91-.193 1.365-.249 1.806-.497 3.571-.732 5.295-.124.854-.235 1.71-.36 2.55-.124.841-.165 1.682-.248 2.51-.138 1.64-.29 3.254-.428 4.812-.138 1.558-.29 3.06-.318 4.536-.014.234-.014.469-.027.703-14.835.483-26.714 12.63-26.714 27.548 0 .235.014.47.014.703l-.055.014zm31.713-27.976c.014-.083.042-.166.056-.249.276-1.392.704-2.812 1.105-4.288.4-1.475.814-2.964 1.243-4.508.22-.772.4-1.558.663-2.33.262-.772.525-1.558.787-2.358s1.064-3.213 1.616-4.867l.414-1.241c.166-.414.318-.827.484-1.241.318-.827.65-1.668.98-2.51.65-1.682 1.327-3.391 2.003-5.142.76-1.71 1.534-3.447 2.32-5.198.388-.883.788-1.765 1.189-2.648.4-.882.884-1.75 1.312-2.633.898-1.765 1.796-3.544 2.721-5.35.953-1.778 2.003-3.543 3.025-5.336.511-.896 1.022-1.792 1.547-2.688.525-.897 1.119-1.765 1.671-2.661a1266.51 1266.51 0 0 0 3.412-5.35c4.848-7.018 10.207-13.953 16.12-20.53a201.465 201.465 0 0 1 19.254-18.338 198.246 198.246 0 0 1 21.437-15.084c7.39-4.398 14.931-8.121 22.335-11.32 1.878-.73 3.743-1.461 5.58-2.178.925-.345 1.823-.731 2.748-1.048.926-.317 1.851-.62 2.763-.924.912-.303 3.619-1.241 5.414-1.779 1.81-.51 3.592-1.006 5.346-1.503.884-.234 1.74-.51 2.61-.717.87-.206 1.74-.4 2.611-.592 1.713-.386 3.412-.773 5.07-1.159 1.67-.29 3.328-.592 4.944-.868.801-.138 1.602-.29 2.39-.428.4-.069.787-.138 1.174-.206.4-.042.787-.097 1.174-.138 1.56-.193 3.08-.386 4.572-.566.746-.096 1.478-.179 2.196-.275.718-.097 1.45-.11 2.168-.18 1.423-.096 2.804-.206 4.144-.303 1.34-.097 2.638-.22 3.91-.22 2.527-.056 4.889-.11 7.071-.166 2.017.069 3.868.138 5.539.193.829.028 1.602.041 2.348.069.912.055 1.768.11 2.57.165.925.056 1.753.11 2.513.166 1.409.22 2.845.33 4.31.33.207 0 .4-.013.607-.013h.097v-.014c13.44-.33 24.49-10.244 26.575-23.163.235.055.456.096.69.151 1.396.276 2.819.703 4.297 1.103 1.478.4 2.97.814 4.516 1.241.774.22 1.561.4 2.335.662.773.262 1.56.524 2.362.786.8.262 3.218 1.062 4.875 1.613l1.243.414c.415.165.83.317 1.244.482.828.317 1.67.648 2.513.98 1.686.647 3.398 1.323 5.153 1.998 1.712.759 3.453 1.53 5.22 2.317.885.386 1.769.786 2.653 1.186.884.4 1.754.882 2.638 1.31 1.768.896 3.55 1.792 5.36 2.716 1.795.951 3.549 1.999 5.345 3.02.897.51 1.795 1.02 2.693 1.543.898.524 1.768 1.117 2.666 1.669 1.768 1.13 3.55 2.26 5.36 3.405 7.03 4.84 13.977 10.19 20.566 16.09a201.415 201.415 0 0 1 18.37 19.221 197.89 197.89 0 0 1 15.111 21.399c4.407 7.376 8.136 14.905 11.34 22.295.732 1.875 1.465 3.736 2.183 5.57.345.924.732 1.82 1.05 2.744.317.924.621 1.848.925 2.758.304.91 1.243 3.612 1.782 5.404.51 1.807 1.008 3.585 1.505 5.336.235.883.511 1.738.719 2.606.207.869.4 1.737.594 2.606.386 1.71.773 3.406 1.16 5.06.29 1.669.594 3.323.87 4.936.138.8.276 1.6.428 2.386l.207 1.172c.042.4.097.786.138 1.172.194 1.558.387 3.074.567 4.563.096.745.193 1.476.276 2.193.083.717.11 1.447.18 2.164.096 1.42.207 2.8.303 4.137.097 1.337.221 2.633.221 3.902.056 2.523.111 4.88.166 7.06-.069 2.012-.138 3.86-.193 5.528-.028.827-.042 1.6-.07 2.344-.054.91-.11 1.765-.165 2.564-.055.924-.11 1.752-.166 2.51a27.67 27.67 0 0 0-.331 4.302c0 .207.014.4.014.606v.097h.013c.332 13.25 10.028 24.184 22.736 26.445-.028.124-.055.248-.083.386-.276 1.406-.705 2.813-1.105 4.288s-.815 2.965-1.243 4.509c-.221.772-.4 1.558-.663 2.33a235.79 235.79 0 0 0-.788 2.358 1458.784 1458.784 0 0 1-2.03 6.108c-.166.413-.318.827-.483 1.24-.318.828-.65 1.669-.981 2.51-.65 1.682-1.326 3.392-2.003 5.143-.76 1.71-1.533 3.447-2.334 5.212-.387.882-.788 1.765-1.188 2.647-.4.882-.884 1.751-1.312 2.633-.898 1.765-1.796 3.544-2.721 5.35-.953 1.779-2.003 3.544-3.025 5.336a267.89 267.89 0 0 1-1.547 2.689c-.525.896-1.12 1.765-1.672 2.66a1266.624 1266.624 0 0 0-3.411 5.35c-4.848 7.018-10.194 13.954-16.12 20.53a201.465 201.465 0 0 1-19.254 18.338 198.246 198.246 0 0 1-21.437 15.084c-7.39 4.399-14.931 8.121-22.335 11.32-1.878.731-3.743 1.462-5.58 2.179-.926.344-1.823.73-2.749 1.048-.925.317-1.85.62-2.762.923-.912.304-3.62 1.241-5.415 1.779-1.81.51-3.591 1.007-5.345 1.503-.884.234-1.74.51-2.61.717-.871.207-1.741.4-2.611.593-1.713.386-3.412.772-5.07 1.158-1.685.29-3.328.593-4.944.869-.802.137-1.603.29-2.39.427-.4.069-.787.138-1.174.207-.4.041-.787.096-1.174.138-1.56.193-3.08.386-4.572.565-.746.097-1.478.193-2.196.276-.719.082-1.45.11-2.169.179-1.423.097-2.804.207-4.144.303-1.34.097-2.638.22-3.909.22-2.527.056-4.89.111-7.072.166-2.016-.069-3.867-.137-5.538-.193-.83-.027-1.603-.041-2.348-.069-.912-.055-1.768-.11-2.57-.165-.925-.055-1.754-.11-2.513-.165a27.817 27.817 0 0 0-4.31-.331c-.207 0-.4.013-.608.013h-.096v.014c-13.385.331-24.393 10.162-26.534 22.998-1.381-.275-2.777-.689-4.227-1.089-1.464-.4-2.97-.813-4.517-1.24-.773-.221-1.56-.4-2.334-.663-.773-.262-1.56-.524-2.362-.786a1465.29 1465.29 0 0 1-4.876-1.613l-1.243-.413c-.414-.166-.828-.317-1.243-.483-.829-.317-1.671-.648-2.514-.979a839.097 839.097 0 0 0-5.152-2 1212.19 1212.19 0 0 1-5.207-2.315c-.884-.387-1.768-.786-2.652-1.186-.884-.4-1.754-.883-2.638-1.31-1.768-.896-3.55-1.792-5.36-2.716-1.795-.952-3.55-2-5.345-3.02-.898-.51-1.796-1.02-2.693-1.544-.898-.524-1.768-1.117-2.666-1.668a1269.45 1269.45 0 0 0-5.36-3.406c-7.03-4.84-13.978-10.175-20.566-16.077a201.415 201.415 0 0 1-18.37-19.22 197.89 197.89 0 0 1-15.112-21.399c-4.406-7.376-8.135-14.904-11.34-22.295-.732-1.875-1.464-3.736-2.182-5.57-.346-.924-.732-1.82-1.05-2.744-.318-.924-.622-1.847-.925-2.757-.304-.91-1.244-3.613-1.782-5.405-.511-1.806-1.009-3.585-1.506-5.336-.235-.883-.51-1.737-.718-2.606-.207-.869-.4-1.737-.594-2.606-.387-1.71-.773-3.406-1.16-5.06-.29-1.668-.594-3.323-.87-4.936-.139-.8-.29-1.6-.429-2.386-.069-.4-.138-.785-.207-1.171-.041-.4-.096-.786-.138-1.172-.193-1.558-.387-3.075-.566-4.564-.097-.745-.18-1.476-.276-2.193-.097-.716-.11-1.447-.18-2.164-.097-1.42-.207-2.8-.304-4.137-.097-1.337-.22-2.633-.22-3.902-.056-2.523-.111-4.88-.167-7.059.07-2.013.138-3.86.194-5.529.027-.827.041-1.6.069-2.344.055-.91.11-1.765.166-2.564.055-.924.11-1.751.165-2.51.207-1.406.332-2.84.332-4.302 0-.206-.014-.4-.014-.606 0-.055.014-.097.014-.097h-.014c-.332-13.526-10.415-24.625-23.495-26.569l-.028-.041z" fill-rule="evenodd"/></svg>