<svg width="512" height="512" xmlns="http://www.w3.org/2000/svg"><path d="M124.152 256c0-5.286.305-10.49.874-15.623l-80.233-26.058A222.907 222.907 0 0 0 40.865 256c0 63.839 26.966 121.378 70.116 161.866l49.56-68.21c-22.608-24.683-36.403-57.567-36.403-93.67l.014.014zm277.575 0c0 36.103-13.795 68.986-36.404 93.67l49.561 68.21C458.034 377.378 485 319.853 485 256.014c0-14.25-1.36-28.18-3.928-41.68L400.84 240.39c.57 5.133.874 10.336.874 15.623l.014-.014zm-111.03-135.975c39.874 8.09 73.53 33.272 93.016 67.571l80.233-26.057c-31.74-67.39-96.388-116.23-173.235-125.805v84.305l-.014-.014zm-148.53 67.571c19.471-34.285 53.141-59.468 93.015-67.571V35.72C158.335 45.309 93.688 94.135 61.947 161.526l80.22 26.057v.014zm178.258 194.722c-17.515 7.978-36.987 12.432-57.486 12.432-20.499 0-39.97-4.454-57.486-12.432l-49.575 68.21C187.633 468.023 224.12 478 262.94 478c38.82 0 75.307-9.976 107.061-27.473l-49.575-68.209z" fill-rule="evenodd"/></svg>