<svg width="512" height="512" xmlns="http://www.w3.org/2000/svg"><path d="M260.307 224.866h108.365c2.259 0 4.113-.724 5.56-2.178 1.454-1.452 2.18-3.306 2.18-5.567v-46.465c0-2.26-.726-4.114-2.18-5.566-1.447-1.45-3.301-2.179-5.56-2.179H260.307c-2.258 0-4.111.725-5.563 2.179-1.449 1.452-2.176 3.306-2.176 5.566v46.465c0 2.261.724 4.115 2.176 5.567 1.452 1.451 3.305 2.178 5.563 2.178zm.003-123.912h61.92c2.26 0 4.115-.724 5.561-2.176 1.456-1.453 2.172-3.307 2.172-5.567V46.744c0-2.257-.717-4.113-2.172-5.566-1.446-1.45-3.301-2.178-5.56-2.178H260.31c-2.259 0-4.112.725-5.564 2.177-1.448 1.454-2.175 3.31-2.175 5.566V93.21c0 2.26.724 4.114 2.175 5.567 1.453 1.45 3.305 2.177 5.564 2.177zM206.124 379.75h-46.442V46.744c0-2.257-.724-4.116-2.176-5.566-1.452-1.45-3.305-2.178-5.564-2.178h-46.443c-2.256 0-4.114.725-5.564 2.177-1.448 1.454-2.176 3.31-2.176 5.566V379.75H51.316c-3.544 0-5.964 1.613-7.255 4.839-1.292 3.07-.725 5.891 1.692 8.473l77.403 77.446c1.774 1.447 3.627 2.172 5.563 2.172 2.096 0 3.953-.725 5.564-2.172l77.162-77.203c1.615-1.932 2.42-3.874 2.42-5.801 0-2.268-.728-4.119-2.176-5.581-1.452-1.446-3.304-2.172-5.565-2.172zm260.999 33.159c-1.453-1.456-3.305-2.181-5.564-2.181H260.31c-2.259 0-4.112.725-5.564 2.18-1.448 1.451-2.175 3.308-2.175 5.565v46.464c0 2.266.724 4.114 2.175 5.57 1.453 1.45 3.305 2.175 5.564 2.175h201.248c2.259 0 4.112-.725 5.564-2.175 1.45-1.457 2.174-3.304 2.174-5.57v-46.464c.003-2.257-.724-4.114-2.173-5.564zm-206.816-64.137h154.81c2.256 0 4.112-.725 5.566-2.175 1.447-1.45 2.172-3.307 2.172-5.564v-46.47c0-2.257-.725-4.114-2.172-5.564-1.455-1.45-3.31-2.175-5.566-2.175h-154.81c-2.258 0-4.111.725-5.563 2.175-1.449 1.45-2.176 3.307-2.176 5.563v46.471c0 2.257.724 4.114 2.176 5.564 1.452 1.45 3.305 2.175 5.563 2.175z" fill-rule="evenodd"/></svg>