<svg width="512" height="512" xmlns="http://www.w3.org/2000/svg"><path d="M320.306 405.288v16.688c0 13.26-9.734 24.174-22.441 25.888l-4.056 14.974c-2.343 8.028-9.733 13.801-17.844 13.801H235.68c-8.652 0-16.132-5.773-17.845-13.801l-4.055-14.974c-12.617-1.714-22.44-12.628-22.44-25.888v-16.688c0-8.66 6.939-16.147 16.131-16.147h97.153c8.742.632 15.682 7.577 15.682 16.147zm12.707-68.195c-2.884 18.131-18.836 31.752-37.13 31.752h-80.12c-18.746 0-34.428-13.35-37.131-31.752-3.245-20.927-13.068-40.772-27.668-55.926-25.775-27.061-40.195-62.15-40.826-99.044C109.507 101.57 174.126 35.54 254.155 35h1.082c80.66 0 146.27 65.218 146.27 145.319 0 37.525-14.87 74.328-40.826 100.938-14.78 15.245-24.423 34.548-27.668 55.836zm4.777-78.206c20.187-20.747 31.813-49.342 31.813-78.658 0-62.512-51.28-113.297-114.366-113.297h-.902c-62.365.451-112.744 51.958-112.293 114.83.45 28.685 11.806 56.107 31.903 77.215 19.106 19.664 31.994 45.733 36.23 73.245.45 3.248 3.154 4.6 5.588 4.6h24.964v-93.721l-33.346-33.376c-5.858-5.863-5.858-15.425 0-21.378 5.858-5.863 15.411-5.863 21.36 0l27.036 27.061 27.037-27.061c5.858-5.863 15.412-5.863 21.36 0 5.858 5.863 5.858 15.425 0 21.378l-33.346 33.376v93.722h24.964c2.974 0 5.227-2.436 5.588-4.69 4.326-27.693 16.853-53.131 36.41-73.246z"/></svg>