<svg width="512" height="512" xmlns="http://www.w3.org/2000/svg"><g fill-rule="evenodd"><path d="M60.469 309.773s4.685-18.975-11.063-35.42c-15.808-16.476-35.658-16.536-35.658-16.536s-4.94 22.282 10.45 38.338c15.373 16.012 36.27 13.618 36.27 13.618zm34.864-3.442s18.458-10.011 21.841-32.009c3.398-21.937-13.473-37.38-13.473-37.38s-16.167 11.492-19.655 34.028c-3.458 22.552 11.287 35.361 11.287 35.361zm27.754 55.353s17.006-12.376 17.5-34.597c.449-22.192-18.278-35.286-18.278-35.286s-14.536 13.468-15.03 36.288c-.494 22.806 15.808 33.595 15.808 33.595zm55.717-4.115c-1.616-22.132-21.496-33.415-21.496-33.415s-13.203 14.77-11.557 37.53c1.647 22.76 18.892 31.964 18.892 31.964s15.763-13.932 14.161-36.08zm38.038 63.673s11.123-17.823 3.204-38.608c-7.92-20.77-30.224-25.858-30.224-25.858s-8.398 17.987-.284 39.31c8.143 21.295 27.304 25.156 27.304 25.156zM68.163 261.169s14.461-13.154 10.464-35.6c-3.997-22.432-20.448-33.55-20.448-33.55s-16.482 15.832-12.59 37.725c3.892 21.848 22.574 31.425 22.574 31.425zm11.347 91.656s-1.107-19.528-21.017-30.602c-19.955-11.043-38.951-5.312-38.951-5.312s1.856 22.76 21.287 33.55c19.46 10.789 38.681 2.364 38.681 2.364zm33.607 37.89s-5.419-18.78-27.29-25.155c-21.915-6.375-39.16 3.442-39.16 3.442S53.567 390.775 74.9 397c21.361 6.24 38.217-6.285 38.217-6.285zm37.589 26.995s-10.838-16.251-33.622-15.697c-22.814.553-36.286 15.114-36.286 15.114s13.173 18.705 35.373 18.151c22.23-.508 34.535-17.568 34.535-17.568zm16.048 11.014c-22.575 3.307-34.191 19.364-34.191 19.364s15.284 17 37.29 13.812c22.02-3.203 32.154-21.579 32.154-21.579s-12.694-14.844-35.253-11.597z"/><path d="M75.603 272.332l-10.883-.434c-.03 1.197-2.74 119.041 175.146 172.164l3.113-10.415C73.597 383.053 75.41 276.807 75.603 272.332zm371.174 37.755s20.898 2.394 36.271-13.647c15.39-16.042 10.45-38.339 10.45-38.339s-19.85.09-35.673 16.55c-15.764 16.476-11.048 35.436-11.048 35.436zm-56.72-35.45c3.383 21.982 21.84 32.008 21.84 32.008s14.73-12.794 11.303-35.33c-3.488-22.552-19.656-34.03-19.656-34.03s-16.87 15.414-13.487 37.352zm-5.12 17.463s-18.727 13.094-18.293 35.286c.494 22.192 17.5 34.597 17.5 34.597s16.302-10.804 15.823-33.595c-.51-22.775-15.03-36.288-15.03-36.288zm-56.511 65.783c-1.586 22.132 14.162 36.034 14.162 36.034s17.215-9.173 18.892-31.949c1.631-22.76-11.557-37.545-11.557-37.545s-19.85 11.298-21.497 33.46zm-41.241 25.065c-7.919 20.77 3.203 38.593 3.203 38.593s19.147-3.86 27.29-25.14c8.114-21.324-.3-39.326-.3-39.326s-22.244 5.103-30.193 25.873zm151.897-121.465s18.683-9.577 22.59-31.44c3.892-21.893-12.605-37.725-12.605-37.725s-16.466 11.119-20.433 33.55c-4.012 22.462 10.448 35.615 10.448 35.615zm9.641 61.054c-19.91 11.059-21.017 30.587-21.017 30.587s19.236 8.44 38.681-2.349c19.43-10.79 21.287-33.565 21.287-33.565s-18.996-5.746-38.951 5.327zm-27.335 43.352c-21.87 6.375-27.29 25.155-27.29 25.155s16.886 12.51 38.248 6.3c21.332-6.21 28.233-27.998 28.233-27.998s-17.275-9.847-39.19-3.457zm-31.241 36.438c-22.784-.554-33.622 15.712-33.622 15.712s12.29 17.045 34.535 17.569c22.2.538 35.373-18.152 35.373-18.152s-13.443-14.56-36.286-15.129zm-49.67 26.696c-22.574-3.247-35.239 11.568-35.239 11.568s10.15 18.39 32.14 21.593c22.02 3.188 37.29-13.827 37.29-13.827s-11.617-16.027-34.19-19.334z"/><path d="M442.51 272.183l-10.897.434c.194 4.504 2.006 110.705-167.377 161.3l3.114 10.4c177.9-53.094 175.19-170.937 175.16-172.134zM338.905 319.56L326.54 219.014l67.334-68.401-96.51-12.9-43.711-84.667v-.42l-43.801 84.788-96.495 12.884 67.334 68.417-12.35 100.53 85.237-46.3v.27z"/></g></svg>