<svg width="512" height="512" xmlns="http://www.w3.org/2000/svg"><path d="M263.129 163.272c-14.686 0-26.591-11.925-26.591-26.635V56.72c0-14.71 11.905-26.635 26.591-26.635 14.686 0 26.591 11.925 26.591 26.635v79.917c0 14.71-11.905 26.635-26.591 26.635zm0 309.66c-9.182 0-16.625-7.454-16.625-16.652v-79.917c0-9.198 7.443-16.652 16.625-16.652s16.625 7.454 16.625 16.652v79.917c0 9.198-7.443 16.652-16.625 16.652zm-59.813-295.265c-8.611 0-16.995-4.484-21.615-12.496l-39.894-69.207c-6.886-11.939-2.794-27.22 9.125-34.117 11.92-6.898 27.176-2.8 34.063 9.14l39.894 69.207c6.887 11.939 2.794 27.22-9.125 34.117a24.781 24.781 0 0 1-12.448 3.356zm159.548 266.831a14.953 14.953 0 0 1-12.975-7.497l-39.894-69.207c-4.135-7.17-1.682-16.324 5.475-20.465 7.158-4.142 16.297-1.685 20.432 5.484l39.894 69.207c4.135 7.169 1.683 16.323-5.475 20.465a14.945 14.945 0 0 1-7.471 2.013h.014zM159.459 219.883c-3.95 0-7.942-1-11.606-3.128l-69.095-39.959c-11.136-6.44-14.942-20.693-8.512-31.833 6.43-11.139 20.66-14.966 31.781-8.525l69.095 39.958c11.135 6.441 14.942 20.694 8.512 31.833-4.306 7.484-12.134 11.654-20.175 11.654zm276.392 149.824a13.13 13.13 0 0 1-6.63-1.785l-69.094-39.959c-6.36-3.684-8.54-11.825-4.862-18.194 3.678-6.37 11.805-8.554 18.164-4.87l69.095 39.96c6.36 3.684 8.54 11.824 4.862 18.193a13.292 13.292 0 0 1-11.535 6.655zm-292.39-91.571H63.673c-11.934 0-21.615-9.683-21.615-21.636s9.667-21.636 21.615-21.636h79.788c11.934 0 21.615 9.683 21.615 21.636s-9.667 21.636-21.615 21.636zm319.124-8.312h-79.788c-7.343 0-13.303-5.97-13.303-13.324 0-7.355 5.96-13.324 13.303-13.324h79.788c7.343 0 13.303 5.97 13.303 13.324 0 7.355-5.96 13.324-13.303 13.324zM90.407 376.377c-6.887 0-13.602-3.585-17.295-9.997-5.504-9.554-2.239-21.779 7.3-27.292l69.095-39.958c9.538-5.527 21.743-2.243 27.247 7.312 5.503 9.554 2.238 21.778-7.3 27.291l-69.095 39.959a19.857 19.857 0 0 1-9.952 2.685zm276.378-166.491a13.308 13.308 0 0 1-11.535-6.655c-3.678-6.37-1.497-14.51 4.862-18.194l69.095-39.96c6.36-3.67 14.486-1.499 18.165 4.87 3.678 6.37 1.497 14.51-4.862 18.195L373.415 208.1a13.18 13.18 0 0 1-6.63 1.785zM163.38 447.826c-3.109 0-6.245-.786-9.126-2.456-8.74-5.056-11.734-16.253-6.687-25.021l39.894-69.207c5.048-8.755 16.226-11.754 24.98-6.698 8.755 5.055 11.735 16.252 6.688 25.02l-39.894 69.208c-3.38 5.87-9.525 9.154-15.855 9.154zm159.576-281.812a13.14 13.14 0 0 1-6.63-1.785c-6.36-3.685-8.54-11.825-4.862-18.194l39.894-69.207c3.679-6.37 11.806-8.555 18.165-4.87 6.359 3.684 8.54 11.825 4.862 18.194l-39.894 69.207a13.292 13.292 0 0 1-11.535 6.655z" fill-rule="evenodd"/></svg>