<svg width="512" height="512" xmlns="http://www.w3.org/2000/svg"><path d="M256 35C133.939 35 35 133.939 35 256s98.939 221 221 221 221-98.939 221-221S378.061 35 256 35zm0 110.5c61.024 0 110.5 49.476 110.5 110.5S317.024 366.5 256 366.5 145.5 317.024 145.5 256 194.976 145.5 256 145.5zm131.854 242.354C352.632 423.076 305.808 442.47 256 442.47c-49.808 0-96.632-19.393-131.854-54.615C88.924 352.632 69.53 305.808 69.53 256c0-49.808 19.393-96.632 54.615-131.854l29.296 29.296c-56.548 56.549-56.548 148.554 0 205.102 27.39 27.39 63.814 42.473 102.558 42.473 38.744 0 75.154-15.083 102.558-42.473 56.548-56.548 56.548-148.553 0-205.102l29.296-29.296C423.076 159.368 442.47 206.192 442.47 256c0 49.808-19.393 96.632-54.615 131.854z" fill-rule="evenodd"/></svg>