<svg width="512" height="512" xmlns="http://www.w3.org/2000/svg"><g fill-rule="evenodd"><path d="M256.5 476c112.232 0 203.233-25.817 203.233-57.609v-72.65a80.798 80.798 0 0 1-4.107 2.933c-12.109 8.108-28.804 15.202-49.608 21.124-40.22 11.36-93.295 17.655-149.518 17.655s-109.298-6.294-149.518-17.656c-20.803-5.921-37.5-13.015-49.608-21.124a80.576 80.576 0 0 1-4.107-2.933v72.651C53.267 450.183 144.269 476 256.5 476z"/><path d="M256.5 366.117c108.444 0 197.046-24.057 202.913-54.409.214-1.066.32-2.133.32-3.2v-73.185a80.798 80.798 0 0 1-4.107 2.934c-10.188 6.828-23.683 12.962-40.167 18.243-3.04.96-6.187 1.92-9.44 2.88-3.255.907-6.562 1.814-9.976 2.668-7.894 1.973-16.162 3.733-24.804 5.334-33.98 6.294-73.505 9.654-114.739 9.654-41.233 0-80.76-3.36-114.792-9.654a456.527 456.527 0 0 1-24.804-5.334c-3.414-.854-6.721-1.707-9.975-2.668a197.681 197.681 0 0 1-9.442-2.88c-16.482-5.28-29.978-11.415-40.166-18.243a80.577 80.577 0 0 1-4.108-2.934v73.185c0 1.067.107 2.134.32 3.2 5.922 30.352 94.523 54.409 202.967 54.409z"/><path d="M141.708 245.618a501.501 501.501 0 0 0 35.26 5.495c24.43 2.934 51.314 4.587 79.533 4.587 28.217 0 55.102-1.653 79.532-4.587a501.901 501.901 0 0 0 35.26-5.495c50.247-9.761 84.28-25.764 88.12-44.06a15.31 15.31 0 0 0 .373-3.467V94.61c0-31.793-91.001-57.61-203.233-57.61C144.322 37 53.32 62.817 53.32 94.609V198.09c0 1.174.106 2.294.373 3.467 3.788 18.296 37.767 34.299 88.015 44.06zm136.662-44.166c0 12.055-9.815 21.87-21.87 21.87-12.055 0-21.87-9.815-21.87-21.87 0-12.056 9.815-21.87 21.87-21.87 12.055 0 21.87 9.814 21.87 21.87z"/></g></svg>