<svg width="512" height="512" xmlns="http://www.w3.org/2000/svg"><path d="M491 263.839c-.587-30.661-7.24-61.234-19.55-89.195-12.248-27.975-30.05-53.323-51.89-74.268-21.826-20.96-47.705-37.53-75.729-48.465-27.994-10.978-58.103-16.218-87.846-15.572-29.742.587-59.367 7.045-86.436 18.963-27.098 11.874-51.656 29.105-71.939 50.255-20.283 21.15-36.337 46.19-46.897 73.3-10.605 27.094-15.672 56.2-15.026 84.982.588 28.782 6.874 57.403 18.419 83.573 11.515 26.184 28.214 49.918 48.703 69.512 20.475 19.61 44.739 35.094 70.97 45.28 26.218 10.23 54.359 15.088 82.221 14.457 27.862-.587 55.519-6.678 80.81-17.847 25.307-11.14 48.25-27.286 67.181-47.086 18.947-19.785 33.899-43.225 43.725-68.543a204.565 204.565 0 0 0 12.176-47.614c.573.03 1.146.059 1.733.059 16.23 0 29.375-13.136 29.375-29.355 0-.822-.044-1.644-.103-2.451H491v.015zm-46.677 77.951c-10.766 24.409-26.379 46.513-45.516 64.757-19.138 18.244-41.772 32.658-66.212 42.095-24.425 9.482-50.628 13.973-76.595 13.342-25.982-.602-51.685-6.297-75.185-16.732-23.53-10.392-44.841-25.451-62.422-43.9-17.581-18.45-31.446-40.26-40.538-63.789-9.12-23.528-13.41-48.714-12.793-73.739.603-25.025 6.125-49.727 16.186-72.33 10.032-22.618 24.558-43.108 42.344-60.002 17.787-16.893 38.805-30.206 61.453-38.924 22.648-8.748 46.882-12.843 70.97-12.226 24.102.601 47.837 5.93 69.56 15.616 21.737 9.658 41.418 23.616 57.663 40.716 16.244 17.099 29.008 37.28 37.35 59.017 8.372 21.738 12.294 44.972 11.662 68.118h.103a26.904 26.904 0 0 0-.103 2.451c0 15.148 11.47 27.594 26.202 29.18-2.864 15.968-7.593 31.57-14.129 46.321v.03z" fill-rule="evenodd"/></svg>