<svg width="512" height="512" xmlns="http://www.w3.org/2000/svg"><path d="M204.241 91.733c0-32.987 26.742-59.733 59.725-59.733 32.982 0 59.724 26.746 59.724 59.733 0 32.988-26.742 59.734-59.724 59.734-32.983 0-59.725-26.746-59.725-59.734zm126.69 52.491c0-32.988 26.742-59.733 59.724-59.733 32.983 0 59.724 26.745 59.724 59.733s-26.741 59.733-59.724 59.733c-32.982 0-59.724-26.745-59.724-59.733zm82.345 126.71c0-16.502 13.363-29.867 29.862-29.867S473 254.432 473 270.933c0 16.502-13.363 29.867-29.862 29.867s-29.862-13.365-29.862-29.867zm-52.483 126.709c0-16.502 13.364-29.867 29.862-29.867 16.5 0 29.862 13.365 29.862 29.867 0 16.501-13.363 29.866-29.862 29.866-16.498 0-29.862-13.365-29.862-29.866zm-126.69 52.49c0-16.501 13.364-29.866 29.863-29.866 16.498 0 29.862 13.365 29.862 29.866 0 16.502-13.364 29.867-29.862 29.867-16.5 0-29.863-13.365-29.863-29.867zm-126.69-52.49c0-16.502 13.364-29.867 29.863-29.867 16.498 0 29.862 13.365 29.862 29.867 0 16.501-13.364 29.866-29.862 29.866-16.5 0-29.862-13.365-29.862-29.866zm-14.93-253.419c0-24.745 20.052-44.8 44.793-44.8 24.74 0 44.793 20.055 44.793 44.8 0 24.745-20.053 44.8-44.793 44.8-24.741 0-44.793-20.055-44.793-44.8zm-41.285 126.71c0-18.563 15.036-33.6 33.595-33.6 18.56 0 33.595 15.037 33.595 33.6 0 18.561-15.036 33.6-33.595 33.6-18.56 0-33.595-15.039-33.595-33.6z" fill-rule="evenodd"/></svg>