<svg width="512" height="512" xmlns="http://www.w3.org/2000/svg"><path d="M181.315 195.247c-10.342 6.352 27.699 97.987 36.985 112.916 8.1 13.138 25.298 17.137 38.374 9.095 13.148-8.128 17.241-25.265 9.141-38.346-9.185-14.971-74.173-90.046-84.5-83.665zm-7.753-100.326c21.48-7.464 44.477-11.594 68.474-11.594 23.996 0 47.009 4.13 68.474 11.594 7.608 2.627 17.704-2.657 13.234-14.12a3233.279 3233.279 0 0 1-7.68-19.75c-3.038-7.826-13.886-14.294-18.601-15.362-17.864-4.014-36.378-6.266-55.427-6.266-19.05 0-37.564 2.238-55.456 6.266-4.716 1.068-15.55 7.536-18.587 15.361a7902.68 7902.68 0 0 1-7.68 19.75c-4.47 11.464 5.626 16.777 13.234 14.12h.015zm279.03 18.119a233.501 233.501 0 0 0-14.19-15.52c-5.004-5.01-10.21-9.702-15.505-14.164-3.544-2.974-13.958-5.4-20.554 1.184-6.566 6.584-38.142 38.043-38.142 38.043 9.3 6.656 18.355 13.976 26.73 22.32 8.375 8.345 15.665 17.369 22.362 26.68 0 0 31.546-31.458 38.113-38.042 6.625-6.612 4.195-16.978 1.186-20.487v-.014zm-210.556-6.613c-103.565 0-187.486 83.767-187.486 187.11 0 103.373 83.921 187.14 187.486 187.14 103.52 0 187.457-83.767 187.457-187.14 0-103.329-83.936-187.11-187.457-187.11zm0 328.05c-77.948 0-141.172-63.092-141.172-140.91 0-77.819 63.21-140.91 141.172-140.91 77.962 0 141.2 63.091 141.2 140.91 0 77.803-63.223 140.91-141.2 140.91z" fill-rule="evenodd"/></svg>