<svg width="512" height="512" xmlns="http://www.w3.org/2000/svg"><path d="M215.875 409.862c0-22.17 17.963-40.138 40.125-40.138s40.125 17.969 40.125 40.138c0 22.17-17.963 40.138-40.125 40.138s-40.125-17.968-40.125-40.138zM42 235.931c0-22.17 17.963-40.138 40.125-40.138s40.125 17.969 40.125 40.138c0 22.17-17.963 40.138-40.125 40.138S42 258.101 42 235.931zm347.75 0c0-22.17 17.963-40.138 40.125-40.138S470 213.762 470 235.931c0 22.17-17.963 40.138-40.125 40.138s-40.125-17.968-40.125-40.138zM92.932 112.948c0-22.17 17.963-40.138 40.125-40.138s40.125 17.969 40.125 40.138c0 22.17-17.963 40.138-40.125 40.138s-40.125-17.968-40.125-40.138zm245.886 245.966c0-22.17 17.963-40.138 40.125-40.138s40.125 17.968 40.125 40.138c0 22.17-17.963 40.138-40.125 40.138s-40.125-17.969-40.125-40.138zm-245.886 0c0-22.17 17.963-40.138 40.125-40.138s40.125 17.968 40.125 40.138c0 22.17-17.963 40.138-40.125 40.138s-40.125-17.969-40.125-40.138zm245.886-245.966c0-22.17 17.963-40.138 40.125-40.138s40.125 17.969 40.125 40.138c0 22.17-17.963 40.138-40.125 40.138s-40.125-17.968-40.125-40.138z" fill-rule="evenodd"/></svg>