<svg width="512" height="512" xmlns="http://www.w3.org/2000/svg"><g fill-rule="evenodd"><path d="M50.667 87.333H36v381.334c0 4.4 2.933 7.333 7.333 7.333h249.334v-14.667h-242v-374z"/><path d="M80 50.667h227.333v58.666c0 4.4 2.934 7.334 7.334 7.334h58.666v22H388v-29.334c0-.733 0-1.466-.733-2.2v-.733c-.734-.733-.734-1.467-1.467-2.2l-66-66c-.733-.733-1.467-.733-2.2-1.467h-.733c-.734 0-1.467-.733-2.2-.733h-242c-4.4 0-7.334 2.933-7.334 7.333v396c0 4.4 2.934 7.334 7.334 7.334H322V432H80V50.667zM363.067 102H322V60.933L363.067 102z"/><path d="M204.667 234h14.667v14.667h-14.667zm-29.334 0H190v14.667h-14.667zM146 234h14.667v14.667H146zm-29.333 0h14.667v14.667h-14.667zM234 234h14.667v14.667H234zM102 72.667h14.667v14.667H102zm29.333 0H146v14.667h-14.667zm0 29.333H146v14.667h-14.667zM102 102h14.667v14.667H102zm58.667-29.333h58.667v14.667h-58.667zm0 29.333h58.667v14.667h-58.667zM102 153.333h190.667V168H102zM102 190h249.333v14.667H102zm0 88h249.333v14.667H102zm0 36.667h249.333v14.667H102zm0 36.666h161.333V366H102zm176 0h14.667V366H278zm29.333 0H322V366h-14.667zm29.334 0h14.667V366h-14.667z"/><path d="M446.667 278c-13.934 0-24.934 9.533-28.6 22H388v-51.333h44c4.4 0 7.333-2.934 7.333-7.334V123.267c12.467-2.934 22-14.667 22-28.6 0-16.134-13.2-29.334-29.333-29.334s-29.333 13.2-29.333 29.334c0 13.933 9.533 24.933 22 28.6V234H263.333v14.667h110v140.066c-12.466 2.934-22 14.667-22 28.6 0 16.134 13.2 29.334 29.334 29.334 16.133 0 29.333-13.2 29.333-29.334 0-13.933-9.533-24.933-22-28.6v-74.066h30.067c2.933 12.466 14.666 22 28.6 22 16.133 0 29.333-13.2 29.333-29.334C476 291.2 462.8 278 446.667 278zM417.333 94.667C417.333 86.6 423.933 80 432 80s14.667 6.6 14.667 14.667c0 8.066-6.6 14.666-14.667 14.666s-14.667-6.6-14.667-14.666zm-22 322.666c0 8.067-6.6 14.667-14.666 14.667C372.6 432 366 425.4 366 417.333c0-8.066 6.6-14.666 14.667-14.666 8.066 0 14.666 6.6 14.666 14.666zM446.667 322C438.6 322 432 315.4 432 307.333c0-8.066 6.6-14.666 14.667-14.666 8.066 0 14.666 6.6 14.666 14.666 0 8.067-6.6 14.667-14.666 14.667zM102 388h88v14.667h-88z"/></g></svg>