<svg width="512" height="512" xmlns="http://www.w3.org/2000/svg"><path d="M256 34C133.387 34 34 133.387 34 256s99.387 222 222 222 222-99.387 222-222S378.613 34 256 34zm-83.25 222c0-45.982 37.268-83.25 83.25-83.25s83.25 37.268 83.25 83.25-37.268 83.25-83.25 83.25-83.25-37.268-83.25-83.25zm262.75 74.356l-76.922-31.87c5.425-13.085 8.436-27.432 8.436-42.486 0-15.054-2.997-29.401-8.436-42.485l76.923-31.871C445.005 204.55 450.25 229.65 450.25 256c0 26.349-5.259 51.449-14.75 74.356zM330.357 76.5l-31.87 76.923C285.4 147.997 271.053 145 256 145c-15.054 0-29.401 2.997-42.485 8.422L181.644 76.5C204.55 67.01 229.65 61.75 256 61.75c26.349 0 51.449 5.259 74.356 14.75zM76.5 181.644l76.923 31.87c-5.425 13.085-8.436 27.432-8.436 42.486 0 15.054 2.997 29.401 8.422 42.485l-76.923 31.871C66.981 307.45 61.736 282.35 61.736 256c0-26.349 5.259-51.448 14.75-74.356h.013zM181.644 435.5l31.87-76.923c13.085 5.425 27.432 8.436 42.486 8.436 15.054 0 29.401-2.997 42.485-8.436l31.871 76.923c-22.906 9.49-48.006 14.75-74.356 14.75-26.349 0-51.448-5.259-74.356-14.75z" fill-rule="evenodd"/></svg>