<svg width="512" height="512" xmlns="http://www.w3.org/2000/svg"><path d="M403.37 166.265c-30.419 0-55.09-24.93-55.09-55.68s24.656-55.68 55.09-55.68c30.418 0 55.074 24.93 55.074 55.68s-24.656 55.68-55.074 55.68zm-86.304 9.777c-19.168 17.292-35.982 36.265-49.984 56.536-12.09 17.521-22.103 35.975-29.776 54.947-13.024 32.034-14.782 54.23-14.782 54.459a6.914 6.914 0 0 1-6.909 6.507h-.504c-3.806-.275-6.68-3.65-6.39-7.53.092-.994 1.942-24.687 15.79-58.782 8.117-19.859 18.618-39.26 31.275-57.606 14.72-21.355 32.421-41.367 52.675-59.484l-8.667-10.907 36.364-5.698c2.553-.382 3.837 1.268 2.92 3.651l-13.375 34.799-8.621-10.877-.016-.015zm-53.79 246.277c0 30.75-24.656 55.681-55.074 55.681-30.419 0-55.075-24.93-55.075-55.68s24.656-55.696 55.075-55.696c30.418 0 55.074 24.945 55.074 55.695zm-63.589-220.98l-16.722 16.91a5.187 5.187 0 0 1-7.368 0l-22.47-22.715-22.455 22.715a5.187 5.187 0 0 1-7.367 0l-16.723-16.91c-2.033-2.047-2.033-5.377 0-7.44l22.47-22.715-22.47-22.715a5.318 5.318 0 0 1 0-7.455l16.723-16.91a5.187 5.187 0 0 1 7.367 0l22.455 22.715 22.47-22.715a5.187 5.187 0 0 1 7.368 0l16.722 16.91c2.033 2.047 2.033 5.378 0 7.455l-22.47 22.715 22.47 22.716c2.033 2.046 2.033 5.377 0 7.439zm-143.334-13.29c2.049 32.507 11.021 64.25 26.766 94.374 26.964 51.602 64.857 80.916 65.224 81.207 3.042 2.352 3.653 6.752 1.345 9.837-1.391 1.833-3.485 2.811-5.564 2.811a7.045 7.045 0 0 1-4.158-1.39c-1.62-1.222-40.4-31.163-68.877-85.331-16.723-31.896-26.353-65.625-28.585-100.18-2.644-41.397 5.381-84.016 23.861-126.865l-12.412-6.263L84.8 35.687c2.14-1.405 3.99-.473 4.127 2.108L91.16 75.07l-12.32-6.233c-17.334 40.374-24.886 80.504-22.47 119.243l-.016-.03zm256.128 89.975l16.722-16.91c2.033-2.048 5.32-2.048 7.399 0l22.47 22.715 22.454-22.716a5.187 5.187 0 0 1 7.368 0l16.723 16.91c2.033 2.048 2.033 5.378 0 7.44l-22.47 22.715 22.424 22.715a5.29 5.29 0 0 1 0 7.455l-16.723 16.91a5.187 5.187 0 0 1-7.368 0l-22.47-22.715-22.454 22.715a5.187 5.187 0 0 1-7.368 0l-16.723-16.91c-2.048-2.047-2.048-5.377 0-7.455l22.455-22.715-22.455-22.715c-2.048-2.047-2.048-5.377 0-7.44h.016z" fill="#444" fill-rule="evenodd"/></svg>