<svg width="512" height="512" xmlns="http://www.w3.org/2000/svg"><path d="M96.596 373v-18.442c0-.878-.438-1.755-1.313-2.194-.876-.439-1.751-.877-2.627-.439l-67.905 18.442C23.438 370.807 23 372.122 23 373h73.596zM490 373c0-1.316-.438-2.632-1.751-2.632l-67.905-18.443c-.876-.438-1.751 0-2.627.44-.875.438-1.313 1.315-1.313 2.193V373H490zM237.222 217.587h36.36c.876 0 1.751-.438 2.189-1.316.438-.877.876-1.755.438-2.632l-18.403-68.05c-.438-2.633-4.816-2.633-5.691 0l-18.403 68.05c-.438.877 0 1.755.438 2.632 1.313.878 2.189 1.316 3.064 1.316h.008zm141.063 58.391c.438.439 1.313.877 2.627.877.875 0 1.751-.438 2.189-1.316l35.047-61.023c1.313-2.194-1.752-5.265-3.94-3.949l-60.893 35.122c-.876.44-1.313 1.317-1.313 2.194 0 .878 0 1.755.875 2.194l25.408 25.9zm-263.724-.439c.438.878 1.314 1.316 1.751 1.316.876 0 1.752-.439 2.19-.877l25.845-25.901c.438-.439.876-1.316.876-2.194 0-.877-.438-1.755-1.314-1.755l-56.514-30.734c-2.19-1.317-5.254 1.755-3.94 3.948l31.106 56.197zM379.16 373c0-68.489-55.2-124.247-123.98-124.247-68.343 0-123.544 55.32-123.544 123.808h247.517l.007.439z" fill-rule="evenodd"/></svg>