<svg width="512" height="512" xmlns="http://www.w3.org/2000/svg"><g fill-rule="evenodd"><path d="M492.9 345.2c-27.2-22.3-56.5-37.1-62.4-40-.7-.3-1.1-1-1.1-1.8v-42.3c5.3-3.5 8.8-9.6 8.8-16.5v-43.9c0-21.8-17.7-39.5-39.5-39.5h-9.4c-21.8 0-39.5 17.7-39.5 39.5v43.9c0 6.9 3.5 12.9 8.8 16.5v42.3c0 .3-.1.5-.1.7 8.3 5.7 17 12.1 25.5 19.1 9.9 8.2 15.6 20.2 15.6 33.2v35.3h101v-30.1c0-6.3-2.8-12.4-7.7-16.4z"/><path d="M372.5 337.1c-31.9-26.2-66.3-43.6-73.4-47.1-.8-.4-1.3-1.2-1.3-2.1v-49.7c6.3-4.2 10.4-11.3 10.4-19.3v-51.6c0-25.6-20.8-46.4-46.4-46.4h-11c-25.6 0-46.4 20.8-46.4 46.4v51.5c0 8.1 4.1 15.2 10.4 19.3v49.7c0 .9-.5 1.7-1.3 2.1-7 3.4-41.4 20.8-73.4 47.1-5.8 4.7-9.1 11.8-9.1 19.3v35.3h250.6v-35.3c0-7.4-3.3-14.5-9.1-19.2z"/><path d="M154 303.4v-42.3c5.3-3.5 8.8-9.6 8.8-16.5v-43.9c0-21.8-17.7-39.5-39.5-39.5h-9.4c-21.8 0-39.5 17.7-39.5 39.5v43.9c0 6.9 3.5 12.9 8.8 16.5v42.3c0 .7-.4 1.4-1.1 1.8-6 2.9-35.3 17.7-62.4 40-4.9 4-7.7 10.1-7.7 16.4v30.1h101v-35.3c0-12.9 5.7-25 15.6-33.2 8.5-7 17.2-13.4 25.5-19.1 0-.2-.1-.4-.1-.7z"/></g></svg>