<svg width="512" height="512" xmlns="http://www.w3.org/2000/svg"><path d="M256.576 474.538c-52.071 0-104.112-19.853-143.761-59.56C74.41 376.52 53.24 325.37 53.24 270.94c0-54.4 21.17-105.565 59.574-144.039 15.02-15.048 39.342-15.048 54.347 0 15.005 15.063 15.02 39.43 0 54.446-23.907 23.935-37.051 55.724-37.051 89.547 0 33.838 13.144 65.658 37.05 89.547 23.892 23.919 55.608 37.088 89.385 37.088 33.776 0 65.523-13.17 89.383-37.088 23.922-23.935 37.052-55.71 37.052-89.547 0-33.823-13.13-65.643-37.052-89.547-15.035-15.048-15.035-39.429 0-54.446 15.005-15.048 39.358-15.048 54.347 0C438.68 165.36 459.85 216.51 459.85 270.94c0 54.43-21.17 105.565-59.574 144.039-39.588 39.706-91.644 59.56-143.7 59.56zm30.763-245.923V67.804C287.34 50.8 273.564 37 256.592 37c-16.973 0-30.748 13.8-30.748 30.804v160.811c0 17.004 13.775 30.804 30.748 30.804 16.972 0 30.747-13.784 30.747-30.804z"/></svg>