<svg width="512" height="512" xmlns="http://www.w3.org/2000/svg"><path d="M201.921 120.46h54.308v27.154H201.92v-27.153zm81.461 0h54.307v27.154h-54.307v-27.153zm135.768 0v108.615h-81.46V201.92h54.307v-54.307h-27.154V120.46h54.307zm-244.382 81.461h54.307v27.154h-54.307V201.92zm81.46 0h54.308v27.154H256.23V201.92zm-135.767-54.307v54.307h27.153v27.154H93.307V120.46h81.461v27.153h-54.307zm81.46 135.768h54.308v27.153H201.92v-27.153zm81.461 0h54.307v27.153h-54.307v-27.153zm135.768 0v108.614h-81.46v-27.153h54.307v-54.308h-27.154v-27.153h54.307zm-244.382 81.46h54.307v27.154h-54.307v-27.153zm81.46 0h54.308v27.154H256.23v-27.153zm-135.767-54.307v54.308h27.153v27.153H93.307V283.382h81.461v27.153h-54.307zM446.303 66.153H66.153v380.15h380.15V66.153zM473.457 39v434.457H39V39h434.457z" fill-rule="evenodd"/></svg>