<svg width="512" height="512" xmlns="http://www.w3.org/2000/svg"><g fill-rule="evenodd"><path d="M436.375 230.19H475c-5.782-48.82-27.6-93.997-62.896-129.294C376.807 65.599 331.632 43.782 282.81 38v38.625c79.22 11.538 142.027 74.345 153.565 153.565zM230.19 76.625V38c-48.82 5.782-93.997 27.6-129.294 62.896C65.599 136.193 43.782 181.368 38 230.19h38.625C88.163 150.97 150.97 88.163 230.19 76.625zm52.62 359.75V475c48.82-5.782 93.997-27.6 129.294-62.896 35.297-35.297 57.114-80.472 62.896-129.294h-38.625c-11.538 79.22-74.345 142.027-153.565 153.565zM76.625 282.81H38c5.782 48.82 27.6 93.997 62.896 129.294 35.297 35.297 80.472 57.114 129.294 62.896v-38.625C150.97 424.837 88.163 362.03 76.625 282.81z"/><path d="M159.543 230.19c9.314-34.283 36.364-61.333 70.647-70.647v-39.26c-55.435 10.687-99.22 54.472-109.907 109.907h39.26zm0 52.62h-39.26c10.687 55.435 54.472 99.22 109.907 109.906v-39.26c-34.283-9.312-61.334-36.363-70.647-70.646zm193.914 0c-9.314 34.283-36.364 61.332-70.647 70.647v39.26c55.435-10.687 99.22-54.472 109.907-109.907h-39.26zm0-52.62h39.26c-10.687-55.435-54.472-99.22-109.907-109.907v39.26c34.283 9.313 61.334 36.364 70.647 70.647z"/><path d="M267.168 205.007V38h-21.336v167.007c-20.452 4.23-36.594 20.373-40.825 40.825H38v21.336h167.007c4.23 20.452 20.373 36.594 40.825 40.826V475h21.336V307.993c20.452-4.23 36.594-20.373 40.826-40.827H475V245.83H307.993c-4.23-20.449-20.373-36.592-40.825-40.822z"/></g></svg>