<svg width="512" height="512" xmlns="http://www.w3.org/2000/svg"><path d="M14 275.823c0-20.016 4.025-39.149 12.076-57.4 8.05-18.251 18.823-33.955 32.318-47.111 13.494-13.156 29.59-23.666 48.287-31.53 18.697-7.865 38.308-11.792 58.833-11.782H347.33c20.515 0 40.126 3.927 58.833 11.781 18.707 7.855 34.803 18.365 48.288 31.531 13.484 13.166 24.257 28.87 32.318 47.111 8.06 18.241 12.085 37.374 12.075 57.4-.01 20.025-4.035 39.158-12.075 57.399s-18.813 33.945-32.318 47.111c-13.505 13.166-29.601 23.676-48.288 31.53-18.687 7.855-38.297 11.782-58.833 11.782H165.514c-20.515 0-40.126-3.927-58.833-11.781-18.707-7.855-34.803-18.365-48.287-31.531-13.485-13.166-24.258-28.87-32.318-47.111-8.06-18.241-12.086-37.374-12.076-57.4zM347.33 394.08c16.414 0 32.08-3.12 47-9.358 14.919-6.238 27.823-14.669 38.712-25.292 10.889-10.624 19.53-23.213 25.924-37.769 6.394-14.555 9.59-29.84 9.59-45.854s-3.196-31.3-9.59-45.855c-6.394-14.555-15.035-27.145-25.924-37.768-10.89-10.624-23.793-19.055-38.712-25.293-14.92-6.238-30.586-9.357-47-9.357s-32.08 3.119-47 9.357c-14.918 6.238-27.822 14.669-38.711 25.293-10.889 10.623-19.53 23.213-25.924 37.768-6.394 14.556-9.59 29.84-9.59 45.855 0 16.014 3.196 31.299 9.59 45.854 6.394 14.556 15.035 27.145 25.924 37.769 10.889 10.623 23.793 19.054 38.712 25.292 14.919 6.238 30.585 9.358 47 9.358z" fill-rule="evenodd"/></svg>