<svg width="512" height="512" xmlns="http://www.w3.org/2000/svg"><path d="M286.725 276.823c0-16.015-3.197-31.3-9.591-45.855-6.394-14.556-15.035-27.145-25.924-37.769-10.889-10.623-23.793-19.054-38.712-25.292-14.919-6.238-30.585-9.357-47-9.357-16.413 0-32.08 3.119-46.999 9.357-14.919 6.238-27.823 14.669-38.712 25.292-10.888 10.624-19.53 23.213-25.924 37.769-6.394 14.556-9.59 29.84-9.59 45.855 0 16.014 3.196 31.298 9.59 45.854 6.394 14.556 15.036 27.145 25.924 37.769 10.89 10.623 23.793 19.054 38.712 25.292 14.92 6.238 30.586 9.357 47 9.357s32.08-3.119 47-9.357c14.918-6.238 27.822-14.669 38.711-25.292 10.889-10.624 19.53-23.213 25.924-37.769 6.394-14.556 9.59-29.84 9.59-45.854zm181.816 0c0-16.015-3.197-31.3-9.59-45.855-6.394-14.556-15.036-27.145-25.924-37.769-10.89-10.623-23.793-19.054-38.712-25.292-14.92-6.238-30.586-9.357-47-9.357h-91.378c18.778 13.856 33.651 31.102 44.621 51.738 10.97 20.636 16.454 42.809 16.454 66.52 0 23.71-5.484 45.884-16.454 66.52-10.97 20.636-25.843 37.882-44.62 51.738h91.377c16.414 0 32.08-3.12 47-9.357 14.919-6.239 27.823-14.67 38.712-25.293 10.888-10.623 19.53-23.213 25.924-37.769 6.393-14.555 9.59-29.84 9.59-45.854v.03zm30.303 0c0 20.015-4.025 39.148-12.075 57.399-8.05 18.251-18.824 33.955-32.318 47.111-13.495 13.156-29.591 23.666-48.288 31.53-18.697 7.865-38.308 11.792-58.833 11.782H165.514c-20.515 0-40.126-3.927-58.833-11.781-18.707-7.855-34.803-18.365-48.287-31.531-13.485-13.166-24.258-28.87-32.318-47.111-8.06-18.241-12.086-37.374-12.076-57.4.01-20.025 4.035-39.158 12.076-57.399 8.04-18.241 18.813-33.945 32.318-47.111 13.504-13.166 29.6-23.676 48.287-31.53C125.368 132.926 144.979 129 165.514 129H347.33c20.515 0 40.126 3.927 58.833 11.781 18.707 7.855 34.803 18.365 48.288 31.531 13.484 13.166 24.257 28.87 32.318 47.111 8.06 18.241 12.085 37.374 12.075 57.4z" fill-rule="evenodd"/></svg>