<svg width="512" height="512" xmlns="http://www.w3.org/2000/svg"><path d="M462.583 37h-95.337v219.1h95.337V37zm-47.62 201.477c-13.934 0-25.227-11.288-25.227-25.21 0-13.914 11.293-25.202 25.226-25.202 13.934 0 25.222 11.288 25.222 25.201 0 13.923-11.288 25.211-25.222 25.211zm-361.077 9.55s-31.214 75.366 71.36 56.619c0 0 63.357-13.26 70.65 6.092 0 0 5.015 14.69-18.29 42.638 0 0-51.65 57.333 6.807 113.232 0 0 29.77 25.078 34.436-11.47 4.662-36.551-.715-38.7 19.368-67.01 0 0 56.516-54.462 68.242-96.39 0 0 15.621-47.574 41.725-48.346V77.834c-8.7.162-36.762 1.253-66.474-9.088 0 0-54.324-12.912-89.708-12.912 0 0-71.742-1.667-93.621 15.294 0 0-19.192 14.213-15.255 32.846 0 0 3.58 12.27-5.834 19.352 0 0-27.424 17.323-14.034 44.787 0 0 7.03 12.546-4.219 23.286 0 0-16.527 12.727-5.134 28.312-.005.01 7.593 13.346-.02 28.316z" fill-rule="evenodd"/></svg>