<svg width="512" height="512" xmlns="http://www.w3.org/2000/svg"><g transform="translate(103 37)" fill-rule="evenodd"><path d="M25.164 438h256.672c13.89 0 25.164-11.277 25.164-25.172V25.172C307 11.277 295.727 0 281.836 0H25.164C11.274 0 0 11.277 0 25.172v387.656C0 426.723 11.273 438 25.164 438zm238.504-30.912c-8.355 0-15.099-6.745-15.099-15.103 0-8.357 6.744-15.104 15.099-15.104 8.354 0 15.098 6.747 15.098 15.104s-6.744 15.103-15.098 15.103zm0-372.854c8.354 0 15.098 6.747 15.098 15.104s-6.744 15.103-15.098 15.103c-8.355 0-15.099-6.746-15.099-15.103s6.744-15.104 15.099-15.104zM153.5 45.512c65.225 0 118.12 52.912 118.12 118.159 0 65.247-52.895 118.16-118.12 118.16a118.327 118.327 0 0 1-29.744-3.777l22.195-37.657c6.593-11.177-6.04-23.864-17.212-17.218l-51.486 30.358c-.1.05-.15.1-.201.151-25.466-21.648-41.621-53.97-41.621-90.016-.05-65.248 52.844-118.16 118.069-118.16zM46.352 34.234c8.354 0 15.098 6.747 15.098 15.104S54.707 64.44 46.352 64.44s-15.098-6.746-15.098-15.103 6.744-15.104 15.098-15.104zm0 342.647c8.354 0 15.098 6.747 15.098 15.104 0 8.358-6.743 15.103-15.098 15.103s-15.098-6.745-15.098-15.103c0-8.307 6.744-15.104 15.098-15.104z"/><ellipse cx="153.5" cy="163.671" rx="31.556" ry="31.566"/></g></svg>