<svg width="512" height="512" xmlns="http://www.w3.org/2000/svg"><path d="M255.007 135.718c66.44 0 120.296 53.856 120.296 120.282 0 66.426-53.856 120.296-120.296 120.296-66.426 0-120.282-53.87-120.282-120.296 0-66.426 53.856-120.282 120.282-120.282zM99.27 275.99c.71-.525 1.093-1.333 1.093-2.213V238.25c0-.88-.397-1.688-1.092-2.227a2.764 2.764 0 0 0-2.426-.482l-66 17.762c-2.455.653-2.455 4.739 0 5.406l66 17.763c.808.212 1.73.042 2.426-.483zm381.886-22.686l-65.972-17.762a2.907 2.907 0 0 0-2.455.482c-.71.525-1.078 1.348-1.078 2.227v35.526c0 .88.383 1.688 1.078 2.213.696.525 1.59.695 2.455.483l65.972-17.763c2.454-.667 2.454-4.753 0-5.406zM272.77 406.856h-35.526c-.88 0-1.717.397-2.213 1.092a2.706 2.706 0 0 0-.497 2.412l17.749 66.014c.667 2.426 4.767 2.426 5.42 0l17.762-66.014c.213-.823.029-1.717-.496-2.426a2.749 2.749 0 0 0-2.2-1.078zm-35.512-301.697h35.526c.88 0 1.674-.398 2.199-1.093a2.932 2.932 0 0 0 .496-2.44L257.717 35.64c-.639-2.455-4.753-2.455-5.42 0l-17.748 65.986a2.648 2.648 0 0 0 .496 2.412c.482.71 1.32 1.106 2.213 1.106v.014zM135.775 350.091a2.742 2.742 0 0 0-2.312-.794c-.88.1-1.632.624-2.086 1.362l-34.093 59.247c-1.276 2.17 1.604 5.065 3.831 3.816l59.219-34.106c.752-.44 1.248-1.192 1.404-2.058.085-.88-.198-1.716-.823-2.34l-25.14-25.127zM374.21 161.909c.61.624 1.49.907 2.37.794.837-.114 1.589-.624 2.07-1.376l34.094-59.233c1.262-2.2-1.632-5.107-3.845-3.83l-59.233 34.106a2.84 2.84 0 0 0-1.362 2.072c-.114.88.184 1.716.794 2.326l25.112 25.14zm-9.207 188.778a2.789 2.789 0 0 0-2.043-1.362 2.798 2.798 0 0 0-2.37.795l-25.112 25.126c-.61.624-.922 1.49-.794 2.34.128.852.61 1.618 1.39 2.058l59.219 34.107c2.199 1.248 5.107-1.632 3.845-3.817l-34.121-59.247h-.014zM117.998 161.554c.37.71 1.078 1.149 1.901 1.22a2.8 2.8 0 0 0 2.256-.865l25.14-25.14c.61-.61.937-1.448.852-2.257a2.233 2.233 0 0 0-1.192-1.9l-54.75-29.667c-2.043-1.092-4.951 1.788-3.844 3.83l29.666 54.75-.029.029z" fill-rule="evenodd"/></svg>