<svg width="512" height="512" xmlns="http://www.w3.org/2000/svg"><path d="M237.28 461.983V258.77a33.019 33.019 0 0 1-14.713-27.507c0-18.163 14.713-32.851 32.906-32.851 18.193 0 32.906 14.688 32.906 32.85 0 13.346-8.03 24.837-19.261 29.903V461.97c0 8.818-7.225 16.017-16.044 16.017-8.82 0-15.78-7.212-15.78-16.017l-.014.014zm98.162-165.834c2.676 1.605 5.353 2.408 8.292 2.408 5.353 0 10.705-2.672 13.645-7.738 12.036-19.755 17.916-42.46 16.848-65.689-2.676-64.623-57.505-115.083-122.498-112.688-31.034 1.329-59.918 14.688-81.314 37.918-21.396 22.967-32.365 53.132-31.02 84.378.804 18.426 5.616 36.049 14.45 52.066 4.284 7.739 14.171 10.687 21.936 6.147 7.752-4.278 10.428-14.149 6.157-21.901-6.42-11.754-9.9-24.296-10.705-37.918-.804-22.704 7.225-44.591 22.464-61.411 15.24-16.82 36.913-26.165 59.64-27.23 47.078-1.87 87.194 34.72 89.066 81.982.804 16.82-3.48 33.377-12.3 47.802-4.548 7.476-2.135 17.36 5.353 21.901l-.014-.027zm47.077 61.687c6.684 5.607 16.848 4.804 22.742-1.869a195.56 195.56 0 0 0 46.01-126.033C451.27 122.326 363.812 35 256.013 35c-107.8 0-195.257 87.313-195.257 194.934 0 48.868 18.193 95.328 51.085 131.377 3.203 3.475 7.488 5.344 11.773 5.344 3.744 0 7.751-1.33 10.705-4.278 6.42-5.87 6.961-16.017 1.068-22.704-27.276-29.902-42.53-68.886-42.53-109.753 0-89.721 73.286-162.886 163.156-162.886S419.169 140.2 419.169 229.92c0 38.458-13.645 75.836-38.522 105.213-5.879 6.672-5.089 16.82 1.872 22.69v.013z" fill-rule="evenodd"/></svg>