<svg width="512" height="512" xmlns="http://www.w3.org/2000/svg"><g fill="#444" fill-rule="evenodd"><path d="M255.986 477C134.132 477 35 377.854 35 256S134.132 35 255.986 35c121.854 0 221 99.146 221 221s-99.146 221-221 221zm0-415.273C148.87 61.727 61.727 148.884 61.727 256s87.143 194.259 194.26 194.259c107.115 0 194.272-87.157 194.272-194.259 0-107.102-87.157-194.273-194.273-194.273z"/><path d="M184.962 236.662h142.076v90.459H184.962v-90.458z"/><path d="M236.676 263.997H209.95v-81.963h92.102v34.946h-26.727v-8.219H236.69z"/></g></svg>