<svg width="512" height="512" xmlns="http://www.w3.org/2000/svg"><g fill-rule="evenodd"><path d="M338.019 105.854h-27.164c-8.585 0-15.536 6.966-15.536 15.492V210.8h-77.937v-89.453c0-8.526-6.95-15.492-15.536-15.492h-26.88c-8.585 0-15.535 6.952-15.535 15.492 0 8.612 6.95 15.522 15.536 15.522h11.357v276.188c0 38.575 31.442 69.944 70.062 69.944 38.606 0 70.02-31.369 70.02-69.944V136.853h11.641c8.586 0 15.537-6.909 15.537-15.52-.015-8.527-6.965-15.48-15.55-15.48h-.015zm-42.686 307.202c0 21.465-17.497 38.93-38.947 38.93-21.506 0-38.99-17.465-38.99-38.93V241.798h77.952v171.258h-.015zm-77.88-327.675c15.593 0 28.216-12.598 28.216-28.219C245.669 41.67 233.046 29 217.453 29c-15.593 0-28.243 12.67-28.243 28.162 0 15.635 12.65 28.22 28.243 28.22z"/><path d="M278.902 110.635c9.68 0 17.54-7.874 17.54-17.493 0-9.62-7.86-17.493-17.54-17.493-9.652 0-17.498 7.86-17.498 17.493s7.832 17.493 17.498 17.493zm-46.752 38.93c0 8.059 6.582 14.6 14.613 14.6 8.117 0 14.655-6.541 14.655-14.6 0-8.058-6.553-14.599-14.655-14.599-8.045 0-14.612 6.54-14.612 14.6z"/></g></svg>