<svg width="512" height="512" xmlns="http://www.w3.org/2000/svg"><path d="M505 102.192a204.105 204.105 0 0 1-58.66 16.08c21.1-12.628 37.25-32.657 44.905-56.45-19.792 11.694-41.638 20.186-64.915 24.789-18.64-19.874-45.154-32.252-74.562-32.252-56.419 0-102.164 45.718-102.164 102.073 0 7.993.903 15.8 2.646 23.264-84.893-4.261-160.17-44.91-210.552-106.677-8.807 15.053-13.817 32.593-13.817 51.317 0 35.424 18.05 66.68 45.434 84.968a102.213 102.213 0 0 1-46.274-12.814v1.275c0 49.45 35.227 90.722 81.937 100.115a103.534 103.534 0 0 1-26.918 3.577 98.11 98.11 0 0 1-19.232-1.898c13.007 40.587 50.724 70.102 95.412 70.911-34.947 27.37-79.012 43.635-126.873 43.635-8.246 0-16.369-.498-24.366-1.4 45.216 29.018 98.897 45.937 156.592 45.937 187.928 0 290.652-155.568 290.652-290.484l-.342-13.218c20.071-14.307 37.435-32.284 51.097-52.748z" fill="#010002" fill-rule="evenodd"/></svg>