<svg width="512" height="512" xmlns="http://www.w3.org/2000/svg"><path d="M234.215 401.819h43.616v74.814h-43.616zM307.858 57.95c0-12.669-10.284-22.95-22.956-22.95h-57.758c-12.671 0-22.956 10.281-22.956 22.95v57.188h103.624V57.95h.046zm-24.012 13.63H228.2a9.032 9.032 0 0 1-9.045-9.041c0-5.003 4.04-9.088 9.045-9.088h55.691a9.032 9.032 0 0 1 9.045 9.042c0 5.003-4.087 9.088-9.091 9.088zM183.16 137.399v219.21c0 12.668 10.285 22.949 22.957 22.949h99.858c12.672 0 22.956-10.281 22.956-22.95V137.4h-145.77z" fill-rule="evenodd"/></svg>