<svg width="512" height="512" xmlns="http://www.w3.org/2000/svg"><path d="M463.564 414.91l-110.22-58.292-5.09-15.912c-1.53-5.328-3.936-10.655-8.9-12.06-1.572-.445-3.574-3.324-3.825-5.327l-2.948-30.934c-.167-2.642.904-5.02 2.295-6.69 8.44-10.126 13.044-21.837 14.99-35.245.974-6.732 4.478-12.95 6.286-19.584l7.065-36.985c.737-4.854.598-8.596-4.84-10.487-1.502-.529-2.795-3.005-2.795-6.718l.07-69.796c-1.155-16.886-10.096-29.96-22.779-39.043-24.225-17.372-67.612-9.319-53.456-37.638.835-1.669.57-4.562-5.256-2.42-21.722 7.998-79.572 29.112-94.104 40.072-13.002 9.806-21.624 22.157-22.778 39.043l.07 69.796c0 3.074-1.308 6.203-2.796 6.718-5.423 1.877-5.576 5.619-4.84 10.487l7.065 36.984c1.794 6.635 5.299 12.852 6.286 19.584 1.947 13.395 6.55 25.12 14.99 35.246 1.391 1.67 2.462 4.048 2.295 6.69l-2.948 30.934c-.264 2.003-2.253 4.882-3.824 5.327-4.965 1.405-7.37 6.732-8.9 12.06l-5.09 15.912-110.22 58.293a8.67 8.67 0 0 0-4.617 7.677v40.824a8.68 8.68 0 0 0 8.677 8.679h406.02a8.672 8.672 0 0 0 8.678-8.68v-40.823a8.684 8.684 0 0 0-4.63-7.677l.07-.014z" fill-rule="evenodd"/></svg>