<svg width="512" height="512" xmlns="http://www.w3.org/2000/svg"><g fill="#444" fill-rule="evenodd"><path d="M255.986 477C134.132 477 35 377.854 35 256S134.132 35 255.986 35C377.854 35 477 134.146 477 256s-99.146 221-221.014 221zm0-415.273C148.87 61.727 61.727 148.884 61.727 256s87.143 194.259 194.26 194.259c107.129 0 194.286-87.157 194.286-194.259 0-107.102-87.157-194.273-194.287-194.273z"/><path d="M183.291 225.115h142.075v112.351H183.291v-112.35z"/><path d="M210.24 257.27h-26.728v-75.277H301.36v26.727h-91.12z"/></g></svg>