<svg width="512" height="512" xmlns="http://www.w3.org/2000/svg"><g fill-rule="evenodd"><path d="M243.136 306.147v14.562h25.987v-14.52c-4.259.812-8.574 1.256-12.916 1.256-4.4 0-8.757-.466-13.07-1.298z"/><path d="M377.864 285.355l-53.27-15.896a127.935 127.935 0 0 1-10.759 11.867l59.912 17.878c5.838 1.742 9.77 7.013 9.77 13.116v23.38c0 66.015-50.45 120.447-114.79 126.755l15.018-35.489-14.44-96.629h-26.169l-14.439 96.63 15.016 35.488c-64.339-6.308-114.79-60.74-114.79-126.755v-23.38c0-6.102 3.935-11.373 9.786-13.116l59.883-17.87a130.36 130.36 0 0 1-10.773-11.868l-53.243 15.888c-11.927 3.555-20.092 14.52-20.092 26.965V335.7c0 78.335 63.452 141.839 141.736 141.839 78.285 0 141.736-63.504 141.736-141.839v-23.38a28.125 28.125 0 0 0-20.092-26.964z"/><path d="M179.656 228.483c14.849 31.875 42.16 64.512 76.551 64.512 34.362 0 61.673-32.587 76.523-64.442 11.773-2.308 22.94-13.272 28.158-28.243 6.443-18.605 1.974-36.8-9.997-44.209.013-.303.113-.592.07-.903-.197-1.566-1.03-2.836-2.215-3.675 3.61-5.666 6.332-14.605 6.121-28.56-.085-5.13-.535-10.894-1.523-17.49-7.897-52.562-92.638-93.912-129.948-52.978 0 0-28.581-5.722-49.338 23.628-8.36 11.818-20.374 35.48-19.33 55.34.409 7.804 2.777 15.036 8.262 20.708-.761.819-1.355 1.821-1.509 3.027-.041.318.057.607.07.91-5.485 3.423-9.67 9.151-11.633 16.581-2.212 8.417-1.635 18.23 1.637 27.621 5.16 14.83 16.144 25.73 28.101 28.173zm49.042-123.009s76.508 51.779 84.334 19.268c0 0 13.746 9.997 19.021 30.225-5.598 3.168-10.083 7.366-13.395 11.147-4.935-9.256-14.58-15.64-25.775-15.64-11.013 0-20.516 6.18-25.537 15.19-7.118-2.61-15.128-2.61-22.25 0-5.018-9.01-14.522-15.19-25.535-15.19-11.195 0-20.84 6.384-25.776 15.64-3.256-3.703-7.6-7.838-13.056-10.984 4.413-13.195 17.596-43.123 47.97-49.656zm49.435 66.962c-.437-.43-.944-.734-1.41-1.136 3.117-5.856 9.082-9.99 16.16-9.99 10.193 0 18.499 8.303 18.499 18.512 0 10.21-8.307 18.514-18.499 18.514-9.602 0-17.26-7.451-18.162-16.828 1.226-.105 2.454-.472 3.399-1.41 2.114-2.116 2.128-5.546.013-7.662zm-43.81 7.662c.946.938 2.172 1.305 3.4 1.41-.889 9.377-8.56 16.828-18.162 16.828-10.196 0-18.501-8.304-18.501-18.514 0-10.209 8.305-18.513 18.5-18.513 7.079 0 13.044 4.135 16.16 9.99-.466.403-.974.706-1.41 1.137-2.116 2.116-2.103 5.546.013 7.662zm-44.035-.805c-.015.184-.057.346-.057.53 0 16.184 13.157 29.35 29.329 29.35s29.327-13.166 29.327-29.35c0-1.354-.225-2.653-.395-3.958 4.907-1.955 10.546-1.955 15.455 0-.169 1.305-.395 2.604-.395 3.957 0 16.185 13.157 29.351 29.33 29.351 16.172 0 29.327-13.166 29.327-29.35 0-.184-.042-.346-.057-.53 1.609-2.483 6.6-9.432 13.75-13.99 1.112 1.023 2.523 1.756 4.13 1.911.437.043 1.326.135 1.79.29 6.388 2.23 10.196 14.308 5.43 28.06-4.301 12.332-13.044 18.985-19.249 18.985h-.141a7.21 7.21 0 0 0-6.612 4.34c-12.564 28.841-36.251 59.658-65.044 59.658-28.794 0-52.482-30.817-65.045-59.659-1.143-2.638-4.048-4.34-6.925-4.34-6.035 0-14.763-6.652-19.05-18.984-2.297-6.618-2.776-13.61-1.311-19.185.72-2.688 2.524-7.414 6.726-8.875.452-.155 1.34-.247 1.778-.29 1.62-.155 3.032-.888 4.145-1.926 7.165 4.558 12.143 11.522 13.764 14.005z"/></g></svg>