<svg width="512" height="512" xmlns="http://www.w3.org/2000/svg"><path d="M256.014 34C133.58 34 34 133.58 34 256s99.58 222 222.014 222C378.419 478 478 378.42 478 256S378.42 34 256.014 34zm-60.69 179.792l.445-.485c1.803-1.319 2.691-3.372 2.358-5.523-4.467-26.903-1.54-38.114-.54-40.93 7.81-23.977 32.342-35.077 37.156-37.047 1.027-.403 2.914-.971 4.843-1.277l.569-.138 3.94-.209.028.25.916-.083a22.527 22.527 0 0 0 2.567-.402l.874-.18c.763.013 10.323 1.22 24.503 5.563l9.851 3.386c18.024 5.328 26.321 15.234 27.861 17.232 14.444 16.359 10.56 41.056 6.993 54.321-.402 1.568-.166 3.177.722 4.51l.818 1.012c1.041 1.415 1.984 6.91-1.151 18.551-.597 3.538-1.901 6.41-3.844 8.353a5.631 5.631 0 0 0-1.401 2.914c-4.884 28.61-30.511 60.606-57.526 60.606-22.921 0-49.09-29.443-53.793-60.579a5.725 5.725 0 0 0-1.47-3.066c-1.957-2.026-3.206-4.953-3.97-9.282-2.302-8.145-2.524-14.708-.748-17.455v-.042zM143.863 337.85c1-1.263 6.535-7.757 17.746-12.03 9.852-3.025 34.216-11.128 47.536-20.77.624-.334 1.235-.986 1.748-1.513 1.235-1.332 3.108-3.358 5.342-5.425l1.249-1.18 1.263 1.194c11.738 11.058 24.711 17.121 36.56 17.121 12.446 0 25.267-5.383 37.116-15.581l.93-.791 2.51 1.22c2.249 2.054 6.134 4.885 7.937 5.745l2.317 1.124-.235.25 1.026.624c2.193 1.318 4.565 2.595 7.354 3.982a85.661 85.661 0 0 0 7.617 2.97c2.054.665 13.015 4.342 25.489 10.114l2.373.722c12.196 4.676 17.607 11.155 18.148 11.835 14.472 21.45 20.022 61.48 22.089 83.791-37.81 30.692-85.359 47.591-133.963 47.591-48.632 0-96.196-16.9-133.977-47.618 2.026-22.242 7.52-62.147 21.811-83.375h.014z" fill-rule="evenodd"/></svg>