<svg width="512" height="512" xmlns="http://www.w3.org/2000/svg"><path d="M201 209.75v166.5c0 2.701-.87 4.915-2.608 6.642-1.74 1.726-3.953 2.596-6.642 2.608h-18.5c-2.701 0-4.915-.87-6.641-2.608-1.727-1.74-2.597-3.953-2.609-6.642v-166.5c0-2.701.87-4.915 2.609-6.642 1.738-1.726 3.952-2.596 6.641-2.608h18.5c2.701 0 4.915.87 6.642 2.608 1.726 1.74 2.596 3.953 2.608 6.642zm74 0v166.5c0 2.701-.87 4.915-2.608 6.642-1.74 1.726-3.953 2.596-6.642 2.608h-18.5c-2.701 0-4.915-.87-6.642-2.608-1.726-1.74-2.596-3.953-2.608-6.642v-166.5c0-2.701.87-4.915 2.608-6.642 1.74-1.726 3.953-2.596 6.642-2.608h18.5c2.701 0 4.915.87 6.642 2.608 1.726 1.74 2.596 3.953 2.608 6.642zm74 0v166.5c0 2.701-.87 4.915-2.608 6.642-1.74 1.726-3.953 2.596-6.642 2.608h-18.5c-2.701 0-4.915-.87-6.642-2.608-1.726-1.74-2.596-3.953-2.608-6.642v-166.5c0-2.701.87-4.915 2.608-6.642 1.74-1.726 3.953-2.596 6.642-2.608h18.5c2.701 0 4.915.87 6.642 2.608 1.726 1.74 2.596 3.953 2.608 6.642zm37 209.29V145.019H127v274.023c0 4.242.672 8.146 2.016 11.71 1.345 3.564 2.745 6.167 4.2 7.807 1.455 1.64 2.467 2.46 3.034 2.46h240.5c.58 0 1.591-.82 3.034-2.46 1.443-1.64 2.843-4.243 4.2-7.807 1.356-3.564 2.028-7.468 2.016-11.71zM191.75 108h129.5l-13.875-33.818c-1.344-1.739-2.985-2.8-4.921-3.182h-91.63c-1.925.382-3.565 1.443-4.922 3.182L191.75 108zM460 117.25v18.5c0 2.701-.87 4.915-2.608 6.641-1.74 1.727-3.953 2.597-6.642 2.609H423v274.022c0 15.996-4.526 29.822-13.579 41.477-9.053 11.655-19.943 17.482-32.671 17.482h-240.5c-12.716 0-23.606-5.636-32.671-16.909C94.514 449.8 89.988 436.166 90 420.17V144.981H62.25c-2.701 0-4.915-.869-6.642-2.608-1.726-1.739-2.596-3.953-2.608-6.642v-18.5c0-2.7.87-4.914 2.608-6.641 1.74-1.727 3.953-2.596 6.642-2.609h89.318l20.239-48.266c2.886-7.129 8.09-13.197 15.614-18.204C194.944 36.504 202.554 34 210.25 34h92.5c7.708 0 15.318 2.504 22.829 7.511 7.511 5.007 12.716 11.075 15.614 18.204l20.239 48.266h89.318c2.701 0 4.915.87 6.642 2.609 1.726 1.739 2.596 3.953 2.608 6.641v.019z" fill-rule="evenodd"/></svg>