<svg width="512" height="512" xmlns="http://www.w3.org/2000/svg"><g fill="#030104" fill-rule="evenodd"><path d="M435.434 205.673c-14.315-38.043-51.044-65.11-94.08-65.11-9.909 0-19.477 1.437-28.536 4.111C288.301 105.086 244.477 78.73 194.5 78.73c-75.808 0-137.486 60.659-139.094 136.08C27.658 230.87 9 260.875 9 295.146c0 51.198 41.552 92.75 92.75 92.75h92.75v-30.917h-92.796c-34.055 0-61.787-27.686-61.787-61.833 0-29.263 20.358-53.826 47.72-60.226a106.988 106.988 0 0 1-1.345-17.066c0-59.762 48.446-108.208 108.208-108.208 48.88 0 90.184 32.416 103.602 76.905 11.887-9.445 26.882-15.072 43.252-15.072 35.802 0 65.312 27.052 69.145 61.834h.464c34.055 0 61.787 27.685 61.787 61.833 0 34.085-27.655 61.833-61.787 61.833h-92.796v30.917h92.75c51.198 0 92.75-41.63 92.75-92.75 0-42.742-28.907-78.73-68.233-89.473z"/><path d="M256.333 217.854l-77.291 92.75h46.375v123.667h61.833V310.604h46.375z"/></g></svg>