<svg width="512" height="512" xmlns="http://www.w3.org/2000/svg"><g fill-rule="evenodd"><path d="M419.95 142.503c-.026-2-.692-3.975-2.114-5.537l-87.043-96.041c-.026-.027-.051-.036-.07-.06-.518-.56-1.123-1.022-1.762-1.429a9.251 9.251 0 0 0-2.325-1.04c-.166-.046-.312-.111-.476-.152a8.944 8.944 0 0 0-2.032-.244H110.197c-9.76 0-17.705 7.674-17.705 17.102v401.886c0 9.432 7.944 17.102 17.705 17.102H402.33c9.76 0 17.706-7.67 17.706-17.102V143.46c0-.322-.052-.637-.087-.958zM203.114 369.425H173.8v84.025h-24.372v-84.025h-28.84V349.73h82.528v19.694zm72.342 84.025l-9.717-18.775c-3.98-7.232-6.536-12.618-9.56-18.622h-.317c-2.233 6.004-4.937 11.39-8.283 18.622l-8.923 18.775h-27.728l31.074-52.477-29.957-51.247h27.882l9.407 18.93c3.18 6.305 5.576 11.387 8.123 17.236h.32c2.543-6.617 4.617-11.235 7.323-17.235l9.086-18.93h27.725l-30.276 50.628 31.866 53.095h-28.045zm116.484-84.025h-29.316v84.025h-24.379v-84.025h-28.844V349.73h82.53v19.694h.009zM110.197 328.37V55.102h205.077v87.499c0 4.72 3.97 8.55 8.854 8.55h78.203v177.22H110.197z"/><path d="M173.436 155.39h98.208c3.25 0 5.904-2.553 5.904-5.699s-2.653-5.695-5.904-5.695h-98.208c-3.26 0-5.896 2.55-5.896 5.695 0 3.146 2.636 5.699 5.896 5.699zm161.024 34.174H173.28c-3.257 0-5.896 2.547-5.896 5.694 0 3.146 2.639 5.699 5.896 5.699h161.18c3.258 0 5.903-2.554 5.903-5.7 0-3.147-2.646-5.693-5.904-5.693zm0 45.246H173.28c-3.257 0-5.896 2.547-5.896 5.699 0 3.146 2.639 5.699 5.896 5.699h161.18c3.258 0 5.903-2.554 5.903-5.7 0-3.152-2.646-5.698-5.904-5.698zm0 46.331H173.28c-3.257 0-5.896 2.552-5.896 5.7s2.639 5.694 5.896 5.694h161.18c3.258 0 5.903-2.547 5.903-5.695s-2.646-5.699-5.904-5.699z"/></g></svg>