<svg width="512" height="512" xmlns="http://www.w3.org/2000/svg"><path d="M55.662 312.33c-1.113-6.205 3.028-11.929 9.074-13.051 6.045-1.113 11.93 2.866 13.054 8.91 7.8 42.161 30.24 79.079 62.063 105.492 31.032 25.771 71.137 41.208 114.741 41.208 49.65 0 94.69-20.048 127.315-52.666 32.465-32.457 52.678-77.484 52.678-127.122 0-49.638-20.213-94.665-52.678-127.283-32.626-32.457-77.664-52.665-127.315-52.665-10.347 0-20.213.792-29.918 2.546-6.838 1.113-13.526 2.546-20.053 4.45l26.74 21.321c4.933 3.82 5.725 10.977 1.905 15.748-3.82 4.932-10.978 5.724-15.751 1.754l-43.765-34.843c-4.14-3.338-5.254-9.071-3.028-13.682l22.118-50.751c2.547-5.573 9.074-8.27 14.8-5.724 5.724 2.386 8.27 9.072 5.724 14.796l-12.733 29.28c6.687-1.905 13.365-3.339 20.373-4.451 10.98-1.905 22.279-2.867 33.578-2.867 55.857 0 106.46 22.593 143.227 59.19 36.606 36.758 59.195 87.348 59.195 143.191s-22.599 106.443-59.195 143.03c-36.757 36.597-87.37 59.341-143.227 59.341-49.018 0-94.047-17.501-129.059-46.62-35.653-29.59-60.96-71.28-69.863-118.532z" fill="#1E201D" fill-rule="evenodd"/></svg>