<svg width="512" height="512" xmlns="http://www.w3.org/2000/svg"><g fill-rule="evenodd"><path d="M335.336 284.708c5.464 2.326 10.913 4.726 16.435 6.875 2.651 1.045 3.653 2.783 4.198 5.536 1.237 6.271.235 12.293-1.237 18.329-1.105 4.593-3.152 6.227-7.806 6.978-1.37.22-2.754 1.03-3.888 1.914-1.016.795-1.959 1.708-2.901 2.606 11.252 4.785 22.9 10.114 34.52 16.076 5.568 2.871 10.486 6.449 14.625 10.704l3.814 3.945v18.889h91.191c-2.577-17.225-13.077-27.443-28.939-33.317-10.338-3.813-20.47-8.23-30.53-12.779-2.871-1.34-4.992-4.18-7.57-6.153-1.133-.87-2.532-1.679-3.858-1.93-4.683-.735-6.73-2.399-7.835-6.992-1.443-6.036-2.503-12.058-1.237-18.315.56-2.738 1.547-4.475 4.198-5.535 5.552-2.135 10.957-4.55 16.435-6.875 4.11-1.738 4.33-3.15 2.872-7.39-4.713-13.31-8.203-26.884-9.337-41.12-.736-8.995-.5-18.182-2.65-27.015h-.34c-.191-.825-.28-1.65-.5-2.444-3.977-15.576-20.663-24.042-34.713-24.94-.132-.014-.235-.044-.338-.044-1.075-.074-2.106.088-3.152.162-5.906.824-10.75 4.564-16.391 6.198-7.305 2.15-11.812 8.878-14.536 16.12-3.859 10.292-3.152 21.275-4.02 31.933-1.135 14.252-4.64 27.796-9.338 41.105-1.531 4.27-1.252 5.727 2.828 7.45v.029zm-224.93 73.14l4.286-4.02c3.888-3.65 8.542-6.875 14.639-10.114l4.285-2.31c6.068-3.27 12.12-6.538 18.365-9.511 3.284-1.561 6.701-2.945 10.074-4.373-.707-1.958-1.414-3.93-2.018-5.918-.795-2.533-1.296-5.08-4.58-5.757-.825-.176-1.826-1.575-1.959-2.532a213.739 213.739 0 0 1-1.487-14.752c-.074-1.015.456-2.4 1.178-3.18 4.3-4.8 6.686-10.379 7.658-16.768.5-3.18 2.298-6.184 3.21-9.305 1.238-4.225 2.254-8.539 3.211-12.823.354-1.546.147-3.21.398-4.8.353-2.31.28-4.107-2.49-4.99-.78-.25-1.398-2.076-1.413-3.21-.147-6.86-.059-13.72-.074-20.596-.058-4.196 0-8.45-.294-12.632-.604-8.067-5.331-13.72-11.252-18.608-8.674-7.126-18.748-13.854-29.66-12.97-.266.014-.486.073-.737.117-.25-.044-.456-.103-.736-.118-10.928-.868-21.016 5.86-29.646 12.97-5.92 4.888-10.648 10.556-11.252 18.61-.294 4.195-.28 8.435-.294 12.631-.03 6.875.059 13.736-.074 20.597-.03 1.133-.663 2.959-1.429 3.209-2.768.883-2.842 2.68-2.474 4.99.25 1.59.044 3.254.398 4.8.957 4.3 1.959 8.583 3.21 12.823.914 3.121 2.71 6.125 3.211 9.305.987 6.39 3.358 11.969 7.673 16.768.707.825 1.237 2.15 1.178 3.18-.339 4.947-.84 9.835-1.502 14.752-.133.942-1.149 2.37-1.959 2.532-3.27.692-3.785 3.21-4.565 5.757-1.016 3.371-2.121 6.728-3.432 9.981-.397.987-1.414 2.047-2.43 2.518-5.817 2.532-11.752 4.843-17.614 7.317-6.23 2.606-12.532 5.108-18.6 8.023-6.318 3.004-12.386 6.39-18.498 9.673-3.637 1.943-7.01 4.078-9.837 6.728v10.777h97.332v-18.742h.074v-.015l-.074-.014z"/><path d="M368.472 355.08c-21.399-10.953-43.534-20.052-65.949-28.65-1.678-.647-3.681-1.913-4.359-3.386-1.811-4.033-3.078-8.303-4.389-12.558-.824-2.708-1.516-5.27-4.52-6.551-.796-.339-1.488-1.929-1.488-2.915.162-9.82-2.106-20.14 5.184-28.738.235-.28.28-.662.471-.957 3.917-8.612 4.64-18.432 10.118-26.456.132-.19.162-.441.191-.691.633-6.11 1.326-12.205 1.812-18.315.058-.765-.604-2.105-1.267-2.34-3.034-1.075-2.872-3.505-2.842-5.934 0-11.94 0-23.88-.03-35.819 0-6.949-2.047-13.117-7.29-17.829-5.964-5.358-12.12-10.555-18.247-15.752-2.975-2.518-3.21-4.432-.442-7.2 1.237-1.207 2.813-2.075 4.198-3.091-.28-.471-.604-.928-.884-1.399-1.87 0-3.756-.25-5.552.044-6.79 1.09-13.623 2.047-20.28 3.637-12.724 3.003-25.095 6.978-35.448 15.488-7.055 5.844-12.68 12.616-13.417 22.2-.339 5.036-.294 10.085-.339 15.12-.044 8.2.074 16.416-.103 24.601-.03 1.34-.81 3.519-1.708 3.828-3.314 1.075-3.402 3.195-2.975 5.962.31 1.9.074 3.887.486 5.742 1.149 5.123 2.371 10.262 3.844 15.297 1.104 3.754 3.24 7.302 3.844 11.13 1.178 7.626 4.006 14.295 9.175 20.036.84.943 1.487 2.547 1.399 3.814a251.49 251.49 0 0 1-1.812 17.593c-.176 1.148-1.37 2.84-2.356 3.047-3.903.84-4.506 3.828-5.42 6.86-1.237 4.02-2.533 8.039-4.123 11.926-.471 1.207-1.694 2.488-2.887 3.003-6.966 3.047-14.02 5.83-21.03 8.73-7.467 3.121-14.963 6.125-22.209 9.584-7.51 3.593-14.786 7.597-22.106 11.543-4.3 2.282-8.365 4.843-11.737 8.053v12.852h255.547v-13.397c-3.137-3.239-6.818-5.933-11.09-8.112h.03z"/></g></svg>