<svg width="512" height="512" xmlns="http://www.w3.org/2000/svg"><g fill-rule="evenodd"><path d="M339.333 380.633v-22.777c30.414-17.142 55.223-59.905 55.223-102.655 0-68.662 0-124.312-82.834-124.312-82.833 0-82.833 55.65-82.833 124.312 0 42.764 24.808 85.513 55.222 102.655v22.777C190.454 388.299 118.444 434.336 118.444 490H505c0-55.664-72.01-101.715-165.667-109.367z"/><path d="M149.162 391.296c23.856-15.608 53.524-27.473 86.188-34.71-6.489-7.68-12.384-16.244-17.464-25.471-13.115-23.84-20.06-50.098-20.06-75.928 0-37.141 0-72.211 13.198-100.9 12.812-27.846 35.867-45.098 68.697-51.576C272.418 69.7 252.993 48 201.278 48c-82.834 0-82.834 55.65-82.834 124.313 0 42.763 24.809 85.513 55.223 102.654v22.777C80.01 305.41 8 351.447 8 407.11h120.37c6.268-5.566 13.199-10.87 20.792-15.829v.014z"/></g></svg>