<svg width="512" height="512" xmlns="http://www.w3.org/2000/svg"><path d="M260.704 35.03c17.182.427 30.775 10.532 31.462 39.354.137-.046.29-.107.412-.061 2.245.366 3.59 3.75 2.963 7.422-.61 3.597-2.78 6.143-4.933 6.036-4.704 17.436-18.831 30.33-30.347 30.848-12.63-.259-25.108-13.351-29.934-30.848-.092.03-.153.091-.214.122-2.276.366-4.582-2.317-5.193-6.051-.641-3.734.672-7.072 2.902-7.468.198-.046.351.076.489.137-1.024-27.023 14.784-39.4 32.393-39.49zm23.276 88.538l-16.021 31.64-2.52-20.545 3.94-3.261h-9.56l-8.783.03 3.956 3.231-2.49 20.591-16.082-31.61c-27.903 3.84-47.91 15.912-47.864 45.084l143.35-.168c0-29.218-20.038-41.212-47.911-44.992h-.015zm-140.296 105.15c-.168 0-.35-.107-.488-.061-2.23.366-3.544 3.704-2.902 7.392.61 3.78 2.963 6.478 5.193 6.05.06 0 .137-.06.213-.106 4.827 17.467 17.304 30.529 29.935 30.864 11.5-.564 25.643-13.473 30.347-30.864 2.169.137 4.322-2.454 4.933-6.02.626-3.734-.718-7.072-2.963-7.438-.153-.03-.305.061-.412.107-.672-28.883-14.265-38.972-31.462-39.384-17.61.137-33.447 12.498-32.394 39.445v.015zm55.67 49.108l-16.037 31.61-2.535-20.545 3.955-3.231h-18.373l3.971 3.277-2.49 20.545-16.081-31.58c-27.873 3.84-47.88 15.866-47.835 45.084l143.35-.153c-.03-29.217-20.053-41.227-47.926-44.992v-.015zm113.598-49.108c-.153 0-.336-.107-.489-.061-2.214.366-3.528 3.704-2.902 7.392.627 3.78 2.963 6.478 5.208 6.05.062 0 .138-.06.214-.106 4.826 17.467 17.304 30.529 29.95 30.864 11.5-.564 25.628-13.473 30.332-30.864 2.168.137 4.322-2.454 4.948-6.02.611-3.734-.718-7.072-2.963-7.438-.168-.03-.305.061-.427.107-.672-28.883-14.28-38.972-31.447-39.384-17.64.137-33.478 12.498-32.424 39.445v.015zm55.67 49.108l-16.022 31.61-2.55-20.545 3.97-3.231h-18.388l3.97 3.277-2.473 20.545-16.098-31.58c-27.872 3.84-47.88 15.866-47.834 45.084l143.35-.153c-.03-29.217-20.053-41.227-47.926-44.992v-.015zM60.814 396.114c.06 0 .152-.061.229-.091 4.826 17.466 17.304 30.543 29.95 30.848 11.485-.564 25.642-13.443 30.331-30.848 2.169.137 4.322-2.454 4.948-6.036.611-3.734-.717-7.057-2.978-7.453-.137-.046-.26.06-.397.107-.672-28.868-14.25-38.942-31.431-39.369-17.67.107-33.478 12.468-32.424 39.43-.153 0-.32-.122-.474-.092-2.245.396-3.558 3.734-2.917 7.423.611 3.764 2.948 6.462 5.178 6.066l-.015.015zm53.912 35.695l-16.051 31.61-2.52-20.544 3.94-3.232H81.753l3.956 3.277-2.505 20.546-16.067-31.58c-27.918 3.84-47.91 15.866-47.88 45.084l143.366-.168c0-29.218-20.038-41.213-47.911-44.993h.015zm115.37-35.695c.062 0 .153-.061.23-.091 4.826 17.466 17.304 30.543 29.934 30.848 11.5-.564 25.643-13.443 30.347-30.848 2.169.137 4.322-2.454 4.933-6.036.626-3.734-.702-7.057-2.963-7.453-.137-.046-.275.06-.397.107-.687-28.868-14.265-38.942-31.446-39.369-17.656.107-33.463 12.468-32.424 39.43-.153 0-.336-.122-.49-.092-2.229.396-3.558 3.734-2.916 7.423.626 3.764 2.963 6.462 5.177 6.066l.015.015zm53.883 35.695l-16.021 31.61-2.52-20.544 3.94-3.232h-18.343l3.956 3.277-2.49 20.546-16.082-31.58c-27.903 3.84-47.91 15.866-47.864 45.084l143.35-.168c0-29.218-20.038-41.213-47.911-44.993h-.015zm115.4-35.695c.061 0 .138-.061.23-.091 4.826 17.466 17.303 30.543 29.934 30.848 11.5-.564 25.643-13.443 30.347-30.848 2.169.137 4.322-2.454 4.933-6.036.626-3.734-.718-7.057-2.963-7.453-.137-.046-.305.06-.412.107-.672-28.868-14.265-38.942-31.432-39.369-17.655.107-33.462 12.468-32.424 39.43-.168 0-.32-.122-.488-.092-2.23.396-3.544 3.734-2.902 7.423.61 3.764 2.948 6.462 5.177 6.066v.015zm53.883 35.695l-16.022 31.61-2.52-20.544 3.94-3.232h-18.357l3.956 3.277-2.49 20.546-16.082-31.58c-27.903 3.84-47.91 15.866-47.865 45.084l143.35-.168c0-29.218-20.038-41.213-47.91-44.993z" fill="#444" fill-rule="evenodd"/></svg>