<svg width="512" height="512" xmlns="http://www.w3.org/2000/svg"><path d="M479 256.5C479 133.818 379.182 34 256.5 34S34 133.818 34 256.5c0 64.8 27.865 123.208 72.22 163.906l-.21.186 7.216 6.084c.47.397.98.72 1.448 1.109 3.836 3.18 7.808 6.197 11.854 9.118a230.84 230.84 0 0 0 3.956 2.816 226.59 226.59 0 0 0 13.285 8.479c.987.582 1.983 1.149 2.978 1.715 4.96 2.824 10.024 5.486 15.21 7.93.381.177.77.34 1.15.517a220.497 220.497 0 0 0 53.812 17.031 221.97 221.97 0 0 0 19.265 2.63c.728.065 1.456.105 2.192.17 5.971.493 12.007.809 18.124.809 6.06 0 12.04-.316 17.978-.793.752-.065 1.505-.105 2.257-.17a224.992 224.992 0 0 0 17.622-2.322c.502-.089 1.012-.178 1.513-.275a220.487 220.487 0 0 0 53.052-16.627c.615-.283 1.238-.55 1.853-.841a223.624 223.624 0 0 0 18.205-9.62c4.353-2.565 8.633-5.243 12.792-8.091 1.496-1.02 2.96-2.096 4.441-3.164a221.473 221.473 0 0 0 10.43-7.953c.752-.607 1.561-1.133 2.297-1.756l7.404-6.181-.219-.186C450.868 380.307 479 321.63 479 256.5zm-428.818 0c0-113.766 92.552-206.318 206.318-206.318S462.818 142.734 462.818 256.5c0 61.305-26.902 116.42-69.493 154.237-2.378-1.642-4.773-3.115-7.225-4.345l-68.506-34.249c-6.149-3.074-9.968-9.256-9.968-16.125v-23.925a133.183 133.183 0 0 0 4.993-6.61c8.867-12.525 15.98-26.457 21.165-41.45 10.252-4.87 16.87-15.081 16.87-26.61V228.74c0-7.015-2.573-13.82-7.177-19.167v-37.76c.421-4.2 1.91-27.898-15.235-47.446-14.911-17.023-39.047-25.64-71.742-25.64-32.695 0-56.83 8.617-71.742 25.632-17.145 19.548-15.656 43.246-15.235 47.445v37.76c-4.596 5.349-7.177 12.153-7.177 19.168v28.682c0 8.908 3.997 17.218 10.842 22.825 6.554 25.672 20.041 45.107 25.025 51.693v23.415c0 6.602-3.6 12.67-9.402 15.842l-63.974 34.896c-2.04 1.108-4.062 2.403-6.085 3.851-42.064-37.8-68.57-92.576-68.57-153.436zm327.35 166.932a206.888 206.888 0 0 1-8.633 5.946c-1.343.874-2.678 1.748-4.046 2.598a203.413 203.413 0 0 1-11.667 6.715c-.873.461-1.755.898-2.637 1.351-9.11 4.669-18.537 8.682-28.221 11.942-.34.114-.68.235-1.028.348a206.93 206.93 0 0 1-15.405 4.467c-.016 0-.032.008-.049.008a207.044 207.044 0 0 1-15.89 3.252c-.146.024-.291.057-.437.081-5.024.817-10.09 1.408-15.17 1.853-.899.08-1.797.137-2.703.202-5.024.38-10.073.623-15.146.623-5.13 0-10.243-.25-15.332-.63-.882-.066-1.764-.122-2.638-.203-5.13-.453-10.235-1.06-15.292-1.885l-.68-.122a205.548 205.548 0 0 1-31.473-7.856c-.316-.105-.64-.218-.955-.324a209.227 209.227 0 0 1-15.065-5.768c-.032-.017-.073-.033-.105-.049-4.677-2.015-9.264-4.248-13.795-6.602-.59-.308-1.19-.599-1.772-.914-4.135-2.21-8.18-4.596-12.169-7.088a260.662 260.662 0 0 1-3.52-2.257c-3.673-2.403-7.297-4.904-10.825-7.55-.364-.274-.712-.566-1.076-.84l.777-.438 63.974-34.896a34.215 34.215 0 0 0 17.84-30.05l-.007-29.143-1.861-2.25c-.178-.201-17.67-21.48-24.28-50.292l-.737-3.204-2.76-1.788c-3.89-2.517-6.221-6.724-6.221-11.263v-28.682c0-3.762 1.594-7.266 4.507-9.895l2.67-2.411V171.35l-.073-1.06c-.025-.194-2.411-19.652 11.295-35.276 11.7-13.334 31.748-20.106 59.573-20.106 27.72 0 47.704 6.716 59.436 19.952 13.69 15.462 11.448 35.285 11.432 35.447l-.073 46.126 2.67 2.41c2.905 2.622 4.507 6.134 4.507 9.896v28.682c0 5.77-3.924 11.004-9.555 12.744l-4.021 1.237-1.295 4.005c-4.774 14.831-11.57 28.529-20.195 40.714-2.12 2.994-4.183 5.647-5.955 7.678l-2.006 2.29v29.928c0 13.043 7.25 24.775 18.916 30.6l68.506 34.249c.437.218.866.445 1.294.671-.865.656-1.755 1.263-2.63 1.894z" fill-rule="evenodd"/></svg>