<svg width="512" height="512" xmlns="http://www.w3.org/2000/svg"><g fill-rule="evenodd"><path d="M321.9 275.946c4.12-6.51 24.833-40.04 27.595-60.599a15.096 15.096 0 0 0-.88-7.444c-2.87-7.426-24.195-50.534-49.512-62.688-.02-.013-19.72-9.151-19.72-9.151l-8.592-7.259-13.259 13.207 13.004 87.01c.044.293-.03.59-.203.829l-13.257 18.158a1.122 1.122 0 0 1-1.81 0l-13.258-18.158a1.122 1.122 0 0 1-.203-.829L254.811 142l-13.246-13.194-8.596 7.258s-19.59 8.963-20.08 9.198c-25.312 12.154-46.637 55.261-49.507 62.688a15.143 15.143 0 0 0-.882 7.445c2.761 20.559 23.474 54.088 27.597 60.6a15.05 15.05 0 0 0 12.736 7.004c2.624 0 5.278-.696 7.684-2.13 1.213 3.406 2.94 6.578 5.065 9.487l.009 168.397c.002 10.1 8.185 18.286 18.274 18.285 10.096 0 18.275-8.187 18.273-18.287l.195-148.434a45.68 45.68 0 0 0 3.84.172c1.222 0 2.459-.06 3.698-.163l-.004 148.426c0 10.1 8.179 18.286 18.271 18.286 10.09 0 18.272-8.186 18.272-18.285l.003-167.922c2.258-2.999 4.096-6.286 5.368-9.83a14.97 14.97 0 0 0 7.38 1.952 15.053 15.053 0 0 0 12.738-7.006zm-65.725-147.74c22.026 0 38.47-20.546 38.843-54.99C295.256 49.305 283.88 35 256.175 35c-27.71 0-39.085 14.307-38.85 38.215.378 34.445 16.812 54.99 38.85 54.99z"/><path d="M447.709 256.821c-2.35-6.075-19.798-41.349-40.514-51.293-.018-.01-16.135-7.488-16.135-7.488l-7.033-5.938-11.005 10.962c.001.006.005.01.006.017l9.845 73.233a.817.817 0 0 1-.147.604l-9.676 13.255a.818.818 0 0 1-1.321 0l-9.677-13.255a.818.818 0 0 1-.148-.604l9.173-73.234c.004-.018.014-.032.018-.048l-10.974-10.93-3.59 3.03c2.464 4.935 3.81 8.09 3.858 8.216a27.776 27.776 0 0 1 1.616 13.69c-2.95 21.974-22.244 54.217-28.923 64.848l-2.413 3.447c-5.23 6.469-13.054 10.25-21.505 10.25h-.125v1.649a281.616 281.616 0 0 0 8.967 15.306 12.312 12.312 0 0 0 10.422 5.73c2.147 0 4.318-.569 6.29-1.741.99 2.786 2.403 5.383 4.14 7.762l.01 137.79c0 8.265 6.697 14.962 14.951 14.961 8.262 0 14.953-6.699 14.95-14.963l.162-121.454c1.055.088 2.104.14 3.14.14 1.001 0 2.013-.05 3.024-.133l-.002 121.448c0 8.265 6.691 14.962 14.952 14.962 8.255 0 14.947-6.698 14.947-14.961l.003-137.401c1.848-2.454 3.352-5.144 4.394-8.042a12.234 12.234 0 0 0 6.036 1.597 12.32 12.32 0 0 0 10.422-5.733c3.373-5.329 20.32-32.763 22.58-49.586.28-2.058.031-4.154-.718-6.093zm-36.644 32.316l.006-46.723c5.113 7.013 9.743 14.898 12.281 20.2-1.896 6.771-7.113 17.325-12.287 26.523zM372.07 191.61c18.024 0 31.478-16.812 31.784-44.997.193-19.562-9.111-31.269-31.784-31.269-22.675 0-31.982 11.707-31.787 31.269.309 28.185 13.757 44.997 31.787 44.997zM181.3 285.346l-2.089-2.95c-6.393-10.13-26.22-42.99-29.22-65.315a27.842 27.842 0 0 1 1.621-13.681c.047-.13 1.43-3.371 3.96-8.425l-3.4-2.871-11.016 10.974.001.004 9.845 73.234a.813.813 0 0 1-.148.604l-9.676 13.255a.816.816 0 0 1-1.321 0l-9.677-13.255a.817.817 0 0 1-.148-.604l9.173-73.234c.003-.022.016-.038.02-.06l-10.96-10.92-7.035 5.94s-16.03 7.333-16.43 7.525c-20.712 9.945-38.16 45.217-40.51 51.294a12.382 12.382 0 0 0-.72 6.09c2.26 16.823 19.206 44.26 22.581 49.588a12.315 12.315 0 0 0 10.422 5.73c2.147 0 4.318-.57 6.288-1.742.992 2.786 2.402 5.382 4.143 7.762l.008 137.79c0 8.265 6.697 14.962 14.953 14.961 8.26 0 14.951-6.699 14.95-14.963l.161-121.454c1.053.088 2.105.14 3.142.14 1 0 2.01-.05 3.023-.134l-.003 121.448c0 8.265 6.692 14.962 14.95 14.962 8.257 0 14.952-6.698 14.952-14.961l.002-137.401c1.849-2.455 3.352-5.144 4.393-8.042a12.245 12.245 0 0 0 6.037 1.597c4.081 0 8.075-2.03 10.424-5.732a282.279 282.279 0 0 0 8.967-15.306v-1.564h-.13c-8.468.001-16.306-3.798-21.533-10.284zm-92.658-22.694c2.588-5.4 7.345-13.487 12.571-20.598l.01 47.643c-5.27-9.312-10.649-20.133-12.58-27.045zm51.573-71.042c18.022 0 31.476-16.812 31.784-44.997.192-19.562-9.113-31.269-31.784-31.269-22.675 0-31.981 11.707-31.787 31.269.308 28.185 13.758 44.997 31.787 44.997z"/></g></svg>