<svg width="512" height="512" xmlns="http://www.w3.org/2000/svg"><g fill-rule="evenodd"><path d="M420.012 302.733c.376 0 .75 0 1.126-.094 5.161-.563 8.915-5.161 8.352-10.322-.563-5.161-5.161-8.915-10.322-8.352-5.162.563-8.915 5.161-8.352 10.322.563 4.786 4.504 8.352 9.196 8.446zm-328.158-.282c.282 0 .563.094.845.094 4.786.094 9.008-3.472 9.478-8.351v-.282c.563-5.161-3.19-9.76-8.352-10.322-5.161-.563-9.76 3.19-10.322 8.351v.282c-.564 5.067 3.19 9.665 8.351 10.228zm75.729-130.906c-3.003-4.223-8.915-5.161-13.138-2.065-4.222 3.003-5.16 8.915-2.064 13.138 1.783 2.534 4.598 3.847 7.507 3.847 1.97 0 3.941-.563 5.63-1.783 4.223-3.096 5.162-9.008 2.065-13.137zm25.712 280.487c-4.692-2.064-10.322 0-12.387 4.786-2.064 4.786 0 10.322 4.786 12.387 1.22.563 2.44.75 3.66.844 3.66.094 7.132-2.064 8.727-5.536 2.064-4.786-.094-10.322-4.786-12.48zm63.06 13.419c-5.16 0-9.383 4.223-9.383 9.384a9.374 9.374 0 0 0 9.196 9.384h.187c5.162 0 9.384-4.223 9.384-9.384 0-5.16-4.128-9.29-9.384-9.384zm63.155-13.325c-4.786 2.065-6.85 7.601-4.786 12.387 1.501 3.472 4.88 5.536 8.445 5.536 1.314 0 2.628-.281 3.942-.844 4.692-2.065 6.85-7.601 4.786-12.387-2.159-4.692-7.695-6.756-12.387-4.692zm79.482-214.518c1.69 0 3.284-.375 4.88-1.314 4.504-2.533 6.005-8.351 3.472-12.856-2.628-4.504-8.352-6.005-12.856-3.472-4.505 2.534-6.006 8.352-3.472 12.856 1.689 3.097 4.785 4.786 7.976 4.786zm-38.005-54.802c3.097-4.223 2.158-10.041-2.065-13.138-4.222-3.097-10.04-2.158-13.137 2.065-3.097 4.222-2.158 10.04 2.064 13.137 1.596 1.22 3.472 1.783 5.35 1.783 3.002.094 5.911-1.22 7.788-3.847zm-251.585 53.019c1.408.845 3.003 1.22 4.505 1.314 3.284.094 6.475-1.595 8.258-4.692 2.627-4.504 1.032-10.229-3.379-12.856a9.37 9.37 0 0 0-12.856 3.378c-2.533 4.504-1.032 10.323 3.472 12.856zm229.158 65.688h-11.73a70.394 70.394 0 0 0-10.792-25.712l8.258-8.352c3.002-3.003 2.909-7.788 0-10.791l-9.103-9.009c-3.003-3.003-7.789-2.909-10.792 0l-8.257 8.352a72.879 72.879 0 0 0-25.806-10.604v-11.73c0-4.223-3.472-7.601-7.695-7.601h-12.856c-4.223 0-7.601 3.472-7.601 7.695v11.73a70.394 70.394 0 0 0-25.712 10.791l-8.352-8.258c-3.003-3.002-7.789-2.909-10.792 0l-9.008 9.103c-3.003 3.003-2.91 7.789 0 10.791l8.351 8.258a72.879 72.879 0 0 0-10.604 25.806h-11.73c-4.222 0-7.6 3.472-7.6 7.695v12.856c0 4.223 3.472 7.601 7.694 7.601h11.73a70.394 70.394 0 0 0 10.792 25.712l-8.258 8.352c-3.003 3.003-2.91 7.789 0 10.792l9.102 9.008c3.003 3.003 7.79 2.91 10.792 0l8.258-8.351a72.879 72.879 0 0 0 25.806 10.603v11.73c0 4.223 3.472 7.601 7.695 7.601h12.856c4.223 0 7.6-3.472 7.6-7.694v-11.73a70.394 70.394 0 0 0 25.713-10.792l8.352 8.258c3.003 3.003 7.788 2.909 10.791 0l9.009-9.103c3.003-3.002 2.909-7.788 0-10.791l-8.352-8.258a72.879 72.879 0 0 0 10.604-25.806h11.73c4.223 0 7.601-3.472 7.601-7.695v-12.856c0-4.223-3.472-7.695-7.695-7.6zm-81.923 48.421c-18.862.094-34.158-15.202-34.252-34.063-.093-18.862 15.203-34.252 34.064-34.252 18.862-.094 34.252 15.202 34.252 34.064 0 18.862-15.202 34.158-34.064 34.251zm17.267-224.84v-6.38s20.175.656 29.747-9.197c0 0-13.889-3.941-11.449-29.278 2.534-25.337-3.096-47.67-23.46-45.7 0 0-8.82-10.604-26.462-3.942-6.006 2.253-22.24 8.07-21.396 43.26.845 35.097-12.48 35.378-12.48 35.378s6.85 9.947 30.122 9.76v6.568l17.736 51.706 17.642-51.612v-.563z"/><path d="M193.389 180.647H319.04c1.502 0 2.628-1.313 2.346-2.815l-3.565-19.612c-1.126-6.381-5.255-11.824-11.074-14.733l-22.24-10.98a48.02 48.02 0 0 1-3.753-2.064l7.038 20.739-9.853-.751-21.677 26.65-21.677-26.65-9.854.75 7.132-20.738-4.504 2.252-21.77 10.698c-5.819 2.909-9.948 8.352-11.074 14.733l-3.566 19.612c-.094 1.596 1.032 2.91 2.44 2.91zm243.608 238.729v-6.381s20.176.657 29.747-9.196c0 0-13.888-3.942-11.448-29.279 2.534-25.336-3.097-47.67-23.46-45.7 0 0-8.821-10.603-26.463-3.94-6.006 2.251-22.24 8.07-21.395 43.26.844 35.095-12.481 35.377-12.481 35.377s6.85 9.947 30.123 9.76v6.568l17.735 51.706 17.642-51.612v-.563z"/><path d="M484.574 472.208l-3.566-19.613c-1.126-6.38-5.255-11.824-11.073-14.733l-22.24-10.979a48.02 48.02 0 0 1-3.754-2.064l7.038 20.738-9.853-.75-21.677 26.65-21.677-26.65-9.853.75 7.132-20.738-4.505 2.252-21.77 10.698c-5.818 2.909-9.947 8.351-11.073 14.732l-3.566 19.613c-.282 1.408.844 2.815 2.346 2.815h125.651c1.595.094 2.721-1.314 2.44-2.721zm-373.576-52.832v-6.381s20.175.657 29.747-9.196c0 0-13.888-3.942-11.449-29.279 2.534-25.336-3.096-47.67-23.46-45.7 0 0-8.82-10.603-26.462-3.94-6.006 2.251-22.24 8.07-21.396 43.26.845 35.095-12.48 35.377-12.48 35.377s6.85 9.947 30.122 9.76v6.568l17.736 51.706 17.642-51.612v-.563z"/><path d="M154.915 452.501c-1.126-6.38-5.255-11.823-11.073-14.732l-22.24-10.98a48.02 48.02 0 0 1-3.754-2.064l7.038 20.738-9.853-.75-21.677 26.65-21.677-26.65-9.853.75 7.131-20.738-4.504 2.252-21.77 10.698c-5.819 2.909-9.948 8.351-11.074 14.733l-3.566 19.612c-.281 1.408.845 2.815 2.346 2.815h125.652c1.501 0 2.627-1.313 2.346-2.815l-3.472-19.519z"/></g></svg>