<svg width="512" height="512" xmlns="http://www.w3.org/2000/svg"><path d="M377.578 440.582s-.282 5.081-10.473 11.522c0 0-70.104 29.375-166.462 27.327 0 0-93.821-4.72-153.67-31.376 0 0-8.423-2.016-8.768-21.62 0 0 3.053-85.718 29.072-124.223 0 0 7.452-10.115 25.048-16.9 0 0 60.147-18.181 64.202-33.737 0 0 44.43 114.812 102.901-.297 0 0 .204 10.444 29.933 20.918 0 0 55.764 17.556 64.922 37.817 0 0 30.387 69.146 23.295 130.585v-.015zm-135.386-46.806h-67.505v25.576h67.505v-25.576zm40.782-215.224c-1.127 7.317-4.243 10.506-6.074 11.866-4.932 35.05-36.57 75.353-69.791 75.353-28.947 0-60.867-38.333-65.313-75.337-1.863-1.376-4.932-4.55-6.106-11.882 0 0-7.671-27.436 3.554-22.137-7.937-41.725-1.942-55.889-1.942-55.889 10.176-31.391 45.166-46.587 45.166-46.587 7.765-8.473 7.89-5.628 7.248-3.127 2.239-2.689 4.29-4.299 4.29-4.299-2.036 2.189-3.554 4.346-4.697 6.504l3.851 1.954c2.27-3.705 4.853-6.02 4.853-6.02-1.753 2.205-3.084 4.331-4.007 6.442l1.894.938c2.035-7.254 7.984-11.366 10.598-12.788 3.35-4.05 7.045-5.94 7.045-5.94-3.49 2.954-5.62 6.58-6.92 10.489 3.257-4.721 8.846-7.332 8.846-7.332 0 8.364 8.892 15.883 13.307 19.12-.971-2.11-1.66-3.408-1.66-3.408 1.675 1.72 3.006 3.408 4.086 5.065l1.894.437c-1.722-2.485-3.209-4.002-3.209-4.002a91.864 91.864 0 0 1 4.43 4.284c1.503.36 2.881.703 4.29 1.079-.83-1.08-1.346-1.704-1.346-1.704a29.251 29.251 0 0 1 2.661 2.11c23.984 7.16 33.862 20.573 33.862 20.573 21.056 23.7 10.176 61.799 6.873 71.57 9.456-2.72 2.348 22.668 2.348 22.668h-.031zM200.314 53.36l1.253.5c.689-3.595 2.192-6.565 3.867-8.926-2.552 2.501-4.164 5.378-5.12 8.426zm270.6 130.32H410.11v60.72h-20.258v-60.72h-60.805v-20.245h60.805V102.73h20.258v60.704h60.804v20.245z" fill="#444" fill-rule="evenodd"/></svg>