<svg width="512" height="512" xmlns="http://www.w3.org/2000/svg"><path d="M172.344 97.868c.099-3.246.39-13.126 7.904-15.97 7.428-2.793 14.614 4.387 15.983 5.855a6.194 6.194 0 0 1-.298 8.752c-2.484 2.323-6.405 2.206-8.734-.272-.595-.626-1.388-1.282-2.1-1.784-.161.842-.322 2.063-.372 3.779-.44 14.934 11.206 19.469 11.324 19.512a6.201 6.201 0 0 1 4.002 5.284c3.426 40.766 35.49 53.947 50.488 53.947 14.997 0 47.068-13.188 50.481-53.947a6.181 6.181 0 0 1 4.002-5.284c1.158-.458 11.758-5.092 11.33-19.512-.05-1.723-.204-2.943-.371-3.785a14.617 14.617 0 0 0-2.107 1.79c-2.36 2.478-6.275 2.583-8.747.248a6.187 6.187 0 0 1-.285-8.728c1.382-1.468 8.617-8.642 15.99-5.854 7.52 2.837 7.81 12.723 7.904 15.97.514 17.591-9.962 26.245-15.735 29.664-5.241 42.618-39.275 61.84-62.469 61.84-23.193 0-57.227-19.222-62.474-61.84-5.755-3.419-16.23-12.066-15.716-29.665zm78.203 115.21s13.17-2.91 13.17-14.655h-26.34c-.007 11.744 13.17 14.656 13.17 14.656zm-.353 115.632l25.733-20.906c-2.701-13.43-14.992-93.418-15.884-94.725-5.104 3.493-9.496 3.964-9.496 3.964s-4.392-.477-9.497-3.964c-.892 1.307-13.182 81.302-15.883 94.725l25.027 20.906zm43.58-231.728a4.644 4.644 0 0 1 4.646 4.726c-.08 4.3-.817 18.727-7.142 23.874-4.04 3.283-10.352 5.321-16.46 5.321-5.842 0-10.754-1.852-13.827-5.216-3.314-3.636-5.513-11.218-6.77-16.88h-7.335c-1.258 5.656-3.457 13.244-6.771 16.88-3.073 3.364-7.985 5.216-13.827 5.216-6.108 0-12.42-2.038-16.453-5.32-6.332-5.142-7.075-19.57-7.15-23.874a4.66 4.66 0 0 1 1.333-3.339 4.67 4.67 0 0 1 3.314-1.388h36.208a4.64 4.64 0 0 1 3.525 1.623c.23.267.329.601.49.91h6.009c.16-.309.26-.643.49-.91a4.66 4.66 0 0 1 3.524-1.623h36.196zm-55.858 9.292h-25.66c.564 5.439 1.847 10.822 3.42 12.098 4.3 3.487 14.707 4.187 17.569 1.047 1.71-1.883 3.494-7.787 4.67-13.145zm50.915 0h-25.66c1.184 5.358 2.962 11.268 4.672 13.145 2.862 3.14 13.281 2.44 17.574-1.047 1.53-1.251 2.838-6.653 3.414-12.098zm11.423-31.028a6.19 6.19 0 0 0 6.182 6.653 6.19 6.19 0 0 0 6.17-5.736c1.48-19.878-11.739-28.711-12.296-29.077-2.844-1.852-6.585-1.04-8.481 1.772-1.89 2.812-1.127 6.64 1.66 8.567.31.223 7.682 5.482 6.765 17.821zM198.82 84.488a6.193 6.193 0 0 0 6.195-6.194c0-29.244 23.559-30.657 26.13-30.718h53.021a6.193 6.193 0 0 0 6.195-6.195c0-3.42-2.77-6.194-6.195-6.194h-53.102c-13.294.18-38.432 9.415-38.432 43.107a6.188 6.188 0 0 0 6.188 6.194zM81.837 315.132c5.247 42.618 39.282 61.84 62.475 61.84 23.193 0 57.228-19.222 62.468-61.84 5.774-3.413 16.25-12.067 15.735-29.665-.099-3.246-.39-13.126-7.904-15.97-7.372-2.78-14.614 4.386-15.99 5.854-2.328 2.49-2.192 6.387.286 8.728 2.472 2.342 6.387 2.23 8.747-.247a14.617 14.617 0 0 1 2.106-1.79c.161.842.322 2.062.372 3.784.427 14.42-10.178 19.054-11.33 19.513a6.201 6.201 0 0 0-4.002 5.284c-3.42 40.765-35.49 53.947-50.482 53.947-14.991 0-47.068-13.188-50.487-53.947a6.181 6.181 0 0 0-4.002-5.284c-.124-.044-11.764-4.578-11.324-19.513.05-1.722.204-2.942.371-3.778.713.501 1.5 1.152 2.082 1.765 2.348 2.509 6.275 2.626 8.753.297a6.193 6.193 0 0 0 .297-8.752c-1.369-1.468-8.567-8.66-15.982-5.854-7.52 2.837-7.812 12.717-7.905 15.97-.526 17.591 9.95 26.245 15.716 29.658zm49.12 70.896c0 11.744 12.946 14.656 12.946 14.656s12.947-2.912 12.947-14.656h-25.894zm-6.388-2.633c-1.443-3.097-5.148-4.441-8.239-2.973l-13.467 6.324-1.22-22.318c-.18-3.42-3.123-6.015-6.524-5.848a6.185 6.185 0 0 0-5.842 6.523l.26 4.794C73.637 375.924 18 401.96 18 471.06c0 3.42 2.77 6.194 6.195 6.194a6.193 6.193 0 0 0 6.195-6.194c0-57.751 42.719-81.154 59.86-88.222l.756 13.746a6.2 6.2 0 0 0 6.182 5.86c.898 0 1.797-.192 2.633-.589l21.78-10.22a6.194 6.194 0 0 0 2.968-8.24zm32.814-178.778a6.175 6.175 0 0 0 4.547-1.988c10.841-11.726 24.228-20.504 38.718-25.379a6.19 6.19 0 0 0 3.89-7.848 6.184 6.184 0 0 0-7.849-3.897c-16.44 5.538-31.612 15.462-43.86 28.705a6.198 6.198 0 0 0 .348 8.76 6.18 6.18 0 0 0 4.206 1.647zm-85.098 247.74a6.193 6.193 0 0 0-6.195 6.195v12.507c0 3.42 2.77 6.194 6.195 6.194a6.193 6.193 0 0 0 6.195-6.194v-12.507a6.197 6.197 0 0 0-6.195-6.194zm144.048 0a6.193 6.193 0 0 0-6.195 6.195v12.507c0 3.42 2.77 6.194 6.195 6.194a6.193 6.193 0 0 0 6.195-6.194v-12.507a6.197 6.197 0 0 0-6.195-6.194zm-17.959-82.46l.26-4.794a6.193 6.193 0 0 0-5.841-6.523c-3.401-.155-6.338 2.434-6.524 5.848l-1.22 22.318-13.467-6.324a6.182 6.182 0 0 0-8.24 2.973 6.196 6.196 0 0 0 2.974 8.239l21.781 10.22a6.23 6.23 0 0 0 2.633.589 6.15 6.15 0 0 0 3.178-.88 6.177 6.177 0 0 0 3.004-4.98l.756-13.746c17.141 7.068 59.86 30.465 59.86 88.222 0 3.42 2.77 6.194 6.195 6.194a6.193 6.193 0 0 0 6.195-6.194c-.006-69.1-55.642-95.135-71.544-101.162zM88.484 265.46a6.2 6.2 0 0 0 7.05-5.203c.936-6.22 3.414-11.9 7.155-16.422a6.193 6.193 0 0 0-.824-8.722 6.199 6.199 0 0 0-8.722.824c-5.179 6.257-8.592 14.03-9.868 22.48a6.2 6.2 0 0 0 5.21 7.043zm23.324-27.218h50.68c2.546.061 24.897 1.418 24.897 29.175a6.193 6.193 0 0 0 6.194 6.195 6.193 6.193 0 0 0 6.195-6.195c0-32.483-24.259-41.39-37.169-41.564h-50.79a6.193 6.193 0 0 0-6.196 6.194 6.188 6.188 0 0 0 6.189 6.195zm4.919-17.153h50.072c1.289-.012 31.569.13 35.156 30.817a6.196 6.196 0 0 0 6.87 5.433 6.192 6.192 0 0 0 5.433-6.87c-3.928-33.567-32.913-41.967-47.533-41.763h-49.998a6.193 6.193 0 0 0-6.195 6.195 6.187 6.187 0 0 0 6.195 6.188zm168.858 177.31a6.193 6.193 0 0 0-6.195 6.194V470.8a6.193 6.193 0 0 0 6.195 6.194 6.193 6.193 0 0 0 6.194-6.194v-66.207a6.193 6.193 0 0 0-6.194-6.194zm155.396 0a6.193 6.193 0 0 0-6.195 6.194V470.8a6.193 6.193 0 0 0 6.195 6.194 6.193 6.193 0 0 0 6.195-6.194v-66.207a6.193 6.193 0 0 0-6.195-6.194zm-77.354-256.376h.025c32.621 0 61.093 24.883 67.133 57.596 1.034.037 2.087.192 3.153.589 7.52 2.837 7.811 12.717 7.904 15.969.515 17.592-9.96 26.246-15.728 29.665-5.247 42.618-39.281 61.84-62.475 61.84-23.193 0-57.227-19.222-62.474-61.84-5.768-3.413-16.243-12.067-15.73-29.665.1-3.246.391-13.126 7.906-15.97 1.065-.402 2.118-.55 3.153-.588 6.04-32.706 34.517-57.596 67.133-57.596zm-55.425 62.936c.495.464.91.867 1.133 1.102 2.336 2.497 2.2 6.418-.297 8.76-2.484 2.328-6.405 2.21-8.753-.292-.582-.613-1.375-1.27-2.088-1.771-.16.842-.322 2.062-.371 3.784-.44 14.935 11.206 19.47 11.324 19.513a6.201 6.201 0 0 1 4.001 5.284c3.426 40.765 35.49 53.947 50.488 53.947 14.998 0 47.068-13.188 50.488-53.947a6.181 6.181 0 0 1 4.002-5.284c1.158-.458 11.751-5.092 11.324-19.513-.05-1.722-.205-2.942-.372-3.778a15.287 15.287 0 0 0-2.1 1.784c-2.36 2.478-6.275 2.583-8.747.248-2.478-2.342-2.614-6.238-.285-8.728.217-.236.632-.645 1.134-1.11-3.692-28.45-27.734-50.54-55.431-50.54h-.019c-27.697-.006-51.745 22.084-55.431 50.54zm14.706 37.612c-7.935-8.758-6.665-22.715-6.603-23.31a4.636 4.636 0 0 1 4.621-4.187h85.439a4.636 4.636 0 0 1 4.621 4.194c.062.588 1.332 14.55-6.61 23.31-4.082 4.51-9.682 6.789-16.651 6.789-7.1 0-12.78-2.323-16.869-6.9-1.53-1.717-2.62-3.637-3.525-5.6h-7.384c-.904 1.963-1.995 3.89-3.525 5.6-4.088 4.577-9.763 6.9-16.868 6.9-6.963-.006-12.563-2.286-16.646-6.796zm41.803-15.002a40.559 40.559 0 0 1-.273-3.21h-1.592a38.41 38.41 0 0 1-.279 3.21h2.144zm9.02-3.203c.192 3.525 1.046 8.555 4.076 11.937 2.28 2.54 5.525 3.772 9.918 3.772 4.274 0 7.464-1.214 9.744-3.717 3.079-3.376 4.002-8.424 4.256-11.992H373.73zm-48.171 0c.241 3.562 1.17 8.616 4.25 11.992 2.279 2.497 5.47 3.717 9.744 3.717 4.404 0 7.65-1.245 9.936-3.797 2.999-3.357 3.853-8.381 4.052-11.906H325.56v-.006zm163.679 177.396v69.23a6.193 6.193 0 0 1-6.195 6.194 6.193 6.193 0 0 1-6.195-6.194v-69.23c0-37.117-16.986-60.11-33.29-73.689-28.014 29.182-54.887 44.012-79.92 44.012-25.225 0-52.327-15.059-80.576-44.693-17.345 14.303-28.96 34.627-32.052 57.695-.452 3.388-3.568 5.742-6.963 5.315a6.191 6.191 0 0 1-5.315-6.963c5.266-39.223 32.114-71.496 70.07-84.226a6.19 6.19 0 0 1 6.69 1.865c.248.291 25.015 29.064 48.152 29.064 23.095 0 47.149-28.71 47.39-29.002a6.184 6.184 0 0 1 6.56-1.982c.707.217 71.644 22.48 71.644 102.604zm-55.803-81.122c-6.542-4.194-12.29-6.857-15.79-8.276-7.868 8.505-30.237 30.18-54.007 30.18-23.819 0-46.721-21.799-54.681-30.217a93.331 93.331 0 0 0-15.66 7.768c25.33 26.209 48.994 39.613 70.347 39.613 21.187-.006 44.671-13.237 69.791-39.068zM127.295 439.746l36.202 17.251a11576.26 11576.26 0 0 0-3.624-20.869l-29.289-15.052a7170.476 7170.476 0 0 0-3.29 18.67zm7.279-39.069c-.192.285-.805 3.234-1.648 7.67l24.246 12.462c-1.982-11.075-3.592-19.624-3.933-20.125-5.018 3.493-9.336 3.964-9.336 3.964s-4.311-.477-9.33-3.97zm-12.7 70.382h42.354l-39.126-18.64c-1.4 8.047-2.583 14.954-3.228 18.64zm23.144-183.312v29.231h-7.613a6.193 6.193 0 0 0-6.195 6.195 6.193 6.193 0 0 0 6.195 6.194h13.808a6.193 6.193 0 0 0 6.195-6.194v-35.426c0-3.42-2.77-6.195-6.195-6.195a6.189 6.189 0 0 0-6.195 6.195z" fill="#231F20" fill-rule="evenodd"/></svg>