<svg width="512" height="512" xmlns="http://www.w3.org/2000/svg"><path d="M476 256c0-121.304-98.696-220-220-220S36 134.696 36 256c0 64.072 27.552 121.824 71.408 162.064l-.208.184 7.136 6.016c.464.392.968.712 1.432 1.096 3.792 3.144 7.72 6.128 11.72 9.016 1.296.936 2.592 1.872 3.912 2.784a224.044 224.044 0 0 0 13.136 8.384c.976.576 1.96 1.136 2.944 1.696 4.904 2.792 9.912 5.424 15.04 7.84.376.176.76.336 1.136.512a218.02 218.02 0 0 0 53.208 16.84l1.472.264c5.792 1 11.648 1.8 17.576 2.336.72.064 1.44.104 2.168.168 5.904.488 11.872.8 17.92.8 5.992 0 11.904-.312 17.776-.784.744-.064 1.488-.104 2.232-.168a222.464 222.464 0 0 0 17.424-2.296c.496-.088 1-.176 1.496-.272a218.01 218.01 0 0 0 52.456-16.44c.608-.28 1.224-.544 1.832-.832a221.111 221.111 0 0 0 18-9.512c4.304-2.536 8.536-5.184 12.648-8 1.48-1.008 2.928-2.072 4.392-3.128a218.984 218.984 0 0 0 10.312-7.864c.744-.6 1.544-1.12 2.272-1.736l7.32-6.112-.216-.184C448.184 378.416 476 320.4 476 256zm-424 0c0-112.488 91.512-204 204-204s204 91.512 204 204c0 60.616-26.6 115.112-68.712 152.504-2.352-1.624-4.72-3.08-7.144-4.296l-67.736-33.864c-6.08-3.04-9.856-9.152-9.856-15.944v-23.656a131.687 131.687 0 0 0 4.936-6.536c8.768-12.384 15.8-26.16 20.928-40.984 10.136-4.816 16.68-14.912 16.68-26.312v-28.36c0-6.936-2.544-13.664-7.096-18.952v-37.336c.416-4.16 1.888-27.584-15.064-46.912C312.192 108.52 288.328 100 256 100c-32.328 0-56.192 8.52-70.936 25.344-16.952 19.328-15.48 42.768-15.064 46.912v37.336c-4.544 5.288-7.096 12.016-7.096 18.952v28.36c0 8.808 3.952 17.024 10.72 22.568 6.48 25.384 19.816 44.6 24.744 51.112v23.152c0 6.528-3.56 12.528-9.296 15.664l-63.256 34.504c-2.016 1.096-4.016 2.376-6.016 3.808C78.208 370.336 52 316.176 52 256z" fill-rule="evenodd"/></svg>