<svg width="512" height="512" xmlns="http://www.w3.org/2000/svg"><path d="M494.606 321.712l-6.204-26.75c-1.909-1.956-4.14-3.588-6.742-4.928-12.993-6.668-26.447-12.197-40.055-17.417-1.016-.385-2.232-1.17-2.648-2.049-1.108-2.464-1.878-5.066-2.679-7.638-.492-1.648-.923-3.203-2.724-3.989-.493-.215-.909-1.17-.909-1.77.093-5.976-1.293-12.244 3.14-17.449.14-.17.186-.385.293-.585 2.402-5.22 2.817-11.211 6.158-16.093.092-.108.092-.277.108-.416.384-3.727.785-7.423 1.108-11.134.03-.462-.37-1.278-.77-1.417-1.847-.647-1.74-2.14-1.74-3.619 0-7.253 0-8.316-.015-15.57 0-4.219-1.247-7.976-4.418-10.84-3.633-3.266-7.358-6.423-11.099-9.58-1.8-1.524-1.955-2.695-.261-4.373.754-.74 1.693-1.278 2.57-1.894-.184-.278-.384-.555-.57-.863-1.138 0-2.262-.138-3.37.031-4.126.662-8.267 1.247-12.331 2.202-7.743 1.833-15.255 4.25-21.52 9.44-4.296 3.542-7.713 7.67-8.144 13.49-.216 3.05-.185 6.13-.216 9.18-.03 4.989.047 3.772-.061 8.762-.031.8-.477 2.14-1.047 2.325-2.017.647-2.078 1.94-1.801 3.62.2 1.154.061 2.355.292 3.48.693 3.11 1.447 6.252 2.34 9.317.662 2.279 1.955 4.45 2.325 6.76.708 4.636 2.432 8.67 5.572 12.182.493.585.909 1.555.847 2.325a168.35 168.35 0 0 1-1.108 10.688c-.093.693-.816 1.724-1.417 1.863-2.37.493-2.74 2.31-3.31 4.173-.738 2.434-1.539 4.882-2.478 7.238-.292.74-1.046 1.494-1.755 1.833-4.218 1.833-8.512 3.527-12.761 5.313-4.51 1.894-9.083 3.711-13.516 5.806-4.541 2.187-8.96 4.635-13.424 7.022-2.632 1.402-5.064 2.972-7.112 4.897l-2.832 12.105c-4.942-5.098-15.317-8.455-27.955-8.455-.278 0-.54.016-.816.016l-92.826-124.91c7.174-2.14 11.854-6.052 11.854-10.749 0-1.386-.508-2.68-1.263-3.912l83.05-28.366c3.433 1.355 7.682 2.094 11.962 2.094 9.498 0 19.134-3.45 19.134-10.025 0-9.702-20.72-12.228-31.65-7.639l-2.54-10.918c-.954-.986-2.078-1.802-3.386-2.48-6.543-3.357-13.331-6.144-20.166-8.762-.508-.2-1.124-.586-1.324-1.032-.554-1.248-.955-2.557-1.355-3.85-.246-.832-.462-1.602-1.37-2.018-.246-.107-.462-.585-.462-.893.046-3.003-.646-6.16 1.586-8.793.061-.077.092-.2.138-.293 1.201-2.633 1.401-5.636 3.095-8.1.03-.046.046-.139.061-.2.2-1.88.4-3.743.57-5.606.015-.231-.185-.647-.4-.708-.924-.324-.878-1.063-.863-1.818 0-3.65 0-4.188-.015-7.838 0-2.125-.631-4.004-2.232-5.452a271.953 271.953 0 0 0-5.588-4.82c-.908-.77-.97-1.355-.139-2.202.37-.37.847-.647 1.278-.97a10.516 10.516 0 0 1-.277-.432c-.57 0-1.14-.077-1.693.016-2.079.339-4.172.631-6.204 1.109-3.91.908-7.682 2.14-10.838 4.758-2.155 1.787-3.894 3.866-4.11 6.792-.107 1.54-.092 3.095-.107 4.62-.016 2.51.03 1.894-.031 4.404-.016.4-.247 1.078-.524 1.17-1 .324-1.046.97-.908 1.833.092.585.03 1.186.154 1.756.339 1.57.724 3.141 1.17 4.681.323 1.155.985 2.233 1.17 3.404.354 2.34 1.231 4.373 2.817 6.129.262.292.462.785.431 1.17a78.449 78.449 0 0 1-.554 5.375c-.062.354-.416.862-.708.94-1.201.246-1.37 1.17-1.663 2.094a44.322 44.322 0 0 1-1.247 3.65c-.138.369-.523.754-.877.908-2.14.924-4.295 1.771-6.435 2.68-2.263.97-4.572 1.878-6.789 2.926-2.293 1.108-4.51 2.34-6.757 3.542-1.324.708-2.556 1.493-3.587 2.464l-3.125 13.305c15.209 0 23.152 11.011 38.993 12.366l-5.835-8.054 9.052-24.748-2.802-6.006h5.604l-2.817 6.006 9.051 24.748-5.68 7.854c9.467-1.586 23.506-8.7 33.19-11.211-.955 1.201-1.525 2.572-1.525 4.143 0 1.524.57 2.88 1.478 4.065l-81.911 27.982c-4.464-2.68-11.145-4.374-18.95-4.374-10.283 0-18.673 2.88-22.506 7.192l-3.71-16.031c-1.278-1.325-2.817-2.418-4.557-3.327-8.79-4.512-17.887-8.239-27.078-11.78-.677-.262-1.508-.786-1.8-1.387-.74-1.663-1.263-3.418-1.817-5.159-.323-1.108-.616-2.156-1.847-2.71-.324-.154-.616-.785-.616-1.201.061-4.035-.878-8.285 2.124-11.797.093-.107.123-.261.185-.4 1.616-3.527 1.893-7.577 4.156-10.888.062-.061.062-.185.077-.277.262-2.526.524-5.02.755-7.53.03-.309-.262-.863-.524-.955-1.247-.447-1.185-1.448-1.17-2.449 0-4.913 0-5.621-.015-10.534 0-2.849-.831-5.39-2.987-7.33-2.463-2.202-4.972-4.343-7.512-6.483-1.216-1.032-1.324-1.818-.17-2.957.493-.493 1.14-.863 1.74-1.278-.123-.185-.261-.385-.384-.586-.77 0-1.54-.092-2.263.016-2.787.446-5.604.847-8.344 1.478-5.234 1.232-10.314 2.88-14.563 6.376-2.894 2.387-5.218 5.174-5.51 9.132-.14 2.064-.124 4.143-.14 6.206-.015 3.373.032 2.557-.045 5.93-.016.538-.324 1.447-.693 1.57-1.355.447-1.4 1.309-1.216 2.449.123.785.03 1.601.2 2.356.477 2.11.97 4.22 1.586 6.298.446 1.54 1.308 3.003 1.554 4.574.493 3.126 1.663 5.868 3.772 8.24.338.4.616 1.062.57 1.57-.17 2.418-.416 4.82-.755 7.223-.061.462-.554 1.17-.954 1.262-1.601.324-1.848 1.556-2.248 2.819-.492 1.647-1.031 3.295-1.662 4.897-.2.493-.693 1.016-1.186 1.232-2.863 1.232-5.757 2.387-8.651 3.588-3.048 1.278-6.142 2.51-9.129 3.927-3.079 1.478-6.065 3.142-9.082 4.759-1.77.954-3.433 2.002-4.803 3.31l-4.187 17.88c20.428 0 31.096 14.784 52.355 16.601l-7.836-10.826 12.146-33.249-3.756-8.07h7.527l-3.771 8.07 12.146 33.249-7.62 10.549c14.686-2.464 37.684-14.953 50.23-16.216-.477 1-.816 2.048-.816 3.141 0 7.146 10.653 12.536 24.77 12.536 2.478 0 4.802-.216 7.019-.539l92.163 124.062c-13.916 1.556-23.691 7.439-23.691 14.908 0 7.037 8.651 12.658 21.259 14.599l-64.9 102.194a91.6 91.6 0 0 0-11.87-1.263l-7.45-32.155c-2.432-2.495-5.296-4.574-8.605-6.298-16.61-8.517-33.806-15.585-51.185-22.253-1.293-.493-2.848-1.479-3.387-2.618-1.416-3.142-2.401-6.484-3.433-9.749-.631-2.11-1.17-4.08-3.479-5.112-.631-.278-1.185-1.479-1.185-2.264.123-7.639-1.647-15.647 4.018-22.3.169-.215.23-.508.37-.754 3.047-6.684 3.57-14.322 7.85-20.559.092-.139.123-.339.154-.524.493-4.758 1-9.47 1.416-14.23.046-.584-.477-1.632-.985-1.816-2.34-.832-2.232-2.726-2.201-4.62 0-9.271 0-10.611-.016-19.897 0-5.406-1.585-10.18-5.65-13.86-4.648-4.189-9.42-8.208-14.177-12.243-2.294-1.94-2.494-3.45-.339-5.59.955-.955 2.155-1.633 3.28-2.434a13.436 13.436 0 0 1-.724-1.093c-1.447 0-2.894-.185-4.295.03-5.28.848-10.576 1.602-15.748 2.804-9.899 2.34-19.49 5.436-27.51 12.058-5.48 4.512-9.851 9.794-10.421 17.248-.277 3.896-.246 7.838-.277 11.735-.03 6.375.061 4.82-.077 11.195-.03 1.032-.616 2.742-1.324 2.973-2.57.831-2.648 2.479-2.294 4.635.262 1.463.062 3.018.385 4.45.893 3.99 1.832 7.978 2.987 11.89.846 2.925 2.493 5.682 2.97 8.654.909 5.914 3.126 11.088 7.128 15.57.662.754 1.155 2.002 1.078 2.972a213.76 213.76 0 0 1-1.401 13.66c-.123.877-1.047 2.202-1.801 2.387-3.033.616-3.51 2.956-4.218 5.328-.955 3.11-1.97 6.237-3.171 9.24-.37.94-1.324 1.91-2.248 2.34-5.388 2.342-10.899 4.498-16.317 6.792-5.773 2.433-11.608 4.743-17.257 7.423-5.804 2.803-11.469 5.929-17.164 8.978-3.356 1.802-6.481 3.789-9.098 6.253l-7.928 33.772c38.608 0 58.774 27.935 98.952 31.385L86.22 442.679l22.953-62.817-7.097-15.261H116.3l-7.127 15.261 22.967 62.817-14.424 19.943c13.87-2.326 31.681-9.394 48.984-16.186-.816 1.679-1.309 3.42-1.309 5.236 0 12.367 20.29 22.038 46.182 22.038 25.893 0 46.182-9.671 46.182-22.038 0-8.562-9.73-15.83-24.307-19.496l65.286-102.749c1.2.077 2.432.108 3.679.108 12.053 0 22.075-3.05 27.262-7.762 28.48 1.248 44.273 21.822 74.769 24.44l-11.576-16 17.964-49.157-5.542-11.935h11.115l-5.557 11.935 17.964 49.157-11.268 15.615c22.86-3.834 59.39-24.178 77.124-24.178l-.062.062zM314.296 118.54c8.852 0 13.64 3.218 13.64 4.527 0 1.31-4.772 4.528-13.64 4.528-8.866 0-13.638-3.219-13.638-4.528 0-1.309 4.772-4.527 13.639-4.527zm-137.775 44.737c0-2.865 7.512-7.038 19.273-7.038s19.289 4.173 19.289 7.038c0 2.864-7.512 7.037-19.289 7.037-11.776 0-19.273-4.173-19.273-7.037zm75.692 288.442c0 7.823-16.718 16.54-40.686 16.54s-40.686-8.717-40.686-16.54c0-3.897 4.171-8.04 11.314-11.18 2.155-.802 4.28-1.572 6.373-2.31 6.373-1.88 14.194-3.065 22.999-3.065 23.968 0 40.686 8.731 40.686 16.555zm50.138-127.62c-14.64 0-25.585-5.19-25.585-9.825 0-4.636 10.946-9.826 25.585-9.826 14.64 0 25.585 5.19 25.585 9.826 0 4.635-10.945 9.825-25.585 9.825z" fill-rule="evenodd"/></svg>