<svg width="512" height="512" xmlns="http://www.w3.org/2000/svg"><path d="M256.488 36c-121.572 0-220.48 98.916-220.48 220.488 0 121.571 98.908 220.488 220.48 220.488 121.562 0 220.479-98.917 220.479-220.488C476.967 134.916 378.068 36 256.487 36zm127.13 342.006v-8.694c0-30.071-34.742-41.04-53.338-48.997-6.732-2.868-19.423-8.978-32.442-15.346-4.397-2.15-8.357-7.877-8.855-12.77l-1.438-14.246c9.964-9.28 18.943-22.202 20.461-36.607h2.247c3.535 0 6.865-2.647 7.39-5.888l3.525-21.785c.47-4.654-3.926-7.478-7.487-7.478.098-.462.178-.933.222-1.323a76.97 76.97 0 0 0 .906-7.611c.222-1.98.4-4.032.497-6.155.373-10.284-1.367-19.28-4.254-24.316-2.93-7.043-7.37-13.88-13.552-19.742-17.22-16.306-37.193-22.656-54.227-9.547-11.599-2.008-25.382 3.294-35.337 14.955-5.436 6.368-8.82 13.65-10.267 20.817-1.296 4.467-2.158 9.876-2.371 15.728-.231 6.51.408 12.47 1.607 17.292a7.288 7.288 0 0 0-6.785 7.397l3.517 21.785c.524 3.242 3.855 5.888 7.39 5.888h2.015c3.197 15.578 11.474 28.366 20.63 37.283l-1.385 13.774c-.497 4.885-4.458 10.595-8.863 12.771-12.593 6.146-25 12.06-32.424 15.124-17.496 7.212-53.34 18.926-53.34 48.997v6.802c-29.2-31.447-47.21-73.41-47.21-119.6 0-97.086 78.987-176.074 176.073-176.074 97.096 0 176.074 78.988 176.074 176.074-.035 47.096-18.73 89.84-48.978 121.492z" fill-rule="evenodd"/></svg>