<svg width="512" height="512" xmlns="http://www.w3.org/2000/svg"><g fill-rule="evenodd"><path d="M356.252 151.78c2.196 14.165 13.073 32.222 31.136 38.506a34.533 34.533 0 0 0 22.854 0c17.663-6.384 29.04-24.34 31.236-38.506 2.395-.2 5.488-3.492 8.882-15.463 4.59-16.36-.3-18.755-4.391-18.356.798-2.294 1.397-4.489 1.796-6.683 6.986-42.198-13.772-43.695-13.772-43.695S430.5 61 421.419 55.912c-6.088-3.592-14.57-6.385-25.748-5.387a38.34 38.34 0 0 0-10.279 1.995c-4.091 1.397-7.883 3.392-11.277 5.786a62.208 62.208 0 0 0-11.576 9.577c-5.489 5.586-10.379 12.869-12.574 21.947-1.796 6.783-1.397 13.866.1 21.448a41.493 41.493 0 0 0 1.796 6.683c-4.191-.399-9.081 1.996-4.391 18.356 3.293 11.871 6.387 15.263 8.782 15.463zm-286.813 0c2.195 14.165 13.073 32.222 31.136 38.506a34.533 34.533 0 0 0 22.853 0c17.664-6.384 29.04-24.34 31.236-38.506 2.395-.2 5.489-3.492 8.882-15.463 4.59-16.36-.3-18.755-4.39-18.356.797-2.294 1.396-4.489 1.795-6.683 6.986-42.198-13.771-43.695-13.771-43.695S143.687 61 134.605 55.912c-6.087-3.592-14.57-6.385-25.747-5.387a38.34 38.34 0 0 0-10.28 1.995c-4.09 1.397-7.883 3.392-11.276 5.786a62.208 62.208 0 0 0-11.576 9.577c-5.49 5.586-10.38 12.869-12.575 21.947-1.796 6.783-1.397 13.866.1 21.448.4 2.194.998 4.489 1.797 6.683-4.192-.399-9.082 1.996-4.392 18.356 3.294 11.871 6.487 15.263 8.783 15.463zm139.913 30.526c2.396 15.562 14.371 35.314 34.13 42.297 8.084 2.893 16.966 2.893 25.05-.1 19.46-6.983 31.834-26.735 34.23-42.197 2.594-.2 6.087-3.89 9.78-16.96 5.089-17.856-.3-20.55-4.89-20.15.898-2.494 1.496-4.889 1.995-7.383 7.685-46.288-15.069-47.983-15.069-47.983s-3.792-7.283-13.772-12.77c-6.686-3.99-15.967-6.983-28.242-5.985-3.992.2-7.684.998-11.277 2.095-4.49 1.496-8.682 3.79-12.375 6.384-4.59 2.893-8.881 6.485-12.773 10.475-6.088 6.185-11.477 14.166-13.772 24.142-1.996 7.482-1.497 15.163.1 23.543.399 2.394 1.097 4.888 1.995 7.382-4.59-.4-9.98 2.194-4.89 20.151 3.793 13.168 7.186 16.86 9.78 17.059z"/><path d="M481.196 207.245c-25.348-6.484-45.906-20.949-45.906-20.949l-16.067 50.777-2.994 9.577v-.1l-2.594 8.08-8.483-24.041c20.857-29.03-4.191-28.73-5.589-28.73-1.397 0-26.445-.3-5.588 28.73l-8.483 24.042-2.594-8.08v.099l-2.994-9.577-16.068-50.777s-20.557 14.465-45.906 20.95c-3.792.997-6.886 2.593-9.28 4.688 7.584 4.589 23.152 13.168 40.816 17.657 21.755 5.487 33.432 26.237 31.336 55.466 0 .499-.1 1.796-.3 3.69 6.088.5 12.475.799 19.161.799 61.774 0 98.599-23.942 98.599-23.942 1.097-6.385 2.195-21.05 2.195-21.05.5-10.773-.4-32.52-19.26-37.309zm-156.28 169.989l-13.572-2.295c-1.298-5.287-3.393-10.175-6.088-14.764l8.084-11.273c1.497-2.095 1.297-4.888-.5-6.684l-4.79-4.788-4.79-4.788c-1.796-1.796-4.59-2.095-6.686-.599l-11.277 7.98c-4.59-2.792-9.68-4.887-15.07-6.184l-2.195-13.468c-.399-2.494-2.594-4.389-5.189-4.389h-13.772c-2.495 0-4.79 1.796-5.19 4.39l-2.394 13.766c-5.29 1.297-10.18 3.492-14.67 6.085l-11.078-8.08c-2.095-1.497-4.89-1.297-6.686.499l-4.79 4.788-4.79 4.788c-1.797 1.796-2.096 4.59-.6 6.684l7.985 11.373c-2.695 4.589-4.69 9.477-6.088 14.664l-13.572 1.995c-2.495.4-4.391 2.594-4.391 5.188v13.766c0 2.494 1.796 4.789 4.39 5.188l13.773 2.394c1.297 5.287 3.492 10.176 6.087 14.665l-7.984 11.173c-1.497 2.095-1.297 4.888.5 6.683l4.79 4.789 4.79 4.788c1.796 1.796 4.59 2.095 6.686.599l11.377-7.98c4.39 2.593 9.28 4.688 14.37 5.985l2.196 13.666c.4 2.494 2.595 4.39 5.19 4.39h13.771c2.495 0 4.79-1.796 5.19-4.39l2.295-13.567c5.29-1.297 10.18-3.391 14.77-6.085l11.277 8.08c2.095 1.497 4.89 1.297 6.686-.498l4.79-4.789 4.79-4.788c1.797-1.796 2.096-4.589.6-6.684l-7.985-11.273c2.695-4.588 4.79-9.477 6.188-14.664l13.672-2.195c2.495-.399 4.39-2.594 4.39-5.187V382.42c-.199-2.594-1.995-4.689-4.49-5.187zm-60.975 46.188c-19.061 4.39-38.022-7.482-42.413-26.536-4.392-19.054 7.484-38.008 26.545-42.397 19.061-4.39 38.022 7.482 42.413 26.535 4.392 19.054-7.484 38.008-26.545 42.398zM162.947 229.591c17.564-4.489 33.133-13.068 40.817-17.657-2.495-2.095-5.489-3.79-9.281-4.689-25.348-6.484-45.906-20.949-45.906-20.949l-16.067 50.777-2.994 9.577v-.1l-2.595 8.08-8.483-24.041c20.858-29.03-4.191-28.73-5.588-28.73-1.397 0-26.446-.3-5.589 28.73L98.78 254.63l-2.595-8.08v.099l-2.994-9.577-16.067-50.777s-20.558 14.465-45.906 20.95c-18.862 4.788-19.76 26.535-19.061 37.409 0 0 1.097 14.664 2.195 21.049 0 0 36.825 23.942 98.599 23.942 6.686 0 13.073-.3 19.16-.798-.2-1.896-.299-3.193-.299-3.691-2.295-29.33 9.48-50.08 31.136-55.566z"/><path d="M345.674 243.158c-27.744-7.083-50.397-22.944-50.397-22.944l-17.564 55.665-3.294 10.475-.1-.1-2.894 8.878-9.28-26.336c22.853-31.823-4.591-31.523-6.188-31.523-1.497 0-28.94-.4-6.187 31.523l-9.281 26.336-2.894-8.878-.1.1-3.293-10.475-17.564-55.665s-22.554 15.861-50.397 22.944c-20.658 5.288-21.756 29.13-20.858 41.001 0 0 1.198 16.061 2.395 23.144 0 0 17.065 11.073 47.603 18.854l3.692-3.591a18.953 18.953 0 0 1 13.473-5.586c3.992 0 7.884 1.197 11.177 3.59l.2.1 4.191 3.093c.3-.1.599-.3.998-.399l.998-5.487c1.597-9.177 9.58-15.961 18.961-15.961l13.772.1c9.38 0 17.365 6.783 18.861 16.06l.799 5.188 1.497.599 4.39-3.093c3.294-2.294 7.086-3.491 11.078-3.491 5.19 0 9.98 1.995 13.572 5.686l3.393 3.392c30.538-7.781 47.703-18.854 47.703-18.854 1.197-7.083 2.395-23.144 2.395-23.144.898-12.071-.1-35.913-20.857-41.2z"/></g></svg>