<svg width="512" height="512" xmlns="http://www.w3.org/2000/svg"><path d="M53.804 460.781c13.24-7.103 26.394-14.423 39.967-20.862 13.168-6.294 26.784-11.68 40.241-17.368 12.662-5.299 25.484-10.337 38.059-15.81 2.154-.938 4.336-3.233 5.233-5.428 2.804-7.002 5.189-14.293 7.415-21.555 1.676-5.486 2.775-10.914 9.843-12.373 1.778-.36 3.975-3.421 4.235-5.5a476.67 476.67 0 0 0 3.267-31.835c.174-2.252-.997-5.169-2.544-6.901-9.323-10.41-14.454-22.422-16.608-36.238-1.084-6.93-4.944-13.326-6.967-20.14-2.645-9.154-4.857-18.394-6.967-27.706-.766-3.335-.318-6.96-.868-10.38-.809-4.996-.664-8.85 5.349-10.771 1.662-.534 3.05-4.49 3.093-6.93.303-14.813.101-29.655.188-44.482.072-9.096-.015-18.22.636-27.316 1.286-17.397 11.491-29.654 24.298-40.194 18.704-15.42 41.094-22.58 64.12-28.052 12.07-2.83 24.385-4.562 36.686-6.526 3.267-.534 6.678-.086 10.017-.086a76.512 76.512 0 0 0 1.662 2.54c-2.587 1.849-5.435 3.408-7.66 5.617-5.002 4.995-4.51 8.518.852 13.023 11.087 9.398 22.202 18.768 32.985 28.5 9.497 8.517 13.183 19.692 13.197 32.238.03 21.584.044 43.168.03 64.781-.03 4.433-.333 8.778 5.16 10.742 1.156.404 2.385 2.844 2.298 4.23-.94 11.059-2.11 22.09-3.31 33.12-.044.418-.145.923-.376 1.227-9.945 14.48-11.231 32.267-18.314 47.831-.304.592-.42 1.285-.867 1.776-13.168 15.506-9.063 34.145-9.309 51.946-.043 1.805 1.243 4.649 2.703 5.24 5.406 2.369 6.707 7.003 8.196 11.883 2.341 7.695 4.669 15.405 7.964 22.696 1.2 2.714 4.828 4.98 7.835 6.121 40.53 15.535 80.67 32.008 119.35 51.816 7.734 4 14.412 8.85 20.035 14.654V36.622H32.382v438.756c6.26-5.775 13.559-10.41 21.393-14.596h.029z" fill-rule="evenodd"/></svg>