<svg width="512" height="512" xmlns="http://www.w3.org/2000/svg"><g fill-rule="evenodd"><path d="M137.174 474.663s24.453-45.062 62.02-26.884c-.027.044-4.457 37.494-62.02 26.884zm49.506-98.908s-24.391 45.062 11.507 66.556c0 .018 28.874-24.202-11.507-66.556z"/><path d="M164.548 360.232s-33.021 39.249-2.215 67.49c-.018 0 33.216-17.842 2.215-67.49z"/><path d="M140.792 340.105s-36.154 36.373-7.836 67.094c0 .008 34.601-15.065 7.836-67.094z"/><path d="M123.381 315.559s-41.043 30.684-17.499 65.232c.036 0 36.42-9.896 17.5-65.232z"/><path d="M114.451 286.973s-47.185 20.136-32.492 59.235c-.035 0 37.69-.952 32.492-59.235z"/><path d="M109.006 252.857s-49.258 14.262-39.41 54.896c0 .009 37.584 3.59 39.41-54.896z"/><path d="M113.357 222.763s-49.056 1.73-49.391 41.701c0 .018 33.992 12.128 49.39-41.7z"/><path d="M117.84 191.117s-48.156-2.734-52.136 36.383c-.009 0 32.175 14.94 52.136-36.383z"/><path d="M135.189 158.607s-48.156-9.244-57.395 29.626c0 0 30.392 19.387 57.395-29.626z"/><path d="M159.597 131.741s-44.934-17.455-60.695 18.478c-.026.026 25.9 24.132 60.695-18.478z"/><path d="M189.133 111.896s-37.478-24.52-58.833 5.107c.026.009 18.99 26.91 58.833-5.107zM101.32 449.35s34.557-37.927 66.67-11.15c.017.01-13.317 35.298-66.67 11.15z"/><path d="M68.484 424.574s37.822-34.627 67.402-5.072c-.009-.008-16.493 33.94-67.402 5.072z"/><path d="M44.331 394.286s41.546-30.05 67.508 2.725c.035 0-20.226 31.779-67.508-2.725z"/><path d="M23.779 358.9s45.984-22.738 66.122 13.936c.009 0-25.291 27.986-66.122-13.936z"/><path d="M11.23 323.673s48.27-17.41 64.146 21.221c.018 0-28.265 24.987-64.146-21.22z"/><path d="M5 285.139s50.565-8.591 59.38 32.228c-.017 0-32.253 19.607-59.38-32.228z"/><path d="M5.865 245.387s51.28.608 52.665 42.389c0 0-35.263 13.477-52.665-42.39z"/><path d="M11.389 207.47s50.644 8.079 45.905 49.55c-.017.027-36.851 8.265-45.905-49.55z"/><path d="M21.22 172.066s49.594 13 40.813 53.811c0 .018-37.425 4.613-40.813-53.81z"/><path d="M37.448 138.497s47.008 20.4 32.104 59.447c-.018-.009-37.708-1.2-32.104-59.447zm22.979-33.189s43.152 27.747 22.07 63.865c.036.009-37.001-7.294-22.07-63.865z"/><path d="M88.374 77.948s37.955 34.513 11.234 66.609c0 .026-35.307-13.283-11.234-66.61z"/><path d="M124.838 55.924s27.382 43.35-6.928 67.209c0 0-30.48-22.209 6.928-67.209z"/><path d="M165.104 40.41s16.158 48.642-22.856 63.54c-.026 0-24.294-28.86 22.856-63.54z"/><path d="M218.563 66.209s-19.202 47.98-58.974 34.054c.008 0 .088-38.006 58.974-34.055zm152.409 408.454s-24.453-45.062-62.036-26.884c0 .044 4.465 37.494 62.036 26.884zm-49.497-98.908s24.356 45.062-11.533 66.556c0 .018-28.883-24.202 11.533-66.556z"/><path d="M343.625 360.232s32.968 39.249 2.188 67.49c0 0-33.215-17.842-2.188-67.49z"/><path d="M367.31 340.105s36.154 36.373 7.854 67.094c0 .008-34.645-15.065-7.854-67.094z"/><path d="M384.747 315.559s41.061 30.684 17.482 65.232c0 0-36.41-9.896-17.482-65.232z"/><path d="M393.651 286.973s47.194 20.136 32.492 59.235c.044 0-37.672-.952-32.492-59.235z"/><path d="M399.114 252.857s49.303 14.262 39.42 54.896c-.01.009-37.567 3.59-39.42-54.896z"/><path d="M394.763 222.763s49.038 1.73 49.382 41.701c.036.018-34.018 12.128-49.382-41.7z"/><path d="M390.236 191.117s48.191-2.734 52.136 36.383c.08 0-32.148 14.94-52.136-36.383z"/><path d="M372.922 158.607s48.191-9.244 57.457 29.626c0 0-30.462 19.387-57.457-29.626z"/><path d="M348.549 131.741s44.952-17.455 60.687 18.478c0 .026-25.918 24.132-60.687-18.478z"/><path d="M318.943 111.896s37.522-24.52 58.86 5.107c.017.009-18.991 26.91-58.86-5.107zm87.822 337.454s-34.566-37.927-66.635-11.15c0 .01 13.273 35.298 66.635 11.15z"/><path d="M439.654 424.574s-37.849-34.627-67.42-5.072c-.035-.008 16.493 33.94 67.42 5.072z"/><path d="M463.815 394.286s-41.546-30.05-67.534 2.725c-.053 0 20.226 31.779 67.534-2.725z"/><path d="M484.341 358.9s-45.95-22.738-66.14 13.936c0 0 25.256 27.986 66.14-13.936z"/><path d="M496.846 323.673s-48.235-17.41-64.12 21.221c0 0 28.266 24.987 64.12-21.22z"/><path d="M503.146 285.139s-50.564-8.591-59.38 32.228c-.009 0 32.227 19.607 59.38-32.228z"/><path d="M502.255 245.387s-51.27.608-52.682 42.389c0 0 35.236 13.477 52.682-42.39z"/><path d="M496.722 207.47s-50.644 8.079-45.896 49.55c.017.027 36.86 8.265 45.896-49.55z"/><path d="M486.918 172.066s-49.62 13-40.796 53.811c-.088.018 37.416 4.613 40.796-53.81z"/><path d="M470.699 138.497s-47.044 20.4-32.13 59.447c0-.009 37.663-1.2 32.13-59.447z"/><path d="M447.72 105.308s-43.18 27.747-22.062 63.865c-.07.009 36.948-7.294 22.061-63.865z"/><path d="M419.728 77.948s-37.981 34.513-11.19 66.609c0 .026 35.263-13.283 11.19-66.61z"/><path d="M383.274 55.924s-27.383 43.35 6.962 67.209c-.035 0 30.454-22.209-6.962-67.209z"/><path d="M342.972 40.41s-16.15 48.642 22.908 63.54c.018 0 24.32-28.86-22.908-63.54z"/><path d="M289.592 66.209s19.211 47.98 58.966 34.054c-.009 0-.133-38.006-58.966-34.055zM152.458 323.647l3.3-3.017c2.869-2.716 6.328-5.071 10.6-7.347l3.423-1.826c4.174-2.275 8.401-4.55 12.707-6.597 4.35-2.055 8.79-3.863 13.193-5.715l13.731-5.654c-.018-.062-.08-.106-.08-.15.08-4.7-1.04-9.614 2.454-13.636.123-.167.159-.326.238-.45 1.686-3.74 2.26-7.867 4.307-11.465-2.039-3.793-3.645-7.806-4.369-12.463-.061-.415-.511-1.526-.864-2.337-.574-1.403-1.2-2.867-1.589-4.287a179.318 179.318 0 0 1-2.912-11.536c-.432-1.73-.432-3.29-.45-4.305-.574-3.722.106-6.509 1.235-8.934-1.28-1.103-2.444-2.152-3.706-3.175-1.359-1.2-1.526-2.144-.212-3.423.556-.555 1.28-.987 2.021-1.481-.167-.23-.317-.433-.432-.644-.883 0-1.774-.124-2.639.017-3.22.494-6.433.997-9.671 1.756-6.001 1.41-11.87 3.298-16.776 7.311-3.362 2.787-6.045 5.998-6.415 10.55-.168 2.398-.124 4.797-.168 7.231-.035 3.872.044 7.789-.035 11.634-.036.635-.389 1.693-.803 1.817-1.571.512-1.65 1.526-1.395 2.866.142.909.018 1.853.22 2.717a129.31 129.31 0 0 0 1.836 7.285c.53 1.808 1.554 3.502 1.862 5.319.512 3.634 1.889 6.765 4.307 9.517.432.458.715 1.226.67 1.808-.185 2.787-.432 5.574-.864 8.343-.08.503-.618 1.35-1.103 1.447-1.862.406-2.145 1.817-2.577 3.237a60.177 60.177 0 0 1-1.986 5.618c-.203.565-.803 1.209-1.341 1.411-3.3 1.447-6.654 2.77-9.954 4.181-3.539 1.455-7.14 2.858-10.598 4.551-3.566 1.694-7.007 3.625-10.484 5.495-2.083 1.085-3.953 2.32-5.586 3.846v6.112h20.932v-5.592h-.027v-.035zm218.858-4.667c-10.183-5.23-20.702-9.534-31.327-13.635-.803-.3-1.765-.89-2.091-1.596-.847-1.914-1.447-3.916-2.11-5.98-.423-1.253-.705-2.47-2.153-3.096-.405-.168-.705-.917-.705-1.367.088-4.666-1.024-9.579 2.435-13.645.141-.123.185-.282.256-.423 1.853-4.04 2.153-8.75 4.774-12.542.08-.088.08-.238.08-.335.344-2.92.6-5.821.89-8.732 0-.37-.317-1.006-.582-1.094-1.385-.52-1.306-1.684-1.306-2.866V236.69c-.035-3.307-.997-6.235-3.494-8.458-2.833-2.558-5.754-5.01-8.648-7.488-1.412-1.2-1.536-2.126-.22-3.422.502-.538 1.27-.988 2.029-1.465-.186-.255-.344-.432-.45-.688-.883 0-1.765-.079-2.612.036-3.221.511-6.478.996-9.663 1.755-4.96 1.155-9.672 2.946-13.978 5.645l.282 7.858c-.282 3.502-.6 6.88-1.006 10.267l-.556 5.803-1.73 2.717c-1.288 1.94-2.135 4.772-3.062 8.132-.917 3.07-1.853 6.174-3.176 9.067l-.548.97c.08.3.168.582.239.917.53 1.817 1.57 3.502 1.87 5.319.512 3.643 1.898 6.765 4.307 9.517.423.467.706 1.226.662 1.808-.168 2.796-.424 5.574-.847 8.344-.045.167-.239.22-.318.405 13.501 5.275 28.706 11.51 43.576 19.157a42.214 42.214 0 0 1 10.642 7.77l2.92 3.017v5.592h20.933v-6.403c-1.51-1.606-3.239-2.876-5.313-3.881z"/><path d="M337.43 321.962c-15.24-7.85-31.071-14.28-47.097-20.462-1.173-.424-2.62-1.341-3.088-2.39-1.289-2.92-2.171-5.963-3.098-9.015-.609-1.931-1.173-3.783-3.265-4.71-.556-.238-1.085-1.323-1.085-2.081.123-7.047-1.492-14.368 3.706-20.524.159-.185.238-.432.362-.688 2.833-6.112 3.3-13.16 7.263-18.875a.901.901 0 0 0 .14-.494c.424-4.348.927-8.714 1.28-13.098.036-.52-.423-1.49-.944-1.658-2.135-.758-2.02-2.496-2.02-4.242v-25.56c-.036-4.966-1.492-9.376-5.234-12.737-4.262-3.854-8.648-7.54-13.051-11.245-2.136-1.8-2.286-3.175-.327-5.15.847-.865 2.021-1.492 3.01-2.215-.239-.344-.424-.679-.662-1.005-1.289 0-2.674-.185-3.945.035-4.836.759-9.69 1.447-14.472 2.575-9.063 2.144-17.914 4.984-25.31 11.06-5.073 4.164-9.07 9.024-9.618 15.886-.273 3.58-.23 7.214-.273 10.778-.018 5.856.061 11.704-.062 17.596-.018.943-.556 2.496-1.262 2.716-2.339.785-2.418 2.276-2.11 4.26.204 1.34.018 2.805.336 4.084.847 3.687 1.73 7.312 2.78 10.937.768 2.707 2.294 5.23 2.753 7.938.847 5.503 2.86 10.222 6.513 14.314.617.688 1.085 1.853 1.006 2.743-.292 4.19-.68 8.388-1.28 12.56-.123.803-.962 2.046-1.668 2.17-2.797.547-3.212 2.743-3.874 4.886-.891 2.875-1.853 5.716-2.947 8.476-.37.891-1.21 1.79-2.074 2.126-4.968 2.152-10.025 4.11-15.028 6.28-5.33 2.17-10.695 4.348-15.893 6.817-5.383 2.558-10.58 5.469-15.814 8.23-3.053 1.614-5.956 3.501-8.374 5.733v9.199h182.562v-9.579c-2.17-2.196-4.791-4.119-7.836-5.671z"/></g></svg>