<svg width="512" height="512" xmlns="http://www.w3.org/2000/svg"><g fill-rule="evenodd"><path d="M343.856 280.282l-34.988-8.787c14.839-13.167 26.98-31.312 35.083-51.205 11.333-2.518 21.764-11.961 23.474-32.766 1.615-19.598-4.36-28.329-12.387-32.148-.096-2.327 12.758-68.191-34.087-85.063-5.339-8.094-41.42-57.332-106.922-17.366-9.595 5.852-24.833 17.395-32.956 29.004-11.799 14.829-19.693 37.686-21.014 72.798-8.758 3.43-15.589 11.989-13.879 32.775 1.776 21.508 12.825 30.875 24.614 32.994 7.923 19.855 19.817 37.838 34.552 50.91l-35.568 8.845c-48.222 12.036-81.994 55.042-81.994 104.585v59.299c0 16.825 14.031 31.255 30.903 31.255h277.02c16.872 0 29.421-14.421 29.421-31.255v-59.299c0-49.533-33.06-92.549-81.272-104.576zM178.632 165.503c0-6.441.2-12.426.58-17.993 61.607 2.071 98.23-22.828 118.256-44.47 25.773 25.698 34.95 60.459 38 77.074-5.976 45.581-38.485 93.965-77.92 93.965-43.719-.01-78.916-59.404-78.916-108.576zm228.219 278.673c0 6.489-4.618 12.141-11.144 12.141h-27.084v-25.241c0-2.584-2.394-4.693-4.978-4.693-2.594 0-4.988 2.099-4.988 4.693v25.241h-63.555l-26.477-106.39c7.923-.21 13.69-7.62 11.838-15.362l-5.083-20.928c-1.358-5.605-6.384-9.367-12.16-9.367h-12.027c-5.776 0-10.811 3.8-12.16 9.405l-5.082 20.957c-1.872 7.742 3.914 15.076 11.837 15.285l-26.477 106.4h-65.056v-25.241c0-2.584-1.976-4.693-4.56-4.693-2.593 0-4.57 2.099-4.57 4.693v25.241h-26.428c-6.517 0-11.8-5.662-11.8-12.141v-59.299c0-40.935 27.76-76.456 67.584-86.402l51.699-12.92c9.728 4.683 20.263 7.315 31.312 7.315 10.754 0 21.061-2.613 30.647-7.268l51.395 12.873c39.814 9.946 67.317 45.467 67.317 86.402v59.299z"/><path d="M183.106 383.148c-4.911-5.339-13.328-5.339-18.23 0l-12.73 13.765c-3.088 3.363-.713 8.721 3.857 8.721h35.986c4.56 0 6.944-5.358 3.857-8.72l-12.74-13.766zm69.027-193.563h9.386c1.577 14.117 13.51 24.9 27.95 24.9 15.513 0 28.11-12.55 28.11-28.054 0-17.936-16.255-17.869-28.11-17.869-10.298 0-23.883-.58-27.313 11.875h-10.678c-3.43-12.464-17.014-11.875-27.303-11.875-11.875 0-28.13-.095-28.13 17.831 0 15.514 12.626 28.14 28.13 28.14 14.459 0 26.381-10.821 27.958-24.947zm37.345-11.817c15.59 0 18.743 1.434 18.743 8.54 0 10.327-8.407 18.734-18.743 18.734-10.317 0-18.734-8.407-18.734-18.734-.01-7.106 3.135-8.54 18.734-8.54zm-84.018 8.54c0-7.106 3.144-8.54 18.734-8.54 15.58 0 18.734 1.434 18.734 8.54 0 10.327-8.408 18.734-18.734 18.734-10.327 0-18.734-8.417-18.734-18.734z"/></g></svg>