<svg width="512" height="512" xmlns="http://www.w3.org/2000/svg"><g fill-rule="evenodd"><path d="M200.5 369.125c0-65.573 41.57-121.614 99.747-143.176 7.063-15.845 11.253-33.453 11.253-51.074 0-68.973 0-124.875-83.25-124.875S145 105.902 145 174.875c0 42.957 24.933 85.9 55.5 103.119v22.88C106.372 308.574 34 354.82 34 410.736h172.272c-3.76-13.237-5.772-27.195-5.772-41.625v.014z"/><path d="M353.125 244.25c-68.973 0-124.875 55.902-124.875 124.875S284.152 494 353.125 494 478 438.098 478 369.125 422.098 244.25 353.125 244.25zM422.5 383H367v55.5h-27.75V383h-55.5v-27.75h55.5v-55.5H367v55.5h55.5V383z"/></g></svg>