<svg width="512" height="512" xmlns="http://www.w3.org/2000/svg"><path d="M130.262 163.07c.136-4.706.556-19.042 10.416-22.758 9.779-3.69 20.059 6.591 22.026 8.68a6.04 6.04 0 0 1-.285 8.53c-2.428 2.28-6.239 2.144-8.531-.284-3.241-3.431-7.717-5.995-8.951-5.642-.014 0-2.32 1.709-2.618 11.84-.814 27.735 20.846 36.429 21.768 36.795 2.156.827 3.675 2.835 3.865 5.127 5.968 71.094 62.306 94.096 88.645 94.096 26.338 0 82.677-23.002 88.644-94.096a6.015 6.015 0 0 1 3.893-5.14c.895-.34 22.54-9.047 21.727-36.782-.299-10.118-2.604-11.827-2.631-11.84-1.22-.353-5.819 2.305-8.952 5.642-2.264 2.441-6.09 2.563-8.517.285-2.427-2.279-2.55-6.09-.285-8.531 1.967-2.102 12.247-12.383 22.026-8.694 9.846 3.73 10.267 18.052 10.416 22.758.773 26.203-15.082 41.149-26 46.831-7.594 70.05-62.807 101.597-100.321 101.597-37.514 0-92.727-31.546-100.322-101.596-10.918-5.683-26.772-20.63-26-46.832l-.013.014zM284.63 324.91c0 10.823-5.465 18.39-11.907 23.328.786 2.875 2.766 13.237 5.208 26.813l-39.033-19.585c.691-3.512 1.234-6.035 1.56-7.242-6.443-4.937-11.909-12.505-11.909-23.328a6.025 6.025 0 0 1 6.022-6.021h44.01c3.323 0 6.022 2.712 6.022 6.035h.027zm-42.925 6.022c3.038 7.825 11.61 11.189 14.878 12.206 3.323-1.03 11.854-4.367 14.878-12.206h-29.77.014zm-21.998-8.585c-1.41-3.011-5.018-4.313-8.016-2.89L183.4 332.75l-2.387-43.685c-.19-3.322-3.092-5.913-6.347-5.696-3.323.176-5.873 3.025-5.697 6.347l.61 11.203c-20.614 7.256-119.675 48.296-119.675 166.06A6.025 6.025 0 0 0 55.926 473a6.025 6.025 0 0 0 6.022-6.022c0-106.194 83.992-144.67 108.296-153.581l1.587 28.928a6.013 6.013 0 0 0 2.93 4.842c.949.57 2.02.855 3.092.855.868 0 1.75-.19 2.563-.57l36.388-17.075a6.032 6.032 0 0 0 2.89-8.03h.013zM136.27 440.043a6.025 6.025 0 0 0-6.022 6.022v20.9a6.025 6.025 0 0 0 6.022 6.021 6.025 6.025 0 0 0 6.022-6.021v-20.9a6.025 6.025 0 0 0-6.022-6.022zm206.15-139.138l.61-11.202c.177-3.323-2.373-6.171-5.696-6.347-3.295-.217-6.17 2.373-6.347 5.696l-2.387 43.685-28.291-13.292c-3.011-1.41-6.605-.122-8.016 2.89-1.41 3.01-.122 6.604 2.89 8.015l36.387 17.075a6.035 6.035 0 0 0 8.585-5.127l1.574-28.834c24.019 9.114 108.31 48.54 108.31 153.5a6.025 6.025 0 0 0 6.021 6.022 6.025 6.025 0 0 0 6.022-6.021c0-117.75-99.06-158.79-119.675-166.06h.013zm33.31 139.138a6.025 6.025 0 0 0-6.022 6.022v20.9a6.025 6.025 0 0 0 6.022 6.021 6.025 6.025 0 0 0 6.022-6.021v-20.9a6.025 6.025 0 0 0-6.022-6.022zm-46.927-276.851c1.614 0 3.16.65 4.3 1.804a6.067 6.067 0 0 1 1.736 4.326c-.095 4.978-1.044 30.23-11.298 38.572-6.455 5.249-16.573 8.504-26.392 8.504-9.277 0-17.021-2.89-21.822-8.152-5.548-6.09-9.223-19.407-11.217-28.766h-15c-2.007 9.359-5.669 22.677-11.216 28.766-4.801 5.263-12.545 8.152-21.822 8.152-9.833 0-19.95-3.255-26.406-8.504-10.253-8.328-11.216-33.594-11.298-38.572a6.046 6.046 0 0 1 6.035-6.13h60.49c1.762 0 3.43.76 4.57 2.102.542.624.909 1.356 1.14 2.13h12.015c.245-.76.61-1.506 1.14-2.13a6.043 6.043 0 0 1 4.57-2.102h60.475zm-91.167 12.057H190.71c.855 10.145 3.255 20.628 6.524 23.287 4.272 3.472 11.826 5.804 18.81 5.804 5.751 0 10.471-1.532 12.912-4.231 3.337-3.662 6.66-15.082 8.68-24.86zm84.82 0H275.53c2.02 9.778 5.344 21.212 8.68 24.86 2.455 2.685 7.161 4.231 12.925 4.231 6.971 0 14.525-2.332 18.798-5.804 3.282-2.659 5.682-13.142 6.523-23.287zM163.911 137.26h.027c3.309 0 6.022-2.685 6.022-6.008.067-15.719 4.95-30.136 13.738-40.592a6.022 6.022 0 0 0-.732-8.49 6.022 6.022 0 0 0-8.49.732c-10.593 12.613-16.492 29.77-16.574 48.296a6.028 6.028 0 0 0 6.009 6.049v.013zm36.51-62.672h88.495c1.953.027 48.052 1.261 48.052 55.647a6.025 6.025 0 0 0 6.022 6.022 6.025 6.025 0 0 0 6.022-6.022c0-66.144-59.35-67.69-60.042-67.704h-88.576a6.025 6.025 0 0 0-6.022 6.022 6.025 6.025 0 0 0 6.022 6.021l.027.014zm10.09-23.53h83.627c2.265-.096 56.555-.245 63.052 55.307.366 3.065 2.97 5.33 5.98 5.33.231 0 .476-.014.706-.04 3.31-.38 5.67-3.378 5.29-6.687-7.758-66.212-74.58-65.982-75.123-65.954H210.51a6.025 6.025 0 0 0-6.021 6.021 6.025 6.025 0 0 0 6.021 6.022zm75.76 371.245l-54.561-27.477c-.868 4.91-1.75 9.941-2.632 14.973l60.313 30.488c-.977-5.628-2.035-11.718-3.12-17.984zm-52.35-39.86l49.774 25.064a4721.336 4721.336 0 0 0-3.106-17.645l-44.024-22.08c-.814 4.421-1.709 9.385-2.658 14.661h.013zm-14.77 84.535h39.019l-35.86-18.106c-1.342 7.717-2.44 14.078-3.16 18.106zm7.771-44.756c-.854 4.896-1.682 9.67-2.468 14.227l60.461 30.516h9.114c-.515-2.876-1.22-6.958-2.075-11.868l-65.032-32.889v.014z" fill-rule="evenodd"/></svg>