<svg width="512" height="512" xmlns="http://www.w3.org/2000/svg"><path d="M205.904 81.754c-22.601 16.827-28.662 43.457-27.55 57.628 1.418 17.327 4.935 39.897 4.935 39.897s-6.964 3.782-6.964 18.996c2.418 38.2 15.193 21.721 17.82 38.464 6.31 40.356 20.752 33.18 20.752 55.208 0 36.685-15.123 53.845-62.341 74.176-47.371 20.428-96.216 46.127-96.216 90.627V479h400.32v-22.25c0-44.5-48.858-70.199-96.257-90.6-47.219-20.33-62.3-37.463-62.3-74.175 0-22.028 14.386-14.838 20.725-55.208 2.64-16.757 15.387-.264 17.861-38.465 0-15.213-6.978-18.996-6.978-18.996s3.517-22.556 4.92-39.897c1.447-18.175-8.853-56.987-51.151-68.891-7.409-7.565-12.413-19.608 10.37-31.679-49.818-2.336-61.41 23.738-87.932 42.915h-.014z" fill-rule="evenodd"/></svg>