<svg width="512" height="512" xmlns="http://www.w3.org/2000/svg"><g fill-rule="evenodd"><path d="M280.136 151.954c18.497-12.434 31.253-36.98 31.253-59.07 0-31.19-25.298-56.459-56.469-56.459-31.184 0-56.484 25.266-56.484 56.46 0 22.09 12.746 46.635 31.253 59.07-44.244 11.22-77.036 49.604-77.036 78.056 0 33.63 204.539 33.63 204.539 0-.027-28.452-32.803-66.835-77.056-78.057zm-25.231 103.278l-28.657-28.634 24.123-58.267h-.248l-9.37-10.741c4.537 1.633 9.261 2.597 14.154 2.597 4.902 0 9.6-.966 14.135-2.597l-9.368 10.741h-.244l24.112 58.267-28.637 28.634zm-49.778 132.442c6.001 0 10.865-6.934 10.865-12.926 0-6.006-4.88-10.85-10.865-10.85-5.988 0-10.854 4.844-10.854 10.85 0 5.992 4.868 12.926 10.854 12.926zm21.247 7.559a4.25 4.25 0 0 0-.29-.917c-.129-.217-.277-.377-.417-.567-.204-.269-.37-.51-.62-.74-.189-.165-.4-.258-.635-.395-.21-.135-.399-.295-.634-.403-.37-.138-9.025-3.212-16.975-3.62l-1.08 2.172h-.026l2.888 22.494-3.443 5.992-3.43-5.992 2.905-22.494h-.042l-1.093-2.171c-7.93.407-16.572 3.481-16.956 3.619-.25.108-.445.268-.654.403-.215.137-.439.23-.62.394-.25.23-.426.486-.621.74-.155.191-.29.337-.4.541-.154.297-.223.619-.29.931-.06.188-.181.363-.195.554l-3.483 30.899c-.25 2.351 1.437 4.479 3.787 4.751.169.016.317.016.499.016a4.294 4.294 0 0 0 4.252-3.808l3.126-28.135c.366-.106.763-.23 1.175-.35v29.283l-3.407 42.451c-.224 2.82 1.888 5.292 4.724 5.534.148.013.277.013.426.013a5.13 5.13 0 0 0 5.116-4.736l3.097-38.364c.637.286 1.33.458 2.073.458.763 0 1.437-.172 2.084-.458l3.097 38.364a5.135 5.135 0 0 0 5.117 4.736c.149 0 .277 0 .426-.013 2.833-.242 4.942-2.726 4.73-5.534l-3.427-42.45v-29.284c.44.122.843.244 1.202.35l3.14 28.135c.234 2.185 2.099 3.808 4.245 3.808.148 0 .33 0 .479-.016 2.37-.27 4.05-2.4 3.793-4.751l-3.443-30.875c-.016-.215-.144-.376-.2-.565zm28.531-7.559c5.981 0 10.84-6.934 10.84-12.926 0-6.006-4.857-10.85-10.84-10.85-6 0-10.866 4.844-10.866 10.85 0 5.992 4.88 12.926 10.866 12.926z"/><path d="M276.155 395.233a4.233 4.233 0 0 0-.284-.917 4.556 4.556 0 0 0-.433-.567c-.188-.269-.363-.51-.618-.74-.19-.165-.408-.258-.62-.395-.231-.135-.393-.295-.65-.403-.377-.138-9.017-3.212-16.954-3.62l-1.093 2.172h-.042l2.889 22.494-3.443 6.02-3.443-6.005 2.904-22.495h-.053l-1.064-2.185c-7.946.419-16.585 3.481-16.978 3.645-.25.095-.439.255-.634.406-.221.108-.452.217-.62.379-.264.217-.46.485-.635.727-.141.19-.29.35-.419.567-.135.283-.201.62-.303.917-.027.19-.149.35-.175.554l-3.443 30.888a4.322 4.322 0 0 0 3.8 4.751c.161.016.319.016.487.016 2.153 0 4.017-1.633 4.252-3.807l3.14-28.136c.343-.106.762-.23 1.161-.35v29.283l-3.416 42.452c-.215 2.818 1.884 5.292 4.747 5.533.135.013.277.013.412.013a5.138 5.138 0 0 0 5.117-4.735l3.097-38.365a5.012 5.012 0 0 0 2.086.459 5.06 5.06 0 0 0 2.08-.46l3.092 38.366c.23 2.697 2.47 4.735 5.117 4.735.149 0 .27 0 .432-.013 2.834-.241 4.942-2.726 4.725-5.533l-3.417-42.452V399.15c.42.122.825.244 1.175.35l3.13 28.136a4.292 4.292 0 0 0 4.255 3.807c.146 0 .31 0 .499-.016 2.35-.27 4.022-2.4 3.767-4.751l-3.443-30.874c-.02-.218-.142-.38-.184-.568z"/><path d="M304.68 387.674c5.993 0 10.855-6.934 10.855-12.926 0-6.006-4.86-10.85-10.855-10.85a10.835 10.835 0 0 0-10.854 10.85c0 5.992 4.86 12.926 10.854 12.926zm21.248 7.559a4.984 4.984 0 0 0-.297-.917c-.109-.217-.27-.377-.406-.567-.217-.269-.377-.51-.62-.74-.189-.165-.406-.258-.621-.395-.215-.135-.406-.295-.634-.403-.406-.138-9.03-3.212-16.996-3.62l-1.08 2.172h-.053l2.891 22.494-3.43 5.992-3.429-5.992 2.891-22.494h-.029l-1.106-2.171c-7.94.407-16.537 3.481-16.956 3.619-.241.108-.43.268-.634.403-.23.137-.445.23-.62.394-.255.23-.444.486-.634.74-.136.191-.298.337-.406.541-.147.297-.215.619-.324.931-.029.188-.137.363-.175.554l-3.416 30.874c-.255 2.35 1.432 4.506 3.78 4.763.161.013.323.013.485.013 2.162 0 3.997-1.63 4.254-3.805l3.118-28.149c.363-.095.784-.217 1.214-.35v29.281l-3.43 42.454a5.168 5.168 0 0 0 4.74 5.547c.136.013.256.013.417.013a5.158 5.158 0 0 0 5.13-4.751l3.078-38.352c.634.3 1.339.459 2.08.459a4.9 4.9 0 0 0 2.092-.459l3.093 38.352a5.15 5.15 0 0 0 5.128 4.751c.137 0 .257 0 .405-.013a5.22 5.22 0 0 0 4.754-5.547l-3.43-42.454v-29.28c.419.134.81.254 1.188.35l3.104 28.148c.27 2.185 2.106 3.805 4.268 3.805.16 0 .323 0 .485-.013 2.35-.257 4.035-2.387 3.78-4.763l-3.43-30.874c-.057-.19-.166-.352-.219-.54zm152.14 26.571c.218-6.059-.796-12.2-3.05-18.054l9.395-5.844-9.207-14.724-9.38 5.857c-4.305-4.6-9.355-8.175-14.891-10.648l2.483-10.755-16.942-3.9-2.47 10.768c-6.048-.244-12.205.769-18.062 3.036l-5.884-9.392-14.687 9.188 5.86 9.379a45.74 45.74 0 0 0-10.667 14.898l-10.76-2.497-3.916 16.909 10.761 2.495a45.309 45.309 0 0 0 3.064 18.054l-9.409 5.857 9.207 14.71 9.394-5.867a45.196 45.196 0 0 0 14.891 10.659l-2.47 10.757 16.9 3.9 2.486-10.757c6.048.244 12.202-.769 18.061-3.05l5.86 9.393 14.714-9.202-5.86-9.391c4.603-4.266 8.208-9.368 10.638-14.899l10.772 2.497 3.902-16.91-10.733-2.467zm-29.188 24.787c-14.606 9.106-33.816 4.667-42.954-9.92-9.099-14.588-4.672-33.817 9.907-42.925 14.581-9.121 33.845-4.696 42.97 9.906s4.66 33.844-9.923 42.939zM77.455 363.725C46.325 363.725 21 389.04 21 420.142c0 31.134 25.325 56.448 56.455 56.448 31.131 0 56.456-25.314 56.456-56.448.013-31.103-25.327-56.417-56.456-56.417zm24.179 95.768l-2.202-3.807-2.179 1.254 2.168 3.765c-6.223 3.4-13.189 5.465-20.682 5.669v-4.468h-2.545v4.468c-7.491-.204-14.5-2.267-20.689-5.669l2.18-3.765-2.195-1.254-2.2 3.831a46.138 46.138 0 0 1-15.18-15.167l3.834-2.213-1.275-2.185-3.773 2.16c-3.388-6.207-5.46-13.17-5.67-20.674h4.495v-2.537h-4.494c.222-7.49 2.295-14.48 5.669-20.7l3.76 2.185 1.268-2.199-3.813-2.214a46.144 46.144 0 0 1 15.153-15.153l2.226 3.831 2.179-1.267-2.166-3.765c6.203-3.386 13.195-5.465 20.689-5.669v4.479h1.04l-6.87 13.722h4.575v26.557l-14.249 8.204-2.294-3.967-8.74 13.237 15.843-.93-2.308-3.968 15.523-8.96c.082-.052.1-.216.209-.27.277-.217.386-.458.58-.755.17-.284.304-.512.344-.851.014-.122.129-.204.129-.324v-28h4.57l-6.851-13.71h1.006l.013-4.48c7.492.218 14.47 2.28 20.694 5.67l-2.2 3.778 2.215 1.24 2.2-3.818a46.08 46.08 0 0 1 15.16 15.154l-3.814 2.227 1.275 2.185 3.76-2.185c3.38 6.22 5.46 13.197 5.677 20.685h-4.476v2.54h4.476c-.215 7.503-2.294 14.493-5.677 20.7l-3.76-2.185-1.262 2.212 3.814 2.198a46.24 46.24 0 0 1-15.16 15.158zM258.647 287.59v-13.696h-7.487v13.695H73.722v59.686h7.465v-52.222H251.16v52.222h7.487v-52.222h169.985v52.222h7.451V287.59z"/></g></svg>