<svg width="512" height="512" xmlns="http://www.w3.org/2000/svg"><path d="M256.013 123.89c23.93 0 43.398-19.45 43.398-43.357 0-23.908-19.468-43.358-43.398-43.358-23.93 0-43.398 19.45-43.398 43.358 0 23.907 19.468 43.358 43.398 43.358zm0-65.036c11.965 0 21.699 9.725 21.699 21.679 0 11.953-9.734 21.679-21.7 21.679-11.964 0-21.698-9.726-21.698-21.68 0-11.953 9.733-21.678 21.699-21.678zm-65.097 162.592c5.99 0 10.85-4.853 10.85-10.84 0-29.884 24.335-54.197 54.247-54.197s54.247 24.313 54.247 54.198c0 5.986 4.859 10.84 10.85 10.84s10.85-4.854 10.85-10.84c0-41.839-34.07-75.877-75.947-75.877s-75.947 34.038-75.947 75.877c0 5.986 4.858 10.84 10.85 10.84zM108.947 378.38c23.93 0 43.398-19.45 43.398-43.358 0-23.907-19.469-43.358-43.398-43.358-23.93 0-43.398 19.45-43.398 43.358 0 23.908 19.468 43.358 43.398 43.358zm0-65.037c11.964 0 21.699 9.726 21.699 21.68 0 11.953-9.735 21.678-21.7 21.678-11.964 0-21.698-9.725-21.698-21.679 0-11.953 9.734-21.679 21.699-21.679zm0 75.877C67.07 389.22 33 423.258 33 465.097c0 5.986 4.858 10.839 10.85 10.839 5.99 0 10.849-4.853 10.849-10.84 0-29.884 24.335-54.197 54.248-54.197 29.912 0 54.247 24.313 54.247 54.198 0 5.986 4.859 10.839 10.85 10.839 5.99 0 10.85-4.853 10.85-10.84 0-41.838-34.07-75.876-75.947-75.876zm294.133-10.84c23.929 0 43.397-19.45 43.397-43.358 0-23.907-19.468-43.358-43.398-43.358-23.93 0-43.398 19.45-43.398 43.358 0 23.908 19.468 43.358 43.398 43.358zm0-65.037c11.964 0 21.698 9.726 21.698 21.68 0 11.953-9.734 21.678-21.699 21.678-11.965 0-21.699-9.725-21.699-21.679 0-11.953 9.733-21.679 21.7-21.679zm0 75.877c-41.878 0-75.947 34.038-75.947 75.877 0 5.986 4.858 10.839 10.849 10.839 5.991 0 10.85-4.853 10.85-10.84 0-29.884 24.335-54.197 54.247-54.197s54.248 24.313 54.248 54.198c0 5.986 4.858 10.839 10.85 10.839 5.99 0 10.849-4.853 10.849-10.84 0-41.838-34.071-75.876-75.947-75.876zm-79.63-57.504l-56.588-32.64v-65.284c0-5.986-4.858-10.84-10.85-10.84-5.99 0-10.849 4.854-10.849 10.84v65.283l-56.587 32.641c-5.19 2.993-6.968 9.623-3.971 14.807 2.996 5.185 9.633 6.961 14.82 3.967l56.588-32.64 56.588 32.64a10.847 10.847 0 0 0 14.82-3.967c2.997-5.184 1.219-11.814-3.97-14.807z" fill-rule="evenodd"/></svg>