<svg width="512" height="512" xmlns="http://www.w3.org/2000/svg"><path d="M335.751 295.352c.192 0 .335-.031.494-.031.24 0 .415.031.654.031h-1.164.016zm-64.69-71.947c.191-.048.319-.239.494-.286 11.332 40.926 40.673 71.518 70.476 72.186 27.141-1.256 60.482-31.307 71.575-71.995 5.1.318 10.2-5.693 11.65-14.04 1.482-8.73-1.625-16.504-6.885-17.41-.35-.048-.67.158-1.02.174-1.546-67.336-33.58-91.059-73.982-92.092-41.612.206-78.89 29.065-76.547 92.092-.383 0-.765-.254-1.148-.175-5.275.907-8.383 8.698-6.869 17.41 1.45 8.635 6.933 14.995 12.24 14.12l.016.016zm67.814-123.59h-5.116c1.307-.017 2.566.063 3.841.095.43 0 .877-.096 1.29-.096h-.015zm-228.863 243.57H86.377l29.628-29.542c-66.22 6.471-114.99 31.625-114.99 98.358H146.16l-52.546-52.39 16.415-16.426h-.016zm288.119-36.379l-37.804 73.84-5.96-48.018 9.323-7.616h-43.303l9.356 7.616-5.977 48.018-37.772-73.84c-65.71 8.793-112.885 36.888-112.885 105.195H511c-.016-68.307-47.19-96.402-112.87-105.195zm-182.15-99.74c-2.152 29.367-14.694 63.663-32.736 82.044h69.71v-77.577c0-81.121-43.014-111.936-96.038-111.936-53.025 0-96.04 30.783-96.04 111.936v77.576h69.695c-17.436-17.792-29.835-50.482-32.576-79.181l.669-.048c30.01 0 55.909-12.402 70.157-30.671 10.423 13.403 27.125 23.389 47.143 27.857h.016z" fill-rule="evenodd"/></svg>