<svg width="512" height="512" xmlns="http://www.w3.org/2000/svg"><g fill="none" fill-rule="evenodd"><path d="M495.567 469.624v-25.038c0-5.271-2.333-10.34-6.39-13.685-22.618-18.55-46.961-30.916-51.931-33.35-.609-.303-.913-.81-.913-1.418v-35.175c4.463-2.94 7.303-8.008 7.303-13.684v-36.492c0-18.145-14.707-32.843-32.863-32.843h-7.912c-18.155 0-32.862 14.698-32.862 32.843v36.492c0 5.676 2.941 10.745 7.302 13.684v35.175c0 .608-.304 1.216-.912 1.419-4.97 2.433-29.313 14.698-51.932 33.35-4.057 3.345-6.39 8.413-6.39 13.684v25.038"/><path d="M106.183 246.211c-5.072 0-9.23 4.156-9.23 9.225v36.492c0 43.486 35.398 78.863 78.911 78.863H291.9l-15.215 15.205c-3.55 3.548-3.55 9.427 0 12.975 1.826 1.825 4.159 2.737 6.492 2.737s4.665-.912 6.491-2.737l30.834-30.816c1.725-1.723 2.739-4.054 2.739-6.487s-1.014-4.764-2.739-6.487l-30.834-30.816c-3.55-3.548-9.433-3.548-12.983 0-3.55 3.548-3.55 9.427 0 12.975l15.215 15.205H175.864c-33.37 0-60.553-27.166-60.553-60.516v-36.492c0-5.271-4.057-9.326-9.128-9.326zm116.541-88.493c1.826 1.825 4.159 2.737 6.492 2.737s4.665-.912 6.491-2.737c3.55-3.548 3.55-9.427 0-12.975l-15.214-15.205h116.541c33.37 0 60.553 27.166 60.553 60.516v36.492c0 5.068 4.159 9.225 9.23 9.225 5.072 0 9.23-4.157 9.23-9.225v-36.492c0-43.486-35.398-78.863-78.911-78.863H220.594l15.215-15.205c3.55-3.548 3.55-9.427 0-12.975s-9.433-3.548-12.983 0l-30.835 30.815c-1.724 1.724-2.738 4.055-2.738 6.488 0 2.433 1.014 4.764 2.738 6.487l30.733 30.917zM17.433 245.096c5.071 0 9.23-4.156 9.23-9.224v-25.038c0-2.534 1.116-4.967 3.043-6.589 21.908-17.941 45.643-29.903 50.105-32.133 3.652-1.824 6.086-5.575 6.086-9.731v-35.174c0-3.041-1.521-5.98-4.057-7.603-2.029-1.318-3.246-3.649-3.246-6.082V77.03c0-13.076 10.65-23.72 23.633-23.72h7.81c13.084 0 23.633 10.644 23.633 23.72v36.492c0 2.433-1.217 4.663-3.246 6.082-2.535 1.723-4.057 4.562-4.057 7.603v35.174c0 4.055 2.333 7.907 6.086 9.731 4.564 2.23 28.298 14.192 50.106 32.133 1.927 1.622 3.042 3.954 3.042 6.59v25.037c0 5.068 4.159 9.224 9.23 9.224 5.072 0 9.23-4.156 9.23-9.224v-25.038c0-8.11-3.55-15.61-9.838-20.78-19.373-15.914-40.166-27.47-49.497-32.336v-26.254c4.665-4.764 7.303-11.15 7.303-17.942V77.03c0-23.213-18.866-42.067-42.093-42.067h-7.81c-23.227 0-42.093 18.854-42.093 42.067v36.492c0 6.792 2.637 13.178 7.303 17.942v26.254c-9.332 4.866-30.125 16.422-49.497 32.336A26.854 26.854 0 0 0 8 210.834v25.038c.203 5.17 4.361 9.224 9.433 9.224zm301.243 178.71a26.854 26.854 0 0 0-9.839 20.78v25.038c0 5.068 4.159 9.224 9.23 9.224 5.072 0 9.23-4.156 9.23-9.224v-25.038c0-2.534 1.116-4.967 3.043-6.589 21.909-17.942 45.643-29.903 50.106-32.133 3.651-1.825 6.085-5.575 6.085-9.731v-35.175c0-3.04-1.521-5.98-4.057-7.602-2.028-1.318-3.245-3.65-3.245-6.082v-36.492c0-13.076 10.65-23.72 23.632-23.72h7.81c13.085 0 23.735 10.644 23.735 23.72v36.492c0 2.433-1.217 4.663-3.246 6.082-2.536 1.723-4.057 4.561-4.057 7.602v35.175c0 4.054 2.333 7.906 6.086 9.73 4.564 2.231 28.298 14.192 50.105 32.134 1.927 1.622 3.043 3.953 3.043 6.589v25.038c0 5.068 4.159 9.224 9.23 9.224 5.072 0 9.23-4.156 9.23-9.224v-25.038c0-8.11-3.55-15.61-9.838-20.78-19.373-15.915-40.166-27.47-49.498-32.336v-26.254c4.666-4.764 7.303-11.15 7.303-17.942v-36.492c0-23.213-18.865-42.067-42.093-42.067h-7.81c-23.227 0-42.092 18.854-42.092 42.067v36.492c0 6.791 2.637 13.178 7.302 17.942v26.254c-9.23 4.865-29.921 16.421-49.395 32.336z" fill="#000"/></g></svg>