<svg width="512" height="512" xmlns="http://www.w3.org/2000/svg"><path d="M101.3 107.956c-3.8 3.9-3.8 10.2.2 14 3.9 3.8 10.2 3.8 14-.2 35.8-36.7 83.8-57.2 135-57.8 50-.6 97.4 18 133.7 52.2l-18.2.2c-5.5.1-9.8 4.5-9.8 10 .1 5.4 4.5 9.8 9.9 9.8h.1l42.2-.5c5.5-.1 9.8-4.5 9.8-10l-.4-42.1c-.1-5.4-4.5-9.8-9.9-9.8h-.1c-5.5.1-9.8 4.5-9.8 10l.2 18.4c-40.1-38-92.6-58.6-147.9-58-56.6.8-109.5 23.4-149 63.8zm288.6 282.1c-35.8 36.7-83.8 57.2-135 57.8-50 .6-97.4-18-133.7-52.2l18.2-.2c5.5-.1 9.8-4.5 9.8-10-.1-5.4-4.5-9.8-9.9-9.8h-.1l-42.2.5c-5.5.1-9.8 4.5-9.8 10l.5 42.2c.1 5.4 4.5 9.8 9.9 9.8h.1c5.5-.1 9.8-4.5 9.8-10l-.2-18.4c39.5 37.4 90.9 58 145.4 58h2.5c56.5-.7 109.5-23.3 149-63.7 3.8-3.9 3.8-10.2-.2-14-4-4-10.2-3.9-14.1 0zm-300.7-138.8c0-3.3-1.7-6.4-4.4-8.2-1.8-1.2-2.8-3.2-2.8-5.3v-36.1c0-12.5 10.1-22.6 22.6-22.6h7.8c12.5 0 22.6 10.1 22.6 22.6v36.1c0 2.1-1.1 4.1-2.8 5.3-2.8 1.8-4.4 4.9-4.4 8.2v34.8c0 4.4 2.5 8.4 6.5 10.3 4.5 2.2 27.8 14 49.4 31.7 1.7 1.4 2.7 3.6 2.7 5.9v24.7c0 5.5 4.4 9.9 9.9 9.9s9.9-4.4 9.9-9.9v-24.7c0-8.2-3.6-15.9-10-21.2-18.9-15.6-39.2-26.9-48.6-31.8v-25.1c4.6-4.8 7.3-11.3 7.3-18.1v-36.1c0-23.4-19-42.4-42.4-42.4h-7.8c-23.4 0-42.4 19-42.4 42.4v36.1c0 6.8 2.6 13.3 7.3 18.1v25.1c-9.5 4.9-29.7 16.3-48.6 31.8-6.3 5.2-10 12.9-10 21.2v24.7c0 5.5 4.4 9.9 9.9 9.9s9.9-4.4 9.9-9.9v-24.7c0-2.3 1-4.4 2.7-5.9 21.5-17.7 44.9-29.5 49.4-31.7 3.9-1.9 6.5-6 6.5-10.3v-34.8h-.2zm401.7 61.6c-18.9-15.6-39.2-26.9-48.6-31.8v-25.1c4.6-4.8 7.3-11.3 7.3-18.1v-36.1c0-23.4-19-42.4-42.4-42.4h-7.8c-23.4 0-42.4 19-42.4 42.4v36.1c0 6.8 2.6 13.3 7.3 18.1v25c-9.5 4.9-29.7 16.3-48.6 31.8-6.3 5.2-10 12.9-10 21.2v24.7c0 5.5 4.4 9.9 9.9 9.9s9.9-4.4 9.9-9.9v-24.7c0-2.3 1-4.4 2.7-5.9 21.5-17.7 44.9-29.5 49.4-31.7 3.9-1.9 6.4-6 6.4-10.3v-34.8c0-3.3-1.7-6.4-4.4-8.2-1.8-1.2-2.8-3.2-2.8-5.3v-36.1c0-12.5 10.1-22.6 22.6-22.6h7.8c12.5 0 22.6 10.1 22.6 22.6v36.1c0 2.1-1.1 4.1-2.8 5.3-2.8 1.8-4.4 4.9-4.4 8.2v34.8c0 4.4 2.5 8.4 6.4 10.3 4.5 2.2 27.9 14 49.4 31.7 1.7 1.4 2.7 3.6 2.7 5.9v24.7c0 5.5 4.4 9.9 9.9 9.9s9.9-4.4 9.9-9.9v-24.7c-.1-8.2-3.7-15.9-10-21.1z" fill-rule="evenodd"/></svg>