<svg width="512" height="512" xmlns="http://www.w3.org/2000/svg"><path d="M476.296 351.664l-1.555.715c.168 2.269.26 4.522.274 6.791l1.616.579c14.084 5.161 21.279 20.676 16.111 34.593l-5.197 13.931c-2.53 6.745-7.545 12.135-14.13 15.12-6.524 2.984-14.038 3.273-20.79.806l-1.632-.593a90.392 90.392 0 0 1-4.664 4.994l.717 1.538c6.264 13.49.304 29.507-13.322 35.704l-13.612 6.212a27.17 27.17 0 0 1-11.37 2.482c-10.594 0-20.288-6.151-24.724-15.667l-.716-1.538a103.32 103.32 0 0 1-6.875.274l-.594 1.614c-2.515 6.73-7.53 12.12-14.13 15.104a26.988 26.988 0 0 1-11.37 2.482c-3.217 0-6.402-.564-9.436-1.675l-14.053-5.147c-6.814-2.497-12.255-7.475-15.288-14.022-3.049-6.532-3.338-13.84-.793-20.601l.58-1.568c-.504-.411-.976-.883-1.464-1.34-32.116 12.47-65.192 25.503-90.952 29.766l26.675-36.511-42.466-114.97 13.17-27.924h-26.309l13.14 27.924-42.466 114.97 27.39 37.425c-74.337-6.304-111.62-57.417-183.03-57.417l14.632-61.847c4.847-4.522 10.624-8.176 16.828-11.45 10.532-5.603 20.989-11.328 31.75-16.413 10.44-4.903 21.233-9.166 31.917-13.612 10.045-4.157 20.212-8.13 30.165-12.409 1.723-.777 3.475-2.558 4.161-4.294 2.226-5.527 4.1-11.206 5.853-16.916 1.342-4.339 2.21-8.617 7.82-9.744 1.402-.32 3.11-2.74 3.368-4.355a372.378 372.378 0 0 0 2.592-25c.122-1.797-.793-4.066-2.012-5.42-7.408-8.223-11.508-17.663-13.185-28.519-.869-5.435-3.933-10.49-5.487-15.835-2.134-7.17-3.887-14.464-5.533-21.757-.58-2.65-.244-5.451-.717-8.177-.64-3.928-.487-6.942 4.268-8.48 1.341-.411 2.378-3.533 2.47-5.42.243-11.633.076-8.801.137-20.48.045-7.14 0-14.357.503-21.498 1.02-13.658 9.13-23.296 19.266-31.579 14.846-12.135 32.588-17.783 50.91-22.062 9.557-2.223 19.373-3.593 29.128-5.146 2.591-.396 5.259-.046 7.941-.046.427.655.87 1.325 1.342 1.995-2.073 1.462-4.299 2.71-6.082 4.43-4.009 3.914-3.613 6.67.625 10.232 8.825 7.37 17.635 14.77 26.247 22.397 7.515 6.715 10.457 15.47 10.457 25.367.03 16.976.03 19.428.03 36.42-.03 3.456-.259 6.943 4.085 8.45.93.335 1.875 2.238 1.814 3.289-.762 8.709-1.692 17.342-2.622 26.066-.046.335-.091.716-.29.96-7.91 11.389-8.87 25.396-14.525 37.623-.244.456-.366.99-.686 1.37-10.487 12.196-7.195 26.858-7.454 40.836 0 1.43 1.037 3.639 2.21 4.156 4.253 1.858 5.29 5.466 6.448 9.334 1.905 6.014 3.719 12.089 6.34 17.86.991 2.085 3.872 3.897 6.265 4.796 2.76 1.05 5.533 2.162 8.292 3.212 1.92-.41 3.902-.7 5.914-.7 3.17 0 6.265.533 9.207 1.63l1.585.578a90.69 90.69 0 0 1 4.664-5.01l-.716-1.537c-6.265-13.475-.29-29.508 13.322-35.705l13.626-6.212a27.271 27.271 0 0 1 11.356-2.467c10.593 0 20.288 6.152 24.723 15.668l.716 1.522c2.287-.152 4.573-.259 6.875-.259l.594-1.614c3.918-10.49 14.267-17.54 25.76-17.54 3.14 0 6.219.548 9.16 1.614l14.07 5.162c14.068 5.13 21.278 20.646 16.11 34.578l-.594 1.598a96.77 96.77 0 0 1 5.03 4.629l1.57-.716a27.155 27.155 0 0 1 11.371-2.466c10.594 0 20.288 6.151 24.708 15.667l6.265 13.475c3.048 6.532 3.338 13.84.807 20.585-2.515 6.76-7.53 12.135-14.13 15.135zm2.439-30.147l-6.28-13.475c-3.08-6.654-11.051-9.577-17.758-6.517l-10.746 4.903c-5.258-6.456-11.355-11.968-18.077-16.55l4.1-10.994c2.546-6.866-.99-14.51-7.926-17.037l-14.069-5.162c-6.706-2.451-14.724 1.218-17.208 7.857l-4.1 11.008c-8.094-.868-16.386-.563-24.602.929l-4.954-10.628c-3.079-6.654-11.066-9.577-17.757-6.501l-13.627 6.197c-6.707 3.06-9.648 10.962-6.57 17.585l4.954 10.643a84.612 84.612 0 0 0-16.72 17.921l-11.097-4.065c-6.691-2.482-14.724 1.187-17.209 7.841l-5.197 13.947a13.15 13.15 0 0 0 .396 10.14c1.494 3.213 4.192 5.664 7.53 6.882l11.127 4.066c-.9 8.024-.595 16.23.93 24.346l-10.746 4.902c-6.707 3.06-9.649 10.948-6.57 17.586l6.28 13.49c3.079 6.639 11.05 9.562 17.757 6.502l10.746-4.888a84.59 84.59 0 0 0 18.093 16.535l-4.1 11.009c-1.25 3.334-1.098 6.927.396 10.14 1.479 3.213 4.161 5.664 7.515 6.897l14.084 5.147c3.353 1.233 6.98 1.08 10.227-.381 3.247-1.492 5.731-4.141 6.966-7.46l4.1-11.009a85.828 85.828 0 0 0 24.617-.929l4.938 10.643c3.095 6.623 11.066 9.547 17.773 6.486l13.611-6.197c6.707-3.06 9.664-10.962 6.57-17.6l-4.954-10.628a84.802 84.802 0 0 0 16.706-17.906l11.127 4.05a13.42 13.42 0 0 0 10.243-.396 13.264 13.264 0 0 0 6.966-7.445l5.197-13.932c2.56-6.866-.99-14.495-7.941-17.052l-11.112-4.05c.884-8.04.58-16.231-.93-24.362l10.731-4.903c6.707-3.045 9.649-10.947 6.57-17.585zm-78.91 85.553c-7.027 3.198-14.48 4.827-22.148 4.827-20.623 0-39.523-11.983-48.135-30.512-12.21-26.265-.58-57.478 25.958-69.552 7.011-3.197 14.465-4.827 22.132-4.827 20.623 0 39.523 11.968 48.135 30.498 12.225 26.28.564 57.477-25.942 69.566zm13.398-63.857c-6.372-13.703-20.349-22.549-35.607-22.549-5.67 0-11.172 1.203-16.37 3.563-19.617 8.953-28.214 32.035-19.19 51.448 6.371 13.703 20.348 22.564 35.606 22.564 5.67 0 11.173-1.202 16.37-3.578 19.617-8.937 28.214-32.02 19.19-51.448z" fill="#444" fill-rule="evenodd"/></svg>