<svg width="512" height="512" xmlns="http://www.w3.org/2000/svg"><g fill-rule="evenodd"><path d="M387.892 309.224h-24.573v80.924h68.934V365.55h-44.361z"/><path d="M376.805 268.046c-26.986 0-51.516 10.447-69.96 27.418l-3.7-1.707-25.339-21.4-43.552 43.364-43.667-43.363-25.339 21.399-52.744 24.308c-7.806 3.212-14.73 8.753-19.37 16.552l-75.12 125.675h304.717c15.77 9.723 34.257 15.424 54.089 15.424 57.196 0 103.74-46.59 103.74-103.842 0-57.253-46.53-103.842-103.74-103.842l-.015.014zm0 176.91c-40.241 0-72.995-32.787-72.995-73.068 0-40.28 32.754-73.067 72.995-73.067 40.242 0 72.996 32.786 72.996 73.067 0 40.281-32.754 73.067-72.996 73.067z"/><path d="M233.908 277.581v.029c.057 0 .1-.015.144-.015.029 0 .072.015.101.015h.073c.043 0 .086-.015.1-.015.059 0 .102.015.145.015v-.029c61.504.94 98.898-52.941 99.852-141.765.622-61.622-37.553-96.868-99.736-98.518v-.014c-.087 0-.16.014-.26.014v-.014c-.058 0-.087 0-.13.014-.044-.014-.087-.014-.145-.014v.014c-.087 0-.173-.014-.246-.014v.014c-62.169 1.664-100.358 36.896-99.75 98.518.968 88.824 38.347 142.691 99.852 141.765z"/></g></svg>