<svg width="512" height="512" xmlns="http://www.w3.org/2000/svg"><path d="M128.144 212.108l65.056-63.73 18.975 20.335 16.264-69.156-69.116 14.917 20.324 20.342-63.695 63.731zm280.55 82.729l-63.695 63.737-20.324-20.342-14.91 69.162 69.13-16.28-20.343-18.985 63.713-63.731zM251.48 450.79c-2.704-5.425-5.421-5.425-9.481-6.787-20.33-8.143-37.95-10.843-56.925-17.63-1.355-1.356-6.776-4.068-6.776-13.555 0-4.068-1.356-6.774-5.422-6.774-1.367 0-1.367 0-1.367-2.694-1.355-9.493-1.355-13.561-1.355-14.936 0-1.362 1.355-2.694 1.355-2.694 6.777-9.493 8.138-20.347 9.487-27.122 0 0 1.356 1.368 2.711-2.706 1.355-4.08 1.355-5.425 2.705-10.855 1.361-4.068 1.361-10.843-2.705-10.843-2.71 1.356-2.71 0-2.71-2.712V305.71c-1.362-9.487-6.777-14.911-10.843-17.624-6.777-4.074-8.132-5.424-10.843-8.142-2.71-2.7-2.71-5.425 0-8.137 1.355-1.362 2.71-2.706 4.066-2.706h-1.355c-1.368 0-16.265 2.706-21.686 4.068-10.843 2.706-21.685 6.775-31.173 13.55-6.776 5.424-12.204 10.854-12.204 18.99v25.773c0 1.368 0 4.068-2.705 2.712-5.42 0-2.71 9.48-2.71 10.843 1.361 5.424 2.71 6.774 4.066 10.855 1.367 2.706 2.71 2.706 2.71 2.706 1.362 6.775 4.067 18.992 9.488 27.122 1.355 1.35 1.355 2.694 1.355 4.069-1.355 5.418-1.355 10.842-1.355 14.91 0 1.363-1.368 2.719-2.71 2.719-4.067 0-5.422 2.694-5.422 6.774 0 6.775-4.072 12.205-6.777 13.55-9.481 4.068-44.732 14.935-55.575 17.629-8.132 2.7-9.481 5.424-10.843 8.136L17 476.573h243.955l-9.475-25.784zm239.4-205.978h-244.3l10.28-26.474c1.476-2.96 3.073-6.133 11.768-9.027 11.151-2.785 44.738-13.56 54.098-17.58 1.924-.957 5.857-5.71 5.857-12.17 0-6.847 3.77-8.287 6.934-8.287.509 0 1.18-.679 1.18-1.193 0-4.087 0-9.687 1.416-15.293-.048-.878-.048-1.707-.968-2.621-5.294-6.611-8.072-17.63-9.723-25.693-.793-.418-1.81-1.308-2.747-3.173-.605-1.768-1.132-2.912-1.646-4.062-.829-1.822-1.676-3.711-2.53-7.108-.054-.563-.126-.938-.205-1.428-.599-3.524-1.07-7.471.865-9.76.593-.696 1.676-1.531 3.516-1.531l.671.157c.412.206.593.212.6.212-.08-.14-.08-1.223-.08-1.574V72.435c0-9.178 6.311-14.996 12.774-20.166 8.567-6.133 18.932-10.65 31.741-13.852 3.128-.78 8.265-1.06 11.72-1.06 7.043 0 7.424.903 7.745 1.702l.387.938-.792.963c-2.13 2.131-2.13 3.869 0 5.994 2.614 2.615 3.914 3.929 10.546 7.912 3.703 2.47 10.05 8.13 11.563 18.713l.018 25.984c0 1.992-.309 3.16-.496 3.857a1.105 1.105 0 0 1-.043.151c1.083.224 1.997.83 2.68 1.786 2.082 2.894 1.429 8.137.485 10.958-.654 1.98-.986 3.305-1.325 4.631-.345 1.387-.69 2.773-1.386 4.856-.278.835-1.04 3.142-2.662 3.79-.2 4.758-1.483 15.419-8.392 25.093-.545.576-1.077 1.369-1.077 1.829 0 1.32 0 5.321 1.343 14.705.012.57.012 1.053.024 1.41 3.134.05 6.783 1.544 6.783 8.289 0 7.38 3.503 10.176 5.385 11.678.254.206.478.381.665.55 8.09 2.683 15.617 4.753 22.896 6.745 11.133 3.051 21.65 5.94 33.805 10.813.502.163 1.065.326 1.597.49 3.262.975 6.081 1.81 8.683 7.017l10.347 26.601zm-239.884-3.027h235.467l-8.695-22.351c-1.955-3.905-3.77-4.444-6.777-5.34-.563-.17-1.15-.345-1.773-.551-12.083-4.837-22.52-7.7-33.563-10.728-7.418-2.034-15.078-4.135-23.361-6.895l-.593-.37c-.163-.17-.412-.357-.696-.587-2.124-1.695-6.522-5.213-6.522-14.045 0-4.626-1.882-5.261-3.91-5.261-2.885 0-2.885-1.593-2.885-4.226-1.362-9.378-1.362-13.55-1.362-14.917 0-1.932 1.622-3.602 1.81-3.784 7.127-10.013 7.69-21.437 7.69-24.695v-3.65l2.1 2.095c.132-.267.393-.763.683-1.641.654-1.986.986-3.312 1.325-4.637.345-1.387.69-2.773 1.386-4.856.895-2.682 1.089-6.623-.073-8.233-.314-.436-.665-.624-1.198-.624h-.63l-.44-.442c-1.271-1.277-1.138-2.258-.842-3.408.17-.63.393-1.49.393-3.082V73.791c-1.337-9.202-6.946-14.22-10.177-16.37-6.867-4.135-8.271-5.533-11.054-8.324-2.747-2.755-3.213-5.734-1.392-8.567-.865-.079-2.106-.14-3.806-.14-4.247 0-8.664.388-10.982.976-12.44 3.105-22.46 7.464-30.646 13.325-7.122 5.696-11.575 10.679-11.575 17.75v25.766c0 1.138 0 4.601-2.947 4.601-.49 0-1.004-.12-1.567-.357-.52.055-.756.26-.907.442-1.186 1.405-.49 5.54-.194 7.301.127.739.206 1.296.206 1.568.738 2.76 1.5 4.444 2.311 6.224.557 1.235 1.12 2.47 1.676 4.153.756 1.47 1.446 1.683 1.452 1.683h1.24l.061 1.199c1.567 7.815 4.217 18.918 9.179 25.118 1.7 1.677 1.7 3.53 1.7 5.013-1.373 5.612-1.373 10.994-1.373 14.923 0 2.167-2.045 4.22-4.205 4.22-2.033 0-3.91.635-3.91 5.26 0 7.598-4.543 13.392-7.61 14.918-9.537 4.092-43.408 14.965-54.53 17.738-7.4 2.47-8.579 4.825-9.831 7.32l-8.653 22.254z" fill-rule="evenodd"/></svg>