<svg width="512" height="512" xmlns="http://www.w3.org/2000/svg"><g fill-rule="evenodd"><path d="M405.147 86.7c14.262 0 25.865-11.597 25.865-25.852C431.012 46.596 419.41 35 405.147 35c-14.264 0-25.869 11.596-25.869 25.85 0 14.254 11.605 25.85 25.87 25.85zm-47.498 70.643a10.818 10.818 0 0 0 5.026 1.236c4.071 0 7.77-2.241 9.654-5.848l7.063-13.528v19.876a5.369 5.369 0 0 0 5.365 5.361h42.286a5.37 5.37 0 0 0 5.366-5.36v-21.127l7.717 14.778a10.857 10.857 0 0 0 10.441 5.818 10.802 10.802 0 0 0 4.238-1.206 10.794 10.794 0 0 0 5.347-6.379 10.78 10.78 0 0 0-.733-8.288L434.98 95.86c-1.882-3.605-4.702-5.844-9.655-5.844h-38.454c-4.638 0-7.652 2.504-9.395 5.844l-24.44 46.815a10.792 10.792 0 0 0-.735 8.288 10.805 10.805 0 0 0 5.348 6.379zm47.498 33.552c-14.264 0-25.869 11.595-25.869 25.849s11.605 25.851 25.87 25.851c14.26 0 25.864-11.597 25.864-25.851s-11.603-25.85-25.865-25.85zm29.833 60.86a10.855 10.855 0 0 0-9.655-5.844h-38.454c-4.58 0-7.652 2.505-9.395 5.844l-24.44 46.814a10.792 10.792 0 0 0-.735 8.289 10.8 10.8 0 0 0 5.347 6.378 10.834 10.834 0 0 0 5.026 1.236c4.071 0 7.77-2.24 9.654-5.847l7.063-13.528v19.876a5.369 5.369 0 0 0 5.365 5.36h42.287a5.37 5.37 0 0 0 5.365-5.36v-21.127l7.717 14.779a10.856 10.856 0 0 0 10.441 5.818 10.802 10.802 0 0 0 4.238-1.207 10.796 10.796 0 0 0 5.347-6.378c.872-2.77.613-5.715-.733-8.289l-24.438-46.814zm-3.968 120.883c0-14.253-11.603-25.849-25.865-25.849-14.264 0-25.869 11.596-25.869 25.85 0 14.254 11.605 25.85 25.87 25.85 14.26 0 25.864-11.596 25.864-25.85zm3.968 35.012a10.855 10.855 0 0 0-9.655-5.844h-38.454c-4.697 0-7.652 2.504-9.395 5.844l-24.44 46.815a10.792 10.792 0 0 0-.735 8.288 10.8 10.8 0 0 0 5.347 6.379 10.818 10.818 0 0 0 5.026 1.235c4.071 0 7.77-2.24 9.654-5.847l7.063-13.528v19.876a5.369 5.369 0 0 0 5.365 5.361h42.287a5.37 5.37 0 0 0 5.365-5.36v-21.127l7.717 14.778a10.856 10.856 0 0 0 10.441 5.819 10.786 10.786 0 0 0 4.238-1.207 10.796 10.796 0 0 0 5.347-6.379c.872-2.77.613-5.714-.733-8.288L434.98 407.65zm-96.199-301.08c4.74 0 8.58-3.838 8.58-8.574 0-4.735-3.84-8.573-8.58-8.573h-53.139c-6.834 0-12.394 5.556-12.394 12.384v158.375h-15.753c-4.739 0-8.58 3.838-8.58 8.573s3.841 8.573 8.58 8.573h15.753v158.374c0 6.828 5.56 12.383 12.394 12.383h53.14c4.739 0 8.58-3.838 8.58-8.573s-3.841-8.573-8.58-8.573h-48.373v-153.61h48.372c4.74 0 8.58-3.839 8.58-8.574 0-4.735-3.84-8.573-8.58-8.573H290.41V106.57h48.372zM142.81 175.896c-49.785 0-90.287 40.467-90.287 90.209 0 49.743 40.502 90.21 90.286 90.21s90.285-40.467 90.285-90.21c0-49.741-40.501-90.209-90.285-90.209zm0 163.274c-40.322 0-73.126-32.776-73.126-73.064 0-40.287 32.804-73.062 73.125-73.062 40.32 0 73.124 32.775 73.124 73.062s-32.803 73.064-73.124 73.064z"/><path d="M192.866 226.175c-4.958-3.913-12.153-3.068-16.069 1.886l-41.99 53.123-28.054-21.243c-5.034-3.813-12.21-2.826-16.029 2.205-3.816 5.03-2.828 12.202 2.207 16.014l34.71 26.285a14.26 14.26 0 0 0 8.64 2.889c4.262 0 8.49-1.87 11.302-5.428l47.168-59.676c3.918-4.953 3.073-12.141-1.885-16.055z"/></g></svg>