<svg width="512" height="512" xmlns="http://www.w3.org/2000/svg"><path d="M482.986 477.226h-97.752l35.384-35.384-11.067-11.066h15.904l-19.947-19.948c44.62 4.398 77.478 21.352 77.478 66.412v-.014zm-136.583-46.45h-15.919l19.948-19.948c-44.591 4.384-77.45 21.338-77.45 66.398h97.738l-35.37-35.384 11.053-11.052v-.014zm71.363-91.907c-1.433 19.848-9.917 42.96-22.062 55.402h46.96v-52.366c0-54.763-28.956-75.562-64.68-75.562-35.724 0-64.68 20.799-64.68 75.562v52.366h46.946c-11.748-12.016-20.061-34.092-21.934-53.458l.454-.029c20.203 0 37.654-8.37 47.258-20.685 7.023 9.01 18.274 15.748 31.752 18.77h-.014zM356.66 214.402l-30.474-18.713-7.066 11.534 49.954 30.66 30.66-49.969-11.535-7.08-18.472 30.092C350.333 142.67 295.682 93.014 230.505 77.124l3.575 15.025c57.488 16.471 105.158 61.332 122.566 122.282l.014-.029zm-242.35 96.064l33.07 13.634 5.136-12.485L98.32 289.27l-22.33 54.21 12.5 5.179 13.463-32.646c29.964 64.312 91.836 104.647 158.701 109.982l-5.93-14.259c-59.332-7.122-113.557-43.84-140.428-101.284l.014.014zM140.825 34.76c.865 0 1.717.057 2.582.085.27 0 .568-.056.851-.085h-3.433zm39.583 139.719l-25.396 49.826-4.086-32.376 6.285-5.15-29.127.014 6.286 5.15-3.973 32.39-25.48-49.77c-44.223 6.016-75.96 25.013-75.904 71.094l227.412-.27c-.015-46.08-31.795-64.992-76.003-70.908h-.014zm-38.15-4.682h.865c-.17 0-.312-.043-.496-.014-.114 0-.241 0-.37.014zm-47.443-51.6c.127-.014.241-.142.34-.199 7.647 27.595 27.439 48.238 47.472 48.663 18.302-.85 40.718-21.167 48.138-48.634 3.447.198 6.852-3.86 7.86-9.52.964-5.86-1.135-11.137-4.682-11.72-.241-.028-.44.1-.667.114-1.107-45.442-22.672-61.403-49.869-62.07-28.02.184-53.075 19.678-51.458 62.212-.255-.014-.51-.17-.78-.127-3.547.61-5.619 5.873-4.625 11.747 1.035 5.873 4.724 10.144 8.285 9.534h-.014z" fill-rule="evenodd"/></svg>