<svg width="512" height="512" xmlns="http://www.w3.org/2000/svg"><g fill-rule="evenodd"><path d="M201.375 366.969c0-65.13 41.289-120.793 99.073-142.209 7.015-15.738 11.177-33.227 11.177-50.729 0-68.506 0-124.031-82.688-124.031-82.687 0-82.687 55.525-82.687 124.031 0 42.667 24.765 85.32 55.125 102.422v22.726C107.883 306.827 36 352.76 36 408.299h171.108c-3.735-13.148-5.733-27.012-5.733-41.344v.014z"/><path d="M352.969 242.938c-68.507 0-124.031 55.524-124.031 124.03 0 68.507 55.524 124.032 124.03 124.032C421.476 491 477 435.475 477 366.969c0-68.507-55.525-124.031-124.031-124.031zm68.906 137.812H284.062v-27.563h137.813v27.563z"/></g></svg>