<svg width="512" height="512" xmlns="http://www.w3.org/2000/svg"><path d="M442.913 37H169.271c-3.012 0-5.69 1.359-7.535 3.461-1.548 1.763-2.527 4.049-2.527 6.593v86.051h-39.96c-3.007 0-5.68 1.369-7.53 3.461v.01c-1.553 1.754-2.527 4.049-2.527 6.583v86.061H69.223c-3.007 0-5.686 1.36-7.53 3.461-1.549 1.764-2.528 4.05-2.528 6.593v225.147c0 5.545 4.509 10.054 10.058 10.054H342.87c5.549 0 10.063-4.51 10.063-10.054v-86.056h39.963c5.545 0 10.058-4.5 10.058-10.049V282.26h39.964c5.55 0 10.058-4.51 10.058-10.054V47.059C452.971 41.509 448.463 37 442.913 37zm-53.292 15.608c6.288 0 11.394 5.088 11.394 11.38 0 6.292-5.106 11.39-11.394 11.39-6.298 0-11.4-5.098-11.4-11.39 0-6.292 5.102-11.38 11.4-11.38zm-33.643 0c6.288 0 11.39 5.088 11.39 11.38 0 6.292-5.102 11.39-11.39 11.39-6.298 0-11.4-5.098-11.4-11.39 0-6.292 5.102-11.38 11.4-11.38zM330.195 450.85H82.646V290.028H330.19V450.85h.005zM244.53 256.213c0-6.292 5.102-11.38 11.4-11.38 6.287 0 11.39 5.088 11.39 11.38 0 6.292-5.103 11.39-11.39 11.39-6.298-.006-11.4-5.103-11.4-11.39zm33.643 0c0-6.292 5.102-11.38 11.404-11.38 6.288 0 11.395 5.088 11.395 11.38 0 6.292-5.107 11.39-11.395 11.39-6.302-.006-11.404-5.103-11.404-11.39zm44.425 11.384c-6.292 0-11.394-5.097-11.394-11.389 0-6.292 5.102-11.38 11.394-11.38 6.298 0 11.4 5.088 11.4 11.38 0 6.292-5.102 11.39-11.4 11.39zm57.619 87.148h-27.29V239.284c0-5.55-4.513-10.06-10.067-10.06H132.663V193.91h247.549v160.836h.005zm-85.665-194.642c0-6.292 5.111-11.39 11.4-11.39 6.297 0 11.399 5.098 11.399 11.39 0 6.292-5.102 11.38-11.4 11.38-6.288 0-11.4-5.088-11.4-11.38zm33.647 0c0-6.292 5.102-11.39 11.395-11.39 6.293 0 11.4 5.098 11.4 11.39 0 6.292-5.107 11.38-11.4 11.38s-11.395-5.088-11.395-11.38zm44.426 11.38c-6.297 0-11.404-5.088-11.404-11.38 0-6.292 5.107-11.39 11.404-11.39 6.288 0 11.4 5.098 11.4 11.39 0 6.292-5.112 11.38-11.4 11.38zm57.614 87.142h-27.29V143.17c0-5.54-4.513-10.059-10.062-10.059H182.695V97.804h247.544v160.821zm-7.597-183.252c-6.288 0-11.39-5.098-11.39-11.39 0-6.292 5.102-11.38 11.39-11.38 6.298 0 11.4 5.088 11.4 11.38 0 6.292-5.102 11.39-11.4 11.39z" fill-rule="evenodd"/></svg>