<svg width="512" height="512" xmlns="http://www.w3.org/2000/svg"><path d="M498.694 425.468L283.787 53.31c-5.6-9.775-16.088-15.822-27.349-15.822S234.72 43.55 229.09 53.294L13.208 427.17c-5.616 9.728-5.616 21.808 0 31.552 5.63 9.76 16.102 15.807 27.348 15.807h431.888c17.387 0 31.556-14.168 31.556-31.568-.015-6.511-1.934-12.76-5.306-17.477v-.016zm-227.36-248.085l-4.965 169.932h-27.163l-4.95-169.932h37.094-.015zm-18.547 240.893c-12.9 0-22.29-9.806-22.29-23.339 0-13.487 9.374-23.293 22.29-23.293 13.133 0 22.322 9.59 22.322 23.293 0 13.75-9.189 23.34-22.321 23.34z" fill-rule="evenodd"/></svg>