<svg width="512" height="512" xmlns="http://www.w3.org/2000/svg"><g fill-rule="evenodd"><path d="M418.175 143.033c-.026-1.993-.675-3.958-2.09-5.51l-86.66-95.612c-.018-.024-.043-.033-.068-.058a8.59 8.59 0 0 0-1.748-1.42 9.16 9.16 0 0 0-.577-.334 9.654 9.654 0 0 0-1.739-.702c-.162-.048-.309-.11-.473-.154a9.293 9.293 0 0 0-2.022-.243H109.834c-9.716 0-17.625 7.641-17.625 17.024v400.055c0 9.388 7.91 17.023 17.625 17.023h290.803c9.723 0 17.625-7.635 17.625-17.023V143.984c0-.317-.051-.637-.087-.95zm-251.957 298.34l-7.666-14.807c-3.14-5.708-5.146-9.955-7.534-14.684h-.252c-1.758 4.729-3.892 8.976-6.53 14.684l-7.036 14.808h-21.855l24.499-41.387-23.617-40.401h21.986l7.411 14.933c2.511 4.969 4.397 8.968 6.411 13.582h.246c2.014-5.22 3.644-8.858 5.776-13.582l7.165-14.933h21.854L163.21 399.5l25.129 41.875h-22.12v-.001zm85.284 0h-52.89v-81.787h19.223v66.244h33.667v15.544zm32.025 1.206c-9.669 0-19.213-2.426-23.987-4.974l3.888-15.287c5.153 2.543 13.071 5.091 21.229 5.091 8.8 0 13.442-3.512 13.442-8.86 0-5.088-4.019-8.005-14.194-11.521-14.066-4.73-23.241-12.253-23.241-24.147 0-13.953 12.057-24.63 32.039-24.63 9.54 0 16.584 1.937 21.6 4.127l-4.267 14.926c-3.395-1.575-9.423-3.886-17.716-3.886-8.291 0-12.306 3.638-12.306 7.893 0 5.215 4.772 7.522 15.701 11.52 14.949 5.347 21.98 12.863 21.98 24.39 0 13.712-10.929 25.358-34.168 25.358zm91.697-1.205l-7.667-14.808c-3.142-5.708-5.147-9.955-7.54-14.684h-.24c-1.756 4.729-3.898 8.976-6.537 14.684l-7.036 14.808h-21.857l24.497-41.387-23.619-40.401h21.987l7.419 14.933c2.509 4.969 4.388 8.968 6.398 13.582h.254c2.005-5.22 3.64-8.858 5.779-13.582l7.16-14.933h21.858L372.214 399.5l25.123 41.875h-22.113v-.001zM109.834 328.05V56.028h204.152v87.103c0 4.699 3.942 8.51 8.812 8.51h77.839l.008 176.41H109.834z"/><path d="M285.39 148.263H139.256v131.934h223.607V148.262H285.39zm0 63.84h-68.66v-27.664h68.66v27.663zm-141.727-59.584h68.66v27.663h-68.66V152.52zm0 31.92h68.66v27.663h-68.66V184.44zm0 31.919h68.66v27.662h-68.66v-27.662zm0 59.584v-27.666h68.66v27.666h-68.66zm73.066 0v-27.666h68.66v27.666h-68.66zm141.731 0h-68.665v-27.666h68.66v27.666h.005zm0-63.84h-68.665V184.44h68.66v27.663h.005zm-68.664-31.92V152.52h68.66v27.663h-68.66z"/></g></svg>