<svg width="512" height="512" xmlns="http://www.w3.org/2000/svg"><g fill-rule="evenodd"><path d="M465.98 107.754h-26.206V81.577c0-13.612-6.465-27.4-16.772-35.95-8.387-6.981-18.52-9.599-28.653-7.505L45.63 107.754C22.043 108.278 3 127.65 3 151.383v279.225c0 24.083 19.567 43.629 43.677 43.629H465.98c24.11 0 43.677-19.546 43.677-43.629V151.383c0-24.083-19.567-43.629-43.677-43.629zm-68.137-52.53c6.115-1.22 11.182 1.397 14.152 4.015 6.29 5.235 10.308 13.961 10.308 22.338v26.177H134.906l262.937-52.53zm68.137 401.561H46.677c-14.5 0-26.206-11.692-26.206-26.177V151.383c0-14.485 11.705-26.177 26.206-26.177H465.98c14.501 0 26.206 11.692 26.206 26.177v43.629H291.271c-4.892 0-8.736 3.84-8.736 8.726v174.515c0 4.887 3.844 8.726 8.736 8.726h200.915v43.629c0 14.485-11.705 26.177-26.206 26.177zm26.206-244.322v157.065h-192.18V212.463h192.18z"/><path d="M168.974 147.02H46.677c-2.446 0-4.367 1.92-4.367 4.363v104.71c0 2.443 1.921 4.362 4.367 4.362 2.446 0 4.368-1.92 4.368-4.363V155.746h117.929c2.446 0 4.368-1.92 4.368-4.363 0-2.443-1.922-4.363-4.368-4.363zm222.755 187.604c24.11 0 43.677-19.545 43.677-43.628 0-24.084-19.568-43.63-43.677-43.63-24.11 0-43.678 19.546-43.678 43.63 0 24.083 19.568 43.628 43.678 43.628zm0-69.806c14.5 0 26.206 11.693 26.206 26.178 0 14.484-11.706 26.177-26.206 26.177-14.501 0-26.207-11.693-26.207-26.177 0-14.485 11.706-26.178 26.207-26.178z"/><path d="M377.752 298.849c2.446 0 4.368-1.92 4.368-4.363 0-7.155 5.94-13.089 13.103-13.089 2.446 0 4.367-1.92 4.367-4.363 0-2.443-1.921-4.363-4.367-4.363-12.055 0-21.839 9.773-21.839 21.815 0 2.443 1.922 4.363 4.368 4.363z"/></g></svg>