<svg width="512" height="512" xmlns="http://www.w3.org/2000/svg"><g fill-rule="evenodd"><path d="M419.95 142.503c-.026-2-.683-3.975-2.105-5.537l-87.052-96.041c-.018-.027-.044-.036-.07-.06-.518-.56-1.114-1.022-1.754-1.429-.19-.119-.381-.225-.58-.334a9.748 9.748 0 0 0-1.746-.706c-.164-.046-.311-.111-.476-.152a8.987 8.987 0 0 0-2.031-.244h-213.94c-9.76 0-17.704 7.674-17.704 17.102v401.886c0 9.432 7.944 17.102 17.705 17.102H402.33c9.769 0 17.706-7.67 17.706-17.102V143.46c0-.322-.052-.637-.087-.958zM230.197 452.469h-83.483v-12.617l51.146-71.095v-.622h-46.365V348.75h77.911v13.544l-50.031 70.176v.61h50.822v19.39zm39.69 0h-24.38V348.75h24.38v103.72zm88.267-47.547c-8.282 7.54-20.548 10.923-34.89 10.923-3.191 0-6.052-.15-8.282-.46v37.093h-24.06V350.136c7.488-1.236 18-2.155 32.817-2.155 14.982 0 25.65 2.764 32.825 8.309 6.848 5.23 11.472 13.844 11.472 24.007 0 10.155-3.51 18.777-9.882 24.625zm-247.957-76.551V55.102h105.876v-2.688h26.849v2.688h72.361v87.499c0 4.72 3.96 8.55 8.853 8.55h78.195l.01 177.22H110.196z"/><path d="M325.018 365.676c-4.945 0-8.29.464-10.037.927v30.621c2.066.463 4.616.622 8.126.622 12.899 0 20.87-6.318 20.87-16.926 0-9.55-6.856-15.244-18.959-15.244zM242.923 69.605h26.849v10.701h-26.849zm-26.85-14.503h26.849v8.016h-26.849zm0 30.518h26.849v10.701h-26.849zm26.85 17.519h26.849v10.703h-26.849zm0 33.815h26.849v10.701h-26.849zm-26.85-17.187h26.849v10.701h-26.849zm26.85 36.627c-19.011 0-28.054 14.878-28.054 33.245l-6.365 55.697c0 18.367 15.404 33.255 34.414 33.255 19.008 0 34.405-14.888 34.405-33.255l-6.345-55.697c.008-18.363-9.043-33.245-28.055-33.245zm11.407 107.592h-22.787V217.49h22.787v46.497z"/></g></svg>