<svg width="512" height="512" xmlns="http://www.w3.org/2000/svg"><path d="M481.567 223.722c-.71-6.382-8.158-11.175-14.599-11.175-20.799 0-39.257-12.21-47.003-31.087-7.902-19.344-2.81-41.893 12.698-56.103 4.88-4.467 5.476-11.927 1.39-17.117-10.655-13.516-22.742-25.726-35.965-36.306-5.164-4.14-12.769-3.574-17.252 1.39-13.535 14.976-37.838 20.55-56.623 12.707-19.536-8.211-31.865-28.01-30.659-49.268.398-6.68-4.483-12.48-11.137-13.26a226.967 226.967 0 0 0-51.075-.127c-6.569.723-11.45 6.396-11.236 12.99.737 21.046-11.733 40.49-31.085 48.417-18.557 7.573-42.69 2.056-56.197-12.792-4.469-4.893-11.932-5.488-17.124-1.432-13.606 10.664-25.978 22.889-36.717 36.29-4.186 5.206-3.576 12.764 1.347 17.246 15.805 14.31 20.899 37.057 12.698 56.614-7.831 18.649-27.211 30.675-49.387 30.675-7.193-.227-12.314 4.61-13.109 11.147-2 17.046-2.014 34.42-.1 51.593.724 6.41 8.386 11.161 14.884 11.161 19.777-.496 38.746 11.729 46.705 31.087 7.93 19.344 2.823 41.879-12.698 56.117-4.852 4.468-5.476 11.913-1.376 17.09 10.541 13.43 22.657 25.64 35.908 36.32 5.207 4.183 12.77 3.601 17.28-1.362 13.578-15.019 37.881-20.564 56.595-12.721 19.593 8.197 31.922 27.995 30.716 49.239-.398 6.68 4.497 12.494 11.137 13.26a223.79 223.79 0 0 0 26.147 1.517c8.3 0 16.614-.453 24.914-1.375 6.583-.724 11.449-6.396 11.236-12.99-.766-21.032 11.733-40.476 31.07-48.39 18.686-7.629 42.705-2.041 56.212 12.779 4.483 4.878 11.903 5.474 17.124 1.432 13.577-10.636 25.92-22.861 36.717-36.291 4.186-5.205 3.604-12.764-1.348-17.245-15.804-14.296-20.926-37.057-12.712-56.6 7.718-18.408 26.375-30.76 46.436-30.76l2.81.07c6.511.525 12.498-4.48 13.293-11.132 2-17.06 2.029-34.405.1-51.594l-.015-.014zM256 379.722c-72.285 0-130.865-58.57-130.865-130.813 0-72.242 58.594-130.813 130.865-130.813 72.271 0 130.865 58.57 130.865 130.813 0 24.52-6.767 47.452-18.514 67.08l-57.303-57.28a80.091 80.091 0 0 0 6.341-31.314c0-21.428-8.342-41.567-23.508-56.699-15.167-15.132-35.299-23.485-56.722-23.485-7.15 0-14.273.95-21.154 2.822-3.022.823-5.476 3.305-6.285 6.326-.822 3.091.1 6.254 2.526 8.665 0 0 28.29 28.49 37.753 37.95.993.993.993 3.361.85 4.212l-.084.624c-.95 10.395-2.795 22.89-4.313 27.683-.199.199-.397.369-.61.582-.213.212-.412.425-.625.638-4.866 1.56-17.55 3.418-28.12 4.368v-.057l-.482.113a2.988 2.988 0 0 1-.454.029c-1.149 0-2.823-.326-4.355-1.844-9.846-9.842-37.03-36.83-37.03-36.83-2.44-2.425-4.937-2.936-6.61-2.936-3.888 0-7.364 2.808-8.457 6.836-7.476 27.683.454 57.45 20.7 77.702 15.152 15.146 35.299 23.485 56.736 23.485 10.938 0 21.55-2.184 31.326-6.339l57.927 57.904c-20.33 13.005-44.492 20.578-70.426 20.578H256z" fill-rule="evenodd"/></svg>