<svg width="512" height="512" xmlns="http://www.w3.org/2000/svg"><g fill-rule="evenodd"><path d="M263.455 74.314l186.507 371.659H76.934L263.44 74.314h.014zm0-40.314c-9.598 0-19.181 6.466-26.47 19.4L47.002 431.954C32.452 457.821 44.831 479 74.513 479h377.855c29.682 0 42.075-21.165 27.512-47.045L289.896 53.4C282.62 40.466 273.024 34 263.426 34h.029z"/><path d="M291.273 395.563c0 15.366-12.449 27.812-27.818 27.812-15.37 0-27.819-12.446-27.819-27.813 0-15.366 12.449-27.812 27.819-27.812s27.818 12.446 27.818 27.813zm-27.818-55.625c-15.37 0-27.819-12.447-27.819-27.813v-83.438c0-15.366 12.449-27.812 27.819-27.812s27.818 12.446 27.818 27.813v83.437c0 15.366-12.449 27.813-27.818 27.813z"/></g></svg>