<svg width="512" height="512" xmlns="http://www.w3.org/2000/svg"><path d="M34 83.333h49.333V34C56.2 34 34 56.2 34 83.333zm0 197.334h49.333v-49.334H34v49.334zM132.667 478H182v-49.333h-49.333V478zM34 182h49.333v-49.333H34V182zM280.667 34h-49.334v49.333h49.334V34zm148 0v49.333H478C478 56.2 455.8 34 428.667 34zM83.333 478v-49.333H34C34 455.8 56.2 478 83.333 478zM34 379.333h49.333V330H34v49.333zM182 34h-49.333v49.333H182V34zm49.333 444h49.334v-49.333h-49.334V478zm197.334-197.333H478v-49.334h-49.333v49.334zm0 197.333C455.8 478 478 455.8 478 428.667h-49.333V478zm0-296H478v-49.333h-49.333V182zm0 197.333H478V330h-49.333v49.333zM330 478h49.333v-49.333H330V478zm0-394.667h49.333V34H330v49.333zm-197.333 296h246.666V132.667H132.667v246.666zM182 182h148v148H182V182z" fill-rule="evenodd"/></svg>