<svg width="512" height="512" xmlns="http://www.w3.org/2000/svg"><g fill-rule="evenodd"><path d="M187.496 243.367h121.088v25.717H187.496z"/><path d="M485.45 423.576l-54.647-43.135c24.16-35.429 38.304-78.2 38.304-124.225 0-121.88-99.163-221.036-221.053-221.036S27 134.344 27 256.225c0 121.881 99.163 221.037 221.054 221.037 64.333 0 122.328-27.632 162.758-71.642l54.72 43.19 19.919-25.234zm-237.396 21.54c-104.161 0-188.906-84.738-188.906-188.89 0-104.153 84.745-188.891 188.906-188.891 104.16 0 188.905 84.738 188.905 188.89 0 104.153-84.744 188.89-188.905 188.89z"/></g></svg>