<svg width="512" height="512" xmlns="http://www.w3.org/2000/svg"><path d="M438.974 305.94c-23.243-40.272-9.261-91.872 31.218-115.331l-43.538-75.433c-12.432 7.298-26.899 11.48-42.335 11.48-46.529 0-84.239-37.972-84.239-84.821h-87.063a83.437 83.437 0 0 1-11.227 42.514c-23.244 40.272-74.909 53.968-115.444 30.62L42.822 190.4a83.396 83.396 0 0 1 31.093 30.938c23.202 40.202 9.303 91.718-31.024 115.205l43.539 75.433c12.39-7.229 26.787-11.356 42.14-11.356 46.376 0 83.99 37.737 84.225 84.365h87.064c-.042-14.32 3.585-28.805 11.227-42.072 23.202-40.202 74.742-53.926 115.25-30.73l43.538-75.432a83.515 83.515 0 0 1-30.9-30.827v.014zM256.5 353.148c-49.533 0-89.694-40.175-89.694-89.725S206.967 173.7 256.5 173.7s89.694 40.174 89.694 89.724c0 49.55-40.161 89.725-89.694 89.725z" fill-rule="evenodd"/></svg>