<svg width="512" height="512" xmlns="http://www.w3.org/2000/svg"><g fill-rule="evenodd"><path d="M263.35 207.87h-25.718v35.476h-35.465v25.716h35.465v35.477h25.717v-35.477h35.466v-25.716h-35.466z"/><path d="M485.409 423.613l-54.644-43.148c24.157-35.44 38.301-78.225 38.301-124.265 0-121.92-99.156-221.108-221.037-221.108C126.156 35.1 27 134.288 27 256.209c0 121.92 99.156 221.108 221.038 221.108 64.329 0 122.32-27.641 162.746-71.656l54.717 43.203 19.908-25.25zM248.038 445.16c-104.154 0-188.892-84.765-188.892-188.951 0-104.187 84.738-188.952 188.892-188.952 104.153 0 188.891 84.765 188.891 188.952 0 104.186-84.738 188.951-188.891 188.951z"/></g></svg>