<svg width="512" height="512" xmlns="http://www.w3.org/2000/svg"><g fill-rule="evenodd"><path d="M491 54.407H21c-5.523 0-10 4.478-10 10v383.186c0 5.523 4.477 10 10 10h470c5.522 0 10-4.477 10-10V64.407c0-5.522-4.478-10-10-10zm-10 20v60.225H31V74.407h450zM31 437.593V154.632h450v282.961H31z"/><path d="M167.082 204.946H87.117c-5.522 0-10 4.477-10 10v80.996c0 5.522 4.478 10 10 10h79.965c5.523 0 10-4.478 10-10v-80.996c0-5.523-4.477-10-10-10zm-10 80.996H97.117v-60.996h59.965v60.996zm58.203 20h79.961c5.522 0 10-4.478 10-10v-80.996c0-5.523-4.478-10-10-10h-79.961c-5.522 0-10 4.477-10 10v80.996c0 5.523 4.478 10 10 10zm10-80.996h59.961v60.996h-59.961v-60.996zm118.17 80.996h79.965c5.523 0 10-4.478 10-10v-80.996c0-5.523-4.477-10-10-10h-79.965c-5.523 0-10 4.477-10 10v80.996c0 5.523 4.478 10 10 10zm10-80.996h59.965v60.996h-59.965v-60.996zM167.082 331.317H87.117c-5.522 0-10 4.477-10 10s4.478 10 10 10h79.965c5.523 0 10-4.477 10-10 0-5.522-4.477-10-10-10zm0 37H87.117c-5.522 0-10 4.477-10 10s4.478 10 10 10h79.965c5.523 0 10-4.477 10-10 0-5.522-4.477-10-10-10zm128.9-37H216.02c-5.522 0-10 4.477-10 10s4.478 10 10 10h79.963c5.523 0 10-4.477 10-10-.001-5.522-4.478-10-10.001-10zm0 37H216.02c-5.522 0-10 4.477-10 10s4.478 10 10 10h79.963c5.523 0 10-4.477 10-10-.001-5.522-4.478-10-10.001-10zm128.901-37h-79.965c-5.522 0-10 4.477-10 10s4.478 10 10 10h79.965c5.522 0 10-4.477 10-10 0-5.522-4.478-10-10-10zm0 37h-79.965c-5.522 0-10 4.477-10 10s4.478 10 10 10h79.965c5.522 0 10-4.477 10-10 0-5.522-4.478-10-10-10zM87.117 114.299h4.938c5.522 0 10-4.478 10-10s-4.478-10-10-10h-4.938c-5.522 0-10 4.478-10 10s4.478 10 10 10zm41.467 0h4.935c5.522 0 10-4.478 10-10s-4.477-10-10-10h-4.935c-5.522 0-10 4.478-10 10s4.478 10 10 10zm41.465 0h4.932c5.522 0 10-4.478 10-10s-4.478-10-10-10h-4.932c-5.522 0-10 4.478-10 10s4.477 10 10 10z"/></g></svg>