<svg width="512" height="512" xmlns="http://www.w3.org/2000/svg"><path d="M471.232 418.812l-105.201-89.476c-10.88-9.785-22.511-14.282-31.907-13.852 24.829-29.09 39.832-66.826 39.832-108.074 0-91.974-74.57-166.545-166.546-166.545-91.974 0-166.545 74.57-166.545 166.545s74.57 166.546 166.545 166.546c41.248 0 78.985-15.003 108.074-39.832-.43 9.396 4.067 21.026 13.852 31.907l89.476 105.201c15.322 17.016 40.346 18.459 55.612 3.192 15.267-15.266 13.838-40.29-3.192-55.612zM207.424 318.455c-61.316 0-111.03-49.714-111.03-111.03 0-61.317 49.714-111.031 111.03-111.031 61.317 0 111.03 49.714 111.03 111.03 0 61.317-49.713 111.03-111.03 111.03zm-83.272-138.788h166.545v55.515H124.152v-55.515z" fill-rule="evenodd"/></svg>