<svg width="512" height="512" xmlns="http://www.w3.org/2000/svg"><path d="M100.574 272v-39.572a3.39 3.39 0 0 0-3.39-3.392H29.39a3.39 3.39 0 0 0-3.39 3.392V272a3.39 3.39 0 0 0 3.39 3.392h67.794a3.39 3.39 0 0 0 3.39-3.392zm75.326-74.623h67.794a3.39 3.39 0 0 0 3.39-3.392v-39.572a3.39 3.39 0 0 0-3.39-3.392H175.9a3.39 3.39 0 0 0-3.39 3.392v39.572a3.391 3.391 0 0 0 3.39 3.392zm180.031 137.561h-67.794a3.39 3.39 0 0 0-3.39 3.391v39.572a3.39 3.39 0 0 0 3.39 3.392h67.794a3.39 3.39 0 0 0 3.39-3.392V338.33a3.39 3.39 0 0 0-3.39-3.392zm127.492-203.419h-67.794a3.39 3.39 0 0 0-3.39 3.392v39.572a3.39 3.39 0 0 0 3.39 3.392h67.794a3.39 3.39 0 0 0 3.39-3.392V134.91a3.39 3.39 0 0 0-3.39-3.392zm-37.666 51.66c-12.48 0-22.598 10.123-22.598 22.612 0 .724.042 1.437.109 2.144L322.77 283.284a22.455 22.455 0 0 0-10.34-2.522c-3.6 0-6.99.864-10.01 2.362l-70.07-54.227c.01-.301.045-.595.045-.898 0-12.488-10.118-22.613-22.598-22.613-12.48 0-22.598 10.125-22.598 22.613 0 .302.034.595.045.893l-66.5 50.874a22.518 22.518 0 0 0-8.684-1.737c-12.48 0-22.598 10.125-22.598 22.613 0 12.489 10.118 22.613 22.598 22.613 12.48 0 22.598-10.124 22.598-22.613 0-.985-.084-1.947-.206-2.899l64.943-49.683a22.472 22.472 0 0 0 20.789.007L289.9 302.02c-.027.45-.069.896-.069 1.354 0 12.488 10.118 22.612 22.598 22.612 12.48 0 22.598-10.124 22.598-22.612 0-.334-.035-.658-.05-.988l101.413-76.035a22.458 22.458 0 0 0 9.366 2.052c12.48 0 22.598-10.125 22.598-22.613 0-12.487-10.117-22.611-22.598-22.611z" fill-rule="evenodd"/></svg>