<svg width="512" height="512" xmlns="http://www.w3.org/2000/svg"><g fill-rule="evenodd"><path d="M405.614 190.524c17.843 0 32.315-14.472 32.315-32.329s-14.472-32.329-32.315-32.329c-17.87 0-32.342 14.472-32.342 32.33 0 17.856 14.471 32.328 32.342 32.328zm21.479 7.867c-.528-.333-1.11-.569-1.665-.805a37.223 37.223 0 0 0-11.78-5.189l-8.034 8.103-7.811-8.2c-.028 0-.056.014-.084.014-4.135.985-8.2 2.747-11.821 5.133-.639.264-1.277.555-1.901.93-25.1 15.387-39.502 27.57-43.956 98.79-.43 6.924 4.842 12.876 11.738 13.306.278.014.541.028.805.028 6.577 0 12.099-5.12 12.529-11.766 1.512-24.045 3.927-39.627 7.437-50.38v43.47c0 3.386.652 6.535 1.804 9.421-.083.666-.167 1.319-.167 1.998l.028 120.172c0 8.186 6.618 14.832 14.819 14.832 8.2 0 14.832-6.646 14.832-14.832V320.283c.583.028 1.18.07 1.776.07.097 0 .222-.015.333-.015v103.078c0 8.2 6.632 14.832 14.832 14.832 8.2 0 14.833-6.632 14.833-14.832l.014-119.422c1.942-3.608 3.08-7.687 3.08-12.155v-43.11c3.427 10.74 5.827 26.238 7.312 50.02.416 6.646 5.952 11.766 12.515 11.766.25 0 .527 0 .791-.028 6.91-.43 12.168-6.396 11.752-13.306-4.454-71.234-18.87-83.403-43.97-98.79h-.041zm-21.41 66.087h-.152l-7.798-10.67 7.798-52.115h.152l7.798 52.115-7.798 10.67zM63.235 217.927c0 12.682 10.267 22.95 22.963 22.95 12.668 0 22.935-10.282 22.935-22.95s-10.281-22.95-22.935-22.95c-12.696 0-22.963 10.282-22.963 22.95zm38.211 28.527c-.374-.222-.79-.402-1.179-.569a26.82 26.82 0 0 0-8.367-3.69l-5.702 5.757-5.564-5.827c-.014 0-.042.014-.056.014a26.862 26.862 0 0 0-8.394 3.649c-.458.194-.916.388-1.346.652-15.873 9.727-25.724 17.69-29.914 55.056h17.912c.985-8.366 2.276-14.68 3.857-19.564v19.564h46.981v-19.314c1.554 4.843 2.803 11.086 3.774 19.314h17.899c-4.176-37.365-14.028-45.316-29.9-55.056v.014zM86.24 293.379h-.097l-5.536-7.576 5.536-36.99h.097l5.536 36.99-5.536 7.576zm67.432-75.452c0 12.682 10.281 22.95 22.963 22.95 12.668 0 22.935-10.282 22.935-22.95s-10.267-22.95-22.935-22.95c-12.682 0-22.963 10.282-22.963 22.95zm38.212 28.527c-.375-.222-.791-.402-1.18-.569a26.54 26.54 0 0 0-8.366-3.69l-5.703 5.757-5.55-5.827c-.014 0-.042.014-.055.014a26.723 26.723 0 0 0-8.395 3.649c-.458.194-.916.388-1.36.652-15.873 9.727-25.724 17.69-29.914 55.056h17.926c.985-8.366 2.276-14.68 3.858-19.564v19.564h46.98v-19.314c1.554 4.843 2.803 11.086 3.774 19.314h17.9c-4.191-37.365-14.042-45.316-29.915-55.056v.014zm-15.221 46.925h-.111l-5.536-7.576 5.536-36.99h.11l5.537 36.99-5.536 7.576zm-45.607-104.784c42.624 0 77.297-34.673 77.297-77.297C208.353 68.674 173.68 34 131.056 34c-42.624 0-77.298 34.674-77.298 77.298s34.674 77.297 77.298 77.297zm0-134.074c31.316 0 56.776 25.46 56.776 56.777 0 31.316-25.474 56.776-56.776 56.776-31.302 0-56.777-25.46-56.777-56.776 0-31.316 25.475-56.777 56.777-56.777z"/><path d="M170.918 103.084H139.27V69.908h-16.414v49.59h48.063zm30.137 305.277l-8.464-3.121a64.461 64.461 0 0 0-.707-18.732l8.172-3.774c5.106-2.345 7.354-8.422 4.995-13.528l-4.773-10.365c-2.345-5.106-8.408-7.353-13.514-4.995l-8.187 3.774a64.241 64.241 0 0 0-13.763-12.723l3.121-8.464c1.943-5.272-.763-11.155-6.035-13.098l-10.712-3.954c-5.106-1.873-11.21.944-13.098 6.036l-3.122 8.463a65.463 65.463 0 0 0-18.73.708l-3.775-8.186c-2.345-5.106-8.422-7.34-13.528-4.995L88.57 326.18c-5.106 2.358-7.353 8.436-4.995 13.528l3.774 8.172a64.996 64.996 0 0 0-12.723 13.778l-8.45-3.122c-5.106-1.9-11.21.916-13.112 6.022l-3.94 10.712a10.136 10.136 0 0 0 .305 7.797 10.124 10.124 0 0 0 5.73 5.287l8.464 3.135a64.95 64.95 0 0 0 .708 18.732l-8.187 3.774c-5.106 2.344-7.34 8.422-4.995 13.514l4.787 10.378c2.345 5.106 8.409 7.34 13.528 4.981l8.187-3.774a64.336 64.336 0 0 0 13.778 12.724l-3.122 8.464c-.958 2.553-.847 5.314.305 7.797a10.104 10.104 0 0 0 5.716 5.315l10.712 3.954c2.553.943 5.314.832 7.798-.305a10.034 10.034 0 0 0 5.286-5.73l3.136-8.464a64.931 64.931 0 0 0 18.731-.708l3.76 8.186c2.345 5.092 8.422 7.34 13.528 4.981l10.365-4.773c5.12-2.345 7.354-8.408 4.995-13.528l-3.774-8.172a64.24 64.24 0 0 0 12.71-13.778l8.463 3.136c2.567.957 5.328.832 7.812-.306 2.483-1.137 4.343-3.177 5.286-5.716l3.955-10.712c1.956-5.272-.736-11.141-6.022-13.084l-.014-.014zm-56.083 26.64c-5.342 2.456-11.017 3.705-16.858 3.705-15.693 0-30.08-9.213-36.644-23.463-9.296-20.202-.43-44.192 19.758-53.488a39.873 39.873 0 0 1 16.845-3.704c15.692 0 30.08 9.199 36.643 23.448 9.297 20.202.43 44.206-19.744 53.502zm142.635-185.578V76.458h-52.406V87.82h41.043v161.602H235.2v13.986h41.043v176.227H235.2v11.363h52.406V263.41h47.647l-.805-13.986z"/></g></svg>