<svg width="512" height="512" xmlns="http://www.w3.org/2000/svg"><g fill-rule="evenodd"><path d="M418.559 225.687h13.018v20.303h-13.018zm0-30.447h13.018v20.303h-13.018zm-.001-10.159h13.019v-13.006l-6.51-6.503H412.05v13.006h6.51zm-208.757-19.509h26.967v13.006h-26.967zm-40.446 0h26.967v13.006h-26.967zm-40.447 0h26.967v13.006h-26.967zm242.695 0h26.967v13.006h-26.967zm-323.595 0h26.973v13.006H48.008zm283.142 0h26.973v13.006H331.15zm-242.689 0h26.967v13.006H88.461zm202.241 0h26.967v13.006h-26.967zm-40.453 0h26.973v13.006h-26.973zM88.454 438.703h26.973v13.006H88.454zm-40.446 0h26.967v13.006H48.008zm283.142 0h26.967v13.006H331.15zm40.446 0h26.973v13.006h-26.973zm-242.688 0h26.967v13.006h-26.967zm40.44 0h26.973v13.006h-26.973zm80.901 0h26.967v13.006h-26.967zm-40.448 0h26.967v13.006h-26.967zm80.901 0h26.967v13.006h-26.967zm127.856 0h-6.509v13.006h13.018l6.51-6.503V432.2h-13.019zm.001-67.821h13.018v20.439h-13.018zm0 30.655h13.018v20.446h-13.018zm-58.582-92.897c0 14.346 11.678 26.012 26.037 26.012 14.358 0 26.036-11.666 26.036-26.012 0-14.347-11.677-26.013-26.036-26.013-14.36 0-26.037 11.666-26.037 26.013zm26.037-13.006c7.179 0 13.018 5.833 13.018 13.006 0 7.172-5.839 13.005-13.018 13.005-7.18 0-13.018-5.833-13.018-13.005 0-7.172 5.839-13.006 13.018-13.006z"/><path d="M490.159 263.12h-32.682l.136-91.043c0-17.93-14.6-32.516-32.545-32.516h-2.76V77.28l-7.726-6.387-46.513 8.844-15.01-40-8.273-3.85L52.928 139.56h-31.42L15 146.063V471.22l6.509 6.503h403.558c17.946 0 32.546-14.586 32.546-32.528l-.136-91.036 32.682.006 6.509-6.503v-78.037l-6.51-6.503zM343.119 50.286l11.977 31.917-219.132 41.665L343.12 50.285zm66.177 34.851v54.424h-286.22l286.22-54.424zm15.771 379.579H28.017v-13.007h6.51v-13.006h-6.51V178.578h6.51v-13.006h-6.51v-13.008h397.05c10.766 0 19.527 8.754 19.527 19.497l-.137 91.057h-12.881v-6.977h-13.018v6.977h-45.563c-17.946 0-32.545 14.587-32.545 32.516v26.012c0 17.93 14.6 32.516 32.545 32.516l45.563-.004v6.5h13.018v-6.501l12.881-.001.137 91.05c0 10.756-8.76 19.509-19.527 19.509zm58.582-123.56l-32.695-.006-77.959.006c-10.766 0-19.527-8.752-19.527-19.509v-26.012c0-10.757 8.761-19.51 19.527-19.51H483.65v65.031z"/></g></svg>