<svg width="512" height="512" xmlns="http://www.w3.org/2000/svg"><path d="M470.292 418.101l-104.741-89.086c-10.834-9.742-22.414-14.219-31.768-13.79 24.72-28.963 39.658-66.535 39.658-107.602 0-91.574-74.245-165.819-165.818-165.819-91.574 0-165.819 74.245-165.819 165.819 0 91.573 74.245 165.818 165.819 165.818 41.067 0 78.639-14.938 107.602-39.658-.429 9.354 4.048 20.934 13.79 31.768l89.086 104.741c15.255 16.941 40.17 18.379 55.37 3.179 15.2-15.2 13.776-40.115-3.179-55.37zm-262.656-99.92c-61.048 0-110.545-49.496-110.545-110.545 0-61.048 49.497-110.545 110.545-110.545 61.05 0 110.546 49.497 110.546 110.545 0 61.05-49.497 110.546-110.546 110.546zm27.637-193.454H180V180h-55.273v55.273H180v55.272h55.273v-55.272h55.272V180h-55.272v-55.273z" fill-rule="evenodd"/></svg>