<?xml version="1.0" encoding="utf-8"?>
<!-- Generator: Adobe Illustrator 15.0.2, SVG Export Plug-In . SVG Version: 6.00 Build 0)  -->
<!DOCTYPE svg PUBLIC "-//W3C//DTD SVG 1.1//EN" "http://www.w3.org/Graphics/SVG/1.1/DTD/svg11.dtd">
<svg version="1.1" id="Layer_1" xmlns="http://www.w3.org/2000/svg" xmlns:xlink="http://www.w3.org/1999/xlink" x="0px" y="0px"
	 width="412px" height="124px" viewBox="0 0 412 124" enable-background="new 0 0 412 124" xml:space="preserve">
<path fill="#E34F26" d="M9.93,111.406L0,0h109.227l-9.93,111.406L54.492,124"/>
<path fill="#EF652A" d="M54.734,114.312l36.086-9.931L99.297,8.96H54.734"/>
<path fill="#EBEBEB" d="M54.734,50.375H36.57l-1.211-14.047h19.375V22.766h-0.242H20.344l0.242,3.633l3.391,37.781h30.758
	L54.734,50.375L54.734,50.375z M54.734,85.977h-0.242l-15.258-4.117l-0.969-10.897H31h-6.297l1.695,21.556l28.094,7.75h0.242V85.977
	L54.734,85.977z"/>
<path fill="#FFFFFF" d="M54.492,50.375V64.18h16.953l-1.695,17.68l-15.258,4.117v14.289l28.094-7.75l0.242-2.422l3.148-36.086
	l0.484-3.633h-3.875H54.492z M54.492,22.766v8.477v5.086l0,0h33.18l0,0l0,0l0.242-2.906l0.727-7.023l0.242-3.633L54.492,22.766
	L54.492,22.766z"/>
<g enable-background="new    ">
	<path fill="#266E9E" d="M133.307,40.879v6.295h1.859v4.6h-8.938l0.065-4.6h1.859v-17.06h-1.859V25.45h8.873v4.664h-1.859v5.937
		h4.665v-5.937h-1.924V25.45h8.905v4.664h-1.827v10.72v6.34h1.827v4.6h-8.905v-4.6h1.924v-6.295H133.307z"/>
	<path fill="#266E9E" d="M159.239,51.773h-8.774v-4.6h1.729v-17.06h-1.664v3.164h-4.241v-7.73h17.027v7.73h-4.241v-3.164h-1.664
		v17.06h1.827V51.773z"/>
	<path fill="#266E9E" d="M181.345,25.45h9.143v4.729h-1.565v16.962h1.565v4.632h-8.285v-4.632h1.37v-9.688l-4.078,14.32h-3.458
		l-4.012-14.32v9.688h1.664v4.632h-8.938v-4.632h1.892V30.18h-1.892V25.45h9.598l3.644,17.777L181.345,25.45z"/>
	<path fill="#266E9E" d="M199.067,47.174h4.925v-3.49h4.99v8.09h-16.994v-4.6h1.925v-17.06h-1.925V25.45h8.905v4.664h-1.827V47.174z
		"/>
	<path fill="#266E9E" d="M212.864,41.205l-2.642-3.256V25.45h15.885v7.078h-5.35V30.31h-5.447v5.676h8.154l2.74,2.675v10.83
		l-2.348,2.283h-10.895l-2.74-2.74v-4.664h4.859v2.675h6.035v-5.839H212.864z"/>
	<path fill="#266E9E" d="M253.279,51.773h-15.201v-4.6h1.893l0.032-17.125h-1.989v-4.729h15.266l2.642,2.346v8.113l-1.892,2.248
		l1.892,1.955v8.926L253.279,51.773z M250.441,30.18h-5.285v5.806h5.285V30.18z M250.441,40.716h-5.285v6.458h5.285V40.716z"/>
	<path fill="#266E9E" d="M264.435,47.174h4.925v-3.49h4.991v8.09h-16.995v-4.6h1.926v-17.06h-1.926V25.45h8.906v4.664h-1.827V47.174
		z"/>
	<path fill="#266E9E" d="M282.504,51.773h-6.849v-4.534h0.946l3.946-17.125h-1.142l-0.033-4.664h7.828v4.664h-0.881l4.34,17.125
		h0.945v4.534h-7.014v-4.534h1.207l-0.359-1.5h-3.685l-0.392,1.5h1.141V51.773z M284.561,42.216l-1.012-4.077l-1.045,4.077H284.561z
		"/>
	<path fill="#266E9E" d="M301.457,51.773h-8.645v-4.729h1.957V30.049h-1.957V25.45h7.59l3.795,11.253v-6.752h-1.859V25.45h9.002
		v4.599h-1.859v16.995h1.859v4.729h-7.109l-4.371-13.472v8.742h1.598V51.773z"/>
	<path fill="#266E9E" d="M322.268,30.114V25.45h8.449v4.664h-1.371l-5.643,7.484l5.512,9.575h1.502v4.6h-8.449v-4.6h1.436
		l-2.871-5.577l-1.271,1.794v3.783h1.859v4.6h-8.873l-0.033-4.6h1.893v-17.06h-1.893V25.45h8.906v4.664h-1.859v5.284l4.078-5.284
		H322.268z"/>
</g>
<g enable-background="new    ">
	<path fill="#266E9E" d="M136.112,90.916h-4.665l-3.196-21.594h-1.598v-4.729h8.057v4.729h-1.305l1.226,12.359l2.646-10.372h3.413
		l2.903,10.181l1.392-12.168h-1.696v-4.729h7.796v4.729h-1.533l-3.099,21.594h-4.664l-2.838-11.873L136.112,90.916z"/>
	<path fill="#266E9E" d="M154.901,90.916l-2.12-2.118V67.134l2.512-2.541h10.83l2.479,2.443v21.437l-2.414,2.443H154.901z
		 M163.447,69.322h-5.513V86.35h5.513V69.322z"/>
	<path fill="#266E9E" d="M179.072,90.916h-8.905v-4.6h1.859V69.322h-1.859v-4.729h14.413l2.484,2.936v9.785l-2.773,2.675h-1.631
		l3.556,6.328h0.979v4.6h-7.372v-4.6h1.077l-3.262-6.132h-0.228v6.132h1.664V90.916z M181.616,69.322h-4.208v5.937h4.208V69.322z"/>
	<path fill="#266E9E" d="M203.014,90.916h-14.516l-0.033-4.566h1.957V69.322h-1.957v-4.729h14.613l2.903,2.538V88.28L203.014,90.916
		z M200.469,69.322h-4.893V86.35h4.893V69.322z"/>
	<path fill="#266E9E" d="M217.235,90.916h-9.068v-4.632h1.827V69.322h-1.827v-4.729h13.548l2.533,2.571v9.895l-2.674,2.734h-6.23
		l0.032,6.491h1.892L217.235,90.916z M218.736,69.322h-3.458v5.741h3.458V69.322z"/>
	<path fill="#266E9E" d="M234.393,90.916h-8.904v-4.6h1.859V69.322h-1.859v-4.729H239.9l2.484,2.936v9.785l-2.773,2.675h-1.631
		l3.557,6.328h0.979v4.6h-7.373v-4.6h1.077l-3.263-6.132h-0.228v6.132h1.663V90.916z M236.938,69.322h-4.208v5.937h4.208V69.322z"/>
	<path fill="#266E9E" d="M260.65,90.916h-17.157v-4.6h1.859v-17.06h-1.989v-4.664h17.287v7.534h-4.99v-2.87h-5.154v6.1h3.947v4.632
		h-3.947v6.328h5.154v-3.49h4.99V90.916z"/>
	<path fill="#266E9E" d="M261.891,83.152h5.153v3.197h5.937v-6.361h-8.619l-2.471-2.419V66.913l2.414-2.32h11.221l2.707,2.686v5.077
		h-5.252v-3.033h-5.937v5.937h8.677l2.414,2.414v10.764l-2.512,2.479h-10.895l-2.838-2.806V83.152z"/>
	<path fill="#266E9E" d="M279.341,83.152h5.153v3.197h5.938v-6.361h-8.619l-2.472-2.419V66.913l2.414-2.32h11.22l2.707,2.686v5.077
		h-5.25v-3.033h-5.938v5.937h8.676l2.414,2.414v10.764l-2.512,2.479h-10.895l-2.837-2.806V83.152z"/>
	<path fill="#266E9E" d="M320.018,90.916h-8.775v-4.6h1.729v-17.06h-1.664v3.164h-4.24v-7.73h17.027v7.73h-4.24v-3.164h-1.664v17.06
		h1.828V90.916z"/>
	<path fill="#266E9E" d="M332.836,80.021v6.295h1.859v4.6h-8.938l0.064-4.6h1.859v-17.06h-1.859v-4.664h8.873v4.664h-1.859v5.937
		h4.664v-5.937h-1.924v-4.664h8.904v4.664h-1.826v10.72v6.34h1.826v4.6h-8.904v-4.6h1.924v-6.295H332.836z"/>
	<path fill="#266E9E" d="M362.975,90.916h-17.156v-4.6h1.859v-17.06h-1.99v-4.664h17.287v7.534h-4.99v-2.87h-5.154v6.1h3.947v4.632
		h-3.947v6.328h5.154v-3.49h4.99V90.916z"/>
	<path fill="#266E9E" d="M380.809,64.593h9.143v4.729h-1.566v16.962h1.566v4.632h-8.285v-4.632h1.369v-9.688l-4.076,14.32H375.5
		l-4.012-14.32v9.688h1.664v4.632h-8.938v-4.632h1.891V69.322h-1.891v-4.729h9.598l3.645,17.777L380.809,64.593z"/>
	<path fill="#266E9E" d="M408.51,90.916h-17.156v-4.6h1.859v-17.06h-1.99v-4.664h17.287v7.534h-4.99v-2.87h-5.154v6.1h3.947v4.632
		h-3.947v6.328h5.154v-3.49h4.99V90.916z"/>
</g>
</svg>
