<?xml version="1.0" encoding="utf-8"?>
<!-- Generator: Adobe Illustrator 15.0.2, SVG Export Plug-In . SVG Version: 6.00 Build 0)  -->
<!DOCTYPE svg PUBLIC "-//W3C//DTD SVG 1.1//EN" "http://www.w3.org/Graphics/SVG/1.1/DTD/svg11.dtd">
<svg version="1.1" id="Layer_1" xmlns="http://www.w3.org/2000/svg" xmlns:xlink="http://www.w3.org/1999/xlink" x="0px" y="0px"
	 width="300px" height="95px" viewBox="-61.75 -24.158 300 95" enable-background="new -61.75 -24.158 300 95" xml:space="preserve"
	>
<path fill="#D9D9D9" d="M-60.155-21.633l7.236,81.19l32.475,9.176l32.652-9.176l7.236-81.19H-60.155z M4.441-2.394L3.91,2.724
	L3.735,4.84h-24.179l0,0h-13.944l0.883,10.237h13.237H0.027h2.824l-0.352,2.647L0.205,44.021l-0.176,1.766l-20.297,5.6v0.049h-0.176
	l-20.473-5.646l-1.236-15.708h4.588h5.293l0.708,7.939l11.12,3.003l0.176-0.048l10.943-2.952l1.236-12.885h-12.178h-22.415
	l-2.472-27.531l-0.176-2.65h24.886h0.176H4.618L4.441-2.394z"/>
<polygon fill="#E3E3E3" points="-8.091,25.137 -20.268,25.137 -20.268,25.137 -20.268,40.975 -9.327,38.022 "/>
<polygon fill="#E3E3E3" points="-20.268,-15.104 -20.268,-5.042 4.618,-5.042 4.441,-2.394 3.91,2.724 3.735,4.842 -20.268,4.842 
	-20.268,15.077 0.027,15.077 2.851,15.077 2.499,17.724 0.205,44.022 0.029,45.788 -20.268,51.388 -20.268,61.674 6.03,54.435 
	12.206,-15.104 "/>
<g enable-background="new    ">
	<path fill="#D9D9D9" d="M35.648,8.159v4.586h1.354v3.351h-6.514l0.048-3.351h1.354V0.313h-1.354v-3.399h6.466v3.399h-1.354V4.64
		h3.4V0.313h-1.403v-3.399h6.489v3.399h-1.332v7.812v4.621h1.332v3.351h-6.489v-3.351h1.403V8.159H35.648z"/>
	<path fill="#D9D9D9" d="M54.547,16.097h-6.395v-3.351h1.26V0.313h-1.213v2.305h-3.091v-5.634h12.408v5.634h-3.091V0.313h-1.214
		v12.432h1.332L54.547,16.097L54.547,16.097z"/>
	<path fill="#D9D9D9" d="M70.657-3.085h6.662V0.36h-1.139v12.363h1.139v3.375h-6.037v-3.375h0.999V5.663l-2.973,10.436h-2.52
		L63.863,5.663v7.061h1.213v3.375h-6.514v-3.375h1.379V0.362h-1.379v-3.447h6.996l2.655,12.954L70.657-3.085z"/>
	<path fill="#D9D9D9" d="M83.57,12.746h3.59v-2.545h3.635v5.896H78.411v-3.351h1.403V0.313h-1.403v-3.399h6.49v3.399h-1.332
		L83.57,12.746L83.57,12.746z"/>
	<path fill="#D9D9D9" d="M93.624,8.396L91.7,6.024v-9.109h11.573v5.158h-3.898V0.457h-3.97v4.136h5.941l1.998,1.95v7.892
		l-1.71,1.664h-7.94l-1.998-1.998v-3.399h3.54v1.951h4.399V8.396H93.624L93.624,8.396z"/>
	<path fill="#D9D9D9" d="M123.077,16.097H112v-3.351h1.377l0.025-12.48h-1.45v-3.446h11.125l1.928,1.708v5.913l-1.381,1.637
		l1.381,1.424v6.505L123.077,16.097z M121.01,0.36h-3.853v4.23h3.853V0.36z M121.01,8.038h-3.853v4.708h3.853V8.038z"/>
	<path fill="#D9D9D9" d="M131.205,12.746h3.59v-2.545h3.638v5.896h-12.385v-3.351h1.402V0.313h-1.402v-3.399h6.49v3.399h-1.333
		V12.746z"/>
	<path fill="#D9D9D9" d="M144.374,16.097h-4.992v-3.305h0.69l2.875-12.478h-0.833l-0.026-3.399h5.709v3.399h-0.643l3.161,12.478
		h0.692v3.305h-5.113v-3.305h0.879l-0.26-1.091h-2.687l-0.286,1.091h0.833V16.097L144.374,16.097z M145.874,9.132l-0.738-2.971
		l-0.762,2.971H145.874z"/>
	<path fill="#D9D9D9" d="M158.187,16.097h-6.299v-3.445h1.424V0.266h-1.424v-3.351h5.531l2.765,8.2v-4.92h-1.356v-3.28h6.559v3.351
		h-1.35v12.386h1.35v3.445h-5.178l-3.188-9.818v6.37h1.166V16.097L158.187,16.097z"/>
	<path fill="#D9D9D9" d="M173.353,0.313v-3.399h6.156v3.399h-0.999l-4.114,5.454l4.016,6.978h1.098v3.351h-6.156v-3.351h1.05
		l-2.093-4.065l-0.928,1.307v2.758h1.354v3.351h-6.467l-0.021-3.351h1.377V0.313h-1.377v-3.399h6.487v3.399h-1.356v3.85l2.973-3.85
		H173.353z"/>
</g>
<g enable-background="new    ">
	<path fill="#D9D9D9" d="M37.692,44.622h-3.4l-2.328-15.737H30.8v-3.448h5.871v3.448H35.72l0.894,9.005l1.928-7.558h2.487
		l2.115,7.418l1.014-8.865h-1.235v-3.448h5.682v3.448h-1.117L45.229,44.62h-3.4l-2.068-8.653L37.692,44.622z"/>
	<path fill="#D9D9D9" d="M51.384,44.622l-1.545-1.546V27.29l1.832-1.853h7.892l1.807,1.781V42.84l-1.76,1.782H51.384z
		 M57.612,28.887h-4.018v12.405h4.018V28.887z"/>
	<path fill="#D9D9D9" d="M68.998,44.622h-6.489v-3.351h1.354V28.887h-1.354V25.44h10.504l1.81,2.141v7.128l-2.021,1.95h-1.188
		l2.591,4.612h0.713v3.353h-5.372v-3.353h0.784l-2.377-4.469h-0.166v4.469H69L68.998,44.622L68.998,44.622z M70.854,28.887h-3.066
		v4.326h3.066V28.887z"/>
	<path fill="#D9D9D9" d="M86.447,44.622H75.868l-0.024-3.327h1.426V28.887h-1.426V25.44h10.65l2.115,1.851v15.412L86.447,44.622z
		 M84.591,28.887h-3.566v12.405h3.566V28.887z"/>
	<path fill="#D9D9D9" d="M96.81,44.622h-6.606v-3.378h1.331V28.887h-1.331V25.44h9.872l1.846,1.871v7.21l-1.949,1.994h-4.543
		l0.027,4.731h1.379L96.81,44.622z M97.904,28.887h-2.521v4.181h2.521V28.887z"/>
	<path fill="#D9D9D9" d="M109.313,44.622h-6.49v-3.351h1.354V28.887h-1.354V25.44h10.503l1.81,2.141v7.128l-2.018,1.95h-1.19
		l2.591,4.612h0.715v3.353h-5.374v-3.353h0.785l-2.378-4.469H108.1v4.469h1.211v3.351H109.313z M111.168,28.887h-3.064v4.326h3.064
		V28.887L111.168,28.887z"/>
	<path fill="#D9D9D9" d="M128.447,44.622h-12.504v-3.351h1.357V28.837h-1.449V25.44h12.596v5.49h-3.634v-2.092h-3.756v4.445h2.877
		v3.378h-2.877v4.612h3.756V38.73h3.634V44.622z"/>
	<path fill="#D9D9D9" d="M129.353,38.964h3.757v2.331h4.326v-4.636h-6.281l-1.802-1.763v-7.765l1.761-1.691h8.175l1.976,1.957v3.7
		h-3.828v-2.209h-4.326v4.326h6.322l1.76,1.76v7.845l-1.832,1.807h-7.939l-2.067-2.046V38.964L129.353,38.964z"/>
	<path fill="#D9D9D9" d="M142.069,38.964h3.754v2.331h4.325v-4.636h-6.282l-1.8-1.763v-7.765l1.759-1.691h8.178l1.974,1.957v3.7
		h-3.826v-2.209h-4.327v4.326h6.323l1.758,1.76v7.845l-1.829,1.807h-7.939l-2.067-2.046L142.069,38.964L142.069,38.964z"/>
	<path fill="#D9D9D9" d="M171.713,44.622h-6.396v-3.351h1.262V28.837h-1.214v2.305h-3.089v-5.633h12.405v5.633h-3.092v-2.305h-1.214
		v12.435h1.333L171.713,44.622L171.713,44.622z"/>
	<path fill="#D9D9D9" d="M181.053,36.683v4.589h1.354v3.351h-6.511l0.044-3.351h1.354V28.837h-1.354V25.44h6.467v3.396h-1.354v4.328
		h3.396v-4.328h-1.401V25.44h6.487v3.396h-1.329v7.812v4.619h1.329v3.353h-6.487v-3.353h1.401v-4.585H181.053L181.053,36.683z"/>
	<path fill="#D9D9D9" d="M203.016,44.622h-12.503v-3.351h1.356V28.837h-1.452V25.44h12.599v5.49h-3.637v-2.092h-3.756v4.445h2.877
		v3.378h-2.877v4.612h3.756V38.73h3.637V44.622L203.016,44.622z"/>
	<path fill="#D9D9D9" d="M216.014,25.44h6.661v3.446h-1.142v12.36h1.142v3.377h-6.037v-3.377h0.999v-7.06l-2.973,10.435h-2.52
		l-2.921-10.435v7.06h1.21v3.377h-6.511v-3.377h1.377v-12.36h-1.377V25.44h6.995l2.655,12.954L216.014,25.44z"/>
	<path fill="#D9D9D9" d="M236.198,44.622h-12.504v-3.351h1.356V28.837h-1.452V25.44h12.6v5.49h-3.638v-2.092h-3.757v4.445h2.878
		v3.378h-2.878v4.612h3.757V38.73h3.638V44.622L236.198,44.622z"/>
</g>
</svg>
