<?xml version="1.0" encoding="utf-8"?>
<!-- Generator: Adobe Illustrator 15.0.2, SVG Export Plug-In . SVG Version: 6.00 Build 0)  -->
<!DOCTYPE svg PUBLIC "-//W3C//DTD SVG 1.1//EN" "http://www.w3.org/Graphics/SVG/1.1/DTD/svg11.dtd">
<svg version="1.1" id="Layer_1" xmlns="http://www.w3.org/2000/svg" xmlns:xlink="http://www.w3.org/1999/xlink" x="0px" y="0px"
	 width="412px" height="124px" viewBox="0 0 412 124" enable-background="new 0 0 412 124" xml:space="preserve">
<path fill="#E34F26" d="M9.93,111.406L0,0h109.227l-9.93,111.406L54.492,124"/>
<path fill="#EF652A" d="M54.734,114.312l36.086-9.93l8.477-95.422H54.734"/>
<path fill="#EBEBEB" d="M54.734,50.375H36.57l-1.211-14.047h19.375V22.766h-0.242H20.344l0.242,3.633l3.391,37.781h30.758V50.375z
	 M54.734,85.977h-0.242l-15.258-4.117l-0.969-10.898H31h-6.297l1.695,21.555l28.094,7.75h0.242V85.977z"/>
<path fill="#FFFFFF" d="M54.492,50.375V64.18h16.953l-1.695,17.68l-15.258,4.117v14.289l28.094-7.75l0.242-2.422l3.148-36.086
	l0.484-3.633h-3.875H54.492z M54.492,22.766v8.477v5.086l0,0h33.18l0,0l0,0l0.242-2.906l0.727-7.023l0.242-3.633H54.492z"/>
<text transform="matrix(1 0 0 1 126.0005 51.7739)"><tspan x="0" y="0" fill="#266E9E" font-family="'Athletic'" font-size="32.6192">HTML5 BLANK </tspan><tspan x="0" y="39.142" fill="#266E9E" font-family="'Athletic'" font-size="32.6192">WORDPRESS THEME</tspan></text>
</svg>
